%TF.GenerationSoftware,KiCad,Pcbnew,8.0.4*%
%TF.CreationDate,2025-01-06T14:25:35+00:00*%
%TF.ProjectId,soic_8_breakout,736f6963-5f38-45f6-9272-65616b6f7574,rev?*%
%TF.SameCoordinates,Original*%
%TF.FileFunction,Legend,Top*%
%TF.FilePolarity,Positive*%
%FSLAX46Y46*%
G04 Gerber Fmt 4.6, Leading zero omitted, Abs format (unit mm)*
G04 Created by KiCad (PCBNEW 8.0.4) date 2025-01-06 14:25:35*
%MOMM*%
%LPD*%
G01*
G04 APERTURE LIST*
%ADD10C,0.200000*%
%ADD11C,0.120000*%
G04 APERTURE END LIST*
D10*
X55113482Y-52642219D02*
X54542054Y-52642219D01*
X54827768Y-52642219D02*
X54827768Y-51642219D01*
X54827768Y-51642219D02*
X54732530Y-51785076D01*
X54732530Y-51785076D02*
X54637292Y-51880314D01*
X54637292Y-51880314D02*
X54542054Y-51927933D01*
X60086993Y-52070790D02*
X59991755Y-52023171D01*
X59991755Y-52023171D02*
X59944136Y-51975552D01*
X59944136Y-51975552D02*
X59896517Y-51880314D01*
X59896517Y-51880314D02*
X59896517Y-51832695D01*
X59896517Y-51832695D02*
X59944136Y-51737457D01*
X59944136Y-51737457D02*
X59991755Y-51689838D01*
X59991755Y-51689838D02*
X60086993Y-51642219D01*
X60086993Y-51642219D02*
X60277469Y-51642219D01*
X60277469Y-51642219D02*
X60372707Y-51689838D01*
X60372707Y-51689838D02*
X60420326Y-51737457D01*
X60420326Y-51737457D02*
X60467945Y-51832695D01*
X60467945Y-51832695D02*
X60467945Y-51880314D01*
X60467945Y-51880314D02*
X60420326Y-51975552D01*
X60420326Y-51975552D02*
X60372707Y-52023171D01*
X60372707Y-52023171D02*
X60277469Y-52070790D01*
X60277469Y-52070790D02*
X60086993Y-52070790D01*
X60086993Y-52070790D02*
X59991755Y-52118409D01*
X59991755Y-52118409D02*
X59944136Y-52166028D01*
X59944136Y-52166028D02*
X59896517Y-52261266D01*
X59896517Y-52261266D02*
X59896517Y-52451742D01*
X59896517Y-52451742D02*
X59944136Y-52546980D01*
X59944136Y-52546980D02*
X59991755Y-52594600D01*
X59991755Y-52594600D02*
X60086993Y-52642219D01*
X60086993Y-52642219D02*
X60277469Y-52642219D01*
X60277469Y-52642219D02*
X60372707Y-52594600D01*
X60372707Y-52594600D02*
X60420326Y-52546980D01*
X60420326Y-52546980D02*
X60467945Y-52451742D01*
X60467945Y-52451742D02*
X60467945Y-52261266D01*
X60467945Y-52261266D02*
X60420326Y-52166028D01*
X60420326Y-52166028D02*
X60372707Y-52118409D01*
X60372707Y-52118409D02*
X60277469Y-52070790D01*
D11*
%TO.C,C1*%
X57238748Y-51455000D02*
X57761252Y-51455000D01*
X57238748Y-52925000D02*
X57761252Y-52925000D01*
%TO.C,J1*%
X51090000Y-50860000D02*
X52420000Y-50860000D01*
X51090000Y-52190000D02*
X51090000Y-50860000D01*
X51090000Y-53460000D02*
X51090000Y-61140000D01*
X51090000Y-53460000D02*
X53750000Y-53460000D01*
X51090000Y-61140000D02*
X53750000Y-61140000D01*
X53750000Y-53460000D02*
X53750000Y-61140000D01*
%TO.C,J2*%
X61250000Y-58540000D02*
X61250000Y-50860000D01*
X63910000Y-50860000D02*
X61250000Y-50860000D01*
X63910000Y-58540000D02*
X61250000Y-58540000D01*
X63910000Y-58540000D02*
X63910000Y-50860000D01*
X63910000Y-59810000D02*
X63910000Y-61140000D01*
X63910000Y-61140000D02*
X62580000Y-61140000D01*
%TO.C,U1*%
X54940000Y-57270000D02*
X54940000Y-55320000D01*
X54940000Y-57270000D02*
X54940000Y-59220000D01*
X60060000Y-57270000D02*
X60060000Y-55320000D01*
X60060000Y-57270000D02*
X60060000Y-59220000D01*
X55035000Y-59970000D02*
X54705000Y-60210000D01*
X54705000Y-59730000D01*
X55035000Y-59970000D01*
G36*
X55035000Y-59970000D02*
G01*
X54705000Y-60210000D01*
X54705000Y-59730000D01*
X55035000Y-59970000D01*
G37*
%TD*%
M02*
