%TF.GenerationSoftware,KiCad,Pcbnew,8.0.4*%
%TF.CreationDate,2025-01-06T14:25:35+00:00*%
%TF.ProjectId,soic_8_breakout,736f6963-5f38-45f6-9272-65616b6f7574,rev?*%
%TF.SameCoordinates,Original*%
%TF.FileFunction,Copper,L1,Top*%
%TF.FilePolarity,Positive*%
%FSLAX46Y46*%
G04 Gerber Fmt 4.6, Leading zero omitted, Abs format (unit mm)*
G04 Created by KiCad (PCBNEW 8.0.4) date 2025-01-06 14:25:35*
%MOMM*%
%LPD*%
G01*
G04 APERTURE LIST*
G04 Aperture macros list*
%AMRoundRect*
0 Rectangle with rounded corners*
0 $1 Rounding radius*
0 $2 $3 $4 $5 $6 $7 $8 $9 X,Y pos of 4 corners*
0 Add a 4 corners polygon primitive as box body*
4,1,4,$2,$3,$4,$5,$6,$7,$8,$9,$2,$3,0*
0 Add four circle primitives for the rounded corners*
1,1,$1+$1,$2,$3*
1,1,$1+$1,$4,$5*
1,1,$1+$1,$6,$7*
1,1,$1+$1,$8,$9*
0 Add four rect primitives between the rounded corners*
20,1,$1+$1,$2,$3,$4,$5,0*
20,1,$1+$1,$4,$5,$6,$7,0*
20,1,$1+$1,$6,$7,$8,$9,0*
20,1,$1+$1,$8,$9,$2,$3,0*%
G04 Aperture macros list end*
%TA.AperFunction,SMDPad,CuDef*%
%ADD10RoundRect,0.250000X-0.337500X-0.475000X0.337500X-0.475000X0.337500X0.475000X-0.337500X0.475000X0*%
%TD*%
%TA.AperFunction,ComponentPad*%
%ADD11R,1.700000X1.700000*%
%TD*%
%TA.AperFunction,ComponentPad*%
%ADD12O,1.700000X1.700000*%
%TD*%
%TA.AperFunction,ComponentPad*%
%ADD13C,1.700000*%
%TD*%
%TA.AperFunction,SMDPad,CuDef*%
%ADD14RoundRect,0.150000X0.150000X-0.825000X0.150000X0.825000X-0.150000X0.825000X-0.150000X-0.825000X0*%
%TD*%
%TA.AperFunction,ViaPad*%
%ADD15C,0.600000*%
%TD*%
%TA.AperFunction,Conductor*%
%ADD16C,0.200000*%
%TD*%
%TA.AperFunction,Conductor*%
%ADD17C,0.500000*%
%TD*%
G04 APERTURE END LIST*
D10*
%TO.P,C1,1*%
%TO.N,/GND*%
X56462500Y-52190000D03*
%TO.P,C1,2*%
%TO.N,Net-(J2-Pin_4)*%
X58537500Y-52190000D03*
%TD*%
D11*
%TO.P,J1,1,Pin_1*%
%TO.N,Net-(J1-Pin_1)*%
X52420000Y-52190000D03*
D12*
%TO.P,J1,2,Pin_2*%
%TO.N,Net-(J1-Pin_2)*%
X52420000Y-54730000D03*
%TO.P,J1,3,Pin_3*%
%TO.N,Net-(J1-Pin_3)*%
X52420000Y-57270000D03*
%TO.P,J1,4,Pin_4*%
%TO.N,/GND*%
X52420000Y-59810000D03*
%TD*%
D13*
%TO.P,J2,1,Pin_1*%
%TO.N,Net-(J2-Pin_1)*%
X62580000Y-59810000D03*
D12*
%TO.P,J2,2,Pin_2*%
%TO.N,Net-(J2-Pin_2)*%
X62580000Y-57270000D03*
%TO.P,J2,3,Pin_3*%
%TO.N,Net-(J2-Pin_3)*%
X62580000Y-54730000D03*
%TO.P,J2,4,Pin_4*%
%TO.N,Net-(J2-Pin_4)*%
X62580000Y-52190000D03*
%TD*%
D14*
%TO.P,U1,1,Pin_1*%
%TO.N,Net-(J1-Pin_1)*%
X55595000Y-59745000D03*
%TO.P,U1,2,Pin_2*%
%TO.N,Net-(J1-Pin_2)*%
X56865000Y-59745000D03*
%TO.P,U1,3,Pin_3*%
%TO.N,Net-(J1-Pin_3)*%
X58135000Y-59745000D03*
%TO.P,U1,4,Pin_4*%
%TO.N,/GND*%
X59405000Y-59745000D03*
%TO.P,U1,5,Pin_5*%
%TO.N,Net-(J2-Pin_1)*%
X59405000Y-54795000D03*
%TO.P,U1,6,Pin_6*%
%TO.N,Net-(J2-Pin_2)*%
X58135000Y-54795000D03*
%TO.P,U1,7,Pin_7*%
%TO.N,Net-(J2-Pin_3)*%
X56865000Y-54795000D03*
%TO.P,U1,8,Pin_8*%
%TO.N,Net-(J2-Pin_4)*%
X55595000Y-54795000D03*
%TD*%
D15*
%TO.N,/GND*%
X59405000Y-57970000D03*
X55210000Y-52190000D03*
%TD*%
D16*
%TO.N,/GND*%
X59440000Y-57970000D02*
X59410000Y-58000000D01*
D17*
X56462500Y-52190000D02*
X55210000Y-52190000D01*
X59405000Y-59745000D02*
X59405000Y-57970000D01*
D16*
%TO.N,Net-(J2-Pin_4)*%
X57427500Y-53300000D02*
X58537500Y-52190000D01*
X56735001Y-53300000D02*
X57427500Y-53300000D01*
X55595000Y-55415000D02*
X55595000Y-54440001D01*
X55595000Y-54440001D02*
X56735001Y-53300000D01*
X58537500Y-52190000D02*
X62580000Y-52190000D01*
%TO.N,Net-(J2-Pin_3)*%
X57205001Y-54100000D02*
X61950000Y-54100000D01*
X56865000Y-55415000D02*
X56865000Y-54440001D01*
X61950000Y-54100000D02*
X62580000Y-54730000D01*
X56865000Y-54440001D02*
X57205001Y-54100000D01*
%TO.N,Net-(J2-Pin_1)*%
X63770000Y-58620000D02*
X62580000Y-59810000D01*
X63770000Y-56833654D02*
X63770000Y-58620000D01*
X59405000Y-55415000D02*
X60110000Y-56120000D01*
X60110000Y-56120000D02*
X63056346Y-56120000D01*
X63056346Y-56120000D02*
X63770000Y-56833654D01*
%TO.N,Net-(J2-Pin_2)*%
X59015001Y-57270000D02*
X62580000Y-57270000D01*
X58135000Y-56389999D02*
X59015001Y-57270000D01*
X58135000Y-55415000D02*
X58135000Y-56389999D01*
%TO.N,Net-(J1-Pin_3)*%
X54780000Y-61170000D02*
X53570000Y-59960000D01*
X58135000Y-59745000D02*
X58135000Y-60695000D01*
X58135000Y-60695000D02*
X57660000Y-61170000D01*
X53570000Y-58420000D02*
X52420000Y-57270000D01*
X57660000Y-61170000D02*
X54780000Y-61170000D01*
X53570000Y-59960000D02*
X53570000Y-58420000D01*
%TO.N,Net-(J1-Pin_1)*%
X52896346Y-56120000D02*
X51350000Y-56120000D01*
X51350000Y-56120000D02*
X51020000Y-55790000D01*
X55595000Y-60365000D02*
X55595000Y-58135000D01*
X51020000Y-55790000D02*
X51020000Y-53590000D01*
X55595000Y-58135000D02*
X54653654Y-57193654D01*
X53970000Y-57193654D02*
X52896346Y-56120000D01*
X51020000Y-53590000D02*
X52420000Y-52190000D01*
X54653654Y-57193654D02*
X53970000Y-57193654D01*
%TO.N,Net-(J1-Pin_2)*%
X56865000Y-60365000D02*
X56865000Y-57185000D01*
X54330000Y-56640000D02*
X52420000Y-54730000D01*
X56865000Y-57185000D02*
X56320000Y-56640000D01*
X56320000Y-56640000D02*
X54330000Y-56640000D01*
%TD*%
%TA.AperFunction,Conductor*%
%TO.N,/GND*%
G36*
X50705703Y-56325384D02*
G01*
X50712181Y-56331416D01*
X50865139Y-56484374D01*
X50865149Y-56484385D01*
X50869479Y-56488715D01*
X50869480Y-56488716D01*
X50981284Y-56600520D01*
X51089374Y-56662925D01*
X51137589Y-56713491D01*
X51150813Y-56782098D01*
X51147149Y-56802404D01*
X51084939Y-57034583D01*
X51084936Y-57034596D01*
X51064341Y-57269999D01*
X51064341Y-57270000D01*
X51084936Y-57505403D01*
X51084938Y-57505413D01*
X51146094Y-57733655D01*
X51146096Y-57733659D01*
X51146097Y-57733663D01*
X51211920Y-57874820D01*
X51245965Y-57947830D01*
X51245967Y-57947834D01*
X51381501Y-58141395D01*
X51381506Y-58141402D01*
X51548597Y-58308493D01*
X51548603Y-58308498D01*
X51594941Y-58340944D01*
X51723895Y-58431239D01*
X51734594Y-58438730D01*
X51778219Y-58493307D01*
X51785413Y-58562805D01*
X51753890Y-58625160D01*
X51734595Y-58641880D01*
X51548922Y-58771890D01*
X51548920Y-58771891D01*
X51381891Y-58938920D01*
X51381886Y-58938926D01*
X51246400Y-59132420D01*
X51246399Y-59132422D01*
X51146570Y-59346507D01*
X51146567Y-59346513D01*
X51089364Y-59559999D01*
X51089364Y-59560000D01*
X51986988Y-59560000D01*
X51954075Y-59617007D01*
X51920000Y-59744174D01*
X51920000Y-59875826D01*
X51954075Y-60002993D01*
X51986988Y-60060000D01*
X51089364Y-60060000D01*
X51146567Y-60273486D01*
X51146570Y-60273492D01*
X51246399Y-60487578D01*
X51381894Y-60681082D01*
X51548917Y-60848105D01*
X51742421Y-60983600D01*
X51956507Y-61083429D01*
X51956516Y-61083433D01*
X52170000Y-61140634D01*
X52170000Y-60243012D01*
X52227007Y-60275925D01*
X52354174Y-60310000D01*
X52485826Y-60310000D01*
X52612993Y-60275925D01*
X52670000Y-60243012D01*
X52670000Y-61140633D01*
X52883483Y-61083433D01*
X52883492Y-61083429D01*
X53097578Y-60983600D01*
X53291076Y-60848110D01*
X53362294Y-60776892D01*
X53423617Y-60743407D01*
X53493309Y-60748391D01*
X53537657Y-60776892D01*
X54048584Y-61287819D01*
X54082069Y-61349142D01*
X54077085Y-61418834D01*
X54035213Y-61474767D01*
X53969749Y-61499184D01*
X53960903Y-61499500D01*
X50624500Y-61499500D01*
X50557461Y-61479815D01*
X50511706Y-61427011D01*
X50500500Y-61375500D01*
X50500500Y-56419097D01*
X50520185Y-56352058D01*
X50572989Y-56306303D01*
X50642147Y-56296359D01*
X50705703Y-56325384D01*
G37*
%TD.AperFunction*%
%TA.AperFunction,Conductor*%
G36*
X57481365Y-56184151D02*
G01*
X57525129Y-56238617D01*
X57534500Y-56285906D01*
X57534500Y-56303329D01*
X57534499Y-56303347D01*
X57534499Y-56469053D01*
X57534498Y-56469053D01*
X57575423Y-56621784D01*
X57602970Y-56669495D01*
X57602971Y-56669499D01*
X57602972Y-56669499D01*
X57620667Y-56700149D01*
X57654479Y-56758713D01*
X57654481Y-56758716D01*
X57773349Y-56877584D01*
X57773355Y-56877589D01*
X58530140Y-57634374D01*
X58530150Y-57634385D01*
X58534480Y-57638715D01*
X58534481Y-57638716D01*
X58646285Y-57750520D01*
X58646287Y-57750521D01*
X58646291Y-57750524D01*
X58764701Y-57818887D01*
X58783217Y-57829577D01*
X58895020Y-57859534D01*
X58935943Y-57870500D01*
X58935944Y-57870500D01*
X61290909Y-57870500D01*
X61357948Y-57890185D01*
X61403292Y-57942097D01*
X61405965Y-57947830D01*
X61478409Y-58051290D01*
X61541501Y-58141395D01*
X61541506Y-58141402D01*
X61708597Y-58308493D01*
X61708603Y-58308498D01*
X61894158Y-58438425D01*
X61937783Y-58493002D01*
X61944977Y-58562500D01*
X61913454Y-58624855D01*
X61894158Y-58641575D01*
X61708597Y-58771505D01*
X61541505Y-58938597D01*
X61405965Y-59132169D01*
X61405964Y-59132171D01*
X61306098Y-59346335D01*
X61306094Y-59346344D01*
X61244938Y-59574586D01*
X61244936Y-59574596D01*
X61224341Y-59809999D01*
X61224341Y-59810000D01*
X61244936Y-60045403D01*
X61244938Y-60045413D01*
X61306094Y-60273655D01*
X61306096Y-60273659D01*
X61306097Y-60273663D01*
X61405847Y-60487578D01*
X61405965Y-60487830D01*
X61405967Y-60487834D01*
X61509459Y-60635634D01*
X61541505Y-60681401D01*
X61708599Y-60848495D01*
X61805384Y-60916265D01*
X61902165Y-60984032D01*
X61902167Y-60984033D01*
X61902170Y-60984035D01*
X62116337Y-61083903D01*
X62116343Y-61083904D01*
X62116344Y-61083905D01*
X62131941Y-61088084D01*
X62344592Y-61145063D01*
X62532918Y-61161539D01*
X62579999Y-61165659D01*
X62580000Y-61165659D01*
X62580001Y-61165659D01*
X62619234Y-61162226D01*
X62815408Y-61145063D01*
X63043663Y-61083903D01*
X63257830Y-60984035D01*
X63451401Y-60848495D01*
X63618495Y-60681401D01*
X63754035Y-60487830D01*
X63853903Y-60273663D01*
X63915063Y-60045408D01*
X63935659Y-59810000D01*
X63915063Y-59574592D01*
X63880671Y-59446239D01*
X63882334Y-59376393D01*
X63912763Y-59326470D01*
X64128506Y-59110728D01*
X64128511Y-59110724D01*
X64138714Y-59100520D01*
X64138716Y-59100520D01*
X64250520Y-58988716D01*
X64268112Y-58958244D01*
X64318679Y-58910029D01*
X64387286Y-58896805D01*
X64452151Y-58922773D01*
X64492680Y-58979687D01*
X64499500Y-59020244D01*
X64499500Y-61375500D01*
X64479815Y-61442539D01*
X64427011Y-61488294D01*
X64375500Y-61499500D01*
X58479096Y-61499500D01*
X58412057Y-61479815D01*
X58366302Y-61427011D01*
X58356358Y-61357853D01*
X58385383Y-61294297D01*
X58391396Y-61287838D01*
X58469458Y-61209776D01*
X58522540Y-61178384D01*
X58545398Y-61171744D01*
X58686865Y-61088081D01*
X58686872Y-61088073D01*
X58693026Y-61083301D01*
X58694839Y-61085638D01*
X58743949Y-61058798D01*
X58813643Y-61063756D01*
X58845996Y-61084551D01*
X58847278Y-61082900D01*
X58853447Y-61087685D01*
X58994801Y-61171281D01*
X59152514Y-61217100D01*
X59152511Y-61217100D01*
X59154998Y-61217295D01*
X59155000Y-61217295D01*
X59655000Y-61217295D01*
X59655001Y-61217295D01*
X59657486Y-61217100D01*
X59815198Y-61171281D01*
X59956552Y-61087685D01*
X59956561Y-61087678D01*
X60072678Y-60971561D01*
X60072685Y-60971552D01*
X60156282Y-60830196D01*
X60156283Y-60830193D01*
X60202099Y-60672495D01*
X60202100Y-60672489D01*
X60204999Y-60635649D01*
X60205000Y-60635634D01*
X60205000Y-59995000D01*
X59655000Y-59995000D01*
X59655000Y-61217295D01*
X59155000Y-61217295D01*
X59155000Y-59495000D01*
X59655000Y-59495000D01*
X60205000Y-59495000D01*
X60205000Y-58854365D01*
X60204999Y-58854350D01*
X60202100Y-58817510D01*
X60202099Y-58817504D01*
X60156283Y-58659806D01*
X60156282Y-58659803D01*
X60072685Y-58518447D01*
X60072678Y-58518438D01*
X59956561Y-58402321D01*
X59956552Y-58402314D01*
X59815196Y-58318717D01*
X59815193Y-58318716D01*
X59657494Y-58272900D01*
X59657497Y-58272900D01*
X59655000Y-58272703D01*
X59655000Y-59495000D01*
X59155000Y-59495000D01*
X59155000Y-58272703D01*
X59152503Y-58272900D01*
X58994806Y-58318716D01*
X58994803Y-58318717D01*
X58853449Y-58402313D01*
X58847283Y-58407097D01*
X58845389Y-58404655D01*
X58796580Y-58431239D01*
X58726894Y-58426179D01*
X58694227Y-58405159D01*
X58693031Y-58406702D01*
X58686862Y-58401917D01*
X58564348Y-58329463D01*
X58545398Y-58318256D01*
X58545397Y-58318255D01*
X58545396Y-58318255D01*
X58545393Y-58318254D01*
X58387573Y-58272402D01*
X58387567Y-58272401D01*
X58350701Y-58269500D01*
X58350694Y-58269500D01*
X57919306Y-58269500D01*
X57919298Y-58269500D01*
X57882432Y-58272401D01*
X57882426Y-58272402D01*
X57724606Y-58318254D01*
X57724599Y-58318257D01*
X57652620Y-58360825D01*
X57584896Y-58378008D01*
X57518634Y-58355848D01*
X57474871Y-58301381D01*
X57465500Y-58254093D01*
X57465500Y-57105945D01*
X57465500Y-57105943D01*
X57424577Y-56953216D01*
X57380914Y-56877589D01*
X57345524Y-56816290D01*
X57345521Y-56816286D01*
X57345520Y-56816284D01*
X57233716Y-56704480D01*
X57233715Y-56704479D01*
X57229385Y-56700149D01*
X57229374Y-56700139D01*
X57010428Y-56481193D01*
X56976943Y-56419870D01*
X56981927Y-56350178D01*
X57023799Y-56294245D01*
X57088382Y-56269894D01*
X57117569Y-56267598D01*
X57117571Y-56267597D01*
X57117573Y-56267597D01*
X57217321Y-56238617D01*
X57275398Y-56221744D01*
X57347381Y-56179173D01*
X57415102Y-56161991D01*
X57481365Y-56184151D01*
G37*
%TD.AperFunction*%
%TA.AperFunction,Conductor*%
G36*
X64442539Y-50520185D02*
G01*
X64488294Y-50572989D01*
X64499500Y-50624500D01*
X64499500Y-56433410D01*
X64479815Y-56500449D01*
X64427011Y-56546204D01*
X64357853Y-56556148D01*
X64294297Y-56527123D01*
X64268119Y-56495421D01*
X64266647Y-56492872D01*
X64266640Y-56492859D01*
X64250522Y-56464941D01*
X64250521Y-56464940D01*
X64250520Y-56464938D01*
X64138716Y-56353134D01*
X64138715Y-56353133D01*
X64134385Y-56348803D01*
X64134374Y-56348793D01*
X63590419Y-55804838D01*
X63556934Y-55743515D01*
X63561918Y-55673823D01*
X63590416Y-55629479D01*
X63618495Y-55601401D01*
X63754035Y-55407830D01*
X63853903Y-55193663D01*
X63915063Y-54965408D01*
X63935659Y-54730000D01*
X63915063Y-54494592D01*
X63853903Y-54266337D01*
X63754035Y-54052171D01*
X63650500Y-53904306D01*
X63618494Y-53858597D01*
X63451402Y-53691506D01*
X63451396Y-53691501D01*
X63265842Y-53561575D01*
X63222217Y-53506998D01*
X63215023Y-53437500D01*
X63246546Y-53375145D01*
X63265842Y-53358425D01*
X63317289Y-53322401D01*
X63451401Y-53228495D01*
X63618495Y-53061401D01*
X63754035Y-52867830D01*
X63853903Y-52653663D01*
X63915063Y-52425408D01*
X63935659Y-52190000D01*
X63915063Y-51954592D01*
X63853903Y-51726337D01*
X63754035Y-51512171D01*
X63754034Y-51512169D01*
X63618494Y-51318597D01*
X63451402Y-51151506D01*
X63451395Y-51151501D01*
X63257834Y-51015967D01*
X63257830Y-51015965D01*
X63257828Y-51015964D01*
X63043663Y-50916097D01*
X63043659Y-50916096D01*
X63043655Y-50916094D01*
X62815413Y-50854938D01*
X62815403Y-50854936D01*
X62580001Y-50834341D01*
X62579999Y-50834341D01*
X62344596Y-50854936D01*
X62344586Y-50854938D01*
X62116344Y-50916094D01*
X62116335Y-50916098D01*
X61902171Y-51015964D01*
X61902169Y-51015965D01*
X61708597Y-51151505D01*
X61541506Y-51318596D01*
X61405965Y-51512170D01*
X61405962Y-51512175D01*
X61403289Y-51517909D01*
X61357115Y-51570346D01*
X61290909Y-51589500D01*
X59713585Y-51589500D01*
X59646546Y-51569815D01*
X59600791Y-51517011D01*
X59595879Y-51504504D01*
X59559814Y-51395666D01*
X59467712Y-51246344D01*
X59343656Y-51122288D01*
X59194334Y-51030186D01*
X59027797Y-50975001D01*
X59027795Y-50975000D01*
X58925010Y-50964500D01*
X58149998Y-50964500D01*
X58149980Y-50964501D01*
X58047203Y-50975000D01*
X58047200Y-50975001D01*
X57880668Y-51030185D01*
X57880663Y-51030187D01*
X57731342Y-51122289D01*
X57607288Y-51246343D01*
X57607283Y-51246349D01*
X57605241Y-51249661D01*
X57603247Y-51251453D01*
X57602807Y-51252011D01*
X57602711Y-51251935D01*
X57553291Y-51296383D01*
X57484328Y-51307602D01*
X57420247Y-51279755D01*
X57394168Y-51249656D01*
X57392319Y-51246659D01*
X57392316Y-51246655D01*
X57268345Y-51122684D01*
X57119124Y-51030643D01*
X57119119Y-51030641D01*
X56952697Y-50975494D01*
X56952690Y-50975493D01*
X56849986Y-50965000D01*
X56712500Y-50965000D01*
X56712500Y-52316000D01*
X56692815Y-52383039D01*
X56640011Y-52428794D01*
X56588500Y-52440000D01*
X55375001Y-52440000D01*
X55375001Y-52714986D01*
X55385494Y-52817697D01*
X55440641Y-52984119D01*
X55440643Y-52984124D01*
X55530869Y-53130403D01*
X55549309Y-53197796D01*
X55528386Y-53264459D01*
X55474744Y-53309229D01*
X55425330Y-53319500D01*
X55379298Y-53319500D01*
X55342432Y-53322401D01*
X55342426Y-53322402D01*
X55184606Y-53368254D01*
X55184603Y-53368255D01*
X55043137Y-53451917D01*
X55043129Y-53451923D01*
X54926923Y-53568129D01*
X54926917Y-53568137D01*
X54843255Y-53709603D01*
X54843254Y-53709606D01*
X54797402Y-53867426D01*
X54797401Y-53867432D01*
X54794500Y-53904298D01*
X54794500Y-55685701D01*
X54797401Y-55722567D01*
X54797402Y-55722573D01*
X54843403Y-55880905D01*
X54843204Y-55950774D01*
X54805262Y-56009444D01*
X54741624Y-56038288D01*
X54724327Y-56039500D01*
X54630097Y-56039500D01*
X54563058Y-56019815D01*
X54542416Y-56003181D01*
X53752766Y-55213531D01*
X53719281Y-55152208D01*
X53720672Y-55093757D01*
X53721863Y-55089309D01*
X53755063Y-54965408D01*
X53775659Y-54730000D01*
X53755063Y-54494592D01*
X53693903Y-54266337D01*
X53594035Y-54052171D01*
X53490499Y-53904306D01*
X53458496Y-53858600D01*
X53458493Y-53858597D01*
X53336567Y-53736671D01*
X53303084Y-53675351D01*
X53308068Y-53605659D01*
X53349939Y-53549725D01*
X53380915Y-53532810D01*
X53512331Y-53483796D01*
X53627546Y-53397546D01*
X53713796Y-53282331D01*
X53764091Y-53147483D01*
X53770500Y-53087873D01*
X53770499Y-51665013D01*
X55375000Y-51665013D01*
X55375000Y-51940000D01*
X56212500Y-51940000D01*
X56212500Y-50965000D01*
X56075027Y-50965000D01*
X56075012Y-50965001D01*
X55972302Y-50975494D01*
X55805880Y-51030641D01*
X55805875Y-51030643D01*
X55656654Y-51122684D01*
X55532684Y-51246654D01*
X55440643Y-51395875D01*
X55440641Y-51395880D01*
X55385494Y-51562302D01*
X55385493Y-51562309D01*
X55375000Y-51665013D01*
X53770499Y-51665013D01*
X53770499Y-51292128D01*
X53764091Y-51232517D01*
X53722978Y-51122288D01*
X53713797Y-51097671D01*
X53713793Y-51097664D01*
X53627547Y-50982455D01*
X53627544Y-50982452D01*
X53512335Y-50896206D01*
X53512328Y-50896202D01*
X53377482Y-50845908D01*
X53377483Y-50845908D01*
X53317883Y-50839501D01*
X53317881Y-50839500D01*
X53317873Y-50839500D01*
X53317864Y-50839500D01*
X51522129Y-50839500D01*
X51522123Y-50839501D01*
X51462516Y-50845908D01*
X51327671Y-50896202D01*
X51327664Y-50896206D01*
X51212455Y-50982452D01*
X51212452Y-50982455D01*
X51126206Y-51097664D01*
X51126202Y-51097671D01*
X51075908Y-51232517D01*
X51070830Y-51279755D01*
X51069501Y-51292123D01*
X51069500Y-51292135D01*
X51069500Y-52639902D01*
X51049815Y-52706941D01*
X51033181Y-52727583D01*
X50712181Y-53048583D01*
X50650858Y-53082068D01*
X50581166Y-53077084D01*
X50525233Y-53035212D01*
X50500816Y-52969748D01*
X50500500Y-52960902D01*
X50500500Y-50624500D01*
X50520185Y-50557461D01*
X50572989Y-50511706D01*
X50624500Y-50500500D01*
X64375500Y-50500500D01*
X64442539Y-50520185D01*
G37*
%TD.AperFunction*%
%TD*%
M02*
