%TF.GenerationSoftware,KiCad,Pcbnew,8.0.4*%
%TF.CreationDate,2025-01-06T14:25:35+00:00*%
%TF.ProjectId,soic_8_breakout,736f6963-5f38-45f6-9272-65616b6f7574,rev?*%
%TF.SameCoordinates,Original*%
%TF.FileFunction,Legend,Bot*%
%TF.FilePolarity,Positive*%
%FSLAX46Y46*%
G04 Gerber Fmt 4.6, Leading zero omitted, Abs format (unit mm)*
G04 Created by KiCad (PCBNEW 8.0.4) date 2025-01-06 14:25:35*
%MOMM*%
%LPD*%
G01*
G04 APERTURE LIST*
%ADD10C,0.400000*%
G04 APERTURE END LIST*
D10*
X58309200Y-50714286D02*
X58404438Y-51000000D01*
X58404438Y-51000000D02*
X58404438Y-51476191D01*
X58404438Y-51476191D02*
X58309200Y-51666667D01*
X58309200Y-51666667D02*
X58213961Y-51761905D01*
X58213961Y-51761905D02*
X58023485Y-51857143D01*
X58023485Y-51857143D02*
X57833009Y-51857143D01*
X57833009Y-51857143D02*
X57642533Y-51761905D01*
X57642533Y-51761905D02*
X57547295Y-51666667D01*
X57547295Y-51666667D02*
X57452057Y-51476191D01*
X57452057Y-51476191D02*
X57356819Y-51095238D01*
X57356819Y-51095238D02*
X57261580Y-50904762D01*
X57261580Y-50904762D02*
X57166342Y-50809524D01*
X57166342Y-50809524D02*
X56975866Y-50714286D01*
X56975866Y-50714286D02*
X56785390Y-50714286D01*
X56785390Y-50714286D02*
X56594914Y-50809524D01*
X56594914Y-50809524D02*
X56499676Y-50904762D01*
X56499676Y-50904762D02*
X56404438Y-51095238D01*
X56404438Y-51095238D02*
X56404438Y-51571429D01*
X56404438Y-51571429D02*
X56499676Y-51857143D01*
X56404438Y-53095238D02*
X56404438Y-53476191D01*
X56404438Y-53476191D02*
X56499676Y-53666667D01*
X56499676Y-53666667D02*
X56690152Y-53857143D01*
X56690152Y-53857143D02*
X57071104Y-53952381D01*
X57071104Y-53952381D02*
X57737771Y-53952381D01*
X57737771Y-53952381D02*
X58118723Y-53857143D01*
X58118723Y-53857143D02*
X58309200Y-53666667D01*
X58309200Y-53666667D02*
X58404438Y-53476191D01*
X58404438Y-53476191D02*
X58404438Y-53095238D01*
X58404438Y-53095238D02*
X58309200Y-52904762D01*
X58309200Y-52904762D02*
X58118723Y-52714286D01*
X58118723Y-52714286D02*
X57737771Y-52619048D01*
X57737771Y-52619048D02*
X57071104Y-52619048D01*
X57071104Y-52619048D02*
X56690152Y-52714286D01*
X56690152Y-52714286D02*
X56499676Y-52904762D01*
X56499676Y-52904762D02*
X56404438Y-53095238D01*
X58404438Y-54809524D02*
X56404438Y-54809524D01*
X58213961Y-56904762D02*
X58309200Y-56809524D01*
X58309200Y-56809524D02*
X58404438Y-56523810D01*
X58404438Y-56523810D02*
X58404438Y-56333334D01*
X58404438Y-56333334D02*
X58309200Y-56047619D01*
X58309200Y-56047619D02*
X58118723Y-55857143D01*
X58118723Y-55857143D02*
X57928247Y-55761905D01*
X57928247Y-55761905D02*
X57547295Y-55666667D01*
X57547295Y-55666667D02*
X57261580Y-55666667D01*
X57261580Y-55666667D02*
X56880628Y-55761905D01*
X56880628Y-55761905D02*
X56690152Y-55857143D01*
X56690152Y-55857143D02*
X56499676Y-56047619D01*
X56499676Y-56047619D02*
X56404438Y-56333334D01*
X56404438Y-56333334D02*
X56404438Y-56523810D01*
X56404438Y-56523810D02*
X56499676Y-56809524D01*
X56499676Y-56809524D02*
X56594914Y-56904762D01*
X57642533Y-57761905D02*
X57642533Y-59285715D01*
X57261580Y-60523809D02*
X57166342Y-60333333D01*
X57166342Y-60333333D02*
X57071104Y-60238095D01*
X57071104Y-60238095D02*
X56880628Y-60142857D01*
X56880628Y-60142857D02*
X56785390Y-60142857D01*
X56785390Y-60142857D02*
X56594914Y-60238095D01*
X56594914Y-60238095D02*
X56499676Y-60333333D01*
X56499676Y-60333333D02*
X56404438Y-60523809D01*
X56404438Y-60523809D02*
X56404438Y-60904762D01*
X56404438Y-60904762D02*
X56499676Y-61095238D01*
X56499676Y-61095238D02*
X56594914Y-61190476D01*
X56594914Y-61190476D02*
X56785390Y-61285714D01*
X56785390Y-61285714D02*
X56880628Y-61285714D01*
X56880628Y-61285714D02*
X57071104Y-61190476D01*
X57071104Y-61190476D02*
X57166342Y-61095238D01*
X57166342Y-61095238D02*
X57261580Y-60904762D01*
X57261580Y-60904762D02*
X57261580Y-60523809D01*
X57261580Y-60523809D02*
X57356819Y-60333333D01*
X57356819Y-60333333D02*
X57452057Y-60238095D01*
X57452057Y-60238095D02*
X57642533Y-60142857D01*
X57642533Y-60142857D02*
X58023485Y-60142857D01*
X58023485Y-60142857D02*
X58213961Y-60238095D01*
X58213961Y-60238095D02*
X58309200Y-60333333D01*
X58309200Y-60333333D02*
X58404438Y-60523809D01*
X58404438Y-60523809D02*
X58404438Y-60904762D01*
X58404438Y-60904762D02*
X58309200Y-61095238D01*
X58309200Y-61095238D02*
X58213961Y-61190476D01*
X58213961Y-61190476D02*
X58023485Y-61285714D01*
X58023485Y-61285714D02*
X57642533Y-61285714D01*
X57642533Y-61285714D02*
X57452057Y-61190476D01*
X57452057Y-61190476D02*
X57356819Y-61095238D01*
X57356819Y-61095238D02*
X57261580Y-60904762D01*
M02*
