%TF.GenerationSoftware,KiCad,Pcbnew,8.0.4*%
%TF.CreationDate,2025-01-06T15:09:53+00:00*%
%TF.ProjectId,5050_led_4,35303530-5f6c-4656-945f-342e6b696361,rev?*%
%TF.SameCoordinates,Original*%
%TF.FileFunction,Copper,L2,Bot*%
%TF.FilePolarity,Positive*%
%FSLAX46Y46*%
G04 Gerber Fmt 4.6, Leading zero omitted, Abs format (unit mm)*
G04 Created by KiCad (PCBNEW 8.0.4) date 2025-01-06 15:09:53*
%MOMM*%
%LPD*%
G01*
G04 APERTURE LIST*
G04 Aperture macros list*
%AMRoundRect*
0 Rectangle with rounded corners*
0 $1 Rounding radius*
0 $2 $3 $4 $5 $6 $7 $8 $9 X,Y pos of 4 corners*
0 Add a 4 corners polygon primitive as box body*
4,1,4,$2,$3,$4,$5,$6,$7,$8,$9,$2,$3,0*
0 Add four circle primitives for the rounded corners*
1,1,$1+$1,$2,$3*
1,1,$1+$1,$4,$5*
1,1,$1+$1,$6,$7*
1,1,$1+$1,$8,$9*
0 Add four rect primitives between the rounded corners*
20,1,$1+$1,$2,$3,$4,$5,0*
20,1,$1+$1,$4,$5,$6,$7,0*
20,1,$1+$1,$6,$7,$8,$9,0*
20,1,$1+$1,$8,$9,$2,$3,0*%
G04 Aperture macros list end*
%TA.AperFunction,ComponentPad*%
%ADD10RoundRect,0.250000X-1.750000X0.500000X-1.750000X-0.500000X1.750000X-0.500000X1.750000X0.500000X0*%
%TD*%
%TA.AperFunction,ViaPad*%
%ADD11C,0.600000*%
%TD*%
%TA.AperFunction,Conductor*%
%ADD12C,0.200000*%
%TD*%
%TA.AperFunction,Conductor*%
%ADD13C,0.800000*%
%TD*%
G04 APERTURE END LIST*
D10*
%TO.P,J1,1,Pin_1*%
%TO.N,/9V*%
X52500000Y-54105000D03*
%TO.P,J1,2,Pin_2*%
%TO.N,/GND*%
X52500000Y-56645000D03*
%TD*%
D11*
%TO.N,/GND*%
X93500000Y-53690000D03*
X93500000Y-55375000D03*
X93500000Y-57090000D03*
%TD*%
D12*
%TO.N,/GND*%
X93500000Y-57080000D02*
X93510000Y-57090000D01*
X93510000Y-57090000D02*
X93510000Y-55387500D01*
X93490000Y-55367500D02*
X93490000Y-53700000D01*
D13*
X92230000Y-56645000D02*
X52500000Y-56645000D01*
X92230000Y-56645000D02*
X93500000Y-55375000D01*
%TD*%
%TA.AperFunction,Conductor*%
%TO.N,/GND*%
G36*
X97442539Y-50520185D02*
G01*
X97488294Y-50572989D01*
X97499500Y-50624500D01*
X97499500Y-59875500D01*
X97479815Y-59942539D01*
X97427011Y-59988294D01*
X97375500Y-59999500D01*
X51124000Y-59999500D01*
X51056961Y-59979815D01*
X51011206Y-59927011D01*
X51000000Y-59875500D01*
X51000000Y-57926025D01*
X51000000Y-57799454D01*
X51014404Y-57777042D01*
X52100000Y-56691446D01*
X52100000Y-56697661D01*
X52127259Y-56799394D01*
X52179920Y-56890606D01*
X52254394Y-56965080D01*
X52345606Y-57017741D01*
X52447339Y-57045000D01*
X52453552Y-57045000D01*
X51603554Y-57894998D01*
X51603555Y-57894999D01*
X53396445Y-57894999D01*
X53396445Y-57894998D01*
X52546448Y-57045000D01*
X52552661Y-57045000D01*
X52654394Y-57017741D01*
X52745606Y-56965080D01*
X52820080Y-56890606D01*
X52872741Y-56799394D01*
X52900000Y-56697661D01*
X52900000Y-56691447D01*
X54103552Y-57894999D01*
X54299972Y-57894999D01*
X54299986Y-57894998D01*
X54402697Y-57884505D01*
X54569119Y-57829358D01*
X54569124Y-57829356D01*
X54718345Y-57737315D01*
X54842315Y-57613345D01*
X54934356Y-57464124D01*
X54934358Y-57464119D01*
X54989505Y-57297697D01*
X54989506Y-57297690D01*
X54999999Y-57194986D01*
X54999999Y-56095028D01*
X54999998Y-56095012D01*
X54989505Y-55992302D01*
X54934358Y-55825880D01*
X54934356Y-55825875D01*
X54842315Y-55676654D01*
X54718344Y-55552683D01*
X54718340Y-55552680D01*
X54601855Y-55480831D01*
X54555130Y-55428883D01*
X54543909Y-55359921D01*
X54571752Y-55295839D01*
X54601854Y-55269755D01*
X54718656Y-55197712D01*
X54842712Y-55073656D01*
X54934814Y-54924334D01*
X54989999Y-54757797D01*
X55000500Y-54655009D01*
X55000499Y-53554992D01*
X54989999Y-53452203D01*
X54934814Y-53285666D01*
X54842712Y-53136344D01*
X54718656Y-53012288D01*
X54569334Y-52920186D01*
X54402797Y-52865001D01*
X54402795Y-52865000D01*
X54300016Y-52854500D01*
X51124000Y-52854500D01*
X51056961Y-52834815D01*
X51011206Y-52782011D01*
X51000000Y-52730500D01*
X51000000Y-50624500D01*
X51019685Y-50557461D01*
X51072489Y-50511706D01*
X51124000Y-50500500D01*
X97375500Y-50500500D01*
X97442539Y-50520185D01*
G37*
%TD.AperFunction*%
%TD*%
M02*
