%TF.GenerationSoftware,KiCad,Pcbnew,8.0.4*%
%TF.CreationDate,2025-01-06T14:26:29+00:00*%
%TF.ProjectId,tssop_breakout_stencil,7473736f-705f-4627-9265-616b6f75745f,rev?*%
%TF.SameCoordinates,Original*%
%TF.FileFunction,Legend,Top*%
%TF.FilePolarity,Positive*%
%FSLAX46Y46*%
G04 Gerber Fmt 4.6, Leading zero omitted, Abs format (unit mm)*
G04 Created by KiCad (PCBNEW 8.0.4) date 2025-01-06 14:26:29*
%MOMM*%
%LPD*%
G01*
G04 APERTURE LIST*
%ADD10C,0.150000*%
%ADD11C,0.120000*%
G04 APERTURE END LIST*
D10*
X67666666Y-52004819D02*
X67666666Y-52719104D01*
X67666666Y-52719104D02*
X67619047Y-52861961D01*
X67619047Y-52861961D02*
X67523809Y-52957200D01*
X67523809Y-52957200D02*
X67380952Y-53004819D01*
X67380952Y-53004819D02*
X67285714Y-53004819D01*
X68095238Y-52100057D02*
X68142857Y-52052438D01*
X68142857Y-52052438D02*
X68238095Y-52004819D01*
X68238095Y-52004819D02*
X68476190Y-52004819D01*
X68476190Y-52004819D02*
X68571428Y-52052438D01*
X68571428Y-52052438D02*
X68619047Y-52100057D01*
X68619047Y-52100057D02*
X68666666Y-52195295D01*
X68666666Y-52195295D02*
X68666666Y-52290533D01*
X68666666Y-52290533D02*
X68619047Y-52433390D01*
X68619047Y-52433390D02*
X68047619Y-53004819D01*
X68047619Y-53004819D02*
X68666666Y-53004819D01*
X55238095Y-63954819D02*
X55238095Y-64764342D01*
X55238095Y-64764342D02*
X55285714Y-64859580D01*
X55285714Y-64859580D02*
X55333333Y-64907200D01*
X55333333Y-64907200D02*
X55428571Y-64954819D01*
X55428571Y-64954819D02*
X55619047Y-64954819D01*
X55619047Y-64954819D02*
X55714285Y-64907200D01*
X55714285Y-64907200D02*
X55761904Y-64859580D01*
X55761904Y-64859580D02*
X55809523Y-64764342D01*
X55809523Y-64764342D02*
X55809523Y-63954819D01*
X56809523Y-64954819D02*
X56238095Y-64954819D01*
X56523809Y-64954819D02*
X56523809Y-63954819D01*
X56523809Y-63954819D02*
X56428571Y-64097676D01*
X56428571Y-64097676D02*
X56333333Y-64192914D01*
X56333333Y-64192914D02*
X56238095Y-64240533D01*
X67666666Y-63254819D02*
X67666666Y-63969104D01*
X67666666Y-63969104D02*
X67619047Y-64111961D01*
X67619047Y-64111961D02*
X67523809Y-64207200D01*
X67523809Y-64207200D02*
X67380952Y-64254819D01*
X67380952Y-64254819D02*
X67285714Y-64254819D01*
X68047619Y-63254819D02*
X68666666Y-63254819D01*
X68666666Y-63254819D02*
X68333333Y-63635771D01*
X68333333Y-63635771D02*
X68476190Y-63635771D01*
X68476190Y-63635771D02*
X68571428Y-63683390D01*
X68571428Y-63683390D02*
X68619047Y-63731009D01*
X68619047Y-63731009D02*
X68666666Y-63826247D01*
X68666666Y-63826247D02*
X68666666Y-64064342D01*
X68666666Y-64064342D02*
X68619047Y-64159580D01*
X68619047Y-64159580D02*
X68571428Y-64207200D01*
X68571428Y-64207200D02*
X68476190Y-64254819D01*
X68476190Y-64254819D02*
X68190476Y-64254819D01*
X68190476Y-64254819D02*
X68095238Y-64207200D01*
X68095238Y-64207200D02*
X68047619Y-64159580D01*
X55666666Y-52054819D02*
X55666666Y-52769104D01*
X55666666Y-52769104D02*
X55619047Y-52911961D01*
X55619047Y-52911961D02*
X55523809Y-53007200D01*
X55523809Y-53007200D02*
X55380952Y-53054819D01*
X55380952Y-53054819D02*
X55285714Y-53054819D01*
X56666666Y-53054819D02*
X56095238Y-53054819D01*
X56380952Y-53054819D02*
X56380952Y-52054819D01*
X56380952Y-52054819D02*
X56285714Y-52197676D01*
X56285714Y-52197676D02*
X56190476Y-52292914D01*
X56190476Y-52292914D02*
X56095238Y-52340533D01*
D11*
%TO.C,J2*%
X68000000Y-53390000D02*
X65800000Y-53390000D01*
X68000000Y-53390000D02*
X70200000Y-53390000D01*
X68000000Y-58610000D02*
X65800000Y-58610000D01*
X68000000Y-58610000D02*
X70200000Y-58610000D01*
X65100000Y-53590000D02*
X64860000Y-53260000D01*
X65340000Y-53260000D01*
X65100000Y-53590000D01*
G36*
X65100000Y-53590000D02*
G01*
X64860000Y-53260000D01*
X65340000Y-53260000D01*
X65100000Y-53590000D01*
G37*
D10*
%TO.C,U1*%
X53930000Y-65430000D02*
X58070000Y-65430000D01*
X53930000Y-70570000D02*
X58070000Y-70570000D01*
D11*
X53600000Y-65473081D02*
X53360000Y-65143081D01*
X53840000Y-65143081D01*
X53600000Y-65473081D01*
G36*
X53600000Y-65473081D02*
G01*
X53360000Y-65143081D01*
X53840000Y-65143081D01*
X53600000Y-65473081D01*
G37*
%TO.C,J3*%
X68000000Y-64615000D02*
X65800000Y-64615000D01*
X68000000Y-64615000D02*
X70200000Y-64615000D01*
X68000000Y-71385000D02*
X65800000Y-71385000D01*
X68000000Y-71385000D02*
X70200000Y-71385000D01*
X64140000Y-65075000D02*
X63810000Y-65315000D01*
X63810000Y-64835000D01*
X64140000Y-65075000D01*
G36*
X64140000Y-65075000D02*
G01*
X63810000Y-65315000D01*
X63810000Y-64835000D01*
X64140000Y-65075000D01*
G37*
%TO.C,J1*%
X56000000Y-53440000D02*
X54050000Y-53440000D01*
X56000000Y-53440000D02*
X57950000Y-53440000D01*
X56000000Y-58560000D02*
X54050000Y-58560000D01*
X56000000Y-58560000D02*
X57950000Y-58560000D01*
X53300000Y-53535000D02*
X53060000Y-53205000D01*
X53540000Y-53205000D01*
X53300000Y-53535000D01*
G36*
X53300000Y-53535000D02*
G01*
X53060000Y-53205000D01*
X53540000Y-53205000D01*
X53300000Y-53535000D01*
G37*
%TD*%
M02*
