%TF.GenerationSoftware,KiCad,Pcbnew,8.0.4*%
%TF.CreationDate,2025-01-06T14:25:04+00:00*%
%TF.ProjectId,tssop_14_breakout,7473736f-705f-4313-945f-627265616b6f,rev?*%
%TF.SameCoordinates,Original*%
%TF.FileFunction,Copper,L2,Bot*%
%TF.FilePolarity,Positive*%
%FSLAX46Y46*%
G04 Gerber Fmt 4.6, Leading zero omitted, Abs format (unit mm)*
G04 Created by KiCad (PCBNEW 8.0.4) date 2025-01-06 14:25:04*
%MOMM*%
%LPD*%
G01*
G04 APERTURE LIST*
%TA.AperFunction,ComponentPad*%
%ADD10R,1.700000X1.700000*%
%TD*%
%TA.AperFunction,ComponentPad*%
%ADD11O,1.700000X1.700000*%
%TD*%
%TA.AperFunction,ComponentPad*%
%ADD12C,1.700000*%
%TD*%
%TA.AperFunction,ViaPad*%
%ADD13C,0.600000*%
%TD*%
%TA.AperFunction,Conductor*%
%ADD14C,0.200000*%
%TD*%
%TA.AperFunction,Conductor*%
%ADD15C,0.500000*%
%TD*%
G04 APERTURE END LIST*
D10*
%TO.P,J7,1,Pin_1*%
%TO.N,Net-(J7-Pin_1)*%
X52150000Y-52380000D03*
D11*
%TO.P,J7,2,Pin_2*%
%TO.N,Net-(J7-Pin_2)*%
X52150000Y-54920000D03*
%TO.P,J7,3,Pin_3*%
%TO.N,Net-(J7-Pin_3)*%
X52150000Y-57460000D03*
%TO.P,J7,4,Pin_4*%
%TO.N,Net-(J7-Pin_4)*%
X52150000Y-60000000D03*
%TO.P,J7,5,Pin_5*%
%TO.N,Net-(J7-Pin_5)*%
X52150000Y-62540000D03*
%TO.P,J7,6,Pin_6*%
%TO.N,Net-(J7-Pin_6)*%
X52150000Y-65080000D03*
%TO.P,J7,7,Pin_7*%
%TO.N,/GND*%
X52150000Y-67620000D03*
%TD*%
D12*
%TO.P,J8,1,Pin_1*%
%TO.N,Net-(J8-Pin_1)*%
X64850000Y-67620000D03*
D11*
%TO.P,J8,2,Pin_2*%
%TO.N,Net-(J8-Pin_2)*%
X64850000Y-65080000D03*
%TO.P,J8,3,Pin_3*%
%TO.N,Net-(J8-Pin_3)*%
X64850000Y-62540000D03*
%TO.P,J8,4,Pin_4*%
%TO.N,Net-(J8-Pin_4)*%
X64850000Y-60000000D03*
%TO.P,J8,5,Pin_5*%
%TO.N,Net-(J8-Pin_5)*%
X64850000Y-57460000D03*
%TO.P,J8,6,Pin_6*%
%TO.N,Net-(J8-Pin_6)*%
X64850000Y-54920000D03*
%TO.P,J8,7,Pin_7*%
%TO.N,Net-(J8-Pin_7)*%
X64850000Y-52380000D03*
%TD*%
D13*
%TO.N,/GND*%
X57290000Y-65760000D03*
X57462500Y-58170000D03*
%TD*%
D14*
%TO.N,/GND*%
X57462500Y-65587500D02*
X57290000Y-65760000D01*
D15*
X57290000Y-65760000D02*
X55430000Y-67620000D01*
X55430000Y-67620000D02*
X52150000Y-67620000D01*
X57462500Y-58170000D02*
X57462500Y-65587500D01*
%TD*%
%TA.AperFunction,Conductor*%
%TO.N,/GND*%
G36*
X66442539Y-50520185D02*
G01*
X66488294Y-50572989D01*
X66499500Y-50624500D01*
X66499500Y-69375500D01*
X66479815Y-69442539D01*
X66427011Y-69488294D01*
X66375500Y-69499500D01*
X50624500Y-69499500D01*
X50557461Y-69479815D01*
X50511706Y-69427011D01*
X50500500Y-69375500D01*
X50500500Y-54919999D01*
X50794341Y-54919999D01*
X50794341Y-54920000D01*
X50814936Y-55155403D01*
X50814938Y-55155413D01*
X50876094Y-55383655D01*
X50876096Y-55383659D01*
X50876097Y-55383663D01*
X50975965Y-55597830D01*
X50975967Y-55597834D01*
X51111501Y-55791395D01*
X51111506Y-55791402D01*
X51278597Y-55958493D01*
X51278603Y-55958498D01*
X51464158Y-56088425D01*
X51507783Y-56143002D01*
X51514977Y-56212500D01*
X51483454Y-56274855D01*
X51464158Y-56291575D01*
X51278597Y-56421505D01*
X51111505Y-56588597D01*
X50975965Y-56782169D01*
X50975964Y-56782171D01*
X50876098Y-56996335D01*
X50876094Y-56996344D01*
X50814938Y-57224586D01*
X50814936Y-57224596D01*
X50794341Y-57459999D01*
X50794341Y-57460000D01*
X50814936Y-57695403D01*
X50814938Y-57695413D01*
X50876094Y-57923655D01*
X50876096Y-57923659D01*
X50876097Y-57923663D01*
X50975965Y-58137830D01*
X50975967Y-58137834D01*
X51111501Y-58331395D01*
X51111506Y-58331402D01*
X51278597Y-58498493D01*
X51278603Y-58498498D01*
X51464158Y-58628425D01*
X51507783Y-58683002D01*
X51514977Y-58752500D01*
X51483454Y-58814855D01*
X51464158Y-58831575D01*
X51278597Y-58961505D01*
X51111505Y-59128597D01*
X50975965Y-59322169D01*
X50975964Y-59322171D01*
X50876098Y-59536335D01*
X50876094Y-59536344D01*
X50814938Y-59764586D01*
X50814936Y-59764596D01*
X50794341Y-59999999D01*
X50794341Y-60000000D01*
X50814936Y-60235403D01*
X50814938Y-60235413D01*
X50876094Y-60463655D01*
X50876096Y-60463659D01*
X50876097Y-60463663D01*
X50975965Y-60677830D01*
X50975967Y-60677834D01*
X51111501Y-60871395D01*
X51111506Y-60871402D01*
X51278597Y-61038493D01*
X51278603Y-61038498D01*
X51464158Y-61168425D01*
X51507783Y-61223002D01*
X51514977Y-61292500D01*
X51483454Y-61354855D01*
X51464158Y-61371575D01*
X51278597Y-61501505D01*
X51111505Y-61668597D01*
X50975965Y-61862169D01*
X50975964Y-61862171D01*
X50876098Y-62076335D01*
X50876094Y-62076344D01*
X50814938Y-62304586D01*
X50814936Y-62304596D01*
X50794341Y-62539999D01*
X50794341Y-62540000D01*
X50814936Y-62775403D01*
X50814938Y-62775413D01*
X50876094Y-63003655D01*
X50876096Y-63003659D01*
X50876097Y-63003663D01*
X50975965Y-63217830D01*
X50975967Y-63217834D01*
X51111501Y-63411395D01*
X51111506Y-63411402D01*
X51278597Y-63578493D01*
X51278603Y-63578498D01*
X51464158Y-63708425D01*
X51507783Y-63763002D01*
X51514977Y-63832500D01*
X51483454Y-63894855D01*
X51464158Y-63911575D01*
X51278597Y-64041505D01*
X51111505Y-64208597D01*
X50975965Y-64402169D01*
X50975964Y-64402171D01*
X50876098Y-64616335D01*
X50876094Y-64616344D01*
X50814938Y-64844586D01*
X50814936Y-64844596D01*
X50794341Y-65079999D01*
X50794341Y-65080000D01*
X50814936Y-65315403D01*
X50814938Y-65315413D01*
X50876094Y-65543655D01*
X50876096Y-65543659D01*
X50876097Y-65543663D01*
X50975965Y-65757830D01*
X50975967Y-65757834D01*
X51111501Y-65951395D01*
X51111506Y-65951402D01*
X51278597Y-66118493D01*
X51278603Y-66118498D01*
X51464594Y-66248730D01*
X51508219Y-66303307D01*
X51515413Y-66372805D01*
X51483890Y-66435160D01*
X51464595Y-66451880D01*
X51278922Y-66581890D01*
X51278920Y-66581891D01*
X51111891Y-66748920D01*
X51111886Y-66748926D01*
X50976400Y-66942420D01*
X50976399Y-66942422D01*
X50876570Y-67156507D01*
X50876567Y-67156513D01*
X50819364Y-67369999D01*
X50819364Y-67370000D01*
X51716988Y-67370000D01*
X51684075Y-67427007D01*
X51650000Y-67554174D01*
X51650000Y-67685826D01*
X51684075Y-67812993D01*
X51716988Y-67870000D01*
X50819364Y-67870000D01*
X50876567Y-68083486D01*
X50876570Y-68083492D01*
X50976399Y-68297578D01*
X51111894Y-68491082D01*
X51278917Y-68658105D01*
X51472421Y-68793600D01*
X51686507Y-68893429D01*
X51686516Y-68893433D01*
X51900000Y-68950634D01*
X51900000Y-68053012D01*
X51957007Y-68085925D01*
X52084174Y-68120000D01*
X52215826Y-68120000D01*
X52342993Y-68085925D01*
X52400000Y-68053012D01*
X52400000Y-68950633D01*
X52613483Y-68893433D01*
X52613492Y-68893429D01*
X52827578Y-68793600D01*
X53021082Y-68658105D01*
X53188105Y-68491082D01*
X53323600Y-68297578D01*
X53423429Y-68083492D01*
X53423432Y-68083486D01*
X53480636Y-67870000D01*
X52583012Y-67870000D01*
X52615925Y-67812993D01*
X52650000Y-67685826D01*
X52650000Y-67554174D01*
X52615925Y-67427007D01*
X52583012Y-67370000D01*
X53480636Y-67370000D01*
X53480635Y-67369999D01*
X53423432Y-67156513D01*
X53423429Y-67156507D01*
X53323600Y-66942422D01*
X53323599Y-66942420D01*
X53188113Y-66748926D01*
X53188108Y-66748920D01*
X53021078Y-66581890D01*
X52835405Y-66451879D01*
X52791780Y-66397302D01*
X52784588Y-66327804D01*
X52816110Y-66265449D01*
X52835406Y-66248730D01*
X52835842Y-66248425D01*
X53021401Y-66118495D01*
X53188495Y-65951401D01*
X53324035Y-65757830D01*
X53423903Y-65543663D01*
X53485063Y-65315408D01*
X53505659Y-65080000D01*
X53485063Y-64844592D01*
X53423903Y-64616337D01*
X53324035Y-64402171D01*
X53188495Y-64208599D01*
X53188494Y-64208597D01*
X53021402Y-64041506D01*
X53021396Y-64041501D01*
X52835842Y-63911575D01*
X52792217Y-63856998D01*
X52785023Y-63787500D01*
X52816546Y-63725145D01*
X52835842Y-63708425D01*
X52858026Y-63692891D01*
X53021401Y-63578495D01*
X53188495Y-63411401D01*
X53324035Y-63217830D01*
X53423903Y-63003663D01*
X53485063Y-62775408D01*
X53505659Y-62540000D01*
X53485063Y-62304592D01*
X53423903Y-62076337D01*
X53324035Y-61862171D01*
X53188495Y-61668599D01*
X53188494Y-61668597D01*
X53021402Y-61501506D01*
X53021396Y-61501501D01*
X52835842Y-61371575D01*
X52792217Y-61316998D01*
X52785023Y-61247500D01*
X52816546Y-61185145D01*
X52835842Y-61168425D01*
X52858026Y-61152891D01*
X53021401Y-61038495D01*
X53188495Y-60871401D01*
X53324035Y-60677830D01*
X53423903Y-60463663D01*
X53485063Y-60235408D01*
X53505659Y-60000000D01*
X53485063Y-59764592D01*
X53423903Y-59536337D01*
X53324035Y-59322171D01*
X53188495Y-59128599D01*
X53188494Y-59128597D01*
X53021402Y-58961506D01*
X53021396Y-58961501D01*
X52835842Y-58831575D01*
X52792217Y-58776998D01*
X52785023Y-58707500D01*
X52816546Y-58645145D01*
X52835842Y-58628425D01*
X52858026Y-58612891D01*
X53021401Y-58498495D01*
X53188495Y-58331401D01*
X53324035Y-58137830D01*
X53423903Y-57923663D01*
X53485063Y-57695408D01*
X53505659Y-57460000D01*
X53485063Y-57224592D01*
X53423903Y-56996337D01*
X53324035Y-56782171D01*
X53188495Y-56588599D01*
X53188494Y-56588597D01*
X53021402Y-56421506D01*
X53021396Y-56421501D01*
X52835842Y-56291575D01*
X52792217Y-56236998D01*
X52785023Y-56167500D01*
X52816546Y-56105145D01*
X52835842Y-56088425D01*
X52858026Y-56072891D01*
X53021401Y-55958495D01*
X53188495Y-55791401D01*
X53324035Y-55597830D01*
X53423903Y-55383663D01*
X53485063Y-55155408D01*
X53505659Y-54920000D01*
X53485063Y-54684592D01*
X53423903Y-54456337D01*
X53324035Y-54242171D01*
X53188495Y-54048599D01*
X53066567Y-53926671D01*
X53033084Y-53865351D01*
X53038068Y-53795659D01*
X53079939Y-53739725D01*
X53110915Y-53722810D01*
X53242331Y-53673796D01*
X53357546Y-53587546D01*
X53443796Y-53472331D01*
X53494091Y-53337483D01*
X53500500Y-53277873D01*
X53500499Y-52379999D01*
X63494341Y-52379999D01*
X63494341Y-52380000D01*
X63514936Y-52615403D01*
X63514938Y-52615413D01*
X63576094Y-52843655D01*
X63576096Y-52843659D01*
X63576097Y-52843663D01*
X63675965Y-53057830D01*
X63675967Y-53057834D01*
X63811501Y-53251395D01*
X63811506Y-53251402D01*
X63978597Y-53418493D01*
X63978603Y-53418498D01*
X64164158Y-53548425D01*
X64207783Y-53603002D01*
X64214977Y-53672500D01*
X64183454Y-53734855D01*
X64164158Y-53751575D01*
X63978597Y-53881505D01*
X63811505Y-54048597D01*
X63675965Y-54242169D01*
X63675964Y-54242171D01*
X63576098Y-54456335D01*
X63576094Y-54456344D01*
X63514938Y-54684586D01*
X63514936Y-54684596D01*
X63494341Y-54919999D01*
X63494341Y-54920000D01*
X63514936Y-55155403D01*
X63514938Y-55155413D01*
X63576094Y-55383655D01*
X63576096Y-55383659D01*
X63576097Y-55383663D01*
X63675965Y-55597830D01*
X63675967Y-55597834D01*
X63811501Y-55791395D01*
X63811506Y-55791402D01*
X63978597Y-55958493D01*
X63978603Y-55958498D01*
X64164158Y-56088425D01*
X64207783Y-56143002D01*
X64214977Y-56212500D01*
X64183454Y-56274855D01*
X64164158Y-56291575D01*
X63978597Y-56421505D01*
X63811505Y-56588597D01*
X63675965Y-56782169D01*
X63675964Y-56782171D01*
X63576098Y-56996335D01*
X63576094Y-56996344D01*
X63514938Y-57224586D01*
X63514936Y-57224596D01*
X63494341Y-57459999D01*
X63494341Y-57460000D01*
X63514936Y-57695403D01*
X63514938Y-57695413D01*
X63576094Y-57923655D01*
X63576096Y-57923659D01*
X63576097Y-57923663D01*
X63675965Y-58137830D01*
X63675967Y-58137834D01*
X63811501Y-58331395D01*
X63811506Y-58331402D01*
X63978597Y-58498493D01*
X63978603Y-58498498D01*
X64164158Y-58628425D01*
X64207783Y-58683002D01*
X64214977Y-58752500D01*
X64183454Y-58814855D01*
X64164158Y-58831575D01*
X63978597Y-58961505D01*
X63811505Y-59128597D01*
X63675965Y-59322169D01*
X63675964Y-59322171D01*
X63576098Y-59536335D01*
X63576094Y-59536344D01*
X63514938Y-59764586D01*
X63514936Y-59764596D01*
X63494341Y-59999999D01*
X63494341Y-60000000D01*
X63514936Y-60235403D01*
X63514938Y-60235413D01*
X63576094Y-60463655D01*
X63576096Y-60463659D01*
X63576097Y-60463663D01*
X63675965Y-60677830D01*
X63675967Y-60677834D01*
X63811501Y-60871395D01*
X63811506Y-60871402D01*
X63978597Y-61038493D01*
X63978603Y-61038498D01*
X64164158Y-61168425D01*
X64207783Y-61223002D01*
X64214977Y-61292500D01*
X64183454Y-61354855D01*
X64164158Y-61371575D01*
X63978597Y-61501505D01*
X63811505Y-61668597D01*
X63675965Y-61862169D01*
X63675964Y-61862171D01*
X63576098Y-62076335D01*
X63576094Y-62076344D01*
X63514938Y-62304586D01*
X63514936Y-62304596D01*
X63494341Y-62539999D01*
X63494341Y-62540000D01*
X63514936Y-62775403D01*
X63514938Y-62775413D01*
X63576094Y-63003655D01*
X63576096Y-63003659D01*
X63576097Y-63003663D01*
X63675965Y-63217830D01*
X63675967Y-63217834D01*
X63811501Y-63411395D01*
X63811506Y-63411402D01*
X63978597Y-63578493D01*
X63978603Y-63578498D01*
X64164158Y-63708425D01*
X64207783Y-63763002D01*
X64214977Y-63832500D01*
X64183454Y-63894855D01*
X64164158Y-63911575D01*
X63978597Y-64041505D01*
X63811505Y-64208597D01*
X63675965Y-64402169D01*
X63675964Y-64402171D01*
X63576098Y-64616335D01*
X63576094Y-64616344D01*
X63514938Y-64844586D01*
X63514936Y-64844596D01*
X63494341Y-65079999D01*
X63494341Y-65080000D01*
X63514936Y-65315403D01*
X63514938Y-65315413D01*
X63576094Y-65543655D01*
X63576096Y-65543659D01*
X63576097Y-65543663D01*
X63675965Y-65757830D01*
X63675967Y-65757834D01*
X63811501Y-65951395D01*
X63811506Y-65951402D01*
X63978597Y-66118493D01*
X63978603Y-66118498D01*
X64164158Y-66248425D01*
X64207783Y-66303002D01*
X64214977Y-66372500D01*
X64183454Y-66434855D01*
X64164158Y-66451575D01*
X63978597Y-66581505D01*
X63811505Y-66748597D01*
X63675965Y-66942169D01*
X63675964Y-66942171D01*
X63576098Y-67156335D01*
X63576094Y-67156344D01*
X63514938Y-67384586D01*
X63514936Y-67384596D01*
X63494341Y-67619999D01*
X63494341Y-67620000D01*
X63514936Y-67855403D01*
X63514938Y-67855413D01*
X63576094Y-68083655D01*
X63576096Y-68083659D01*
X63576097Y-68083663D01*
X63675847Y-68297578D01*
X63675965Y-68297830D01*
X63675967Y-68297834D01*
X63784281Y-68452521D01*
X63811505Y-68491401D01*
X63978599Y-68658495D01*
X64075384Y-68726265D01*
X64172165Y-68794032D01*
X64172167Y-68794033D01*
X64172170Y-68794035D01*
X64386337Y-68893903D01*
X64614592Y-68955063D01*
X64802918Y-68971539D01*
X64849999Y-68975659D01*
X64850000Y-68975659D01*
X64850001Y-68975659D01*
X64889234Y-68972226D01*
X65085408Y-68955063D01*
X65313663Y-68893903D01*
X65527830Y-68794035D01*
X65721401Y-68658495D01*
X65888495Y-68491401D01*
X66024035Y-68297830D01*
X66123903Y-68083663D01*
X66185063Y-67855408D01*
X66205659Y-67620000D01*
X66185063Y-67384592D01*
X66123903Y-67156337D01*
X66024035Y-66942171D01*
X65888495Y-66748599D01*
X65888494Y-66748597D01*
X65721402Y-66581506D01*
X65721396Y-66581501D01*
X65535842Y-66451575D01*
X65492217Y-66396998D01*
X65485023Y-66327500D01*
X65516546Y-66265145D01*
X65535842Y-66248425D01*
X65558026Y-66232891D01*
X65721401Y-66118495D01*
X65888495Y-65951401D01*
X66024035Y-65757830D01*
X66123903Y-65543663D01*
X66185063Y-65315408D01*
X66205659Y-65080000D01*
X66185063Y-64844592D01*
X66123903Y-64616337D01*
X66024035Y-64402171D01*
X65888495Y-64208599D01*
X65888494Y-64208597D01*
X65721402Y-64041506D01*
X65721396Y-64041501D01*
X65535842Y-63911575D01*
X65492217Y-63856998D01*
X65485023Y-63787500D01*
X65516546Y-63725145D01*
X65535842Y-63708425D01*
X65558026Y-63692891D01*
X65721401Y-63578495D01*
X65888495Y-63411401D01*
X66024035Y-63217830D01*
X66123903Y-63003663D01*
X66185063Y-62775408D01*
X66205659Y-62540000D01*
X66185063Y-62304592D01*
X66123903Y-62076337D01*
X66024035Y-61862171D01*
X65888495Y-61668599D01*
X65888494Y-61668597D01*
X65721402Y-61501506D01*
X65721396Y-61501501D01*
X65535842Y-61371575D01*
X65492217Y-61316998D01*
X65485023Y-61247500D01*
X65516546Y-61185145D01*
X65535842Y-61168425D01*
X65558026Y-61152891D01*
X65721401Y-61038495D01*
X65888495Y-60871401D01*
X66024035Y-60677830D01*
X66123903Y-60463663D01*
X66185063Y-60235408D01*
X66205659Y-60000000D01*
X66185063Y-59764592D01*
X66123903Y-59536337D01*
X66024035Y-59322171D01*
X65888495Y-59128599D01*
X65888494Y-59128597D01*
X65721402Y-58961506D01*
X65721396Y-58961501D01*
X65535842Y-58831575D01*
X65492217Y-58776998D01*
X65485023Y-58707500D01*
X65516546Y-58645145D01*
X65535842Y-58628425D01*
X65558026Y-58612891D01*
X65721401Y-58498495D01*
X65888495Y-58331401D01*
X66024035Y-58137830D01*
X66123903Y-57923663D01*
X66185063Y-57695408D01*
X66205659Y-57460000D01*
X66185063Y-57224592D01*
X66123903Y-56996337D01*
X66024035Y-56782171D01*
X65888495Y-56588599D01*
X65888494Y-56588597D01*
X65721402Y-56421506D01*
X65721396Y-56421501D01*
X65535842Y-56291575D01*
X65492217Y-56236998D01*
X65485023Y-56167500D01*
X65516546Y-56105145D01*
X65535842Y-56088425D01*
X65558026Y-56072891D01*
X65721401Y-55958495D01*
X65888495Y-55791401D01*
X66024035Y-55597830D01*
X66123903Y-55383663D01*
X66185063Y-55155408D01*
X66205659Y-54920000D01*
X66185063Y-54684592D01*
X66123903Y-54456337D01*
X66024035Y-54242171D01*
X65888495Y-54048599D01*
X65888494Y-54048597D01*
X65721402Y-53881506D01*
X65721396Y-53881501D01*
X65535842Y-53751575D01*
X65492217Y-53696998D01*
X65485023Y-53627500D01*
X65516546Y-53565145D01*
X65535842Y-53548425D01*
X65558026Y-53532891D01*
X65721401Y-53418495D01*
X65888495Y-53251401D01*
X66024035Y-53057830D01*
X66123903Y-52843663D01*
X66185063Y-52615408D01*
X66205659Y-52380000D01*
X66185063Y-52144592D01*
X66123903Y-51916337D01*
X66024035Y-51702171D01*
X65888495Y-51508599D01*
X65888494Y-51508597D01*
X65721402Y-51341506D01*
X65721395Y-51341501D01*
X65527834Y-51205967D01*
X65527830Y-51205965D01*
X65527828Y-51205964D01*
X65313663Y-51106097D01*
X65313659Y-51106096D01*
X65313655Y-51106094D01*
X65085413Y-51044938D01*
X65085403Y-51044936D01*
X64850001Y-51024341D01*
X64849999Y-51024341D01*
X64614596Y-51044936D01*
X64614586Y-51044938D01*
X64386344Y-51106094D01*
X64386335Y-51106098D01*
X64172171Y-51205964D01*
X64172169Y-51205965D01*
X63978597Y-51341505D01*
X63811505Y-51508597D01*
X63675965Y-51702169D01*
X63675964Y-51702171D01*
X63576098Y-51916335D01*
X63576094Y-51916344D01*
X63514938Y-52144586D01*
X63514936Y-52144596D01*
X63494341Y-52379999D01*
X53500499Y-52379999D01*
X53500499Y-51482128D01*
X53494091Y-51422517D01*
X53443796Y-51287669D01*
X53443795Y-51287668D01*
X53443793Y-51287664D01*
X53357547Y-51172455D01*
X53357544Y-51172452D01*
X53242335Y-51086206D01*
X53242328Y-51086202D01*
X53107482Y-51035908D01*
X53107483Y-51035908D01*
X53047883Y-51029501D01*
X53047881Y-51029500D01*
X53047873Y-51029500D01*
X53047864Y-51029500D01*
X51252129Y-51029500D01*
X51252123Y-51029501D01*
X51192516Y-51035908D01*
X51057671Y-51086202D01*
X51057664Y-51086206D01*
X50942455Y-51172452D01*
X50942452Y-51172455D01*
X50856206Y-51287664D01*
X50856202Y-51287671D01*
X50805908Y-51422517D01*
X50799501Y-51482116D01*
X50799501Y-51482123D01*
X50799500Y-51482135D01*
X50799500Y-53277870D01*
X50799501Y-53277876D01*
X50805908Y-53337483D01*
X50856202Y-53472328D01*
X50856206Y-53472335D01*
X50942452Y-53587544D01*
X50942455Y-53587547D01*
X51057664Y-53673793D01*
X51057671Y-53673797D01*
X51189081Y-53722810D01*
X51245015Y-53764681D01*
X51269432Y-53830145D01*
X51254580Y-53898418D01*
X51233430Y-53926673D01*
X51111503Y-54048600D01*
X50975965Y-54242169D01*
X50975964Y-54242171D01*
X50876098Y-54456335D01*
X50876094Y-54456344D01*
X50814938Y-54684586D01*
X50814936Y-54684596D01*
X50794341Y-54919999D01*
X50500500Y-54919999D01*
X50500500Y-50624500D01*
X50520185Y-50557461D01*
X50572989Y-50511706D01*
X50624500Y-50500500D01*
X66375500Y-50500500D01*
X66442539Y-50520185D01*
G37*
%TD.AperFunction*%
%TD*%
M02*
