%TF.GenerationSoftware,KiCad,Pcbnew,8.0.4*%
%TF.CreationDate,2025-01-06T14:25:05+00:00*%
%TF.ProjectId,tssop_14_breakout,7473736f-705f-4313-945f-627265616b6f,rev?*%
%TF.SameCoordinates,Original*%
%TF.FileFunction,Legend,Top*%
%TF.FilePolarity,Positive*%
%FSLAX46Y46*%
G04 Gerber Fmt 4.6, Leading zero omitted, Abs format (unit mm)*
G04 Created by KiCad (PCBNEW 8.0.4) date 2025-01-06 14:25:05*
%MOMM*%
%LPD*%
G01*
G04 APERTURE LIST*
%ADD10C,0.200000*%
%ADD11C,0.120000*%
G04 APERTURE END LIST*
D10*
X54274435Y-67072219D02*
X54941101Y-67072219D01*
X54941101Y-67072219D02*
X54512530Y-68072219D01*
X62396993Y-67500790D02*
X62301755Y-67453171D01*
X62301755Y-67453171D02*
X62254136Y-67405552D01*
X62254136Y-67405552D02*
X62206517Y-67310314D01*
X62206517Y-67310314D02*
X62206517Y-67262695D01*
X62206517Y-67262695D02*
X62254136Y-67167457D01*
X62254136Y-67167457D02*
X62301755Y-67119838D01*
X62301755Y-67119838D02*
X62396993Y-67072219D01*
X62396993Y-67072219D02*
X62587469Y-67072219D01*
X62587469Y-67072219D02*
X62682707Y-67119838D01*
X62682707Y-67119838D02*
X62730326Y-67167457D01*
X62730326Y-67167457D02*
X62777945Y-67262695D01*
X62777945Y-67262695D02*
X62777945Y-67310314D01*
X62777945Y-67310314D02*
X62730326Y-67405552D01*
X62730326Y-67405552D02*
X62682707Y-67453171D01*
X62682707Y-67453171D02*
X62587469Y-67500790D01*
X62587469Y-67500790D02*
X62396993Y-67500790D01*
X62396993Y-67500790D02*
X62301755Y-67548409D01*
X62301755Y-67548409D02*
X62254136Y-67596028D01*
X62254136Y-67596028D02*
X62206517Y-67691266D01*
X62206517Y-67691266D02*
X62206517Y-67881742D01*
X62206517Y-67881742D02*
X62254136Y-67976980D01*
X62254136Y-67976980D02*
X62301755Y-68024600D01*
X62301755Y-68024600D02*
X62396993Y-68072219D01*
X62396993Y-68072219D02*
X62587469Y-68072219D01*
X62587469Y-68072219D02*
X62682707Y-68024600D01*
X62682707Y-68024600D02*
X62730326Y-67976980D01*
X62730326Y-67976980D02*
X62777945Y-67881742D01*
X62777945Y-67881742D02*
X62777945Y-67691266D01*
X62777945Y-67691266D02*
X62730326Y-67596028D01*
X62730326Y-67596028D02*
X62682707Y-67548409D01*
X62682707Y-67548409D02*
X62587469Y-67500790D01*
X61825564Y-52832219D02*
X61254136Y-52832219D01*
X61539850Y-52832219D02*
X61539850Y-51832219D01*
X61539850Y-51832219D02*
X61444612Y-51975076D01*
X61444612Y-51975076D02*
X61349374Y-52070314D01*
X61349374Y-52070314D02*
X61254136Y-52117933D01*
X62682707Y-52165552D02*
X62682707Y-52832219D01*
X62444612Y-51784600D02*
X62206517Y-52498885D01*
X62206517Y-52498885D02*
X62825564Y-52498885D01*
X54893482Y-52832219D02*
X54322054Y-52832219D01*
X54607768Y-52832219D02*
X54607768Y-51832219D01*
X54607768Y-51832219D02*
X54512530Y-51975076D01*
X54512530Y-51975076D02*
X54417292Y-52070314D01*
X54417292Y-52070314D02*
X54322054Y-52117933D01*
D11*
%TO.C,C3*%
X58238748Y-55305000D02*
X58761252Y-55305000D01*
X58238748Y-56775000D02*
X58761252Y-56775000D01*
%TO.C,J7*%
X50820000Y-51050000D02*
X52150000Y-51050000D01*
X50820000Y-52380000D02*
X50820000Y-51050000D01*
X50820000Y-53650000D02*
X50820000Y-68950000D01*
X50820000Y-53650000D02*
X53480000Y-53650000D01*
X50820000Y-68950000D02*
X53480000Y-68950000D01*
X53480000Y-53650000D02*
X53480000Y-68950000D01*
%TO.C,U4*%
X58500000Y-61200000D02*
X56300000Y-61200000D01*
X58500000Y-61200000D02*
X60700000Y-61200000D01*
X58500000Y-66420000D02*
X56300000Y-66420000D01*
X58500000Y-66420000D02*
X60700000Y-66420000D01*
X55600000Y-61400000D02*
X55360000Y-61070000D01*
X55840000Y-61070000D01*
X55600000Y-61400000D01*
G36*
X55600000Y-61400000D02*
G01*
X55360000Y-61070000D01*
X55840000Y-61070000D01*
X55600000Y-61400000D01*
G37*
%TO.C,J8*%
X63520000Y-68950000D02*
X63520000Y-51050000D01*
X66180000Y-51050000D02*
X63520000Y-51050000D01*
X66180000Y-68950000D02*
X63520000Y-68950000D01*
X66180000Y-68950000D02*
X66180000Y-51050000D01*
%TD*%
M02*
