%TF.GenerationSoftware,KiCad,Pcbnew,8.0.4*%
%TF.CreationDate,2025-01-06T15:08:45+00:00*%
%TF.ProjectId,33063_boost,33333036-335f-4626-9f6f-73742e6b6963,rev?*%
%TF.SameCoordinates,Original*%
%TF.FileFunction,Legend,Top*%
%TF.FilePolarity,Positive*%
%FSLAX46Y46*%
G04 Gerber Fmt 4.6, Leading zero omitted, Abs format (unit mm)*
G04 Created by KiCad (PCBNEW 8.0.4) date 2025-01-06 15:08:45*
%MOMM*%
%LPD*%
G01*
G04 APERTURE LIST*
%ADD10C,0.100000*%
%ADD11C,0.360000*%
%ADD12C,0.200000*%
%ADD13C,0.150000*%
%ADD14C,0.120000*%
G04 APERTURE END LIST*
D10*
X76650000Y-58700000D02*
X76750000Y-58550000D01*
X76850000Y-59000000D01*
X76350000Y-58850000D01*
X76500000Y-58750000D01*
X75950000Y-58250000D01*
X76100000Y-58100000D01*
X76650000Y-58700000D01*
G36*
X76650000Y-58700000D02*
G01*
X76750000Y-58550000D01*
X76850000Y-59000000D01*
X76350000Y-58850000D01*
X76500000Y-58750000D01*
X75950000Y-58250000D01*
X76100000Y-58100000D01*
X76650000Y-58700000D01*
G37*
D11*
X52279708Y-64471428D02*
X52193994Y-64642857D01*
X52193994Y-64642857D02*
X52193994Y-64899999D01*
X52193994Y-64899999D02*
X52279708Y-65157142D01*
X52279708Y-65157142D02*
X52451137Y-65328571D01*
X52451137Y-65328571D02*
X52622565Y-65414285D01*
X52622565Y-65414285D02*
X52965422Y-65499999D01*
X52965422Y-65499999D02*
X53222565Y-65499999D01*
X53222565Y-65499999D02*
X53565422Y-65414285D01*
X53565422Y-65414285D02*
X53736851Y-65328571D01*
X53736851Y-65328571D02*
X53908280Y-65157142D01*
X53908280Y-65157142D02*
X53993994Y-64899999D01*
X53993994Y-64899999D02*
X53993994Y-64728571D01*
X53993994Y-64728571D02*
X53908280Y-64471428D01*
X53908280Y-64471428D02*
X53822565Y-64385714D01*
X53822565Y-64385714D02*
X53222565Y-64385714D01*
X53222565Y-64385714D02*
X53222565Y-64728571D01*
X53993994Y-63614285D02*
X52193994Y-63614285D01*
X52193994Y-63614285D02*
X53993994Y-62585714D01*
X53993994Y-62585714D02*
X52193994Y-62585714D01*
X53993994Y-61728571D02*
X52193994Y-61728571D01*
X52193994Y-61728571D02*
X52193994Y-61300000D01*
X52193994Y-61300000D02*
X52279708Y-61042857D01*
X52279708Y-61042857D02*
X52451137Y-60871428D01*
X52451137Y-60871428D02*
X52622565Y-60785714D01*
X52622565Y-60785714D02*
X52965422Y-60700000D01*
X52965422Y-60700000D02*
X53222565Y-60700000D01*
X53222565Y-60700000D02*
X53565422Y-60785714D01*
X53565422Y-60785714D02*
X53736851Y-60871428D01*
X53736851Y-60871428D02*
X53908280Y-61042857D01*
X53908280Y-61042857D02*
X53993994Y-61300000D01*
X53993994Y-61300000D02*
X53993994Y-61728571D01*
X92919708Y-64471428D02*
X92833994Y-64642857D01*
X92833994Y-64642857D02*
X92833994Y-64899999D01*
X92833994Y-64899999D02*
X92919708Y-65157142D01*
X92919708Y-65157142D02*
X93091137Y-65328571D01*
X93091137Y-65328571D02*
X93262565Y-65414285D01*
X93262565Y-65414285D02*
X93605422Y-65499999D01*
X93605422Y-65499999D02*
X93862565Y-65499999D01*
X93862565Y-65499999D02*
X94205422Y-65414285D01*
X94205422Y-65414285D02*
X94376851Y-65328571D01*
X94376851Y-65328571D02*
X94548280Y-65157142D01*
X94548280Y-65157142D02*
X94633994Y-64899999D01*
X94633994Y-64899999D02*
X94633994Y-64728571D01*
X94633994Y-64728571D02*
X94548280Y-64471428D01*
X94548280Y-64471428D02*
X94462565Y-64385714D01*
X94462565Y-64385714D02*
X93862565Y-64385714D01*
X93862565Y-64385714D02*
X93862565Y-64728571D01*
X94633994Y-63614285D02*
X92833994Y-63614285D01*
X92833994Y-63614285D02*
X94633994Y-62585714D01*
X94633994Y-62585714D02*
X92833994Y-62585714D01*
X94633994Y-61728571D02*
X92833994Y-61728571D01*
X92833994Y-61728571D02*
X92833994Y-61300000D01*
X92833994Y-61300000D02*
X92919708Y-61042857D01*
X92919708Y-61042857D02*
X93091137Y-60871428D01*
X93091137Y-60871428D02*
X93262565Y-60785714D01*
X93262565Y-60785714D02*
X93605422Y-60700000D01*
X93605422Y-60700000D02*
X93862565Y-60700000D01*
X93862565Y-60700000D02*
X94205422Y-60785714D01*
X94205422Y-60785714D02*
X94376851Y-60871428D01*
X94376851Y-60871428D02*
X94548280Y-61042857D01*
X94548280Y-61042857D02*
X94633994Y-61300000D01*
X94633994Y-61300000D02*
X94633994Y-61728571D01*
X56813994Y-64092856D02*
X55013994Y-64092856D01*
X56813994Y-63235713D02*
X55013994Y-63235713D01*
X55013994Y-63235713D02*
X56813994Y-62207142D01*
X56813994Y-62207142D02*
X55013994Y-62207142D01*
X90263994Y-64949999D02*
X90263994Y-64607142D01*
X90263994Y-64607142D02*
X90349708Y-64435713D01*
X90349708Y-64435713D02*
X90521137Y-64264285D01*
X90521137Y-64264285D02*
X90863994Y-64178570D01*
X90863994Y-64178570D02*
X91463994Y-64178570D01*
X91463994Y-64178570D02*
X91806851Y-64264285D01*
X91806851Y-64264285D02*
X91978280Y-64435713D01*
X91978280Y-64435713D02*
X92063994Y-64607142D01*
X92063994Y-64607142D02*
X92063994Y-64949999D01*
X92063994Y-64949999D02*
X91978280Y-65121428D01*
X91978280Y-65121428D02*
X91806851Y-65292856D01*
X91806851Y-65292856D02*
X91463994Y-65378570D01*
X91463994Y-65378570D02*
X90863994Y-65378570D01*
X90863994Y-65378570D02*
X90521137Y-65292856D01*
X90521137Y-65292856D02*
X90349708Y-65121428D01*
X90349708Y-65121428D02*
X90263994Y-64949999D01*
X90263994Y-63407142D02*
X91721137Y-63407142D01*
X91721137Y-63407142D02*
X91892565Y-63321428D01*
X91892565Y-63321428D02*
X91978280Y-63235714D01*
X91978280Y-63235714D02*
X92063994Y-63064285D01*
X92063994Y-63064285D02*
X92063994Y-62721428D01*
X92063994Y-62721428D02*
X91978280Y-62549999D01*
X91978280Y-62549999D02*
X91892565Y-62464285D01*
X91892565Y-62464285D02*
X91721137Y-62378571D01*
X91721137Y-62378571D02*
X90263994Y-62378571D01*
X90263994Y-61778571D02*
X90263994Y-60750000D01*
X92063994Y-61264285D02*
X90263994Y-61264285D01*
D12*
X75993482Y-59067219D02*
X75422054Y-59067219D01*
X75707768Y-59067219D02*
X75707768Y-58067219D01*
X75707768Y-58067219D02*
X75612530Y-58210076D01*
X75612530Y-58210076D02*
X75517292Y-58305314D01*
X75517292Y-58305314D02*
X75422054Y-58352933D01*
D13*
X80633333Y-68104819D02*
X80157143Y-68104819D01*
X80157143Y-68104819D02*
X80157143Y-67104819D01*
X81490476Y-68104819D02*
X80919048Y-68104819D01*
X81204762Y-68104819D02*
X81204762Y-67104819D01*
X81204762Y-67104819D02*
X81109524Y-67247676D01*
X81109524Y-67247676D02*
X81014286Y-67342914D01*
X81014286Y-67342914D02*
X80919048Y-67390533D01*
X54383333Y-52959580D02*
X54335714Y-53007200D01*
X54335714Y-53007200D02*
X54192857Y-53054819D01*
X54192857Y-53054819D02*
X54097619Y-53054819D01*
X54097619Y-53054819D02*
X53954762Y-53007200D01*
X53954762Y-53007200D02*
X53859524Y-52911961D01*
X53859524Y-52911961D02*
X53811905Y-52816723D01*
X53811905Y-52816723D02*
X53764286Y-52626247D01*
X53764286Y-52626247D02*
X53764286Y-52483390D01*
X53764286Y-52483390D02*
X53811905Y-52292914D01*
X53811905Y-52292914D02*
X53859524Y-52197676D01*
X53859524Y-52197676D02*
X53954762Y-52102438D01*
X53954762Y-52102438D02*
X54097619Y-52054819D01*
X54097619Y-52054819D02*
X54192857Y-52054819D01*
X54192857Y-52054819D02*
X54335714Y-52102438D01*
X54335714Y-52102438D02*
X54383333Y-52150057D01*
X55335714Y-53054819D02*
X54764286Y-53054819D01*
X55050000Y-53054819D02*
X55050000Y-52054819D01*
X55050000Y-52054819D02*
X54954762Y-52197676D01*
X54954762Y-52197676D02*
X54859524Y-52292914D01*
X54859524Y-52292914D02*
X54764286Y-52340533D01*
X58630952Y-53004819D02*
X58059524Y-53004819D01*
X58345238Y-53004819D02*
X58345238Y-52004819D01*
X58345238Y-52004819D02*
X58250000Y-52147676D01*
X58250000Y-52147676D02*
X58154762Y-52242914D01*
X58154762Y-52242914D02*
X58059524Y-52290533D01*
X59250000Y-52004819D02*
X59345238Y-52004819D01*
X59345238Y-52004819D02*
X59440476Y-52052438D01*
X59440476Y-52052438D02*
X59488095Y-52100057D01*
X59488095Y-52100057D02*
X59535714Y-52195295D01*
X59535714Y-52195295D02*
X59583333Y-52385771D01*
X59583333Y-52385771D02*
X59583333Y-52623866D01*
X59583333Y-52623866D02*
X59535714Y-52814342D01*
X59535714Y-52814342D02*
X59488095Y-52909580D01*
X59488095Y-52909580D02*
X59440476Y-52957200D01*
X59440476Y-52957200D02*
X59345238Y-53004819D01*
X59345238Y-53004819D02*
X59250000Y-53004819D01*
X59250000Y-53004819D02*
X59154762Y-52957200D01*
X59154762Y-52957200D02*
X59107143Y-52909580D01*
X59107143Y-52909580D02*
X59059524Y-52814342D01*
X59059524Y-52814342D02*
X59011905Y-52623866D01*
X59011905Y-52623866D02*
X59011905Y-52385771D01*
X59011905Y-52385771D02*
X59059524Y-52195295D01*
X59059524Y-52195295D02*
X59107143Y-52100057D01*
X59107143Y-52100057D02*
X59154762Y-52052438D01*
X59154762Y-52052438D02*
X59250000Y-52004819D01*
X60202381Y-52004819D02*
X60297619Y-52004819D01*
X60297619Y-52004819D02*
X60392857Y-52052438D01*
X60392857Y-52052438D02*
X60440476Y-52100057D01*
X60440476Y-52100057D02*
X60488095Y-52195295D01*
X60488095Y-52195295D02*
X60535714Y-52385771D01*
X60535714Y-52385771D02*
X60535714Y-52623866D01*
X60535714Y-52623866D02*
X60488095Y-52814342D01*
X60488095Y-52814342D02*
X60440476Y-52909580D01*
X60440476Y-52909580D02*
X60392857Y-52957200D01*
X60392857Y-52957200D02*
X60297619Y-53004819D01*
X60297619Y-53004819D02*
X60202381Y-53004819D01*
X60202381Y-53004819D02*
X60107143Y-52957200D01*
X60107143Y-52957200D02*
X60059524Y-52909580D01*
X60059524Y-52909580D02*
X60011905Y-52814342D01*
X60011905Y-52814342D02*
X59964286Y-52623866D01*
X59964286Y-52623866D02*
X59964286Y-52385771D01*
X59964286Y-52385771D02*
X60011905Y-52195295D01*
X60011905Y-52195295D02*
X60059524Y-52100057D01*
X60059524Y-52100057D02*
X60107143Y-52052438D01*
X60107143Y-52052438D02*
X60202381Y-52004819D01*
X61392857Y-52338152D02*
X61392857Y-53004819D01*
X60964286Y-52338152D02*
X60964286Y-52861961D01*
X60964286Y-52861961D02*
X61011905Y-52957200D01*
X61011905Y-52957200D02*
X61107143Y-53004819D01*
X61107143Y-53004819D02*
X61250000Y-53004819D01*
X61250000Y-53004819D02*
X61345238Y-52957200D01*
X61345238Y-52957200D02*
X61392857Y-52909580D01*
X70533333Y-62554819D02*
X70200000Y-62078628D01*
X69961905Y-62554819D02*
X69961905Y-61554819D01*
X69961905Y-61554819D02*
X70342857Y-61554819D01*
X70342857Y-61554819D02*
X70438095Y-61602438D01*
X70438095Y-61602438D02*
X70485714Y-61650057D01*
X70485714Y-61650057D02*
X70533333Y-61745295D01*
X70533333Y-61745295D02*
X70533333Y-61888152D01*
X70533333Y-61888152D02*
X70485714Y-61983390D01*
X70485714Y-61983390D02*
X70438095Y-62031009D01*
X70438095Y-62031009D02*
X70342857Y-62078628D01*
X70342857Y-62078628D02*
X69961905Y-62078628D01*
X70914286Y-61650057D02*
X70961905Y-61602438D01*
X70961905Y-61602438D02*
X71057143Y-61554819D01*
X71057143Y-61554819D02*
X71295238Y-61554819D01*
X71295238Y-61554819D02*
X71390476Y-61602438D01*
X71390476Y-61602438D02*
X71438095Y-61650057D01*
X71438095Y-61650057D02*
X71485714Y-61745295D01*
X71485714Y-61745295D02*
X71485714Y-61840533D01*
X71485714Y-61840533D02*
X71438095Y-61983390D01*
X71438095Y-61983390D02*
X70866667Y-62554819D01*
X70866667Y-62554819D02*
X71485714Y-62554819D01*
X60304761Y-60054819D02*
X59971428Y-59578628D01*
X59733333Y-60054819D02*
X59733333Y-59054819D01*
X59733333Y-59054819D02*
X60114285Y-59054819D01*
X60114285Y-59054819D02*
X60209523Y-59102438D01*
X60209523Y-59102438D02*
X60257142Y-59150057D01*
X60257142Y-59150057D02*
X60304761Y-59245295D01*
X60304761Y-59245295D02*
X60304761Y-59388152D01*
X60304761Y-59388152D02*
X60257142Y-59483390D01*
X60257142Y-59483390D02*
X60209523Y-59531009D01*
X60209523Y-59531009D02*
X60114285Y-59578628D01*
X60114285Y-59578628D02*
X59733333Y-59578628D01*
X60590476Y-59054819D02*
X60923809Y-60054819D01*
X60923809Y-60054819D02*
X61257142Y-59054819D01*
X62114285Y-60054819D02*
X61542857Y-60054819D01*
X61828571Y-60054819D02*
X61828571Y-59054819D01*
X61828571Y-59054819D02*
X61733333Y-59197676D01*
X61733333Y-59197676D02*
X61638095Y-59292914D01*
X61638095Y-59292914D02*
X61542857Y-59340533D01*
X60833333Y-60454819D02*
X60357143Y-60454819D01*
X60357143Y-60454819D02*
X60309524Y-60931009D01*
X60309524Y-60931009D02*
X60357143Y-60883390D01*
X60357143Y-60883390D02*
X60452381Y-60835771D01*
X60452381Y-60835771D02*
X60690476Y-60835771D01*
X60690476Y-60835771D02*
X60785714Y-60883390D01*
X60785714Y-60883390D02*
X60833333Y-60931009D01*
X60833333Y-60931009D02*
X60880952Y-61026247D01*
X60880952Y-61026247D02*
X60880952Y-61264342D01*
X60880952Y-61264342D02*
X60833333Y-61359580D01*
X60833333Y-61359580D02*
X60785714Y-61407200D01*
X60785714Y-61407200D02*
X60690476Y-61454819D01*
X60690476Y-61454819D02*
X60452381Y-61454819D01*
X60452381Y-61454819D02*
X60357143Y-61407200D01*
X60357143Y-61407200D02*
X60309524Y-61359580D01*
X61309524Y-61454819D02*
X61309524Y-60454819D01*
X61404762Y-61073866D02*
X61690476Y-61454819D01*
X61690476Y-60788152D02*
X61309524Y-61169104D01*
X91083333Y-52309580D02*
X91035714Y-52357200D01*
X91035714Y-52357200D02*
X90892857Y-52404819D01*
X90892857Y-52404819D02*
X90797619Y-52404819D01*
X90797619Y-52404819D02*
X90654762Y-52357200D01*
X90654762Y-52357200D02*
X90559524Y-52261961D01*
X90559524Y-52261961D02*
X90511905Y-52166723D01*
X90511905Y-52166723D02*
X90464286Y-51976247D01*
X90464286Y-51976247D02*
X90464286Y-51833390D01*
X90464286Y-51833390D02*
X90511905Y-51642914D01*
X90511905Y-51642914D02*
X90559524Y-51547676D01*
X90559524Y-51547676D02*
X90654762Y-51452438D01*
X90654762Y-51452438D02*
X90797619Y-51404819D01*
X90797619Y-51404819D02*
X90892857Y-51404819D01*
X90892857Y-51404819D02*
X91035714Y-51452438D01*
X91035714Y-51452438D02*
X91083333Y-51500057D01*
X91416667Y-51404819D02*
X92035714Y-51404819D01*
X92035714Y-51404819D02*
X91702381Y-51785771D01*
X91702381Y-51785771D02*
X91845238Y-51785771D01*
X91845238Y-51785771D02*
X91940476Y-51833390D01*
X91940476Y-51833390D02*
X91988095Y-51881009D01*
X91988095Y-51881009D02*
X92035714Y-51976247D01*
X92035714Y-51976247D02*
X92035714Y-52214342D01*
X92035714Y-52214342D02*
X91988095Y-52309580D01*
X91988095Y-52309580D02*
X91940476Y-52357200D01*
X91940476Y-52357200D02*
X91845238Y-52404819D01*
X91845238Y-52404819D02*
X91559524Y-52404819D01*
X91559524Y-52404819D02*
X91464286Y-52357200D01*
X91464286Y-52357200D02*
X91416667Y-52309580D01*
X73023333Y-51914819D02*
X72690000Y-51438628D01*
X72451905Y-51914819D02*
X72451905Y-50914819D01*
X72451905Y-50914819D02*
X72832857Y-50914819D01*
X72832857Y-50914819D02*
X72928095Y-50962438D01*
X72928095Y-50962438D02*
X72975714Y-51010057D01*
X72975714Y-51010057D02*
X73023333Y-51105295D01*
X73023333Y-51105295D02*
X73023333Y-51248152D01*
X73023333Y-51248152D02*
X72975714Y-51343390D01*
X72975714Y-51343390D02*
X72928095Y-51391009D01*
X72928095Y-51391009D02*
X72832857Y-51438628D01*
X72832857Y-51438628D02*
X72451905Y-51438628D01*
X73356667Y-50914819D02*
X73975714Y-50914819D01*
X73975714Y-50914819D02*
X73642381Y-51295771D01*
X73642381Y-51295771D02*
X73785238Y-51295771D01*
X73785238Y-51295771D02*
X73880476Y-51343390D01*
X73880476Y-51343390D02*
X73928095Y-51391009D01*
X73928095Y-51391009D02*
X73975714Y-51486247D01*
X73975714Y-51486247D02*
X73975714Y-51724342D01*
X73975714Y-51724342D02*
X73928095Y-51819580D01*
X73928095Y-51819580D02*
X73880476Y-51867200D01*
X73880476Y-51867200D02*
X73785238Y-51914819D01*
X73785238Y-51914819D02*
X73499524Y-51914819D01*
X73499524Y-51914819D02*
X73404286Y-51867200D01*
X73404286Y-51867200D02*
X73356667Y-51819580D01*
X75360952Y-51934819D02*
X74789524Y-51934819D01*
X75075238Y-51934819D02*
X75075238Y-50934819D01*
X75075238Y-50934819D02*
X74980000Y-51077676D01*
X74980000Y-51077676D02*
X74884762Y-51172914D01*
X74884762Y-51172914D02*
X74789524Y-51220533D01*
X75789524Y-51934819D02*
X75789524Y-50934819D01*
X75884762Y-51553866D02*
X76170476Y-51934819D01*
X76170476Y-51268152D02*
X75789524Y-51649104D01*
X60633333Y-63754819D02*
X60300000Y-63278628D01*
X60061905Y-63754819D02*
X60061905Y-62754819D01*
X60061905Y-62754819D02*
X60442857Y-62754819D01*
X60442857Y-62754819D02*
X60538095Y-62802438D01*
X60538095Y-62802438D02*
X60585714Y-62850057D01*
X60585714Y-62850057D02*
X60633333Y-62945295D01*
X60633333Y-62945295D02*
X60633333Y-63088152D01*
X60633333Y-63088152D02*
X60585714Y-63183390D01*
X60585714Y-63183390D02*
X60538095Y-63231009D01*
X60538095Y-63231009D02*
X60442857Y-63278628D01*
X60442857Y-63278628D02*
X60061905Y-63278628D01*
X61585714Y-63754819D02*
X61014286Y-63754819D01*
X61300000Y-63754819D02*
X61300000Y-62754819D01*
X61300000Y-62754819D02*
X61204762Y-62897676D01*
X61204762Y-62897676D02*
X61109524Y-62992914D01*
X61109524Y-62992914D02*
X61014286Y-63040533D01*
X63490475Y-63754819D02*
X63157142Y-63278628D01*
X62919047Y-63754819D02*
X62919047Y-62754819D01*
X62919047Y-62754819D02*
X63299999Y-62754819D01*
X63299999Y-62754819D02*
X63395237Y-62802438D01*
X63395237Y-62802438D02*
X63442856Y-62850057D01*
X63442856Y-62850057D02*
X63490475Y-62945295D01*
X63490475Y-62945295D02*
X63490475Y-63088152D01*
X63490475Y-63088152D02*
X63442856Y-63183390D01*
X63442856Y-63183390D02*
X63395237Y-63231009D01*
X63395237Y-63231009D02*
X63299999Y-63278628D01*
X63299999Y-63278628D02*
X62919047Y-63278628D01*
X63871428Y-63707200D02*
X63966666Y-63754819D01*
X63966666Y-63754819D02*
X64157142Y-63754819D01*
X64157142Y-63754819D02*
X64252380Y-63707200D01*
X64252380Y-63707200D02*
X64299999Y-63611961D01*
X64299999Y-63611961D02*
X64299999Y-63564342D01*
X64299999Y-63564342D02*
X64252380Y-63469104D01*
X64252380Y-63469104D02*
X64157142Y-63421485D01*
X64157142Y-63421485D02*
X64014285Y-63421485D01*
X64014285Y-63421485D02*
X63919047Y-63373866D01*
X63919047Y-63373866D02*
X63871428Y-63278628D01*
X63871428Y-63278628D02*
X63871428Y-63231009D01*
X63871428Y-63231009D02*
X63919047Y-63135771D01*
X63919047Y-63135771D02*
X64014285Y-63088152D01*
X64014285Y-63088152D02*
X64157142Y-63088152D01*
X64157142Y-63088152D02*
X64252380Y-63135771D01*
X65109523Y-63707200D02*
X65014285Y-63754819D01*
X65014285Y-63754819D02*
X64823809Y-63754819D01*
X64823809Y-63754819D02*
X64728571Y-63707200D01*
X64728571Y-63707200D02*
X64680952Y-63611961D01*
X64680952Y-63611961D02*
X64680952Y-63231009D01*
X64680952Y-63231009D02*
X64728571Y-63135771D01*
X64728571Y-63135771D02*
X64823809Y-63088152D01*
X64823809Y-63088152D02*
X65014285Y-63088152D01*
X65014285Y-63088152D02*
X65109523Y-63135771D01*
X65109523Y-63135771D02*
X65157142Y-63231009D01*
X65157142Y-63231009D02*
X65157142Y-63326247D01*
X65157142Y-63326247D02*
X64680952Y-63421485D01*
X65585714Y-63088152D02*
X65585714Y-63754819D01*
X65585714Y-63183390D02*
X65633333Y-63135771D01*
X65633333Y-63135771D02*
X65728571Y-63088152D01*
X65728571Y-63088152D02*
X65871428Y-63088152D01*
X65871428Y-63088152D02*
X65966666Y-63135771D01*
X65966666Y-63135771D02*
X66014285Y-63231009D01*
X66014285Y-63231009D02*
X66014285Y-63754819D01*
X66442857Y-63707200D02*
X66538095Y-63754819D01*
X66538095Y-63754819D02*
X66728571Y-63754819D01*
X66728571Y-63754819D02*
X66823809Y-63707200D01*
X66823809Y-63707200D02*
X66871428Y-63611961D01*
X66871428Y-63611961D02*
X66871428Y-63564342D01*
X66871428Y-63564342D02*
X66823809Y-63469104D01*
X66823809Y-63469104D02*
X66728571Y-63421485D01*
X66728571Y-63421485D02*
X66585714Y-63421485D01*
X66585714Y-63421485D02*
X66490476Y-63373866D01*
X66490476Y-63373866D02*
X66442857Y-63278628D01*
X66442857Y-63278628D02*
X66442857Y-63231009D01*
X66442857Y-63231009D02*
X66490476Y-63135771D01*
X66490476Y-63135771D02*
X66585714Y-63088152D01*
X66585714Y-63088152D02*
X66728571Y-63088152D01*
X66728571Y-63088152D02*
X66823809Y-63135771D01*
X67680952Y-63707200D02*
X67585714Y-63754819D01*
X67585714Y-63754819D02*
X67395238Y-63754819D01*
X67395238Y-63754819D02*
X67300000Y-63707200D01*
X67300000Y-63707200D02*
X67252381Y-63611961D01*
X67252381Y-63611961D02*
X67252381Y-63231009D01*
X67252381Y-63231009D02*
X67300000Y-63135771D01*
X67300000Y-63135771D02*
X67395238Y-63088152D01*
X67395238Y-63088152D02*
X67585714Y-63088152D01*
X67585714Y-63088152D02*
X67680952Y-63135771D01*
X67680952Y-63135771D02*
X67728571Y-63231009D01*
X67728571Y-63231009D02*
X67728571Y-63326247D01*
X67728571Y-63326247D02*
X67252381Y-63421485D01*
X64811666Y-50754819D02*
X64811666Y-51469104D01*
X64811666Y-51469104D02*
X64764047Y-51611961D01*
X64764047Y-51611961D02*
X64668809Y-51707200D01*
X64668809Y-51707200D02*
X64525952Y-51754819D01*
X64525952Y-51754819D02*
X64430714Y-51754819D01*
X65287857Y-51754819D02*
X65287857Y-50754819D01*
X65287857Y-50754819D02*
X65668809Y-50754819D01*
X65668809Y-50754819D02*
X65764047Y-50802438D01*
X65764047Y-50802438D02*
X65811666Y-50850057D01*
X65811666Y-50850057D02*
X65859285Y-50945295D01*
X65859285Y-50945295D02*
X65859285Y-51088152D01*
X65859285Y-51088152D02*
X65811666Y-51183390D01*
X65811666Y-51183390D02*
X65764047Y-51231009D01*
X65764047Y-51231009D02*
X65668809Y-51278628D01*
X65668809Y-51278628D02*
X65287857Y-51278628D01*
X66811666Y-51754819D02*
X66240238Y-51754819D01*
X66525952Y-51754819D02*
X66525952Y-50754819D01*
X66525952Y-50754819D02*
X66430714Y-50897676D01*
X66430714Y-50897676D02*
X66335476Y-50992914D01*
X66335476Y-50992914D02*
X66240238Y-51040533D01*
X88974819Y-65398094D02*
X87974819Y-65398094D01*
X87974819Y-65398094D02*
X87974819Y-65159999D01*
X87974819Y-65159999D02*
X88022438Y-65017142D01*
X88022438Y-65017142D02*
X88117676Y-64921904D01*
X88117676Y-64921904D02*
X88212914Y-64874285D01*
X88212914Y-64874285D02*
X88403390Y-64826666D01*
X88403390Y-64826666D02*
X88546247Y-64826666D01*
X88546247Y-64826666D02*
X88736723Y-64874285D01*
X88736723Y-64874285D02*
X88831961Y-64921904D01*
X88831961Y-64921904D02*
X88927200Y-65017142D01*
X88927200Y-65017142D02*
X88974819Y-65159999D01*
X88974819Y-65159999D02*
X88974819Y-65398094D01*
X88974819Y-63874285D02*
X88974819Y-64445713D01*
X88974819Y-64159999D02*
X87974819Y-64159999D01*
X87974819Y-64159999D02*
X88117676Y-64255237D01*
X88117676Y-64255237D02*
X88212914Y-64350475D01*
X88212914Y-64350475D02*
X88260533Y-64445713D01*
X77883333Y-51854819D02*
X77550000Y-51378628D01*
X77311905Y-51854819D02*
X77311905Y-50854819D01*
X77311905Y-50854819D02*
X77692857Y-50854819D01*
X77692857Y-50854819D02*
X77788095Y-50902438D01*
X77788095Y-50902438D02*
X77835714Y-50950057D01*
X77835714Y-50950057D02*
X77883333Y-51045295D01*
X77883333Y-51045295D02*
X77883333Y-51188152D01*
X77883333Y-51188152D02*
X77835714Y-51283390D01*
X77835714Y-51283390D02*
X77788095Y-51331009D01*
X77788095Y-51331009D02*
X77692857Y-51378628D01*
X77692857Y-51378628D02*
X77311905Y-51378628D01*
X78740476Y-51188152D02*
X78740476Y-51854819D01*
X78502381Y-50807200D02*
X78264286Y-51521485D01*
X78264286Y-51521485D02*
X78883333Y-51521485D01*
X80350952Y-51834819D02*
X79779524Y-51834819D01*
X80065238Y-51834819D02*
X80065238Y-50834819D01*
X80065238Y-50834819D02*
X79970000Y-50977676D01*
X79970000Y-50977676D02*
X79874762Y-51072914D01*
X79874762Y-51072914D02*
X79779524Y-51120533D01*
X80779524Y-51834819D02*
X80779524Y-50834819D01*
X80874762Y-51453866D02*
X81160476Y-51834819D01*
X81160476Y-51168152D02*
X80779524Y-51549104D01*
X74738095Y-60454819D02*
X74738095Y-61264342D01*
X74738095Y-61264342D02*
X74785714Y-61359580D01*
X74785714Y-61359580D02*
X74833333Y-61407200D01*
X74833333Y-61407200D02*
X74928571Y-61454819D01*
X74928571Y-61454819D02*
X75119047Y-61454819D01*
X75119047Y-61454819D02*
X75214285Y-61407200D01*
X75214285Y-61407200D02*
X75261904Y-61359580D01*
X75261904Y-61359580D02*
X75309523Y-61264342D01*
X75309523Y-61264342D02*
X75309523Y-60454819D01*
X76309523Y-61454819D02*
X75738095Y-61454819D01*
X76023809Y-61454819D02*
X76023809Y-60454819D01*
X76023809Y-60454819D02*
X75928571Y-60597676D01*
X75928571Y-60597676D02*
X75833333Y-60692914D01*
X75833333Y-60692914D02*
X75738095Y-60740533D01*
X73361905Y-61854819D02*
X73980952Y-61854819D01*
X73980952Y-61854819D02*
X73647619Y-62235771D01*
X73647619Y-62235771D02*
X73790476Y-62235771D01*
X73790476Y-62235771D02*
X73885714Y-62283390D01*
X73885714Y-62283390D02*
X73933333Y-62331009D01*
X73933333Y-62331009D02*
X73980952Y-62426247D01*
X73980952Y-62426247D02*
X73980952Y-62664342D01*
X73980952Y-62664342D02*
X73933333Y-62759580D01*
X73933333Y-62759580D02*
X73885714Y-62807200D01*
X73885714Y-62807200D02*
X73790476Y-62854819D01*
X73790476Y-62854819D02*
X73504762Y-62854819D01*
X73504762Y-62854819D02*
X73409524Y-62807200D01*
X73409524Y-62807200D02*
X73361905Y-62759580D01*
X74314286Y-61854819D02*
X74933333Y-61854819D01*
X74933333Y-61854819D02*
X74600000Y-62235771D01*
X74600000Y-62235771D02*
X74742857Y-62235771D01*
X74742857Y-62235771D02*
X74838095Y-62283390D01*
X74838095Y-62283390D02*
X74885714Y-62331009D01*
X74885714Y-62331009D02*
X74933333Y-62426247D01*
X74933333Y-62426247D02*
X74933333Y-62664342D01*
X74933333Y-62664342D02*
X74885714Y-62759580D01*
X74885714Y-62759580D02*
X74838095Y-62807200D01*
X74838095Y-62807200D02*
X74742857Y-62854819D01*
X74742857Y-62854819D02*
X74457143Y-62854819D01*
X74457143Y-62854819D02*
X74361905Y-62807200D01*
X74361905Y-62807200D02*
X74314286Y-62759580D01*
X75552381Y-61854819D02*
X75647619Y-61854819D01*
X75647619Y-61854819D02*
X75742857Y-61902438D01*
X75742857Y-61902438D02*
X75790476Y-61950057D01*
X75790476Y-61950057D02*
X75838095Y-62045295D01*
X75838095Y-62045295D02*
X75885714Y-62235771D01*
X75885714Y-62235771D02*
X75885714Y-62473866D01*
X75885714Y-62473866D02*
X75838095Y-62664342D01*
X75838095Y-62664342D02*
X75790476Y-62759580D01*
X75790476Y-62759580D02*
X75742857Y-62807200D01*
X75742857Y-62807200D02*
X75647619Y-62854819D01*
X75647619Y-62854819D02*
X75552381Y-62854819D01*
X75552381Y-62854819D02*
X75457143Y-62807200D01*
X75457143Y-62807200D02*
X75409524Y-62759580D01*
X75409524Y-62759580D02*
X75361905Y-62664342D01*
X75361905Y-62664342D02*
X75314286Y-62473866D01*
X75314286Y-62473866D02*
X75314286Y-62235771D01*
X75314286Y-62235771D02*
X75361905Y-62045295D01*
X75361905Y-62045295D02*
X75409524Y-61950057D01*
X75409524Y-61950057D02*
X75457143Y-61902438D01*
X75457143Y-61902438D02*
X75552381Y-61854819D01*
X76742857Y-61854819D02*
X76552381Y-61854819D01*
X76552381Y-61854819D02*
X76457143Y-61902438D01*
X76457143Y-61902438D02*
X76409524Y-61950057D01*
X76409524Y-61950057D02*
X76314286Y-62092914D01*
X76314286Y-62092914D02*
X76266667Y-62283390D01*
X76266667Y-62283390D02*
X76266667Y-62664342D01*
X76266667Y-62664342D02*
X76314286Y-62759580D01*
X76314286Y-62759580D02*
X76361905Y-62807200D01*
X76361905Y-62807200D02*
X76457143Y-62854819D01*
X76457143Y-62854819D02*
X76647619Y-62854819D01*
X76647619Y-62854819D02*
X76742857Y-62807200D01*
X76742857Y-62807200D02*
X76790476Y-62759580D01*
X76790476Y-62759580D02*
X76838095Y-62664342D01*
X76838095Y-62664342D02*
X76838095Y-62426247D01*
X76838095Y-62426247D02*
X76790476Y-62331009D01*
X76790476Y-62331009D02*
X76742857Y-62283390D01*
X76742857Y-62283390D02*
X76647619Y-62235771D01*
X76647619Y-62235771D02*
X76457143Y-62235771D01*
X76457143Y-62235771D02*
X76361905Y-62283390D01*
X76361905Y-62283390D02*
X76314286Y-62331009D01*
X76314286Y-62331009D02*
X76266667Y-62426247D01*
X77171429Y-61854819D02*
X77790476Y-61854819D01*
X77790476Y-61854819D02*
X77457143Y-62235771D01*
X77457143Y-62235771D02*
X77600000Y-62235771D01*
X77600000Y-62235771D02*
X77695238Y-62283390D01*
X77695238Y-62283390D02*
X77742857Y-62331009D01*
X77742857Y-62331009D02*
X77790476Y-62426247D01*
X77790476Y-62426247D02*
X77790476Y-62664342D01*
X77790476Y-62664342D02*
X77742857Y-62759580D01*
X77742857Y-62759580D02*
X77695238Y-62807200D01*
X77695238Y-62807200D02*
X77600000Y-62854819D01*
X77600000Y-62854819D02*
X77314286Y-62854819D01*
X77314286Y-62854819D02*
X77219048Y-62807200D01*
X77219048Y-62807200D02*
X77171429Y-62759580D01*
X83133333Y-55209580D02*
X83085714Y-55257200D01*
X83085714Y-55257200D02*
X82942857Y-55304819D01*
X82942857Y-55304819D02*
X82847619Y-55304819D01*
X82847619Y-55304819D02*
X82704762Y-55257200D01*
X82704762Y-55257200D02*
X82609524Y-55161961D01*
X82609524Y-55161961D02*
X82561905Y-55066723D01*
X82561905Y-55066723D02*
X82514286Y-54876247D01*
X82514286Y-54876247D02*
X82514286Y-54733390D01*
X82514286Y-54733390D02*
X82561905Y-54542914D01*
X82561905Y-54542914D02*
X82609524Y-54447676D01*
X82609524Y-54447676D02*
X82704762Y-54352438D01*
X82704762Y-54352438D02*
X82847619Y-54304819D01*
X82847619Y-54304819D02*
X82942857Y-54304819D01*
X82942857Y-54304819D02*
X83085714Y-54352438D01*
X83085714Y-54352438D02*
X83133333Y-54400057D01*
X83514286Y-54400057D02*
X83561905Y-54352438D01*
X83561905Y-54352438D02*
X83657143Y-54304819D01*
X83657143Y-54304819D02*
X83895238Y-54304819D01*
X83895238Y-54304819D02*
X83990476Y-54352438D01*
X83990476Y-54352438D02*
X84038095Y-54400057D01*
X84038095Y-54400057D02*
X84085714Y-54495295D01*
X84085714Y-54495295D02*
X84085714Y-54590533D01*
X84085714Y-54590533D02*
X84038095Y-54733390D01*
X84038095Y-54733390D02*
X83466667Y-55304819D01*
X83466667Y-55304819D02*
X84085714Y-55304819D01*
X81759761Y-58904819D02*
X81188333Y-58904819D01*
X81474047Y-58904819D02*
X81474047Y-57904819D01*
X81474047Y-57904819D02*
X81378809Y-58047676D01*
X81378809Y-58047676D02*
X81283571Y-58142914D01*
X81283571Y-58142914D02*
X81188333Y-58190533D01*
X82664523Y-57904819D02*
X82188333Y-57904819D01*
X82188333Y-57904819D02*
X82140714Y-58381009D01*
X82140714Y-58381009D02*
X82188333Y-58333390D01*
X82188333Y-58333390D02*
X82283571Y-58285771D01*
X82283571Y-58285771D02*
X82521666Y-58285771D01*
X82521666Y-58285771D02*
X82616904Y-58333390D01*
X82616904Y-58333390D02*
X82664523Y-58381009D01*
X82664523Y-58381009D02*
X82712142Y-58476247D01*
X82712142Y-58476247D02*
X82712142Y-58714342D01*
X82712142Y-58714342D02*
X82664523Y-58809580D01*
X82664523Y-58809580D02*
X82616904Y-58857200D01*
X82616904Y-58857200D02*
X82521666Y-58904819D01*
X82521666Y-58904819D02*
X82283571Y-58904819D01*
X82283571Y-58904819D02*
X82188333Y-58857200D01*
X82188333Y-58857200D02*
X82140714Y-58809580D01*
X83331190Y-57904819D02*
X83426428Y-57904819D01*
X83426428Y-57904819D02*
X83521666Y-57952438D01*
X83521666Y-57952438D02*
X83569285Y-58000057D01*
X83569285Y-58000057D02*
X83616904Y-58095295D01*
X83616904Y-58095295D02*
X83664523Y-58285771D01*
X83664523Y-58285771D02*
X83664523Y-58523866D01*
X83664523Y-58523866D02*
X83616904Y-58714342D01*
X83616904Y-58714342D02*
X83569285Y-58809580D01*
X83569285Y-58809580D02*
X83521666Y-58857200D01*
X83521666Y-58857200D02*
X83426428Y-58904819D01*
X83426428Y-58904819D02*
X83331190Y-58904819D01*
X83331190Y-58904819D02*
X83235952Y-58857200D01*
X83235952Y-58857200D02*
X83188333Y-58809580D01*
X83188333Y-58809580D02*
X83140714Y-58714342D01*
X83140714Y-58714342D02*
X83093095Y-58523866D01*
X83093095Y-58523866D02*
X83093095Y-58285771D01*
X83093095Y-58285771D02*
X83140714Y-58095295D01*
X83140714Y-58095295D02*
X83188333Y-58000057D01*
X83188333Y-58000057D02*
X83235952Y-57952438D01*
X83235952Y-57952438D02*
X83331190Y-57904819D01*
X84283571Y-57904819D02*
X84378809Y-57904819D01*
X84378809Y-57904819D02*
X84474047Y-57952438D01*
X84474047Y-57952438D02*
X84521666Y-58000057D01*
X84521666Y-58000057D02*
X84569285Y-58095295D01*
X84569285Y-58095295D02*
X84616904Y-58285771D01*
X84616904Y-58285771D02*
X84616904Y-58523866D01*
X84616904Y-58523866D02*
X84569285Y-58714342D01*
X84569285Y-58714342D02*
X84521666Y-58809580D01*
X84521666Y-58809580D02*
X84474047Y-58857200D01*
X84474047Y-58857200D02*
X84378809Y-58904819D01*
X84378809Y-58904819D02*
X84283571Y-58904819D01*
X84283571Y-58904819D02*
X84188333Y-58857200D01*
X84188333Y-58857200D02*
X84140714Y-58809580D01*
X84140714Y-58809580D02*
X84093095Y-58714342D01*
X84093095Y-58714342D02*
X84045476Y-58523866D01*
X84045476Y-58523866D02*
X84045476Y-58285771D01*
X84045476Y-58285771D02*
X84093095Y-58095295D01*
X84093095Y-58095295D02*
X84140714Y-58000057D01*
X84140714Y-58000057D02*
X84188333Y-57952438D01*
X84188333Y-57952438D02*
X84283571Y-57904819D01*
X85045476Y-58238152D02*
X85045476Y-59238152D01*
X85045476Y-58285771D02*
X85140714Y-58238152D01*
X85140714Y-58238152D02*
X85331190Y-58238152D01*
X85331190Y-58238152D02*
X85426428Y-58285771D01*
X85426428Y-58285771D02*
X85474047Y-58333390D01*
X85474047Y-58333390D02*
X85521666Y-58428628D01*
X85521666Y-58428628D02*
X85521666Y-58714342D01*
X85521666Y-58714342D02*
X85474047Y-58809580D01*
X85474047Y-58809580D02*
X85426428Y-58857200D01*
X85426428Y-58857200D02*
X85331190Y-58904819D01*
X85331190Y-58904819D02*
X85140714Y-58904819D01*
X85140714Y-58904819D02*
X85045476Y-58857200D01*
D14*
%TO.C,C1*%
X58040000Y-56110000D02*
X60222000Y-56110000D01*
X58040000Y-56070000D02*
X60218000Y-56070000D01*
X58040000Y-56030000D02*
X60215000Y-56030000D01*
X58040000Y-55990000D02*
X60211000Y-55990000D01*
X58040000Y-55950000D02*
X60206000Y-55950000D01*
X58040000Y-55910000D02*
X60201000Y-55910000D01*
X58040000Y-55870000D02*
X60195000Y-55870000D01*
X58040000Y-55830000D02*
X60189000Y-55830000D01*
X58040000Y-55790000D02*
X60182000Y-55790000D01*
X58040000Y-55750000D02*
X60175000Y-55750000D01*
X58040000Y-55710000D02*
X60167000Y-55710000D01*
X58040000Y-55670000D02*
X60159000Y-55670000D01*
X58040000Y-55629000D02*
X60150000Y-55629000D01*
X58040000Y-55589000D02*
X60141000Y-55589000D01*
X58040000Y-55549000D02*
X60131000Y-55549000D01*
X58040000Y-55509000D02*
X60121000Y-55509000D01*
X58040000Y-55469000D02*
X60110000Y-55469000D01*
X58040000Y-55429000D02*
X60098000Y-55429000D01*
X58040000Y-55389000D02*
X60086000Y-55389000D01*
X58040000Y-55349000D02*
X60074000Y-55349000D01*
X58040000Y-55309000D02*
X60061000Y-55309000D01*
X58040000Y-55269000D02*
X60047000Y-55269000D01*
X58040000Y-55229000D02*
X60033000Y-55229000D01*
X58040000Y-55189000D02*
X60018000Y-55189000D01*
X58040000Y-55149000D02*
X60002000Y-55149000D01*
X58040000Y-55109000D02*
X59986000Y-55109000D01*
X58040000Y-55069000D02*
X59970000Y-55069000D01*
X58040000Y-55029000D02*
X59952000Y-55029000D01*
X58040000Y-54989000D02*
X59934000Y-54989000D01*
X58040000Y-54949000D02*
X59916000Y-54949000D01*
X58040000Y-54909000D02*
X59896000Y-54909000D01*
X58040000Y-54869000D02*
X59876000Y-54869000D01*
X58040000Y-54829000D02*
X59856000Y-54829000D01*
X58040000Y-54789000D02*
X59834000Y-54789000D01*
X58040000Y-54749000D02*
X59812000Y-54749000D01*
X58040000Y-54709000D02*
X59790000Y-54709000D01*
X58040000Y-54669000D02*
X59766000Y-54669000D01*
X58040000Y-54629000D02*
X59742000Y-54629000D01*
X58040000Y-54589000D02*
X59716000Y-54589000D01*
X58040000Y-54549000D02*
X59690000Y-54549000D01*
X58040000Y-54509000D02*
X59664000Y-54509000D01*
X58040000Y-54469000D02*
X59636000Y-54469000D01*
X58040000Y-54429000D02*
X59607000Y-54429000D01*
X58040000Y-54389000D02*
X59578000Y-54389000D01*
X58040000Y-54349000D02*
X59548000Y-54349000D01*
X58040000Y-54309000D02*
X59516000Y-54309000D01*
X58040000Y-54269000D02*
X59484000Y-54269000D01*
X58040000Y-54229000D02*
X59450000Y-54229000D01*
X58040000Y-54189000D02*
X59416000Y-54189000D01*
X58040000Y-54149000D02*
X59380000Y-54149000D01*
X58040000Y-54109000D02*
X59343000Y-54109000D01*
X58040000Y-54069000D02*
X59305000Y-54069000D01*
X56598000Y-53109000D02*
X57402000Y-53109000D01*
X56367000Y-53149000D02*
X57633000Y-53149000D01*
X56198000Y-53189000D02*
X57802000Y-53189000D01*
X56060000Y-53229000D02*
X57940000Y-53229000D01*
X55941000Y-53269000D02*
X58059000Y-53269000D01*
X55835000Y-53309000D02*
X58165000Y-53309000D01*
X55738000Y-53349000D02*
X58262000Y-53349000D01*
X55650000Y-53389000D02*
X58350000Y-53389000D01*
X55568000Y-53429000D02*
X58432000Y-53429000D01*
X55491000Y-53469000D02*
X58509000Y-53469000D01*
X55419000Y-53509000D02*
X58581000Y-53509000D01*
X55350000Y-53549000D02*
X58650000Y-53549000D01*
X55286000Y-53589000D02*
X58714000Y-53589000D01*
X55224000Y-53629000D02*
X58776000Y-53629000D01*
X55166000Y-53669000D02*
X58834000Y-53669000D01*
X55161000Y-59850241D02*
X55161000Y-59220241D01*
X55110000Y-53709000D02*
X58890000Y-53709000D01*
X55056000Y-53749000D02*
X58944000Y-53749000D01*
X55005000Y-53789000D02*
X58995000Y-53789000D01*
X54956000Y-53829000D02*
X59044000Y-53829000D01*
X54908000Y-53869000D02*
X59092000Y-53869000D01*
X54863000Y-53909000D02*
X59137000Y-53909000D01*
X54846000Y-59535241D02*
X55476000Y-59535241D01*
X54818000Y-53949000D02*
X59182000Y-53949000D01*
X54776000Y-53989000D02*
X59224000Y-53989000D01*
X54735000Y-54029000D02*
X59265000Y-54029000D01*
X54695000Y-54069000D02*
X55960000Y-54069000D01*
X54657000Y-54109000D02*
X55960000Y-54109000D01*
X54620000Y-54149000D02*
X55960000Y-54149000D01*
X54584000Y-54189000D02*
X55960000Y-54189000D01*
X54550000Y-54229000D02*
X55960000Y-54229000D01*
X54516000Y-54269000D02*
X55960000Y-54269000D01*
X54484000Y-54309000D02*
X55960000Y-54309000D01*
X54452000Y-54349000D02*
X55960000Y-54349000D01*
X54422000Y-54389000D02*
X55960000Y-54389000D01*
X54393000Y-54429000D02*
X55960000Y-54429000D01*
X54364000Y-54469000D02*
X55960000Y-54469000D01*
X54336000Y-54509000D02*
X55960000Y-54509000D01*
X54310000Y-54549000D02*
X55960000Y-54549000D01*
X54284000Y-54589000D02*
X55960000Y-54589000D01*
X54258000Y-54629000D02*
X55960000Y-54629000D01*
X54234000Y-54669000D02*
X55960000Y-54669000D01*
X54210000Y-54709000D02*
X55960000Y-54709000D01*
X54188000Y-54749000D02*
X55960000Y-54749000D01*
X54166000Y-54789000D02*
X55960000Y-54789000D01*
X54144000Y-54829000D02*
X55960000Y-54829000D01*
X54124000Y-54869000D02*
X55960000Y-54869000D01*
X54104000Y-54909000D02*
X55960000Y-54909000D01*
X54084000Y-54949000D02*
X55960000Y-54949000D01*
X54066000Y-54989000D02*
X55960000Y-54989000D01*
X54048000Y-55029000D02*
X55960000Y-55029000D01*
X54030000Y-55069000D02*
X55960000Y-55069000D01*
X54014000Y-55109000D02*
X55960000Y-55109000D01*
X53998000Y-55149000D02*
X55960000Y-55149000D01*
X53982000Y-55189000D02*
X55960000Y-55189000D01*
X53967000Y-55229000D02*
X55960000Y-55229000D01*
X53953000Y-55269000D02*
X55960000Y-55269000D01*
X53939000Y-55309000D02*
X55960000Y-55309000D01*
X53926000Y-55349000D02*
X55960000Y-55349000D01*
X53914000Y-55389000D02*
X55960000Y-55389000D01*
X53902000Y-55429000D02*
X55960000Y-55429000D01*
X53890000Y-55469000D02*
X55960000Y-55469000D01*
X53879000Y-55509000D02*
X55960000Y-55509000D01*
X53869000Y-55549000D02*
X55960000Y-55549000D01*
X53859000Y-55589000D02*
X55960000Y-55589000D01*
X53850000Y-55629000D02*
X55960000Y-55629000D01*
X53841000Y-55670000D02*
X55960000Y-55670000D01*
X53833000Y-55710000D02*
X55960000Y-55710000D01*
X53825000Y-55750000D02*
X55960000Y-55750000D01*
X53818000Y-55790000D02*
X55960000Y-55790000D01*
X53811000Y-55830000D02*
X55960000Y-55830000D01*
X53805000Y-55870000D02*
X55960000Y-55870000D01*
X53799000Y-55910000D02*
X55960000Y-55910000D01*
X53794000Y-55950000D02*
X55960000Y-55950000D01*
X53789000Y-55990000D02*
X55960000Y-55990000D01*
X53785000Y-56030000D02*
X55960000Y-56030000D01*
X53782000Y-56070000D02*
X55960000Y-56070000D01*
X53778000Y-56110000D02*
X55960000Y-56110000D01*
X53776000Y-56150000D02*
X60224000Y-56150000D01*
X53773000Y-56190000D02*
X60227000Y-56190000D01*
X53772000Y-56230000D02*
X60228000Y-56230000D01*
X53770000Y-56350000D02*
X60230000Y-56350000D01*
X53770000Y-56310000D02*
X60230000Y-56310000D01*
X53770000Y-56270000D02*
X60230000Y-56270000D01*
X60270000Y-56350000D02*
G75*
G02*
X53730000Y-56350000I-3270000J0D01*
G01*
X53730000Y-56350000D02*
G75*
G02*
X60270000Y-56350000I3270000J0D01*
G01*
%TO.C,R2*%
X71485000Y-64877064D02*
X71485000Y-64422936D01*
X70015000Y-64877064D02*
X70015000Y-64422936D01*
D10*
%TO.C,RV1*%
X69145000Y-55300000D02*
X69145000Y-61300000D01*
X69145000Y-55300000D02*
X65645000Y-55300000D01*
X68145000Y-62300000D02*
X65645000Y-62300000D01*
X63145000Y-62300000D02*
X65645000Y-62300000D01*
X62145000Y-55300000D02*
X65645000Y-55300000D01*
X62145000Y-55300000D02*
X62145000Y-61300000D01*
X69145000Y-61300000D02*
G75*
G02*
X68145000Y-62300000I-999999J-1D01*
G01*
X63145000Y-62300000D02*
G75*
G02*
X62145000Y-61300000I0J1000000D01*
G01*
D14*
%TO.C,C3*%
X94491000Y-55948000D02*
X94491000Y-56752000D01*
X94451000Y-55717000D02*
X94451000Y-56983000D01*
X94411000Y-55548000D02*
X94411000Y-57152000D01*
X94371000Y-55410000D02*
X94371000Y-57290000D01*
X94331000Y-55291000D02*
X94331000Y-57409000D01*
X94291000Y-55185000D02*
X94291000Y-57515000D01*
X94251000Y-55088000D02*
X94251000Y-57612000D01*
X94211000Y-55000000D02*
X94211000Y-57700000D01*
X94171000Y-54918000D02*
X94171000Y-57782000D01*
X94131000Y-54841000D02*
X94131000Y-57859000D01*
X94091000Y-54769000D02*
X94091000Y-57931000D01*
X94051000Y-54700000D02*
X94051000Y-58000000D01*
X94011000Y-54636000D02*
X94011000Y-58064000D01*
X93971000Y-54574000D02*
X93971000Y-58126000D01*
X93931000Y-54516000D02*
X93931000Y-58184000D01*
X93891000Y-54460000D02*
X93891000Y-58240000D01*
X93851000Y-54406000D02*
X93851000Y-58294000D01*
X93811000Y-54355000D02*
X93811000Y-58345000D01*
X93771000Y-54306000D02*
X93771000Y-58394000D01*
X93731000Y-54258000D02*
X93731000Y-58442000D01*
X93691000Y-54213000D02*
X93691000Y-58487000D01*
X93651000Y-54168000D02*
X93651000Y-58532000D01*
X93611000Y-54126000D02*
X93611000Y-58574000D01*
X93571000Y-54085000D02*
X93571000Y-58615000D01*
X93531000Y-57390000D02*
X93531000Y-58655000D01*
X93531000Y-54045000D02*
X93531000Y-55310000D01*
X93491000Y-57390000D02*
X93491000Y-58693000D01*
X93491000Y-54007000D02*
X93491000Y-55310000D01*
X93451000Y-57390000D02*
X93451000Y-58730000D01*
X93451000Y-53970000D02*
X93451000Y-55310000D01*
X93411000Y-57390000D02*
X93411000Y-58766000D01*
X93411000Y-53934000D02*
X93411000Y-55310000D01*
X93371000Y-57390000D02*
X93371000Y-58800000D01*
X93371000Y-53900000D02*
X93371000Y-55310000D01*
X93331000Y-57390000D02*
X93331000Y-58834000D01*
X93331000Y-53866000D02*
X93331000Y-55310000D01*
X93291000Y-57390000D02*
X93291000Y-58866000D01*
X93291000Y-53834000D02*
X93291000Y-55310000D01*
X93251000Y-57390000D02*
X93251000Y-58898000D01*
X93251000Y-53802000D02*
X93251000Y-55310000D01*
X93211000Y-57390000D02*
X93211000Y-58928000D01*
X93211000Y-53772000D02*
X93211000Y-55310000D01*
X93171000Y-57390000D02*
X93171000Y-58957000D01*
X93171000Y-53743000D02*
X93171000Y-55310000D01*
X93131000Y-57390000D02*
X93131000Y-58986000D01*
X93131000Y-53714000D02*
X93131000Y-55310000D01*
X93091000Y-57390000D02*
X93091000Y-59014000D01*
X93091000Y-53686000D02*
X93091000Y-55310000D01*
X93051000Y-57390000D02*
X93051000Y-59040000D01*
X93051000Y-53660000D02*
X93051000Y-55310000D01*
X93011000Y-57390000D02*
X93011000Y-59066000D01*
X93011000Y-53634000D02*
X93011000Y-55310000D01*
X92971000Y-57390000D02*
X92971000Y-59092000D01*
X92971000Y-53608000D02*
X92971000Y-55310000D01*
X92931000Y-57390000D02*
X92931000Y-59116000D01*
X92931000Y-53584000D02*
X92931000Y-55310000D01*
X92891000Y-57390000D02*
X92891000Y-59140000D01*
X92891000Y-53560000D02*
X92891000Y-55310000D01*
X92851000Y-57390000D02*
X92851000Y-59162000D01*
X92851000Y-53538000D02*
X92851000Y-55310000D01*
X92811000Y-57390000D02*
X92811000Y-59184000D01*
X92811000Y-53516000D02*
X92811000Y-55310000D01*
X92771000Y-57390000D02*
X92771000Y-59206000D01*
X92771000Y-53494000D02*
X92771000Y-55310000D01*
X92731000Y-57390000D02*
X92731000Y-59226000D01*
X92731000Y-53474000D02*
X92731000Y-55310000D01*
X92691000Y-57390000D02*
X92691000Y-59246000D01*
X92691000Y-53454000D02*
X92691000Y-55310000D01*
X92651000Y-57390000D02*
X92651000Y-59266000D01*
X92651000Y-53434000D02*
X92651000Y-55310000D01*
X92611000Y-57390000D02*
X92611000Y-59284000D01*
X92611000Y-53416000D02*
X92611000Y-55310000D01*
X92571000Y-57390000D02*
X92571000Y-59302000D01*
X92571000Y-53398000D02*
X92571000Y-55310000D01*
X92531000Y-57390000D02*
X92531000Y-59320000D01*
X92531000Y-53380000D02*
X92531000Y-55310000D01*
X92491000Y-57390000D02*
X92491000Y-59336000D01*
X92491000Y-53364000D02*
X92491000Y-55310000D01*
X92451000Y-57390000D02*
X92451000Y-59352000D01*
X92451000Y-53348000D02*
X92451000Y-55310000D01*
X92411000Y-57390000D02*
X92411000Y-59368000D01*
X92411000Y-53332000D02*
X92411000Y-55310000D01*
X92371000Y-57390000D02*
X92371000Y-59383000D01*
X92371000Y-53317000D02*
X92371000Y-55310000D01*
X92331000Y-57390000D02*
X92331000Y-59397000D01*
X92331000Y-53303000D02*
X92331000Y-55310000D01*
X92291000Y-57390000D02*
X92291000Y-59411000D01*
X92291000Y-53289000D02*
X92291000Y-55310000D01*
X92251000Y-57390000D02*
X92251000Y-59424000D01*
X92251000Y-53276000D02*
X92251000Y-55310000D01*
X92211000Y-57390000D02*
X92211000Y-59436000D01*
X92211000Y-53264000D02*
X92211000Y-55310000D01*
X92171000Y-57390000D02*
X92171000Y-59448000D01*
X92171000Y-53252000D02*
X92171000Y-55310000D01*
X92131000Y-57390000D02*
X92131000Y-59460000D01*
X92131000Y-53240000D02*
X92131000Y-55310000D01*
X92091000Y-57390000D02*
X92091000Y-59471000D01*
X92091000Y-53229000D02*
X92091000Y-55310000D01*
X92051000Y-57390000D02*
X92051000Y-59481000D01*
X92051000Y-53219000D02*
X92051000Y-55310000D01*
X92011000Y-57390000D02*
X92011000Y-59491000D01*
X92011000Y-53209000D02*
X92011000Y-55310000D01*
X91971000Y-57390000D02*
X91971000Y-59500000D01*
X91971000Y-53200000D02*
X91971000Y-55310000D01*
X91930000Y-57390000D02*
X91930000Y-59509000D01*
X91930000Y-53191000D02*
X91930000Y-55310000D01*
X91890000Y-57390000D02*
X91890000Y-59517000D01*
X91890000Y-53183000D02*
X91890000Y-55310000D01*
X91850000Y-57390000D02*
X91850000Y-59525000D01*
X91850000Y-53175000D02*
X91850000Y-55310000D01*
X91810000Y-57390000D02*
X91810000Y-59532000D01*
X91810000Y-53168000D02*
X91810000Y-55310000D01*
X91770000Y-57390000D02*
X91770000Y-59539000D01*
X91770000Y-53161000D02*
X91770000Y-55310000D01*
X91730000Y-57390000D02*
X91730000Y-59545000D01*
X91730000Y-53155000D02*
X91730000Y-55310000D01*
X91690000Y-57390000D02*
X91690000Y-59551000D01*
X91690000Y-53149000D02*
X91690000Y-55310000D01*
X91650000Y-57390000D02*
X91650000Y-59556000D01*
X91650000Y-53144000D02*
X91650000Y-55310000D01*
X91610000Y-57390000D02*
X91610000Y-59561000D01*
X91610000Y-53139000D02*
X91610000Y-55310000D01*
X91570000Y-57390000D02*
X91570000Y-59565000D01*
X91570000Y-53135000D02*
X91570000Y-55310000D01*
X91530000Y-57390000D02*
X91530000Y-59568000D01*
X91530000Y-53132000D02*
X91530000Y-55310000D01*
X91490000Y-57390000D02*
X91490000Y-59572000D01*
X91490000Y-53128000D02*
X91490000Y-55310000D01*
X91450000Y-53126000D02*
X91450000Y-59574000D01*
X91410000Y-53123000D02*
X91410000Y-59577000D01*
X91370000Y-53122000D02*
X91370000Y-59578000D01*
X91330000Y-53120000D02*
X91330000Y-59580000D01*
X91290000Y-53120000D02*
X91290000Y-59580000D01*
X91250000Y-53120000D02*
X91250000Y-59580000D01*
X88064759Y-54196000D02*
X88064759Y-54826000D01*
X87749759Y-54511000D02*
X88379759Y-54511000D01*
X94520000Y-56350000D02*
G75*
G02*
X87980000Y-56350000I-3270000J0D01*
G01*
X87980000Y-56350000D02*
G75*
G02*
X94520000Y-56350000I3270000J0D01*
G01*
%TO.C,R3*%
X73967936Y-53835000D02*
X74422064Y-53835000D01*
X73967936Y-52365000D02*
X74422064Y-52365000D01*
%TO.C,JP1*%
X67045000Y-52800000D02*
X67045000Y-53400000D01*
X66345000Y-54100000D02*
X64945000Y-54100000D01*
X64945000Y-52100000D02*
X66345000Y-52100000D01*
X64245000Y-53400000D02*
X64245000Y-52800000D01*
X67045000Y-53400000D02*
G75*
G02*
X66345000Y-54100000I-700000J0D01*
G01*
X66345000Y-52100000D02*
G75*
G02*
X67045000Y-52800000I0J-700000D01*
G01*
X64945000Y-54100000D02*
G75*
G02*
X64245000Y-53400000I-1J699999D01*
G01*
X64245000Y-52800000D02*
G75*
G02*
X64945000Y-52100000I699999J1D01*
G01*
%TO.C,D1*%
X87670000Y-60150000D02*
X87670000Y-67160000D01*
X87670000Y-60150000D02*
X84370000Y-60150000D01*
D10*
X86820000Y-65160000D02*
X86020000Y-64010000D01*
X86020000Y-65160000D02*
X86820000Y-65160000D01*
X86020000Y-65160000D02*
X86020000Y-65400000D01*
X86020000Y-64010000D02*
X86020000Y-63920000D01*
X86020000Y-64010000D02*
X85270000Y-65160000D01*
X85270000Y-65160000D02*
X86020000Y-65160000D01*
X85220000Y-64010000D02*
X86820000Y-64010000D01*
D14*
X84370000Y-60150000D02*
X84370000Y-67160000D01*
%TO.C,R4*%
X78967936Y-53835000D02*
X79422064Y-53835000D01*
X78967936Y-52365000D02*
X79422064Y-52365000D01*
%TO.C,U1*%
X75470000Y-59905000D02*
X77420000Y-59905000D01*
X75470000Y-59905000D02*
X73520000Y-59905000D01*
X75470000Y-54785000D02*
X77420000Y-54785000D01*
X75470000Y-54785000D02*
X73520000Y-54785000D01*
X78410000Y-60140000D02*
X77930000Y-60140000D01*
X78170000Y-59810000D01*
X78410000Y-60140000D01*
G36*
X78410000Y-60140000D02*
G01*
X77930000Y-60140000D01*
X78170000Y-59810000D01*
X78410000Y-60140000D01*
G37*
%TO.C,C2*%
X83083748Y-57435000D02*
X83606252Y-57435000D01*
X83083748Y-55965000D02*
X83606252Y-55965000D01*
%TD*%
M02*
