%TF.GenerationSoftware,KiCad,Pcbnew,8.0.4*%
%TF.CreationDate,2025-01-19T17:40:16+00:00*%
%TF.ProjectId,33063_boost,33333036-335f-4626-9f6f-73742e6b6963,rev?*%
%TF.SameCoordinates,Original*%
%TF.FileFunction,Copper,L2,Bot*%
%TF.FilePolarity,Positive*%
%FSLAX46Y46*%
G04 Gerber Fmt 4.6, Leading zero omitted, Abs format (unit mm)*
G04 Created by KiCad (PCBNEW 8.0.4) date 2025-01-19 17:40:16*
%MOMM*%
%LPD*%
G01*
G04 APERTURE LIST*
G04 Aperture macros list*
%AMRoundRect*
0 Rectangle with rounded corners*
0 $1 Rounding radius*
0 $2 $3 $4 $5 $6 $7 $8 $9 X,Y pos of 4 corners*
0 Add a 4 corners polygon primitive as box body*
4,1,4,$2,$3,$4,$5,$6,$7,$8,$9,$2,$3,0*
0 Add four circle primitives for the rounded corners*
1,1,$1+$1,$2,$3*
1,1,$1+$1,$4,$5*
1,1,$1+$1,$6,$7*
1,1,$1+$1,$8,$9*
0 Add four rect primitives between the rounded corners*
20,1,$1+$1,$2,$3,$4,$5,0*
20,1,$1+$1,$4,$5,$6,$7,0*
20,1,$1+$1,$6,$7,$8,$9,0*
20,1,$1+$1,$8,$9,$2,$3,0*%
G04 Aperture macros list end*
%TA.AperFunction,ComponentPad*%
%ADD10R,1.600000X1.600000*%
%TD*%
%TA.AperFunction,ComponentPad*%
%ADD11C,1.600000*%
%TD*%
%TA.AperFunction,ComponentPad*%
%ADD12C,1.440000*%
%TD*%
%TA.AperFunction,ComponentPad*%
%ADD13RoundRect,0.250000X-0.500000X-1.750000X0.500000X-1.750000X0.500000X1.750000X-0.500000X1.750000X0*%
%TD*%
%TA.AperFunction,ViaPad*%
%ADD14C,0.600000*%
%TD*%
%TA.AperFunction,Conductor*%
%ADD15C,2.000000*%
%TD*%
%TA.AperFunction,Conductor*%
%ADD16C,0.800000*%
%TD*%
G04 APERTURE END LIST*
D10*
%TO.P,C1,1*%
%TO.N,/Vin*%
X56000000Y-56350000D03*
D11*
%TO.P,C1,2*%
%TO.N,GND1*%
X53500000Y-56350000D03*
%TD*%
D12*
%TO.P,RV1,1,1*%
%TO.N,Net-(JP1-B)*%
X78500000Y-53500000D03*
%TO.P,RV1,2,2*%
X81040000Y-53500000D03*
%TO.P,RV1,3,3*%
%TO.N,/Vout*%
X83580000Y-53500000D03*
%TD*%
D10*
%TO.P,C3,1*%
%TO.N,/Vout*%
X89000000Y-56350000D03*
D11*
%TO.P,C3,2*%
%TO.N,GND1*%
X91500000Y-56350000D03*
%TD*%
D13*
%TO.P,J2,1,Pin_1*%
%TO.N,/Vout*%
X90280000Y-68000000D03*
%TO.P,J2,2,Pin_2*%
%TO.N,GND1*%
X92820000Y-68000000D03*
%TD*%
%TO.P,J1,1,Pin_1*%
%TO.N,GND1*%
X52180000Y-68000000D03*
%TO.P,J1,2,Pin_2*%
%TO.N,/Vin*%
X54720000Y-68000000D03*
%TD*%
D14*
%TO.N,GND1*%
X65220000Y-55200000D03*
X82080000Y-58630000D03*
%TD*%
D15*
%TO.N,GND1*%
X87180000Y-58640000D02*
X92820000Y-64280000D01*
D16*
X65220000Y-55200000D02*
X65220000Y-58550000D01*
D15*
X92820000Y-64280000D02*
X92820000Y-68000000D01*
D16*
X65220000Y-58550000D02*
X65310000Y-58640000D01*
D15*
X56960000Y-58640000D02*
X65310000Y-58640000D01*
X65310000Y-58640000D02*
X87180000Y-58640000D01*
X52180000Y-68000000D02*
X52180000Y-63420000D01*
X52180000Y-63420000D02*
X56960000Y-58640000D01*
%TD*%
%TA.AperFunction,Conductor*%
%TO.N,GND1*%
G36*
X94442539Y-50520185D02*
G01*
X94488294Y-50572989D01*
X94499500Y-50624500D01*
X94499500Y-69375500D01*
X94479815Y-69442539D01*
X94427011Y-69488294D01*
X94375500Y-69499500D01*
X94017309Y-69499500D01*
X93950270Y-69479815D01*
X93929628Y-69463181D01*
X92866447Y-68400000D01*
X92872661Y-68400000D01*
X92974394Y-68372741D01*
X93065606Y-68320080D01*
X93140080Y-68245606D01*
X93192741Y-68154394D01*
X93220000Y-68052661D01*
X93220000Y-68046448D01*
X94069998Y-68896446D01*
X94069999Y-68896445D01*
X94069999Y-67103553D01*
X94069998Y-67103552D01*
X93220000Y-67953551D01*
X93220000Y-67947339D01*
X93192741Y-67845606D01*
X93140080Y-67754394D01*
X93065606Y-67679920D01*
X92974394Y-67627259D01*
X92872661Y-67600000D01*
X92866447Y-67600000D01*
X94069998Y-66396447D01*
X94069999Y-66396446D01*
X94069999Y-66200028D01*
X94069998Y-66200013D01*
X94059505Y-66097302D01*
X94004358Y-65930880D01*
X94004356Y-65930875D01*
X93912315Y-65781654D01*
X93788345Y-65657684D01*
X93639124Y-65565643D01*
X93639119Y-65565641D01*
X93472697Y-65510494D01*
X93472690Y-65510493D01*
X93369980Y-65500000D01*
X92270028Y-65500000D01*
X92270012Y-65500001D01*
X92167302Y-65510494D01*
X92000880Y-65565641D01*
X92000875Y-65565643D01*
X91851654Y-65657684D01*
X91727683Y-65781655D01*
X91727680Y-65781659D01*
X91655831Y-65898144D01*
X91603883Y-65944869D01*
X91534920Y-65956090D01*
X91470838Y-65928247D01*
X91444754Y-65898144D01*
X91372906Y-65781659D01*
X91372712Y-65781344D01*
X91248656Y-65657288D01*
X91099334Y-65565186D01*
X90932797Y-65510001D01*
X90932795Y-65510000D01*
X90830010Y-65499500D01*
X89729998Y-65499500D01*
X89729980Y-65499501D01*
X89627203Y-65510000D01*
X89627200Y-65510001D01*
X89460668Y-65565185D01*
X89460663Y-65565187D01*
X89311342Y-65657289D01*
X89187289Y-65781342D01*
X89095187Y-65930663D01*
X89095185Y-65930668D01*
X89086761Y-65956090D01*
X89040001Y-66097203D01*
X89040001Y-66097204D01*
X89040000Y-66097204D01*
X89029500Y-66199983D01*
X89029500Y-66199991D01*
X89029500Y-67845606D01*
X89029501Y-69375500D01*
X89009816Y-69442539D01*
X88957012Y-69488294D01*
X88905501Y-69499500D01*
X56094500Y-69499500D01*
X56027461Y-69479815D01*
X55981706Y-69427011D01*
X55970500Y-69375500D01*
X55970499Y-66199998D01*
X55970498Y-66199981D01*
X55959999Y-66097203D01*
X55959998Y-66097200D01*
X55904814Y-65930666D01*
X55812712Y-65781344D01*
X55688656Y-65657288D01*
X55539334Y-65565186D01*
X55372797Y-65510001D01*
X55372795Y-65510000D01*
X55270010Y-65499500D01*
X54169998Y-65499500D01*
X54169980Y-65499501D01*
X54067203Y-65510000D01*
X54067200Y-65510001D01*
X53900668Y-65565185D01*
X53900663Y-65565187D01*
X53751342Y-65657289D01*
X53627288Y-65781343D01*
X53627285Y-65781347D01*
X53555244Y-65898144D01*
X53503296Y-65944869D01*
X53434334Y-65956090D01*
X53370252Y-65928247D01*
X53344167Y-65898144D01*
X53272315Y-65781654D01*
X53148345Y-65657684D01*
X52999124Y-65565643D01*
X52999119Y-65565641D01*
X52832697Y-65510494D01*
X52832690Y-65510493D01*
X52729980Y-65500000D01*
X51630028Y-65500000D01*
X51630012Y-65500001D01*
X51527302Y-65510494D01*
X51360880Y-65565641D01*
X51360875Y-65565643D01*
X51211654Y-65657684D01*
X51087684Y-65781654D01*
X50995643Y-65930875D01*
X50995641Y-65930880D01*
X50940494Y-66097302D01*
X50940493Y-66097309D01*
X50930000Y-66200013D01*
X50930000Y-66396447D01*
X52133553Y-67600000D01*
X52127339Y-67600000D01*
X52025606Y-67627259D01*
X51934394Y-67679920D01*
X51859920Y-67754394D01*
X51807259Y-67845606D01*
X51780000Y-67947339D01*
X51780000Y-67953552D01*
X50930000Y-67103552D01*
X50930000Y-68896446D01*
X51780000Y-68046446D01*
X51780000Y-68052661D01*
X51807259Y-68154394D01*
X51859920Y-68245606D01*
X51934394Y-68320080D01*
X52025606Y-68372741D01*
X52127339Y-68400000D01*
X52133553Y-68400000D01*
X51070372Y-69463181D01*
X51009049Y-69496666D01*
X50982691Y-69499500D01*
X50624500Y-69499500D01*
X50557461Y-69479815D01*
X50511706Y-69427011D01*
X50500500Y-69375500D01*
X50500500Y-56349997D01*
X52195034Y-56349997D01*
X52195034Y-56350002D01*
X52214858Y-56576599D01*
X52214860Y-56576610D01*
X52273730Y-56796317D01*
X52273735Y-56796331D01*
X52369863Y-57002478D01*
X52420974Y-57075472D01*
X53100000Y-56396446D01*
X53100000Y-56402661D01*
X53127259Y-56504394D01*
X53179920Y-56595606D01*
X53254394Y-56670080D01*
X53345606Y-56722741D01*
X53447339Y-56750000D01*
X53453553Y-56750000D01*
X52774526Y-57429025D01*
X52847513Y-57480132D01*
X52847521Y-57480136D01*
X53053668Y-57576264D01*
X53053682Y-57576269D01*
X53273389Y-57635139D01*
X53273400Y-57635141D01*
X53499998Y-57654966D01*
X53500002Y-57654966D01*
X53726599Y-57635141D01*
X53726610Y-57635139D01*
X53946317Y-57576269D01*
X53946331Y-57576264D01*
X54152478Y-57480136D01*
X54225471Y-57429024D01*
X53546447Y-56750000D01*
X53552661Y-56750000D01*
X53654394Y-56722741D01*
X53745606Y-56670080D01*
X53820080Y-56595606D01*
X53872741Y-56504394D01*
X53900000Y-56402661D01*
X53900000Y-56396447D01*
X54584197Y-57080644D01*
X54633192Y-57090491D01*
X54683375Y-57139106D01*
X54698049Y-57194632D01*
X54699099Y-57194576D01*
X54699146Y-57194571D01*
X54699146Y-57194573D01*
X54699324Y-57194564D01*
X54699501Y-57197876D01*
X54705908Y-57257483D01*
X54756202Y-57392328D01*
X54756206Y-57392335D01*
X54842452Y-57507544D01*
X54842455Y-57507547D01*
X54957664Y-57593793D01*
X54957671Y-57593797D01*
X55092517Y-57644091D01*
X55092516Y-57644091D01*
X55099444Y-57644835D01*
X55152127Y-57650500D01*
X56847872Y-57650499D01*
X56907483Y-57644091D01*
X57042331Y-57593796D01*
X57157546Y-57507546D01*
X57243796Y-57392331D01*
X57294091Y-57257483D01*
X57300500Y-57197873D01*
X57300499Y-55502135D01*
X87699500Y-55502135D01*
X87699500Y-57197870D01*
X87699501Y-57197876D01*
X87705908Y-57257483D01*
X87756202Y-57392328D01*
X87756206Y-57392335D01*
X87842452Y-57507544D01*
X87842455Y-57507547D01*
X87957664Y-57593793D01*
X87957671Y-57593797D01*
X88092517Y-57644091D01*
X88092516Y-57644091D01*
X88099444Y-57644835D01*
X88152127Y-57650500D01*
X89847872Y-57650499D01*
X89907483Y-57644091D01*
X90042331Y-57593796D01*
X90157546Y-57507546D01*
X90243796Y-57392331D01*
X90294091Y-57257483D01*
X90300500Y-57197873D01*
X90300499Y-57197845D01*
X90300678Y-57194547D01*
X90302183Y-57194627D01*
X90320112Y-57133326D01*
X90372868Y-57087514D01*
X90416465Y-57079981D01*
X91100000Y-56396446D01*
X91100000Y-56402661D01*
X91127259Y-56504394D01*
X91179920Y-56595606D01*
X91254394Y-56670080D01*
X91345606Y-56722741D01*
X91447339Y-56750000D01*
X91453553Y-56750000D01*
X90774526Y-57429025D01*
X90847513Y-57480132D01*
X90847521Y-57480136D01*
X91053668Y-57576264D01*
X91053682Y-57576269D01*
X91273389Y-57635139D01*
X91273400Y-57635141D01*
X91499998Y-57654966D01*
X91500002Y-57654966D01*
X91726599Y-57635141D01*
X91726610Y-57635139D01*
X91946317Y-57576269D01*
X91946331Y-57576264D01*
X92152478Y-57480136D01*
X92225471Y-57429024D01*
X91546447Y-56750000D01*
X91552661Y-56750000D01*
X91654394Y-56722741D01*
X91745606Y-56670080D01*
X91820080Y-56595606D01*
X91872741Y-56504394D01*
X91900000Y-56402661D01*
X91900000Y-56396447D01*
X92579024Y-57075471D01*
X92630136Y-57002478D01*
X92726264Y-56796331D01*
X92726269Y-56796317D01*
X92785139Y-56576610D01*
X92785141Y-56576599D01*
X92804966Y-56350002D01*
X92804966Y-56349997D01*
X92785141Y-56123400D01*
X92785139Y-56123389D01*
X92726269Y-55903682D01*
X92726264Y-55903668D01*
X92630136Y-55697521D01*
X92630132Y-55697513D01*
X92579025Y-55624526D01*
X91900000Y-56303551D01*
X91900000Y-56297339D01*
X91872741Y-56195606D01*
X91820080Y-56104394D01*
X91745606Y-56029920D01*
X91654394Y-55977259D01*
X91552661Y-55950000D01*
X91546448Y-55950000D01*
X92225472Y-55270974D01*
X92152478Y-55219863D01*
X91946331Y-55123735D01*
X91946317Y-55123730D01*
X91726610Y-55064860D01*
X91726599Y-55064858D01*
X91500002Y-55045034D01*
X91499998Y-55045034D01*
X91273400Y-55064858D01*
X91273389Y-55064860D01*
X91053682Y-55123730D01*
X91053673Y-55123734D01*
X90847516Y-55219866D01*
X90847512Y-55219868D01*
X90774526Y-55270973D01*
X90774526Y-55270974D01*
X91453553Y-55950000D01*
X91447339Y-55950000D01*
X91345606Y-55977259D01*
X91254394Y-56029920D01*
X91179920Y-56104394D01*
X91127259Y-56195606D01*
X91100000Y-56297339D01*
X91100000Y-56303552D01*
X90415799Y-55619351D01*
X90366805Y-55609505D01*
X90316622Y-55560889D01*
X90301981Y-55505366D01*
X90300900Y-55505423D01*
X90300854Y-55505429D01*
X90300853Y-55505426D01*
X90300676Y-55505436D01*
X90300499Y-55502135D01*
X90300499Y-55502128D01*
X90294091Y-55442517D01*
X90243796Y-55307669D01*
X90243795Y-55307668D01*
X90243793Y-55307664D01*
X90157547Y-55192455D01*
X90157544Y-55192452D01*
X90042335Y-55106206D01*
X90042328Y-55106202D01*
X89907482Y-55055908D01*
X89907483Y-55055908D01*
X89847883Y-55049501D01*
X89847881Y-55049500D01*
X89847873Y-55049500D01*
X89847864Y-55049500D01*
X88152129Y-55049500D01*
X88152123Y-55049501D01*
X88092516Y-55055908D01*
X87957671Y-55106202D01*
X87957664Y-55106206D01*
X87842455Y-55192452D01*
X87842452Y-55192455D01*
X87756206Y-55307664D01*
X87756202Y-55307671D01*
X87705908Y-55442517D01*
X87699501Y-55502116D01*
X87699501Y-55502123D01*
X87699500Y-55502135D01*
X57300499Y-55502135D01*
X57300499Y-55502128D01*
X57294091Y-55442517D01*
X57243796Y-55307669D01*
X57243795Y-55307668D01*
X57243793Y-55307664D01*
X57157547Y-55192455D01*
X57157544Y-55192452D01*
X57042335Y-55106206D01*
X57042328Y-55106202D01*
X56907482Y-55055908D01*
X56907483Y-55055908D01*
X56847883Y-55049501D01*
X56847881Y-55049500D01*
X56847873Y-55049500D01*
X56847864Y-55049500D01*
X55152129Y-55049500D01*
X55152123Y-55049501D01*
X55092516Y-55055908D01*
X54957671Y-55106202D01*
X54957664Y-55106206D01*
X54842455Y-55192452D01*
X54842452Y-55192455D01*
X54756206Y-55307664D01*
X54756202Y-55307671D01*
X54705908Y-55442517D01*
X54699501Y-55502116D01*
X54699501Y-55502123D01*
X54699322Y-55505452D01*
X54697847Y-55505372D01*
X54679815Y-55566784D01*
X54627011Y-55612539D01*
X54583522Y-55620029D01*
X53900000Y-56303551D01*
X53900000Y-56297339D01*
X53872741Y-56195606D01*
X53820080Y-56104394D01*
X53745606Y-56029920D01*
X53654394Y-55977259D01*
X53552661Y-55950000D01*
X53546448Y-55950000D01*
X54225472Y-55270974D01*
X54152478Y-55219863D01*
X53946331Y-55123735D01*
X53946317Y-55123730D01*
X53726610Y-55064860D01*
X53726599Y-55064858D01*
X53500002Y-55045034D01*
X53499998Y-55045034D01*
X53273400Y-55064858D01*
X53273389Y-55064860D01*
X53053682Y-55123730D01*
X53053673Y-55123734D01*
X52847516Y-55219866D01*
X52847512Y-55219868D01*
X52774526Y-55270973D01*
X52774526Y-55270974D01*
X53453553Y-55950000D01*
X53447339Y-55950000D01*
X53345606Y-55977259D01*
X53254394Y-56029920D01*
X53179920Y-56104394D01*
X53127259Y-56195606D01*
X53100000Y-56297339D01*
X53100000Y-56303552D01*
X52420974Y-55624526D01*
X52420973Y-55624526D01*
X52369868Y-55697512D01*
X52369866Y-55697516D01*
X52273734Y-55903673D01*
X52273730Y-55903682D01*
X52214860Y-56123389D01*
X52214858Y-56123400D01*
X52195034Y-56349997D01*
X50500500Y-56349997D01*
X50500500Y-53499998D01*
X77274838Y-53499998D01*
X77274838Y-53500001D01*
X77293450Y-53712741D01*
X77293452Y-53712752D01*
X77348721Y-53919022D01*
X77348723Y-53919026D01*
X77348724Y-53919030D01*
X77391171Y-54010058D01*
X77438977Y-54112578D01*
X77561472Y-54287521D01*
X77712478Y-54438527D01*
X77712481Y-54438529D01*
X77887419Y-54561021D01*
X77887421Y-54561022D01*
X77887420Y-54561022D01*
X77951936Y-54591106D01*
X78080970Y-54651276D01*
X78287253Y-54706549D01*
X78439215Y-54719844D01*
X78499998Y-54725162D01*
X78500000Y-54725162D01*
X78500002Y-54725162D01*
X78553186Y-54720508D01*
X78712747Y-54706549D01*
X78919030Y-54651276D01*
X79112581Y-54561021D01*
X79287519Y-54438529D01*
X79438529Y-54287519D01*
X79561021Y-54112581D01*
X79651276Y-53919030D01*
X79651280Y-53919013D01*
X79653130Y-53913936D01*
X79655253Y-53914709D01*
X79686576Y-53863305D01*
X79749419Y-53832766D01*
X79818796Y-53841050D01*
X79872680Y-53885528D01*
X79885827Y-53914315D01*
X79886870Y-53913936D01*
X79888722Y-53919022D01*
X79888724Y-53919030D01*
X79931171Y-54010058D01*
X79978977Y-54112578D01*
X80101472Y-54287521D01*
X80252478Y-54438527D01*
X80252481Y-54438529D01*
X80427419Y-54561021D01*
X80427421Y-54561022D01*
X80427420Y-54561022D01*
X80491936Y-54591106D01*
X80620970Y-54651276D01*
X80827253Y-54706549D01*
X80979215Y-54719844D01*
X81039998Y-54725162D01*
X81040000Y-54725162D01*
X81040002Y-54725162D01*
X81093186Y-54720508D01*
X81252747Y-54706549D01*
X81459030Y-54651276D01*
X81652581Y-54561021D01*
X81827519Y-54438529D01*
X81978529Y-54287519D01*
X82101021Y-54112581D01*
X82191276Y-53919030D01*
X82191280Y-53919013D01*
X82193130Y-53913936D01*
X82195253Y-53914709D01*
X82226576Y-53863305D01*
X82289419Y-53832766D01*
X82358796Y-53841050D01*
X82412680Y-53885528D01*
X82425827Y-53914315D01*
X82426870Y-53913936D01*
X82428722Y-53919022D01*
X82428724Y-53919030D01*
X82471171Y-54010058D01*
X82518977Y-54112578D01*
X82641472Y-54287521D01*
X82792478Y-54438527D01*
X82792481Y-54438529D01*
X82967419Y-54561021D01*
X82967421Y-54561022D01*
X82967420Y-54561022D01*
X83031936Y-54591106D01*
X83160970Y-54651276D01*
X83367253Y-54706549D01*
X83519215Y-54719844D01*
X83579998Y-54725162D01*
X83580000Y-54725162D01*
X83580002Y-54725162D01*
X83633186Y-54720508D01*
X83792747Y-54706549D01*
X83999030Y-54651276D01*
X84192581Y-54561021D01*
X84367519Y-54438529D01*
X84518529Y-54287519D01*
X84641021Y-54112581D01*
X84731276Y-53919030D01*
X84786549Y-53712747D01*
X84805162Y-53500000D01*
X84786549Y-53287253D01*
X84731276Y-53080970D01*
X84641021Y-52887419D01*
X84518529Y-52712481D01*
X84518527Y-52712478D01*
X84367521Y-52561472D01*
X84192578Y-52438977D01*
X84192579Y-52438977D01*
X84063547Y-52378809D01*
X83999030Y-52348724D01*
X83999026Y-52348723D01*
X83999022Y-52348721D01*
X83792752Y-52293452D01*
X83792748Y-52293451D01*
X83792747Y-52293451D01*
X83792746Y-52293450D01*
X83792741Y-52293450D01*
X83580002Y-52274838D01*
X83579998Y-52274838D01*
X83367258Y-52293450D01*
X83367247Y-52293452D01*
X83160977Y-52348721D01*
X83160968Y-52348725D01*
X82967421Y-52438977D01*
X82792478Y-52561472D01*
X82641472Y-52712478D01*
X82518977Y-52887421D01*
X82428725Y-53080968D01*
X82426870Y-53086064D01*
X82424749Y-53085292D01*
X82393406Y-53136710D01*
X82330558Y-53167237D01*
X82261183Y-53158939D01*
X82207307Y-53114452D01*
X82194169Y-53085685D01*
X82193130Y-53086064D01*
X82191279Y-53080983D01*
X82191276Y-53080970D01*
X82101021Y-52887419D01*
X81978529Y-52712481D01*
X81978527Y-52712478D01*
X81827521Y-52561472D01*
X81652578Y-52438977D01*
X81652579Y-52438977D01*
X81523547Y-52378809D01*
X81459030Y-52348724D01*
X81459026Y-52348723D01*
X81459022Y-52348721D01*
X81252752Y-52293452D01*
X81252748Y-52293451D01*
X81252747Y-52293451D01*
X81252746Y-52293450D01*
X81252741Y-52293450D01*
X81040002Y-52274838D01*
X81039998Y-52274838D01*
X80827258Y-52293450D01*
X80827247Y-52293452D01*
X80620977Y-52348721D01*
X80620968Y-52348725D01*
X80427421Y-52438977D01*
X80252478Y-52561472D01*
X80101472Y-52712478D01*
X79978977Y-52887421D01*
X79888725Y-53080968D01*
X79886870Y-53086064D01*
X79884749Y-53085292D01*
X79853406Y-53136710D01*
X79790558Y-53167237D01*
X79721183Y-53158939D01*
X79667307Y-53114452D01*
X79654169Y-53085685D01*
X79653130Y-53086064D01*
X79651279Y-53080983D01*
X79651276Y-53080970D01*
X79561021Y-52887419D01*
X79438529Y-52712481D01*
X79438527Y-52712478D01*
X79287521Y-52561472D01*
X79112578Y-52438977D01*
X79112579Y-52438977D01*
X78983547Y-52378809D01*
X78919030Y-52348724D01*
X78919026Y-52348723D01*
X78919022Y-52348721D01*
X78712752Y-52293452D01*
X78712748Y-52293451D01*
X78712747Y-52293451D01*
X78712746Y-52293450D01*
X78712741Y-52293450D01*
X78500002Y-52274838D01*
X78499998Y-52274838D01*
X78287258Y-52293450D01*
X78287247Y-52293452D01*
X78080977Y-52348721D01*
X78080968Y-52348725D01*
X77887421Y-52438977D01*
X77712478Y-52561472D01*
X77561472Y-52712478D01*
X77438977Y-52887421D01*
X77348725Y-53080968D01*
X77348721Y-53080977D01*
X77293452Y-53287247D01*
X77293450Y-53287258D01*
X77274838Y-53499998D01*
X50500500Y-53499998D01*
X50500500Y-50624500D01*
X50520185Y-50557461D01*
X50572989Y-50511706D01*
X50624500Y-50500500D01*
X94375500Y-50500500D01*
X94442539Y-50520185D01*
G37*
%TD.AperFunction*%
%TD*%
M02*
