%TF.GenerationSoftware,KiCad,Pcbnew,8.0.4*%
%TF.CreationDate,2025-01-06T15:08:45+00:00*%
%TF.ProjectId,33063_boost,33333036-335f-4626-9f6f-73742e6b6963,rev?*%
%TF.SameCoordinates,Original*%
%TF.FileFunction,Legend,Bot*%
%TF.FilePolarity,Positive*%
%FSLAX46Y46*%
G04 Gerber Fmt 4.6, Leading zero omitted, Abs format (unit mm)*
G04 Created by KiCad (PCBNEW 8.0.4) date 2025-01-06 15:08:45*
%MOMM*%
%LPD*%
G01*
G04 APERTURE LIST*
%ADD10C,0.300000*%
G04 APERTURE END LIST*
D10*
X77166666Y-60362019D02*
X76880952Y-60457257D01*
X76880952Y-60457257D02*
X76785714Y-60552495D01*
X76785714Y-60552495D02*
X76690476Y-60742971D01*
X76690476Y-60742971D02*
X76690476Y-61028685D01*
X76690476Y-61028685D02*
X76785714Y-61219161D01*
X76785714Y-61219161D02*
X76880952Y-61314400D01*
X76880952Y-61314400D02*
X77071428Y-61409638D01*
X77071428Y-61409638D02*
X77833333Y-61409638D01*
X77833333Y-61409638D02*
X77833333Y-59409638D01*
X77833333Y-59409638D02*
X77166666Y-59409638D01*
X77166666Y-59409638D02*
X76976190Y-59504876D01*
X76976190Y-59504876D02*
X76880952Y-59600114D01*
X76880952Y-59600114D02*
X76785714Y-59790590D01*
X76785714Y-59790590D02*
X76785714Y-59981066D01*
X76785714Y-59981066D02*
X76880952Y-60171542D01*
X76880952Y-60171542D02*
X76976190Y-60266780D01*
X76976190Y-60266780D02*
X77166666Y-60362019D01*
X77166666Y-60362019D02*
X77833333Y-60362019D01*
X75452381Y-59409638D02*
X75071428Y-59409638D01*
X75071428Y-59409638D02*
X74880952Y-59504876D01*
X74880952Y-59504876D02*
X74690476Y-59695352D01*
X74690476Y-59695352D02*
X74595238Y-60076304D01*
X74595238Y-60076304D02*
X74595238Y-60742971D01*
X74595238Y-60742971D02*
X74690476Y-61123923D01*
X74690476Y-61123923D02*
X74880952Y-61314400D01*
X74880952Y-61314400D02*
X75071428Y-61409638D01*
X75071428Y-61409638D02*
X75452381Y-61409638D01*
X75452381Y-61409638D02*
X75642857Y-61314400D01*
X75642857Y-61314400D02*
X75833333Y-61123923D01*
X75833333Y-61123923D02*
X75928571Y-60742971D01*
X75928571Y-60742971D02*
X75928571Y-60076304D01*
X75928571Y-60076304D02*
X75833333Y-59695352D01*
X75833333Y-59695352D02*
X75642857Y-59504876D01*
X75642857Y-59504876D02*
X75452381Y-59409638D01*
X73357143Y-59409638D02*
X72976190Y-59409638D01*
X72976190Y-59409638D02*
X72785714Y-59504876D01*
X72785714Y-59504876D02*
X72595238Y-59695352D01*
X72595238Y-59695352D02*
X72500000Y-60076304D01*
X72500000Y-60076304D02*
X72500000Y-60742971D01*
X72500000Y-60742971D02*
X72595238Y-61123923D01*
X72595238Y-61123923D02*
X72785714Y-61314400D01*
X72785714Y-61314400D02*
X72976190Y-61409638D01*
X72976190Y-61409638D02*
X73357143Y-61409638D01*
X73357143Y-61409638D02*
X73547619Y-61314400D01*
X73547619Y-61314400D02*
X73738095Y-61123923D01*
X73738095Y-61123923D02*
X73833333Y-60742971D01*
X73833333Y-60742971D02*
X73833333Y-60076304D01*
X73833333Y-60076304D02*
X73738095Y-59695352D01*
X73738095Y-59695352D02*
X73547619Y-59504876D01*
X73547619Y-59504876D02*
X73357143Y-59409638D01*
X71738095Y-61314400D02*
X71452381Y-61409638D01*
X71452381Y-61409638D02*
X70976190Y-61409638D01*
X70976190Y-61409638D02*
X70785714Y-61314400D01*
X70785714Y-61314400D02*
X70690476Y-61219161D01*
X70690476Y-61219161D02*
X70595238Y-61028685D01*
X70595238Y-61028685D02*
X70595238Y-60838209D01*
X70595238Y-60838209D02*
X70690476Y-60647733D01*
X70690476Y-60647733D02*
X70785714Y-60552495D01*
X70785714Y-60552495D02*
X70976190Y-60457257D01*
X70976190Y-60457257D02*
X71357143Y-60362019D01*
X71357143Y-60362019D02*
X71547619Y-60266780D01*
X71547619Y-60266780D02*
X71642857Y-60171542D01*
X71642857Y-60171542D02*
X71738095Y-59981066D01*
X71738095Y-59981066D02*
X71738095Y-59790590D01*
X71738095Y-59790590D02*
X71642857Y-59600114D01*
X71642857Y-59600114D02*
X71547619Y-59504876D01*
X71547619Y-59504876D02*
X71357143Y-59409638D01*
X71357143Y-59409638D02*
X70880952Y-59409638D01*
X70880952Y-59409638D02*
X70595238Y-59504876D01*
X70023809Y-59409638D02*
X68880952Y-59409638D01*
X69452381Y-61409638D02*
X69452381Y-59409638D01*
X90714283Y-63178328D02*
X90214283Y-64678328D01*
X90214283Y-64678328D02*
X89714283Y-63178328D01*
X88999998Y-64678328D02*
X89142855Y-64606900D01*
X89142855Y-64606900D02*
X89214284Y-64535471D01*
X89214284Y-64535471D02*
X89285712Y-64392614D01*
X89285712Y-64392614D02*
X89285712Y-63964042D01*
X89285712Y-63964042D02*
X89214284Y-63821185D01*
X89214284Y-63821185D02*
X89142855Y-63749757D01*
X89142855Y-63749757D02*
X88999998Y-63678328D01*
X88999998Y-63678328D02*
X88785712Y-63678328D01*
X88785712Y-63678328D02*
X88642855Y-63749757D01*
X88642855Y-63749757D02*
X88571427Y-63821185D01*
X88571427Y-63821185D02*
X88499998Y-63964042D01*
X88499998Y-63964042D02*
X88499998Y-64392614D01*
X88499998Y-64392614D02*
X88571427Y-64535471D01*
X88571427Y-64535471D02*
X88642855Y-64606900D01*
X88642855Y-64606900D02*
X88785712Y-64678328D01*
X88785712Y-64678328D02*
X88999998Y-64678328D01*
X87214284Y-63678328D02*
X87214284Y-64678328D01*
X87857141Y-63678328D02*
X87857141Y-64464042D01*
X87857141Y-64464042D02*
X87785712Y-64606900D01*
X87785712Y-64606900D02*
X87642855Y-64678328D01*
X87642855Y-64678328D02*
X87428569Y-64678328D01*
X87428569Y-64678328D02*
X87285712Y-64606900D01*
X87285712Y-64606900D02*
X87214284Y-64535471D01*
X86714283Y-63678328D02*
X86142855Y-63678328D01*
X86499998Y-63178328D02*
X86499998Y-64464042D01*
X86499998Y-64464042D02*
X86428569Y-64606900D01*
X86428569Y-64606900D02*
X86285712Y-64678328D01*
X86285712Y-64678328D02*
X86142855Y-64678328D01*
X84499998Y-63892614D02*
X83357141Y-63892614D01*
X83357141Y-64321185D02*
X84499998Y-64321185D01*
X80714283Y-64678328D02*
X81571426Y-64678328D01*
X81142855Y-64678328D02*
X81142855Y-63178328D01*
X81142855Y-63178328D02*
X81285712Y-63392614D01*
X81285712Y-63392614D02*
X81428569Y-63535471D01*
X81428569Y-63535471D02*
X81571426Y-63606900D01*
X80071427Y-64535471D02*
X79999998Y-64606900D01*
X79999998Y-64606900D02*
X80071427Y-64678328D01*
X80071427Y-64678328D02*
X80142855Y-64606900D01*
X80142855Y-64606900D02*
X80071427Y-64535471D01*
X80071427Y-64535471D02*
X80071427Y-64678328D01*
X79428569Y-63321185D02*
X79357141Y-63249757D01*
X79357141Y-63249757D02*
X79214284Y-63178328D01*
X79214284Y-63178328D02*
X78857141Y-63178328D01*
X78857141Y-63178328D02*
X78714284Y-63249757D01*
X78714284Y-63249757D02*
X78642855Y-63321185D01*
X78642855Y-63321185D02*
X78571426Y-63464042D01*
X78571426Y-63464042D02*
X78571426Y-63606900D01*
X78571426Y-63606900D02*
X78642855Y-63821185D01*
X78642855Y-63821185D02*
X79499998Y-64678328D01*
X79499998Y-64678328D02*
X78571426Y-64678328D01*
X77214284Y-63178328D02*
X77928570Y-63178328D01*
X77928570Y-63178328D02*
X77999998Y-63892614D01*
X77999998Y-63892614D02*
X77928570Y-63821185D01*
X77928570Y-63821185D02*
X77785713Y-63749757D01*
X77785713Y-63749757D02*
X77428570Y-63749757D01*
X77428570Y-63749757D02*
X77285713Y-63821185D01*
X77285713Y-63821185D02*
X77214284Y-63892614D01*
X77214284Y-63892614D02*
X77142855Y-64035471D01*
X77142855Y-64035471D02*
X77142855Y-64392614D01*
X77142855Y-64392614D02*
X77214284Y-64535471D01*
X77214284Y-64535471D02*
X77285713Y-64606900D01*
X77285713Y-64606900D02*
X77428570Y-64678328D01*
X77428570Y-64678328D02*
X77785713Y-64678328D01*
X77785713Y-64678328D02*
X77928570Y-64606900D01*
X77928570Y-64606900D02*
X77999998Y-64535471D01*
X75142856Y-63178328D02*
X75142856Y-63535471D01*
X75499999Y-63392614D02*
X75142856Y-63535471D01*
X75142856Y-63535471D02*
X74785713Y-63392614D01*
X75357142Y-63821185D02*
X75142856Y-63535471D01*
X75142856Y-63535471D02*
X74928570Y-63821185D01*
X72642856Y-65249757D02*
X72714285Y-65178328D01*
X72714285Y-65178328D02*
X72857142Y-64964042D01*
X72857142Y-64964042D02*
X72928571Y-64821185D01*
X72928571Y-64821185D02*
X72999999Y-64606900D01*
X72999999Y-64606900D02*
X73071428Y-64249757D01*
X73071428Y-64249757D02*
X73071428Y-63964042D01*
X73071428Y-63964042D02*
X72999999Y-63606900D01*
X72999999Y-63606900D02*
X72928571Y-63392614D01*
X72928571Y-63392614D02*
X72857142Y-63249757D01*
X72857142Y-63249757D02*
X72714285Y-63035471D01*
X72714285Y-63035471D02*
X72642856Y-62964042D01*
X71285713Y-64678328D02*
X72142856Y-64678328D01*
X71714285Y-64678328D02*
X71714285Y-63178328D01*
X71714285Y-63178328D02*
X71857142Y-63392614D01*
X71857142Y-63392614D02*
X71999999Y-63535471D01*
X71999999Y-63535471D02*
X72142856Y-63606900D01*
X69500000Y-64106900D02*
X68357143Y-64106900D01*
X68928571Y-64678328D02*
X68928571Y-63535471D01*
X65642857Y-64678328D02*
X66142857Y-63964042D01*
X66500000Y-64678328D02*
X66500000Y-63178328D01*
X66500000Y-63178328D02*
X65928571Y-63178328D01*
X65928571Y-63178328D02*
X65785714Y-63249757D01*
X65785714Y-63249757D02*
X65714285Y-63321185D01*
X65714285Y-63321185D02*
X65642857Y-63464042D01*
X65642857Y-63464042D02*
X65642857Y-63678328D01*
X65642857Y-63678328D02*
X65714285Y-63821185D01*
X65714285Y-63821185D02*
X65785714Y-63892614D01*
X65785714Y-63892614D02*
X65928571Y-63964042D01*
X65928571Y-63964042D02*
X66500000Y-63964042D01*
X64357143Y-63678328D02*
X64357143Y-64678328D01*
X64714285Y-63106900D02*
X65071428Y-64178328D01*
X65071428Y-64178328D02*
X64142857Y-64178328D01*
X61357143Y-63106900D02*
X62642857Y-65035471D01*
X58857143Y-64678328D02*
X59357143Y-63964042D01*
X59714286Y-64678328D02*
X59714286Y-63178328D01*
X59714286Y-63178328D02*
X59142857Y-63178328D01*
X59142857Y-63178328D02*
X59000000Y-63249757D01*
X59000000Y-63249757D02*
X58928571Y-63321185D01*
X58928571Y-63321185D02*
X58857143Y-63464042D01*
X58857143Y-63464042D02*
X58857143Y-63678328D01*
X58857143Y-63678328D02*
X58928571Y-63821185D01*
X58928571Y-63821185D02*
X59000000Y-63892614D01*
X59000000Y-63892614D02*
X59142857Y-63964042D01*
X59142857Y-63964042D02*
X59714286Y-63964042D01*
X58357143Y-63178328D02*
X57428571Y-63178328D01*
X57428571Y-63178328D02*
X57928571Y-63749757D01*
X57928571Y-63749757D02*
X57714286Y-63749757D01*
X57714286Y-63749757D02*
X57571429Y-63821185D01*
X57571429Y-63821185D02*
X57500000Y-63892614D01*
X57500000Y-63892614D02*
X57428571Y-64035471D01*
X57428571Y-64035471D02*
X57428571Y-64392614D01*
X57428571Y-64392614D02*
X57500000Y-64535471D01*
X57500000Y-64535471D02*
X57571429Y-64606900D01*
X57571429Y-64606900D02*
X57714286Y-64678328D01*
X57714286Y-64678328D02*
X58142857Y-64678328D01*
X58142857Y-64678328D02*
X58285714Y-64606900D01*
X58285714Y-64606900D02*
X58357143Y-64535471D01*
X56928572Y-65249757D02*
X56857143Y-65178328D01*
X56857143Y-65178328D02*
X56714286Y-64964042D01*
X56714286Y-64964042D02*
X56642858Y-64821185D01*
X56642858Y-64821185D02*
X56571429Y-64606900D01*
X56571429Y-64606900D02*
X56500000Y-64249757D01*
X56500000Y-64249757D02*
X56500000Y-63964042D01*
X56500000Y-63964042D02*
X56571429Y-63606900D01*
X56571429Y-63606900D02*
X56642858Y-63392614D01*
X56642858Y-63392614D02*
X56714286Y-63249757D01*
X56714286Y-63249757D02*
X56857143Y-63035471D01*
X56857143Y-63035471D02*
X56928572Y-62964042D01*
M02*
