%TF.GenerationSoftware,KiCad,Pcbnew,8.0.4*%
%TF.CreationDate,2025-01-19T17:40:16+00:00*%
%TF.ProjectId,33063_boost,33333036-335f-4626-9f6f-73742e6b6963,rev?*%
%TF.SameCoordinates,Original*%
%TF.FileFunction,Legend,Top*%
%TF.FilePolarity,Positive*%
%FSLAX46Y46*%
G04 Gerber Fmt 4.6, Leading zero omitted, Abs format (unit mm)*
G04 Created by KiCad (PCBNEW 8.0.4) date 2025-01-19 17:40:16*
%MOMM*%
%LPD*%
G01*
G04 APERTURE LIST*
%ADD10C,0.100000*%
%ADD11C,0.360000*%
%ADD12C,0.150000*%
%ADD13C,0.200000*%
%ADD14C,0.120000*%
G04 APERTURE END LIST*
D10*
X73580000Y-60420000D02*
X73680000Y-60270000D01*
X73780000Y-60720000D01*
X73280000Y-60570000D01*
X73430000Y-60470000D01*
X72880000Y-59970000D01*
X73030000Y-59820000D01*
X73580000Y-60420000D01*
G36*
X73580000Y-60420000D02*
G01*
X73680000Y-60270000D01*
X73780000Y-60720000D01*
X73280000Y-60570000D01*
X73430000Y-60470000D01*
X72880000Y-59970000D01*
X73030000Y-59820000D01*
X73580000Y-60420000D01*
G37*
D11*
X51279708Y-64471428D02*
X51193994Y-64642857D01*
X51193994Y-64642857D02*
X51193994Y-64899999D01*
X51193994Y-64899999D02*
X51279708Y-65157142D01*
X51279708Y-65157142D02*
X51451137Y-65328571D01*
X51451137Y-65328571D02*
X51622565Y-65414285D01*
X51622565Y-65414285D02*
X51965422Y-65499999D01*
X51965422Y-65499999D02*
X52222565Y-65499999D01*
X52222565Y-65499999D02*
X52565422Y-65414285D01*
X52565422Y-65414285D02*
X52736851Y-65328571D01*
X52736851Y-65328571D02*
X52908280Y-65157142D01*
X52908280Y-65157142D02*
X52993994Y-64899999D01*
X52993994Y-64899999D02*
X52993994Y-64728571D01*
X52993994Y-64728571D02*
X52908280Y-64471428D01*
X52908280Y-64471428D02*
X52822565Y-64385714D01*
X52822565Y-64385714D02*
X52222565Y-64385714D01*
X52222565Y-64385714D02*
X52222565Y-64728571D01*
X52993994Y-63614285D02*
X51193994Y-63614285D01*
X51193994Y-63614285D02*
X52993994Y-62585714D01*
X52993994Y-62585714D02*
X51193994Y-62585714D01*
X52993994Y-61728571D02*
X51193994Y-61728571D01*
X51193994Y-61728571D02*
X51193994Y-61300000D01*
X51193994Y-61300000D02*
X51279708Y-61042857D01*
X51279708Y-61042857D02*
X51451137Y-60871428D01*
X51451137Y-60871428D02*
X51622565Y-60785714D01*
X51622565Y-60785714D02*
X51965422Y-60700000D01*
X51965422Y-60700000D02*
X52222565Y-60700000D01*
X52222565Y-60700000D02*
X52565422Y-60785714D01*
X52565422Y-60785714D02*
X52736851Y-60871428D01*
X52736851Y-60871428D02*
X52908280Y-61042857D01*
X52908280Y-61042857D02*
X52993994Y-61300000D01*
X52993994Y-61300000D02*
X52993994Y-61728571D01*
X91919708Y-64471428D02*
X91833994Y-64642857D01*
X91833994Y-64642857D02*
X91833994Y-64899999D01*
X91833994Y-64899999D02*
X91919708Y-65157142D01*
X91919708Y-65157142D02*
X92091137Y-65328571D01*
X92091137Y-65328571D02*
X92262565Y-65414285D01*
X92262565Y-65414285D02*
X92605422Y-65499999D01*
X92605422Y-65499999D02*
X92862565Y-65499999D01*
X92862565Y-65499999D02*
X93205422Y-65414285D01*
X93205422Y-65414285D02*
X93376851Y-65328571D01*
X93376851Y-65328571D02*
X93548280Y-65157142D01*
X93548280Y-65157142D02*
X93633994Y-64899999D01*
X93633994Y-64899999D02*
X93633994Y-64728571D01*
X93633994Y-64728571D02*
X93548280Y-64471428D01*
X93548280Y-64471428D02*
X93462565Y-64385714D01*
X93462565Y-64385714D02*
X92862565Y-64385714D01*
X92862565Y-64385714D02*
X92862565Y-64728571D01*
X93633994Y-63614285D02*
X91833994Y-63614285D01*
X91833994Y-63614285D02*
X93633994Y-62585714D01*
X93633994Y-62585714D02*
X91833994Y-62585714D01*
X93633994Y-61728571D02*
X91833994Y-61728571D01*
X91833994Y-61728571D02*
X91833994Y-61300000D01*
X91833994Y-61300000D02*
X91919708Y-61042857D01*
X91919708Y-61042857D02*
X92091137Y-60871428D01*
X92091137Y-60871428D02*
X92262565Y-60785714D01*
X92262565Y-60785714D02*
X92605422Y-60700000D01*
X92605422Y-60700000D02*
X92862565Y-60700000D01*
X92862565Y-60700000D02*
X93205422Y-60785714D01*
X93205422Y-60785714D02*
X93376851Y-60871428D01*
X93376851Y-60871428D02*
X93548280Y-61042857D01*
X93548280Y-61042857D02*
X93633994Y-61300000D01*
X93633994Y-61300000D02*
X93633994Y-61728571D01*
X55813994Y-64092856D02*
X54013994Y-64092856D01*
X55813994Y-63235713D02*
X54013994Y-63235713D01*
X54013994Y-63235713D02*
X55813994Y-62207142D01*
X55813994Y-62207142D02*
X54013994Y-62207142D01*
X89263994Y-64949999D02*
X89263994Y-64607142D01*
X89263994Y-64607142D02*
X89349708Y-64435713D01*
X89349708Y-64435713D02*
X89521137Y-64264285D01*
X89521137Y-64264285D02*
X89863994Y-64178570D01*
X89863994Y-64178570D02*
X90463994Y-64178570D01*
X90463994Y-64178570D02*
X90806851Y-64264285D01*
X90806851Y-64264285D02*
X90978280Y-64435713D01*
X90978280Y-64435713D02*
X91063994Y-64607142D01*
X91063994Y-64607142D02*
X91063994Y-64949999D01*
X91063994Y-64949999D02*
X90978280Y-65121428D01*
X90978280Y-65121428D02*
X90806851Y-65292856D01*
X90806851Y-65292856D02*
X90463994Y-65378570D01*
X90463994Y-65378570D02*
X89863994Y-65378570D01*
X89863994Y-65378570D02*
X89521137Y-65292856D01*
X89521137Y-65292856D02*
X89349708Y-65121428D01*
X89349708Y-65121428D02*
X89263994Y-64949999D01*
X89263994Y-63407142D02*
X90721137Y-63407142D01*
X90721137Y-63407142D02*
X90892565Y-63321428D01*
X90892565Y-63321428D02*
X90978280Y-63235714D01*
X90978280Y-63235714D02*
X91063994Y-63064285D01*
X91063994Y-63064285D02*
X91063994Y-62721428D01*
X91063994Y-62721428D02*
X90978280Y-62549999D01*
X90978280Y-62549999D02*
X90892565Y-62464285D01*
X90892565Y-62464285D02*
X90721137Y-62378571D01*
X90721137Y-62378571D02*
X89263994Y-62378571D01*
X89263994Y-61778571D02*
X89263994Y-60750000D01*
X91063994Y-61264285D02*
X89263994Y-61264285D01*
D12*
X76453333Y-64924819D02*
X75977143Y-64924819D01*
X75977143Y-64924819D02*
X75977143Y-63924819D01*
X77310476Y-64924819D02*
X76739048Y-64924819D01*
X77024762Y-64924819D02*
X77024762Y-63924819D01*
X77024762Y-63924819D02*
X76929524Y-64067676D01*
X76929524Y-64067676D02*
X76834286Y-64162914D01*
X76834286Y-64162914D02*
X76739048Y-64210533D01*
D13*
X72923482Y-60787219D02*
X72352054Y-60787219D01*
X72637768Y-60787219D02*
X72637768Y-59787219D01*
X72637768Y-59787219D02*
X72542530Y-59930076D01*
X72542530Y-59930076D02*
X72447292Y-60025314D01*
X72447292Y-60025314D02*
X72352054Y-60072933D01*
D12*
X52773333Y-52279580D02*
X52725714Y-52327200D01*
X52725714Y-52327200D02*
X52582857Y-52374819D01*
X52582857Y-52374819D02*
X52487619Y-52374819D01*
X52487619Y-52374819D02*
X52344762Y-52327200D01*
X52344762Y-52327200D02*
X52249524Y-52231961D01*
X52249524Y-52231961D02*
X52201905Y-52136723D01*
X52201905Y-52136723D02*
X52154286Y-51946247D01*
X52154286Y-51946247D02*
X52154286Y-51803390D01*
X52154286Y-51803390D02*
X52201905Y-51612914D01*
X52201905Y-51612914D02*
X52249524Y-51517676D01*
X52249524Y-51517676D02*
X52344762Y-51422438D01*
X52344762Y-51422438D02*
X52487619Y-51374819D01*
X52487619Y-51374819D02*
X52582857Y-51374819D01*
X52582857Y-51374819D02*
X52725714Y-51422438D01*
X52725714Y-51422438D02*
X52773333Y-51470057D01*
X53725714Y-52374819D02*
X53154286Y-52374819D01*
X53440000Y-52374819D02*
X53440000Y-51374819D01*
X53440000Y-51374819D02*
X53344762Y-51517676D01*
X53344762Y-51517676D02*
X53249524Y-51612914D01*
X53249524Y-51612914D02*
X53154286Y-51660533D01*
X55820952Y-52374819D02*
X55249524Y-52374819D01*
X55535238Y-52374819D02*
X55535238Y-51374819D01*
X55535238Y-51374819D02*
X55440000Y-51517676D01*
X55440000Y-51517676D02*
X55344762Y-51612914D01*
X55344762Y-51612914D02*
X55249524Y-51660533D01*
X56440000Y-51374819D02*
X56535238Y-51374819D01*
X56535238Y-51374819D02*
X56630476Y-51422438D01*
X56630476Y-51422438D02*
X56678095Y-51470057D01*
X56678095Y-51470057D02*
X56725714Y-51565295D01*
X56725714Y-51565295D02*
X56773333Y-51755771D01*
X56773333Y-51755771D02*
X56773333Y-51993866D01*
X56773333Y-51993866D02*
X56725714Y-52184342D01*
X56725714Y-52184342D02*
X56678095Y-52279580D01*
X56678095Y-52279580D02*
X56630476Y-52327200D01*
X56630476Y-52327200D02*
X56535238Y-52374819D01*
X56535238Y-52374819D02*
X56440000Y-52374819D01*
X56440000Y-52374819D02*
X56344762Y-52327200D01*
X56344762Y-52327200D02*
X56297143Y-52279580D01*
X56297143Y-52279580D02*
X56249524Y-52184342D01*
X56249524Y-52184342D02*
X56201905Y-51993866D01*
X56201905Y-51993866D02*
X56201905Y-51755771D01*
X56201905Y-51755771D02*
X56249524Y-51565295D01*
X56249524Y-51565295D02*
X56297143Y-51470057D01*
X56297143Y-51470057D02*
X56344762Y-51422438D01*
X56344762Y-51422438D02*
X56440000Y-51374819D01*
X57392381Y-51374819D02*
X57487619Y-51374819D01*
X57487619Y-51374819D02*
X57582857Y-51422438D01*
X57582857Y-51422438D02*
X57630476Y-51470057D01*
X57630476Y-51470057D02*
X57678095Y-51565295D01*
X57678095Y-51565295D02*
X57725714Y-51755771D01*
X57725714Y-51755771D02*
X57725714Y-51993866D01*
X57725714Y-51993866D02*
X57678095Y-52184342D01*
X57678095Y-52184342D02*
X57630476Y-52279580D01*
X57630476Y-52279580D02*
X57582857Y-52327200D01*
X57582857Y-52327200D02*
X57487619Y-52374819D01*
X57487619Y-52374819D02*
X57392381Y-52374819D01*
X57392381Y-52374819D02*
X57297143Y-52327200D01*
X57297143Y-52327200D02*
X57249524Y-52279580D01*
X57249524Y-52279580D02*
X57201905Y-52184342D01*
X57201905Y-52184342D02*
X57154286Y-51993866D01*
X57154286Y-51993866D02*
X57154286Y-51755771D01*
X57154286Y-51755771D02*
X57201905Y-51565295D01*
X57201905Y-51565295D02*
X57249524Y-51470057D01*
X57249524Y-51470057D02*
X57297143Y-51422438D01*
X57297143Y-51422438D02*
X57392381Y-51374819D01*
X58582857Y-51708152D02*
X58582857Y-52374819D01*
X58154286Y-51708152D02*
X58154286Y-52231961D01*
X58154286Y-52231961D02*
X58201905Y-52327200D01*
X58201905Y-52327200D02*
X58297143Y-52374819D01*
X58297143Y-52374819D02*
X58440000Y-52374819D01*
X58440000Y-52374819D02*
X58535238Y-52327200D01*
X58535238Y-52327200D02*
X58582857Y-52279580D01*
X60963333Y-61254819D02*
X60630000Y-60778628D01*
X60391905Y-61254819D02*
X60391905Y-60254819D01*
X60391905Y-60254819D02*
X60772857Y-60254819D01*
X60772857Y-60254819D02*
X60868095Y-60302438D01*
X60868095Y-60302438D02*
X60915714Y-60350057D01*
X60915714Y-60350057D02*
X60963333Y-60445295D01*
X60963333Y-60445295D02*
X60963333Y-60588152D01*
X60963333Y-60588152D02*
X60915714Y-60683390D01*
X60915714Y-60683390D02*
X60868095Y-60731009D01*
X60868095Y-60731009D02*
X60772857Y-60778628D01*
X60772857Y-60778628D02*
X60391905Y-60778628D01*
X61820476Y-60588152D02*
X61820476Y-61254819D01*
X61582381Y-60207200D02*
X61344286Y-60921485D01*
X61344286Y-60921485D02*
X61963333Y-60921485D01*
X63673333Y-61254819D02*
X63101905Y-61254819D01*
X63387619Y-61254819D02*
X63387619Y-60254819D01*
X63387619Y-60254819D02*
X63292381Y-60397676D01*
X63292381Y-60397676D02*
X63197143Y-60492914D01*
X63197143Y-60492914D02*
X63101905Y-60540533D01*
X64244762Y-60683390D02*
X64149524Y-60635771D01*
X64149524Y-60635771D02*
X64101905Y-60588152D01*
X64101905Y-60588152D02*
X64054286Y-60492914D01*
X64054286Y-60492914D02*
X64054286Y-60445295D01*
X64054286Y-60445295D02*
X64101905Y-60350057D01*
X64101905Y-60350057D02*
X64149524Y-60302438D01*
X64149524Y-60302438D02*
X64244762Y-60254819D01*
X64244762Y-60254819D02*
X64435238Y-60254819D01*
X64435238Y-60254819D02*
X64530476Y-60302438D01*
X64530476Y-60302438D02*
X64578095Y-60350057D01*
X64578095Y-60350057D02*
X64625714Y-60445295D01*
X64625714Y-60445295D02*
X64625714Y-60492914D01*
X64625714Y-60492914D02*
X64578095Y-60588152D01*
X64578095Y-60588152D02*
X64530476Y-60635771D01*
X64530476Y-60635771D02*
X64435238Y-60683390D01*
X64435238Y-60683390D02*
X64244762Y-60683390D01*
X64244762Y-60683390D02*
X64149524Y-60731009D01*
X64149524Y-60731009D02*
X64101905Y-60778628D01*
X64101905Y-60778628D02*
X64054286Y-60873866D01*
X64054286Y-60873866D02*
X64054286Y-61064342D01*
X64054286Y-61064342D02*
X64101905Y-61159580D01*
X64101905Y-61159580D02*
X64149524Y-61207200D01*
X64149524Y-61207200D02*
X64244762Y-61254819D01*
X64244762Y-61254819D02*
X64435238Y-61254819D01*
X64435238Y-61254819D02*
X64530476Y-61207200D01*
X64530476Y-61207200D02*
X64578095Y-61159580D01*
X64578095Y-61159580D02*
X64625714Y-61064342D01*
X64625714Y-61064342D02*
X64625714Y-60873866D01*
X64625714Y-60873866D02*
X64578095Y-60778628D01*
X64578095Y-60778628D02*
X64530476Y-60731009D01*
X64530476Y-60731009D02*
X64435238Y-60683390D01*
X65244762Y-60254819D02*
X65340000Y-60254819D01*
X65340000Y-60254819D02*
X65435238Y-60302438D01*
X65435238Y-60302438D02*
X65482857Y-60350057D01*
X65482857Y-60350057D02*
X65530476Y-60445295D01*
X65530476Y-60445295D02*
X65578095Y-60635771D01*
X65578095Y-60635771D02*
X65578095Y-60873866D01*
X65578095Y-60873866D02*
X65530476Y-61064342D01*
X65530476Y-61064342D02*
X65482857Y-61159580D01*
X65482857Y-61159580D02*
X65435238Y-61207200D01*
X65435238Y-61207200D02*
X65340000Y-61254819D01*
X65340000Y-61254819D02*
X65244762Y-61254819D01*
X65244762Y-61254819D02*
X65149524Y-61207200D01*
X65149524Y-61207200D02*
X65101905Y-61159580D01*
X65101905Y-61159580D02*
X65054286Y-61064342D01*
X65054286Y-61064342D02*
X65006667Y-60873866D01*
X65006667Y-60873866D02*
X65006667Y-60635771D01*
X65006667Y-60635771D02*
X65054286Y-60445295D01*
X65054286Y-60445295D02*
X65101905Y-60350057D01*
X65101905Y-60350057D02*
X65149524Y-60302438D01*
X65149524Y-60302438D02*
X65244762Y-60254819D01*
X77414761Y-57294819D02*
X77081428Y-56818628D01*
X76843333Y-57294819D02*
X76843333Y-56294819D01*
X76843333Y-56294819D02*
X77224285Y-56294819D01*
X77224285Y-56294819D02*
X77319523Y-56342438D01*
X77319523Y-56342438D02*
X77367142Y-56390057D01*
X77367142Y-56390057D02*
X77414761Y-56485295D01*
X77414761Y-56485295D02*
X77414761Y-56628152D01*
X77414761Y-56628152D02*
X77367142Y-56723390D01*
X77367142Y-56723390D02*
X77319523Y-56771009D01*
X77319523Y-56771009D02*
X77224285Y-56818628D01*
X77224285Y-56818628D02*
X76843333Y-56818628D01*
X77700476Y-56294819D02*
X78033809Y-57294819D01*
X78033809Y-57294819D02*
X78367142Y-56294819D01*
X79224285Y-57294819D02*
X78652857Y-57294819D01*
X78938571Y-57294819D02*
X78938571Y-56294819D01*
X78938571Y-56294819D02*
X78843333Y-56437676D01*
X78843333Y-56437676D02*
X78748095Y-56532914D01*
X78748095Y-56532914D02*
X78652857Y-56580533D01*
X81264761Y-57294819D02*
X80693333Y-57294819D01*
X80979047Y-57294819D02*
X80979047Y-56294819D01*
X80979047Y-56294819D02*
X80883809Y-56437676D01*
X80883809Y-56437676D02*
X80788571Y-56532914D01*
X80788571Y-56532914D02*
X80693333Y-56580533D01*
X81883809Y-56294819D02*
X81979047Y-56294819D01*
X81979047Y-56294819D02*
X82074285Y-56342438D01*
X82074285Y-56342438D02*
X82121904Y-56390057D01*
X82121904Y-56390057D02*
X82169523Y-56485295D01*
X82169523Y-56485295D02*
X82217142Y-56675771D01*
X82217142Y-56675771D02*
X82217142Y-56913866D01*
X82217142Y-56913866D02*
X82169523Y-57104342D01*
X82169523Y-57104342D02*
X82121904Y-57199580D01*
X82121904Y-57199580D02*
X82074285Y-57247200D01*
X82074285Y-57247200D02*
X81979047Y-57294819D01*
X81979047Y-57294819D02*
X81883809Y-57294819D01*
X81883809Y-57294819D02*
X81788571Y-57247200D01*
X81788571Y-57247200D02*
X81740952Y-57199580D01*
X81740952Y-57199580D02*
X81693333Y-57104342D01*
X81693333Y-57104342D02*
X81645714Y-56913866D01*
X81645714Y-56913866D02*
X81645714Y-56675771D01*
X81645714Y-56675771D02*
X81693333Y-56485295D01*
X81693333Y-56485295D02*
X81740952Y-56390057D01*
X81740952Y-56390057D02*
X81788571Y-56342438D01*
X81788571Y-56342438D02*
X81883809Y-56294819D01*
X82645714Y-57294819D02*
X82645714Y-56294819D01*
X82740952Y-56913866D02*
X83026666Y-57294819D01*
X83026666Y-56628152D02*
X82645714Y-57009104D01*
X87713333Y-52279580D02*
X87665714Y-52327200D01*
X87665714Y-52327200D02*
X87522857Y-52374819D01*
X87522857Y-52374819D02*
X87427619Y-52374819D01*
X87427619Y-52374819D02*
X87284762Y-52327200D01*
X87284762Y-52327200D02*
X87189524Y-52231961D01*
X87189524Y-52231961D02*
X87141905Y-52136723D01*
X87141905Y-52136723D02*
X87094286Y-51946247D01*
X87094286Y-51946247D02*
X87094286Y-51803390D01*
X87094286Y-51803390D02*
X87141905Y-51612914D01*
X87141905Y-51612914D02*
X87189524Y-51517676D01*
X87189524Y-51517676D02*
X87284762Y-51422438D01*
X87284762Y-51422438D02*
X87427619Y-51374819D01*
X87427619Y-51374819D02*
X87522857Y-51374819D01*
X87522857Y-51374819D02*
X87665714Y-51422438D01*
X87665714Y-51422438D02*
X87713333Y-51470057D01*
X88046667Y-51374819D02*
X88665714Y-51374819D01*
X88665714Y-51374819D02*
X88332381Y-51755771D01*
X88332381Y-51755771D02*
X88475238Y-51755771D01*
X88475238Y-51755771D02*
X88570476Y-51803390D01*
X88570476Y-51803390D02*
X88618095Y-51851009D01*
X88618095Y-51851009D02*
X88665714Y-51946247D01*
X88665714Y-51946247D02*
X88665714Y-52184342D01*
X88665714Y-52184342D02*
X88618095Y-52279580D01*
X88618095Y-52279580D02*
X88570476Y-52327200D01*
X88570476Y-52327200D02*
X88475238Y-52374819D01*
X88475238Y-52374819D02*
X88189524Y-52374819D01*
X88189524Y-52374819D02*
X88094286Y-52327200D01*
X88094286Y-52327200D02*
X88046667Y-52279580D01*
X90861905Y-51374819D02*
X91480952Y-51374819D01*
X91480952Y-51374819D02*
X91147619Y-51755771D01*
X91147619Y-51755771D02*
X91290476Y-51755771D01*
X91290476Y-51755771D02*
X91385714Y-51803390D01*
X91385714Y-51803390D02*
X91433333Y-51851009D01*
X91433333Y-51851009D02*
X91480952Y-51946247D01*
X91480952Y-51946247D02*
X91480952Y-52184342D01*
X91480952Y-52184342D02*
X91433333Y-52279580D01*
X91433333Y-52279580D02*
X91385714Y-52327200D01*
X91385714Y-52327200D02*
X91290476Y-52374819D01*
X91290476Y-52374819D02*
X91004762Y-52374819D01*
X91004762Y-52374819D02*
X90909524Y-52327200D01*
X90909524Y-52327200D02*
X90861905Y-52279580D01*
X91814286Y-51374819D02*
X92433333Y-51374819D01*
X92433333Y-51374819D02*
X92100000Y-51755771D01*
X92100000Y-51755771D02*
X92242857Y-51755771D01*
X92242857Y-51755771D02*
X92338095Y-51803390D01*
X92338095Y-51803390D02*
X92385714Y-51851009D01*
X92385714Y-51851009D02*
X92433333Y-51946247D01*
X92433333Y-51946247D02*
X92433333Y-52184342D01*
X92433333Y-52184342D02*
X92385714Y-52279580D01*
X92385714Y-52279580D02*
X92338095Y-52327200D01*
X92338095Y-52327200D02*
X92242857Y-52374819D01*
X92242857Y-52374819D02*
X91957143Y-52374819D01*
X91957143Y-52374819D02*
X91861905Y-52327200D01*
X91861905Y-52327200D02*
X91814286Y-52279580D01*
X93052381Y-51374819D02*
X93147619Y-51374819D01*
X93147619Y-51374819D02*
X93242857Y-51422438D01*
X93242857Y-51422438D02*
X93290476Y-51470057D01*
X93290476Y-51470057D02*
X93338095Y-51565295D01*
X93338095Y-51565295D02*
X93385714Y-51755771D01*
X93385714Y-51755771D02*
X93385714Y-51993866D01*
X93385714Y-51993866D02*
X93338095Y-52184342D01*
X93338095Y-52184342D02*
X93290476Y-52279580D01*
X93290476Y-52279580D02*
X93242857Y-52327200D01*
X93242857Y-52327200D02*
X93147619Y-52374819D01*
X93147619Y-52374819D02*
X93052381Y-52374819D01*
X93052381Y-52374819D02*
X92957143Y-52327200D01*
X92957143Y-52327200D02*
X92909524Y-52279580D01*
X92909524Y-52279580D02*
X92861905Y-52184342D01*
X92861905Y-52184342D02*
X92814286Y-51993866D01*
X92814286Y-51993866D02*
X92814286Y-51755771D01*
X92814286Y-51755771D02*
X92861905Y-51565295D01*
X92861905Y-51565295D02*
X92909524Y-51470057D01*
X92909524Y-51470057D02*
X92957143Y-51422438D01*
X92957143Y-51422438D02*
X93052381Y-51374819D01*
X94242857Y-51708152D02*
X94242857Y-52374819D01*
X93814286Y-51708152D02*
X93814286Y-52231961D01*
X93814286Y-52231961D02*
X93861905Y-52327200D01*
X93861905Y-52327200D02*
X93957143Y-52374819D01*
X93957143Y-52374819D02*
X94100000Y-52374819D01*
X94100000Y-52374819D02*
X94195238Y-52327200D01*
X94195238Y-52327200D02*
X94242857Y-52279580D01*
X64493333Y-52374819D02*
X64160000Y-51898628D01*
X63921905Y-52374819D02*
X63921905Y-51374819D01*
X63921905Y-51374819D02*
X64302857Y-51374819D01*
X64302857Y-51374819D02*
X64398095Y-51422438D01*
X64398095Y-51422438D02*
X64445714Y-51470057D01*
X64445714Y-51470057D02*
X64493333Y-51565295D01*
X64493333Y-51565295D02*
X64493333Y-51708152D01*
X64493333Y-51708152D02*
X64445714Y-51803390D01*
X64445714Y-51803390D02*
X64398095Y-51851009D01*
X64398095Y-51851009D02*
X64302857Y-51898628D01*
X64302857Y-51898628D02*
X63921905Y-51898628D01*
X65445714Y-52374819D02*
X64874286Y-52374819D01*
X65160000Y-52374819D02*
X65160000Y-51374819D01*
X65160000Y-51374819D02*
X65064762Y-51517676D01*
X65064762Y-51517676D02*
X64969524Y-51612914D01*
X64969524Y-51612914D02*
X64874286Y-51660533D01*
X67460952Y-52374819D02*
X66889524Y-52374819D01*
X67175238Y-52374819D02*
X67175238Y-51374819D01*
X67175238Y-51374819D02*
X67080000Y-51517676D01*
X67080000Y-51517676D02*
X66984762Y-51612914D01*
X66984762Y-51612914D02*
X66889524Y-51660533D01*
X67889524Y-52374819D02*
X67889524Y-51374819D01*
X67984762Y-51993866D02*
X68270476Y-52374819D01*
X68270476Y-51708152D02*
X67889524Y-52089104D01*
X60723333Y-68834819D02*
X60390000Y-68358628D01*
X60151905Y-68834819D02*
X60151905Y-67834819D01*
X60151905Y-67834819D02*
X60532857Y-67834819D01*
X60532857Y-67834819D02*
X60628095Y-67882438D01*
X60628095Y-67882438D02*
X60675714Y-67930057D01*
X60675714Y-67930057D02*
X60723333Y-68025295D01*
X60723333Y-68025295D02*
X60723333Y-68168152D01*
X60723333Y-68168152D02*
X60675714Y-68263390D01*
X60675714Y-68263390D02*
X60628095Y-68311009D01*
X60628095Y-68311009D02*
X60532857Y-68358628D01*
X60532857Y-68358628D02*
X60151905Y-68358628D01*
X61056667Y-67834819D02*
X61675714Y-67834819D01*
X61675714Y-67834819D02*
X61342381Y-68215771D01*
X61342381Y-68215771D02*
X61485238Y-68215771D01*
X61485238Y-68215771D02*
X61580476Y-68263390D01*
X61580476Y-68263390D02*
X61628095Y-68311009D01*
X61628095Y-68311009D02*
X61675714Y-68406247D01*
X61675714Y-68406247D02*
X61675714Y-68644342D01*
X61675714Y-68644342D02*
X61628095Y-68739580D01*
X61628095Y-68739580D02*
X61580476Y-68787200D01*
X61580476Y-68787200D02*
X61485238Y-68834819D01*
X61485238Y-68834819D02*
X61199524Y-68834819D01*
X61199524Y-68834819D02*
X61104286Y-68787200D01*
X61104286Y-68787200D02*
X61056667Y-68739580D01*
X63040000Y-68767200D02*
X63182857Y-68814819D01*
X63182857Y-68814819D02*
X63420952Y-68814819D01*
X63420952Y-68814819D02*
X63516190Y-68767200D01*
X63516190Y-68767200D02*
X63563809Y-68719580D01*
X63563809Y-68719580D02*
X63611428Y-68624342D01*
X63611428Y-68624342D02*
X63611428Y-68529104D01*
X63611428Y-68529104D02*
X63563809Y-68433866D01*
X63563809Y-68433866D02*
X63516190Y-68386247D01*
X63516190Y-68386247D02*
X63420952Y-68338628D01*
X63420952Y-68338628D02*
X63230476Y-68291009D01*
X63230476Y-68291009D02*
X63135238Y-68243390D01*
X63135238Y-68243390D02*
X63087619Y-68195771D01*
X63087619Y-68195771D02*
X63040000Y-68100533D01*
X63040000Y-68100533D02*
X63040000Y-68005295D01*
X63040000Y-68005295D02*
X63087619Y-67910057D01*
X63087619Y-67910057D02*
X63135238Y-67862438D01*
X63135238Y-67862438D02*
X63230476Y-67814819D01*
X63230476Y-67814819D02*
X63468571Y-67814819D01*
X63468571Y-67814819D02*
X63611428Y-67862438D01*
X64420952Y-68767200D02*
X64325714Y-68814819D01*
X64325714Y-68814819D02*
X64135238Y-68814819D01*
X64135238Y-68814819D02*
X64040000Y-68767200D01*
X64040000Y-68767200D02*
X63992381Y-68671961D01*
X63992381Y-68671961D02*
X63992381Y-68291009D01*
X63992381Y-68291009D02*
X64040000Y-68195771D01*
X64040000Y-68195771D02*
X64135238Y-68148152D01*
X64135238Y-68148152D02*
X64325714Y-68148152D01*
X64325714Y-68148152D02*
X64420952Y-68195771D01*
X64420952Y-68195771D02*
X64468571Y-68291009D01*
X64468571Y-68291009D02*
X64468571Y-68386247D01*
X64468571Y-68386247D02*
X63992381Y-68481485D01*
X64897143Y-68148152D02*
X64897143Y-68814819D01*
X64897143Y-68243390D02*
X64944762Y-68195771D01*
X64944762Y-68195771D02*
X65040000Y-68148152D01*
X65040000Y-68148152D02*
X65182857Y-68148152D01*
X65182857Y-68148152D02*
X65278095Y-68195771D01*
X65278095Y-68195771D02*
X65325714Y-68291009D01*
X65325714Y-68291009D02*
X65325714Y-68814819D01*
X65754286Y-68767200D02*
X65849524Y-68814819D01*
X65849524Y-68814819D02*
X66040000Y-68814819D01*
X66040000Y-68814819D02*
X66135238Y-68767200D01*
X66135238Y-68767200D02*
X66182857Y-68671961D01*
X66182857Y-68671961D02*
X66182857Y-68624342D01*
X66182857Y-68624342D02*
X66135238Y-68529104D01*
X66135238Y-68529104D02*
X66040000Y-68481485D01*
X66040000Y-68481485D02*
X65897143Y-68481485D01*
X65897143Y-68481485D02*
X65801905Y-68433866D01*
X65801905Y-68433866D02*
X65754286Y-68338628D01*
X65754286Y-68338628D02*
X65754286Y-68291009D01*
X65754286Y-68291009D02*
X65801905Y-68195771D01*
X65801905Y-68195771D02*
X65897143Y-68148152D01*
X65897143Y-68148152D02*
X66040000Y-68148152D01*
X66040000Y-68148152D02*
X66135238Y-68195771D01*
X66992381Y-68767200D02*
X66897143Y-68814819D01*
X66897143Y-68814819D02*
X66706667Y-68814819D01*
X66706667Y-68814819D02*
X66611429Y-68767200D01*
X66611429Y-68767200D02*
X66563810Y-68671961D01*
X66563810Y-68671961D02*
X66563810Y-68291009D01*
X66563810Y-68291009D02*
X66611429Y-68195771D01*
X66611429Y-68195771D02*
X66706667Y-68148152D01*
X66706667Y-68148152D02*
X66897143Y-68148152D01*
X66897143Y-68148152D02*
X66992381Y-68195771D01*
X66992381Y-68195771D02*
X67040000Y-68291009D01*
X67040000Y-68291009D02*
X67040000Y-68386247D01*
X67040000Y-68386247D02*
X66563810Y-68481485D01*
X83606666Y-58824819D02*
X83606666Y-59539104D01*
X83606666Y-59539104D02*
X83559047Y-59681961D01*
X83559047Y-59681961D02*
X83463809Y-59777200D01*
X83463809Y-59777200D02*
X83320952Y-59824819D01*
X83320952Y-59824819D02*
X83225714Y-59824819D01*
X84082857Y-59824819D02*
X84082857Y-58824819D01*
X84082857Y-58824819D02*
X84463809Y-58824819D01*
X84463809Y-58824819D02*
X84559047Y-58872438D01*
X84559047Y-58872438D02*
X84606666Y-58920057D01*
X84606666Y-58920057D02*
X84654285Y-59015295D01*
X84654285Y-59015295D02*
X84654285Y-59158152D01*
X84654285Y-59158152D02*
X84606666Y-59253390D01*
X84606666Y-59253390D02*
X84559047Y-59301009D01*
X84559047Y-59301009D02*
X84463809Y-59348628D01*
X84463809Y-59348628D02*
X84082857Y-59348628D01*
X85606666Y-59824819D02*
X85035238Y-59824819D01*
X85320952Y-59824819D02*
X85320952Y-58824819D01*
X85320952Y-58824819D02*
X85225714Y-58967676D01*
X85225714Y-58967676D02*
X85130476Y-59062914D01*
X85130476Y-59062914D02*
X85035238Y-59110533D01*
X80281905Y-69384819D02*
X80281905Y-68384819D01*
X80281905Y-68384819D02*
X80520000Y-68384819D01*
X80520000Y-68384819D02*
X80662857Y-68432438D01*
X80662857Y-68432438D02*
X80758095Y-68527676D01*
X80758095Y-68527676D02*
X80805714Y-68622914D01*
X80805714Y-68622914D02*
X80853333Y-68813390D01*
X80853333Y-68813390D02*
X80853333Y-68956247D01*
X80853333Y-68956247D02*
X80805714Y-69146723D01*
X80805714Y-69146723D02*
X80758095Y-69241961D01*
X80758095Y-69241961D02*
X80662857Y-69337200D01*
X80662857Y-69337200D02*
X80520000Y-69384819D01*
X80520000Y-69384819D02*
X80281905Y-69384819D01*
X81805714Y-69384819D02*
X81234286Y-69384819D01*
X81520000Y-69384819D02*
X81520000Y-68384819D01*
X81520000Y-68384819D02*
X81424762Y-68527676D01*
X81424762Y-68527676D02*
X81329524Y-68622914D01*
X81329524Y-68622914D02*
X81234286Y-68670533D01*
X85190476Y-69284819D02*
X85190476Y-68284819D01*
X85190476Y-68284819D02*
X85523809Y-68999104D01*
X85523809Y-68999104D02*
X85857142Y-68284819D01*
X85857142Y-68284819D02*
X85857142Y-69284819D01*
X86761904Y-68618152D02*
X86761904Y-69284819D01*
X86523809Y-68237200D02*
X86285714Y-68951485D01*
X86285714Y-68951485D02*
X86904761Y-68951485D01*
X70443333Y-52374819D02*
X70110000Y-51898628D01*
X69871905Y-52374819D02*
X69871905Y-51374819D01*
X69871905Y-51374819D02*
X70252857Y-51374819D01*
X70252857Y-51374819D02*
X70348095Y-51422438D01*
X70348095Y-51422438D02*
X70395714Y-51470057D01*
X70395714Y-51470057D02*
X70443333Y-51565295D01*
X70443333Y-51565295D02*
X70443333Y-51708152D01*
X70443333Y-51708152D02*
X70395714Y-51803390D01*
X70395714Y-51803390D02*
X70348095Y-51851009D01*
X70348095Y-51851009D02*
X70252857Y-51898628D01*
X70252857Y-51898628D02*
X69871905Y-51898628D01*
X70824286Y-51470057D02*
X70871905Y-51422438D01*
X70871905Y-51422438D02*
X70967143Y-51374819D01*
X70967143Y-51374819D02*
X71205238Y-51374819D01*
X71205238Y-51374819D02*
X71300476Y-51422438D01*
X71300476Y-51422438D02*
X71348095Y-51470057D01*
X71348095Y-51470057D02*
X71395714Y-51565295D01*
X71395714Y-51565295D02*
X71395714Y-51660533D01*
X71395714Y-51660533D02*
X71348095Y-51803390D01*
X71348095Y-51803390D02*
X70776667Y-52374819D01*
X70776667Y-52374819D02*
X71395714Y-52374819D01*
X73084523Y-51708152D02*
X73084523Y-52374819D01*
X72846428Y-51327200D02*
X72608333Y-52041485D01*
X72608333Y-52041485D02*
X73227380Y-52041485D01*
X73608333Y-52374819D02*
X73608333Y-51374819D01*
X73703571Y-51993866D02*
X73989285Y-52374819D01*
X73989285Y-51708152D02*
X73608333Y-52089104D01*
X74322619Y-51374819D02*
X74989285Y-51374819D01*
X74989285Y-51374819D02*
X74560714Y-52374819D01*
X71738095Y-55009819D02*
X71738095Y-55819342D01*
X71738095Y-55819342D02*
X71785714Y-55914580D01*
X71785714Y-55914580D02*
X71833333Y-55962200D01*
X71833333Y-55962200D02*
X71928571Y-56009819D01*
X71928571Y-56009819D02*
X72119047Y-56009819D01*
X72119047Y-56009819D02*
X72214285Y-55962200D01*
X72214285Y-55962200D02*
X72261904Y-55914580D01*
X72261904Y-55914580D02*
X72309523Y-55819342D01*
X72309523Y-55819342D02*
X72309523Y-55009819D01*
X73309523Y-56009819D02*
X72738095Y-56009819D01*
X73023809Y-56009819D02*
X73023809Y-55009819D01*
X73023809Y-55009819D02*
X72928571Y-55152676D01*
X72928571Y-55152676D02*
X72833333Y-55247914D01*
X72833333Y-55247914D02*
X72738095Y-55295533D01*
X70261905Y-61929819D02*
X70880952Y-61929819D01*
X70880952Y-61929819D02*
X70547619Y-62310771D01*
X70547619Y-62310771D02*
X70690476Y-62310771D01*
X70690476Y-62310771D02*
X70785714Y-62358390D01*
X70785714Y-62358390D02*
X70833333Y-62406009D01*
X70833333Y-62406009D02*
X70880952Y-62501247D01*
X70880952Y-62501247D02*
X70880952Y-62739342D01*
X70880952Y-62739342D02*
X70833333Y-62834580D01*
X70833333Y-62834580D02*
X70785714Y-62882200D01*
X70785714Y-62882200D02*
X70690476Y-62929819D01*
X70690476Y-62929819D02*
X70404762Y-62929819D01*
X70404762Y-62929819D02*
X70309524Y-62882200D01*
X70309524Y-62882200D02*
X70261905Y-62834580D01*
X71214286Y-61929819D02*
X71833333Y-61929819D01*
X71833333Y-61929819D02*
X71500000Y-62310771D01*
X71500000Y-62310771D02*
X71642857Y-62310771D01*
X71642857Y-62310771D02*
X71738095Y-62358390D01*
X71738095Y-62358390D02*
X71785714Y-62406009D01*
X71785714Y-62406009D02*
X71833333Y-62501247D01*
X71833333Y-62501247D02*
X71833333Y-62739342D01*
X71833333Y-62739342D02*
X71785714Y-62834580D01*
X71785714Y-62834580D02*
X71738095Y-62882200D01*
X71738095Y-62882200D02*
X71642857Y-62929819D01*
X71642857Y-62929819D02*
X71357143Y-62929819D01*
X71357143Y-62929819D02*
X71261905Y-62882200D01*
X71261905Y-62882200D02*
X71214286Y-62834580D01*
X72452381Y-61929819D02*
X72547619Y-61929819D01*
X72547619Y-61929819D02*
X72642857Y-61977438D01*
X72642857Y-61977438D02*
X72690476Y-62025057D01*
X72690476Y-62025057D02*
X72738095Y-62120295D01*
X72738095Y-62120295D02*
X72785714Y-62310771D01*
X72785714Y-62310771D02*
X72785714Y-62548866D01*
X72785714Y-62548866D02*
X72738095Y-62739342D01*
X72738095Y-62739342D02*
X72690476Y-62834580D01*
X72690476Y-62834580D02*
X72642857Y-62882200D01*
X72642857Y-62882200D02*
X72547619Y-62929819D01*
X72547619Y-62929819D02*
X72452381Y-62929819D01*
X72452381Y-62929819D02*
X72357143Y-62882200D01*
X72357143Y-62882200D02*
X72309524Y-62834580D01*
X72309524Y-62834580D02*
X72261905Y-62739342D01*
X72261905Y-62739342D02*
X72214286Y-62548866D01*
X72214286Y-62548866D02*
X72214286Y-62310771D01*
X72214286Y-62310771D02*
X72261905Y-62120295D01*
X72261905Y-62120295D02*
X72309524Y-62025057D01*
X72309524Y-62025057D02*
X72357143Y-61977438D01*
X72357143Y-61977438D02*
X72452381Y-61929819D01*
X73642857Y-61929819D02*
X73452381Y-61929819D01*
X73452381Y-61929819D02*
X73357143Y-61977438D01*
X73357143Y-61977438D02*
X73309524Y-62025057D01*
X73309524Y-62025057D02*
X73214286Y-62167914D01*
X73214286Y-62167914D02*
X73166667Y-62358390D01*
X73166667Y-62358390D02*
X73166667Y-62739342D01*
X73166667Y-62739342D02*
X73214286Y-62834580D01*
X73214286Y-62834580D02*
X73261905Y-62882200D01*
X73261905Y-62882200D02*
X73357143Y-62929819D01*
X73357143Y-62929819D02*
X73547619Y-62929819D01*
X73547619Y-62929819D02*
X73642857Y-62882200D01*
X73642857Y-62882200D02*
X73690476Y-62834580D01*
X73690476Y-62834580D02*
X73738095Y-62739342D01*
X73738095Y-62739342D02*
X73738095Y-62501247D01*
X73738095Y-62501247D02*
X73690476Y-62406009D01*
X73690476Y-62406009D02*
X73642857Y-62358390D01*
X73642857Y-62358390D02*
X73547619Y-62310771D01*
X73547619Y-62310771D02*
X73357143Y-62310771D01*
X73357143Y-62310771D02*
X73261905Y-62358390D01*
X73261905Y-62358390D02*
X73214286Y-62406009D01*
X73214286Y-62406009D02*
X73166667Y-62501247D01*
X74071429Y-61929819D02*
X74690476Y-61929819D01*
X74690476Y-61929819D02*
X74357143Y-62310771D01*
X74357143Y-62310771D02*
X74500000Y-62310771D01*
X74500000Y-62310771D02*
X74595238Y-62358390D01*
X74595238Y-62358390D02*
X74642857Y-62406009D01*
X74642857Y-62406009D02*
X74690476Y-62501247D01*
X74690476Y-62501247D02*
X74690476Y-62739342D01*
X74690476Y-62739342D02*
X74642857Y-62834580D01*
X74642857Y-62834580D02*
X74595238Y-62882200D01*
X74595238Y-62882200D02*
X74500000Y-62929819D01*
X74500000Y-62929819D02*
X74214286Y-62929819D01*
X74214286Y-62929819D02*
X74119048Y-62882200D01*
X74119048Y-62882200D02*
X74071429Y-62834580D01*
X77513333Y-61789580D02*
X77465714Y-61837200D01*
X77465714Y-61837200D02*
X77322857Y-61884819D01*
X77322857Y-61884819D02*
X77227619Y-61884819D01*
X77227619Y-61884819D02*
X77084762Y-61837200D01*
X77084762Y-61837200D02*
X76989524Y-61741961D01*
X76989524Y-61741961D02*
X76941905Y-61646723D01*
X76941905Y-61646723D02*
X76894286Y-61456247D01*
X76894286Y-61456247D02*
X76894286Y-61313390D01*
X76894286Y-61313390D02*
X76941905Y-61122914D01*
X76941905Y-61122914D02*
X76989524Y-61027676D01*
X76989524Y-61027676D02*
X77084762Y-60932438D01*
X77084762Y-60932438D02*
X77227619Y-60884819D01*
X77227619Y-60884819D02*
X77322857Y-60884819D01*
X77322857Y-60884819D02*
X77465714Y-60932438D01*
X77465714Y-60932438D02*
X77513333Y-60980057D01*
X77894286Y-60980057D02*
X77941905Y-60932438D01*
X77941905Y-60932438D02*
X78037143Y-60884819D01*
X78037143Y-60884819D02*
X78275238Y-60884819D01*
X78275238Y-60884819D02*
X78370476Y-60932438D01*
X78370476Y-60932438D02*
X78418095Y-60980057D01*
X78418095Y-60980057D02*
X78465714Y-61075295D01*
X78465714Y-61075295D02*
X78465714Y-61170533D01*
X78465714Y-61170533D02*
X78418095Y-61313390D01*
X78418095Y-61313390D02*
X77846667Y-61884819D01*
X77846667Y-61884819D02*
X78465714Y-61884819D01*
X80353333Y-61884819D02*
X79781905Y-61884819D01*
X80067619Y-61884819D02*
X80067619Y-60884819D01*
X80067619Y-60884819D02*
X79972381Y-61027676D01*
X79972381Y-61027676D02*
X79877143Y-61122914D01*
X79877143Y-61122914D02*
X79781905Y-61170533D01*
X80781905Y-61218152D02*
X80781905Y-61884819D01*
X80781905Y-61313390D02*
X80829524Y-61265771D01*
X80829524Y-61265771D02*
X80924762Y-61218152D01*
X80924762Y-61218152D02*
X81067619Y-61218152D01*
X81067619Y-61218152D02*
X81162857Y-61265771D01*
X81162857Y-61265771D02*
X81210476Y-61361009D01*
X81210476Y-61361009D02*
X81210476Y-61884819D01*
D14*
%TO.C,C1*%
X51509000Y-56752000D02*
X51509000Y-55948000D01*
X51549000Y-56983000D02*
X51549000Y-55717000D01*
X51589000Y-57152000D02*
X51589000Y-55548000D01*
X51629000Y-57290000D02*
X51629000Y-55410000D01*
X51669000Y-57409000D02*
X51669000Y-55291000D01*
X51709000Y-57515000D02*
X51709000Y-55185000D01*
X51749000Y-57612000D02*
X51749000Y-55088000D01*
X51789000Y-57700000D02*
X51789000Y-55000000D01*
X51829000Y-57782000D02*
X51829000Y-54918000D01*
X51869000Y-57859000D02*
X51869000Y-54841000D01*
X51909000Y-57931000D02*
X51909000Y-54769000D01*
X51949000Y-58000000D02*
X51949000Y-54700000D01*
X51989000Y-58064000D02*
X51989000Y-54636000D01*
X52029000Y-58126000D02*
X52029000Y-54574000D01*
X52069000Y-58184000D02*
X52069000Y-54516000D01*
X52109000Y-58240000D02*
X52109000Y-54460000D01*
X52149000Y-58294000D02*
X52149000Y-54406000D01*
X52189000Y-58345000D02*
X52189000Y-54355000D01*
X52229000Y-58394000D02*
X52229000Y-54306000D01*
X52269000Y-58442000D02*
X52269000Y-54258000D01*
X52309000Y-58487000D02*
X52309000Y-54213000D01*
X52349000Y-58532000D02*
X52349000Y-54168000D01*
X52389000Y-58574000D02*
X52389000Y-54126000D01*
X52429000Y-58615000D02*
X52429000Y-54085000D01*
X52469000Y-55310000D02*
X52469000Y-54045000D01*
X52469000Y-58655000D02*
X52469000Y-57390000D01*
X52509000Y-55310000D02*
X52509000Y-54007000D01*
X52509000Y-58693000D02*
X52509000Y-57390000D01*
X52549000Y-55310000D02*
X52549000Y-53970000D01*
X52549000Y-58730000D02*
X52549000Y-57390000D01*
X52589000Y-55310000D02*
X52589000Y-53934000D01*
X52589000Y-58766000D02*
X52589000Y-57390000D01*
X52629000Y-55310000D02*
X52629000Y-53900000D01*
X52629000Y-58800000D02*
X52629000Y-57390000D01*
X52669000Y-55310000D02*
X52669000Y-53866000D01*
X52669000Y-58834000D02*
X52669000Y-57390000D01*
X52709000Y-55310000D02*
X52709000Y-53834000D01*
X52709000Y-58866000D02*
X52709000Y-57390000D01*
X52749000Y-55310000D02*
X52749000Y-53802000D01*
X52749000Y-58898000D02*
X52749000Y-57390000D01*
X52789000Y-55310000D02*
X52789000Y-53772000D01*
X52789000Y-58928000D02*
X52789000Y-57390000D01*
X52829000Y-55310000D02*
X52829000Y-53743000D01*
X52829000Y-58957000D02*
X52829000Y-57390000D01*
X52869000Y-55310000D02*
X52869000Y-53714000D01*
X52869000Y-58986000D02*
X52869000Y-57390000D01*
X52909000Y-55310000D02*
X52909000Y-53686000D01*
X52909000Y-59014000D02*
X52909000Y-57390000D01*
X52949000Y-55310000D02*
X52949000Y-53660000D01*
X52949000Y-59040000D02*
X52949000Y-57390000D01*
X52989000Y-55310000D02*
X52989000Y-53634000D01*
X52989000Y-59066000D02*
X52989000Y-57390000D01*
X53029000Y-55310000D02*
X53029000Y-53608000D01*
X53029000Y-59092000D02*
X53029000Y-57390000D01*
X53069000Y-55310000D02*
X53069000Y-53584000D01*
X53069000Y-59116000D02*
X53069000Y-57390000D01*
X53109000Y-55310000D02*
X53109000Y-53560000D01*
X53109000Y-59140000D02*
X53109000Y-57390000D01*
X53149000Y-55310000D02*
X53149000Y-53538000D01*
X53149000Y-59162000D02*
X53149000Y-57390000D01*
X53189000Y-55310000D02*
X53189000Y-53516000D01*
X53189000Y-59184000D02*
X53189000Y-57390000D01*
X53229000Y-55310000D02*
X53229000Y-53494000D01*
X53229000Y-59206000D02*
X53229000Y-57390000D01*
X53269000Y-55310000D02*
X53269000Y-53474000D01*
X53269000Y-59226000D02*
X53269000Y-57390000D01*
X53309000Y-55310000D02*
X53309000Y-53454000D01*
X53309000Y-59246000D02*
X53309000Y-57390000D01*
X53349000Y-55310000D02*
X53349000Y-53434000D01*
X53349000Y-59266000D02*
X53349000Y-57390000D01*
X53389000Y-55310000D02*
X53389000Y-53416000D01*
X53389000Y-59284000D02*
X53389000Y-57390000D01*
X53429000Y-55310000D02*
X53429000Y-53398000D01*
X53429000Y-59302000D02*
X53429000Y-57390000D01*
X53469000Y-55310000D02*
X53469000Y-53380000D01*
X53469000Y-59320000D02*
X53469000Y-57390000D01*
X53509000Y-55310000D02*
X53509000Y-53364000D01*
X53509000Y-59336000D02*
X53509000Y-57390000D01*
X53549000Y-55310000D02*
X53549000Y-53348000D01*
X53549000Y-59352000D02*
X53549000Y-57390000D01*
X53589000Y-55310000D02*
X53589000Y-53332000D01*
X53589000Y-59368000D02*
X53589000Y-57390000D01*
X53629000Y-55310000D02*
X53629000Y-53317000D01*
X53629000Y-59383000D02*
X53629000Y-57390000D01*
X53669000Y-55310000D02*
X53669000Y-53303000D01*
X53669000Y-59397000D02*
X53669000Y-57390000D01*
X53709000Y-55310000D02*
X53709000Y-53289000D01*
X53709000Y-59411000D02*
X53709000Y-57390000D01*
X53749000Y-55310000D02*
X53749000Y-53276000D01*
X53749000Y-59424000D02*
X53749000Y-57390000D01*
X53789000Y-55310000D02*
X53789000Y-53264000D01*
X53789000Y-59436000D02*
X53789000Y-57390000D01*
X53829000Y-55310000D02*
X53829000Y-53252000D01*
X53829000Y-59448000D02*
X53829000Y-57390000D01*
X53869000Y-55310000D02*
X53869000Y-53240000D01*
X53869000Y-59460000D02*
X53869000Y-57390000D01*
X53909000Y-55310000D02*
X53909000Y-53229000D01*
X53909000Y-59471000D02*
X53909000Y-57390000D01*
X53949000Y-55310000D02*
X53949000Y-53219000D01*
X53949000Y-59481000D02*
X53949000Y-57390000D01*
X53989000Y-55310000D02*
X53989000Y-53209000D01*
X53989000Y-59491000D02*
X53989000Y-57390000D01*
X54029000Y-55310000D02*
X54029000Y-53200000D01*
X54029000Y-59500000D02*
X54029000Y-57390000D01*
X54070000Y-55310000D02*
X54070000Y-53191000D01*
X54070000Y-59509000D02*
X54070000Y-57390000D01*
X54110000Y-55310000D02*
X54110000Y-53183000D01*
X54110000Y-59517000D02*
X54110000Y-57390000D01*
X54150000Y-55310000D02*
X54150000Y-53175000D01*
X54150000Y-59525000D02*
X54150000Y-57390000D01*
X54190000Y-55310000D02*
X54190000Y-53168000D01*
X54190000Y-59532000D02*
X54190000Y-57390000D01*
X54230000Y-55310000D02*
X54230000Y-53161000D01*
X54230000Y-59539000D02*
X54230000Y-57390000D01*
X54270000Y-55310000D02*
X54270000Y-53155000D01*
X54270000Y-59545000D02*
X54270000Y-57390000D01*
X54310000Y-55310000D02*
X54310000Y-53149000D01*
X54310000Y-59551000D02*
X54310000Y-57390000D01*
X54350000Y-55310000D02*
X54350000Y-53144000D01*
X54350000Y-59556000D02*
X54350000Y-57390000D01*
X54390000Y-55310000D02*
X54390000Y-53139000D01*
X54390000Y-59561000D02*
X54390000Y-57390000D01*
X54430000Y-55310000D02*
X54430000Y-53135000D01*
X54430000Y-59565000D02*
X54430000Y-57390000D01*
X54470000Y-55310000D02*
X54470000Y-53132000D01*
X54470000Y-59568000D02*
X54470000Y-57390000D01*
X54510000Y-55310000D02*
X54510000Y-53128000D01*
X54510000Y-59572000D02*
X54510000Y-57390000D01*
X54550000Y-59574000D02*
X54550000Y-53126000D01*
X54590000Y-59577000D02*
X54590000Y-53123000D01*
X54630000Y-59578000D02*
X54630000Y-53122000D01*
X54670000Y-59580000D02*
X54670000Y-53120000D01*
X54710000Y-59580000D02*
X54710000Y-53120000D01*
X54750000Y-59580000D02*
X54750000Y-53120000D01*
X57935241Y-58504000D02*
X57935241Y-57874000D01*
X58250241Y-58189000D02*
X57620241Y-58189000D01*
X58020000Y-56350000D02*
G75*
G02*
X51480000Y-56350000I-3270000J0D01*
G01*
X51480000Y-56350000D02*
G75*
G02*
X58020000Y-56350000I3270000J0D01*
G01*
%TO.C,R4*%
X62272936Y-61765000D02*
X62727064Y-61765000D01*
X62272936Y-63235000D02*
X62727064Y-63235000D01*
%TO.C,RV1*%
X76155000Y-56030000D02*
X76155000Y-50960000D01*
X85925000Y-50960000D02*
X76155000Y-50960000D01*
X85925000Y-56030000D02*
X76155000Y-56030000D01*
X85925000Y-56030000D02*
X85925000Y-50960000D01*
%TO.C,C3*%
X86749759Y-54511000D02*
X87379759Y-54511000D01*
X87064759Y-54196000D02*
X87064759Y-54826000D01*
X90250000Y-53120000D02*
X90250000Y-59580000D01*
X90290000Y-53120000D02*
X90290000Y-59580000D01*
X90330000Y-53120000D02*
X90330000Y-59580000D01*
X90370000Y-53122000D02*
X90370000Y-59578000D01*
X90410000Y-53123000D02*
X90410000Y-59577000D01*
X90450000Y-53126000D02*
X90450000Y-59574000D01*
X90490000Y-53128000D02*
X90490000Y-55310000D01*
X90490000Y-57390000D02*
X90490000Y-59572000D01*
X90530000Y-53132000D02*
X90530000Y-55310000D01*
X90530000Y-57390000D02*
X90530000Y-59568000D01*
X90570000Y-53135000D02*
X90570000Y-55310000D01*
X90570000Y-57390000D02*
X90570000Y-59565000D01*
X90610000Y-53139000D02*
X90610000Y-55310000D01*
X90610000Y-57390000D02*
X90610000Y-59561000D01*
X90650000Y-53144000D02*
X90650000Y-55310000D01*
X90650000Y-57390000D02*
X90650000Y-59556000D01*
X90690000Y-53149000D02*
X90690000Y-55310000D01*
X90690000Y-57390000D02*
X90690000Y-59551000D01*
X90730000Y-53155000D02*
X90730000Y-55310000D01*
X90730000Y-57390000D02*
X90730000Y-59545000D01*
X90770000Y-53161000D02*
X90770000Y-55310000D01*
X90770000Y-57390000D02*
X90770000Y-59539000D01*
X90810000Y-53168000D02*
X90810000Y-55310000D01*
X90810000Y-57390000D02*
X90810000Y-59532000D01*
X90850000Y-53175000D02*
X90850000Y-55310000D01*
X90850000Y-57390000D02*
X90850000Y-59525000D01*
X90890000Y-53183000D02*
X90890000Y-55310000D01*
X90890000Y-57390000D02*
X90890000Y-59517000D01*
X90930000Y-53191000D02*
X90930000Y-55310000D01*
X90930000Y-57390000D02*
X90930000Y-59509000D01*
X90971000Y-53200000D02*
X90971000Y-55310000D01*
X90971000Y-57390000D02*
X90971000Y-59500000D01*
X91011000Y-53209000D02*
X91011000Y-55310000D01*
X91011000Y-57390000D02*
X91011000Y-59491000D01*
X91051000Y-53219000D02*
X91051000Y-55310000D01*
X91051000Y-57390000D02*
X91051000Y-59481000D01*
X91091000Y-53229000D02*
X91091000Y-55310000D01*
X91091000Y-57390000D02*
X91091000Y-59471000D01*
X91131000Y-53240000D02*
X91131000Y-55310000D01*
X91131000Y-57390000D02*
X91131000Y-59460000D01*
X91171000Y-53252000D02*
X91171000Y-55310000D01*
X91171000Y-57390000D02*
X91171000Y-59448000D01*
X91211000Y-53264000D02*
X91211000Y-55310000D01*
X91211000Y-57390000D02*
X91211000Y-59436000D01*
X91251000Y-53276000D02*
X91251000Y-55310000D01*
X91251000Y-57390000D02*
X91251000Y-59424000D01*
X91291000Y-53289000D02*
X91291000Y-55310000D01*
X91291000Y-57390000D02*
X91291000Y-59411000D01*
X91331000Y-53303000D02*
X91331000Y-55310000D01*
X91331000Y-57390000D02*
X91331000Y-59397000D01*
X91371000Y-53317000D02*
X91371000Y-55310000D01*
X91371000Y-57390000D02*
X91371000Y-59383000D01*
X91411000Y-53332000D02*
X91411000Y-55310000D01*
X91411000Y-57390000D02*
X91411000Y-59368000D01*
X91451000Y-53348000D02*
X91451000Y-55310000D01*
X91451000Y-57390000D02*
X91451000Y-59352000D01*
X91491000Y-53364000D02*
X91491000Y-55310000D01*
X91491000Y-57390000D02*
X91491000Y-59336000D01*
X91531000Y-53380000D02*
X91531000Y-55310000D01*
X91531000Y-57390000D02*
X91531000Y-59320000D01*
X91571000Y-53398000D02*
X91571000Y-55310000D01*
X91571000Y-57390000D02*
X91571000Y-59302000D01*
X91611000Y-53416000D02*
X91611000Y-55310000D01*
X91611000Y-57390000D02*
X91611000Y-59284000D01*
X91651000Y-53434000D02*
X91651000Y-55310000D01*
X91651000Y-57390000D02*
X91651000Y-59266000D01*
X91691000Y-53454000D02*
X91691000Y-55310000D01*
X91691000Y-57390000D02*
X91691000Y-59246000D01*
X91731000Y-53474000D02*
X91731000Y-55310000D01*
X91731000Y-57390000D02*
X91731000Y-59226000D01*
X91771000Y-53494000D02*
X91771000Y-55310000D01*
X91771000Y-57390000D02*
X91771000Y-59206000D01*
X91811000Y-53516000D02*
X91811000Y-55310000D01*
X91811000Y-57390000D02*
X91811000Y-59184000D01*
X91851000Y-53538000D02*
X91851000Y-55310000D01*
X91851000Y-57390000D02*
X91851000Y-59162000D01*
X91891000Y-53560000D02*
X91891000Y-55310000D01*
X91891000Y-57390000D02*
X91891000Y-59140000D01*
X91931000Y-53584000D02*
X91931000Y-55310000D01*
X91931000Y-57390000D02*
X91931000Y-59116000D01*
X91971000Y-53608000D02*
X91971000Y-55310000D01*
X91971000Y-57390000D02*
X91971000Y-59092000D01*
X92011000Y-53634000D02*
X92011000Y-55310000D01*
X92011000Y-57390000D02*
X92011000Y-59066000D01*
X92051000Y-53660000D02*
X92051000Y-55310000D01*
X92051000Y-57390000D02*
X92051000Y-59040000D01*
X92091000Y-53686000D02*
X92091000Y-55310000D01*
X92091000Y-57390000D02*
X92091000Y-59014000D01*
X92131000Y-53714000D02*
X92131000Y-55310000D01*
X92131000Y-57390000D02*
X92131000Y-58986000D01*
X92171000Y-53743000D02*
X92171000Y-55310000D01*
X92171000Y-57390000D02*
X92171000Y-58957000D01*
X92211000Y-53772000D02*
X92211000Y-55310000D01*
X92211000Y-57390000D02*
X92211000Y-58928000D01*
X92251000Y-53802000D02*
X92251000Y-55310000D01*
X92251000Y-57390000D02*
X92251000Y-58898000D01*
X92291000Y-53834000D02*
X92291000Y-55310000D01*
X92291000Y-57390000D02*
X92291000Y-58866000D01*
X92331000Y-53866000D02*
X92331000Y-55310000D01*
X92331000Y-57390000D02*
X92331000Y-58834000D01*
X92371000Y-53900000D02*
X92371000Y-55310000D01*
X92371000Y-57390000D02*
X92371000Y-58800000D01*
X92411000Y-53934000D02*
X92411000Y-55310000D01*
X92411000Y-57390000D02*
X92411000Y-58766000D01*
X92451000Y-53970000D02*
X92451000Y-55310000D01*
X92451000Y-57390000D02*
X92451000Y-58730000D01*
X92491000Y-54007000D02*
X92491000Y-55310000D01*
X92491000Y-57390000D02*
X92491000Y-58693000D01*
X92531000Y-54045000D02*
X92531000Y-55310000D01*
X92531000Y-57390000D02*
X92531000Y-58655000D01*
X92571000Y-54085000D02*
X92571000Y-58615000D01*
X92611000Y-54126000D02*
X92611000Y-58574000D01*
X92651000Y-54168000D02*
X92651000Y-58532000D01*
X92691000Y-54213000D02*
X92691000Y-58487000D01*
X92731000Y-54258000D02*
X92731000Y-58442000D01*
X92771000Y-54306000D02*
X92771000Y-58394000D01*
X92811000Y-54355000D02*
X92811000Y-58345000D01*
X92851000Y-54406000D02*
X92851000Y-58294000D01*
X92891000Y-54460000D02*
X92891000Y-58240000D01*
X92931000Y-54516000D02*
X92931000Y-58184000D01*
X92971000Y-54574000D02*
X92971000Y-58126000D01*
X93011000Y-54636000D02*
X93011000Y-58064000D01*
X93051000Y-54700000D02*
X93051000Y-58000000D01*
X93091000Y-54769000D02*
X93091000Y-57931000D01*
X93131000Y-54841000D02*
X93131000Y-57859000D01*
X93171000Y-54918000D02*
X93171000Y-57782000D01*
X93211000Y-55000000D02*
X93211000Y-57700000D01*
X93251000Y-55088000D02*
X93251000Y-57612000D01*
X93291000Y-55185000D02*
X93291000Y-57515000D01*
X93331000Y-55291000D02*
X93331000Y-57409000D01*
X93371000Y-55410000D02*
X93371000Y-57290000D01*
X93411000Y-55548000D02*
X93411000Y-57152000D01*
X93451000Y-55717000D02*
X93451000Y-56983000D01*
X93491000Y-55948000D02*
X93491000Y-56752000D01*
X93520000Y-56350000D02*
G75*
G02*
X86980000Y-56350000I-3270000J0D01*
G01*
X86980000Y-56350000D02*
G75*
G02*
X93520000Y-56350000I3270000J0D01*
G01*
%TO.C,R1*%
X66002936Y-52795000D02*
X66457064Y-52795000D01*
X66002936Y-54265000D02*
X66457064Y-54265000D01*
%TO.C,R3*%
X61500000Y-67460000D02*
X64360000Y-67460000D01*
X64360000Y-65540000D02*
X61500000Y-65540000D01*
X64360000Y-67460000D02*
X64360000Y-65540000D01*
%TO.C,JP1*%
X83040000Y-57870000D02*
X83040000Y-57270000D01*
X83740000Y-56570000D02*
X85140000Y-56570000D01*
X85140000Y-58570000D02*
X83740000Y-58570000D01*
X85840000Y-57270000D02*
X85840000Y-57870000D01*
X83040000Y-57270000D02*
G75*
G02*
X83740000Y-56570000I700000J0D01*
G01*
X83740000Y-58570000D02*
G75*
G02*
X83040000Y-57870000I0J700000D01*
G01*
X85140000Y-56570000D02*
G75*
G02*
X85840000Y-57270000I1J-699999D01*
G01*
X85840000Y-57870000D02*
G75*
G02*
X85140000Y-58570000I-699999J-1D01*
G01*
D10*
%TO.C,D1*%
X83090000Y-65750000D02*
X83090000Y-66500000D01*
X83090000Y-66500000D02*
X82850000Y-66500000D01*
X83090000Y-66500000D02*
X83090000Y-67300000D01*
X83090000Y-67300000D02*
X84240000Y-66500000D01*
X84240000Y-65700000D02*
X84240000Y-67300000D01*
X84240000Y-66500000D02*
X83090000Y-65750000D01*
X84240000Y-66500000D02*
X84330000Y-66500000D01*
D14*
X88100000Y-64850000D02*
X81090000Y-64850000D01*
X88100000Y-68150000D02*
X81090000Y-68150000D01*
X88100000Y-68150000D02*
X88100000Y-64850000D01*
%TO.C,R2*%
X72272936Y-52765000D02*
X72727064Y-52765000D01*
X72272936Y-54235000D02*
X72727064Y-54235000D01*
%TO.C,U1*%
X72500000Y-56440000D02*
X70550000Y-56440000D01*
X72500000Y-56440000D02*
X74450000Y-56440000D01*
X72500000Y-61560000D02*
X70550000Y-61560000D01*
X72500000Y-61560000D02*
X74450000Y-61560000D01*
X75440000Y-61795000D02*
X74960000Y-61795000D01*
X75200000Y-61465000D01*
X75440000Y-61795000D01*
G36*
X75440000Y-61795000D02*
G01*
X74960000Y-61795000D01*
X75200000Y-61465000D01*
X75440000Y-61795000D01*
G37*
%TO.C,C2*%
X79141248Y-59045000D02*
X79663752Y-59045000D01*
X79141248Y-60515000D02*
X79663752Y-60515000D01*
%TD*%
M02*
