%TF.GenerationSoftware,KiCad,Pcbnew,8.0.4*%
%TF.CreationDate,2025-01-06T15:08:45+00:00*%
%TF.ProjectId,33063_boost,33333036-335f-4626-9f6f-73742e6b6963,rev?*%
%TF.SameCoordinates,Original*%
%TF.FileFunction,Copper,L2,Bot*%
%TF.FilePolarity,Positive*%
%FSLAX46Y46*%
G04 Gerber Fmt 4.6, Leading zero omitted, Abs format (unit mm)*
G04 Created by KiCad (PCBNEW 8.0.4) date 2025-01-06 15:08:45*
%MOMM*%
%LPD*%
G01*
G04 APERTURE LIST*
G04 Aperture macros list*
%AMRoundRect*
0 Rectangle with rounded corners*
0 $1 Rounding radius*
0 $2 $3 $4 $5 $6 $7 $8 $9 X,Y pos of 4 corners*
0 Add a 4 corners polygon primitive as box body*
4,1,4,$2,$3,$4,$5,$6,$7,$8,$9,$2,$3,0*
0 Add four circle primitives for the rounded corners*
1,1,$1+$1,$2,$3*
1,1,$1+$1,$4,$5*
1,1,$1+$1,$6,$7*
1,1,$1+$1,$8,$9*
0 Add four rect primitives between the rounded corners*
20,1,$1+$1,$2,$3,$4,$5,0*
20,1,$1+$1,$4,$5,$6,$7,0*
20,1,$1+$1,$6,$7,$8,$9,0*
20,1,$1+$1,$8,$9,$2,$3,0*%
G04 Aperture macros list end*
%TA.AperFunction,ComponentPad*%
%ADD10R,1.600000X1.600000*%
%TD*%
%TA.AperFunction,ComponentPad*%
%ADD11C,1.600000*%
%TD*%
%TA.AperFunction,ComponentPad*%
%ADD12C,1.800000*%
%TD*%
%TA.AperFunction,ComponentPad*%
%ADD13RoundRect,0.250000X-0.500000X-1.750000X0.500000X-1.750000X0.500000X1.750000X-0.500000X1.750000X0*%
%TD*%
%TA.AperFunction,ViaPad*%
%ADD14C,0.600000*%
%TD*%
%TA.AperFunction,Conductor*%
%ADD15C,2.000000*%
%TD*%
%TA.AperFunction,Conductor*%
%ADD16C,0.800000*%
%TD*%
%TA.AperFunction,Conductor*%
%ADD17C,0.600000*%
%TD*%
G04 APERTURE END LIST*
D10*
%TO.P,C1,1*%
%TO.N,/Vin*%
X57000000Y-57600000D03*
D11*
%TO.P,C1,2*%
%TO.N,GND1*%
X57000000Y-55100000D03*
%TD*%
D12*
%TO.P,RV1,1,1*%
%TO.N,Net-(JP1-B)*%
X68185000Y-56260000D03*
%TO.P,RV1,2,2*%
%TO.N,GND1*%
X65645000Y-61340000D03*
%TO.P,RV1,3,3*%
X63105000Y-56260000D03*
%TD*%
D10*
%TO.P,C3,1*%
%TO.N,/Vout*%
X90000000Y-56350000D03*
D11*
%TO.P,C3,2*%
%TO.N,GND1*%
X92500000Y-56350000D03*
%TD*%
D13*
%TO.P,J2,1,Pin_1*%
%TO.N,/Vout*%
X91280000Y-68000000D03*
%TO.P,J2,2,Pin_2*%
%TO.N,GND1*%
X93820000Y-68000000D03*
%TD*%
%TO.P,J1,1,Pin_1*%
%TO.N,GND1*%
X53180000Y-68000000D03*
%TO.P,J1,2,Pin_2*%
%TO.N,/Vin*%
X55720000Y-68000000D03*
%TD*%
D14*
%TO.N,GND1*%
X80195000Y-55122857D03*
%TD*%
D15*
%TO.N,GND1*%
X93820000Y-68000000D02*
X93820000Y-62675000D01*
X55195000Y-55100000D02*
X61945000Y-55100000D01*
X55195000Y-55100000D02*
X57000000Y-55100000D01*
X53175000Y-68000000D02*
X52595000Y-67420000D01*
D16*
X80195000Y-59750000D02*
X80245000Y-59800000D01*
D17*
X93820000Y-58890000D02*
X93820000Y-57670000D01*
D15*
X91855000Y-58890000D02*
X93820000Y-58890000D01*
X90945000Y-59800000D02*
X91855000Y-58890000D01*
D16*
X53175000Y-68000000D02*
X53175000Y-66150000D01*
D15*
X52595000Y-67420000D02*
X52595000Y-57700000D01*
X66285000Y-61340000D02*
X67825000Y-59800000D01*
X52595000Y-57700000D02*
X55195000Y-55100000D01*
X61945000Y-55100000D02*
X63105000Y-56260000D01*
X93820000Y-62675000D02*
X90945000Y-59800000D01*
X63105000Y-58800000D02*
X65645000Y-61340000D01*
X67825000Y-59800000D02*
X80245000Y-59800000D01*
D17*
X93820000Y-57670000D02*
X92500000Y-56350000D01*
D15*
X65645000Y-61340000D02*
X66285000Y-61340000D01*
D16*
X80195000Y-55122857D02*
X80195000Y-59750000D01*
D15*
X90945000Y-59800000D02*
X80245000Y-59800000D01*
X63105000Y-56260000D02*
X63105000Y-58800000D01*
%TD*%
%TA.AperFunction,Conductor*%
%TO.N,GND1*%
G36*
X95438039Y-51519685D02*
G01*
X95483794Y-51572489D01*
X95495000Y-51624000D01*
X95495000Y-69375500D01*
X95475315Y-69442539D01*
X95422511Y-69488294D01*
X95371000Y-69499500D01*
X95017309Y-69499500D01*
X94950270Y-69479815D01*
X94929628Y-69463181D01*
X93866447Y-68400000D01*
X93872661Y-68400000D01*
X93974394Y-68372741D01*
X94065606Y-68320080D01*
X94140080Y-68245606D01*
X94192741Y-68154394D01*
X94220000Y-68052661D01*
X94220000Y-68046448D01*
X95069998Y-68896446D01*
X95069999Y-68896445D01*
X95069999Y-67103553D01*
X95069998Y-67103552D01*
X94220000Y-67953551D01*
X94220000Y-67947339D01*
X94192741Y-67845606D01*
X94140080Y-67754394D01*
X94065606Y-67679920D01*
X93974394Y-67627259D01*
X93872661Y-67600000D01*
X93866447Y-67600000D01*
X95069998Y-66396447D01*
X95069999Y-66396446D01*
X95069999Y-66200028D01*
X95069998Y-66200013D01*
X95059505Y-66097302D01*
X95004358Y-65930880D01*
X95004356Y-65930875D01*
X94912315Y-65781654D01*
X94788345Y-65657684D01*
X94639124Y-65565643D01*
X94639119Y-65565641D01*
X94472697Y-65510494D01*
X94472690Y-65510493D01*
X94369980Y-65500000D01*
X93270028Y-65500000D01*
X93270012Y-65500001D01*
X93167302Y-65510494D01*
X93000880Y-65565641D01*
X93000875Y-65565643D01*
X92851654Y-65657684D01*
X92727683Y-65781655D01*
X92727680Y-65781659D01*
X92655831Y-65898144D01*
X92603883Y-65944869D01*
X92534920Y-65956090D01*
X92470838Y-65928247D01*
X92444754Y-65898144D01*
X92372906Y-65781659D01*
X92372712Y-65781344D01*
X92248656Y-65657288D01*
X92099334Y-65565186D01*
X91932797Y-65510001D01*
X91932795Y-65510000D01*
X91830010Y-65499500D01*
X90729998Y-65499500D01*
X90729980Y-65499501D01*
X90627203Y-65510000D01*
X90627200Y-65510001D01*
X90460668Y-65565185D01*
X90460663Y-65565187D01*
X90311342Y-65657289D01*
X90187289Y-65781342D01*
X90095187Y-65930663D01*
X90095185Y-65930668D01*
X90086761Y-65956090D01*
X90040001Y-66097203D01*
X90040001Y-66097204D01*
X90040000Y-66097204D01*
X90029500Y-66199983D01*
X90029500Y-66199991D01*
X90029500Y-67845606D01*
X90029501Y-69375500D01*
X90009816Y-69442539D01*
X89957012Y-69488294D01*
X89905501Y-69499500D01*
X57094500Y-69499500D01*
X57027461Y-69479815D01*
X56981706Y-69427011D01*
X56970500Y-69375500D01*
X56970499Y-66199998D01*
X56970498Y-66199981D01*
X56959999Y-66097203D01*
X56959998Y-66097200D01*
X56904814Y-65930666D01*
X56812712Y-65781344D01*
X56688656Y-65657288D01*
X56539334Y-65565186D01*
X56372797Y-65510001D01*
X56372795Y-65510000D01*
X56270010Y-65499500D01*
X55169998Y-65499500D01*
X55169980Y-65499501D01*
X55067203Y-65510000D01*
X55067200Y-65510001D01*
X54900668Y-65565185D01*
X54900663Y-65565187D01*
X54751342Y-65657289D01*
X54627288Y-65781343D01*
X54627285Y-65781347D01*
X54555244Y-65898144D01*
X54503296Y-65944869D01*
X54434334Y-65956090D01*
X54370252Y-65928247D01*
X54344167Y-65898144D01*
X54272315Y-65781654D01*
X54148345Y-65657684D01*
X53999124Y-65565643D01*
X53999119Y-65565641D01*
X53832697Y-65510494D01*
X53832690Y-65510493D01*
X53729980Y-65500000D01*
X52630028Y-65500000D01*
X52630012Y-65500001D01*
X52527302Y-65510494D01*
X52360880Y-65565641D01*
X52360875Y-65565643D01*
X52211654Y-65657684D01*
X52087684Y-65781654D01*
X51995643Y-65930875D01*
X51995641Y-65930880D01*
X51940494Y-66097302D01*
X51940493Y-66097309D01*
X51930000Y-66200013D01*
X51930000Y-66396447D01*
X53133553Y-67600000D01*
X53127339Y-67600000D01*
X53025606Y-67627259D01*
X52934394Y-67679920D01*
X52859920Y-67754394D01*
X52807259Y-67845606D01*
X52780000Y-67947339D01*
X52780000Y-67953552D01*
X51930000Y-67103552D01*
X51930000Y-68896446D01*
X52780000Y-68046446D01*
X52780000Y-68052661D01*
X52807259Y-68154394D01*
X52859920Y-68245606D01*
X52934394Y-68320080D01*
X53025606Y-68372741D01*
X53127339Y-68400000D01*
X53133553Y-68400000D01*
X52070372Y-69463181D01*
X52009049Y-69496666D01*
X51982691Y-69499500D01*
X51624000Y-69499500D01*
X51556961Y-69479815D01*
X51511206Y-69427011D01*
X51500000Y-69375500D01*
X51500000Y-61339994D01*
X64240202Y-61339994D01*
X64240202Y-61340005D01*
X64259361Y-61571218D01*
X64316317Y-61796135D01*
X64409515Y-62008606D01*
X64493812Y-62137633D01*
X65162037Y-61469408D01*
X65179075Y-61532993D01*
X65244901Y-61647007D01*
X65337993Y-61740099D01*
X65452007Y-61805925D01*
X65515590Y-61822962D01*
X64846201Y-62492351D01*
X64876649Y-62516050D01*
X65080697Y-62626476D01*
X65080706Y-62626479D01*
X65300139Y-62701811D01*
X65528993Y-62740000D01*
X65761007Y-62740000D01*
X65989860Y-62701811D01*
X66209293Y-62626479D01*
X66209301Y-62626476D01*
X66413355Y-62516047D01*
X66443797Y-62492351D01*
X66443798Y-62492350D01*
X65774410Y-61822962D01*
X65837993Y-61805925D01*
X65952007Y-61740099D01*
X66045099Y-61647007D01*
X66110925Y-61532993D01*
X66127962Y-61469409D01*
X66796186Y-62137633D01*
X66880482Y-62008611D01*
X66973682Y-61796135D01*
X67030638Y-61571218D01*
X67049798Y-61340005D01*
X67049798Y-61339994D01*
X67030638Y-61108781D01*
X66973682Y-60883864D01*
X66880484Y-60671393D01*
X66796186Y-60542365D01*
X66127962Y-61210589D01*
X66110925Y-61147007D01*
X66045099Y-61032993D01*
X65952007Y-60939901D01*
X65837993Y-60874075D01*
X65774409Y-60857037D01*
X66443797Y-60187647D01*
X66443797Y-60187645D01*
X66413360Y-60163955D01*
X66413354Y-60163951D01*
X66209302Y-60053523D01*
X66209293Y-60053520D01*
X65989860Y-59978188D01*
X65761007Y-59940000D01*
X65528993Y-59940000D01*
X65300139Y-59978188D01*
X65080706Y-60053520D01*
X65080697Y-60053523D01*
X64876650Y-60163949D01*
X64846200Y-60187647D01*
X65515591Y-60857037D01*
X65452007Y-60874075D01*
X65337993Y-60939901D01*
X65244901Y-61032993D01*
X65179075Y-61147007D01*
X65162037Y-61210591D01*
X64493811Y-60542365D01*
X64409516Y-60671390D01*
X64316317Y-60883864D01*
X64259361Y-61108781D01*
X64240202Y-61339994D01*
X51500000Y-61339994D01*
X51500000Y-55099997D01*
X55695034Y-55099997D01*
X55695034Y-55100002D01*
X55714858Y-55326599D01*
X55714860Y-55326610D01*
X55773730Y-55546317D01*
X55773735Y-55546331D01*
X55869863Y-55752478D01*
X55920974Y-55825472D01*
X56600000Y-55146446D01*
X56600000Y-55152661D01*
X56627259Y-55254394D01*
X56679920Y-55345606D01*
X56754394Y-55420080D01*
X56845606Y-55472741D01*
X56947339Y-55500000D01*
X56953553Y-55500000D01*
X56269352Y-56184199D01*
X56259506Y-56233194D01*
X56210890Y-56283377D01*
X56155367Y-56298049D01*
X56155423Y-56299099D01*
X56155429Y-56299146D01*
X56155426Y-56299146D01*
X56155436Y-56299324D01*
X56152123Y-56299501D01*
X56092516Y-56305908D01*
X55957671Y-56356202D01*
X55957664Y-56356206D01*
X55842455Y-56442452D01*
X55842452Y-56442455D01*
X55756206Y-56557664D01*
X55756202Y-56557671D01*
X55705908Y-56692517D01*
X55699501Y-56752116D01*
X55699501Y-56752123D01*
X55699500Y-56752135D01*
X55699500Y-58447870D01*
X55699501Y-58447876D01*
X55705908Y-58507483D01*
X55756202Y-58642328D01*
X55756206Y-58642335D01*
X55842452Y-58757544D01*
X55842455Y-58757547D01*
X55957664Y-58843793D01*
X55957671Y-58843797D01*
X56092517Y-58894091D01*
X56092516Y-58894091D01*
X56099444Y-58894835D01*
X56152127Y-58900500D01*
X57847872Y-58900499D01*
X57907483Y-58894091D01*
X58042331Y-58843796D01*
X58157546Y-58757546D01*
X58243796Y-58642331D01*
X58294091Y-58507483D01*
X58300500Y-58447873D01*
X58300499Y-56752128D01*
X58294091Y-56692517D01*
X58264639Y-56613553D01*
X58243797Y-56557671D01*
X58243793Y-56557664D01*
X58157547Y-56442455D01*
X58157544Y-56442452D01*
X58042335Y-56356206D01*
X58042328Y-56356202D01*
X57907482Y-56305908D01*
X57907483Y-56305908D01*
X57847883Y-56299501D01*
X57847881Y-56299500D01*
X57847873Y-56299500D01*
X57847864Y-56299500D01*
X57844548Y-56299322D01*
X57844627Y-56297847D01*
X57783215Y-56279815D01*
X57766040Y-56259994D01*
X61700202Y-56259994D01*
X61700202Y-56260005D01*
X61719361Y-56491218D01*
X61776317Y-56716135D01*
X61869515Y-56928606D01*
X61953812Y-57057633D01*
X62622037Y-56389408D01*
X62639075Y-56452993D01*
X62704901Y-56567007D01*
X62797993Y-56660099D01*
X62912007Y-56725925D01*
X62975590Y-56742962D01*
X62306201Y-57412351D01*
X62336649Y-57436050D01*
X62540697Y-57546476D01*
X62540706Y-57546479D01*
X62760139Y-57621811D01*
X62988993Y-57660000D01*
X63221007Y-57660000D01*
X63449860Y-57621811D01*
X63669293Y-57546479D01*
X63669301Y-57546476D01*
X63873355Y-57436047D01*
X63903797Y-57412351D01*
X63903798Y-57412350D01*
X63234410Y-56742962D01*
X63297993Y-56725925D01*
X63412007Y-56660099D01*
X63505099Y-56567007D01*
X63570925Y-56452993D01*
X63587962Y-56389409D01*
X64256186Y-57057633D01*
X64340482Y-56928611D01*
X64433682Y-56716135D01*
X64490638Y-56491218D01*
X64509798Y-56260005D01*
X64509798Y-56259994D01*
X64509798Y-56259993D01*
X66779700Y-56259993D01*
X66779700Y-56260006D01*
X66798864Y-56491297D01*
X66798866Y-56491308D01*
X66855842Y-56716300D01*
X66949075Y-56928848D01*
X67076016Y-57123147D01*
X67076019Y-57123151D01*
X67076021Y-57123153D01*
X67233216Y-57293913D01*
X67233219Y-57293915D01*
X67233222Y-57293918D01*
X67416365Y-57436464D01*
X67416371Y-57436468D01*
X67416374Y-57436470D01*
X67497062Y-57480136D01*
X67619652Y-57546479D01*
X67620497Y-57546936D01*
X67705927Y-57576264D01*
X67840015Y-57622297D01*
X67840017Y-57622297D01*
X67840019Y-57622298D01*
X68068951Y-57660500D01*
X68068952Y-57660500D01*
X68301048Y-57660500D01*
X68301049Y-57660500D01*
X68529981Y-57622298D01*
X68749503Y-57546936D01*
X68953626Y-57436470D01*
X68954170Y-57436047D01*
X69015129Y-57388600D01*
X69136784Y-57293913D01*
X69293979Y-57123153D01*
X69420924Y-56928849D01*
X69514157Y-56716300D01*
X69571134Y-56491305D01*
X69571135Y-56491297D01*
X69590300Y-56260006D01*
X69590300Y-56259993D01*
X69571135Y-56028702D01*
X69571133Y-56028691D01*
X69514157Y-55803699D01*
X69420924Y-55591151D01*
X69362767Y-55502135D01*
X88699500Y-55502135D01*
X88699500Y-57197870D01*
X88699501Y-57197876D01*
X88705908Y-57257483D01*
X88756202Y-57392328D01*
X88756206Y-57392335D01*
X88842452Y-57507544D01*
X88842455Y-57507547D01*
X88957664Y-57593793D01*
X88957671Y-57593797D01*
X89092517Y-57644091D01*
X89092516Y-57644091D01*
X89099444Y-57644835D01*
X89152127Y-57650500D01*
X90847872Y-57650499D01*
X90907483Y-57644091D01*
X91042331Y-57593796D01*
X91157546Y-57507546D01*
X91243796Y-57392331D01*
X91294091Y-57257483D01*
X91300500Y-57197873D01*
X91300499Y-57197845D01*
X91300678Y-57194547D01*
X91302183Y-57194627D01*
X91320112Y-57133326D01*
X91372868Y-57087514D01*
X91416465Y-57079981D01*
X92100000Y-56396446D01*
X92100000Y-56402661D01*
X92127259Y-56504394D01*
X92179920Y-56595606D01*
X92254394Y-56670080D01*
X92345606Y-56722741D01*
X92447339Y-56750000D01*
X92453553Y-56750000D01*
X91774526Y-57429025D01*
X91847513Y-57480132D01*
X91847521Y-57480136D01*
X92053668Y-57576264D01*
X92053682Y-57576269D01*
X92273389Y-57635139D01*
X92273400Y-57635141D01*
X92499998Y-57654966D01*
X92500002Y-57654966D01*
X92726599Y-57635141D01*
X92726610Y-57635139D01*
X92946317Y-57576269D01*
X92946331Y-57576264D01*
X93152478Y-57480136D01*
X93225471Y-57429024D01*
X92546447Y-56750000D01*
X92552661Y-56750000D01*
X92654394Y-56722741D01*
X92745606Y-56670080D01*
X92820080Y-56595606D01*
X92872741Y-56504394D01*
X92900000Y-56402661D01*
X92900000Y-56396447D01*
X93579024Y-57075471D01*
X93630136Y-57002478D01*
X93726264Y-56796331D01*
X93726269Y-56796317D01*
X93785139Y-56576610D01*
X93785141Y-56576599D01*
X93804966Y-56350002D01*
X93804966Y-56349997D01*
X93785141Y-56123400D01*
X93785139Y-56123389D01*
X93726269Y-55903682D01*
X93726264Y-55903668D01*
X93630136Y-55697521D01*
X93630132Y-55697513D01*
X93579025Y-55624526D01*
X92900000Y-56303551D01*
X92900000Y-56297339D01*
X92872741Y-56195606D01*
X92820080Y-56104394D01*
X92745606Y-56029920D01*
X92654394Y-55977259D01*
X92552661Y-55950000D01*
X92546448Y-55950000D01*
X93225472Y-55270974D01*
X93152478Y-55219863D01*
X92946331Y-55123735D01*
X92946317Y-55123730D01*
X92726610Y-55064860D01*
X92726599Y-55064858D01*
X92500002Y-55045034D01*
X92499998Y-55045034D01*
X92273400Y-55064858D01*
X92273389Y-55064860D01*
X92053682Y-55123730D01*
X92053673Y-55123734D01*
X91847516Y-55219866D01*
X91847512Y-55219868D01*
X91774526Y-55270973D01*
X91774526Y-55270974D01*
X92453553Y-55950000D01*
X92447339Y-55950000D01*
X92345606Y-55977259D01*
X92254394Y-56029920D01*
X92179920Y-56104394D01*
X92127259Y-56195606D01*
X92100000Y-56297339D01*
X92100000Y-56303552D01*
X91415799Y-55619351D01*
X91366805Y-55609505D01*
X91316622Y-55560889D01*
X91301981Y-55505366D01*
X91300900Y-55505423D01*
X91300854Y-55505429D01*
X91300853Y-55505426D01*
X91300676Y-55505436D01*
X91300499Y-55502135D01*
X91300499Y-55502128D01*
X91294091Y-55442517D01*
X91277057Y-55396847D01*
X91243797Y-55307671D01*
X91243793Y-55307664D01*
X91157547Y-55192455D01*
X91157544Y-55192452D01*
X91042335Y-55106206D01*
X91042328Y-55106202D01*
X90907482Y-55055908D01*
X90907483Y-55055908D01*
X90847883Y-55049501D01*
X90847881Y-55049500D01*
X90847873Y-55049500D01*
X90847864Y-55049500D01*
X89152129Y-55049500D01*
X89152123Y-55049501D01*
X89092516Y-55055908D01*
X88957671Y-55106202D01*
X88957664Y-55106206D01*
X88842455Y-55192452D01*
X88842452Y-55192455D01*
X88756206Y-55307664D01*
X88756202Y-55307671D01*
X88705908Y-55442517D01*
X88699501Y-55502116D01*
X88699501Y-55502123D01*
X88699500Y-55502135D01*
X69362767Y-55502135D01*
X69293983Y-55396852D01*
X69293980Y-55396849D01*
X69293979Y-55396847D01*
X69136784Y-55226087D01*
X69136779Y-55226083D01*
X69136777Y-55226081D01*
X68953634Y-55083535D01*
X68953628Y-55083531D01*
X68749504Y-54973064D01*
X68749495Y-54973061D01*
X68529984Y-54897702D01*
X68358282Y-54869050D01*
X68301049Y-54859500D01*
X68068951Y-54859500D01*
X68023164Y-54867140D01*
X67840015Y-54897702D01*
X67620504Y-54973061D01*
X67620495Y-54973064D01*
X67416371Y-55083531D01*
X67416365Y-55083535D01*
X67233222Y-55226081D01*
X67233219Y-55226084D01*
X67076016Y-55396852D01*
X66949075Y-55591151D01*
X66855842Y-55803699D01*
X66798866Y-56028691D01*
X66798864Y-56028702D01*
X66779700Y-56259993D01*
X64509798Y-56259993D01*
X64490638Y-56028781D01*
X64433682Y-55803864D01*
X64340484Y-55591393D01*
X64256186Y-55462365D01*
X63587962Y-56130589D01*
X63570925Y-56067007D01*
X63505099Y-55952993D01*
X63412007Y-55859901D01*
X63297993Y-55794075D01*
X63234409Y-55777037D01*
X63903797Y-55107647D01*
X63903797Y-55107645D01*
X63873360Y-55083955D01*
X63873354Y-55083951D01*
X63669302Y-54973523D01*
X63669293Y-54973520D01*
X63449860Y-54898188D01*
X63221007Y-54860000D01*
X62988993Y-54860000D01*
X62760139Y-54898188D01*
X62540706Y-54973520D01*
X62540697Y-54973523D01*
X62336650Y-55083949D01*
X62306200Y-55107647D01*
X62975591Y-55777037D01*
X62912007Y-55794075D01*
X62797993Y-55859901D01*
X62704901Y-55952993D01*
X62639075Y-56067007D01*
X62622037Y-56130591D01*
X61953811Y-55462365D01*
X61869516Y-55591390D01*
X61776317Y-55803864D01*
X61719361Y-56028781D01*
X61700202Y-56259994D01*
X57766040Y-56259994D01*
X57737460Y-56227011D01*
X57729969Y-56183522D01*
X57046447Y-55500000D01*
X57052661Y-55500000D01*
X57154394Y-55472741D01*
X57245606Y-55420080D01*
X57320080Y-55345606D01*
X57372741Y-55254394D01*
X57400000Y-55152661D01*
X57400000Y-55146447D01*
X58079024Y-55825471D01*
X58130136Y-55752478D01*
X58226264Y-55546331D01*
X58226269Y-55546317D01*
X58285139Y-55326610D01*
X58285141Y-55326599D01*
X58304966Y-55100002D01*
X58304966Y-55099997D01*
X58285141Y-54873400D01*
X58285139Y-54873389D01*
X58226269Y-54653682D01*
X58226264Y-54653668D01*
X58130136Y-54447521D01*
X58130132Y-54447513D01*
X58079025Y-54374526D01*
X57400000Y-55053551D01*
X57400000Y-55047339D01*
X57372741Y-54945606D01*
X57320080Y-54854394D01*
X57245606Y-54779920D01*
X57154394Y-54727259D01*
X57052661Y-54700000D01*
X57046448Y-54700000D01*
X57725472Y-54020974D01*
X57652478Y-53969863D01*
X57446331Y-53873735D01*
X57446317Y-53873730D01*
X57226610Y-53814860D01*
X57226599Y-53814858D01*
X57000002Y-53795034D01*
X56999998Y-53795034D01*
X56773400Y-53814858D01*
X56773389Y-53814860D01*
X56553682Y-53873730D01*
X56553673Y-53873734D01*
X56347516Y-53969866D01*
X56347512Y-53969868D01*
X56274526Y-54020973D01*
X56274526Y-54020974D01*
X56953553Y-54700000D01*
X56947339Y-54700000D01*
X56845606Y-54727259D01*
X56754394Y-54779920D01*
X56679920Y-54854394D01*
X56627259Y-54945606D01*
X56600000Y-55047339D01*
X56600000Y-55053552D01*
X55920974Y-54374526D01*
X55920973Y-54374526D01*
X55869868Y-54447512D01*
X55869866Y-54447516D01*
X55773734Y-54653673D01*
X55773730Y-54653682D01*
X55714860Y-54873389D01*
X55714858Y-54873400D01*
X55695034Y-55099997D01*
X51500000Y-55099997D01*
X51500000Y-51624000D01*
X51519685Y-51556961D01*
X51572489Y-51511206D01*
X51624000Y-51500000D01*
X95371000Y-51500000D01*
X95438039Y-51519685D01*
G37*
%TD.AperFunction*%
%TD*%
M02*
