%TF.GenerationSoftware,KiCad,Pcbnew,8.0.4*%
%TF.CreationDate,2025-01-19T17:37:52+00:00*%
%TF.ProjectId,33063_invert,33333036-335f-4696-9e76-6572742e6b69,rev?*%
%TF.SameCoordinates,Original*%
%TF.FileFunction,Copper,L2,Bot*%
%TF.FilePolarity,Positive*%
%FSLAX46Y46*%
G04 Gerber Fmt 4.6, Leading zero omitted, Abs format (unit mm)*
G04 Created by KiCad (PCBNEW 8.0.4) date 2025-01-19 17:37:52*
%MOMM*%
%LPD*%
G01*
G04 APERTURE LIST*
G04 Aperture macros list*
%AMRoundRect*
0 Rectangle with rounded corners*
0 $1 Rounding radius*
0 $2 $3 $4 $5 $6 $7 $8 $9 X,Y pos of 4 corners*
0 Add a 4 corners polygon primitive as box body*
4,1,4,$2,$3,$4,$5,$6,$7,$8,$9,$2,$3,0*
0 Add four circle primitives for the rounded corners*
1,1,$1+$1,$2,$3*
1,1,$1+$1,$4,$5*
1,1,$1+$1,$6,$7*
1,1,$1+$1,$8,$9*
0 Add four rect primitives between the rounded corners*
20,1,$1+$1,$2,$3,$4,$5,0*
20,1,$1+$1,$4,$5,$6,$7,0*
20,1,$1+$1,$6,$7,$8,$9,0*
20,1,$1+$1,$8,$9,$2,$3,0*%
G04 Aperture macros list end*
%TA.AperFunction,ComponentPad*%
%ADD10C,1.440000*%
%TD*%
%TA.AperFunction,ComponentPad*%
%ADD11RoundRect,0.250000X-0.500000X-1.750000X0.500000X-1.750000X0.500000X1.750000X-0.500000X1.750000X0*%
%TD*%
%TA.AperFunction,ComponentPad*%
%ADD12R,1.600000X1.600000*%
%TD*%
%TA.AperFunction,ComponentPad*%
%ADD13C,1.600000*%
%TD*%
%TA.AperFunction,ViaPad*%
%ADD14C,2.000000*%
%TD*%
%TA.AperFunction,Conductor*%
%ADD15C,2.000000*%
%TD*%
%TA.AperFunction,Conductor*%
%ADD16C,0.600000*%
%TD*%
%TA.AperFunction,Conductor*%
%ADD17C,0.200000*%
%TD*%
G04 APERTURE END LIST*
D10*
%TO.P,RV1,1,1*%
%TO.N,GND*%
X62020000Y-54600000D03*
%TO.P,RV1,2,2*%
%TO.N,Net-(JP2-A)*%
X64560000Y-54600000D03*
%TO.P,RV1,3,3*%
X67100000Y-54600000D03*
%TD*%
D11*
%TO.P,J1,1,Pin_1*%
%TO.N,GND*%
X52180000Y-68000000D03*
%TO.P,J1,2,Pin_2*%
%TO.N,/Vin_2*%
X54720000Y-68000000D03*
%TD*%
D12*
%TO.P,C1,1*%
%TO.N,/Vin_2*%
X55950000Y-57600000D03*
D13*
%TO.P,C1,2*%
%TO.N,GND*%
X55950000Y-55100000D03*
%TD*%
D11*
%TO.P,J2,1,Pin_1*%
%TO.N,/Vout_2*%
X90280000Y-68000000D03*
%TO.P,J2,2,Pin_2*%
%TO.N,GND*%
X92820000Y-68000000D03*
%TD*%
D12*
%TO.P,C3,1*%
%TO.N,GND*%
X90500000Y-56350000D03*
D13*
%TO.P,C3,2*%
%TO.N,/Vout_2*%
X88000000Y-56350000D03*
%TD*%
D14*
%TO.N,GND*%
X70650000Y-66350000D03*
%TD*%
D15*
%TO.N,GND*%
X52050000Y-60500000D02*
X65440000Y-60500000D01*
X65440000Y-60500000D02*
X66290000Y-59650000D01*
X52050000Y-60500000D02*
X52050000Y-56700000D01*
X52050000Y-67870000D02*
X52050000Y-60500000D01*
X66290000Y-59650000D02*
X80700000Y-59650000D01*
X80700000Y-59650000D02*
X91170000Y-59650000D01*
X92820000Y-68000000D02*
X92820000Y-61300000D01*
X70650000Y-64090000D02*
X67250000Y-60690000D01*
D16*
X90500000Y-56350000D02*
X90500000Y-58980000D01*
D17*
X90500000Y-58980000D02*
X91170000Y-59650000D01*
D15*
X52180000Y-68000000D02*
X52050000Y-67870000D01*
X54450000Y-55100000D02*
X55950000Y-55100000D01*
X92820000Y-61300000D02*
X91170000Y-59650000D01*
X70650000Y-66350000D02*
X70650000Y-64090000D01*
X53650000Y-55100000D02*
X56450000Y-55100000D01*
X52050000Y-56700000D02*
X53650000Y-55100000D01*
%TD*%
%TA.AperFunction,Conductor*%
%TO.N,GND*%
G36*
X94442539Y-50520185D02*
G01*
X94488294Y-50572989D01*
X94499500Y-50624500D01*
X94499500Y-69375500D01*
X94479815Y-69442539D01*
X94427011Y-69488294D01*
X94375500Y-69499500D01*
X94017309Y-69499500D01*
X93950270Y-69479815D01*
X93929628Y-69463181D01*
X92866447Y-68400000D01*
X92872661Y-68400000D01*
X92974394Y-68372741D01*
X93065606Y-68320080D01*
X93140080Y-68245606D01*
X93192741Y-68154394D01*
X93220000Y-68052661D01*
X93220000Y-68046448D01*
X94069998Y-68896446D01*
X94069999Y-68896445D01*
X94069999Y-67103553D01*
X94069998Y-67103552D01*
X93220000Y-67953551D01*
X93220000Y-67947339D01*
X93192741Y-67845606D01*
X93140080Y-67754394D01*
X93065606Y-67679920D01*
X92974394Y-67627259D01*
X92872661Y-67600000D01*
X92866447Y-67600000D01*
X94069998Y-66396447D01*
X94069999Y-66396446D01*
X94069999Y-66200028D01*
X94069998Y-66200013D01*
X94059505Y-66097302D01*
X94004358Y-65930880D01*
X94004356Y-65930875D01*
X93912315Y-65781654D01*
X93788345Y-65657684D01*
X93639124Y-65565643D01*
X93639119Y-65565641D01*
X93472697Y-65510494D01*
X93472690Y-65510493D01*
X93369980Y-65500000D01*
X92270028Y-65500000D01*
X92270012Y-65500001D01*
X92167302Y-65510494D01*
X92000880Y-65565641D01*
X92000875Y-65565643D01*
X91851654Y-65657684D01*
X91727683Y-65781655D01*
X91727680Y-65781659D01*
X91655831Y-65898144D01*
X91603883Y-65944869D01*
X91534920Y-65956090D01*
X91470838Y-65928247D01*
X91444754Y-65898144D01*
X91372906Y-65781659D01*
X91372712Y-65781344D01*
X91248656Y-65657288D01*
X91099334Y-65565186D01*
X90932797Y-65510001D01*
X90932795Y-65510000D01*
X90830010Y-65499500D01*
X89729998Y-65499500D01*
X89729980Y-65499501D01*
X89627203Y-65510000D01*
X89627200Y-65510001D01*
X89460668Y-65565185D01*
X89460663Y-65565187D01*
X89311342Y-65657289D01*
X89187289Y-65781342D01*
X89095187Y-65930663D01*
X89095185Y-65930668D01*
X89086761Y-65956090D01*
X89040001Y-66097203D01*
X89040001Y-66097204D01*
X89040000Y-66097204D01*
X89029500Y-66199983D01*
X89029500Y-66199991D01*
X89029500Y-67845606D01*
X89029501Y-69375500D01*
X89009816Y-69442539D01*
X88957012Y-69488294D01*
X88905501Y-69499500D01*
X56094500Y-69499500D01*
X56027461Y-69479815D01*
X55981706Y-69427011D01*
X55970500Y-69375500D01*
X55970499Y-66199998D01*
X55970498Y-66199981D01*
X55959999Y-66097203D01*
X55959998Y-66097200D01*
X55904814Y-65930666D01*
X55812712Y-65781344D01*
X55688656Y-65657288D01*
X55539334Y-65565186D01*
X55372797Y-65510001D01*
X55372795Y-65510000D01*
X55270010Y-65499500D01*
X54169998Y-65499500D01*
X54169980Y-65499501D01*
X54067203Y-65510000D01*
X54067200Y-65510001D01*
X53900668Y-65565185D01*
X53900663Y-65565187D01*
X53751342Y-65657289D01*
X53627288Y-65781343D01*
X53627285Y-65781347D01*
X53555244Y-65898144D01*
X53503296Y-65944869D01*
X53434334Y-65956090D01*
X53370252Y-65928247D01*
X53344167Y-65898144D01*
X53272315Y-65781654D01*
X53148345Y-65657684D01*
X52999124Y-65565643D01*
X52999119Y-65565641D01*
X52832697Y-65510494D01*
X52832690Y-65510493D01*
X52729980Y-65500000D01*
X51630028Y-65500000D01*
X51630012Y-65500001D01*
X51527302Y-65510494D01*
X51360880Y-65565641D01*
X51360875Y-65565643D01*
X51211654Y-65657684D01*
X51087684Y-65781654D01*
X50995643Y-65930875D01*
X50995641Y-65930880D01*
X50940494Y-66097302D01*
X50940493Y-66097309D01*
X50930000Y-66200013D01*
X50930000Y-66396447D01*
X52133553Y-67600000D01*
X52127339Y-67600000D01*
X52025606Y-67627259D01*
X51934394Y-67679920D01*
X51859920Y-67754394D01*
X51807259Y-67845606D01*
X51780000Y-67947339D01*
X51780000Y-67953552D01*
X50930000Y-67103552D01*
X50930000Y-68896446D01*
X51780000Y-68046446D01*
X51780000Y-68052661D01*
X51807259Y-68154394D01*
X51859920Y-68245606D01*
X51934394Y-68320080D01*
X52025606Y-68372741D01*
X52127339Y-68400000D01*
X52133553Y-68400000D01*
X51070372Y-69463181D01*
X51009049Y-69496666D01*
X50982691Y-69499500D01*
X50624500Y-69499500D01*
X50557461Y-69479815D01*
X50511706Y-69427011D01*
X50500500Y-69375500D01*
X50500500Y-55099997D01*
X54645034Y-55099997D01*
X54645034Y-55100002D01*
X54664858Y-55326599D01*
X54664860Y-55326610D01*
X54723730Y-55546317D01*
X54723735Y-55546331D01*
X54819863Y-55752478D01*
X54870974Y-55825472D01*
X55550000Y-55146446D01*
X55550000Y-55152661D01*
X55577259Y-55254394D01*
X55629920Y-55345606D01*
X55704394Y-55420080D01*
X55795606Y-55472741D01*
X55897339Y-55500000D01*
X55903553Y-55500000D01*
X55219352Y-56184199D01*
X55209506Y-56233194D01*
X55160890Y-56283377D01*
X55105367Y-56298049D01*
X55105423Y-56299099D01*
X55105429Y-56299146D01*
X55105426Y-56299146D01*
X55105436Y-56299324D01*
X55102123Y-56299501D01*
X55042516Y-56305908D01*
X54907671Y-56356202D01*
X54907664Y-56356206D01*
X54792455Y-56442452D01*
X54792452Y-56442455D01*
X54706206Y-56557664D01*
X54706202Y-56557671D01*
X54655908Y-56692517D01*
X54649501Y-56752116D01*
X54649501Y-56752123D01*
X54649500Y-56752135D01*
X54649500Y-58447870D01*
X54649501Y-58447876D01*
X54655908Y-58507483D01*
X54706202Y-58642328D01*
X54706206Y-58642335D01*
X54792452Y-58757544D01*
X54792455Y-58757547D01*
X54907664Y-58843793D01*
X54907671Y-58843797D01*
X55042517Y-58894091D01*
X55042516Y-58894091D01*
X55049444Y-58894835D01*
X55102127Y-58900500D01*
X56797872Y-58900499D01*
X56857483Y-58894091D01*
X56992331Y-58843796D01*
X57107546Y-58757546D01*
X57193796Y-58642331D01*
X57244091Y-58507483D01*
X57250500Y-58447873D01*
X57250499Y-56752128D01*
X57244091Y-56692517D01*
X57209584Y-56600000D01*
X57193797Y-56557671D01*
X57193793Y-56557664D01*
X57107547Y-56442455D01*
X57107544Y-56442452D01*
X56992335Y-56356206D01*
X56992328Y-56356202D01*
X56975694Y-56349998D01*
X86694532Y-56349998D01*
X86694532Y-56350001D01*
X86714364Y-56576686D01*
X86714366Y-56576697D01*
X86773258Y-56796488D01*
X86773261Y-56796497D01*
X86869431Y-57002732D01*
X86869432Y-57002734D01*
X86999954Y-57189141D01*
X87160858Y-57350045D01*
X87160861Y-57350047D01*
X87347266Y-57480568D01*
X87553504Y-57576739D01*
X87773308Y-57635635D01*
X87935230Y-57649801D01*
X87999998Y-57655468D01*
X88000000Y-57655468D01*
X88000002Y-57655468D01*
X88062511Y-57649999D01*
X88226692Y-57635635D01*
X88446496Y-57576739D01*
X88652734Y-57480568D01*
X88839139Y-57350047D01*
X88996694Y-57192491D01*
X89058016Y-57159008D01*
X89127707Y-57163992D01*
X89183641Y-57205863D01*
X89205051Y-57251658D01*
X89206402Y-57257378D01*
X89256645Y-57392086D01*
X89256649Y-57392093D01*
X89342809Y-57507187D01*
X89342812Y-57507190D01*
X89457906Y-57593350D01*
X89457913Y-57593354D01*
X89592620Y-57643596D01*
X89592627Y-57643598D01*
X89652155Y-57649999D01*
X89652172Y-57650000D01*
X90250000Y-57650000D01*
X90250000Y-56665686D01*
X90254394Y-56670080D01*
X90345606Y-56722741D01*
X90447339Y-56750000D01*
X90552661Y-56750000D01*
X90654394Y-56722741D01*
X90745606Y-56670080D01*
X90750000Y-56665686D01*
X90750000Y-57650000D01*
X91347828Y-57650000D01*
X91347844Y-57649999D01*
X91407372Y-57643598D01*
X91407379Y-57643596D01*
X91542086Y-57593354D01*
X91542093Y-57593350D01*
X91657187Y-57507190D01*
X91657190Y-57507187D01*
X91743350Y-57392093D01*
X91743354Y-57392086D01*
X91793596Y-57257379D01*
X91793598Y-57257372D01*
X91799999Y-57197844D01*
X91800000Y-57197827D01*
X91800000Y-56600000D01*
X90815686Y-56600000D01*
X90820080Y-56595606D01*
X90872741Y-56504394D01*
X90900000Y-56402661D01*
X90900000Y-56297339D01*
X90872741Y-56195606D01*
X90820080Y-56104394D01*
X90815686Y-56100000D01*
X91800000Y-56100000D01*
X91800000Y-55502172D01*
X91799999Y-55502155D01*
X91793598Y-55442627D01*
X91793596Y-55442620D01*
X91743354Y-55307913D01*
X91743350Y-55307906D01*
X91657190Y-55192812D01*
X91657187Y-55192809D01*
X91542093Y-55106649D01*
X91542086Y-55106645D01*
X91407379Y-55056403D01*
X91407372Y-55056401D01*
X91347844Y-55050000D01*
X90750000Y-55050000D01*
X90750000Y-56034314D01*
X90745606Y-56029920D01*
X90654394Y-55977259D01*
X90552661Y-55950000D01*
X90447339Y-55950000D01*
X90345606Y-55977259D01*
X90254394Y-56029920D01*
X90250000Y-56034314D01*
X90250000Y-55050000D01*
X89652155Y-55050000D01*
X89592627Y-55056401D01*
X89592620Y-55056403D01*
X89457913Y-55106645D01*
X89457906Y-55106649D01*
X89342812Y-55192809D01*
X89342809Y-55192812D01*
X89256649Y-55307906D01*
X89256645Y-55307913D01*
X89206401Y-55442626D01*
X89205050Y-55448343D01*
X89170475Y-55509058D01*
X89108564Y-55541443D01*
X89038972Y-55535214D01*
X88996693Y-55507506D01*
X88839141Y-55349954D01*
X88652734Y-55219432D01*
X88652732Y-55219431D01*
X88446497Y-55123261D01*
X88446488Y-55123258D01*
X88226697Y-55064366D01*
X88226693Y-55064365D01*
X88226692Y-55064365D01*
X88226691Y-55064364D01*
X88226686Y-55064364D01*
X88000002Y-55044532D01*
X87999998Y-55044532D01*
X87773313Y-55064364D01*
X87773302Y-55064366D01*
X87553511Y-55123258D01*
X87553502Y-55123261D01*
X87347267Y-55219431D01*
X87347265Y-55219432D01*
X87160858Y-55349954D01*
X86999954Y-55510858D01*
X86869432Y-55697265D01*
X86869431Y-55697267D01*
X86773261Y-55903502D01*
X86773258Y-55903511D01*
X86714366Y-56123302D01*
X86714364Y-56123313D01*
X86694532Y-56349998D01*
X56975694Y-56349998D01*
X56857482Y-56305908D01*
X56857483Y-56305908D01*
X56797883Y-56299501D01*
X56797881Y-56299500D01*
X56797873Y-56299500D01*
X56797864Y-56299500D01*
X56794548Y-56299322D01*
X56794627Y-56297847D01*
X56733215Y-56279815D01*
X56687460Y-56227011D01*
X56679969Y-56183522D01*
X55996447Y-55500000D01*
X56002661Y-55500000D01*
X56104394Y-55472741D01*
X56195606Y-55420080D01*
X56270080Y-55345606D01*
X56322741Y-55254394D01*
X56350000Y-55152661D01*
X56350000Y-55146447D01*
X57029024Y-55825471D01*
X57080136Y-55752478D01*
X57176264Y-55546331D01*
X57176269Y-55546317D01*
X57235139Y-55326610D01*
X57235141Y-55326599D01*
X57254966Y-55100002D01*
X57254966Y-55099997D01*
X57235141Y-54873400D01*
X57235139Y-54873389D01*
X57176269Y-54653682D01*
X57176264Y-54653668D01*
X57151237Y-54599997D01*
X60795340Y-54599997D01*
X60795340Y-54600002D01*
X60813944Y-54812654D01*
X60813945Y-54812662D01*
X60869194Y-55018853D01*
X60869197Y-55018859D01*
X60959413Y-55212329D01*
X60998415Y-55268030D01*
X61620000Y-54646445D01*
X61620000Y-54652661D01*
X61647259Y-54754394D01*
X61699920Y-54845606D01*
X61774394Y-54920080D01*
X61865606Y-54972741D01*
X61967339Y-55000000D01*
X61973553Y-55000000D01*
X61351968Y-55621584D01*
X61407663Y-55660582D01*
X61407669Y-55660586D01*
X61601140Y-55750802D01*
X61601146Y-55750805D01*
X61807337Y-55806054D01*
X61807345Y-55806055D01*
X62019998Y-55824660D01*
X62020002Y-55824660D01*
X62232654Y-55806055D01*
X62232662Y-55806054D01*
X62438853Y-55750805D01*
X62438864Y-55750801D01*
X62632325Y-55660589D01*
X62688030Y-55621583D01*
X62066448Y-55000000D01*
X62072661Y-55000000D01*
X62174394Y-54972741D01*
X62265606Y-54920080D01*
X62340080Y-54845606D01*
X62392741Y-54754394D01*
X62420000Y-54652661D01*
X62420000Y-54646446D01*
X63041583Y-55268029D01*
X63080589Y-55212325D01*
X63170801Y-55018864D01*
X63172658Y-55013764D01*
X63174567Y-55014458D01*
X63206291Y-54962362D01*
X63269125Y-54931806D01*
X63338504Y-54940071D01*
X63392401Y-54984533D01*
X63405989Y-55014256D01*
X63406870Y-55013936D01*
X63408722Y-55019022D01*
X63408724Y-55019030D01*
X63429864Y-55064364D01*
X63498977Y-55212578D01*
X63621472Y-55387521D01*
X63772478Y-55538527D01*
X63772481Y-55538529D01*
X63947419Y-55661021D01*
X63947421Y-55661022D01*
X63947420Y-55661022D01*
X64011936Y-55691106D01*
X64140970Y-55751276D01*
X64347253Y-55806549D01*
X64499215Y-55819844D01*
X64559998Y-55825162D01*
X64560000Y-55825162D01*
X64560002Y-55825162D01*
X64613186Y-55820508D01*
X64772747Y-55806549D01*
X64979030Y-55751276D01*
X65172581Y-55661021D01*
X65347519Y-55538529D01*
X65498529Y-55387519D01*
X65621021Y-55212581D01*
X65711276Y-55019030D01*
X65711280Y-55019013D01*
X65713130Y-55013936D01*
X65715253Y-55014709D01*
X65746576Y-54963305D01*
X65809419Y-54932766D01*
X65878796Y-54941050D01*
X65932680Y-54985528D01*
X65945827Y-55014315D01*
X65946870Y-55013936D01*
X65948722Y-55019022D01*
X65948724Y-55019030D01*
X65969864Y-55064364D01*
X66038977Y-55212578D01*
X66161472Y-55387521D01*
X66312478Y-55538527D01*
X66312481Y-55538529D01*
X66487419Y-55661021D01*
X66487421Y-55661022D01*
X66487420Y-55661022D01*
X66551936Y-55691106D01*
X66680970Y-55751276D01*
X66887253Y-55806549D01*
X67039215Y-55819844D01*
X67099998Y-55825162D01*
X67100000Y-55825162D01*
X67100002Y-55825162D01*
X67153186Y-55820508D01*
X67312747Y-55806549D01*
X67519030Y-55751276D01*
X67712581Y-55661021D01*
X67887519Y-55538529D01*
X68038529Y-55387519D01*
X68161021Y-55212581D01*
X68251276Y-55019030D01*
X68306549Y-54812747D01*
X68325162Y-54600000D01*
X68306549Y-54387253D01*
X68252539Y-54185685D01*
X68251278Y-54180977D01*
X68251277Y-54180976D01*
X68251276Y-54180970D01*
X68161021Y-53987419D01*
X68038529Y-53812481D01*
X68038527Y-53812478D01*
X67887521Y-53661472D01*
X67712578Y-53538977D01*
X67712579Y-53538977D01*
X67583547Y-53478809D01*
X67519030Y-53448724D01*
X67519026Y-53448723D01*
X67519022Y-53448721D01*
X67312752Y-53393452D01*
X67312748Y-53393451D01*
X67312747Y-53393451D01*
X67312746Y-53393450D01*
X67312741Y-53393450D01*
X67100002Y-53374838D01*
X67099998Y-53374838D01*
X66887258Y-53393450D01*
X66887247Y-53393452D01*
X66680977Y-53448721D01*
X66680968Y-53448725D01*
X66487421Y-53538977D01*
X66312478Y-53661472D01*
X66161472Y-53812478D01*
X66038977Y-53987421D01*
X65948725Y-54180968D01*
X65946870Y-54186064D01*
X65944749Y-54185292D01*
X65913406Y-54236710D01*
X65850558Y-54267237D01*
X65781183Y-54258939D01*
X65727307Y-54214452D01*
X65714169Y-54185685D01*
X65713130Y-54186064D01*
X65711279Y-54180983D01*
X65711276Y-54180970D01*
X65621021Y-53987419D01*
X65498529Y-53812481D01*
X65498527Y-53812478D01*
X65347521Y-53661472D01*
X65172578Y-53538977D01*
X65172579Y-53538977D01*
X65043547Y-53478809D01*
X64979030Y-53448724D01*
X64979026Y-53448723D01*
X64979022Y-53448721D01*
X64772752Y-53393452D01*
X64772748Y-53393451D01*
X64772747Y-53393451D01*
X64772746Y-53393450D01*
X64772741Y-53393450D01*
X64560002Y-53374838D01*
X64559998Y-53374838D01*
X64347258Y-53393450D01*
X64347247Y-53393452D01*
X64140977Y-53448721D01*
X64140968Y-53448725D01*
X63947421Y-53538977D01*
X63772478Y-53661472D01*
X63621472Y-53812478D01*
X63498977Y-53987421D01*
X63408725Y-54180968D01*
X63406870Y-54186064D01*
X63405031Y-54185394D01*
X63373104Y-54237715D01*
X63310242Y-54268212D01*
X63240870Y-54259883D01*
X63187015Y-54215371D01*
X63173571Y-54185903D01*
X63172658Y-54186236D01*
X63170802Y-54181140D01*
X63080586Y-53987669D01*
X63080582Y-53987663D01*
X63041584Y-53931968D01*
X62420000Y-54553552D01*
X62420000Y-54547339D01*
X62392741Y-54445606D01*
X62340080Y-54354394D01*
X62265606Y-54279920D01*
X62174394Y-54227259D01*
X62072661Y-54200000D01*
X62066447Y-54200000D01*
X62688030Y-53578415D01*
X62632329Y-53539413D01*
X62438859Y-53449197D01*
X62438853Y-53449194D01*
X62232662Y-53393945D01*
X62232654Y-53393944D01*
X62020002Y-53375340D01*
X62019998Y-53375340D01*
X61807345Y-53393944D01*
X61807337Y-53393945D01*
X61601146Y-53449194D01*
X61601140Y-53449197D01*
X61407671Y-53539412D01*
X61407669Y-53539413D01*
X61351969Y-53578415D01*
X61351968Y-53578415D01*
X61973554Y-54200000D01*
X61967339Y-54200000D01*
X61865606Y-54227259D01*
X61774394Y-54279920D01*
X61699920Y-54354394D01*
X61647259Y-54445606D01*
X61620000Y-54547339D01*
X61620000Y-54553553D01*
X60998415Y-53931968D01*
X60998415Y-53931969D01*
X60959413Y-53987669D01*
X60959412Y-53987671D01*
X60869197Y-54181140D01*
X60869194Y-54181146D01*
X60813945Y-54387337D01*
X60813944Y-54387345D01*
X60795340Y-54599997D01*
X57151237Y-54599997D01*
X57080136Y-54447521D01*
X57080132Y-54447513D01*
X57029025Y-54374526D01*
X56350000Y-55053551D01*
X56350000Y-55047339D01*
X56322741Y-54945606D01*
X56270080Y-54854394D01*
X56195606Y-54779920D01*
X56104394Y-54727259D01*
X56002661Y-54700000D01*
X55996448Y-54700000D01*
X56675472Y-54020974D01*
X56602478Y-53969863D01*
X56396331Y-53873735D01*
X56396317Y-53873730D01*
X56176610Y-53814860D01*
X56176599Y-53814858D01*
X55950002Y-53795034D01*
X55949998Y-53795034D01*
X55723400Y-53814858D01*
X55723389Y-53814860D01*
X55503682Y-53873730D01*
X55503673Y-53873734D01*
X55297516Y-53969866D01*
X55297512Y-53969868D01*
X55224526Y-54020973D01*
X55224526Y-54020974D01*
X55903553Y-54700000D01*
X55897339Y-54700000D01*
X55795606Y-54727259D01*
X55704394Y-54779920D01*
X55629920Y-54854394D01*
X55577259Y-54945606D01*
X55550000Y-55047339D01*
X55550000Y-55053552D01*
X54870974Y-54374526D01*
X54870973Y-54374526D01*
X54819868Y-54447512D01*
X54819866Y-54447516D01*
X54723734Y-54653673D01*
X54723730Y-54653682D01*
X54664860Y-54873389D01*
X54664858Y-54873400D01*
X54645034Y-55099997D01*
X50500500Y-55099997D01*
X50500500Y-50624500D01*
X50520185Y-50557461D01*
X50572989Y-50511706D01*
X50624500Y-50500500D01*
X94375500Y-50500500D01*
X94442539Y-50520185D01*
G37*
%TD.AperFunction*%
%TD*%
M02*
