%TF.GenerationSoftware,KiCad,Pcbnew,8.0.4*%
%TF.CreationDate,2025-01-06T15:16:24+00:00*%
%TF.ProjectId,33063_invert,33333036-335f-4696-9e76-6572742e6b69,rev?*%
%TF.SameCoordinates,Original*%
%TF.FileFunction,Copper,L2,Bot*%
%TF.FilePolarity,Positive*%
%FSLAX46Y46*%
G04 Gerber Fmt 4.6, Leading zero omitted, Abs format (unit mm)*
G04 Created by KiCad (PCBNEW 8.0.4) date 2025-01-06 15:16:24*
%MOMM*%
%LPD*%
G01*
G04 APERTURE LIST*
G04 Aperture macros list*
%AMRoundRect*
0 Rectangle with rounded corners*
0 $1 Rounding radius*
0 $2 $3 $4 $5 $6 $7 $8 $9 X,Y pos of 4 corners*
0 Add a 4 corners polygon primitive as box body*
4,1,4,$2,$3,$4,$5,$6,$7,$8,$9,$2,$3,0*
0 Add four circle primitives for the rounded corners*
1,1,$1+$1,$2,$3*
1,1,$1+$1,$4,$5*
1,1,$1+$1,$6,$7*
1,1,$1+$1,$8,$9*
0 Add four rect primitives between the rounded corners*
20,1,$1+$1,$2,$3,$4,$5,0*
20,1,$1+$1,$4,$5,$6,$7,0*
20,1,$1+$1,$6,$7,$8,$9,0*
20,1,$1+$1,$8,$9,$2,$3,0*%
G04 Aperture macros list end*
%TA.AperFunction,ComponentPad*%
%ADD10RoundRect,0.250000X-0.500000X-1.750000X0.500000X-1.750000X0.500000X1.750000X-0.500000X1.750000X0*%
%TD*%
%TA.AperFunction,ComponentPad*%
%ADD11R,1.600000X1.600000*%
%TD*%
%TA.AperFunction,ComponentPad*%
%ADD12C,1.600000*%
%TD*%
%TA.AperFunction,ComponentPad*%
%ADD13C,1.800000*%
%TD*%
%TA.AperFunction,ViaPad*%
%ADD14C,2.000000*%
%TD*%
%TA.AperFunction,Conductor*%
%ADD15C,2.000000*%
%TD*%
%TA.AperFunction,Conductor*%
%ADD16C,0.600000*%
%TD*%
%TA.AperFunction,Conductor*%
%ADD17C,0.200000*%
%TD*%
G04 APERTURE END LIST*
D10*
%TO.P,J1,1,Pin_1*%
%TO.N,GND2*%
X53180000Y-68000000D03*
%TO.P,J1,2,Pin_2*%
%TO.N,/Vin_2*%
X55720000Y-68000000D03*
%TD*%
D11*
%TO.P,C1,1*%
%TO.N,/Vin_2*%
X56950000Y-57600000D03*
D12*
%TO.P,C1,2*%
%TO.N,GND2*%
X56950000Y-55100000D03*
%TD*%
D10*
%TO.P,J2,1,Pin_1*%
%TO.N,/Vout_2*%
X91280000Y-68000000D03*
%TO.P,J2,2,Pin_2*%
%TO.N,GND2*%
X93820000Y-68000000D03*
%TD*%
D12*
%TO.P,C3,2*%
%TO.N,/Vout_2*%
X89000000Y-56350000D03*
D11*
%TO.P,C3,1*%
%TO.N,GND2*%
X91500000Y-56350000D03*
%TD*%
D13*
%TO.P,RV1,1,1*%
%TO.N,Net-(JP2-B)*%
X68790000Y-55610000D03*
%TO.P,RV1,2,2*%
%TO.N,GND2*%
X66250000Y-60690000D03*
%TO.P,RV1,3,3*%
X63710000Y-55610000D03*
%TD*%
D14*
%TO.N,GND2*%
X71650000Y-66350000D03*
%TD*%
D15*
%TO.N,GND2*%
X67290000Y-59650000D02*
X81700000Y-59650000D01*
X81700000Y-59650000D02*
X92170000Y-59650000D01*
X93820000Y-68000000D02*
X93820000Y-61300000D01*
X71650000Y-64090000D02*
X68250000Y-60690000D01*
D16*
X91500000Y-56350000D02*
X91500000Y-58980000D01*
D15*
X63200000Y-55100000D02*
X63710000Y-55610000D01*
D17*
X91500000Y-58980000D02*
X92170000Y-59650000D01*
D15*
X53050000Y-67870000D02*
X53050000Y-56700000D01*
X53180000Y-68000000D02*
X53050000Y-67870000D01*
X55450000Y-55100000D02*
X56950000Y-55100000D01*
X93820000Y-61300000D02*
X92170000Y-59650000D01*
X71650000Y-66350000D02*
X71650000Y-64090000D01*
X66250000Y-60690000D02*
X67290000Y-59650000D01*
X66250000Y-58150000D02*
X63710000Y-55610000D01*
X56950000Y-55100000D02*
X63200000Y-55100000D01*
X54650000Y-55100000D02*
X57450000Y-55100000D01*
X66250000Y-60690000D02*
X66250000Y-58150000D01*
X53050000Y-56700000D02*
X54650000Y-55100000D01*
%TD*%
%TA.AperFunction,Conductor*%
%TO.N,GND2*%
G36*
X95443039Y-51519685D02*
G01*
X95488794Y-51572489D01*
X95500000Y-51624000D01*
X95500000Y-69375500D01*
X95480315Y-69442539D01*
X95427511Y-69488294D01*
X95376000Y-69499500D01*
X95017309Y-69499500D01*
X94950270Y-69479815D01*
X94929628Y-69463181D01*
X93866447Y-68400000D01*
X93872661Y-68400000D01*
X93974394Y-68372741D01*
X94065606Y-68320080D01*
X94140080Y-68245606D01*
X94192741Y-68154394D01*
X94220000Y-68052661D01*
X94220000Y-68046448D01*
X95069998Y-68896446D01*
X95069999Y-68896445D01*
X95069999Y-67103553D01*
X95069998Y-67103552D01*
X94220000Y-67953551D01*
X94220000Y-67947339D01*
X94192741Y-67845606D01*
X94140080Y-67754394D01*
X94065606Y-67679920D01*
X93974394Y-67627259D01*
X93872661Y-67600000D01*
X93866447Y-67600000D01*
X95069998Y-66396447D01*
X95069999Y-66396446D01*
X95069999Y-66200028D01*
X95069998Y-66200013D01*
X95059505Y-66097302D01*
X95004358Y-65930880D01*
X95004356Y-65930875D01*
X94912315Y-65781654D01*
X94788345Y-65657684D01*
X94639124Y-65565643D01*
X94639119Y-65565641D01*
X94472697Y-65510494D01*
X94472690Y-65510493D01*
X94369980Y-65500000D01*
X93270028Y-65500000D01*
X93270012Y-65500001D01*
X93167302Y-65510494D01*
X93000880Y-65565641D01*
X93000875Y-65565643D01*
X92851654Y-65657684D01*
X92727683Y-65781655D01*
X92727680Y-65781659D01*
X92655831Y-65898144D01*
X92603883Y-65944869D01*
X92534920Y-65956090D01*
X92470838Y-65928247D01*
X92444754Y-65898144D01*
X92372906Y-65781659D01*
X92372712Y-65781344D01*
X92248656Y-65657288D01*
X92099334Y-65565186D01*
X91932797Y-65510001D01*
X91932795Y-65510000D01*
X91830010Y-65499500D01*
X90729998Y-65499500D01*
X90729980Y-65499501D01*
X90627203Y-65510000D01*
X90627200Y-65510001D01*
X90460668Y-65565185D01*
X90460663Y-65565187D01*
X90311342Y-65657289D01*
X90187289Y-65781342D01*
X90095187Y-65930663D01*
X90095185Y-65930668D01*
X90086761Y-65956090D01*
X90040001Y-66097203D01*
X90040001Y-66097204D01*
X90040000Y-66097204D01*
X90029500Y-66199983D01*
X90029500Y-66199991D01*
X90029500Y-67845606D01*
X90029501Y-69375500D01*
X90009816Y-69442539D01*
X89957012Y-69488294D01*
X89905501Y-69499500D01*
X57094500Y-69499500D01*
X57027461Y-69479815D01*
X56981706Y-69427011D01*
X56970500Y-69375500D01*
X56970499Y-66199998D01*
X56970498Y-66199981D01*
X56959999Y-66097203D01*
X56959998Y-66097200D01*
X56904814Y-65930666D01*
X56812712Y-65781344D01*
X56688656Y-65657288D01*
X56539334Y-65565186D01*
X56372797Y-65510001D01*
X56372795Y-65510000D01*
X56270010Y-65499500D01*
X55169998Y-65499500D01*
X55169980Y-65499501D01*
X55067203Y-65510000D01*
X55067200Y-65510001D01*
X54900668Y-65565185D01*
X54900663Y-65565187D01*
X54751342Y-65657289D01*
X54627288Y-65781343D01*
X54627285Y-65781347D01*
X54555244Y-65898144D01*
X54503296Y-65944869D01*
X54434334Y-65956090D01*
X54370252Y-65928247D01*
X54344167Y-65898144D01*
X54272315Y-65781654D01*
X54148345Y-65657684D01*
X53999124Y-65565643D01*
X53999119Y-65565641D01*
X53832697Y-65510494D01*
X53832690Y-65510493D01*
X53729980Y-65500000D01*
X52630028Y-65500000D01*
X52630012Y-65500001D01*
X52527302Y-65510494D01*
X52360880Y-65565641D01*
X52360875Y-65565643D01*
X52211654Y-65657684D01*
X52087684Y-65781654D01*
X51995643Y-65930875D01*
X51995641Y-65930880D01*
X51940494Y-66097302D01*
X51940493Y-66097309D01*
X51930000Y-66200013D01*
X51930000Y-66396447D01*
X53133553Y-67600000D01*
X53127339Y-67600000D01*
X53025606Y-67627259D01*
X52934394Y-67679920D01*
X52859920Y-67754394D01*
X52807259Y-67845606D01*
X52780000Y-67947339D01*
X52780000Y-67953552D01*
X51930000Y-67103552D01*
X51930000Y-68896446D01*
X52780000Y-68046446D01*
X52780000Y-68052661D01*
X52807259Y-68154394D01*
X52859920Y-68245606D01*
X52934394Y-68320080D01*
X53025606Y-68372741D01*
X53127339Y-68400000D01*
X53133553Y-68400000D01*
X52070372Y-69463181D01*
X52009049Y-69496666D01*
X51982691Y-69499500D01*
X51624000Y-69499500D01*
X51556961Y-69479815D01*
X51511206Y-69427011D01*
X51500000Y-69375500D01*
X51500000Y-60689994D01*
X64845202Y-60689994D01*
X64845202Y-60690005D01*
X64864361Y-60921218D01*
X64921317Y-61146135D01*
X65014515Y-61358606D01*
X65098812Y-61487633D01*
X65767037Y-60819408D01*
X65784075Y-60882993D01*
X65849901Y-60997007D01*
X65942993Y-61090099D01*
X66057007Y-61155925D01*
X66120590Y-61172962D01*
X65451201Y-61842351D01*
X65481649Y-61866050D01*
X65685697Y-61976476D01*
X65685706Y-61976479D01*
X65905139Y-62051811D01*
X66133993Y-62090000D01*
X66366007Y-62090000D01*
X66594860Y-62051811D01*
X66814293Y-61976479D01*
X66814301Y-61976476D01*
X67018355Y-61866047D01*
X67048797Y-61842351D01*
X67048798Y-61842350D01*
X66379410Y-61172962D01*
X66442993Y-61155925D01*
X66557007Y-61090099D01*
X66650099Y-60997007D01*
X66715925Y-60882993D01*
X66732962Y-60819409D01*
X67401186Y-61487633D01*
X67485482Y-61358611D01*
X67578682Y-61146135D01*
X67635638Y-60921218D01*
X67654798Y-60690005D01*
X67654798Y-60689994D01*
X67635638Y-60458781D01*
X67578682Y-60233864D01*
X67485484Y-60021393D01*
X67401186Y-59892365D01*
X66732962Y-60560589D01*
X66715925Y-60497007D01*
X66650099Y-60382993D01*
X66557007Y-60289901D01*
X66442993Y-60224075D01*
X66379409Y-60207037D01*
X67048797Y-59537647D01*
X67048797Y-59537645D01*
X67018360Y-59513955D01*
X67018354Y-59513951D01*
X66814302Y-59403523D01*
X66814293Y-59403520D01*
X66594860Y-59328188D01*
X66366007Y-59290000D01*
X66133993Y-59290000D01*
X65905139Y-59328188D01*
X65685706Y-59403520D01*
X65685697Y-59403523D01*
X65481650Y-59513949D01*
X65451200Y-59537647D01*
X66120591Y-60207037D01*
X66057007Y-60224075D01*
X65942993Y-60289901D01*
X65849901Y-60382993D01*
X65784075Y-60497007D01*
X65767037Y-60560591D01*
X65098811Y-59892365D01*
X65014516Y-60021390D01*
X64921317Y-60233864D01*
X64864361Y-60458781D01*
X64845202Y-60689994D01*
X51500000Y-60689994D01*
X51500000Y-55099997D01*
X55645034Y-55099997D01*
X55645034Y-55100002D01*
X55664858Y-55326599D01*
X55664860Y-55326610D01*
X55723730Y-55546317D01*
X55723735Y-55546331D01*
X55819863Y-55752478D01*
X55870974Y-55825472D01*
X56550000Y-55146446D01*
X56550000Y-55152661D01*
X56577259Y-55254394D01*
X56629920Y-55345606D01*
X56704394Y-55420080D01*
X56795606Y-55472741D01*
X56897339Y-55500000D01*
X56903553Y-55500000D01*
X56219352Y-56184199D01*
X56209506Y-56233194D01*
X56160890Y-56283377D01*
X56105367Y-56298049D01*
X56105423Y-56299099D01*
X56105429Y-56299146D01*
X56105426Y-56299146D01*
X56105436Y-56299324D01*
X56102123Y-56299501D01*
X56042516Y-56305908D01*
X55907671Y-56356202D01*
X55907664Y-56356206D01*
X55792455Y-56442452D01*
X55792452Y-56442455D01*
X55706206Y-56557664D01*
X55706202Y-56557671D01*
X55655908Y-56692517D01*
X55649501Y-56752116D01*
X55649501Y-56752123D01*
X55649500Y-56752135D01*
X55649500Y-58447870D01*
X55649501Y-58447876D01*
X55655908Y-58507483D01*
X55706202Y-58642328D01*
X55706206Y-58642335D01*
X55792452Y-58757544D01*
X55792455Y-58757547D01*
X55907664Y-58843793D01*
X55907671Y-58843797D01*
X56042517Y-58894091D01*
X56042516Y-58894091D01*
X56049444Y-58894835D01*
X56102127Y-58900500D01*
X57797872Y-58900499D01*
X57857483Y-58894091D01*
X57992331Y-58843796D01*
X58107546Y-58757546D01*
X58193796Y-58642331D01*
X58244091Y-58507483D01*
X58250500Y-58447873D01*
X58250499Y-56752128D01*
X58244091Y-56692517D01*
X58209584Y-56600000D01*
X58193797Y-56557671D01*
X58193793Y-56557664D01*
X58107547Y-56442455D01*
X58107544Y-56442452D01*
X57992335Y-56356206D01*
X57992328Y-56356202D01*
X57857482Y-56305908D01*
X57857483Y-56305908D01*
X57797883Y-56299501D01*
X57797881Y-56299500D01*
X57797873Y-56299500D01*
X57797864Y-56299500D01*
X57794548Y-56299322D01*
X57794627Y-56297847D01*
X57733215Y-56279815D01*
X57687460Y-56227011D01*
X57679969Y-56183522D01*
X56996447Y-55500000D01*
X57002661Y-55500000D01*
X57104394Y-55472741D01*
X57195606Y-55420080D01*
X57270080Y-55345606D01*
X57322741Y-55254394D01*
X57350000Y-55152661D01*
X57350000Y-55146447D01*
X58029024Y-55825471D01*
X58080136Y-55752478D01*
X58146577Y-55609994D01*
X62305202Y-55609994D01*
X62305202Y-55610005D01*
X62324361Y-55841218D01*
X62381317Y-56066135D01*
X62474515Y-56278606D01*
X62558812Y-56407633D01*
X63227037Y-55739408D01*
X63244075Y-55802993D01*
X63309901Y-55917007D01*
X63402993Y-56010099D01*
X63517007Y-56075925D01*
X63580590Y-56092962D01*
X62911201Y-56762351D01*
X62941649Y-56786050D01*
X63145697Y-56896476D01*
X63145706Y-56896479D01*
X63365139Y-56971811D01*
X63593993Y-57010000D01*
X63826007Y-57010000D01*
X64054860Y-56971811D01*
X64274293Y-56896479D01*
X64274301Y-56896476D01*
X64478355Y-56786047D01*
X64508797Y-56762351D01*
X64508798Y-56762350D01*
X63839410Y-56092962D01*
X63902993Y-56075925D01*
X64017007Y-56010099D01*
X64110099Y-55917007D01*
X64175925Y-55802993D01*
X64192962Y-55739409D01*
X64861186Y-56407633D01*
X64945482Y-56278611D01*
X65038682Y-56066135D01*
X65095638Y-55841218D01*
X65114798Y-55610005D01*
X65114798Y-55609994D01*
X65114798Y-55609993D01*
X67384700Y-55609993D01*
X67384700Y-55610006D01*
X67403864Y-55841297D01*
X67403866Y-55841308D01*
X67460842Y-56066300D01*
X67554075Y-56278848D01*
X67681016Y-56473147D01*
X67681019Y-56473151D01*
X67681021Y-56473153D01*
X67838216Y-56643913D01*
X67838219Y-56643915D01*
X67838222Y-56643918D01*
X68021365Y-56786464D01*
X68021371Y-56786468D01*
X68021374Y-56786470D01*
X68188860Y-56877109D01*
X68224652Y-56896479D01*
X68225497Y-56896936D01*
X68339487Y-56936068D01*
X68445015Y-56972297D01*
X68445017Y-56972297D01*
X68445019Y-56972298D01*
X68673951Y-57010500D01*
X68673952Y-57010500D01*
X68906048Y-57010500D01*
X68906049Y-57010500D01*
X69134981Y-56972298D01*
X69354503Y-56896936D01*
X69558626Y-56786470D01*
X69559170Y-56786047D01*
X69679337Y-56692517D01*
X69741784Y-56643913D01*
X69898979Y-56473153D01*
X69979440Y-56349998D01*
X87694532Y-56349998D01*
X87694532Y-56350001D01*
X87714364Y-56576686D01*
X87714366Y-56576697D01*
X87773258Y-56796488D01*
X87773261Y-56796497D01*
X87869431Y-57002732D01*
X87869432Y-57002734D01*
X87999954Y-57189141D01*
X88160858Y-57350045D01*
X88160861Y-57350047D01*
X88347266Y-57480568D01*
X88553504Y-57576739D01*
X88773308Y-57635635D01*
X88935230Y-57649801D01*
X88999998Y-57655468D01*
X89000000Y-57655468D01*
X89000002Y-57655468D01*
X89062511Y-57649999D01*
X89226692Y-57635635D01*
X89446496Y-57576739D01*
X89652734Y-57480568D01*
X89839139Y-57350047D01*
X89996694Y-57192491D01*
X90058016Y-57159008D01*
X90127707Y-57163992D01*
X90183641Y-57205863D01*
X90205051Y-57251658D01*
X90206402Y-57257378D01*
X90256645Y-57392086D01*
X90256649Y-57392093D01*
X90342809Y-57507187D01*
X90342812Y-57507190D01*
X90457906Y-57593350D01*
X90457913Y-57593354D01*
X90592620Y-57643596D01*
X90592627Y-57643598D01*
X90652155Y-57649999D01*
X90652172Y-57650000D01*
X91250000Y-57650000D01*
X91250000Y-56665686D01*
X91254394Y-56670080D01*
X91345606Y-56722741D01*
X91447339Y-56750000D01*
X91552661Y-56750000D01*
X91654394Y-56722741D01*
X91745606Y-56670080D01*
X91750000Y-56665686D01*
X91750000Y-57650000D01*
X92347828Y-57650000D01*
X92347844Y-57649999D01*
X92407372Y-57643598D01*
X92407379Y-57643596D01*
X92542086Y-57593354D01*
X92542093Y-57593350D01*
X92657187Y-57507190D01*
X92657190Y-57507187D01*
X92743350Y-57392093D01*
X92743354Y-57392086D01*
X92793596Y-57257379D01*
X92793598Y-57257372D01*
X92799999Y-57197844D01*
X92800000Y-57197827D01*
X92800000Y-56600000D01*
X91815686Y-56600000D01*
X91820080Y-56595606D01*
X91872741Y-56504394D01*
X91900000Y-56402661D01*
X91900000Y-56297339D01*
X91872741Y-56195606D01*
X91820080Y-56104394D01*
X91815686Y-56100000D01*
X92800000Y-56100000D01*
X92800000Y-55502172D01*
X92799999Y-55502155D01*
X92793598Y-55442627D01*
X92793596Y-55442620D01*
X92743354Y-55307913D01*
X92743350Y-55307906D01*
X92657190Y-55192812D01*
X92657187Y-55192809D01*
X92542093Y-55106649D01*
X92542086Y-55106645D01*
X92407379Y-55056403D01*
X92407372Y-55056401D01*
X92347844Y-55050000D01*
X91750000Y-55050000D01*
X91750000Y-56034314D01*
X91745606Y-56029920D01*
X91654394Y-55977259D01*
X91552661Y-55950000D01*
X91447339Y-55950000D01*
X91345606Y-55977259D01*
X91254394Y-56029920D01*
X91250000Y-56034314D01*
X91250000Y-55050000D01*
X90652155Y-55050000D01*
X90592627Y-55056401D01*
X90592620Y-55056403D01*
X90457913Y-55106645D01*
X90457906Y-55106649D01*
X90342812Y-55192809D01*
X90342809Y-55192812D01*
X90256649Y-55307906D01*
X90256645Y-55307913D01*
X90206401Y-55442626D01*
X90205050Y-55448343D01*
X90170475Y-55509058D01*
X90108564Y-55541443D01*
X90038972Y-55535214D01*
X89996693Y-55507506D01*
X89839141Y-55349954D01*
X89652734Y-55219432D01*
X89652732Y-55219431D01*
X89446497Y-55123261D01*
X89446488Y-55123258D01*
X89226697Y-55064366D01*
X89226693Y-55064365D01*
X89226692Y-55064365D01*
X89226691Y-55064364D01*
X89226686Y-55064364D01*
X89000002Y-55044532D01*
X88999998Y-55044532D01*
X88773313Y-55064364D01*
X88773302Y-55064366D01*
X88553511Y-55123258D01*
X88553502Y-55123261D01*
X88347267Y-55219431D01*
X88347265Y-55219432D01*
X88160858Y-55349954D01*
X87999954Y-55510858D01*
X87869432Y-55697265D01*
X87869431Y-55697267D01*
X87773261Y-55903502D01*
X87773258Y-55903511D01*
X87714366Y-56123302D01*
X87714364Y-56123313D01*
X87694532Y-56349998D01*
X69979440Y-56349998D01*
X70025924Y-56278849D01*
X70119157Y-56066300D01*
X70176134Y-55841305D01*
X70176135Y-55841297D01*
X70195300Y-55610006D01*
X70195300Y-55609993D01*
X70176135Y-55378702D01*
X70176133Y-55378691D01*
X70119157Y-55153699D01*
X70025924Y-54941151D01*
X69898983Y-54746852D01*
X69898980Y-54746849D01*
X69898979Y-54746847D01*
X69741784Y-54576087D01*
X69741779Y-54576083D01*
X69741777Y-54576081D01*
X69558634Y-54433535D01*
X69558628Y-54433531D01*
X69354504Y-54323064D01*
X69354495Y-54323061D01*
X69134984Y-54247702D01*
X68963282Y-54219050D01*
X68906049Y-54209500D01*
X68673951Y-54209500D01*
X68628164Y-54217140D01*
X68445015Y-54247702D01*
X68225504Y-54323061D01*
X68225495Y-54323064D01*
X68021371Y-54433531D01*
X68021365Y-54433535D01*
X67838222Y-54576081D01*
X67838219Y-54576084D01*
X67681016Y-54746852D01*
X67554075Y-54941151D01*
X67460842Y-55153699D01*
X67403866Y-55378691D01*
X67403864Y-55378702D01*
X67384700Y-55609993D01*
X65114798Y-55609993D01*
X65095638Y-55378781D01*
X65038682Y-55153864D01*
X64945484Y-54941393D01*
X64861186Y-54812365D01*
X64192962Y-55480589D01*
X64175925Y-55417007D01*
X64110099Y-55302993D01*
X64017007Y-55209901D01*
X63902993Y-55144075D01*
X63839409Y-55127037D01*
X64508797Y-54457647D01*
X64508797Y-54457645D01*
X64478360Y-54433955D01*
X64478354Y-54433951D01*
X64274302Y-54323523D01*
X64274293Y-54323520D01*
X64054860Y-54248188D01*
X63826007Y-54210000D01*
X63593993Y-54210000D01*
X63365139Y-54248188D01*
X63145706Y-54323520D01*
X63145697Y-54323523D01*
X62941650Y-54433949D01*
X62911200Y-54457647D01*
X63580591Y-55127037D01*
X63517007Y-55144075D01*
X63402993Y-55209901D01*
X63309901Y-55302993D01*
X63244075Y-55417007D01*
X63227037Y-55480591D01*
X62558811Y-54812365D01*
X62474516Y-54941390D01*
X62381317Y-55153864D01*
X62324361Y-55378781D01*
X62305202Y-55609994D01*
X58146577Y-55609994D01*
X58176264Y-55546331D01*
X58176269Y-55546317D01*
X58235139Y-55326610D01*
X58235141Y-55326599D01*
X58254966Y-55100002D01*
X58254966Y-55099997D01*
X58235141Y-54873400D01*
X58235139Y-54873389D01*
X58176269Y-54653682D01*
X58176264Y-54653668D01*
X58080136Y-54447521D01*
X58080132Y-54447513D01*
X58029025Y-54374526D01*
X57350000Y-55053551D01*
X57350000Y-55047339D01*
X57322741Y-54945606D01*
X57270080Y-54854394D01*
X57195606Y-54779920D01*
X57104394Y-54727259D01*
X57002661Y-54700000D01*
X56996448Y-54700000D01*
X57675472Y-54020974D01*
X57602478Y-53969863D01*
X57396331Y-53873735D01*
X57396317Y-53873730D01*
X57176610Y-53814860D01*
X57176599Y-53814858D01*
X56950002Y-53795034D01*
X56949998Y-53795034D01*
X56723400Y-53814858D01*
X56723389Y-53814860D01*
X56503682Y-53873730D01*
X56503673Y-53873734D01*
X56297516Y-53969866D01*
X56297512Y-53969868D01*
X56224526Y-54020973D01*
X56224526Y-54020974D01*
X56903553Y-54700000D01*
X56897339Y-54700000D01*
X56795606Y-54727259D01*
X56704394Y-54779920D01*
X56629920Y-54854394D01*
X56577259Y-54945606D01*
X56550000Y-55047339D01*
X56550000Y-55053552D01*
X55870974Y-54374526D01*
X55870973Y-54374526D01*
X55819868Y-54447512D01*
X55819866Y-54447516D01*
X55723734Y-54653673D01*
X55723730Y-54653682D01*
X55664860Y-54873389D01*
X55664858Y-54873400D01*
X55645034Y-55099997D01*
X51500000Y-55099997D01*
X51500000Y-51624000D01*
X51519685Y-51556961D01*
X51572489Y-51511206D01*
X51624000Y-51500000D01*
X95376000Y-51500000D01*
X95443039Y-51519685D01*
G37*
%TD.AperFunction*%
%TD*%
M02*
