%TF.GenerationSoftware,KiCad,Pcbnew,8.0.4*%
%TF.CreationDate,2025-01-19T17:37:52+00:00*%
%TF.ProjectId,33063_invert,33333036-335f-4696-9e76-6572742e6b69,rev?*%
%TF.SameCoordinates,Original*%
%TF.FileFunction,Legend,Bot*%
%TF.FilePolarity,Positive*%
%FSLAX46Y46*%
G04 Gerber Fmt 4.6, Leading zero omitted, Abs format (unit mm)*
G04 Created by KiCad (PCBNEW 8.0.4) date 2025-01-19 17:37:52*
%MOMM*%
%LPD*%
G01*
G04 APERTURE LIST*
%ADD10C,0.300000*%
G04 APERTURE END LIST*
D10*
X80595238Y-61409638D02*
X80595238Y-59409638D01*
X79642857Y-61409638D02*
X79642857Y-59409638D01*
X79642857Y-59409638D02*
X78500000Y-61409638D01*
X78500000Y-61409638D02*
X78500000Y-59409638D01*
X77833333Y-59409638D02*
X77166667Y-61409638D01*
X77166667Y-61409638D02*
X76500000Y-59409638D01*
X75833333Y-60362019D02*
X75166666Y-60362019D01*
X74880952Y-61409638D02*
X75833333Y-61409638D01*
X75833333Y-61409638D02*
X75833333Y-59409638D01*
X75833333Y-59409638D02*
X74880952Y-59409638D01*
X72880952Y-61409638D02*
X73547619Y-60457257D01*
X74023809Y-61409638D02*
X74023809Y-59409638D01*
X74023809Y-59409638D02*
X73261904Y-59409638D01*
X73261904Y-59409638D02*
X73071428Y-59504876D01*
X73071428Y-59504876D02*
X72976190Y-59600114D01*
X72976190Y-59600114D02*
X72880952Y-59790590D01*
X72880952Y-59790590D02*
X72880952Y-60076304D01*
X72880952Y-60076304D02*
X72976190Y-60266780D01*
X72976190Y-60266780D02*
X73071428Y-60362019D01*
X73071428Y-60362019D02*
X73261904Y-60457257D01*
X73261904Y-60457257D02*
X74023809Y-60457257D01*
X72309523Y-59409638D02*
X71166666Y-59409638D01*
X71738095Y-61409638D02*
X71738095Y-59409638D01*
X70499999Y-61409638D02*
X70499999Y-59409638D01*
X69547618Y-61409638D02*
X69547618Y-59409638D01*
X69547618Y-59409638D02*
X68404761Y-61409638D01*
X68404761Y-61409638D02*
X68404761Y-59409638D01*
X66404761Y-59504876D02*
X66595237Y-59409638D01*
X66595237Y-59409638D02*
X66880951Y-59409638D01*
X66880951Y-59409638D02*
X67166666Y-59504876D01*
X67166666Y-59504876D02*
X67357142Y-59695352D01*
X67357142Y-59695352D02*
X67452380Y-59885828D01*
X67452380Y-59885828D02*
X67547618Y-60266780D01*
X67547618Y-60266780D02*
X67547618Y-60552495D01*
X67547618Y-60552495D02*
X67452380Y-60933447D01*
X67452380Y-60933447D02*
X67357142Y-61123923D01*
X67357142Y-61123923D02*
X67166666Y-61314400D01*
X67166666Y-61314400D02*
X66880951Y-61409638D01*
X66880951Y-61409638D02*
X66690475Y-61409638D01*
X66690475Y-61409638D02*
X66404761Y-61314400D01*
X66404761Y-61314400D02*
X66309523Y-61219161D01*
X66309523Y-61219161D02*
X66309523Y-60552495D01*
X66309523Y-60552495D02*
X66690475Y-60552495D01*
X94678569Y-63178328D02*
X94178569Y-64678328D01*
X94178569Y-64678328D02*
X93678569Y-63178328D01*
X92964284Y-64678328D02*
X93107141Y-64606900D01*
X93107141Y-64606900D02*
X93178570Y-64535471D01*
X93178570Y-64535471D02*
X93249998Y-64392614D01*
X93249998Y-64392614D02*
X93249998Y-63964042D01*
X93249998Y-63964042D02*
X93178570Y-63821185D01*
X93178570Y-63821185D02*
X93107141Y-63749757D01*
X93107141Y-63749757D02*
X92964284Y-63678328D01*
X92964284Y-63678328D02*
X92749998Y-63678328D01*
X92749998Y-63678328D02*
X92607141Y-63749757D01*
X92607141Y-63749757D02*
X92535713Y-63821185D01*
X92535713Y-63821185D02*
X92464284Y-63964042D01*
X92464284Y-63964042D02*
X92464284Y-64392614D01*
X92464284Y-64392614D02*
X92535713Y-64535471D01*
X92535713Y-64535471D02*
X92607141Y-64606900D01*
X92607141Y-64606900D02*
X92749998Y-64678328D01*
X92749998Y-64678328D02*
X92964284Y-64678328D01*
X91178570Y-63678328D02*
X91178570Y-64678328D01*
X91821427Y-63678328D02*
X91821427Y-64464042D01*
X91821427Y-64464042D02*
X91749998Y-64606900D01*
X91749998Y-64606900D02*
X91607141Y-64678328D01*
X91607141Y-64678328D02*
X91392855Y-64678328D01*
X91392855Y-64678328D02*
X91249998Y-64606900D01*
X91249998Y-64606900D02*
X91178570Y-64535471D01*
X90678569Y-63678328D02*
X90107141Y-63678328D01*
X90464284Y-63178328D02*
X90464284Y-64464042D01*
X90464284Y-64464042D02*
X90392855Y-64606900D01*
X90392855Y-64606900D02*
X90249998Y-64678328D01*
X90249998Y-64678328D02*
X90107141Y-64678328D01*
X88464284Y-63892614D02*
X87321427Y-63892614D01*
X87321427Y-64321185D02*
X88464284Y-64321185D01*
X85464284Y-64106900D02*
X84321427Y-64106900D01*
X82821426Y-64678328D02*
X83678569Y-64678328D01*
X83249998Y-64678328D02*
X83249998Y-63178328D01*
X83249998Y-63178328D02*
X83392855Y-63392614D01*
X83392855Y-63392614D02*
X83535712Y-63535471D01*
X83535712Y-63535471D02*
X83678569Y-63606900D01*
X82178570Y-64535471D02*
X82107141Y-64606900D01*
X82107141Y-64606900D02*
X82178570Y-64678328D01*
X82178570Y-64678328D02*
X82249998Y-64606900D01*
X82249998Y-64606900D02*
X82178570Y-64535471D01*
X82178570Y-64535471D02*
X82178570Y-64678328D01*
X81535712Y-63321185D02*
X81464284Y-63249757D01*
X81464284Y-63249757D02*
X81321427Y-63178328D01*
X81321427Y-63178328D02*
X80964284Y-63178328D01*
X80964284Y-63178328D02*
X80821427Y-63249757D01*
X80821427Y-63249757D02*
X80749998Y-63321185D01*
X80749998Y-63321185D02*
X80678569Y-63464042D01*
X80678569Y-63464042D02*
X80678569Y-63606900D01*
X80678569Y-63606900D02*
X80749998Y-63821185D01*
X80749998Y-63821185D02*
X81607141Y-64678328D01*
X81607141Y-64678328D02*
X80678569Y-64678328D01*
X79321427Y-63178328D02*
X80035713Y-63178328D01*
X80035713Y-63178328D02*
X80107141Y-63892614D01*
X80107141Y-63892614D02*
X80035713Y-63821185D01*
X80035713Y-63821185D02*
X79892856Y-63749757D01*
X79892856Y-63749757D02*
X79535713Y-63749757D01*
X79535713Y-63749757D02*
X79392856Y-63821185D01*
X79392856Y-63821185D02*
X79321427Y-63892614D01*
X79321427Y-63892614D02*
X79249998Y-64035471D01*
X79249998Y-64035471D02*
X79249998Y-64392614D01*
X79249998Y-64392614D02*
X79321427Y-64535471D01*
X79321427Y-64535471D02*
X79392856Y-64606900D01*
X79392856Y-64606900D02*
X79535713Y-64678328D01*
X79535713Y-64678328D02*
X79892856Y-64678328D01*
X79892856Y-64678328D02*
X80035713Y-64606900D01*
X80035713Y-64606900D02*
X80107141Y-64535471D01*
X77249999Y-63178328D02*
X77249999Y-63535471D01*
X77607142Y-63392614D02*
X77249999Y-63535471D01*
X77249999Y-63535471D02*
X76892856Y-63392614D01*
X77464285Y-63821185D02*
X77249999Y-63535471D01*
X77249999Y-63535471D02*
X77035713Y-63821185D01*
X74749999Y-65249757D02*
X74821428Y-65178328D01*
X74821428Y-65178328D02*
X74964285Y-64964042D01*
X74964285Y-64964042D02*
X75035714Y-64821185D01*
X75035714Y-64821185D02*
X75107142Y-64606900D01*
X75107142Y-64606900D02*
X75178571Y-64249757D01*
X75178571Y-64249757D02*
X75178571Y-63964042D01*
X75178571Y-63964042D02*
X75107142Y-63606900D01*
X75107142Y-63606900D02*
X75035714Y-63392614D01*
X75035714Y-63392614D02*
X74964285Y-63249757D01*
X74964285Y-63249757D02*
X74821428Y-63035471D01*
X74821428Y-63035471D02*
X74749999Y-62964042D01*
X73392856Y-64678328D02*
X74249999Y-64678328D01*
X73821428Y-64678328D02*
X73821428Y-63178328D01*
X73821428Y-63178328D02*
X73964285Y-63392614D01*
X73964285Y-63392614D02*
X74107142Y-63535471D01*
X74107142Y-63535471D02*
X74249999Y-63606900D01*
X71607143Y-64106900D02*
X70464286Y-64106900D01*
X71035714Y-64678328D02*
X71035714Y-63535471D01*
X68178571Y-65249757D02*
X68250000Y-65178328D01*
X68250000Y-65178328D02*
X68392857Y-64964042D01*
X68392857Y-64964042D02*
X68464286Y-64821185D01*
X68464286Y-64821185D02*
X68535714Y-64606900D01*
X68535714Y-64606900D02*
X68607143Y-64249757D01*
X68607143Y-64249757D02*
X68607143Y-63964042D01*
X68607143Y-63964042D02*
X68535714Y-63606900D01*
X68535714Y-63606900D02*
X68464286Y-63392614D01*
X68464286Y-63392614D02*
X68392857Y-63249757D01*
X68392857Y-63249757D02*
X68250000Y-63035471D01*
X68250000Y-63035471D02*
X68178571Y-62964042D01*
X66750000Y-64678328D02*
X67250000Y-63964042D01*
X67607143Y-64678328D02*
X67607143Y-63178328D01*
X67607143Y-63178328D02*
X67035714Y-63178328D01*
X67035714Y-63178328D02*
X66892857Y-63249757D01*
X66892857Y-63249757D02*
X66821428Y-63321185D01*
X66821428Y-63321185D02*
X66750000Y-63464042D01*
X66750000Y-63464042D02*
X66750000Y-63678328D01*
X66750000Y-63678328D02*
X66821428Y-63821185D01*
X66821428Y-63821185D02*
X66892857Y-63892614D01*
X66892857Y-63892614D02*
X67035714Y-63964042D01*
X67035714Y-63964042D02*
X67607143Y-63964042D01*
X66178571Y-63321185D02*
X66107143Y-63249757D01*
X66107143Y-63249757D02*
X65964286Y-63178328D01*
X65964286Y-63178328D02*
X65607143Y-63178328D01*
X65607143Y-63178328D02*
X65464286Y-63249757D01*
X65464286Y-63249757D02*
X65392857Y-63321185D01*
X65392857Y-63321185D02*
X65321428Y-63464042D01*
X65321428Y-63464042D02*
X65321428Y-63606900D01*
X65321428Y-63606900D02*
X65392857Y-63821185D01*
X65392857Y-63821185D02*
X66250000Y-64678328D01*
X66250000Y-64678328D02*
X65321428Y-64678328D01*
X64678572Y-64106900D02*
X63535715Y-64106900D01*
X64107143Y-64678328D02*
X64107143Y-63535471D01*
X61964286Y-64678328D02*
X62464286Y-63964042D01*
X62821429Y-64678328D02*
X62821429Y-63178328D01*
X62821429Y-63178328D02*
X62250000Y-63178328D01*
X62250000Y-63178328D02*
X62107143Y-63249757D01*
X62107143Y-63249757D02*
X62035714Y-63321185D01*
X62035714Y-63321185D02*
X61964286Y-63464042D01*
X61964286Y-63464042D02*
X61964286Y-63678328D01*
X61964286Y-63678328D02*
X62035714Y-63821185D01*
X62035714Y-63821185D02*
X62107143Y-63892614D01*
X62107143Y-63892614D02*
X62250000Y-63964042D01*
X62250000Y-63964042D02*
X62821429Y-63964042D01*
X61535714Y-63178328D02*
X61035714Y-64678328D01*
X61035714Y-64678328D02*
X60535714Y-63178328D01*
X59250000Y-64678328D02*
X60107143Y-64678328D01*
X59678572Y-64678328D02*
X59678572Y-63178328D01*
X59678572Y-63178328D02*
X59821429Y-63392614D01*
X59821429Y-63392614D02*
X59964286Y-63535471D01*
X59964286Y-63535471D02*
X60107143Y-63606900D01*
X58750001Y-65249757D02*
X58678572Y-65178328D01*
X58678572Y-65178328D02*
X58535715Y-64964042D01*
X58535715Y-64964042D02*
X58464287Y-64821185D01*
X58464287Y-64821185D02*
X58392858Y-64606900D01*
X58392858Y-64606900D02*
X58321429Y-64249757D01*
X58321429Y-64249757D02*
X58321429Y-63964042D01*
X58321429Y-63964042D02*
X58392858Y-63606900D01*
X58392858Y-63606900D02*
X58464287Y-63392614D01*
X58464287Y-63392614D02*
X58535715Y-63249757D01*
X58535715Y-63249757D02*
X58678572Y-63035471D01*
X58678572Y-63035471D02*
X58750001Y-62964042D01*
X55392858Y-63106900D02*
X56678572Y-65035471D01*
X52892858Y-64678328D02*
X53392858Y-63964042D01*
X53750001Y-64678328D02*
X53750001Y-63178328D01*
X53750001Y-63178328D02*
X53178572Y-63178328D01*
X53178572Y-63178328D02*
X53035715Y-63249757D01*
X53035715Y-63249757D02*
X52964286Y-63321185D01*
X52964286Y-63321185D02*
X52892858Y-63464042D01*
X52892858Y-63464042D02*
X52892858Y-63678328D01*
X52892858Y-63678328D02*
X52964286Y-63821185D01*
X52964286Y-63821185D02*
X53035715Y-63892614D01*
X53035715Y-63892614D02*
X53178572Y-63964042D01*
X53178572Y-63964042D02*
X53750001Y-63964042D01*
X51464286Y-64678328D02*
X52321429Y-64678328D01*
X51892858Y-64678328D02*
X51892858Y-63178328D01*
X51892858Y-63178328D02*
X52035715Y-63392614D01*
X52035715Y-63392614D02*
X52178572Y-63535471D01*
X52178572Y-63535471D02*
X52321429Y-63606900D01*
X50964287Y-65249757D02*
X50892858Y-65178328D01*
X50892858Y-65178328D02*
X50750001Y-64964042D01*
X50750001Y-64964042D02*
X50678573Y-64821185D01*
X50678573Y-64821185D02*
X50607144Y-64606900D01*
X50607144Y-64606900D02*
X50535715Y-64249757D01*
X50535715Y-64249757D02*
X50535715Y-63964042D01*
X50535715Y-63964042D02*
X50607144Y-63606900D01*
X50607144Y-63606900D02*
X50678573Y-63392614D01*
X50678573Y-63392614D02*
X50750001Y-63249757D01*
X50750001Y-63249757D02*
X50892858Y-63035471D01*
X50892858Y-63035471D02*
X50964287Y-62964042D01*
M02*
