%TF.GenerationSoftware,KiCad,Pcbnew,8.0.4*%
%TF.CreationDate,2025-01-06T15:16:24+00:00*%
%TF.ProjectId,33063_invert,33333036-335f-4696-9e76-6572742e6b69,rev?*%
%TF.SameCoordinates,Original*%
%TF.FileFunction,Copper,L1,Top*%
%TF.FilePolarity,Positive*%
%FSLAX46Y46*%
G04 Gerber Fmt 4.6, Leading zero omitted, Abs format (unit mm)*
G04 Created by KiCad (PCBNEW 8.0.4) date 2025-01-06 15:16:24*
%MOMM*%
%LPD*%
G01*
G04 APERTURE LIST*
G04 Aperture macros list*
%AMRoundRect*
0 Rectangle with rounded corners*
0 $1 Rounding radius*
0 $2 $3 $4 $5 $6 $7 $8 $9 X,Y pos of 4 corners*
0 Add a 4 corners polygon primitive as box body*
4,1,4,$2,$3,$4,$5,$6,$7,$8,$9,$2,$3,0*
0 Add four circle primitives for the rounded corners*
1,1,$1+$1,$2,$3*
1,1,$1+$1,$4,$5*
1,1,$1+$1,$6,$7*
1,1,$1+$1,$8,$9*
0 Add four rect primitives between the rounded corners*
20,1,$1+$1,$2,$3,$4,$5,0*
20,1,$1+$1,$4,$5,$6,$7,0*
20,1,$1+$1,$6,$7,$8,$9,0*
20,1,$1+$1,$8,$9,$2,$3,0*%
%AMFreePoly0*
4,1,19,0.500000,-0.750000,0.000000,-0.750000,0.000000,-0.744911,-0.071157,-0.744911,-0.207708,-0.704816,-0.327430,-0.627875,-0.420627,-0.520320,-0.479746,-0.390866,-0.500000,-0.250000,-0.500000,0.250000,-0.479746,0.390866,-0.420627,0.520320,-0.327430,0.627875,-0.207708,0.704816,-0.071157,0.744911,0.000000,0.744911,0.000000,0.750000,0.500000,0.750000,0.500000,-0.750000,0.500000,-0.750000,
$1*%
%AMFreePoly1*
4,1,19,0.000000,0.744911,0.071157,0.744911,0.207708,0.704816,0.327430,0.627875,0.420627,0.520320,0.479746,0.390866,0.500000,0.250000,0.500000,-0.250000,0.479746,-0.390866,0.420627,-0.520320,0.327430,-0.627875,0.207708,-0.704816,0.071157,-0.744911,0.000000,-0.744911,0.000000,-0.750000,-0.500000,-0.750000,-0.500000,0.750000,0.000000,0.750000,0.000000,0.744911,0.000000,0.744911,
$1*%
G04 Aperture macros list end*
%TA.AperFunction,ComponentPad*%
%ADD10RoundRect,0.250000X-0.500000X-1.750000X0.500000X-1.750000X0.500000X1.750000X-0.500000X1.750000X0*%
%TD*%
%TA.AperFunction,SMDPad,CuDef*%
%ADD11RoundRect,0.249999X0.450001X1.425001X-0.450001X1.425001X-0.450001X-1.425001X0.450001X-1.425001X0*%
%TD*%
%TA.AperFunction,SMDPad,CuDef*%
%ADD12R,2.150000X5.500000*%
%TD*%
%TA.AperFunction,SMDPad,CuDef*%
%ADD13FreePoly0,0.000000*%
%TD*%
%TA.AperFunction,SMDPad,CuDef*%
%ADD14FreePoly1,0.000000*%
%TD*%
%TA.AperFunction,ComponentPad*%
%ADD15R,1.600000X1.600000*%
%TD*%
%TA.AperFunction,ComponentPad*%
%ADD16C,1.600000*%
%TD*%
%TA.AperFunction,SMDPad,CuDef*%
%ADD17RoundRect,0.250000X-0.350000X-0.450000X0.350000X-0.450000X0.350000X0.450000X-0.350000X0.450000X0*%
%TD*%
%TA.AperFunction,SMDPad,CuDef*%
%ADD18RoundRect,0.250000X0.650000X-1.500000X0.650000X1.500000X-0.650000X1.500000X-0.650000X-1.500000X0*%
%TD*%
%TA.AperFunction,SMDPad,CuDef*%
%ADD19RoundRect,0.150000X0.825000X0.150000X-0.825000X0.150000X-0.825000X-0.150000X0.825000X-0.150000X0*%
%TD*%
%TA.AperFunction,SMDPad,CuDef*%
%ADD20RoundRect,0.200000X-0.620000X-2.300000X0.620000X-2.300000X0.620000X2.300000X-0.620000X2.300000X0*%
%TD*%
%TA.AperFunction,SMDPad,CuDef*%
%ADD21RoundRect,0.250000X-0.337500X-0.475000X0.337500X-0.475000X0.337500X0.475000X-0.337500X0.475000X0*%
%TD*%
%TA.AperFunction,ComponentPad*%
%ADD22C,1.800000*%
%TD*%
%TA.AperFunction,ViaPad*%
%ADD23C,2.000000*%
%TD*%
%TA.AperFunction,Conductor*%
%ADD24C,2.000000*%
%TD*%
%TA.AperFunction,Conductor*%
%ADD25C,0.800000*%
%TD*%
%TA.AperFunction,Conductor*%
%ADD26C,0.200000*%
%TD*%
%TA.AperFunction,Conductor*%
%ADD27C,1.800000*%
%TD*%
G04 APERTURE END LIST*
D10*
%TO.P,J1,1,Pin_1*%
%TO.N,GND2*%
X53180000Y-68000000D03*
%TO.P,J1,2,Pin_2*%
%TO.N,/Vin_2*%
X55720000Y-68000000D03*
%TD*%
D11*
%TO.P,R1,1*%
%TO.N,/Vsense*%
X66750000Y-67550000D03*
%TO.P,R1,2*%
%TO.N,/Vin_2*%
X60650000Y-67550000D03*
%TD*%
D12*
%TO.P,L1,1,1*%
%TO.N,GND2*%
X74875000Y-66350000D03*
%TO.P,L1,2,2*%
%TO.N,/Lin_2*%
X78725000Y-66350000D03*
%TD*%
D13*
%TO.P,JP2,1,A*%
%TO.N,GND2*%
X65600000Y-53100000D03*
D14*
%TO.P,JP2,2,B*%
%TO.N,Net-(JP2-B)*%
X66900000Y-53100000D03*
%TD*%
D15*
%TO.P,C1,1*%
%TO.N,/Vin_2*%
X56950000Y-57600000D03*
D16*
%TO.P,C1,2*%
%TO.N,GND2*%
X56950000Y-55100000D03*
%TD*%
D10*
%TO.P,J2,1,Pin_1*%
%TO.N,/Vout_2*%
X91280000Y-68000000D03*
%TO.P,J2,2,Pin_2*%
%TO.N,GND2*%
X93820000Y-68000000D03*
%TD*%
D17*
%TO.P,R3,1*%
%TO.N,/Vfb_2*%
X76650000Y-53100000D03*
%TO.P,R3,2*%
%TO.N,/Vout_2*%
X78650000Y-53100000D03*
%TD*%
D18*
%TO.P,D1,1,K*%
%TO.N,/Lin_2*%
X85500000Y-67160000D03*
%TO.P,D1,2,A*%
%TO.N,/Vout_2*%
X85500000Y-62160000D03*
%TD*%
D19*
%TO.P,U1,1,Swc*%
%TO.N,/Vsense*%
X77425000Y-59955000D03*
%TO.P,U1,2,Swe*%
%TO.N,/Lin_2*%
X77425000Y-58685000D03*
%TO.P,U1,3,Ct*%
%TO.N,/Ct_2*%
X77425000Y-57415000D03*
%TO.P,U1,4,GND*%
%TO.N,/Vout_2*%
X77425000Y-56145000D03*
%TO.P,U1,5,Vfb*%
%TO.N,/Vfb_2*%
X72475000Y-56145000D03*
%TO.P,U1,6,Vcc*%
%TO.N,/Vin_2*%
X72475000Y-57415000D03*
%TO.P,U1,7,Ipk*%
%TO.N,/Vsense*%
X72475000Y-58685000D03*
%TO.P,U1,8,Dc*%
X72475000Y-59955000D03*
%TD*%
D16*
%TO.P,C3,2*%
%TO.N,/Vout_2*%
X89000000Y-56350000D03*
D15*
%TO.P,C3,1*%
%TO.N,GND2*%
X91500000Y-56350000D03*
%TD*%
D20*
%TO.P,R100,1*%
%TO.N,/Vin_2*%
X62430000Y-66700000D03*
%TO.P,R100,2*%
%TO.N,/Vsense*%
X64970000Y-66700000D03*
%TD*%
D17*
%TO.P,R2,1*%
%TO.N,Net-(JP2-B)*%
X71650000Y-53100000D03*
%TO.P,R2,2*%
%TO.N,/Vfb_2*%
X73650000Y-53100000D03*
%TD*%
D21*
%TO.P,C2,1*%
%TO.N,/Ct_2*%
X81112500Y-56950000D03*
%TO.P,C2,2*%
%TO.N,/Vout_2*%
X83187500Y-56950000D03*
%TD*%
D22*
%TO.P,RV1,1,1*%
%TO.N,Net-(JP2-B)*%
X68790000Y-55610000D03*
%TO.P,RV1,2,2*%
%TO.N,GND2*%
X66250000Y-60690000D03*
%TO.P,RV1,3,3*%
X63710000Y-55610000D03*
%TD*%
D23*
%TO.N,GND2*%
X71650000Y-66350000D03*
%TD*%
D24*
%TO.N,/Vin_2*%
X55700000Y-58850000D02*
X55700000Y-63940000D01*
X56950000Y-57600000D02*
X55700000Y-58850000D01*
X55720000Y-68000000D02*
X59400000Y-68000000D01*
D25*
X72460000Y-57400000D02*
X72475000Y-57415000D01*
X56950000Y-57600000D02*
X57150000Y-57400000D01*
X59850000Y-67550000D02*
X59400000Y-68000000D01*
X61500000Y-66700000D02*
X60650000Y-67550000D01*
X62430000Y-66700000D02*
X61500000Y-66700000D01*
D24*
X55700000Y-63940000D02*
X55700000Y-67980000D01*
D25*
X60650000Y-67550000D02*
X59850000Y-67550000D01*
D24*
X55700000Y-67980000D02*
X55720000Y-68000000D01*
D25*
X57150000Y-57400000D02*
X72460000Y-57400000D01*
D26*
%TO.N,GND2*%
X63710000Y-54990000D02*
X63710000Y-55610000D01*
D24*
X74875000Y-66350000D02*
X71650000Y-66350000D01*
D26*
X65600000Y-53100000D02*
X63710000Y-54990000D01*
D25*
X63710000Y-55610000D02*
X63940000Y-55610000D01*
%TO.N,/Ct_2*%
X77425000Y-57415000D02*
X80647500Y-57415000D01*
X80647500Y-57415000D02*
X81112500Y-56950000D01*
%TO.N,/Vout_2*%
X87800000Y-56350000D02*
X87200000Y-56950000D01*
X84500000Y-53050000D02*
X87800000Y-56350000D01*
D24*
X91280000Y-68000000D02*
X91280000Y-65580000D01*
X87860000Y-62160000D02*
X85500000Y-62160000D01*
D25*
X80550000Y-53060000D02*
X80540000Y-53050000D01*
X81190000Y-53050000D02*
X80540000Y-53050000D01*
X81190000Y-54210000D02*
X79255000Y-56145000D01*
X81190000Y-53050000D02*
X81190000Y-54210000D01*
D24*
X87860000Y-62160000D02*
X88010000Y-62160000D01*
X89000000Y-61170000D02*
X89000000Y-56350000D01*
D25*
X80540000Y-53050000D02*
X78650000Y-53050000D01*
X87200000Y-56950000D02*
X83187500Y-56950000D01*
D24*
X88010000Y-62160000D02*
X89000000Y-61170000D01*
D25*
X84500000Y-53050000D02*
X81190000Y-53050000D01*
X79255000Y-56145000D02*
X77425000Y-56145000D01*
X87800000Y-56350000D02*
X89000000Y-56350000D01*
D24*
X91280000Y-65580000D02*
X87860000Y-62160000D01*
D25*
%TO.N,/Vsense*%
X77425000Y-61575000D02*
X77150000Y-61850000D01*
X65900000Y-66700000D02*
X66750000Y-67550000D01*
X77425000Y-59955000D02*
X77425000Y-61575000D01*
X72475000Y-61825000D02*
X72450000Y-61850000D01*
D24*
X72450000Y-61850000D02*
X77150000Y-61850000D01*
X66950000Y-67550000D02*
X72650000Y-61850000D01*
D25*
X72475000Y-58685000D02*
X72475000Y-59955000D01*
X64970000Y-66700000D02*
X65900000Y-66700000D01*
X66750000Y-67550000D02*
X66950000Y-67550000D01*
X72475000Y-59955000D02*
X72475000Y-61825000D01*
D26*
%TO.N,/Vfb_2*%
X73650000Y-54970000D02*
X73650000Y-53100000D01*
X76650000Y-53100000D02*
X73650000Y-53100000D01*
X72475000Y-56145000D02*
X73650000Y-54970000D01*
D25*
%TO.N,/Lin_2*%
X78835000Y-58685000D02*
X80100000Y-59950000D01*
D27*
X84690000Y-66350000D02*
X78725000Y-66350000D01*
D25*
X77425000Y-58685000D02*
X78835000Y-58685000D01*
D27*
X78725000Y-66350000D02*
X80100000Y-64975000D01*
X85500000Y-67160000D02*
X84690000Y-66350000D01*
X80100000Y-64975000D02*
X80100000Y-59950000D01*
D26*
%TO.N,Net-(JP2-B)*%
X68790000Y-55610000D02*
X66900000Y-53720000D01*
X71300000Y-53100000D02*
X68790000Y-55610000D01*
X66900000Y-53720000D02*
X66900000Y-53100000D01*
X71650000Y-53100000D02*
X71300000Y-53100000D01*
%TD*%
%TA.AperFunction,Conductor*%
%TO.N,/Vfb_2*%
G36*
X72922383Y-55568120D02*
G01*
X73186888Y-55832625D01*
X73190315Y-55840898D01*
X73186888Y-55849171D01*
X73183098Y-55851705D01*
X72485136Y-56141209D01*
X72476181Y-56141214D01*
X72469846Y-56134885D01*
X72354866Y-55855051D01*
X72354891Y-55846096D01*
X72360454Y-55840140D01*
X72908881Y-55565927D01*
X72917810Y-55565293D01*
X72922383Y-55568120D01*
G37*
%TD.AperFunction*%
%TD*%
M02*
