%TF.GenerationSoftware,KiCad,Pcbnew,8.0.4*%
%TF.CreationDate,2025-01-06T15:16:24+00:00*%
%TF.ProjectId,33063_invert,33333036-335f-4696-9e76-6572742e6b69,rev?*%
%TF.SameCoordinates,Original*%
%TF.FileFunction,Legend,Top*%
%TF.FilePolarity,Positive*%
%FSLAX46Y46*%
G04 Gerber Fmt 4.6, Leading zero omitted, Abs format (unit mm)*
G04 Created by KiCad (PCBNEW 8.0.4) date 2025-01-06 15:16:24*
%MOMM*%
%LPD*%
G01*
G04 APERTURE LIST*
%ADD10C,0.100000*%
%ADD11C,0.360000*%
%ADD12C,0.200000*%
%ADD13C,0.150000*%
%ADD14C,0.120000*%
G04 APERTURE END LIST*
D10*
X76100000Y-59300000D02*
X76200000Y-59150000D01*
X76300000Y-59600000D01*
X75800000Y-59450000D01*
X75950000Y-59350000D01*
X75400000Y-58850000D01*
X75550000Y-58700000D01*
X76100000Y-59300000D01*
G36*
X76100000Y-59300000D02*
G01*
X76200000Y-59150000D01*
X76300000Y-59600000D01*
X75800000Y-59450000D01*
X75950000Y-59350000D01*
X75400000Y-58850000D01*
X75550000Y-58700000D01*
X76100000Y-59300000D01*
G37*
D11*
X56613994Y-64092856D02*
X54813994Y-64092856D01*
X56613994Y-63235713D02*
X54813994Y-63235713D01*
X54813994Y-63235713D02*
X56613994Y-62207142D01*
X56613994Y-62207142D02*
X54813994Y-62207142D01*
D12*
X75443482Y-59667219D02*
X74872054Y-59667219D01*
X75157768Y-59667219D02*
X75157768Y-58667219D01*
X75157768Y-58667219D02*
X75062530Y-58810076D01*
X75062530Y-58810076D02*
X74967292Y-58905314D01*
X74967292Y-58905314D02*
X74872054Y-58952933D01*
D11*
X90263994Y-64949999D02*
X90263994Y-64607142D01*
X90263994Y-64607142D02*
X90349708Y-64435713D01*
X90349708Y-64435713D02*
X90521137Y-64264285D01*
X90521137Y-64264285D02*
X90863994Y-64178570D01*
X90863994Y-64178570D02*
X91463994Y-64178570D01*
X91463994Y-64178570D02*
X91806851Y-64264285D01*
X91806851Y-64264285D02*
X91978280Y-64435713D01*
X91978280Y-64435713D02*
X92063994Y-64607142D01*
X92063994Y-64607142D02*
X92063994Y-64949999D01*
X92063994Y-64949999D02*
X91978280Y-65121428D01*
X91978280Y-65121428D02*
X91806851Y-65292856D01*
X91806851Y-65292856D02*
X91463994Y-65378570D01*
X91463994Y-65378570D02*
X90863994Y-65378570D01*
X90863994Y-65378570D02*
X90521137Y-65292856D01*
X90521137Y-65292856D02*
X90349708Y-65121428D01*
X90349708Y-65121428D02*
X90263994Y-64949999D01*
X90263994Y-63407142D02*
X91721137Y-63407142D01*
X91721137Y-63407142D02*
X91892565Y-63321428D01*
X91892565Y-63321428D02*
X91978280Y-63235714D01*
X91978280Y-63235714D02*
X92063994Y-63064285D01*
X92063994Y-63064285D02*
X92063994Y-62721428D01*
X92063994Y-62721428D02*
X91978280Y-62549999D01*
X91978280Y-62549999D02*
X91892565Y-62464285D01*
X91892565Y-62464285D02*
X91721137Y-62378571D01*
X91721137Y-62378571D02*
X90263994Y-62378571D01*
X90263994Y-61778571D02*
X90263994Y-60750000D01*
X92063994Y-61264285D02*
X90263994Y-61264285D01*
X92919708Y-64471428D02*
X92833994Y-64642857D01*
X92833994Y-64642857D02*
X92833994Y-64899999D01*
X92833994Y-64899999D02*
X92919708Y-65157142D01*
X92919708Y-65157142D02*
X93091137Y-65328571D01*
X93091137Y-65328571D02*
X93262565Y-65414285D01*
X93262565Y-65414285D02*
X93605422Y-65499999D01*
X93605422Y-65499999D02*
X93862565Y-65499999D01*
X93862565Y-65499999D02*
X94205422Y-65414285D01*
X94205422Y-65414285D02*
X94376851Y-65328571D01*
X94376851Y-65328571D02*
X94548280Y-65157142D01*
X94548280Y-65157142D02*
X94633994Y-64899999D01*
X94633994Y-64899999D02*
X94633994Y-64728571D01*
X94633994Y-64728571D02*
X94548280Y-64471428D01*
X94548280Y-64471428D02*
X94462565Y-64385714D01*
X94462565Y-64385714D02*
X93862565Y-64385714D01*
X93862565Y-64385714D02*
X93862565Y-64728571D01*
X94633994Y-63614285D02*
X92833994Y-63614285D01*
X92833994Y-63614285D02*
X94633994Y-62585714D01*
X94633994Y-62585714D02*
X92833994Y-62585714D01*
X94633994Y-61728571D02*
X92833994Y-61728571D01*
X92833994Y-61728571D02*
X92833994Y-61300000D01*
X92833994Y-61300000D02*
X92919708Y-61042857D01*
X92919708Y-61042857D02*
X93091137Y-60871428D01*
X93091137Y-60871428D02*
X93262565Y-60785714D01*
X93262565Y-60785714D02*
X93605422Y-60700000D01*
X93605422Y-60700000D02*
X93862565Y-60700000D01*
X93862565Y-60700000D02*
X94205422Y-60785714D01*
X94205422Y-60785714D02*
X94376851Y-60871428D01*
X94376851Y-60871428D02*
X94548280Y-61042857D01*
X94548280Y-61042857D02*
X94633994Y-61300000D01*
X94633994Y-61300000D02*
X94633994Y-61728571D01*
X52279708Y-64471428D02*
X52193994Y-64642857D01*
X52193994Y-64642857D02*
X52193994Y-64899999D01*
X52193994Y-64899999D02*
X52279708Y-65157142D01*
X52279708Y-65157142D02*
X52451137Y-65328571D01*
X52451137Y-65328571D02*
X52622565Y-65414285D01*
X52622565Y-65414285D02*
X52965422Y-65499999D01*
X52965422Y-65499999D02*
X53222565Y-65499999D01*
X53222565Y-65499999D02*
X53565422Y-65414285D01*
X53565422Y-65414285D02*
X53736851Y-65328571D01*
X53736851Y-65328571D02*
X53908280Y-65157142D01*
X53908280Y-65157142D02*
X53993994Y-64899999D01*
X53993994Y-64899999D02*
X53993994Y-64728571D01*
X53993994Y-64728571D02*
X53908280Y-64471428D01*
X53908280Y-64471428D02*
X53822565Y-64385714D01*
X53822565Y-64385714D02*
X53222565Y-64385714D01*
X53222565Y-64385714D02*
X53222565Y-64728571D01*
X53993994Y-63614285D02*
X52193994Y-63614285D01*
X52193994Y-63614285D02*
X53993994Y-62585714D01*
X53993994Y-62585714D02*
X52193994Y-62585714D01*
X53993994Y-61728571D02*
X52193994Y-61728571D01*
X52193994Y-61728571D02*
X52193994Y-61300000D01*
X52193994Y-61300000D02*
X52279708Y-61042857D01*
X52279708Y-61042857D02*
X52451137Y-60871428D01*
X52451137Y-60871428D02*
X52622565Y-60785714D01*
X52622565Y-60785714D02*
X52965422Y-60700000D01*
X52965422Y-60700000D02*
X53222565Y-60700000D01*
X53222565Y-60700000D02*
X53565422Y-60785714D01*
X53565422Y-60785714D02*
X53736851Y-60871428D01*
X53736851Y-60871428D02*
X53908280Y-61042857D01*
X53908280Y-61042857D02*
X53993994Y-61300000D01*
X53993994Y-61300000D02*
X53993994Y-61728571D01*
D13*
X60783333Y-63604819D02*
X60450000Y-63128628D01*
X60211905Y-63604819D02*
X60211905Y-62604819D01*
X60211905Y-62604819D02*
X60592857Y-62604819D01*
X60592857Y-62604819D02*
X60688095Y-62652438D01*
X60688095Y-62652438D02*
X60735714Y-62700057D01*
X60735714Y-62700057D02*
X60783333Y-62795295D01*
X60783333Y-62795295D02*
X60783333Y-62938152D01*
X60783333Y-62938152D02*
X60735714Y-63033390D01*
X60735714Y-63033390D02*
X60688095Y-63081009D01*
X60688095Y-63081009D02*
X60592857Y-63128628D01*
X60592857Y-63128628D02*
X60211905Y-63128628D01*
X61735714Y-63604819D02*
X61164286Y-63604819D01*
X61450000Y-63604819D02*
X61450000Y-62604819D01*
X61450000Y-62604819D02*
X61354762Y-62747676D01*
X61354762Y-62747676D02*
X61259524Y-62842914D01*
X61259524Y-62842914D02*
X61164286Y-62890533D01*
X64040475Y-63554819D02*
X63707142Y-63078628D01*
X63469047Y-63554819D02*
X63469047Y-62554819D01*
X63469047Y-62554819D02*
X63849999Y-62554819D01*
X63849999Y-62554819D02*
X63945237Y-62602438D01*
X63945237Y-62602438D02*
X63992856Y-62650057D01*
X63992856Y-62650057D02*
X64040475Y-62745295D01*
X64040475Y-62745295D02*
X64040475Y-62888152D01*
X64040475Y-62888152D02*
X63992856Y-62983390D01*
X63992856Y-62983390D02*
X63945237Y-63031009D01*
X63945237Y-63031009D02*
X63849999Y-63078628D01*
X63849999Y-63078628D02*
X63469047Y-63078628D01*
X64421428Y-63507200D02*
X64516666Y-63554819D01*
X64516666Y-63554819D02*
X64707142Y-63554819D01*
X64707142Y-63554819D02*
X64802380Y-63507200D01*
X64802380Y-63507200D02*
X64849999Y-63411961D01*
X64849999Y-63411961D02*
X64849999Y-63364342D01*
X64849999Y-63364342D02*
X64802380Y-63269104D01*
X64802380Y-63269104D02*
X64707142Y-63221485D01*
X64707142Y-63221485D02*
X64564285Y-63221485D01*
X64564285Y-63221485D02*
X64469047Y-63173866D01*
X64469047Y-63173866D02*
X64421428Y-63078628D01*
X64421428Y-63078628D02*
X64421428Y-63031009D01*
X64421428Y-63031009D02*
X64469047Y-62935771D01*
X64469047Y-62935771D02*
X64564285Y-62888152D01*
X64564285Y-62888152D02*
X64707142Y-62888152D01*
X64707142Y-62888152D02*
X64802380Y-62935771D01*
X65659523Y-63507200D02*
X65564285Y-63554819D01*
X65564285Y-63554819D02*
X65373809Y-63554819D01*
X65373809Y-63554819D02*
X65278571Y-63507200D01*
X65278571Y-63507200D02*
X65230952Y-63411961D01*
X65230952Y-63411961D02*
X65230952Y-63031009D01*
X65230952Y-63031009D02*
X65278571Y-62935771D01*
X65278571Y-62935771D02*
X65373809Y-62888152D01*
X65373809Y-62888152D02*
X65564285Y-62888152D01*
X65564285Y-62888152D02*
X65659523Y-62935771D01*
X65659523Y-62935771D02*
X65707142Y-63031009D01*
X65707142Y-63031009D02*
X65707142Y-63126247D01*
X65707142Y-63126247D02*
X65230952Y-63221485D01*
X66135714Y-62888152D02*
X66135714Y-63554819D01*
X66135714Y-62983390D02*
X66183333Y-62935771D01*
X66183333Y-62935771D02*
X66278571Y-62888152D01*
X66278571Y-62888152D02*
X66421428Y-62888152D01*
X66421428Y-62888152D02*
X66516666Y-62935771D01*
X66516666Y-62935771D02*
X66564285Y-63031009D01*
X66564285Y-63031009D02*
X66564285Y-63554819D01*
X66992857Y-63507200D02*
X67088095Y-63554819D01*
X67088095Y-63554819D02*
X67278571Y-63554819D01*
X67278571Y-63554819D02*
X67373809Y-63507200D01*
X67373809Y-63507200D02*
X67421428Y-63411961D01*
X67421428Y-63411961D02*
X67421428Y-63364342D01*
X67421428Y-63364342D02*
X67373809Y-63269104D01*
X67373809Y-63269104D02*
X67278571Y-63221485D01*
X67278571Y-63221485D02*
X67135714Y-63221485D01*
X67135714Y-63221485D02*
X67040476Y-63173866D01*
X67040476Y-63173866D02*
X66992857Y-63078628D01*
X66992857Y-63078628D02*
X66992857Y-63031009D01*
X66992857Y-63031009D02*
X67040476Y-62935771D01*
X67040476Y-62935771D02*
X67135714Y-62888152D01*
X67135714Y-62888152D02*
X67278571Y-62888152D01*
X67278571Y-62888152D02*
X67373809Y-62935771D01*
X68230952Y-63507200D02*
X68135714Y-63554819D01*
X68135714Y-63554819D02*
X67945238Y-63554819D01*
X67945238Y-63554819D02*
X67850000Y-63507200D01*
X67850000Y-63507200D02*
X67802381Y-63411961D01*
X67802381Y-63411961D02*
X67802381Y-63031009D01*
X67802381Y-63031009D02*
X67850000Y-62935771D01*
X67850000Y-62935771D02*
X67945238Y-62888152D01*
X67945238Y-62888152D02*
X68135714Y-62888152D01*
X68135714Y-62888152D02*
X68230952Y-62935771D01*
X68230952Y-62935771D02*
X68278571Y-63031009D01*
X68278571Y-63031009D02*
X68278571Y-63126247D01*
X68278571Y-63126247D02*
X67802381Y-63221485D01*
X81023333Y-68104819D02*
X80547143Y-68104819D01*
X80547143Y-68104819D02*
X80547143Y-67104819D01*
X81880476Y-68104819D02*
X81309048Y-68104819D01*
X81594762Y-68104819D02*
X81594762Y-67104819D01*
X81594762Y-67104819D02*
X81499524Y-67247676D01*
X81499524Y-67247676D02*
X81404286Y-67342914D01*
X81404286Y-67342914D02*
X81309048Y-67390533D01*
X65386666Y-50674819D02*
X65386666Y-51389104D01*
X65386666Y-51389104D02*
X65339047Y-51531961D01*
X65339047Y-51531961D02*
X65243809Y-51627200D01*
X65243809Y-51627200D02*
X65100952Y-51674819D01*
X65100952Y-51674819D02*
X65005714Y-51674819D01*
X65862857Y-51674819D02*
X65862857Y-50674819D01*
X65862857Y-50674819D02*
X66243809Y-50674819D01*
X66243809Y-50674819D02*
X66339047Y-50722438D01*
X66339047Y-50722438D02*
X66386666Y-50770057D01*
X66386666Y-50770057D02*
X66434285Y-50865295D01*
X66434285Y-50865295D02*
X66434285Y-51008152D01*
X66434285Y-51008152D02*
X66386666Y-51103390D01*
X66386666Y-51103390D02*
X66339047Y-51151009D01*
X66339047Y-51151009D02*
X66243809Y-51198628D01*
X66243809Y-51198628D02*
X65862857Y-51198628D01*
X66815238Y-50770057D02*
X66862857Y-50722438D01*
X66862857Y-50722438D02*
X66958095Y-50674819D01*
X66958095Y-50674819D02*
X67196190Y-50674819D01*
X67196190Y-50674819D02*
X67291428Y-50722438D01*
X67291428Y-50722438D02*
X67339047Y-50770057D01*
X67339047Y-50770057D02*
X67386666Y-50865295D01*
X67386666Y-50865295D02*
X67386666Y-50960533D01*
X67386666Y-50960533D02*
X67339047Y-51103390D01*
X67339047Y-51103390D02*
X66767619Y-51674819D01*
X66767619Y-51674819D02*
X67386666Y-51674819D01*
X54633333Y-52859580D02*
X54585714Y-52907200D01*
X54585714Y-52907200D02*
X54442857Y-52954819D01*
X54442857Y-52954819D02*
X54347619Y-52954819D01*
X54347619Y-52954819D02*
X54204762Y-52907200D01*
X54204762Y-52907200D02*
X54109524Y-52811961D01*
X54109524Y-52811961D02*
X54061905Y-52716723D01*
X54061905Y-52716723D02*
X54014286Y-52526247D01*
X54014286Y-52526247D02*
X54014286Y-52383390D01*
X54014286Y-52383390D02*
X54061905Y-52192914D01*
X54061905Y-52192914D02*
X54109524Y-52097676D01*
X54109524Y-52097676D02*
X54204762Y-52002438D01*
X54204762Y-52002438D02*
X54347619Y-51954819D01*
X54347619Y-51954819D02*
X54442857Y-51954819D01*
X54442857Y-51954819D02*
X54585714Y-52002438D01*
X54585714Y-52002438D02*
X54633333Y-52050057D01*
X55585714Y-52954819D02*
X55014286Y-52954819D01*
X55300000Y-52954819D02*
X55300000Y-51954819D01*
X55300000Y-51954819D02*
X55204762Y-52097676D01*
X55204762Y-52097676D02*
X55109524Y-52192914D01*
X55109524Y-52192914D02*
X55014286Y-52240533D01*
X58430952Y-52954819D02*
X57859524Y-52954819D01*
X58145238Y-52954819D02*
X58145238Y-51954819D01*
X58145238Y-51954819D02*
X58050000Y-52097676D01*
X58050000Y-52097676D02*
X57954762Y-52192914D01*
X57954762Y-52192914D02*
X57859524Y-52240533D01*
X59050000Y-51954819D02*
X59145238Y-51954819D01*
X59145238Y-51954819D02*
X59240476Y-52002438D01*
X59240476Y-52002438D02*
X59288095Y-52050057D01*
X59288095Y-52050057D02*
X59335714Y-52145295D01*
X59335714Y-52145295D02*
X59383333Y-52335771D01*
X59383333Y-52335771D02*
X59383333Y-52573866D01*
X59383333Y-52573866D02*
X59335714Y-52764342D01*
X59335714Y-52764342D02*
X59288095Y-52859580D01*
X59288095Y-52859580D02*
X59240476Y-52907200D01*
X59240476Y-52907200D02*
X59145238Y-52954819D01*
X59145238Y-52954819D02*
X59050000Y-52954819D01*
X59050000Y-52954819D02*
X58954762Y-52907200D01*
X58954762Y-52907200D02*
X58907143Y-52859580D01*
X58907143Y-52859580D02*
X58859524Y-52764342D01*
X58859524Y-52764342D02*
X58811905Y-52573866D01*
X58811905Y-52573866D02*
X58811905Y-52335771D01*
X58811905Y-52335771D02*
X58859524Y-52145295D01*
X58859524Y-52145295D02*
X58907143Y-52050057D01*
X58907143Y-52050057D02*
X58954762Y-52002438D01*
X58954762Y-52002438D02*
X59050000Y-51954819D01*
X60002381Y-51954819D02*
X60097619Y-51954819D01*
X60097619Y-51954819D02*
X60192857Y-52002438D01*
X60192857Y-52002438D02*
X60240476Y-52050057D01*
X60240476Y-52050057D02*
X60288095Y-52145295D01*
X60288095Y-52145295D02*
X60335714Y-52335771D01*
X60335714Y-52335771D02*
X60335714Y-52573866D01*
X60335714Y-52573866D02*
X60288095Y-52764342D01*
X60288095Y-52764342D02*
X60240476Y-52859580D01*
X60240476Y-52859580D02*
X60192857Y-52907200D01*
X60192857Y-52907200D02*
X60097619Y-52954819D01*
X60097619Y-52954819D02*
X60002381Y-52954819D01*
X60002381Y-52954819D02*
X59907143Y-52907200D01*
X59907143Y-52907200D02*
X59859524Y-52859580D01*
X59859524Y-52859580D02*
X59811905Y-52764342D01*
X59811905Y-52764342D02*
X59764286Y-52573866D01*
X59764286Y-52573866D02*
X59764286Y-52335771D01*
X59764286Y-52335771D02*
X59811905Y-52145295D01*
X59811905Y-52145295D02*
X59859524Y-52050057D01*
X59859524Y-52050057D02*
X59907143Y-52002438D01*
X59907143Y-52002438D02*
X60002381Y-51954819D01*
X61192857Y-52288152D02*
X61192857Y-52954819D01*
X60764286Y-52288152D02*
X60764286Y-52811961D01*
X60764286Y-52811961D02*
X60811905Y-52907200D01*
X60811905Y-52907200D02*
X60907143Y-52954819D01*
X60907143Y-52954819D02*
X61050000Y-52954819D01*
X61050000Y-52954819D02*
X61145238Y-52907200D01*
X61145238Y-52907200D02*
X61192857Y-52859580D01*
X76273333Y-51864819D02*
X75940000Y-51388628D01*
X75701905Y-51864819D02*
X75701905Y-50864819D01*
X75701905Y-50864819D02*
X76082857Y-50864819D01*
X76082857Y-50864819D02*
X76178095Y-50912438D01*
X76178095Y-50912438D02*
X76225714Y-50960057D01*
X76225714Y-50960057D02*
X76273333Y-51055295D01*
X76273333Y-51055295D02*
X76273333Y-51198152D01*
X76273333Y-51198152D02*
X76225714Y-51293390D01*
X76225714Y-51293390D02*
X76178095Y-51341009D01*
X76178095Y-51341009D02*
X76082857Y-51388628D01*
X76082857Y-51388628D02*
X75701905Y-51388628D01*
X76606667Y-50864819D02*
X77225714Y-50864819D01*
X77225714Y-50864819D02*
X76892381Y-51245771D01*
X76892381Y-51245771D02*
X77035238Y-51245771D01*
X77035238Y-51245771D02*
X77130476Y-51293390D01*
X77130476Y-51293390D02*
X77178095Y-51341009D01*
X77178095Y-51341009D02*
X77225714Y-51436247D01*
X77225714Y-51436247D02*
X77225714Y-51674342D01*
X77225714Y-51674342D02*
X77178095Y-51769580D01*
X77178095Y-51769580D02*
X77130476Y-51817200D01*
X77130476Y-51817200D02*
X77035238Y-51864819D01*
X77035238Y-51864819D02*
X76749524Y-51864819D01*
X76749524Y-51864819D02*
X76654286Y-51817200D01*
X76654286Y-51817200D02*
X76606667Y-51769580D01*
X78760952Y-51794819D02*
X78189524Y-51794819D01*
X78475238Y-51794819D02*
X78475238Y-50794819D01*
X78475238Y-50794819D02*
X78380000Y-50937676D01*
X78380000Y-50937676D02*
X78284762Y-51032914D01*
X78284762Y-51032914D02*
X78189524Y-51080533D01*
X79189524Y-51794819D02*
X79189524Y-50794819D01*
X79284762Y-51413866D02*
X79570476Y-51794819D01*
X79570476Y-51128152D02*
X79189524Y-51509104D01*
X83454819Y-65398094D02*
X82454819Y-65398094D01*
X82454819Y-65398094D02*
X82454819Y-65159999D01*
X82454819Y-65159999D02*
X82502438Y-65017142D01*
X82502438Y-65017142D02*
X82597676Y-64921904D01*
X82597676Y-64921904D02*
X82692914Y-64874285D01*
X82692914Y-64874285D02*
X82883390Y-64826666D01*
X82883390Y-64826666D02*
X83026247Y-64826666D01*
X83026247Y-64826666D02*
X83216723Y-64874285D01*
X83216723Y-64874285D02*
X83311961Y-64921904D01*
X83311961Y-64921904D02*
X83407200Y-65017142D01*
X83407200Y-65017142D02*
X83454819Y-65159999D01*
X83454819Y-65159999D02*
X83454819Y-65398094D01*
X83454819Y-63874285D02*
X83454819Y-64445713D01*
X83454819Y-64159999D02*
X82454819Y-64159999D01*
X82454819Y-64159999D02*
X82597676Y-64255237D01*
X82597676Y-64255237D02*
X82692914Y-64350475D01*
X82692914Y-64350475D02*
X82740533Y-64445713D01*
X74188095Y-54154819D02*
X74188095Y-54964342D01*
X74188095Y-54964342D02*
X74235714Y-55059580D01*
X74235714Y-55059580D02*
X74283333Y-55107200D01*
X74283333Y-55107200D02*
X74378571Y-55154819D01*
X74378571Y-55154819D02*
X74569047Y-55154819D01*
X74569047Y-55154819D02*
X74664285Y-55107200D01*
X74664285Y-55107200D02*
X74711904Y-55059580D01*
X74711904Y-55059580D02*
X74759523Y-54964342D01*
X74759523Y-54964342D02*
X74759523Y-54154819D01*
X75759523Y-55154819D02*
X75188095Y-55154819D01*
X75473809Y-55154819D02*
X75473809Y-54154819D01*
X75473809Y-54154819D02*
X75378571Y-54297676D01*
X75378571Y-54297676D02*
X75283333Y-54392914D01*
X75283333Y-54392914D02*
X75188095Y-54440533D01*
X72661905Y-60954819D02*
X73280952Y-60954819D01*
X73280952Y-60954819D02*
X72947619Y-61335771D01*
X72947619Y-61335771D02*
X73090476Y-61335771D01*
X73090476Y-61335771D02*
X73185714Y-61383390D01*
X73185714Y-61383390D02*
X73233333Y-61431009D01*
X73233333Y-61431009D02*
X73280952Y-61526247D01*
X73280952Y-61526247D02*
X73280952Y-61764342D01*
X73280952Y-61764342D02*
X73233333Y-61859580D01*
X73233333Y-61859580D02*
X73185714Y-61907200D01*
X73185714Y-61907200D02*
X73090476Y-61954819D01*
X73090476Y-61954819D02*
X72804762Y-61954819D01*
X72804762Y-61954819D02*
X72709524Y-61907200D01*
X72709524Y-61907200D02*
X72661905Y-61859580D01*
X73614286Y-60954819D02*
X74233333Y-60954819D01*
X74233333Y-60954819D02*
X73900000Y-61335771D01*
X73900000Y-61335771D02*
X74042857Y-61335771D01*
X74042857Y-61335771D02*
X74138095Y-61383390D01*
X74138095Y-61383390D02*
X74185714Y-61431009D01*
X74185714Y-61431009D02*
X74233333Y-61526247D01*
X74233333Y-61526247D02*
X74233333Y-61764342D01*
X74233333Y-61764342D02*
X74185714Y-61859580D01*
X74185714Y-61859580D02*
X74138095Y-61907200D01*
X74138095Y-61907200D02*
X74042857Y-61954819D01*
X74042857Y-61954819D02*
X73757143Y-61954819D01*
X73757143Y-61954819D02*
X73661905Y-61907200D01*
X73661905Y-61907200D02*
X73614286Y-61859580D01*
X74852381Y-60954819D02*
X74947619Y-60954819D01*
X74947619Y-60954819D02*
X75042857Y-61002438D01*
X75042857Y-61002438D02*
X75090476Y-61050057D01*
X75090476Y-61050057D02*
X75138095Y-61145295D01*
X75138095Y-61145295D02*
X75185714Y-61335771D01*
X75185714Y-61335771D02*
X75185714Y-61573866D01*
X75185714Y-61573866D02*
X75138095Y-61764342D01*
X75138095Y-61764342D02*
X75090476Y-61859580D01*
X75090476Y-61859580D02*
X75042857Y-61907200D01*
X75042857Y-61907200D02*
X74947619Y-61954819D01*
X74947619Y-61954819D02*
X74852381Y-61954819D01*
X74852381Y-61954819D02*
X74757143Y-61907200D01*
X74757143Y-61907200D02*
X74709524Y-61859580D01*
X74709524Y-61859580D02*
X74661905Y-61764342D01*
X74661905Y-61764342D02*
X74614286Y-61573866D01*
X74614286Y-61573866D02*
X74614286Y-61335771D01*
X74614286Y-61335771D02*
X74661905Y-61145295D01*
X74661905Y-61145295D02*
X74709524Y-61050057D01*
X74709524Y-61050057D02*
X74757143Y-61002438D01*
X74757143Y-61002438D02*
X74852381Y-60954819D01*
X76042857Y-60954819D02*
X75852381Y-60954819D01*
X75852381Y-60954819D02*
X75757143Y-61002438D01*
X75757143Y-61002438D02*
X75709524Y-61050057D01*
X75709524Y-61050057D02*
X75614286Y-61192914D01*
X75614286Y-61192914D02*
X75566667Y-61383390D01*
X75566667Y-61383390D02*
X75566667Y-61764342D01*
X75566667Y-61764342D02*
X75614286Y-61859580D01*
X75614286Y-61859580D02*
X75661905Y-61907200D01*
X75661905Y-61907200D02*
X75757143Y-61954819D01*
X75757143Y-61954819D02*
X75947619Y-61954819D01*
X75947619Y-61954819D02*
X76042857Y-61907200D01*
X76042857Y-61907200D02*
X76090476Y-61859580D01*
X76090476Y-61859580D02*
X76138095Y-61764342D01*
X76138095Y-61764342D02*
X76138095Y-61526247D01*
X76138095Y-61526247D02*
X76090476Y-61431009D01*
X76090476Y-61431009D02*
X76042857Y-61383390D01*
X76042857Y-61383390D02*
X75947619Y-61335771D01*
X75947619Y-61335771D02*
X75757143Y-61335771D01*
X75757143Y-61335771D02*
X75661905Y-61383390D01*
X75661905Y-61383390D02*
X75614286Y-61431009D01*
X75614286Y-61431009D02*
X75566667Y-61526247D01*
X76471429Y-60954819D02*
X77090476Y-60954819D01*
X77090476Y-60954819D02*
X76757143Y-61335771D01*
X76757143Y-61335771D02*
X76900000Y-61335771D01*
X76900000Y-61335771D02*
X76995238Y-61383390D01*
X76995238Y-61383390D02*
X77042857Y-61431009D01*
X77042857Y-61431009D02*
X77090476Y-61526247D01*
X77090476Y-61526247D02*
X77090476Y-61764342D01*
X77090476Y-61764342D02*
X77042857Y-61859580D01*
X77042857Y-61859580D02*
X76995238Y-61907200D01*
X76995238Y-61907200D02*
X76900000Y-61954819D01*
X76900000Y-61954819D02*
X76614286Y-61954819D01*
X76614286Y-61954819D02*
X76519048Y-61907200D01*
X76519048Y-61907200D02*
X76471429Y-61859580D01*
X87533333Y-52859580D02*
X87485714Y-52907200D01*
X87485714Y-52907200D02*
X87342857Y-52954819D01*
X87342857Y-52954819D02*
X87247619Y-52954819D01*
X87247619Y-52954819D02*
X87104762Y-52907200D01*
X87104762Y-52907200D02*
X87009524Y-52811961D01*
X87009524Y-52811961D02*
X86961905Y-52716723D01*
X86961905Y-52716723D02*
X86914286Y-52526247D01*
X86914286Y-52526247D02*
X86914286Y-52383390D01*
X86914286Y-52383390D02*
X86961905Y-52192914D01*
X86961905Y-52192914D02*
X87009524Y-52097676D01*
X87009524Y-52097676D02*
X87104762Y-52002438D01*
X87104762Y-52002438D02*
X87247619Y-51954819D01*
X87247619Y-51954819D02*
X87342857Y-51954819D01*
X87342857Y-51954819D02*
X87485714Y-52002438D01*
X87485714Y-52002438D02*
X87533333Y-52050057D01*
X87866667Y-51954819D02*
X88485714Y-51954819D01*
X88485714Y-51954819D02*
X88152381Y-52335771D01*
X88152381Y-52335771D02*
X88295238Y-52335771D01*
X88295238Y-52335771D02*
X88390476Y-52383390D01*
X88390476Y-52383390D02*
X88438095Y-52431009D01*
X88438095Y-52431009D02*
X88485714Y-52526247D01*
X88485714Y-52526247D02*
X88485714Y-52764342D01*
X88485714Y-52764342D02*
X88438095Y-52859580D01*
X88438095Y-52859580D02*
X88390476Y-52907200D01*
X88390476Y-52907200D02*
X88295238Y-52954819D01*
X88295238Y-52954819D02*
X88009524Y-52954819D01*
X88009524Y-52954819D02*
X87914286Y-52907200D01*
X87914286Y-52907200D02*
X87866667Y-52859580D01*
X91661905Y-51954819D02*
X92280952Y-51954819D01*
X92280952Y-51954819D02*
X91947619Y-52335771D01*
X91947619Y-52335771D02*
X92090476Y-52335771D01*
X92090476Y-52335771D02*
X92185714Y-52383390D01*
X92185714Y-52383390D02*
X92233333Y-52431009D01*
X92233333Y-52431009D02*
X92280952Y-52526247D01*
X92280952Y-52526247D02*
X92280952Y-52764342D01*
X92280952Y-52764342D02*
X92233333Y-52859580D01*
X92233333Y-52859580D02*
X92185714Y-52907200D01*
X92185714Y-52907200D02*
X92090476Y-52954819D01*
X92090476Y-52954819D02*
X91804762Y-52954819D01*
X91804762Y-52954819D02*
X91709524Y-52907200D01*
X91709524Y-52907200D02*
X91661905Y-52859580D01*
X92614286Y-51954819D02*
X93233333Y-51954819D01*
X93233333Y-51954819D02*
X92900000Y-52335771D01*
X92900000Y-52335771D02*
X93042857Y-52335771D01*
X93042857Y-52335771D02*
X93138095Y-52383390D01*
X93138095Y-52383390D02*
X93185714Y-52431009D01*
X93185714Y-52431009D02*
X93233333Y-52526247D01*
X93233333Y-52526247D02*
X93233333Y-52764342D01*
X93233333Y-52764342D02*
X93185714Y-52859580D01*
X93185714Y-52859580D02*
X93138095Y-52907200D01*
X93138095Y-52907200D02*
X93042857Y-52954819D01*
X93042857Y-52954819D02*
X92757143Y-52954819D01*
X92757143Y-52954819D02*
X92661905Y-52907200D01*
X92661905Y-52907200D02*
X92614286Y-52859580D01*
X93852381Y-51954819D02*
X93947619Y-51954819D01*
X93947619Y-51954819D02*
X94042857Y-52002438D01*
X94042857Y-52002438D02*
X94090476Y-52050057D01*
X94090476Y-52050057D02*
X94138095Y-52145295D01*
X94138095Y-52145295D02*
X94185714Y-52335771D01*
X94185714Y-52335771D02*
X94185714Y-52573866D01*
X94185714Y-52573866D02*
X94138095Y-52764342D01*
X94138095Y-52764342D02*
X94090476Y-52859580D01*
X94090476Y-52859580D02*
X94042857Y-52907200D01*
X94042857Y-52907200D02*
X93947619Y-52954819D01*
X93947619Y-52954819D02*
X93852381Y-52954819D01*
X93852381Y-52954819D02*
X93757143Y-52907200D01*
X93757143Y-52907200D02*
X93709524Y-52859580D01*
X93709524Y-52859580D02*
X93661905Y-52764342D01*
X93661905Y-52764342D02*
X93614286Y-52573866D01*
X93614286Y-52573866D02*
X93614286Y-52335771D01*
X93614286Y-52335771D02*
X93661905Y-52145295D01*
X93661905Y-52145295D02*
X93709524Y-52050057D01*
X93709524Y-52050057D02*
X93757143Y-52002438D01*
X93757143Y-52002438D02*
X93852381Y-51954819D01*
X95042857Y-52288152D02*
X95042857Y-52954819D01*
X94614286Y-52288152D02*
X94614286Y-52811961D01*
X94614286Y-52811961D02*
X94661905Y-52907200D01*
X94661905Y-52907200D02*
X94757143Y-52954819D01*
X94757143Y-52954819D02*
X94900000Y-52954819D01*
X94900000Y-52954819D02*
X94995238Y-52907200D01*
X94995238Y-52907200D02*
X95042857Y-52859580D01*
X71293333Y-51864819D02*
X70960000Y-51388628D01*
X70721905Y-51864819D02*
X70721905Y-50864819D01*
X70721905Y-50864819D02*
X71102857Y-50864819D01*
X71102857Y-50864819D02*
X71198095Y-50912438D01*
X71198095Y-50912438D02*
X71245714Y-50960057D01*
X71245714Y-50960057D02*
X71293333Y-51055295D01*
X71293333Y-51055295D02*
X71293333Y-51198152D01*
X71293333Y-51198152D02*
X71245714Y-51293390D01*
X71245714Y-51293390D02*
X71198095Y-51341009D01*
X71198095Y-51341009D02*
X71102857Y-51388628D01*
X71102857Y-51388628D02*
X70721905Y-51388628D01*
X71674286Y-50960057D02*
X71721905Y-50912438D01*
X71721905Y-50912438D02*
X71817143Y-50864819D01*
X71817143Y-50864819D02*
X72055238Y-50864819D01*
X72055238Y-50864819D02*
X72150476Y-50912438D01*
X72150476Y-50912438D02*
X72198095Y-50960057D01*
X72198095Y-50960057D02*
X72245714Y-51055295D01*
X72245714Y-51055295D02*
X72245714Y-51150533D01*
X72245714Y-51150533D02*
X72198095Y-51293390D01*
X72198095Y-51293390D02*
X71626667Y-51864819D01*
X71626667Y-51864819D02*
X72245714Y-51864819D01*
X73600952Y-51854819D02*
X73029524Y-51854819D01*
X73315238Y-51854819D02*
X73315238Y-50854819D01*
X73315238Y-50854819D02*
X73220000Y-50997676D01*
X73220000Y-50997676D02*
X73124762Y-51092914D01*
X73124762Y-51092914D02*
X73029524Y-51140533D01*
X74029524Y-51854819D02*
X74029524Y-50854819D01*
X74124762Y-51473866D02*
X74410476Y-51854819D01*
X74410476Y-51188152D02*
X74029524Y-51569104D01*
X81993333Y-55659580D02*
X81945714Y-55707200D01*
X81945714Y-55707200D02*
X81802857Y-55754819D01*
X81802857Y-55754819D02*
X81707619Y-55754819D01*
X81707619Y-55754819D02*
X81564762Y-55707200D01*
X81564762Y-55707200D02*
X81469524Y-55611961D01*
X81469524Y-55611961D02*
X81421905Y-55516723D01*
X81421905Y-55516723D02*
X81374286Y-55326247D01*
X81374286Y-55326247D02*
X81374286Y-55183390D01*
X81374286Y-55183390D02*
X81421905Y-54992914D01*
X81421905Y-54992914D02*
X81469524Y-54897676D01*
X81469524Y-54897676D02*
X81564762Y-54802438D01*
X81564762Y-54802438D02*
X81707619Y-54754819D01*
X81707619Y-54754819D02*
X81802857Y-54754819D01*
X81802857Y-54754819D02*
X81945714Y-54802438D01*
X81945714Y-54802438D02*
X81993333Y-54850057D01*
X82374286Y-54850057D02*
X82421905Y-54802438D01*
X82421905Y-54802438D02*
X82517143Y-54754819D01*
X82517143Y-54754819D02*
X82755238Y-54754819D01*
X82755238Y-54754819D02*
X82850476Y-54802438D01*
X82850476Y-54802438D02*
X82898095Y-54850057D01*
X82898095Y-54850057D02*
X82945714Y-54945295D01*
X82945714Y-54945295D02*
X82945714Y-55040533D01*
X82945714Y-55040533D02*
X82898095Y-55183390D01*
X82898095Y-55183390D02*
X82326667Y-55754819D01*
X82326667Y-55754819D02*
X82945714Y-55754819D01*
X80534761Y-59224819D02*
X79963333Y-59224819D01*
X80249047Y-59224819D02*
X80249047Y-58224819D01*
X80249047Y-58224819D02*
X80153809Y-58367676D01*
X80153809Y-58367676D02*
X80058571Y-58462914D01*
X80058571Y-58462914D02*
X79963333Y-58510533D01*
X81439523Y-58224819D02*
X80963333Y-58224819D01*
X80963333Y-58224819D02*
X80915714Y-58701009D01*
X80915714Y-58701009D02*
X80963333Y-58653390D01*
X80963333Y-58653390D02*
X81058571Y-58605771D01*
X81058571Y-58605771D02*
X81296666Y-58605771D01*
X81296666Y-58605771D02*
X81391904Y-58653390D01*
X81391904Y-58653390D02*
X81439523Y-58701009D01*
X81439523Y-58701009D02*
X81487142Y-58796247D01*
X81487142Y-58796247D02*
X81487142Y-59034342D01*
X81487142Y-59034342D02*
X81439523Y-59129580D01*
X81439523Y-59129580D02*
X81391904Y-59177200D01*
X81391904Y-59177200D02*
X81296666Y-59224819D01*
X81296666Y-59224819D02*
X81058571Y-59224819D01*
X81058571Y-59224819D02*
X80963333Y-59177200D01*
X80963333Y-59177200D02*
X80915714Y-59129580D01*
X82106190Y-58224819D02*
X82201428Y-58224819D01*
X82201428Y-58224819D02*
X82296666Y-58272438D01*
X82296666Y-58272438D02*
X82344285Y-58320057D01*
X82344285Y-58320057D02*
X82391904Y-58415295D01*
X82391904Y-58415295D02*
X82439523Y-58605771D01*
X82439523Y-58605771D02*
X82439523Y-58843866D01*
X82439523Y-58843866D02*
X82391904Y-59034342D01*
X82391904Y-59034342D02*
X82344285Y-59129580D01*
X82344285Y-59129580D02*
X82296666Y-59177200D01*
X82296666Y-59177200D02*
X82201428Y-59224819D01*
X82201428Y-59224819D02*
X82106190Y-59224819D01*
X82106190Y-59224819D02*
X82010952Y-59177200D01*
X82010952Y-59177200D02*
X81963333Y-59129580D01*
X81963333Y-59129580D02*
X81915714Y-59034342D01*
X81915714Y-59034342D02*
X81868095Y-58843866D01*
X81868095Y-58843866D02*
X81868095Y-58605771D01*
X81868095Y-58605771D02*
X81915714Y-58415295D01*
X81915714Y-58415295D02*
X81963333Y-58320057D01*
X81963333Y-58320057D02*
X82010952Y-58272438D01*
X82010952Y-58272438D02*
X82106190Y-58224819D01*
X83058571Y-58224819D02*
X83153809Y-58224819D01*
X83153809Y-58224819D02*
X83249047Y-58272438D01*
X83249047Y-58272438D02*
X83296666Y-58320057D01*
X83296666Y-58320057D02*
X83344285Y-58415295D01*
X83344285Y-58415295D02*
X83391904Y-58605771D01*
X83391904Y-58605771D02*
X83391904Y-58843866D01*
X83391904Y-58843866D02*
X83344285Y-59034342D01*
X83344285Y-59034342D02*
X83296666Y-59129580D01*
X83296666Y-59129580D02*
X83249047Y-59177200D01*
X83249047Y-59177200D02*
X83153809Y-59224819D01*
X83153809Y-59224819D02*
X83058571Y-59224819D01*
X83058571Y-59224819D02*
X82963333Y-59177200D01*
X82963333Y-59177200D02*
X82915714Y-59129580D01*
X82915714Y-59129580D02*
X82868095Y-59034342D01*
X82868095Y-59034342D02*
X82820476Y-58843866D01*
X82820476Y-58843866D02*
X82820476Y-58605771D01*
X82820476Y-58605771D02*
X82868095Y-58415295D01*
X82868095Y-58415295D02*
X82915714Y-58320057D01*
X82915714Y-58320057D02*
X82963333Y-58272438D01*
X82963333Y-58272438D02*
X83058571Y-58224819D01*
X83820476Y-58558152D02*
X83820476Y-59558152D01*
X83820476Y-58605771D02*
X83915714Y-58558152D01*
X83915714Y-58558152D02*
X84106190Y-58558152D01*
X84106190Y-58558152D02*
X84201428Y-58605771D01*
X84201428Y-58605771D02*
X84249047Y-58653390D01*
X84249047Y-58653390D02*
X84296666Y-58748628D01*
X84296666Y-58748628D02*
X84296666Y-59034342D01*
X84296666Y-59034342D02*
X84249047Y-59129580D01*
X84249047Y-59129580D02*
X84201428Y-59177200D01*
X84201428Y-59177200D02*
X84106190Y-59224819D01*
X84106190Y-59224819D02*
X83915714Y-59224819D01*
X83915714Y-59224819D02*
X83820476Y-59177200D01*
X60704761Y-59454819D02*
X60371428Y-58978628D01*
X60133333Y-59454819D02*
X60133333Y-58454819D01*
X60133333Y-58454819D02*
X60514285Y-58454819D01*
X60514285Y-58454819D02*
X60609523Y-58502438D01*
X60609523Y-58502438D02*
X60657142Y-58550057D01*
X60657142Y-58550057D02*
X60704761Y-58645295D01*
X60704761Y-58645295D02*
X60704761Y-58788152D01*
X60704761Y-58788152D02*
X60657142Y-58883390D01*
X60657142Y-58883390D02*
X60609523Y-58931009D01*
X60609523Y-58931009D02*
X60514285Y-58978628D01*
X60514285Y-58978628D02*
X60133333Y-58978628D01*
X60990476Y-58454819D02*
X61323809Y-59454819D01*
X61323809Y-59454819D02*
X61657142Y-58454819D01*
X62514285Y-59454819D02*
X61942857Y-59454819D01*
X62228571Y-59454819D02*
X62228571Y-58454819D01*
X62228571Y-58454819D02*
X62133333Y-58597676D01*
X62133333Y-58597676D02*
X62038095Y-58692914D01*
X62038095Y-58692914D02*
X61942857Y-58740533D01*
X61633333Y-60254819D02*
X61157143Y-60254819D01*
X61157143Y-60254819D02*
X61109524Y-60731009D01*
X61109524Y-60731009D02*
X61157143Y-60683390D01*
X61157143Y-60683390D02*
X61252381Y-60635771D01*
X61252381Y-60635771D02*
X61490476Y-60635771D01*
X61490476Y-60635771D02*
X61585714Y-60683390D01*
X61585714Y-60683390D02*
X61633333Y-60731009D01*
X61633333Y-60731009D02*
X61680952Y-60826247D01*
X61680952Y-60826247D02*
X61680952Y-61064342D01*
X61680952Y-61064342D02*
X61633333Y-61159580D01*
X61633333Y-61159580D02*
X61585714Y-61207200D01*
X61585714Y-61207200D02*
X61490476Y-61254819D01*
X61490476Y-61254819D02*
X61252381Y-61254819D01*
X61252381Y-61254819D02*
X61157143Y-61207200D01*
X61157143Y-61207200D02*
X61109524Y-61159580D01*
X62109524Y-61254819D02*
X62109524Y-60254819D01*
X62204762Y-60873866D02*
X62490476Y-61254819D01*
X62490476Y-60588152D02*
X62109524Y-60969104D01*
D14*
%TO.C,JP2*%
X67650000Y-52800000D02*
X67650000Y-53400000D01*
X66950000Y-54100000D02*
X65550000Y-54100000D01*
X65550000Y-52100000D02*
X66950000Y-52100000D01*
X64850000Y-53400000D02*
X64850000Y-52800000D01*
X67650000Y-53400000D02*
G75*
G02*
X66950000Y-54100000I-700000J0D01*
G01*
X66950000Y-52100000D02*
G75*
G02*
X67650000Y-52800000I0J-700000D01*
G01*
X65550000Y-54100000D02*
G75*
G02*
X64850000Y-53400000I-1J699999D01*
G01*
X64850000Y-52800000D02*
G75*
G02*
X65550000Y-52100000I699999J1D01*
G01*
%TO.C,C1*%
X57990000Y-56110000D02*
X60172000Y-56110000D01*
X57990000Y-56070000D02*
X60168000Y-56070000D01*
X57990000Y-56030000D02*
X60165000Y-56030000D01*
X57990000Y-55990000D02*
X60161000Y-55990000D01*
X57990000Y-55950000D02*
X60156000Y-55950000D01*
X57990000Y-55910000D02*
X60151000Y-55910000D01*
X57990000Y-55870000D02*
X60145000Y-55870000D01*
X57990000Y-55830000D02*
X60139000Y-55830000D01*
X57990000Y-55790000D02*
X60132000Y-55790000D01*
X57990000Y-55750000D02*
X60125000Y-55750000D01*
X57990000Y-55710000D02*
X60117000Y-55710000D01*
X57990000Y-55670000D02*
X60109000Y-55670000D01*
X57990000Y-55629000D02*
X60100000Y-55629000D01*
X57990000Y-55589000D02*
X60091000Y-55589000D01*
X57990000Y-55549000D02*
X60081000Y-55549000D01*
X57990000Y-55509000D02*
X60071000Y-55509000D01*
X57990000Y-55469000D02*
X60060000Y-55469000D01*
X57990000Y-55429000D02*
X60048000Y-55429000D01*
X57990000Y-55389000D02*
X60036000Y-55389000D01*
X57990000Y-55349000D02*
X60024000Y-55349000D01*
X57990000Y-55309000D02*
X60011000Y-55309000D01*
X57990000Y-55269000D02*
X59997000Y-55269000D01*
X57990000Y-55229000D02*
X59983000Y-55229000D01*
X57990000Y-55189000D02*
X59968000Y-55189000D01*
X57990000Y-55149000D02*
X59952000Y-55149000D01*
X57990000Y-55109000D02*
X59936000Y-55109000D01*
X57990000Y-55069000D02*
X59920000Y-55069000D01*
X57990000Y-55029000D02*
X59902000Y-55029000D01*
X57990000Y-54989000D02*
X59884000Y-54989000D01*
X57990000Y-54949000D02*
X59866000Y-54949000D01*
X57990000Y-54909000D02*
X59846000Y-54909000D01*
X57990000Y-54869000D02*
X59826000Y-54869000D01*
X57990000Y-54829000D02*
X59806000Y-54829000D01*
X57990000Y-54789000D02*
X59784000Y-54789000D01*
X57990000Y-54749000D02*
X59762000Y-54749000D01*
X57990000Y-54709000D02*
X59740000Y-54709000D01*
X57990000Y-54669000D02*
X59716000Y-54669000D01*
X57990000Y-54629000D02*
X59692000Y-54629000D01*
X57990000Y-54589000D02*
X59666000Y-54589000D01*
X57990000Y-54549000D02*
X59640000Y-54549000D01*
X57990000Y-54509000D02*
X59614000Y-54509000D01*
X57990000Y-54469000D02*
X59586000Y-54469000D01*
X57990000Y-54429000D02*
X59557000Y-54429000D01*
X57990000Y-54389000D02*
X59528000Y-54389000D01*
X57990000Y-54349000D02*
X59498000Y-54349000D01*
X57990000Y-54309000D02*
X59466000Y-54309000D01*
X57990000Y-54269000D02*
X59434000Y-54269000D01*
X57990000Y-54229000D02*
X59400000Y-54229000D01*
X57990000Y-54189000D02*
X59366000Y-54189000D01*
X57990000Y-54149000D02*
X59330000Y-54149000D01*
X57990000Y-54109000D02*
X59293000Y-54109000D01*
X57990000Y-54069000D02*
X59255000Y-54069000D01*
X56548000Y-53109000D02*
X57352000Y-53109000D01*
X56317000Y-53149000D02*
X57583000Y-53149000D01*
X56148000Y-53189000D02*
X57752000Y-53189000D01*
X56010000Y-53229000D02*
X57890000Y-53229000D01*
X55891000Y-53269000D02*
X58009000Y-53269000D01*
X55785000Y-53309000D02*
X58115000Y-53309000D01*
X55688000Y-53349000D02*
X58212000Y-53349000D01*
X55600000Y-53389000D02*
X58300000Y-53389000D01*
X55518000Y-53429000D02*
X58382000Y-53429000D01*
X55441000Y-53469000D02*
X58459000Y-53469000D01*
X55369000Y-53509000D02*
X58531000Y-53509000D01*
X55300000Y-53549000D02*
X58600000Y-53549000D01*
X55236000Y-53589000D02*
X58664000Y-53589000D01*
X55174000Y-53629000D02*
X58726000Y-53629000D01*
X55116000Y-53669000D02*
X58784000Y-53669000D01*
X55111000Y-59850241D02*
X55111000Y-59220241D01*
X55060000Y-53709000D02*
X58840000Y-53709000D01*
X55006000Y-53749000D02*
X58894000Y-53749000D01*
X54955000Y-53789000D02*
X58945000Y-53789000D01*
X54906000Y-53829000D02*
X58994000Y-53829000D01*
X54858000Y-53869000D02*
X59042000Y-53869000D01*
X54813000Y-53909000D02*
X59087000Y-53909000D01*
X54796000Y-59535241D02*
X55426000Y-59535241D01*
X54768000Y-53949000D02*
X59132000Y-53949000D01*
X54726000Y-53989000D02*
X59174000Y-53989000D01*
X54685000Y-54029000D02*
X59215000Y-54029000D01*
X54645000Y-54069000D02*
X55910000Y-54069000D01*
X54607000Y-54109000D02*
X55910000Y-54109000D01*
X54570000Y-54149000D02*
X55910000Y-54149000D01*
X54534000Y-54189000D02*
X55910000Y-54189000D01*
X54500000Y-54229000D02*
X55910000Y-54229000D01*
X54466000Y-54269000D02*
X55910000Y-54269000D01*
X54434000Y-54309000D02*
X55910000Y-54309000D01*
X54402000Y-54349000D02*
X55910000Y-54349000D01*
X54372000Y-54389000D02*
X55910000Y-54389000D01*
X54343000Y-54429000D02*
X55910000Y-54429000D01*
X54314000Y-54469000D02*
X55910000Y-54469000D01*
X54286000Y-54509000D02*
X55910000Y-54509000D01*
X54260000Y-54549000D02*
X55910000Y-54549000D01*
X54234000Y-54589000D02*
X55910000Y-54589000D01*
X54208000Y-54629000D02*
X55910000Y-54629000D01*
X54184000Y-54669000D02*
X55910000Y-54669000D01*
X54160000Y-54709000D02*
X55910000Y-54709000D01*
X54138000Y-54749000D02*
X55910000Y-54749000D01*
X54116000Y-54789000D02*
X55910000Y-54789000D01*
X54094000Y-54829000D02*
X55910000Y-54829000D01*
X54074000Y-54869000D02*
X55910000Y-54869000D01*
X54054000Y-54909000D02*
X55910000Y-54909000D01*
X54034000Y-54949000D02*
X55910000Y-54949000D01*
X54016000Y-54989000D02*
X55910000Y-54989000D01*
X53998000Y-55029000D02*
X55910000Y-55029000D01*
X53980000Y-55069000D02*
X55910000Y-55069000D01*
X53964000Y-55109000D02*
X55910000Y-55109000D01*
X53948000Y-55149000D02*
X55910000Y-55149000D01*
X53932000Y-55189000D02*
X55910000Y-55189000D01*
X53917000Y-55229000D02*
X55910000Y-55229000D01*
X53903000Y-55269000D02*
X55910000Y-55269000D01*
X53889000Y-55309000D02*
X55910000Y-55309000D01*
X53876000Y-55349000D02*
X55910000Y-55349000D01*
X53864000Y-55389000D02*
X55910000Y-55389000D01*
X53852000Y-55429000D02*
X55910000Y-55429000D01*
X53840000Y-55469000D02*
X55910000Y-55469000D01*
X53829000Y-55509000D02*
X55910000Y-55509000D01*
X53819000Y-55549000D02*
X55910000Y-55549000D01*
X53809000Y-55589000D02*
X55910000Y-55589000D01*
X53800000Y-55629000D02*
X55910000Y-55629000D01*
X53791000Y-55670000D02*
X55910000Y-55670000D01*
X53783000Y-55710000D02*
X55910000Y-55710000D01*
X53775000Y-55750000D02*
X55910000Y-55750000D01*
X53768000Y-55790000D02*
X55910000Y-55790000D01*
X53761000Y-55830000D02*
X55910000Y-55830000D01*
X53755000Y-55870000D02*
X55910000Y-55870000D01*
X53749000Y-55910000D02*
X55910000Y-55910000D01*
X53744000Y-55950000D02*
X55910000Y-55950000D01*
X53739000Y-55990000D02*
X55910000Y-55990000D01*
X53735000Y-56030000D02*
X55910000Y-56030000D01*
X53732000Y-56070000D02*
X55910000Y-56070000D01*
X53728000Y-56110000D02*
X55910000Y-56110000D01*
X53726000Y-56150000D02*
X60174000Y-56150000D01*
X53723000Y-56190000D02*
X60177000Y-56190000D01*
X53722000Y-56230000D02*
X60178000Y-56230000D01*
X53720000Y-56350000D02*
X60180000Y-56350000D01*
X53720000Y-56310000D02*
X60180000Y-56310000D01*
X53720000Y-56270000D02*
X60180000Y-56270000D01*
X60220000Y-56350000D02*
G75*
G02*
X53680000Y-56350000I-3270000J0D01*
G01*
X53680000Y-56350000D02*
G75*
G02*
X60220000Y-56350000I3270000J0D01*
G01*
%TO.C,R3*%
X77422936Y-53835000D02*
X77877064Y-53835000D01*
X77422936Y-52365000D02*
X77877064Y-52365000D01*
%TO.C,D1*%
X87150000Y-69170000D02*
X87150000Y-62160000D01*
D10*
X86300000Y-65310000D02*
X84700000Y-65310000D01*
X86250000Y-64160000D02*
X85500000Y-64160000D01*
X85500000Y-65310000D02*
X86250000Y-64160000D01*
X85500000Y-65310000D02*
X85500000Y-65400000D01*
X85500000Y-64160000D02*
X85500000Y-63920000D01*
X85500000Y-64160000D02*
X84700000Y-64160000D01*
X84700000Y-64160000D02*
X85500000Y-65310000D01*
D14*
X83850000Y-69170000D02*
X87150000Y-69170000D01*
X83850000Y-69170000D02*
X83850000Y-62160000D01*
%TO.C,U1*%
X74950000Y-60610000D02*
X76900000Y-60610000D01*
X74950000Y-60610000D02*
X73000000Y-60610000D01*
X74950000Y-55490000D02*
X76900000Y-55490000D01*
X74950000Y-55490000D02*
X73000000Y-55490000D01*
X77890000Y-60845000D02*
X77410000Y-60845000D01*
X77650000Y-60515000D01*
X77890000Y-60845000D01*
G36*
X77890000Y-60845000D02*
G01*
X77410000Y-60845000D01*
X77650000Y-60515000D01*
X77890000Y-60845000D01*
G37*
%TO.C,C3*%
X93520000Y-56350000D02*
G75*
G02*
X86980000Y-56350000I-3270000J0D01*
G01*
X86980000Y-56350000D02*
G75*
G02*
X93520000Y-56350000I3270000J0D01*
G01*
X87009000Y-56752000D02*
X87009000Y-55948000D01*
X87049000Y-56983000D02*
X87049000Y-55717000D01*
X87089000Y-57152000D02*
X87089000Y-55548000D01*
X87129000Y-57290000D02*
X87129000Y-55410000D01*
X87169000Y-57409000D02*
X87169000Y-55291000D01*
X87209000Y-57515000D02*
X87209000Y-55185000D01*
X87249000Y-57612000D02*
X87249000Y-55088000D01*
X87289000Y-57700000D02*
X87289000Y-55000000D01*
X87329000Y-57782000D02*
X87329000Y-54918000D01*
X87369000Y-57859000D02*
X87369000Y-54841000D01*
X87409000Y-57931000D02*
X87409000Y-54769000D01*
X87449000Y-58000000D02*
X87449000Y-54700000D01*
X87489000Y-58064000D02*
X87489000Y-54636000D01*
X87529000Y-58126000D02*
X87529000Y-54574000D01*
X87569000Y-58184000D02*
X87569000Y-54516000D01*
X87609000Y-58240000D02*
X87609000Y-54460000D01*
X87649000Y-58294000D02*
X87649000Y-54406000D01*
X87689000Y-58345000D02*
X87689000Y-54355000D01*
X87729000Y-58394000D02*
X87729000Y-54306000D01*
X87769000Y-58442000D02*
X87769000Y-54258000D01*
X87809000Y-58487000D02*
X87809000Y-54213000D01*
X87849000Y-58532000D02*
X87849000Y-54168000D01*
X87889000Y-58574000D02*
X87889000Y-54126000D01*
X87929000Y-58615000D02*
X87929000Y-54085000D01*
X87969000Y-55310000D02*
X87969000Y-54045000D01*
X87969000Y-58655000D02*
X87969000Y-57390000D01*
X88009000Y-55310000D02*
X88009000Y-54007000D01*
X88009000Y-58693000D02*
X88009000Y-57390000D01*
X88049000Y-55310000D02*
X88049000Y-53970000D01*
X88049000Y-58730000D02*
X88049000Y-57390000D01*
X88089000Y-55310000D02*
X88089000Y-53934000D01*
X88089000Y-58766000D02*
X88089000Y-57390000D01*
X88129000Y-55310000D02*
X88129000Y-53900000D01*
X88129000Y-58800000D02*
X88129000Y-57390000D01*
X88169000Y-55310000D02*
X88169000Y-53866000D01*
X88169000Y-58834000D02*
X88169000Y-57390000D01*
X88209000Y-55310000D02*
X88209000Y-53834000D01*
X88209000Y-58866000D02*
X88209000Y-57390000D01*
X88249000Y-55310000D02*
X88249000Y-53802000D01*
X88249000Y-58898000D02*
X88249000Y-57390000D01*
X88289000Y-55310000D02*
X88289000Y-53772000D01*
X88289000Y-58928000D02*
X88289000Y-57390000D01*
X88329000Y-55310000D02*
X88329000Y-53743000D01*
X88329000Y-58957000D02*
X88329000Y-57390000D01*
X88369000Y-55310000D02*
X88369000Y-53714000D01*
X88369000Y-58986000D02*
X88369000Y-57390000D01*
X88409000Y-55310000D02*
X88409000Y-53686000D01*
X88409000Y-59014000D02*
X88409000Y-57390000D01*
X88449000Y-55310000D02*
X88449000Y-53660000D01*
X88449000Y-59040000D02*
X88449000Y-57390000D01*
X88489000Y-55310000D02*
X88489000Y-53634000D01*
X88489000Y-59066000D02*
X88489000Y-57390000D01*
X88529000Y-55310000D02*
X88529000Y-53608000D01*
X88529000Y-59092000D02*
X88529000Y-57390000D01*
X88569000Y-55310000D02*
X88569000Y-53584000D01*
X88569000Y-59116000D02*
X88569000Y-57390000D01*
X88609000Y-55310000D02*
X88609000Y-53560000D01*
X88609000Y-59140000D02*
X88609000Y-57390000D01*
X88649000Y-55310000D02*
X88649000Y-53538000D01*
X88649000Y-59162000D02*
X88649000Y-57390000D01*
X88689000Y-55310000D02*
X88689000Y-53516000D01*
X88689000Y-59184000D02*
X88689000Y-57390000D01*
X88729000Y-55310000D02*
X88729000Y-53494000D01*
X88729000Y-59206000D02*
X88729000Y-57390000D01*
X88769000Y-55310000D02*
X88769000Y-53474000D01*
X88769000Y-59226000D02*
X88769000Y-57390000D01*
X88809000Y-55310000D02*
X88809000Y-53454000D01*
X88809000Y-59246000D02*
X88809000Y-57390000D01*
X88849000Y-55310000D02*
X88849000Y-53434000D01*
X88849000Y-59266000D02*
X88849000Y-57390000D01*
X88889000Y-55310000D02*
X88889000Y-53416000D01*
X88889000Y-59284000D02*
X88889000Y-57390000D01*
X88929000Y-55310000D02*
X88929000Y-53398000D01*
X88929000Y-59302000D02*
X88929000Y-57390000D01*
X88969000Y-55310000D02*
X88969000Y-53380000D01*
X88969000Y-59320000D02*
X88969000Y-57390000D01*
X89009000Y-55310000D02*
X89009000Y-53364000D01*
X89009000Y-59336000D02*
X89009000Y-57390000D01*
X89049000Y-55310000D02*
X89049000Y-53348000D01*
X89049000Y-59352000D02*
X89049000Y-57390000D01*
X89089000Y-55310000D02*
X89089000Y-53332000D01*
X89089000Y-59368000D02*
X89089000Y-57390000D01*
X89129000Y-55310000D02*
X89129000Y-53317000D01*
X89129000Y-59383000D02*
X89129000Y-57390000D01*
X89169000Y-55310000D02*
X89169000Y-53303000D01*
X89169000Y-59397000D02*
X89169000Y-57390000D01*
X89209000Y-55310000D02*
X89209000Y-53289000D01*
X89209000Y-59411000D02*
X89209000Y-57390000D01*
X89249000Y-55310000D02*
X89249000Y-53276000D01*
X89249000Y-59424000D02*
X89249000Y-57390000D01*
X89289000Y-55310000D02*
X89289000Y-53264000D01*
X89289000Y-59436000D02*
X89289000Y-57390000D01*
X89329000Y-55310000D02*
X89329000Y-53252000D01*
X89329000Y-59448000D02*
X89329000Y-57390000D01*
X89369000Y-55310000D02*
X89369000Y-53240000D01*
X89369000Y-59460000D02*
X89369000Y-57390000D01*
X89409000Y-55310000D02*
X89409000Y-53229000D01*
X89409000Y-59471000D02*
X89409000Y-57390000D01*
X89449000Y-55310000D02*
X89449000Y-53219000D01*
X89449000Y-59481000D02*
X89449000Y-57390000D01*
X89489000Y-55310000D02*
X89489000Y-53209000D01*
X89489000Y-59491000D02*
X89489000Y-57390000D01*
X89529000Y-55310000D02*
X89529000Y-53200000D01*
X89529000Y-59500000D02*
X89529000Y-57390000D01*
X89570000Y-55310000D02*
X89570000Y-53191000D01*
X89570000Y-59509000D02*
X89570000Y-57390000D01*
X89610000Y-55310000D02*
X89610000Y-53183000D01*
X89610000Y-59517000D02*
X89610000Y-57390000D01*
X89650000Y-55310000D02*
X89650000Y-53175000D01*
X89650000Y-59525000D02*
X89650000Y-57390000D01*
X89690000Y-55310000D02*
X89690000Y-53168000D01*
X89690000Y-59532000D02*
X89690000Y-57390000D01*
X89730000Y-55310000D02*
X89730000Y-53161000D01*
X89730000Y-59539000D02*
X89730000Y-57390000D01*
X89770000Y-55310000D02*
X89770000Y-53155000D01*
X89770000Y-59545000D02*
X89770000Y-57390000D01*
X89810000Y-55310000D02*
X89810000Y-53149000D01*
X89810000Y-59551000D02*
X89810000Y-57390000D01*
X89850000Y-55310000D02*
X89850000Y-53144000D01*
X89850000Y-59556000D02*
X89850000Y-57390000D01*
X89890000Y-55310000D02*
X89890000Y-53139000D01*
X89890000Y-59561000D02*
X89890000Y-57390000D01*
X89930000Y-55310000D02*
X89930000Y-53135000D01*
X89930000Y-59565000D02*
X89930000Y-57390000D01*
X89970000Y-55310000D02*
X89970000Y-53132000D01*
X89970000Y-59568000D02*
X89970000Y-57390000D01*
X90010000Y-55310000D02*
X90010000Y-53128000D01*
X90010000Y-59572000D02*
X90010000Y-57390000D01*
X90050000Y-59574000D02*
X90050000Y-53126000D01*
X90090000Y-59577000D02*
X90090000Y-53123000D01*
X90130000Y-59578000D02*
X90130000Y-53122000D01*
X90170000Y-59580000D02*
X90170000Y-53120000D01*
X90210000Y-59580000D02*
X90210000Y-53120000D01*
X90250000Y-59580000D02*
X90250000Y-53120000D01*
X93435241Y-58504000D02*
X93435241Y-57874000D01*
X93750241Y-58189000D02*
X93120241Y-58189000D01*
%TO.C,R2*%
X72422936Y-53835000D02*
X72877064Y-53835000D01*
X72422936Y-52365000D02*
X72877064Y-52365000D01*
%TO.C,C2*%
X81888748Y-57685000D02*
X82411252Y-57685000D01*
X81888748Y-56215000D02*
X82411252Y-56215000D01*
D10*
%TO.C,RV1*%
X69750000Y-54650000D02*
X69750000Y-60650000D01*
X69750000Y-54650000D02*
X66250000Y-54650000D01*
X68750000Y-61650000D02*
X66250000Y-61650000D01*
X63750000Y-61650000D02*
X66250000Y-61650000D01*
X62750000Y-54650000D02*
X66250000Y-54650000D01*
X62750000Y-54650000D02*
X62750000Y-60650000D01*
X69750000Y-60650000D02*
G75*
G02*
X68750000Y-61650000I-999999J-1D01*
G01*
X63750000Y-61650000D02*
G75*
G02*
X62750000Y-60650000I0J1000000D01*
G01*
%TD*%
M02*
