%TF.GenerationSoftware,KiCad,Pcbnew,8.0.4*%
%TF.CreationDate,2025-01-06T15:09:24+00:00*%
%TF.ProjectId,5050_led_3,35303530-5f6c-4656-945f-332e6b696361,rev?*%
%TF.SameCoordinates,Original*%
%TF.FileFunction,Copper,L2,Bot*%
%TF.FilePolarity,Positive*%
%FSLAX46Y46*%
G04 Gerber Fmt 4.6, Leading zero omitted, Abs format (unit mm)*
G04 Created by KiCad (PCBNEW 8.0.4) date 2025-01-06 15:09:24*
%MOMM*%
%LPD*%
G01*
G04 APERTURE LIST*
G04 Aperture macros list*
%AMRoundRect*
0 Rectangle with rounded corners*
0 $1 Rounding radius*
0 $2 $3 $4 $5 $6 $7 $8 $9 X,Y pos of 4 corners*
0 Add a 4 corners polygon primitive as box body*
4,1,4,$2,$3,$4,$5,$6,$7,$8,$9,$2,$3,0*
0 Add four circle primitives for the rounded corners*
1,1,$1+$1,$2,$3*
1,1,$1+$1,$4,$5*
1,1,$1+$1,$6,$7*
1,1,$1+$1,$8,$9*
0 Add four rect primitives between the rounded corners*
20,1,$1+$1,$2,$3,$4,$5,0*
20,1,$1+$1,$4,$5,$6,$7,0*
20,1,$1+$1,$6,$7,$8,$9,0*
20,1,$1+$1,$8,$9,$2,$3,0*%
G04 Aperture macros list end*
%TA.AperFunction,ComponentPad*%
%ADD10RoundRect,0.250000X-1.750000X0.500000X-1.750000X-0.500000X1.750000X-0.500000X1.750000X0.500000X0*%
%TD*%
%TA.AperFunction,ViaPad*%
%ADD11C,0.600000*%
%TD*%
%TA.AperFunction,Conductor*%
%ADD12C,0.200000*%
%TD*%
%TA.AperFunction,Conductor*%
%ADD13C,0.800000*%
%TD*%
G04 APERTURE END LIST*
D10*
%TO.P,J5,1,Pin_1*%
%TO.N,/9V*%
X52500000Y-53855000D03*
%TO.P,J5,2,Pin_2*%
%TO.N,/GND*%
X52500000Y-56395000D03*
%TD*%
D11*
%TO.N,/GND*%
X85000000Y-56807500D03*
X85000000Y-55125000D03*
X85000000Y-53407500D03*
%TD*%
D12*
%TO.N,/GND*%
X85000000Y-55125000D02*
X85000000Y-56727500D01*
D13*
X52500000Y-56395000D02*
X83730000Y-56395000D01*
D12*
X85050000Y-53407500D02*
X85050000Y-55075000D01*
D13*
X83730000Y-56395000D02*
X85000000Y-55125000D01*
D12*
X85000000Y-56727500D02*
X85080000Y-56807500D01*
X85050000Y-55075000D02*
X85000000Y-55125000D01*
%TD*%
%TA.AperFunction,Conductor*%
%TO.N,/GND*%
G36*
X88942539Y-50520185D02*
G01*
X88988294Y-50572989D01*
X88999500Y-50624500D01*
X88999500Y-59875500D01*
X88979815Y-59942539D01*
X88927011Y-59988294D01*
X88875500Y-59999500D01*
X51124000Y-59999500D01*
X51056961Y-59979815D01*
X51011206Y-59927011D01*
X51000000Y-59875500D01*
X51000000Y-57676025D01*
X51000000Y-57549454D01*
X51014404Y-57527042D01*
X52100000Y-56441446D01*
X52100000Y-56447661D01*
X52127259Y-56549394D01*
X52179920Y-56640606D01*
X52254394Y-56715080D01*
X52345606Y-56767741D01*
X52447339Y-56795000D01*
X52453552Y-56795000D01*
X51603554Y-57644998D01*
X51603555Y-57644999D01*
X53396445Y-57644999D01*
X53396445Y-57644998D01*
X52546448Y-56795000D01*
X52552661Y-56795000D01*
X52654394Y-56767741D01*
X52745606Y-56715080D01*
X52820080Y-56640606D01*
X52872741Y-56549394D01*
X52900000Y-56447661D01*
X52900000Y-56441447D01*
X54103552Y-57644999D01*
X54299972Y-57644999D01*
X54299986Y-57644998D01*
X54402697Y-57634505D01*
X54569119Y-57579358D01*
X54569124Y-57579356D01*
X54718345Y-57487315D01*
X54842315Y-57363345D01*
X54934356Y-57214124D01*
X54934358Y-57214119D01*
X54989505Y-57047697D01*
X54989506Y-57047690D01*
X54999999Y-56944986D01*
X54999999Y-55845028D01*
X54999998Y-55845012D01*
X54989505Y-55742302D01*
X54934358Y-55575880D01*
X54934356Y-55575875D01*
X54842315Y-55426654D01*
X54718344Y-55302683D01*
X54718340Y-55302680D01*
X54601855Y-55230831D01*
X54555130Y-55178883D01*
X54543909Y-55109921D01*
X54571752Y-55045839D01*
X54601854Y-55019755D01*
X54718656Y-54947712D01*
X54842712Y-54823656D01*
X54934814Y-54674334D01*
X54989999Y-54507797D01*
X55000500Y-54405009D01*
X55000499Y-53304992D01*
X54989999Y-53202203D01*
X54934814Y-53035666D01*
X54842712Y-52886344D01*
X54718656Y-52762288D01*
X54569334Y-52670186D01*
X54402797Y-52615001D01*
X54402795Y-52615000D01*
X54300016Y-52604500D01*
X51124000Y-52604500D01*
X51056961Y-52584815D01*
X51011206Y-52532011D01*
X51000000Y-52480500D01*
X51000000Y-50624500D01*
X51019685Y-50557461D01*
X51072489Y-50511706D01*
X51124000Y-50500500D01*
X88875500Y-50500500D01*
X88942539Y-50520185D01*
G37*
%TD.AperFunction*%
%TD*%
M02*
