%TF.GenerationSoftware,KiCad,Pcbnew,8.0.4*%
%TF.CreationDate,2025-01-06T15:09:24+00:00*%
%TF.ProjectId,5050_led_3,35303530-5f6c-4656-945f-332e6b696361,rev?*%
%TF.SameCoordinates,Original*%
%TF.FileFunction,Copper,L1,Top*%
%TF.FilePolarity,Positive*%
%FSLAX46Y46*%
G04 Gerber Fmt 4.6, Leading zero omitted, Abs format (unit mm)*
G04 Created by KiCad (PCBNEW 8.0.4) date 2025-01-06 15:09:24*
%MOMM*%
%LPD*%
G01*
G04 APERTURE LIST*
G04 Aperture macros list*
%AMRoundRect*
0 Rectangle with rounded corners*
0 $1 Rounding radius*
0 $2 $3 $4 $5 $6 $7 $8 $9 X,Y pos of 4 corners*
0 Add a 4 corners polygon primitive as box body*
4,1,4,$2,$3,$4,$5,$6,$7,$8,$9,$2,$3,0*
0 Add four circle primitives for the rounded corners*
1,1,$1+$1,$2,$3*
1,1,$1+$1,$4,$5*
1,1,$1+$1,$6,$7*
1,1,$1+$1,$8,$9*
0 Add four rect primitives between the rounded corners*
20,1,$1+$1,$2,$3,$4,$5,0*
20,1,$1+$1,$4,$5,$6,$7,0*
20,1,$1+$1,$6,$7,$8,$9,0*
20,1,$1+$1,$8,$9,$2,$3,0*%
G04 Aperture macros list end*
%TA.AperFunction,SMDPad,CuDef*%
%ADD10RoundRect,0.250000X-0.350000X-0.450000X0.350000X-0.450000X0.350000X0.450000X-0.350000X0.450000X0*%
%TD*%
%TA.AperFunction,SMDPad,CuDef*%
%ADD11R,2.000000X1.100000*%
%TD*%
%TA.AperFunction,ComponentPad*%
%ADD12RoundRect,0.250000X-1.750000X0.500000X-1.750000X-0.500000X1.750000X-0.500000X1.750000X0.500000X0*%
%TD*%
%TA.AperFunction,ViaPad*%
%ADD13C,0.600000*%
%TD*%
%TA.AperFunction,Conductor*%
%ADD14C,0.800000*%
%TD*%
G04 APERTURE END LIST*
D10*
%TO.P,R3,1*%
%TO.N,/9V*%
X58300000Y-58125000D03*
%TO.P,R3,2*%
%TO.N,Net-(D1-RA)*%
X60300000Y-58125000D03*
%TD*%
D11*
%TO.P,D3,1,RK*%
%TO.N,/GND*%
X87400000Y-56825000D03*
%TO.P,D3,2,GK*%
X87400000Y-55125000D03*
%TO.P,D3,3,BK*%
X87400000Y-53425000D03*
%TO.P,D3,4,BA*%
%TO.N,Net-(D2-BK)*%
X82600000Y-53425000D03*
%TO.P,D3,5,GA*%
%TO.N,Net-(D2-GK)*%
X82600000Y-55125000D03*
%TO.P,D3,6,RA*%
%TO.N,Net-(D2-RK)*%
X82600000Y-56825000D03*
%TD*%
D10*
%TO.P,R2,1*%
%TO.N,/9V*%
X58300000Y-55125000D03*
%TO.P,R2,2*%
%TO.N,Net-(D1-GA)*%
X60300000Y-55125000D03*
%TD*%
D12*
%TO.P,J5,1,Pin_1*%
%TO.N,/9V*%
X52500000Y-53855000D03*
%TO.P,J5,2,Pin_2*%
%TO.N,/GND*%
X52500000Y-56395000D03*
%TD*%
D11*
%TO.P,D1,1,RK*%
%TO.N,Net-(D1-RK)*%
X69400000Y-56825000D03*
%TO.P,D1,2,GK*%
%TO.N,Net-(D1-GK)*%
X69400000Y-55125000D03*
%TO.P,D1,3,BK*%
%TO.N,Net-(D1-BK)*%
X69400000Y-53425000D03*
%TO.P,D1,4,BA*%
%TO.N,Net-(D1-BA)*%
X64600000Y-53425000D03*
%TO.P,D1,5,GA*%
%TO.N,Net-(D1-GA)*%
X64600000Y-55125000D03*
%TO.P,D1,6,RA*%
%TO.N,Net-(D1-RA)*%
X64600000Y-56825000D03*
%TD*%
D10*
%TO.P,R1,1*%
%TO.N,/9V*%
X58300000Y-52125000D03*
%TO.P,R1,2*%
%TO.N,Net-(D1-BA)*%
X60300000Y-52125000D03*
%TD*%
D11*
%TO.P,D2,1,RK*%
%TO.N,Net-(D2-RK)*%
X78400000Y-56825000D03*
%TO.P,D2,2,GK*%
%TO.N,Net-(D2-GK)*%
X78400000Y-55125000D03*
%TO.P,D2,3,BK*%
%TO.N,Net-(D2-BK)*%
X78400000Y-53425000D03*
%TO.P,D2,4,BA*%
%TO.N,Net-(D1-BK)*%
X73600000Y-53425000D03*
%TO.P,D2,5,GA*%
%TO.N,Net-(D1-GK)*%
X73600000Y-55125000D03*
%TO.P,D2,6,RA*%
%TO.N,Net-(D1-RK)*%
X73600000Y-56825000D03*
%TD*%
D13*
%TO.N,/GND*%
X85000000Y-56807500D03*
X85000000Y-55125000D03*
X85000000Y-53407500D03*
%TD*%
D14*
%TO.N,Net-(D1-RK)*%
X69400000Y-56825000D02*
X73600000Y-56825000D01*
%TO.N,Net-(D1-GA)*%
X60300000Y-55125000D02*
X64600000Y-55125000D01*
%TO.N,Net-(D1-GK)*%
X73600000Y-55125000D02*
X69400000Y-55125000D01*
%TO.N,Net-(D1-BA)*%
X60300000Y-52125000D02*
X63300000Y-52125000D01*
X63300000Y-52125000D02*
X64600000Y-53425000D01*
%TO.N,Net-(D1-BK)*%
X69400000Y-53425000D02*
X73600000Y-53425000D01*
%TO.N,Net-(D1-RA)*%
X60300000Y-58125000D02*
X63300000Y-58125000D01*
X63300000Y-58125000D02*
X64600000Y-56825000D01*
%TO.N,Net-(D2-GK)*%
X82600000Y-55125000D02*
X78400000Y-55125000D01*
%TO.N,Net-(D2-RK)*%
X78400000Y-56825000D02*
X82600000Y-56825000D01*
%TO.N,Net-(D2-BK)*%
X78400000Y-53425000D02*
X82600000Y-53425000D01*
%TO.N,/GND*%
X87480000Y-56807500D02*
X85000000Y-56807500D01*
X87450000Y-53407500D02*
X85055000Y-53407500D01*
X87400000Y-53425000D02*
X87400000Y-55125000D01*
X85055000Y-53407500D02*
X85050000Y-53412500D01*
X87400000Y-55125000D02*
X87400000Y-56825000D01*
X87400000Y-55125000D02*
X85000000Y-55130000D01*
%TO.N,/9V*%
X58300000Y-55125000D02*
X58300000Y-52125000D01*
X58300000Y-55125000D02*
X58300000Y-58125000D01*
X57030000Y-53855000D02*
X58300000Y-55125000D01*
X52500000Y-53855000D02*
X57030000Y-53855000D01*
%TD*%
M02*
