%TF.GenerationSoftware,KiCad,Pcbnew,8.0.4*%
%TF.CreationDate,2025-01-06T14:24:37+00:00*%
%TF.ProjectId,tssop_20_breakout,7473736f-705f-4323-905f-627265616b6f,rev?*%
%TF.SameCoordinates,Original*%
%TF.FileFunction,Copper,L1,Top*%
%TF.FilePolarity,Positive*%
%FSLAX46Y46*%
G04 Gerber Fmt 4.6, Leading zero omitted, Abs format (unit mm)*
G04 Created by KiCad (PCBNEW 8.0.4) date 2025-01-06 14:24:37*
%MOMM*%
%LPD*%
G01*
G04 APERTURE LIST*
G04 Aperture macros list*
%AMRoundRect*
0 Rectangle with rounded corners*
0 $1 Rounding radius*
0 $2 $3 $4 $5 $6 $7 $8 $9 X,Y pos of 4 corners*
0 Add a 4 corners polygon primitive as box body*
4,1,4,$2,$3,$4,$5,$6,$7,$8,$9,$2,$3,0*
0 Add four circle primitives for the rounded corners*
1,1,$1+$1,$2,$3*
1,1,$1+$1,$4,$5*
1,1,$1+$1,$6,$7*
1,1,$1+$1,$8,$9*
0 Add four rect primitives between the rounded corners*
20,1,$1+$1,$2,$3,$4,$5,0*
20,1,$1+$1,$4,$5,$6,$7,0*
20,1,$1+$1,$6,$7,$8,$9,0*
20,1,$1+$1,$8,$9,$2,$3,0*%
G04 Aperture macros list end*
%TA.AperFunction,ComponentPad*%
%ADD10R,1.700000X1.700000*%
%TD*%
%TA.AperFunction,ComponentPad*%
%ADD11O,1.700000X1.700000*%
%TD*%
%TA.AperFunction,SMDPad,CuDef*%
%ADD12RoundRect,0.100000X-0.637500X-0.100000X0.637500X-0.100000X0.637500X0.100000X-0.637500X0.100000X0*%
%TD*%
%TA.AperFunction,SMDPad,CuDef*%
%ADD13RoundRect,0.250000X-0.337500X-0.475000X0.337500X-0.475000X0.337500X0.475000X-0.337500X0.475000X0*%
%TD*%
%TA.AperFunction,ViaPad*%
%ADD14C,0.600000*%
%TD*%
%TA.AperFunction,Conductor*%
%ADD15C,0.500000*%
%TD*%
%TA.AperFunction,Conductor*%
%ADD16C,0.400000*%
%TD*%
%TA.AperFunction,Conductor*%
%ADD17C,0.200000*%
%TD*%
G04 APERTURE END LIST*
D10*
%TO.P,J3,1,Pin_1*%
%TO.N,Net-(J3-Pin_1)*%
X52150000Y-52070000D03*
D11*
%TO.P,J3,2,Pin_2*%
%TO.N,Net-(J3-Pin_2)*%
X52150000Y-54610000D03*
%TO.P,J3,3,Pin_3*%
%TO.N,Net-(J3-Pin_3)*%
X52150000Y-57150000D03*
%TO.P,J3,4,Pin_4*%
%TO.N,Net-(J3-Pin_4)*%
X52150000Y-59690000D03*
%TO.P,J3,5,Pin_5*%
%TO.N,Net-(J3-Pin_5)*%
X52150000Y-62230000D03*
%TO.P,J3,6,Pin_6*%
%TO.N,Net-(J3-Pin_6)*%
X52150000Y-64770000D03*
%TO.P,J3,7,Pin_7*%
%TO.N,Net-(J3-Pin_7)*%
X52150000Y-67310000D03*
%TO.P,J3,8,Pin_8*%
%TO.N,Net-(J3-Pin_8)*%
X52150000Y-69850000D03*
%TO.P,J3,9,Pin_9*%
%TO.N,Net-(J3-Pin_9)*%
X52150000Y-72390000D03*
%TO.P,J3,10,Pin_10*%
%TO.N,/GND*%
X52150000Y-74930000D03*
%TD*%
D12*
%TO.P,U2,1,Pin_1*%
%TO.N,Net-(J3-Pin_1)*%
X55637500Y-60575000D03*
%TO.P,U2,2,Pin_2*%
%TO.N,Net-(J3-Pin_2)*%
X55637500Y-61225000D03*
%TO.P,U2,3,Pin_3*%
%TO.N,Net-(J3-Pin_3)*%
X55637500Y-61875000D03*
%TO.P,U2,4,Pin_4*%
%TO.N,Net-(J3-Pin_4)*%
X55637500Y-62525000D03*
%TO.P,U2,5,Pin_5*%
%TO.N,Net-(J3-Pin_5)*%
X55637500Y-63175000D03*
%TO.P,U2,6,Pin_6*%
%TO.N,Net-(J3-Pin_6)*%
X55637500Y-63825000D03*
%TO.P,U2,7,Pin_7*%
%TO.N,Net-(J3-Pin_7)*%
X55637500Y-64475000D03*
%TO.P,U2,8,Pin_8*%
%TO.N,Net-(J3-Pin_8)*%
X55637500Y-65125000D03*
%TO.P,U2,9,Pin_9*%
%TO.N,Net-(J3-Pin_9)*%
X55637500Y-65775000D03*
%TO.P,U2,10,Pin_10*%
%TO.N,/GND*%
X55637500Y-66425000D03*
%TO.P,U2,11,Pin_11*%
%TO.N,Net-(J4-Pin_1)*%
X61362500Y-66425000D03*
%TO.P,U2,12,Pin_12*%
%TO.N,Net-(J4-Pin_2)*%
X61362500Y-65775000D03*
%TO.P,U2,13,Pin_13*%
%TO.N,Net-(J4-Pin_3)*%
X61362500Y-65125000D03*
%TO.P,U2,14,Pin_14*%
%TO.N,Net-(J4-Pin_4)*%
X61362500Y-64475000D03*
%TO.P,U2,15,Pin_15*%
%TO.N,Net-(J4-Pin_5)*%
X61362500Y-63825000D03*
%TO.P,U2,16,Pin_16*%
%TO.N,Net-(J4-Pin_6)*%
X61362500Y-63175000D03*
%TO.P,U2,17,Pin_17*%
%TO.N,Net-(J4-Pin_7)*%
X61362500Y-62525000D03*
%TO.P,U2,18,Pin_18*%
%TO.N,Net-(J4-Pin_8)*%
X61362500Y-61875000D03*
%TO.P,U2,19,Pin_19*%
%TO.N,Net-(J4-Pin_9)*%
X61362500Y-61225000D03*
%TO.P,U2,20,Pin_20*%
%TO.N,Net-(J4-Pin_10)*%
X61362500Y-60575000D03*
%TD*%
D11*
%TO.P,J4,1,Pin_1*%
%TO.N,Net-(J4-Pin_1)*%
X64850000Y-74930000D03*
%TO.P,J4,2,Pin_2*%
%TO.N,Net-(J4-Pin_2)*%
X64850000Y-72390000D03*
%TO.P,J4,3,Pin_3*%
%TO.N,Net-(J4-Pin_3)*%
X64850000Y-69850000D03*
%TO.P,J4,4,Pin_4*%
%TO.N,Net-(J4-Pin_4)*%
X64850000Y-67310000D03*
%TO.P,J4,5,Pin_5*%
%TO.N,Net-(J4-Pin_5)*%
X64850000Y-64770000D03*
%TO.P,J4,6,Pin_6*%
%TO.N,Net-(J4-Pin_6)*%
X64850000Y-62230000D03*
%TO.P,J4,7,Pin_7*%
%TO.N,Net-(J4-Pin_7)*%
X64850000Y-59690000D03*
%TO.P,J4,8,Pin_8*%
%TO.N,Net-(J4-Pin_8)*%
X64850000Y-57150000D03*
%TO.P,J4,9,Pin_9*%
%TO.N,Net-(J4-Pin_9)*%
X64850000Y-54610000D03*
%TO.P,J4,10,Pin_10*%
%TO.N,Net-(J4-Pin_10)*%
X64850000Y-52070000D03*
%TD*%
D13*
%TO.P,C2,1*%
%TO.N,/GND*%
X57462500Y-55730000D03*
%TO.P,C2,2*%
%TO.N,Net-(J4-Pin_10)*%
X59537500Y-55730000D03*
%TD*%
D14*
%TO.N,/GND*%
X57340000Y-57990000D03*
X57340000Y-66460000D03*
%TD*%
D15*
%TO.N,Net-(J4-Pin_10)*%
X59410000Y-58392500D02*
X59410000Y-55730000D01*
X61190000Y-55730000D02*
X64850000Y-52070000D01*
X59410000Y-55730000D02*
X61190000Y-55730000D01*
D16*
X61362500Y-60575000D02*
X61362500Y-60345000D01*
D15*
X61362500Y-60345000D02*
X59410000Y-58392500D01*
%TO.N,/GND*%
X55637500Y-66657500D02*
X55637500Y-73432500D01*
D17*
X57340000Y-55735000D02*
X57335000Y-55730000D01*
D16*
X57305000Y-66425000D02*
X55637500Y-66425000D01*
X55637500Y-66425000D02*
X55637500Y-66657500D01*
D17*
X57340000Y-66460000D02*
X57305000Y-66425000D01*
D15*
X54140000Y-74930000D02*
X52150000Y-74930000D01*
X55637500Y-73432500D02*
X54140000Y-74930000D01*
X57340000Y-57990000D02*
X57340000Y-55735000D01*
D17*
%TO.N,Net-(J4-Pin_1)*%
X61362500Y-66425000D02*
X61362500Y-71442500D01*
X61362500Y-71442500D02*
X64850000Y-74930000D01*
%TO.N,Net-(J3-Pin_6)*%
X53095000Y-63825000D02*
X52150000Y-64770000D01*
X55637500Y-63825000D02*
X53095000Y-63825000D01*
%TO.N,Net-(J3-Pin_8)*%
X55637500Y-65125000D02*
X54900001Y-65125000D01*
X54900001Y-65125000D02*
X53300000Y-66725001D01*
X53300000Y-68320000D02*
X52150000Y-69470000D01*
X53300000Y-66725001D02*
X53300000Y-68320000D01*
%TO.N,Net-(J3-Pin_7)*%
X55637500Y-64475000D02*
X54900001Y-64475000D01*
X52150000Y-67225001D02*
X52150000Y-67310000D01*
X54900001Y-64475000D02*
X52150000Y-67225001D01*
%TO.N,Net-(J3-Pin_1)*%
X55637500Y-60575000D02*
X55637500Y-55557500D01*
X55637500Y-55557500D02*
X52150000Y-52070000D01*
%TO.N,Net-(J4-Pin_6)*%
X61362500Y-63175000D02*
X63905000Y-63175000D01*
X63905000Y-63175000D02*
X64850000Y-62230000D01*
%TO.N,Net-(J4-Pin_7)*%
X61362500Y-62525000D02*
X62099999Y-62525000D01*
X62099999Y-62525000D02*
X64850000Y-59774999D01*
X64850000Y-59774999D02*
X64850000Y-59690000D01*
%TO.N,Net-(J4-Pin_5)*%
X61362500Y-63825000D02*
X63905000Y-63825000D01*
X63905000Y-63825000D02*
X64850000Y-64770000D01*
%TO.N,Net-(J3-Pin_5)*%
X55637500Y-63175000D02*
X53095000Y-63175000D01*
X53095000Y-63175000D02*
X52150000Y-62230000D01*
%TO.N,Net-(J4-Pin_2)*%
X63200000Y-70740000D02*
X64850000Y-72390000D01*
X62099999Y-65775000D02*
X63200000Y-66875001D01*
X63200000Y-66875001D02*
X63200000Y-70740000D01*
X61362500Y-65775000D02*
X62099999Y-65775000D01*
%TO.N,Net-(J3-Pin_4)*%
X52150000Y-59774999D02*
X52150000Y-59690000D01*
X55637500Y-62525000D02*
X54900001Y-62525000D01*
X54900001Y-62525000D02*
X52150000Y-59774999D01*
%TO.N,Net-(J3-Pin_2)*%
X55637500Y-61225000D02*
X54900001Y-61225000D01*
X54520000Y-56980000D02*
X52150000Y-54610000D01*
X54900001Y-61225000D02*
X54520000Y-60844999D01*
X54520000Y-60844999D02*
X54520000Y-56980000D01*
%TO.N,Net-(J3-Pin_9)*%
X55637500Y-65775000D02*
X54900001Y-65775000D01*
X53750000Y-70790000D02*
X52150000Y-72390000D01*
X53750000Y-66925001D02*
X53750000Y-70790000D01*
X54900001Y-65775000D02*
X53750000Y-66925001D01*
%TO.N,Net-(J4-Pin_8)*%
X61362500Y-61875000D02*
X62099999Y-61875000D01*
X63360000Y-58640000D02*
X64850000Y-57150000D01*
X63360000Y-60614999D02*
X63360000Y-58640000D01*
X62099999Y-61875000D02*
X63360000Y-60614999D01*
%TO.N,Net-(J3-Pin_3)*%
X54120000Y-59120000D02*
X52150000Y-57150000D01*
X55637500Y-61875000D02*
X54900001Y-61875000D01*
X54120000Y-61094999D02*
X54120000Y-59120000D01*
X54900001Y-61875000D02*
X54120000Y-61094999D01*
%TO.N,Net-(J4-Pin_3)*%
X63630000Y-68630000D02*
X64850000Y-69850000D01*
X62099999Y-65125000D02*
X63630000Y-66655001D01*
X61362500Y-65125000D02*
X62099999Y-65125000D01*
X63630000Y-66655001D02*
X63630000Y-68630000D01*
%TO.N,Net-(J4-Pin_9)*%
X62490000Y-56970000D02*
X64850000Y-54610000D01*
X62099999Y-61225000D02*
X62490000Y-60834999D01*
X62490000Y-60834999D02*
X62490000Y-56970000D01*
X61362500Y-61225000D02*
X62099999Y-61225000D01*
%TO.N,Net-(J4-Pin_4)*%
X62099999Y-64475000D02*
X64850000Y-67225001D01*
X61362500Y-64475000D02*
X62099999Y-64475000D01*
X64850000Y-67225001D02*
X64850000Y-67310000D01*
%TD*%
%TA.AperFunction,Conductor*%
%TO.N,/GND*%
G36*
X51176614Y-50520185D02*
G01*
X51222369Y-50572989D01*
X51232313Y-50642147D01*
X51203288Y-50705703D01*
X51152908Y-50740682D01*
X51057671Y-50776202D01*
X51057664Y-50776206D01*
X50942455Y-50862452D01*
X50942452Y-50862455D01*
X50856206Y-50977664D01*
X50856202Y-50977671D01*
X50805908Y-51112517D01*
X50799501Y-51172116D01*
X50799501Y-51172123D01*
X50799500Y-51172135D01*
X50799500Y-52967870D01*
X50799501Y-52967876D01*
X50805908Y-53027483D01*
X50856202Y-53162328D01*
X50856206Y-53162335D01*
X50942452Y-53277544D01*
X50942455Y-53277547D01*
X51057664Y-53363793D01*
X51057671Y-53363797D01*
X51189081Y-53412810D01*
X51245015Y-53454681D01*
X51269432Y-53520145D01*
X51254580Y-53588418D01*
X51233430Y-53616673D01*
X51111503Y-53738600D01*
X50975965Y-53932169D01*
X50975964Y-53932171D01*
X50876098Y-54146335D01*
X50876094Y-54146344D01*
X50814938Y-54374586D01*
X50814936Y-54374596D01*
X50794341Y-54609999D01*
X50794341Y-54610000D01*
X50814936Y-54845403D01*
X50814938Y-54845413D01*
X50876094Y-55073655D01*
X50876096Y-55073659D01*
X50876097Y-55073663D01*
X50952384Y-55237260D01*
X50975965Y-55287830D01*
X50975967Y-55287834D01*
X51111501Y-55481395D01*
X51111506Y-55481402D01*
X51278597Y-55648493D01*
X51278603Y-55648498D01*
X51464158Y-55778425D01*
X51507783Y-55833002D01*
X51514977Y-55902500D01*
X51483454Y-55964855D01*
X51464158Y-55981575D01*
X51278597Y-56111505D01*
X51111505Y-56278597D01*
X50975965Y-56472169D01*
X50975964Y-56472171D01*
X50905342Y-56623621D01*
X50876098Y-56686336D01*
X50876094Y-56686344D01*
X50814938Y-56914586D01*
X50814936Y-56914596D01*
X50794341Y-57149999D01*
X50794341Y-57150000D01*
X50814936Y-57385403D01*
X50814938Y-57385413D01*
X50876094Y-57613655D01*
X50876096Y-57613659D01*
X50876097Y-57613663D01*
X50885362Y-57633531D01*
X50975965Y-57827830D01*
X50975967Y-57827834D01*
X51111501Y-58021395D01*
X51111506Y-58021402D01*
X51278597Y-58188493D01*
X51278603Y-58188498D01*
X51464158Y-58318425D01*
X51507783Y-58373002D01*
X51514977Y-58442500D01*
X51483454Y-58504855D01*
X51464158Y-58521575D01*
X51278597Y-58651505D01*
X51111505Y-58818597D01*
X50975965Y-59012169D01*
X50975964Y-59012171D01*
X50876098Y-59226335D01*
X50876094Y-59226344D01*
X50814938Y-59454586D01*
X50814936Y-59454596D01*
X50794341Y-59689999D01*
X50794341Y-59690000D01*
X50814936Y-59925403D01*
X50814938Y-59925413D01*
X50876094Y-60153655D01*
X50876096Y-60153659D01*
X50876097Y-60153663D01*
X50952839Y-60318237D01*
X50975965Y-60367830D01*
X50975967Y-60367834D01*
X51111501Y-60561395D01*
X51111506Y-60561402D01*
X51278597Y-60728493D01*
X51278603Y-60728498D01*
X51464158Y-60858425D01*
X51507783Y-60913002D01*
X51514977Y-60982500D01*
X51483454Y-61044855D01*
X51464158Y-61061575D01*
X51278597Y-61191505D01*
X51111505Y-61358597D01*
X50975965Y-61552169D01*
X50975964Y-61552171D01*
X50876098Y-61766335D01*
X50876094Y-61766344D01*
X50814938Y-61994586D01*
X50814936Y-61994596D01*
X50794341Y-62229999D01*
X50794341Y-62230000D01*
X50814936Y-62465403D01*
X50814938Y-62465413D01*
X50876094Y-62693655D01*
X50876096Y-62693659D01*
X50876097Y-62693663D01*
X50917180Y-62781765D01*
X50975965Y-62907830D01*
X50975967Y-62907834D01*
X51111501Y-63101395D01*
X51111506Y-63101402D01*
X51278597Y-63268493D01*
X51278603Y-63268498D01*
X51464158Y-63398425D01*
X51507783Y-63453002D01*
X51514977Y-63522500D01*
X51483454Y-63584855D01*
X51464158Y-63601575D01*
X51278597Y-63731505D01*
X51111505Y-63898597D01*
X50975965Y-64092169D01*
X50975964Y-64092171D01*
X50876098Y-64306335D01*
X50876094Y-64306344D01*
X50814938Y-64534586D01*
X50814936Y-64534596D01*
X50794341Y-64769999D01*
X50794341Y-64770000D01*
X50814936Y-65005403D01*
X50814938Y-65005413D01*
X50876094Y-65233655D01*
X50876096Y-65233659D01*
X50876097Y-65233663D01*
X50890412Y-65264361D01*
X50975965Y-65447830D01*
X50975967Y-65447834D01*
X51025262Y-65518234D01*
X51107470Y-65635639D01*
X51111501Y-65641395D01*
X51111506Y-65641402D01*
X51278597Y-65808493D01*
X51278603Y-65808498D01*
X51464158Y-65938425D01*
X51507783Y-65993002D01*
X51514977Y-66062500D01*
X51483454Y-66124855D01*
X51464158Y-66141575D01*
X51278597Y-66271505D01*
X51111505Y-66438597D01*
X50975965Y-66632169D01*
X50975964Y-66632171D01*
X50876098Y-66846335D01*
X50876094Y-66846344D01*
X50814938Y-67074586D01*
X50814936Y-67074596D01*
X50794341Y-67309999D01*
X50794341Y-67310000D01*
X50814936Y-67545403D01*
X50814938Y-67545413D01*
X50876094Y-67773655D01*
X50876096Y-67773659D01*
X50876097Y-67773663D01*
X50975965Y-67987830D01*
X50975967Y-67987834D01*
X51111501Y-68181395D01*
X51111506Y-68181402D01*
X51278597Y-68348493D01*
X51278603Y-68348498D01*
X51464158Y-68478425D01*
X51507783Y-68533002D01*
X51514977Y-68602500D01*
X51483454Y-68664855D01*
X51464158Y-68681575D01*
X51278597Y-68811505D01*
X51111505Y-68978597D01*
X50975965Y-69172169D01*
X50975964Y-69172171D01*
X50876098Y-69386335D01*
X50876094Y-69386344D01*
X50814938Y-69614586D01*
X50814936Y-69614596D01*
X50794341Y-69849999D01*
X50794341Y-69850000D01*
X50814936Y-70085403D01*
X50814938Y-70085413D01*
X50876094Y-70313655D01*
X50876096Y-70313659D01*
X50876097Y-70313663D01*
X50975965Y-70527830D01*
X50975967Y-70527834D01*
X51063841Y-70653330D01*
X51098863Y-70703347D01*
X51111501Y-70721395D01*
X51111506Y-70721402D01*
X51278597Y-70888493D01*
X51278603Y-70888498D01*
X51464158Y-71018425D01*
X51507783Y-71073002D01*
X51514977Y-71142500D01*
X51483454Y-71204855D01*
X51464158Y-71221575D01*
X51278597Y-71351505D01*
X51111505Y-71518597D01*
X50975965Y-71712169D01*
X50975964Y-71712171D01*
X50876098Y-71926335D01*
X50876094Y-71926344D01*
X50814938Y-72154586D01*
X50814936Y-72154596D01*
X50794341Y-72389999D01*
X50794341Y-72390000D01*
X50814936Y-72625403D01*
X50814938Y-72625413D01*
X50876094Y-72853655D01*
X50876096Y-72853659D01*
X50876097Y-72853663D01*
X50975965Y-73067830D01*
X50975967Y-73067834D01*
X51111501Y-73261395D01*
X51111506Y-73261402D01*
X51278597Y-73428493D01*
X51278603Y-73428498D01*
X51464594Y-73558730D01*
X51508219Y-73613307D01*
X51515413Y-73682805D01*
X51483890Y-73745160D01*
X51464595Y-73761880D01*
X51278922Y-73891890D01*
X51278920Y-73891891D01*
X51111891Y-74058920D01*
X51111886Y-74058926D01*
X50976400Y-74252420D01*
X50976399Y-74252422D01*
X50876570Y-74466507D01*
X50876567Y-74466513D01*
X50819364Y-74679999D01*
X50819364Y-74680000D01*
X51716988Y-74680000D01*
X51684075Y-74737007D01*
X51650000Y-74864174D01*
X51650000Y-74995826D01*
X51684075Y-75122993D01*
X51716988Y-75180000D01*
X50819364Y-75180000D01*
X50876567Y-75393486D01*
X50876570Y-75393492D01*
X50976399Y-75607578D01*
X51111894Y-75801082D01*
X51278917Y-75968105D01*
X51472421Y-76103600D01*
X51686507Y-76203429D01*
X51686516Y-76203433D01*
X51881673Y-76255725D01*
X51941334Y-76292090D01*
X51971863Y-76354937D01*
X51963568Y-76424312D01*
X51919083Y-76478190D01*
X51852531Y-76499465D01*
X51849580Y-76499500D01*
X50624500Y-76499500D01*
X50557461Y-76479815D01*
X50511706Y-76427011D01*
X50500500Y-76375500D01*
X50500500Y-50624500D01*
X50520185Y-50557461D01*
X50572989Y-50511706D01*
X50624500Y-50500500D01*
X51109575Y-50500500D01*
X51176614Y-50520185D01*
G37*
%TD.AperFunction*%
%TA.AperFunction,Conductor*%
G36*
X64614688Y-50520185D02*
G01*
X64660443Y-50572989D01*
X64670387Y-50642147D01*
X64641362Y-50705703D01*
X64582584Y-50743477D01*
X64579742Y-50744275D01*
X64386344Y-50796094D01*
X64386335Y-50796098D01*
X64172171Y-50895964D01*
X64172169Y-50895965D01*
X63978597Y-51031505D01*
X63811505Y-51198597D01*
X63675965Y-51392169D01*
X63675964Y-51392171D01*
X63576098Y-51606335D01*
X63576094Y-51606344D01*
X63514938Y-51834586D01*
X63514936Y-51834596D01*
X63494341Y-52069999D01*
X63494341Y-52070001D01*
X63512977Y-52283013D01*
X63499210Y-52351513D01*
X63477130Y-52381501D01*
X60915451Y-54943181D01*
X60854128Y-54976666D01*
X60827770Y-54979500D01*
X60656058Y-54979500D01*
X60589019Y-54959815D01*
X60550519Y-54920597D01*
X60467712Y-54786344D01*
X60343656Y-54662288D01*
X60194334Y-54570186D01*
X60027797Y-54515001D01*
X60027795Y-54515000D01*
X59925010Y-54504500D01*
X59149998Y-54504500D01*
X59149980Y-54504501D01*
X59047203Y-54515000D01*
X59047200Y-54515001D01*
X58880668Y-54570185D01*
X58880663Y-54570187D01*
X58731342Y-54662289D01*
X58607288Y-54786343D01*
X58607283Y-54786349D01*
X58605241Y-54789661D01*
X58603247Y-54791453D01*
X58602807Y-54792011D01*
X58602711Y-54791935D01*
X58553291Y-54836383D01*
X58484328Y-54847602D01*
X58420247Y-54819755D01*
X58394168Y-54789656D01*
X58392319Y-54786659D01*
X58392316Y-54786655D01*
X58268345Y-54662684D01*
X58119124Y-54570643D01*
X58119119Y-54570641D01*
X57952697Y-54515494D01*
X57952690Y-54515493D01*
X57849986Y-54505000D01*
X57712500Y-54505000D01*
X57712500Y-56954999D01*
X57849972Y-56954999D01*
X57849986Y-56954998D01*
X57952697Y-56944505D01*
X58119119Y-56889358D01*
X58119124Y-56889356D01*
X58268345Y-56797315D01*
X58392318Y-56673342D01*
X58394165Y-56670348D01*
X58395969Y-56668724D01*
X58396798Y-56667677D01*
X58396976Y-56667818D01*
X58446110Y-56623621D01*
X58515073Y-56612396D01*
X58579156Y-56640236D01*
X58605243Y-56670341D01*
X58607288Y-56673656D01*
X58607289Y-56673657D01*
X58623181Y-56689549D01*
X58656666Y-56750872D01*
X58659500Y-56777230D01*
X58659500Y-58466418D01*
X58659500Y-58466420D01*
X58659499Y-58466420D01*
X58688340Y-58611407D01*
X58688342Y-58611413D01*
X58744916Y-58747995D01*
X58747115Y-58751286D01*
X58747120Y-58751293D01*
X58827051Y-58870920D01*
X58827052Y-58870921D01*
X60120737Y-60164605D01*
X60154222Y-60225928D01*
X60149238Y-60295620D01*
X60147619Y-60299734D01*
X60139956Y-60318235D01*
X60124500Y-60435638D01*
X60124500Y-60714363D01*
X60139953Y-60831753D01*
X60139957Y-60831765D01*
X60148566Y-60852550D01*
X60156033Y-60922019D01*
X60148566Y-60947450D01*
X60139957Y-60968234D01*
X60139955Y-60968239D01*
X60124500Y-61085638D01*
X60124500Y-61364363D01*
X60139953Y-61481753D01*
X60139957Y-61481765D01*
X60148566Y-61502550D01*
X60156033Y-61572019D01*
X60148566Y-61597450D01*
X60139957Y-61618234D01*
X60139955Y-61618239D01*
X60124500Y-61735638D01*
X60124500Y-62014363D01*
X60139953Y-62131753D01*
X60139957Y-62131765D01*
X60148566Y-62152550D01*
X60156033Y-62222019D01*
X60148566Y-62247450D01*
X60139957Y-62268234D01*
X60139955Y-62268239D01*
X60124500Y-62385638D01*
X60124500Y-62664363D01*
X60139953Y-62781753D01*
X60139957Y-62781765D01*
X60148566Y-62802550D01*
X60156033Y-62872019D01*
X60148566Y-62897450D01*
X60139957Y-62918234D01*
X60139955Y-62918239D01*
X60124500Y-63035638D01*
X60124500Y-63314363D01*
X60139953Y-63431753D01*
X60139957Y-63431765D01*
X60148566Y-63452550D01*
X60156033Y-63522019D01*
X60148566Y-63547450D01*
X60139957Y-63568234D01*
X60139955Y-63568239D01*
X60124500Y-63685638D01*
X60124500Y-63964363D01*
X60139953Y-64081753D01*
X60139957Y-64081765D01*
X60148566Y-64102550D01*
X60156033Y-64172019D01*
X60148566Y-64197450D01*
X60139957Y-64218234D01*
X60139955Y-64218239D01*
X60124500Y-64335638D01*
X60124500Y-64614363D01*
X60139953Y-64731753D01*
X60139957Y-64731765D01*
X60148566Y-64752550D01*
X60156033Y-64822019D01*
X60148566Y-64847450D01*
X60139957Y-64868234D01*
X60139955Y-64868239D01*
X60124500Y-64985638D01*
X60124500Y-65264363D01*
X60139953Y-65381753D01*
X60139957Y-65381765D01*
X60148566Y-65402550D01*
X60156033Y-65472019D01*
X60148566Y-65497450D01*
X60139957Y-65518234D01*
X60139955Y-65518239D01*
X60124500Y-65635638D01*
X60124500Y-65914363D01*
X60139953Y-66031753D01*
X60139957Y-66031765D01*
X60148566Y-66052550D01*
X60156033Y-66122019D01*
X60148566Y-66147450D01*
X60139957Y-66168234D01*
X60139955Y-66168239D01*
X60124500Y-66285638D01*
X60124500Y-66564363D01*
X60139953Y-66681753D01*
X60139956Y-66681762D01*
X60200464Y-66827841D01*
X60296718Y-66953282D01*
X60422159Y-67049536D01*
X60568238Y-67110044D01*
X60654177Y-67121358D01*
X60654185Y-67121359D01*
X60718082Y-67149625D01*
X60756553Y-67207950D01*
X60762000Y-67244298D01*
X60762000Y-71355830D01*
X60761999Y-71355848D01*
X60761999Y-71521554D01*
X60761998Y-71521554D01*
X60802922Y-71674283D01*
X60824796Y-71712169D01*
X60824798Y-71712172D01*
X60881979Y-71811214D01*
X60881981Y-71811217D01*
X61000849Y-71930085D01*
X61000855Y-71930090D01*
X63517233Y-74446469D01*
X63550718Y-74507792D01*
X63549327Y-74566243D01*
X63514938Y-74694586D01*
X63514936Y-74694596D01*
X63494341Y-74929999D01*
X63494341Y-74930000D01*
X63514936Y-75165403D01*
X63514938Y-75165413D01*
X63576094Y-75393655D01*
X63576096Y-75393659D01*
X63576097Y-75393663D01*
X63675847Y-75607578D01*
X63675965Y-75607830D01*
X63675967Y-75607834D01*
X63784281Y-75762521D01*
X63811505Y-75801401D01*
X63978599Y-75968495D01*
X64075384Y-76036265D01*
X64172165Y-76104032D01*
X64172167Y-76104033D01*
X64172170Y-76104035D01*
X64386337Y-76203903D01*
X64386343Y-76203904D01*
X64386344Y-76203905D01*
X64579742Y-76255725D01*
X64639403Y-76292090D01*
X64669932Y-76354936D01*
X64661638Y-76424312D01*
X64617152Y-76478190D01*
X64550601Y-76499465D01*
X64547649Y-76499500D01*
X52450420Y-76499500D01*
X52383381Y-76479815D01*
X52337626Y-76427011D01*
X52327682Y-76357853D01*
X52356707Y-76294297D01*
X52415485Y-76256523D01*
X52418327Y-76255725D01*
X52613483Y-76203433D01*
X52613492Y-76203429D01*
X52827578Y-76103600D01*
X53021082Y-75968105D01*
X53188105Y-75801082D01*
X53323600Y-75607578D01*
X53423429Y-75393492D01*
X53423432Y-75393486D01*
X53480636Y-75180000D01*
X52583012Y-75180000D01*
X52615925Y-75122993D01*
X52650000Y-74995826D01*
X52650000Y-74864174D01*
X52615925Y-74737007D01*
X52583012Y-74680000D01*
X53480636Y-74680000D01*
X53480635Y-74679999D01*
X53423432Y-74466513D01*
X53423429Y-74466507D01*
X53323600Y-74252422D01*
X53323599Y-74252420D01*
X53188113Y-74058926D01*
X53188108Y-74058920D01*
X53021078Y-73891890D01*
X52835405Y-73761879D01*
X52791780Y-73707302D01*
X52784588Y-73637804D01*
X52816110Y-73575449D01*
X52835406Y-73558730D01*
X52835842Y-73558425D01*
X53021401Y-73428495D01*
X53188495Y-73261401D01*
X53324035Y-73067830D01*
X53423903Y-72853663D01*
X53485063Y-72625408D01*
X53505659Y-72390000D01*
X53485063Y-72154592D01*
X53450671Y-72026239D01*
X53452334Y-71956393D01*
X53482763Y-71906470D01*
X54230520Y-71158716D01*
X54309577Y-71021784D01*
X54350501Y-70869057D01*
X54350501Y-70710942D01*
X54350501Y-70703347D01*
X54350500Y-70703329D01*
X54350500Y-67225097D01*
X54370185Y-67158058D01*
X54386809Y-67137426D01*
X54494752Y-67029483D01*
X54556069Y-66996002D01*
X54625761Y-67000986D01*
X54657914Y-67018792D01*
X54697410Y-67049098D01*
X54697412Y-67049099D01*
X54843365Y-67109554D01*
X54843369Y-67109555D01*
X54960676Y-67124999D01*
X55437499Y-67124999D01*
X55437500Y-67124998D01*
X55437500Y-66599499D01*
X55457185Y-66532460D01*
X55509989Y-66486705D01*
X55561500Y-66475499D01*
X55713500Y-66475499D01*
X55780539Y-66495184D01*
X55826294Y-66547988D01*
X55837500Y-66599499D01*
X55837500Y-67124999D01*
X56314324Y-67124999D01*
X56431628Y-67109557D01*
X56431633Y-67109555D01*
X56577585Y-67049100D01*
X56702924Y-66952924D01*
X56799100Y-66827586D01*
X56859555Y-66681631D01*
X56867012Y-66625000D01*
X56649303Y-66625000D01*
X56582264Y-66605315D01*
X56536509Y-66552511D01*
X56526565Y-66483353D01*
X56555590Y-66419797D01*
X56573816Y-66402624D01*
X56577839Y-66399536D01*
X56577841Y-66399536D01*
X56703282Y-66303282D01*
X56716821Y-66285638D01*
X56726125Y-66273513D01*
X56782553Y-66232310D01*
X56824500Y-66225000D01*
X56867010Y-66225000D01*
X56867011Y-66224998D01*
X56859558Y-66168377D01*
X56859554Y-66168365D01*
X56851163Y-66148106D01*
X56843694Y-66078637D01*
X56851164Y-66053199D01*
X56851433Y-66052550D01*
X56860044Y-66031762D01*
X56875500Y-65914361D01*
X56875499Y-65635640D01*
X56860044Y-65518238D01*
X56860042Y-65518234D01*
X56851435Y-65497455D01*
X56843965Y-65427986D01*
X56851435Y-65402545D01*
X56860044Y-65381762D01*
X56875500Y-65264361D01*
X56875499Y-64985640D01*
X56860044Y-64868238D01*
X56860042Y-64868234D01*
X56851435Y-64847455D01*
X56843965Y-64777986D01*
X56851435Y-64752545D01*
X56860044Y-64731762D01*
X56875500Y-64614361D01*
X56875499Y-64335640D01*
X56860044Y-64218238D01*
X56860042Y-64218234D01*
X56851435Y-64197455D01*
X56843965Y-64127986D01*
X56851435Y-64102545D01*
X56855733Y-64092169D01*
X56860044Y-64081762D01*
X56875500Y-63964361D01*
X56875499Y-63685640D01*
X56860044Y-63568238D01*
X56860042Y-63568234D01*
X56851435Y-63547455D01*
X56843965Y-63477986D01*
X56851435Y-63452545D01*
X56860044Y-63431762D01*
X56875500Y-63314361D01*
X56875499Y-63035640D01*
X56860044Y-62918238D01*
X56860042Y-62918234D01*
X56851435Y-62897455D01*
X56843965Y-62827986D01*
X56851435Y-62802545D01*
X56860044Y-62781762D01*
X56875500Y-62664361D01*
X56875499Y-62385640D01*
X56860044Y-62268238D01*
X56860042Y-62268234D01*
X56851435Y-62247455D01*
X56843965Y-62177986D01*
X56851435Y-62152545D01*
X56860044Y-62131762D01*
X56875500Y-62014361D01*
X56875499Y-61735640D01*
X56860044Y-61618238D01*
X56860042Y-61618234D01*
X56851435Y-61597455D01*
X56843965Y-61527986D01*
X56851435Y-61502545D01*
X56860044Y-61481762D01*
X56875500Y-61364361D01*
X56875499Y-61085640D01*
X56860044Y-60968238D01*
X56860042Y-60968234D01*
X56851435Y-60947455D01*
X56843965Y-60877986D01*
X56851435Y-60852545D01*
X56860044Y-60831762D01*
X56875500Y-60714361D01*
X56875499Y-60435640D01*
X56875499Y-60435638D01*
X56875499Y-60435636D01*
X56860046Y-60318246D01*
X56860044Y-60318241D01*
X56860044Y-60318238D01*
X56799536Y-60172159D01*
X56703282Y-60046718D01*
X56577841Y-59950464D01*
X56431762Y-59889956D01*
X56418126Y-59888160D01*
X56345813Y-59878640D01*
X56281917Y-59850373D01*
X56243447Y-59792048D01*
X56238000Y-59755701D01*
X56238000Y-56632825D01*
X56257685Y-56565786D01*
X56310489Y-56520031D01*
X56379647Y-56510087D01*
X56443203Y-56539112D01*
X56467539Y-56567728D01*
X56532684Y-56673345D01*
X56656654Y-56797315D01*
X56805875Y-56889356D01*
X56805880Y-56889358D01*
X56972302Y-56944505D01*
X56972309Y-56944506D01*
X57075019Y-56954999D01*
X57212499Y-56954999D01*
X57212500Y-56954998D01*
X57212500Y-54505000D01*
X57075027Y-54505000D01*
X57075012Y-54505001D01*
X56972302Y-54515494D01*
X56805880Y-54570641D01*
X56805875Y-54570643D01*
X56656654Y-54662684D01*
X56532684Y-54786654D01*
X56440643Y-54935875D01*
X56440641Y-54935880D01*
X56385494Y-55102302D01*
X56385493Y-55102309D01*
X56376752Y-55187864D01*
X56350355Y-55252555D01*
X56293174Y-55292706D01*
X56223363Y-55295568D01*
X56163086Y-55260234D01*
X56146009Y-55237263D01*
X56118020Y-55188784D01*
X54861405Y-53932169D01*
X53536818Y-52607582D01*
X53503333Y-52546259D01*
X53500499Y-52519901D01*
X53500499Y-51172129D01*
X53500498Y-51172123D01*
X53500497Y-51172116D01*
X53494091Y-51112517D01*
X53443796Y-50977669D01*
X53443795Y-50977668D01*
X53443793Y-50977664D01*
X53357547Y-50862455D01*
X53357544Y-50862452D01*
X53242335Y-50776206D01*
X53242328Y-50776202D01*
X53147092Y-50740682D01*
X53091158Y-50698811D01*
X53066741Y-50633347D01*
X53081592Y-50565074D01*
X53130997Y-50515668D01*
X53190425Y-50500500D01*
X64547649Y-50500500D01*
X64614688Y-50520185D01*
G37*
%TD.AperFunction*%
%TD*%
M02*
