%TF.GenerationSoftware,KiCad,Pcbnew,8.0.4*%
%TF.CreationDate,2025-01-06T14:24:37+00:00*%
%TF.ProjectId,tssop_20_breakout,7473736f-705f-4323-905f-627265616b6f,rev?*%
%TF.SameCoordinates,Original*%
%TF.FileFunction,Legend,Top*%
%TF.FilePolarity,Positive*%
%FSLAX46Y46*%
G04 Gerber Fmt 4.6, Leading zero omitted, Abs format (unit mm)*
G04 Created by KiCad (PCBNEW 8.0.4) date 2025-01-06 14:24:37*
%MOMM*%
%LPD*%
G01*
G04 APERTURE LIST*
%ADD10C,0.150000*%
%ADD11C,0.120000*%
G04 APERTURE END LIST*
D10*
X61237030Y-51620057D02*
X61284649Y-51572438D01*
X61284649Y-51572438D02*
X61379887Y-51524819D01*
X61379887Y-51524819D02*
X61617982Y-51524819D01*
X61617982Y-51524819D02*
X61713220Y-51572438D01*
X61713220Y-51572438D02*
X61760839Y-51620057D01*
X61760839Y-51620057D02*
X61808458Y-51715295D01*
X61808458Y-51715295D02*
X61808458Y-51810533D01*
X61808458Y-51810533D02*
X61760839Y-51953390D01*
X61760839Y-51953390D02*
X61189411Y-52524819D01*
X61189411Y-52524819D02*
X61808458Y-52524819D01*
X62427506Y-51524819D02*
X62522744Y-51524819D01*
X62522744Y-51524819D02*
X62617982Y-51572438D01*
X62617982Y-51572438D02*
X62665601Y-51620057D01*
X62665601Y-51620057D02*
X62713220Y-51715295D01*
X62713220Y-51715295D02*
X62760839Y-51905771D01*
X62760839Y-51905771D02*
X62760839Y-52143866D01*
X62760839Y-52143866D02*
X62713220Y-52334342D01*
X62713220Y-52334342D02*
X62665601Y-52429580D01*
X62665601Y-52429580D02*
X62617982Y-52477200D01*
X62617982Y-52477200D02*
X62522744Y-52524819D01*
X62522744Y-52524819D02*
X62427506Y-52524819D01*
X62427506Y-52524819D02*
X62332268Y-52477200D01*
X62332268Y-52477200D02*
X62284649Y-52429580D01*
X62284649Y-52429580D02*
X62237030Y-52334342D01*
X62237030Y-52334342D02*
X62189411Y-52143866D01*
X62189411Y-52143866D02*
X62189411Y-51905771D01*
X62189411Y-51905771D02*
X62237030Y-51715295D01*
X62237030Y-51715295D02*
X62284649Y-51620057D01*
X62284649Y-51620057D02*
X62332268Y-51572438D01*
X62332268Y-51572438D02*
X62427506Y-51524819D01*
X61808458Y-75384819D02*
X61237030Y-75384819D01*
X61522744Y-75384819D02*
X61522744Y-74384819D01*
X61522744Y-74384819D02*
X61427506Y-74527676D01*
X61427506Y-74527676D02*
X61332268Y-74622914D01*
X61332268Y-74622914D02*
X61237030Y-74670533D01*
X62760839Y-75384819D02*
X62189411Y-75384819D01*
X62475125Y-75384819D02*
X62475125Y-74384819D01*
X62475125Y-74384819D02*
X62379887Y-74527676D01*
X62379887Y-74527676D02*
X62284649Y-74622914D01*
X62284649Y-74622914D02*
X62189411Y-74670533D01*
X54810588Y-52524819D02*
X54239160Y-52524819D01*
X54524874Y-52524819D02*
X54524874Y-51524819D01*
X54524874Y-51524819D02*
X54429636Y-51667676D01*
X54429636Y-51667676D02*
X54334398Y-51762914D01*
X54334398Y-51762914D02*
X54239160Y-51810533D01*
X54810588Y-75384819D02*
X54239160Y-75384819D01*
X54524874Y-75384819D02*
X54524874Y-74384819D01*
X54524874Y-74384819D02*
X54429636Y-74527676D01*
X54429636Y-74527676D02*
X54334398Y-74622914D01*
X54334398Y-74622914D02*
X54239160Y-74670533D01*
X55429636Y-74384819D02*
X55524874Y-74384819D01*
X55524874Y-74384819D02*
X55620112Y-74432438D01*
X55620112Y-74432438D02*
X55667731Y-74480057D01*
X55667731Y-74480057D02*
X55715350Y-74575295D01*
X55715350Y-74575295D02*
X55762969Y-74765771D01*
X55762969Y-74765771D02*
X55762969Y-75003866D01*
X55762969Y-75003866D02*
X55715350Y-75194342D01*
X55715350Y-75194342D02*
X55667731Y-75289580D01*
X55667731Y-75289580D02*
X55620112Y-75337200D01*
X55620112Y-75337200D02*
X55524874Y-75384819D01*
X55524874Y-75384819D02*
X55429636Y-75384819D01*
X55429636Y-75384819D02*
X55334398Y-75337200D01*
X55334398Y-75337200D02*
X55286779Y-75289580D01*
X55286779Y-75289580D02*
X55239160Y-75194342D01*
X55239160Y-75194342D02*
X55191541Y-75003866D01*
X55191541Y-75003866D02*
X55191541Y-74765771D01*
X55191541Y-74765771D02*
X55239160Y-74575295D01*
X55239160Y-74575295D02*
X55286779Y-74480057D01*
X55286779Y-74480057D02*
X55334398Y-74432438D01*
X55334398Y-74432438D02*
X55429636Y-74384819D01*
D11*
%TO.C,J3*%
X50820000Y-50740000D02*
X52150000Y-50740000D01*
X50820000Y-52070000D02*
X50820000Y-50740000D01*
X50820000Y-53340000D02*
X50820000Y-76260000D01*
X50820000Y-53340000D02*
X53480000Y-53340000D01*
X50820000Y-76260000D02*
X53480000Y-76260000D01*
X53480000Y-53340000D02*
X53480000Y-76260000D01*
%TO.C,U2*%
X58500000Y-60115000D02*
X56300000Y-60115000D01*
X58500000Y-60115000D02*
X60700000Y-60115000D01*
X58500000Y-66885000D02*
X56300000Y-66885000D01*
X58500000Y-66885000D02*
X60700000Y-66885000D01*
X54640000Y-60575000D02*
X54310000Y-60815000D01*
X54310000Y-60335000D01*
X54640000Y-60575000D01*
G36*
X54640000Y-60575000D02*
G01*
X54310000Y-60815000D01*
X54310000Y-60335000D01*
X54640000Y-60575000D01*
G37*
%TO.C,J4*%
X63520000Y-76260000D02*
X63520000Y-50740000D01*
X66180000Y-50740000D02*
X63520000Y-50740000D01*
X66180000Y-76260000D02*
X63520000Y-76260000D01*
X66180000Y-76260000D02*
X66180000Y-50740000D01*
%TO.C,C2*%
X58238748Y-54995000D02*
X58761252Y-54995000D01*
X58238748Y-56465000D02*
X58761252Y-56465000D01*
%TD*%
M02*
