%TF.GenerationSoftware,KiCad,Pcbnew,8.0.4*%
%TF.CreationDate,2025-01-06T14:24:37+00:00*%
%TF.ProjectId,tssop_20_breakout,7473736f-705f-4323-905f-627265616b6f,rev?*%
%TF.SameCoordinates,Original*%
%TF.FileFunction,Copper,L2,Bot*%
%TF.FilePolarity,Positive*%
%FSLAX46Y46*%
G04 Gerber Fmt 4.6, Leading zero omitted, Abs format (unit mm)*
G04 Created by KiCad (PCBNEW 8.0.4) date 2025-01-06 14:24:37*
%MOMM*%
%LPD*%
G01*
G04 APERTURE LIST*
%TA.AperFunction,ComponentPad*%
%ADD10R,1.700000X1.700000*%
%TD*%
%TA.AperFunction,ComponentPad*%
%ADD11O,1.700000X1.700000*%
%TD*%
%TA.AperFunction,ViaPad*%
%ADD12C,0.600000*%
%TD*%
%TA.AperFunction,Conductor*%
%ADD13C,0.500000*%
%TD*%
G04 APERTURE END LIST*
D10*
%TO.P,J3,1,Pin_1*%
%TO.N,Net-(J3-Pin_1)*%
X52150000Y-52070000D03*
D11*
%TO.P,J3,2,Pin_2*%
%TO.N,Net-(J3-Pin_2)*%
X52150000Y-54610000D03*
%TO.P,J3,3,Pin_3*%
%TO.N,Net-(J3-Pin_3)*%
X52150000Y-57150000D03*
%TO.P,J3,4,Pin_4*%
%TO.N,Net-(J3-Pin_4)*%
X52150000Y-59690000D03*
%TO.P,J3,5,Pin_5*%
%TO.N,Net-(J3-Pin_5)*%
X52150000Y-62230000D03*
%TO.P,J3,6,Pin_6*%
%TO.N,Net-(J3-Pin_6)*%
X52150000Y-64770000D03*
%TO.P,J3,7,Pin_7*%
%TO.N,Net-(J3-Pin_7)*%
X52150000Y-67310000D03*
%TO.P,J3,8,Pin_8*%
%TO.N,Net-(J3-Pin_8)*%
X52150000Y-69850000D03*
%TO.P,J3,9,Pin_9*%
%TO.N,Net-(J3-Pin_9)*%
X52150000Y-72390000D03*
%TO.P,J3,10,Pin_10*%
%TO.N,/GND*%
X52150000Y-74930000D03*
%TD*%
%TO.P,J4,1,Pin_1*%
%TO.N,Net-(J4-Pin_1)*%
X64850000Y-74930000D03*
%TO.P,J4,2,Pin_2*%
%TO.N,Net-(J4-Pin_2)*%
X64850000Y-72390000D03*
%TO.P,J4,3,Pin_3*%
%TO.N,Net-(J4-Pin_3)*%
X64850000Y-69850000D03*
%TO.P,J4,4,Pin_4*%
%TO.N,Net-(J4-Pin_4)*%
X64850000Y-67310000D03*
%TO.P,J4,5,Pin_5*%
%TO.N,Net-(J4-Pin_5)*%
X64850000Y-64770000D03*
%TO.P,J4,6,Pin_6*%
%TO.N,Net-(J4-Pin_6)*%
X64850000Y-62230000D03*
%TO.P,J4,7,Pin_7*%
%TO.N,Net-(J4-Pin_7)*%
X64850000Y-59690000D03*
%TO.P,J4,8,Pin_8*%
%TO.N,Net-(J4-Pin_8)*%
X64850000Y-57150000D03*
%TO.P,J4,9,Pin_9*%
%TO.N,Net-(J4-Pin_9)*%
X64850000Y-54610000D03*
%TO.P,J4,10,Pin_10*%
%TO.N,Net-(J4-Pin_10)*%
X64850000Y-52070000D03*
%TD*%
D12*
%TO.N,/GND*%
X57340000Y-57990000D03*
X57340000Y-66460000D03*
%TD*%
D13*
%TO.N,/GND*%
X54115000Y-74930000D02*
X52150000Y-74930000D01*
X57340000Y-71705000D02*
X54115000Y-74930000D01*
X57340000Y-57990000D02*
X57340000Y-71705000D01*
%TD*%
%TA.AperFunction,Conductor*%
%TO.N,/GND*%
G36*
X51176614Y-50520185D02*
G01*
X51222369Y-50572989D01*
X51232313Y-50642147D01*
X51203288Y-50705703D01*
X51152908Y-50740682D01*
X51057671Y-50776202D01*
X51057664Y-50776206D01*
X50942455Y-50862452D01*
X50942452Y-50862455D01*
X50856206Y-50977664D01*
X50856202Y-50977671D01*
X50805908Y-51112517D01*
X50799501Y-51172116D01*
X50799501Y-51172123D01*
X50799500Y-51172135D01*
X50799500Y-52967870D01*
X50799501Y-52967876D01*
X50805908Y-53027483D01*
X50856202Y-53162328D01*
X50856206Y-53162335D01*
X50942452Y-53277544D01*
X50942455Y-53277547D01*
X51057664Y-53363793D01*
X51057671Y-53363797D01*
X51189081Y-53412810D01*
X51245015Y-53454681D01*
X51269432Y-53520145D01*
X51254580Y-53588418D01*
X51233430Y-53616673D01*
X51111503Y-53738600D01*
X50975965Y-53932169D01*
X50975964Y-53932171D01*
X50876098Y-54146335D01*
X50876094Y-54146344D01*
X50814938Y-54374586D01*
X50814936Y-54374596D01*
X50794341Y-54609999D01*
X50794341Y-54610000D01*
X50814936Y-54845403D01*
X50814938Y-54845413D01*
X50876094Y-55073655D01*
X50876096Y-55073659D01*
X50876097Y-55073663D01*
X50975965Y-55287830D01*
X50975967Y-55287834D01*
X51111501Y-55481395D01*
X51111506Y-55481402D01*
X51278597Y-55648493D01*
X51278603Y-55648498D01*
X51464158Y-55778425D01*
X51507783Y-55833002D01*
X51514977Y-55902500D01*
X51483454Y-55964855D01*
X51464158Y-55981575D01*
X51278597Y-56111505D01*
X51111505Y-56278597D01*
X50975965Y-56472169D01*
X50975964Y-56472171D01*
X50876098Y-56686335D01*
X50876094Y-56686344D01*
X50814938Y-56914586D01*
X50814936Y-56914596D01*
X50794341Y-57149999D01*
X50794341Y-57150000D01*
X50814936Y-57385403D01*
X50814938Y-57385413D01*
X50876094Y-57613655D01*
X50876096Y-57613659D01*
X50876097Y-57613663D01*
X50975965Y-57827830D01*
X50975967Y-57827834D01*
X51111501Y-58021395D01*
X51111506Y-58021402D01*
X51278597Y-58188493D01*
X51278603Y-58188498D01*
X51464158Y-58318425D01*
X51507783Y-58373002D01*
X51514977Y-58442500D01*
X51483454Y-58504855D01*
X51464158Y-58521575D01*
X51278597Y-58651505D01*
X51111505Y-58818597D01*
X50975965Y-59012169D01*
X50975964Y-59012171D01*
X50876098Y-59226335D01*
X50876094Y-59226344D01*
X50814938Y-59454586D01*
X50814936Y-59454596D01*
X50794341Y-59689999D01*
X50794341Y-59690000D01*
X50814936Y-59925403D01*
X50814938Y-59925413D01*
X50876094Y-60153655D01*
X50876096Y-60153659D01*
X50876097Y-60153663D01*
X50975965Y-60367830D01*
X50975967Y-60367834D01*
X51111501Y-60561395D01*
X51111506Y-60561402D01*
X51278597Y-60728493D01*
X51278603Y-60728498D01*
X51464158Y-60858425D01*
X51507783Y-60913002D01*
X51514977Y-60982500D01*
X51483454Y-61044855D01*
X51464158Y-61061575D01*
X51278597Y-61191505D01*
X51111505Y-61358597D01*
X50975965Y-61552169D01*
X50975964Y-61552171D01*
X50876098Y-61766335D01*
X50876094Y-61766344D01*
X50814938Y-61994586D01*
X50814936Y-61994596D01*
X50794341Y-62229999D01*
X50794341Y-62230000D01*
X50814936Y-62465403D01*
X50814938Y-62465413D01*
X50876094Y-62693655D01*
X50876096Y-62693659D01*
X50876097Y-62693663D01*
X50975965Y-62907830D01*
X50975967Y-62907834D01*
X51111501Y-63101395D01*
X51111506Y-63101402D01*
X51278597Y-63268493D01*
X51278603Y-63268498D01*
X51464158Y-63398425D01*
X51507783Y-63453002D01*
X51514977Y-63522500D01*
X51483454Y-63584855D01*
X51464158Y-63601575D01*
X51278597Y-63731505D01*
X51111505Y-63898597D01*
X50975965Y-64092169D01*
X50975964Y-64092171D01*
X50876098Y-64306335D01*
X50876094Y-64306344D01*
X50814938Y-64534586D01*
X50814936Y-64534596D01*
X50794341Y-64769999D01*
X50794341Y-64770000D01*
X50814936Y-65005403D01*
X50814938Y-65005413D01*
X50876094Y-65233655D01*
X50876096Y-65233659D01*
X50876097Y-65233663D01*
X50975965Y-65447830D01*
X50975967Y-65447834D01*
X51111501Y-65641395D01*
X51111506Y-65641402D01*
X51278597Y-65808493D01*
X51278603Y-65808498D01*
X51464158Y-65938425D01*
X51507783Y-65993002D01*
X51514977Y-66062500D01*
X51483454Y-66124855D01*
X51464158Y-66141575D01*
X51278597Y-66271505D01*
X51111505Y-66438597D01*
X50975965Y-66632169D01*
X50975964Y-66632171D01*
X50876098Y-66846335D01*
X50876094Y-66846344D01*
X50814938Y-67074586D01*
X50814936Y-67074596D01*
X50794341Y-67309999D01*
X50794341Y-67310000D01*
X50814936Y-67545403D01*
X50814938Y-67545413D01*
X50876094Y-67773655D01*
X50876096Y-67773659D01*
X50876097Y-67773663D01*
X50975965Y-67987830D01*
X50975967Y-67987834D01*
X51111501Y-68181395D01*
X51111506Y-68181402D01*
X51278597Y-68348493D01*
X51278603Y-68348498D01*
X51464158Y-68478425D01*
X51507783Y-68533002D01*
X51514977Y-68602500D01*
X51483454Y-68664855D01*
X51464158Y-68681575D01*
X51278597Y-68811505D01*
X51111505Y-68978597D01*
X50975965Y-69172169D01*
X50975964Y-69172171D01*
X50876098Y-69386335D01*
X50876094Y-69386344D01*
X50814938Y-69614586D01*
X50814936Y-69614596D01*
X50794341Y-69849999D01*
X50794341Y-69850000D01*
X50814936Y-70085403D01*
X50814938Y-70085413D01*
X50876094Y-70313655D01*
X50876096Y-70313659D01*
X50876097Y-70313663D01*
X50975965Y-70527830D01*
X50975967Y-70527834D01*
X51111501Y-70721395D01*
X51111506Y-70721402D01*
X51278597Y-70888493D01*
X51278603Y-70888498D01*
X51464158Y-71018425D01*
X51507783Y-71073002D01*
X51514977Y-71142500D01*
X51483454Y-71204855D01*
X51464158Y-71221575D01*
X51278597Y-71351505D01*
X51111505Y-71518597D01*
X50975965Y-71712169D01*
X50975964Y-71712171D01*
X50876098Y-71926335D01*
X50876094Y-71926344D01*
X50814938Y-72154586D01*
X50814936Y-72154596D01*
X50794341Y-72389999D01*
X50794341Y-72390000D01*
X50814936Y-72625403D01*
X50814938Y-72625413D01*
X50876094Y-72853655D01*
X50876096Y-72853659D01*
X50876097Y-72853663D01*
X50975965Y-73067830D01*
X50975967Y-73067834D01*
X51111501Y-73261395D01*
X51111506Y-73261402D01*
X51278597Y-73428493D01*
X51278603Y-73428498D01*
X51464594Y-73558730D01*
X51508219Y-73613307D01*
X51515413Y-73682805D01*
X51483890Y-73745160D01*
X51464595Y-73761880D01*
X51278922Y-73891890D01*
X51278920Y-73891891D01*
X51111891Y-74058920D01*
X51111886Y-74058926D01*
X50976400Y-74252420D01*
X50976399Y-74252422D01*
X50876570Y-74466507D01*
X50876567Y-74466513D01*
X50819364Y-74679999D01*
X50819364Y-74680000D01*
X51716988Y-74680000D01*
X51684075Y-74737007D01*
X51650000Y-74864174D01*
X51650000Y-74995826D01*
X51684075Y-75122993D01*
X51716988Y-75180000D01*
X50819364Y-75180000D01*
X50876567Y-75393486D01*
X50876570Y-75393492D01*
X50976399Y-75607578D01*
X51111894Y-75801082D01*
X51278917Y-75968105D01*
X51472421Y-76103600D01*
X51686507Y-76203429D01*
X51686516Y-76203433D01*
X51881673Y-76255725D01*
X51941334Y-76292090D01*
X51971863Y-76354937D01*
X51963568Y-76424312D01*
X51919083Y-76478190D01*
X51852531Y-76499465D01*
X51849580Y-76499500D01*
X50624500Y-76499500D01*
X50557461Y-76479815D01*
X50511706Y-76427011D01*
X50500500Y-76375500D01*
X50500500Y-50624500D01*
X50520185Y-50557461D01*
X50572989Y-50511706D01*
X50624500Y-50500500D01*
X51109575Y-50500500D01*
X51176614Y-50520185D01*
G37*
%TD.AperFunction*%
%TA.AperFunction,Conductor*%
G36*
X64614688Y-50520185D02*
G01*
X64660443Y-50572989D01*
X64670387Y-50642147D01*
X64641362Y-50705703D01*
X64582584Y-50743477D01*
X64579742Y-50744275D01*
X64386344Y-50796094D01*
X64386335Y-50796098D01*
X64172171Y-50895964D01*
X64172169Y-50895965D01*
X63978597Y-51031505D01*
X63811505Y-51198597D01*
X63675965Y-51392169D01*
X63675964Y-51392171D01*
X63576098Y-51606335D01*
X63576094Y-51606344D01*
X63514938Y-51834586D01*
X63514936Y-51834596D01*
X63494341Y-52069999D01*
X63494341Y-52070000D01*
X63514936Y-52305403D01*
X63514938Y-52305413D01*
X63576094Y-52533655D01*
X63576096Y-52533659D01*
X63576097Y-52533663D01*
X63675965Y-52747830D01*
X63675967Y-52747834D01*
X63811501Y-52941395D01*
X63811506Y-52941402D01*
X63978597Y-53108493D01*
X63978603Y-53108498D01*
X64164158Y-53238425D01*
X64207783Y-53293002D01*
X64214977Y-53362500D01*
X64183454Y-53424855D01*
X64164158Y-53441575D01*
X63978597Y-53571505D01*
X63811505Y-53738597D01*
X63675965Y-53932169D01*
X63675964Y-53932171D01*
X63576098Y-54146335D01*
X63576094Y-54146344D01*
X63514938Y-54374586D01*
X63514936Y-54374596D01*
X63494341Y-54609999D01*
X63494341Y-54610000D01*
X63514936Y-54845403D01*
X63514938Y-54845413D01*
X63576094Y-55073655D01*
X63576096Y-55073659D01*
X63576097Y-55073663D01*
X63675965Y-55287830D01*
X63675967Y-55287834D01*
X63811501Y-55481395D01*
X63811506Y-55481402D01*
X63978597Y-55648493D01*
X63978603Y-55648498D01*
X64164158Y-55778425D01*
X64207783Y-55833002D01*
X64214977Y-55902500D01*
X64183454Y-55964855D01*
X64164158Y-55981575D01*
X63978597Y-56111505D01*
X63811505Y-56278597D01*
X63675965Y-56472169D01*
X63675964Y-56472171D01*
X63576098Y-56686335D01*
X63576094Y-56686344D01*
X63514938Y-56914586D01*
X63514936Y-56914596D01*
X63494341Y-57149999D01*
X63494341Y-57150000D01*
X63514936Y-57385403D01*
X63514938Y-57385413D01*
X63576094Y-57613655D01*
X63576096Y-57613659D01*
X63576097Y-57613663D01*
X63675965Y-57827830D01*
X63675967Y-57827834D01*
X63811501Y-58021395D01*
X63811506Y-58021402D01*
X63978597Y-58188493D01*
X63978603Y-58188498D01*
X64164158Y-58318425D01*
X64207783Y-58373002D01*
X64214977Y-58442500D01*
X64183454Y-58504855D01*
X64164158Y-58521575D01*
X63978597Y-58651505D01*
X63811505Y-58818597D01*
X63675965Y-59012169D01*
X63675964Y-59012171D01*
X63576098Y-59226335D01*
X63576094Y-59226344D01*
X63514938Y-59454586D01*
X63514936Y-59454596D01*
X63494341Y-59689999D01*
X63494341Y-59690000D01*
X63514936Y-59925403D01*
X63514938Y-59925413D01*
X63576094Y-60153655D01*
X63576096Y-60153659D01*
X63576097Y-60153663D01*
X63675965Y-60367830D01*
X63675967Y-60367834D01*
X63811501Y-60561395D01*
X63811506Y-60561402D01*
X63978597Y-60728493D01*
X63978603Y-60728498D01*
X64164158Y-60858425D01*
X64207783Y-60913002D01*
X64214977Y-60982500D01*
X64183454Y-61044855D01*
X64164158Y-61061575D01*
X63978597Y-61191505D01*
X63811505Y-61358597D01*
X63675965Y-61552169D01*
X63675964Y-61552171D01*
X63576098Y-61766335D01*
X63576094Y-61766344D01*
X63514938Y-61994586D01*
X63514936Y-61994596D01*
X63494341Y-62229999D01*
X63494341Y-62230000D01*
X63514936Y-62465403D01*
X63514938Y-62465413D01*
X63576094Y-62693655D01*
X63576096Y-62693659D01*
X63576097Y-62693663D01*
X63675965Y-62907830D01*
X63675967Y-62907834D01*
X63811501Y-63101395D01*
X63811506Y-63101402D01*
X63978597Y-63268493D01*
X63978603Y-63268498D01*
X64164158Y-63398425D01*
X64207783Y-63453002D01*
X64214977Y-63522500D01*
X64183454Y-63584855D01*
X64164158Y-63601575D01*
X63978597Y-63731505D01*
X63811505Y-63898597D01*
X63675965Y-64092169D01*
X63675964Y-64092171D01*
X63576098Y-64306335D01*
X63576094Y-64306344D01*
X63514938Y-64534586D01*
X63514936Y-64534596D01*
X63494341Y-64769999D01*
X63494341Y-64770000D01*
X63514936Y-65005403D01*
X63514938Y-65005413D01*
X63576094Y-65233655D01*
X63576096Y-65233659D01*
X63576097Y-65233663D01*
X63675965Y-65447830D01*
X63675967Y-65447834D01*
X63811501Y-65641395D01*
X63811506Y-65641402D01*
X63978597Y-65808493D01*
X63978603Y-65808498D01*
X64164158Y-65938425D01*
X64207783Y-65993002D01*
X64214977Y-66062500D01*
X64183454Y-66124855D01*
X64164158Y-66141575D01*
X63978597Y-66271505D01*
X63811505Y-66438597D01*
X63675965Y-66632169D01*
X63675964Y-66632171D01*
X63576098Y-66846335D01*
X63576094Y-66846344D01*
X63514938Y-67074586D01*
X63514936Y-67074596D01*
X63494341Y-67309999D01*
X63494341Y-67310000D01*
X63514936Y-67545403D01*
X63514938Y-67545413D01*
X63576094Y-67773655D01*
X63576096Y-67773659D01*
X63576097Y-67773663D01*
X63675965Y-67987830D01*
X63675967Y-67987834D01*
X63811501Y-68181395D01*
X63811506Y-68181402D01*
X63978597Y-68348493D01*
X63978603Y-68348498D01*
X64164158Y-68478425D01*
X64207783Y-68533002D01*
X64214977Y-68602500D01*
X64183454Y-68664855D01*
X64164158Y-68681575D01*
X63978597Y-68811505D01*
X63811505Y-68978597D01*
X63675965Y-69172169D01*
X63675964Y-69172171D01*
X63576098Y-69386335D01*
X63576094Y-69386344D01*
X63514938Y-69614586D01*
X63514936Y-69614596D01*
X63494341Y-69849999D01*
X63494341Y-69850000D01*
X63514936Y-70085403D01*
X63514938Y-70085413D01*
X63576094Y-70313655D01*
X63576096Y-70313659D01*
X63576097Y-70313663D01*
X63675965Y-70527830D01*
X63675967Y-70527834D01*
X63811501Y-70721395D01*
X63811506Y-70721402D01*
X63978597Y-70888493D01*
X63978603Y-70888498D01*
X64164158Y-71018425D01*
X64207783Y-71073002D01*
X64214977Y-71142500D01*
X64183454Y-71204855D01*
X64164158Y-71221575D01*
X63978597Y-71351505D01*
X63811505Y-71518597D01*
X63675965Y-71712169D01*
X63675964Y-71712171D01*
X63576098Y-71926335D01*
X63576094Y-71926344D01*
X63514938Y-72154586D01*
X63514936Y-72154596D01*
X63494341Y-72389999D01*
X63494341Y-72390000D01*
X63514936Y-72625403D01*
X63514938Y-72625413D01*
X63576094Y-72853655D01*
X63576096Y-72853659D01*
X63576097Y-72853663D01*
X63675965Y-73067830D01*
X63675967Y-73067834D01*
X63811501Y-73261395D01*
X63811506Y-73261402D01*
X63978597Y-73428493D01*
X63978603Y-73428498D01*
X64164158Y-73558425D01*
X64207783Y-73613002D01*
X64214977Y-73682500D01*
X64183454Y-73744855D01*
X64164158Y-73761575D01*
X63978597Y-73891505D01*
X63811505Y-74058597D01*
X63675965Y-74252169D01*
X63675964Y-74252171D01*
X63576098Y-74466335D01*
X63576094Y-74466344D01*
X63514938Y-74694586D01*
X63514936Y-74694596D01*
X63494341Y-74929999D01*
X63494341Y-74930000D01*
X63514936Y-75165403D01*
X63514938Y-75165413D01*
X63576094Y-75393655D01*
X63576096Y-75393659D01*
X63576097Y-75393663D01*
X63675847Y-75607578D01*
X63675965Y-75607830D01*
X63675967Y-75607834D01*
X63784281Y-75762521D01*
X63811505Y-75801401D01*
X63978599Y-75968495D01*
X64075384Y-76036265D01*
X64172165Y-76104032D01*
X64172167Y-76104033D01*
X64172170Y-76104035D01*
X64386337Y-76203903D01*
X64386343Y-76203904D01*
X64386344Y-76203905D01*
X64579742Y-76255725D01*
X64639403Y-76292090D01*
X64669932Y-76354936D01*
X64661638Y-76424312D01*
X64617152Y-76478190D01*
X64550601Y-76499465D01*
X64547649Y-76499500D01*
X52450420Y-76499500D01*
X52383381Y-76479815D01*
X52337626Y-76427011D01*
X52327682Y-76357853D01*
X52356707Y-76294297D01*
X52415485Y-76256523D01*
X52418327Y-76255725D01*
X52613483Y-76203433D01*
X52613492Y-76203429D01*
X52827578Y-76103600D01*
X53021082Y-75968105D01*
X53188105Y-75801082D01*
X53323600Y-75607578D01*
X53423429Y-75393492D01*
X53423432Y-75393486D01*
X53480636Y-75180000D01*
X52583012Y-75180000D01*
X52615925Y-75122993D01*
X52650000Y-74995826D01*
X52650000Y-74864174D01*
X52615925Y-74737007D01*
X52583012Y-74680000D01*
X53480636Y-74680000D01*
X53480635Y-74679999D01*
X53423432Y-74466513D01*
X53423429Y-74466507D01*
X53323600Y-74252422D01*
X53323599Y-74252420D01*
X53188113Y-74058926D01*
X53188108Y-74058920D01*
X53021078Y-73891890D01*
X52835405Y-73761879D01*
X52791780Y-73707302D01*
X52784588Y-73637804D01*
X52816110Y-73575449D01*
X52835406Y-73558730D01*
X52835842Y-73558425D01*
X53021401Y-73428495D01*
X53188495Y-73261401D01*
X53324035Y-73067830D01*
X53423903Y-72853663D01*
X53485063Y-72625408D01*
X53505659Y-72390000D01*
X53485063Y-72154592D01*
X53423903Y-71926337D01*
X53324035Y-71712171D01*
X53188495Y-71518599D01*
X53188494Y-71518597D01*
X53021402Y-71351506D01*
X53021396Y-71351501D01*
X52835842Y-71221575D01*
X52792217Y-71166998D01*
X52785023Y-71097500D01*
X52816546Y-71035145D01*
X52835842Y-71018425D01*
X52858026Y-71002891D01*
X53021401Y-70888495D01*
X53188495Y-70721401D01*
X53324035Y-70527830D01*
X53423903Y-70313663D01*
X53485063Y-70085408D01*
X53505659Y-69850000D01*
X53485063Y-69614592D01*
X53423903Y-69386337D01*
X53324035Y-69172171D01*
X53188495Y-68978599D01*
X53188494Y-68978597D01*
X53021402Y-68811506D01*
X53021396Y-68811501D01*
X52835842Y-68681575D01*
X52792217Y-68626998D01*
X52785023Y-68557500D01*
X52816546Y-68495145D01*
X52835842Y-68478425D01*
X52858026Y-68462891D01*
X53021401Y-68348495D01*
X53188495Y-68181401D01*
X53324035Y-67987830D01*
X53423903Y-67773663D01*
X53485063Y-67545408D01*
X53505659Y-67310000D01*
X53485063Y-67074592D01*
X53423903Y-66846337D01*
X53324035Y-66632171D01*
X53188495Y-66438599D01*
X53188494Y-66438597D01*
X53021402Y-66271506D01*
X53021396Y-66271501D01*
X52835842Y-66141575D01*
X52792217Y-66086998D01*
X52785023Y-66017500D01*
X52816546Y-65955145D01*
X52835842Y-65938425D01*
X52858026Y-65922891D01*
X53021401Y-65808495D01*
X53188495Y-65641401D01*
X53324035Y-65447830D01*
X53423903Y-65233663D01*
X53485063Y-65005408D01*
X53505659Y-64770000D01*
X53485063Y-64534592D01*
X53423903Y-64306337D01*
X53324035Y-64092171D01*
X53188495Y-63898599D01*
X53188494Y-63898597D01*
X53021402Y-63731506D01*
X53021396Y-63731501D01*
X52835842Y-63601575D01*
X52792217Y-63546998D01*
X52785023Y-63477500D01*
X52816546Y-63415145D01*
X52835842Y-63398425D01*
X52858026Y-63382891D01*
X53021401Y-63268495D01*
X53188495Y-63101401D01*
X53324035Y-62907830D01*
X53423903Y-62693663D01*
X53485063Y-62465408D01*
X53505659Y-62230000D01*
X53485063Y-61994592D01*
X53423903Y-61766337D01*
X53324035Y-61552171D01*
X53188495Y-61358599D01*
X53188494Y-61358597D01*
X53021402Y-61191506D01*
X53021396Y-61191501D01*
X52835842Y-61061575D01*
X52792217Y-61006998D01*
X52785023Y-60937500D01*
X52816546Y-60875145D01*
X52835842Y-60858425D01*
X52858026Y-60842891D01*
X53021401Y-60728495D01*
X53188495Y-60561401D01*
X53324035Y-60367830D01*
X53423903Y-60153663D01*
X53485063Y-59925408D01*
X53505659Y-59690000D01*
X53485063Y-59454592D01*
X53423903Y-59226337D01*
X53324035Y-59012171D01*
X53188495Y-58818599D01*
X53188494Y-58818597D01*
X53021402Y-58651506D01*
X53021396Y-58651501D01*
X52835842Y-58521575D01*
X52792217Y-58466998D01*
X52785023Y-58397500D01*
X52816546Y-58335145D01*
X52835842Y-58318425D01*
X52858026Y-58302891D01*
X53021401Y-58188495D01*
X53188495Y-58021401D01*
X53324035Y-57827830D01*
X53423903Y-57613663D01*
X53485063Y-57385408D01*
X53505659Y-57150000D01*
X53485063Y-56914592D01*
X53423903Y-56686337D01*
X53324035Y-56472171D01*
X53188495Y-56278599D01*
X53188494Y-56278597D01*
X53021402Y-56111506D01*
X53021396Y-56111501D01*
X52835842Y-55981575D01*
X52792217Y-55926998D01*
X52785023Y-55857500D01*
X52816546Y-55795145D01*
X52835842Y-55778425D01*
X52858026Y-55762891D01*
X53021401Y-55648495D01*
X53188495Y-55481401D01*
X53324035Y-55287830D01*
X53423903Y-55073663D01*
X53485063Y-54845408D01*
X53505659Y-54610000D01*
X53485063Y-54374592D01*
X53423903Y-54146337D01*
X53324035Y-53932171D01*
X53188495Y-53738599D01*
X53066567Y-53616671D01*
X53033084Y-53555351D01*
X53038068Y-53485659D01*
X53079939Y-53429725D01*
X53110915Y-53412810D01*
X53242331Y-53363796D01*
X53357546Y-53277546D01*
X53443796Y-53162331D01*
X53494091Y-53027483D01*
X53500500Y-52967873D01*
X53500499Y-51172128D01*
X53494091Y-51112517D01*
X53443796Y-50977669D01*
X53443795Y-50977668D01*
X53443793Y-50977664D01*
X53357547Y-50862455D01*
X53357544Y-50862452D01*
X53242335Y-50776206D01*
X53242328Y-50776202D01*
X53147092Y-50740682D01*
X53091158Y-50698811D01*
X53066741Y-50633347D01*
X53081592Y-50565074D01*
X53130997Y-50515668D01*
X53190425Y-50500500D01*
X64547649Y-50500500D01*
X64614688Y-50520185D01*
G37*
%TD.AperFunction*%
%TD*%
M02*
