%TF.GenerationSoftware,KiCad,Pcbnew,8.0.4*%
%TF.CreationDate,2025-01-07T17:55:23+00:00*%
%TF.ProjectId,ap3372s_usbpd,61703333-3732-4735-9f75-736270642e6b,rev?*%
%TF.SameCoordinates,Original*%
%TF.FileFunction,Legend,Top*%
%TF.FilePolarity,Positive*%
%FSLAX46Y46*%
G04 Gerber Fmt 4.6, Leading zero omitted, Abs format (unit mm)*
G04 Created by KiCad (PCBNEW 8.0.4) date 2025-01-07 17:55:23*
%MOMM*%
%LPD*%
G01*
G04 APERTURE LIST*
%ADD10C,0.200000*%
%ADD11C,0.150000*%
%ADD12C,0.120000*%
G04 APERTURE END LIST*
D10*
X80014286Y-70319600D02*
X80157143Y-70367219D01*
X80157143Y-70367219D02*
X80395238Y-70367219D01*
X80395238Y-70367219D02*
X80490476Y-70319600D01*
X80490476Y-70319600D02*
X80538095Y-70271980D01*
X80538095Y-70271980D02*
X80585714Y-70176742D01*
X80585714Y-70176742D02*
X80585714Y-70081504D01*
X80585714Y-70081504D02*
X80538095Y-69986266D01*
X80538095Y-69986266D02*
X80490476Y-69938647D01*
X80490476Y-69938647D02*
X80395238Y-69891028D01*
X80395238Y-69891028D02*
X80204762Y-69843409D01*
X80204762Y-69843409D02*
X80109524Y-69795790D01*
X80109524Y-69795790D02*
X80061905Y-69748171D01*
X80061905Y-69748171D02*
X80014286Y-69652933D01*
X80014286Y-69652933D02*
X80014286Y-69557695D01*
X80014286Y-69557695D02*
X80061905Y-69462457D01*
X80061905Y-69462457D02*
X80109524Y-69414838D01*
X80109524Y-69414838D02*
X80204762Y-69367219D01*
X80204762Y-69367219D02*
X80442857Y-69367219D01*
X80442857Y-69367219D02*
X80585714Y-69414838D01*
X81585714Y-70271980D02*
X81538095Y-70319600D01*
X81538095Y-70319600D02*
X81395238Y-70367219D01*
X81395238Y-70367219D02*
X81300000Y-70367219D01*
X81300000Y-70367219D02*
X81157143Y-70319600D01*
X81157143Y-70319600D02*
X81061905Y-70224361D01*
X81061905Y-70224361D02*
X81014286Y-70129123D01*
X81014286Y-70129123D02*
X80966667Y-69938647D01*
X80966667Y-69938647D02*
X80966667Y-69795790D01*
X80966667Y-69795790D02*
X81014286Y-69605314D01*
X81014286Y-69605314D02*
X81061905Y-69510076D01*
X81061905Y-69510076D02*
X81157143Y-69414838D01*
X81157143Y-69414838D02*
X81300000Y-69367219D01*
X81300000Y-69367219D02*
X81395238Y-69367219D01*
X81395238Y-69367219D02*
X81538095Y-69414838D01*
X81538095Y-69414838D02*
X81585714Y-69462457D01*
X61798095Y-69414838D02*
X61702857Y-69367219D01*
X61702857Y-69367219D02*
X61560000Y-69367219D01*
X61560000Y-69367219D02*
X61417143Y-69414838D01*
X61417143Y-69414838D02*
X61321905Y-69510076D01*
X61321905Y-69510076D02*
X61274286Y-69605314D01*
X61274286Y-69605314D02*
X61226667Y-69795790D01*
X61226667Y-69795790D02*
X61226667Y-69938647D01*
X61226667Y-69938647D02*
X61274286Y-70129123D01*
X61274286Y-70129123D02*
X61321905Y-70224361D01*
X61321905Y-70224361D02*
X61417143Y-70319600D01*
X61417143Y-70319600D02*
X61560000Y-70367219D01*
X61560000Y-70367219D02*
X61655238Y-70367219D01*
X61655238Y-70367219D02*
X61798095Y-70319600D01*
X61798095Y-70319600D02*
X61845714Y-70271980D01*
X61845714Y-70271980D02*
X61845714Y-69938647D01*
X61845714Y-69938647D02*
X61655238Y-69938647D01*
X62274286Y-70367219D02*
X62274286Y-69367219D01*
X62274286Y-69367219D02*
X62845714Y-70367219D01*
X62845714Y-70367219D02*
X62845714Y-69367219D01*
X63321905Y-70367219D02*
X63321905Y-69367219D01*
X63321905Y-69367219D02*
X63560000Y-69367219D01*
X63560000Y-69367219D02*
X63702857Y-69414838D01*
X63702857Y-69414838D02*
X63798095Y-69510076D01*
X63798095Y-69510076D02*
X63845714Y-69605314D01*
X63845714Y-69605314D02*
X63893333Y-69795790D01*
X63893333Y-69795790D02*
X63893333Y-69938647D01*
X63893333Y-69938647D02*
X63845714Y-70129123D01*
X63845714Y-70129123D02*
X63798095Y-70224361D01*
X63798095Y-70224361D02*
X63702857Y-70319600D01*
X63702857Y-70319600D02*
X63560000Y-70367219D01*
X63560000Y-70367219D02*
X63321905Y-70367219D01*
X83098095Y-69414838D02*
X83002857Y-69367219D01*
X83002857Y-69367219D02*
X82860000Y-69367219D01*
X82860000Y-69367219D02*
X82717143Y-69414838D01*
X82717143Y-69414838D02*
X82621905Y-69510076D01*
X82621905Y-69510076D02*
X82574286Y-69605314D01*
X82574286Y-69605314D02*
X82526667Y-69795790D01*
X82526667Y-69795790D02*
X82526667Y-69938647D01*
X82526667Y-69938647D02*
X82574286Y-70129123D01*
X82574286Y-70129123D02*
X82621905Y-70224361D01*
X82621905Y-70224361D02*
X82717143Y-70319600D01*
X82717143Y-70319600D02*
X82860000Y-70367219D01*
X82860000Y-70367219D02*
X82955238Y-70367219D01*
X82955238Y-70367219D02*
X83098095Y-70319600D01*
X83098095Y-70319600D02*
X83145714Y-70271980D01*
X83145714Y-70271980D02*
X83145714Y-69938647D01*
X83145714Y-69938647D02*
X82955238Y-69938647D01*
X83574286Y-70367219D02*
X83574286Y-69367219D01*
X83574286Y-69367219D02*
X84145714Y-70367219D01*
X84145714Y-70367219D02*
X84145714Y-69367219D01*
X84621905Y-70367219D02*
X84621905Y-69367219D01*
X84621905Y-69367219D02*
X84860000Y-69367219D01*
X84860000Y-69367219D02*
X85002857Y-69414838D01*
X85002857Y-69414838D02*
X85098095Y-69510076D01*
X85098095Y-69510076D02*
X85145714Y-69605314D01*
X85145714Y-69605314D02*
X85193333Y-69795790D01*
X85193333Y-69795790D02*
X85193333Y-69938647D01*
X85193333Y-69938647D02*
X85145714Y-70129123D01*
X85145714Y-70129123D02*
X85098095Y-70224361D01*
X85098095Y-70224361D02*
X85002857Y-70319600D01*
X85002857Y-70319600D02*
X84860000Y-70367219D01*
X84860000Y-70367219D02*
X84621905Y-70367219D01*
X77494286Y-70319600D02*
X77637143Y-70367219D01*
X77637143Y-70367219D02*
X77875238Y-70367219D01*
X77875238Y-70367219D02*
X77970476Y-70319600D01*
X77970476Y-70319600D02*
X78018095Y-70271980D01*
X78018095Y-70271980D02*
X78065714Y-70176742D01*
X78065714Y-70176742D02*
X78065714Y-70081504D01*
X78065714Y-70081504D02*
X78018095Y-69986266D01*
X78018095Y-69986266D02*
X77970476Y-69938647D01*
X77970476Y-69938647D02*
X77875238Y-69891028D01*
X77875238Y-69891028D02*
X77684762Y-69843409D01*
X77684762Y-69843409D02*
X77589524Y-69795790D01*
X77589524Y-69795790D02*
X77541905Y-69748171D01*
X77541905Y-69748171D02*
X77494286Y-69652933D01*
X77494286Y-69652933D02*
X77494286Y-69557695D01*
X77494286Y-69557695D02*
X77541905Y-69462457D01*
X77541905Y-69462457D02*
X77589524Y-69414838D01*
X77589524Y-69414838D02*
X77684762Y-69367219D01*
X77684762Y-69367219D02*
X77922857Y-69367219D01*
X77922857Y-69367219D02*
X78065714Y-69414838D01*
X78494286Y-70367219D02*
X78494286Y-69367219D01*
X78494286Y-69367219D02*
X78732381Y-69367219D01*
X78732381Y-69367219D02*
X78875238Y-69414838D01*
X78875238Y-69414838D02*
X78970476Y-69510076D01*
X78970476Y-69510076D02*
X79018095Y-69605314D01*
X79018095Y-69605314D02*
X79065714Y-69795790D01*
X79065714Y-69795790D02*
X79065714Y-69938647D01*
X79065714Y-69938647D02*
X79018095Y-70129123D01*
X79018095Y-70129123D02*
X78970476Y-70224361D01*
X78970476Y-70224361D02*
X78875238Y-70319600D01*
X78875238Y-70319600D02*
X78732381Y-70367219D01*
X78732381Y-70367219D02*
X78494286Y-70367219D01*
X64818095Y-70367219D02*
X64818095Y-69367219D01*
X64818095Y-69367219D02*
X65056190Y-69367219D01*
X65056190Y-69367219D02*
X65199047Y-69414838D01*
X65199047Y-69414838D02*
X65294285Y-69510076D01*
X65294285Y-69510076D02*
X65341904Y-69605314D01*
X65341904Y-69605314D02*
X65389523Y-69795790D01*
X65389523Y-69795790D02*
X65389523Y-69938647D01*
X65389523Y-69938647D02*
X65341904Y-70129123D01*
X65341904Y-70129123D02*
X65294285Y-70224361D01*
X65294285Y-70224361D02*
X65199047Y-70319600D01*
X65199047Y-70319600D02*
X65056190Y-70367219D01*
X65056190Y-70367219D02*
X64818095Y-70367219D01*
X65818095Y-70367219D02*
X65818095Y-69367219D01*
X65818095Y-69367219D02*
X66199047Y-69367219D01*
X66199047Y-69367219D02*
X66294285Y-69414838D01*
X66294285Y-69414838D02*
X66341904Y-69462457D01*
X66341904Y-69462457D02*
X66389523Y-69557695D01*
X66389523Y-69557695D02*
X66389523Y-69700552D01*
X66389523Y-69700552D02*
X66341904Y-69795790D01*
X66341904Y-69795790D02*
X66294285Y-69843409D01*
X66294285Y-69843409D02*
X66199047Y-69891028D01*
X66199047Y-69891028D02*
X65818095Y-69891028D01*
X89582707Y-61339838D02*
X89487469Y-61292219D01*
X89487469Y-61292219D02*
X89344612Y-61292219D01*
X89344612Y-61292219D02*
X89201755Y-61339838D01*
X89201755Y-61339838D02*
X89106517Y-61435076D01*
X89106517Y-61435076D02*
X89058898Y-61530314D01*
X89058898Y-61530314D02*
X89011279Y-61720790D01*
X89011279Y-61720790D02*
X89011279Y-61863647D01*
X89011279Y-61863647D02*
X89058898Y-62054123D01*
X89058898Y-62054123D02*
X89106517Y-62149361D01*
X89106517Y-62149361D02*
X89201755Y-62244600D01*
X89201755Y-62244600D02*
X89344612Y-62292219D01*
X89344612Y-62292219D02*
X89439850Y-62292219D01*
X89439850Y-62292219D02*
X89582707Y-62244600D01*
X89582707Y-62244600D02*
X89630326Y-62196980D01*
X89630326Y-62196980D02*
X89630326Y-61863647D01*
X89630326Y-61863647D02*
X89439850Y-61863647D01*
X90058898Y-62292219D02*
X90058898Y-61292219D01*
X90058898Y-61292219D02*
X90630326Y-62292219D01*
X90630326Y-62292219D02*
X90630326Y-61292219D01*
X91106517Y-62292219D02*
X91106517Y-61292219D01*
X91106517Y-61292219D02*
X91344612Y-61292219D01*
X91344612Y-61292219D02*
X91487469Y-61339838D01*
X91487469Y-61339838D02*
X91582707Y-61435076D01*
X91582707Y-61435076D02*
X91630326Y-61530314D01*
X91630326Y-61530314D02*
X91677945Y-61720790D01*
X91677945Y-61720790D02*
X91677945Y-61863647D01*
X91677945Y-61863647D02*
X91630326Y-62054123D01*
X91630326Y-62054123D02*
X91582707Y-62149361D01*
X91582707Y-62149361D02*
X91487469Y-62244600D01*
X91487469Y-62244600D02*
X91344612Y-62292219D01*
X91344612Y-62292219D02*
X91106517Y-62292219D01*
X88249374Y-56132219D02*
X88582707Y-57132219D01*
X88582707Y-57132219D02*
X88916040Y-56132219D01*
X89439850Y-56132219D02*
X89630326Y-56132219D01*
X89630326Y-56132219D02*
X89725564Y-56179838D01*
X89725564Y-56179838D02*
X89820802Y-56275076D01*
X89820802Y-56275076D02*
X89868421Y-56465552D01*
X89868421Y-56465552D02*
X89868421Y-56798885D01*
X89868421Y-56798885D02*
X89820802Y-56989361D01*
X89820802Y-56989361D02*
X89725564Y-57084600D01*
X89725564Y-57084600D02*
X89630326Y-57132219D01*
X89630326Y-57132219D02*
X89439850Y-57132219D01*
X89439850Y-57132219D02*
X89344612Y-57084600D01*
X89344612Y-57084600D02*
X89249374Y-56989361D01*
X89249374Y-56989361D02*
X89201755Y-56798885D01*
X89201755Y-56798885D02*
X89201755Y-56465552D01*
X89201755Y-56465552D02*
X89249374Y-56275076D01*
X89249374Y-56275076D02*
X89344612Y-56179838D01*
X89344612Y-56179838D02*
X89439850Y-56132219D01*
X90296993Y-56132219D02*
X90296993Y-56941742D01*
X90296993Y-56941742D02*
X90344612Y-57036980D01*
X90344612Y-57036980D02*
X90392231Y-57084600D01*
X90392231Y-57084600D02*
X90487469Y-57132219D01*
X90487469Y-57132219D02*
X90677945Y-57132219D01*
X90677945Y-57132219D02*
X90773183Y-57084600D01*
X90773183Y-57084600D02*
X90820802Y-57036980D01*
X90820802Y-57036980D02*
X90868421Y-56941742D01*
X90868421Y-56941742D02*
X90868421Y-56132219D01*
X91201755Y-56132219D02*
X91773183Y-56132219D01*
X91487469Y-57132219D02*
X91487469Y-56132219D01*
X88249374Y-66372219D02*
X88582707Y-67372219D01*
X88582707Y-67372219D02*
X88916040Y-66372219D01*
X89439850Y-66372219D02*
X89630326Y-66372219D01*
X89630326Y-66372219D02*
X89725564Y-66419838D01*
X89725564Y-66419838D02*
X89820802Y-66515076D01*
X89820802Y-66515076D02*
X89868421Y-66705552D01*
X89868421Y-66705552D02*
X89868421Y-67038885D01*
X89868421Y-67038885D02*
X89820802Y-67229361D01*
X89820802Y-67229361D02*
X89725564Y-67324600D01*
X89725564Y-67324600D02*
X89630326Y-67372219D01*
X89630326Y-67372219D02*
X89439850Y-67372219D01*
X89439850Y-67372219D02*
X89344612Y-67324600D01*
X89344612Y-67324600D02*
X89249374Y-67229361D01*
X89249374Y-67229361D02*
X89201755Y-67038885D01*
X89201755Y-67038885D02*
X89201755Y-66705552D01*
X89201755Y-66705552D02*
X89249374Y-66515076D01*
X89249374Y-66515076D02*
X89344612Y-66419838D01*
X89344612Y-66419838D02*
X89439850Y-66372219D01*
X90296993Y-66372219D02*
X90296993Y-67181742D01*
X90296993Y-67181742D02*
X90344612Y-67276980D01*
X90344612Y-67276980D02*
X90392231Y-67324600D01*
X90392231Y-67324600D02*
X90487469Y-67372219D01*
X90487469Y-67372219D02*
X90677945Y-67372219D01*
X90677945Y-67372219D02*
X90773183Y-67324600D01*
X90773183Y-67324600D02*
X90820802Y-67276980D01*
X90820802Y-67276980D02*
X90868421Y-67181742D01*
X90868421Y-67181742D02*
X90868421Y-66372219D01*
X91201755Y-66372219D02*
X91773183Y-66372219D01*
X91487469Y-67372219D02*
X91487469Y-66372219D01*
X89582707Y-58799838D02*
X89487469Y-58752219D01*
X89487469Y-58752219D02*
X89344612Y-58752219D01*
X89344612Y-58752219D02*
X89201755Y-58799838D01*
X89201755Y-58799838D02*
X89106517Y-58895076D01*
X89106517Y-58895076D02*
X89058898Y-58990314D01*
X89058898Y-58990314D02*
X89011279Y-59180790D01*
X89011279Y-59180790D02*
X89011279Y-59323647D01*
X89011279Y-59323647D02*
X89058898Y-59514123D01*
X89058898Y-59514123D02*
X89106517Y-59609361D01*
X89106517Y-59609361D02*
X89201755Y-59704600D01*
X89201755Y-59704600D02*
X89344612Y-59752219D01*
X89344612Y-59752219D02*
X89439850Y-59752219D01*
X89439850Y-59752219D02*
X89582707Y-59704600D01*
X89582707Y-59704600D02*
X89630326Y-59656980D01*
X89630326Y-59656980D02*
X89630326Y-59323647D01*
X89630326Y-59323647D02*
X89439850Y-59323647D01*
X90058898Y-59752219D02*
X90058898Y-58752219D01*
X90058898Y-58752219D02*
X90630326Y-59752219D01*
X90630326Y-59752219D02*
X90630326Y-58752219D01*
X91106517Y-59752219D02*
X91106517Y-58752219D01*
X91106517Y-58752219D02*
X91344612Y-58752219D01*
X91344612Y-58752219D02*
X91487469Y-58799838D01*
X91487469Y-58799838D02*
X91582707Y-58895076D01*
X91582707Y-58895076D02*
X91630326Y-58990314D01*
X91630326Y-58990314D02*
X91677945Y-59180790D01*
X91677945Y-59180790D02*
X91677945Y-59323647D01*
X91677945Y-59323647D02*
X91630326Y-59514123D01*
X91630326Y-59514123D02*
X91582707Y-59609361D01*
X91582707Y-59609361D02*
X91487469Y-59704600D01*
X91487469Y-59704600D02*
X91344612Y-59752219D01*
X91344612Y-59752219D02*
X91106517Y-59752219D01*
X67334286Y-70367219D02*
X67334286Y-69367219D01*
X67334286Y-69367219D02*
X67572381Y-69367219D01*
X67572381Y-69367219D02*
X67715238Y-69414838D01*
X67715238Y-69414838D02*
X67810476Y-69510076D01*
X67810476Y-69510076D02*
X67858095Y-69605314D01*
X67858095Y-69605314D02*
X67905714Y-69795790D01*
X67905714Y-69795790D02*
X67905714Y-69938647D01*
X67905714Y-69938647D02*
X67858095Y-70129123D01*
X67858095Y-70129123D02*
X67810476Y-70224361D01*
X67810476Y-70224361D02*
X67715238Y-70319600D01*
X67715238Y-70319600D02*
X67572381Y-70367219D01*
X67572381Y-70367219D02*
X67334286Y-70367219D01*
X68334286Y-70367219D02*
X68334286Y-69367219D01*
X68334286Y-69367219D02*
X68905714Y-70367219D01*
X68905714Y-70367219D02*
X68905714Y-69367219D01*
X89582707Y-63879838D02*
X89487469Y-63832219D01*
X89487469Y-63832219D02*
X89344612Y-63832219D01*
X89344612Y-63832219D02*
X89201755Y-63879838D01*
X89201755Y-63879838D02*
X89106517Y-63975076D01*
X89106517Y-63975076D02*
X89058898Y-64070314D01*
X89058898Y-64070314D02*
X89011279Y-64260790D01*
X89011279Y-64260790D02*
X89011279Y-64403647D01*
X89011279Y-64403647D02*
X89058898Y-64594123D01*
X89058898Y-64594123D02*
X89106517Y-64689361D01*
X89106517Y-64689361D02*
X89201755Y-64784600D01*
X89201755Y-64784600D02*
X89344612Y-64832219D01*
X89344612Y-64832219D02*
X89439850Y-64832219D01*
X89439850Y-64832219D02*
X89582707Y-64784600D01*
X89582707Y-64784600D02*
X89630326Y-64736980D01*
X89630326Y-64736980D02*
X89630326Y-64403647D01*
X89630326Y-64403647D02*
X89439850Y-64403647D01*
X90058898Y-64832219D02*
X90058898Y-63832219D01*
X90058898Y-63832219D02*
X90630326Y-64832219D01*
X90630326Y-64832219D02*
X90630326Y-63832219D01*
X91106517Y-64832219D02*
X91106517Y-63832219D01*
X91106517Y-63832219D02*
X91344612Y-63832219D01*
X91344612Y-63832219D02*
X91487469Y-63879838D01*
X91487469Y-63879838D02*
X91582707Y-63975076D01*
X91582707Y-63975076D02*
X91630326Y-64070314D01*
X91630326Y-64070314D02*
X91677945Y-64260790D01*
X91677945Y-64260790D02*
X91677945Y-64403647D01*
X91677945Y-64403647D02*
X91630326Y-64594123D01*
X91630326Y-64594123D02*
X91582707Y-64689361D01*
X91582707Y-64689361D02*
X91487469Y-64784600D01*
X91487469Y-64784600D02*
X91344612Y-64832219D01*
X91344612Y-64832219D02*
X91106517Y-64832219D01*
D11*
X83544761Y-51390057D02*
X83449523Y-51342438D01*
X83449523Y-51342438D02*
X83354285Y-51247200D01*
X83354285Y-51247200D02*
X83211428Y-51104342D01*
X83211428Y-51104342D02*
X83116190Y-51056723D01*
X83116190Y-51056723D02*
X83020952Y-51056723D01*
X83068571Y-51294819D02*
X82973333Y-51247200D01*
X82973333Y-51247200D02*
X82878095Y-51151961D01*
X82878095Y-51151961D02*
X82830476Y-50961485D01*
X82830476Y-50961485D02*
X82830476Y-50628152D01*
X82830476Y-50628152D02*
X82878095Y-50437676D01*
X82878095Y-50437676D02*
X82973333Y-50342438D01*
X82973333Y-50342438D02*
X83068571Y-50294819D01*
X83068571Y-50294819D02*
X83259047Y-50294819D01*
X83259047Y-50294819D02*
X83354285Y-50342438D01*
X83354285Y-50342438D02*
X83449523Y-50437676D01*
X83449523Y-50437676D02*
X83497142Y-50628152D01*
X83497142Y-50628152D02*
X83497142Y-50961485D01*
X83497142Y-50961485D02*
X83449523Y-51151961D01*
X83449523Y-51151961D02*
X83354285Y-51247200D01*
X83354285Y-51247200D02*
X83259047Y-51294819D01*
X83259047Y-51294819D02*
X83068571Y-51294819D01*
X83878095Y-50390057D02*
X83925714Y-50342438D01*
X83925714Y-50342438D02*
X84020952Y-50294819D01*
X84020952Y-50294819D02*
X84259047Y-50294819D01*
X84259047Y-50294819D02*
X84354285Y-50342438D01*
X84354285Y-50342438D02*
X84401904Y-50390057D01*
X84401904Y-50390057D02*
X84449523Y-50485295D01*
X84449523Y-50485295D02*
X84449523Y-50580533D01*
X84449523Y-50580533D02*
X84401904Y-50723390D01*
X84401904Y-50723390D02*
X83830476Y-51294819D01*
X83830476Y-51294819D02*
X84449523Y-51294819D01*
X63833333Y-51199580D02*
X63785714Y-51247200D01*
X63785714Y-51247200D02*
X63642857Y-51294819D01*
X63642857Y-51294819D02*
X63547619Y-51294819D01*
X63547619Y-51294819D02*
X63404762Y-51247200D01*
X63404762Y-51247200D02*
X63309524Y-51151961D01*
X63309524Y-51151961D02*
X63261905Y-51056723D01*
X63261905Y-51056723D02*
X63214286Y-50866247D01*
X63214286Y-50866247D02*
X63214286Y-50723390D01*
X63214286Y-50723390D02*
X63261905Y-50532914D01*
X63261905Y-50532914D02*
X63309524Y-50437676D01*
X63309524Y-50437676D02*
X63404762Y-50342438D01*
X63404762Y-50342438D02*
X63547619Y-50294819D01*
X63547619Y-50294819D02*
X63642857Y-50294819D01*
X63642857Y-50294819D02*
X63785714Y-50342438D01*
X63785714Y-50342438D02*
X63833333Y-50390057D01*
X64309524Y-51294819D02*
X64500000Y-51294819D01*
X64500000Y-51294819D02*
X64595238Y-51247200D01*
X64595238Y-51247200D02*
X64642857Y-51199580D01*
X64642857Y-51199580D02*
X64738095Y-51056723D01*
X64738095Y-51056723D02*
X64785714Y-50866247D01*
X64785714Y-50866247D02*
X64785714Y-50485295D01*
X64785714Y-50485295D02*
X64738095Y-50390057D01*
X64738095Y-50390057D02*
X64690476Y-50342438D01*
X64690476Y-50342438D02*
X64595238Y-50294819D01*
X64595238Y-50294819D02*
X64404762Y-50294819D01*
X64404762Y-50294819D02*
X64309524Y-50342438D01*
X64309524Y-50342438D02*
X64261905Y-50390057D01*
X64261905Y-50390057D02*
X64214286Y-50485295D01*
X64214286Y-50485295D02*
X64214286Y-50723390D01*
X64214286Y-50723390D02*
X64261905Y-50818628D01*
X64261905Y-50818628D02*
X64309524Y-50866247D01*
X64309524Y-50866247D02*
X64404762Y-50913866D01*
X64404762Y-50913866D02*
X64595238Y-50913866D01*
X64595238Y-50913866D02*
X64690476Y-50866247D01*
X64690476Y-50866247D02*
X64738095Y-50818628D01*
X64738095Y-50818628D02*
X64785714Y-50723390D01*
X63947142Y-57304819D02*
X63375714Y-57304819D01*
X63661428Y-57304819D02*
X63661428Y-56304819D01*
X63661428Y-56304819D02*
X63566190Y-56447676D01*
X63566190Y-56447676D02*
X63470952Y-56542914D01*
X63470952Y-56542914D02*
X63375714Y-56590533D01*
X64566190Y-56304819D02*
X64661428Y-56304819D01*
X64661428Y-56304819D02*
X64756666Y-56352438D01*
X64756666Y-56352438D02*
X64804285Y-56400057D01*
X64804285Y-56400057D02*
X64851904Y-56495295D01*
X64851904Y-56495295D02*
X64899523Y-56685771D01*
X64899523Y-56685771D02*
X64899523Y-56923866D01*
X64899523Y-56923866D02*
X64851904Y-57114342D01*
X64851904Y-57114342D02*
X64804285Y-57209580D01*
X64804285Y-57209580D02*
X64756666Y-57257200D01*
X64756666Y-57257200D02*
X64661428Y-57304819D01*
X64661428Y-57304819D02*
X64566190Y-57304819D01*
X64566190Y-57304819D02*
X64470952Y-57257200D01*
X64470952Y-57257200D02*
X64423333Y-57209580D01*
X64423333Y-57209580D02*
X64375714Y-57114342D01*
X64375714Y-57114342D02*
X64328095Y-56923866D01*
X64328095Y-56923866D02*
X64328095Y-56685771D01*
X64328095Y-56685771D02*
X64375714Y-56495295D01*
X64375714Y-56495295D02*
X64423333Y-56400057D01*
X64423333Y-56400057D02*
X64470952Y-56352438D01*
X64470952Y-56352438D02*
X64566190Y-56304819D01*
X65756666Y-56638152D02*
X65756666Y-57304819D01*
X65328095Y-56638152D02*
X65328095Y-57161961D01*
X65328095Y-57161961D02*
X65375714Y-57257200D01*
X65375714Y-57257200D02*
X65470952Y-57304819D01*
X65470952Y-57304819D02*
X65613809Y-57304819D01*
X65613809Y-57304819D02*
X65709047Y-57257200D01*
X65709047Y-57257200D02*
X65756666Y-57209580D01*
X89667142Y-51199580D02*
X89619523Y-51247200D01*
X89619523Y-51247200D02*
X89476666Y-51294819D01*
X89476666Y-51294819D02*
X89381428Y-51294819D01*
X89381428Y-51294819D02*
X89238571Y-51247200D01*
X89238571Y-51247200D02*
X89143333Y-51151961D01*
X89143333Y-51151961D02*
X89095714Y-51056723D01*
X89095714Y-51056723D02*
X89048095Y-50866247D01*
X89048095Y-50866247D02*
X89048095Y-50723390D01*
X89048095Y-50723390D02*
X89095714Y-50532914D01*
X89095714Y-50532914D02*
X89143333Y-50437676D01*
X89143333Y-50437676D02*
X89238571Y-50342438D01*
X89238571Y-50342438D02*
X89381428Y-50294819D01*
X89381428Y-50294819D02*
X89476666Y-50294819D01*
X89476666Y-50294819D02*
X89619523Y-50342438D01*
X89619523Y-50342438D02*
X89667142Y-50390057D01*
X90619523Y-51294819D02*
X90048095Y-51294819D01*
X90333809Y-51294819D02*
X90333809Y-50294819D01*
X90333809Y-50294819D02*
X90238571Y-50437676D01*
X90238571Y-50437676D02*
X90143333Y-50532914D01*
X90143333Y-50532914D02*
X90048095Y-50580533D01*
X91476666Y-50628152D02*
X91476666Y-51294819D01*
X91238571Y-50247200D02*
X91000476Y-50961485D01*
X91000476Y-50961485D02*
X91619523Y-50961485D01*
X91660952Y-52774819D02*
X91089524Y-52774819D01*
X91375238Y-52774819D02*
X91375238Y-51774819D01*
X91375238Y-51774819D02*
X91280000Y-51917676D01*
X91280000Y-51917676D02*
X91184762Y-52012914D01*
X91184762Y-52012914D02*
X91089524Y-52060533D01*
X92280000Y-51774819D02*
X92375238Y-51774819D01*
X92375238Y-51774819D02*
X92470476Y-51822438D01*
X92470476Y-51822438D02*
X92518095Y-51870057D01*
X92518095Y-51870057D02*
X92565714Y-51965295D01*
X92565714Y-51965295D02*
X92613333Y-52155771D01*
X92613333Y-52155771D02*
X92613333Y-52393866D01*
X92613333Y-52393866D02*
X92565714Y-52584342D01*
X92565714Y-52584342D02*
X92518095Y-52679580D01*
X92518095Y-52679580D02*
X92470476Y-52727200D01*
X92470476Y-52727200D02*
X92375238Y-52774819D01*
X92375238Y-52774819D02*
X92280000Y-52774819D01*
X92280000Y-52774819D02*
X92184762Y-52727200D01*
X92184762Y-52727200D02*
X92137143Y-52679580D01*
X92137143Y-52679580D02*
X92089524Y-52584342D01*
X92089524Y-52584342D02*
X92041905Y-52393866D01*
X92041905Y-52393866D02*
X92041905Y-52155771D01*
X92041905Y-52155771D02*
X92089524Y-51965295D01*
X92089524Y-51965295D02*
X92137143Y-51870057D01*
X92137143Y-51870057D02*
X92184762Y-51822438D01*
X92184762Y-51822438D02*
X92280000Y-51774819D01*
X93232381Y-51774819D02*
X93327619Y-51774819D01*
X93327619Y-51774819D02*
X93422857Y-51822438D01*
X93422857Y-51822438D02*
X93470476Y-51870057D01*
X93470476Y-51870057D02*
X93518095Y-51965295D01*
X93518095Y-51965295D02*
X93565714Y-52155771D01*
X93565714Y-52155771D02*
X93565714Y-52393866D01*
X93565714Y-52393866D02*
X93518095Y-52584342D01*
X93518095Y-52584342D02*
X93470476Y-52679580D01*
X93470476Y-52679580D02*
X93422857Y-52727200D01*
X93422857Y-52727200D02*
X93327619Y-52774819D01*
X93327619Y-52774819D02*
X93232381Y-52774819D01*
X93232381Y-52774819D02*
X93137143Y-52727200D01*
X93137143Y-52727200D02*
X93089524Y-52679580D01*
X93089524Y-52679580D02*
X93041905Y-52584342D01*
X93041905Y-52584342D02*
X92994286Y-52393866D01*
X92994286Y-52393866D02*
X92994286Y-52155771D01*
X92994286Y-52155771D02*
X93041905Y-51965295D01*
X93041905Y-51965295D02*
X93089524Y-51870057D01*
X93089524Y-51870057D02*
X93137143Y-51822438D01*
X93137143Y-51822438D02*
X93232381Y-51774819D01*
X93994286Y-52108152D02*
X93994286Y-52774819D01*
X93994286Y-52203390D02*
X94041905Y-52155771D01*
X94041905Y-52155771D02*
X94137143Y-52108152D01*
X94137143Y-52108152D02*
X94280000Y-52108152D01*
X94280000Y-52108152D02*
X94375238Y-52155771D01*
X94375238Y-52155771D02*
X94422857Y-52251009D01*
X94422857Y-52251009D02*
X94422857Y-52774819D01*
X81057142Y-56324819D02*
X80723809Y-55848628D01*
X80485714Y-56324819D02*
X80485714Y-55324819D01*
X80485714Y-55324819D02*
X80866666Y-55324819D01*
X80866666Y-55324819D02*
X80961904Y-55372438D01*
X80961904Y-55372438D02*
X81009523Y-55420057D01*
X81009523Y-55420057D02*
X81057142Y-55515295D01*
X81057142Y-55515295D02*
X81057142Y-55658152D01*
X81057142Y-55658152D02*
X81009523Y-55753390D01*
X81009523Y-55753390D02*
X80961904Y-55801009D01*
X80961904Y-55801009D02*
X80866666Y-55848628D01*
X80866666Y-55848628D02*
X80485714Y-55848628D01*
X82009523Y-56324819D02*
X81438095Y-56324819D01*
X81723809Y-56324819D02*
X81723809Y-55324819D01*
X81723809Y-55324819D02*
X81628571Y-55467676D01*
X81628571Y-55467676D02*
X81533333Y-55562914D01*
X81533333Y-55562914D02*
X81438095Y-55610533D01*
X82390476Y-55420057D02*
X82438095Y-55372438D01*
X82438095Y-55372438D02*
X82533333Y-55324819D01*
X82533333Y-55324819D02*
X82771428Y-55324819D01*
X82771428Y-55324819D02*
X82866666Y-55372438D01*
X82866666Y-55372438D02*
X82914285Y-55420057D01*
X82914285Y-55420057D02*
X82961904Y-55515295D01*
X82961904Y-55515295D02*
X82961904Y-55610533D01*
X82961904Y-55610533D02*
X82914285Y-55753390D01*
X82914285Y-55753390D02*
X82342857Y-56324819D01*
X82342857Y-56324819D02*
X82961904Y-56324819D01*
X82452381Y-58604819D02*
X82547619Y-58604819D01*
X82547619Y-58604819D02*
X82642857Y-58652438D01*
X82642857Y-58652438D02*
X82690476Y-58700057D01*
X82690476Y-58700057D02*
X82738095Y-58795295D01*
X82738095Y-58795295D02*
X82785714Y-58985771D01*
X82785714Y-58985771D02*
X82785714Y-59223866D01*
X82785714Y-59223866D02*
X82738095Y-59414342D01*
X82738095Y-59414342D02*
X82690476Y-59509580D01*
X82690476Y-59509580D02*
X82642857Y-59557200D01*
X82642857Y-59557200D02*
X82547619Y-59604819D01*
X82547619Y-59604819D02*
X82452381Y-59604819D01*
X82452381Y-59604819D02*
X82357143Y-59557200D01*
X82357143Y-59557200D02*
X82309524Y-59509580D01*
X82309524Y-59509580D02*
X82261905Y-59414342D01*
X82261905Y-59414342D02*
X82214286Y-59223866D01*
X82214286Y-59223866D02*
X82214286Y-58985771D01*
X82214286Y-58985771D02*
X82261905Y-58795295D01*
X82261905Y-58795295D02*
X82309524Y-58700057D01*
X82309524Y-58700057D02*
X82357143Y-58652438D01*
X82357143Y-58652438D02*
X82452381Y-58604819D01*
X86347142Y-51199580D02*
X86299523Y-51247200D01*
X86299523Y-51247200D02*
X86156666Y-51294819D01*
X86156666Y-51294819D02*
X86061428Y-51294819D01*
X86061428Y-51294819D02*
X85918571Y-51247200D01*
X85918571Y-51247200D02*
X85823333Y-51151961D01*
X85823333Y-51151961D02*
X85775714Y-51056723D01*
X85775714Y-51056723D02*
X85728095Y-50866247D01*
X85728095Y-50866247D02*
X85728095Y-50723390D01*
X85728095Y-50723390D02*
X85775714Y-50532914D01*
X85775714Y-50532914D02*
X85823333Y-50437676D01*
X85823333Y-50437676D02*
X85918571Y-50342438D01*
X85918571Y-50342438D02*
X86061428Y-50294819D01*
X86061428Y-50294819D02*
X86156666Y-50294819D01*
X86156666Y-50294819D02*
X86299523Y-50342438D01*
X86299523Y-50342438D02*
X86347142Y-50390057D01*
X87299523Y-51294819D02*
X86728095Y-51294819D01*
X87013809Y-51294819D02*
X87013809Y-50294819D01*
X87013809Y-50294819D02*
X86918571Y-50437676D01*
X86918571Y-50437676D02*
X86823333Y-50532914D01*
X86823333Y-50532914D02*
X86728095Y-50580533D01*
X87632857Y-50294819D02*
X88251904Y-50294819D01*
X88251904Y-50294819D02*
X87918571Y-50675771D01*
X87918571Y-50675771D02*
X88061428Y-50675771D01*
X88061428Y-50675771D02*
X88156666Y-50723390D01*
X88156666Y-50723390D02*
X88204285Y-50771009D01*
X88204285Y-50771009D02*
X88251904Y-50866247D01*
X88251904Y-50866247D02*
X88251904Y-51104342D01*
X88251904Y-51104342D02*
X88204285Y-51199580D01*
X88204285Y-51199580D02*
X88156666Y-51247200D01*
X88156666Y-51247200D02*
X88061428Y-51294819D01*
X88061428Y-51294819D02*
X87775714Y-51294819D01*
X87775714Y-51294819D02*
X87680476Y-51247200D01*
X87680476Y-51247200D02*
X87632857Y-51199580D01*
X86307142Y-57234819D02*
X85735714Y-57234819D01*
X86021428Y-57234819D02*
X86021428Y-56234819D01*
X86021428Y-56234819D02*
X85926190Y-56377676D01*
X85926190Y-56377676D02*
X85830952Y-56472914D01*
X85830952Y-56472914D02*
X85735714Y-56520533D01*
X86926190Y-56234819D02*
X87021428Y-56234819D01*
X87021428Y-56234819D02*
X87116666Y-56282438D01*
X87116666Y-56282438D02*
X87164285Y-56330057D01*
X87164285Y-56330057D02*
X87211904Y-56425295D01*
X87211904Y-56425295D02*
X87259523Y-56615771D01*
X87259523Y-56615771D02*
X87259523Y-56853866D01*
X87259523Y-56853866D02*
X87211904Y-57044342D01*
X87211904Y-57044342D02*
X87164285Y-57139580D01*
X87164285Y-57139580D02*
X87116666Y-57187200D01*
X87116666Y-57187200D02*
X87021428Y-57234819D01*
X87021428Y-57234819D02*
X86926190Y-57234819D01*
X86926190Y-57234819D02*
X86830952Y-57187200D01*
X86830952Y-57187200D02*
X86783333Y-57139580D01*
X86783333Y-57139580D02*
X86735714Y-57044342D01*
X86735714Y-57044342D02*
X86688095Y-56853866D01*
X86688095Y-56853866D02*
X86688095Y-56615771D01*
X86688095Y-56615771D02*
X86735714Y-56425295D01*
X86735714Y-56425295D02*
X86783333Y-56330057D01*
X86783333Y-56330057D02*
X86830952Y-56282438D01*
X86830952Y-56282438D02*
X86926190Y-56234819D01*
X88116666Y-56568152D02*
X88116666Y-57234819D01*
X87688095Y-56568152D02*
X87688095Y-57091961D01*
X87688095Y-57091961D02*
X87735714Y-57187200D01*
X87735714Y-57187200D02*
X87830952Y-57234819D01*
X87830952Y-57234819D02*
X87973809Y-57234819D01*
X87973809Y-57234819D02*
X88069047Y-57187200D01*
X88069047Y-57187200D02*
X88116666Y-57139580D01*
X52261905Y-69804819D02*
X52261905Y-68804819D01*
X52261905Y-68804819D02*
X52500000Y-68804819D01*
X52500000Y-68804819D02*
X52642857Y-68852438D01*
X52642857Y-68852438D02*
X52738095Y-68947676D01*
X52738095Y-68947676D02*
X52785714Y-69042914D01*
X52785714Y-69042914D02*
X52833333Y-69233390D01*
X52833333Y-69233390D02*
X52833333Y-69376247D01*
X52833333Y-69376247D02*
X52785714Y-69566723D01*
X52785714Y-69566723D02*
X52738095Y-69661961D01*
X52738095Y-69661961D02*
X52642857Y-69757200D01*
X52642857Y-69757200D02*
X52500000Y-69804819D01*
X52500000Y-69804819D02*
X52261905Y-69804819D01*
X53166667Y-68804819D02*
X53785714Y-68804819D01*
X53785714Y-68804819D02*
X53452381Y-69185771D01*
X53452381Y-69185771D02*
X53595238Y-69185771D01*
X53595238Y-69185771D02*
X53690476Y-69233390D01*
X53690476Y-69233390D02*
X53738095Y-69281009D01*
X53738095Y-69281009D02*
X53785714Y-69376247D01*
X53785714Y-69376247D02*
X53785714Y-69614342D01*
X53785714Y-69614342D02*
X53738095Y-69709580D01*
X53738095Y-69709580D02*
X53690476Y-69757200D01*
X53690476Y-69757200D02*
X53595238Y-69804819D01*
X53595238Y-69804819D02*
X53309524Y-69804819D01*
X53309524Y-69804819D02*
X53214286Y-69757200D01*
X53214286Y-69757200D02*
X53166667Y-69709580D01*
X52357142Y-73104819D02*
X52023809Y-72628628D01*
X51785714Y-73104819D02*
X51785714Y-72104819D01*
X51785714Y-72104819D02*
X52166666Y-72104819D01*
X52166666Y-72104819D02*
X52261904Y-72152438D01*
X52261904Y-72152438D02*
X52309523Y-72200057D01*
X52309523Y-72200057D02*
X52357142Y-72295295D01*
X52357142Y-72295295D02*
X52357142Y-72438152D01*
X52357142Y-72438152D02*
X52309523Y-72533390D01*
X52309523Y-72533390D02*
X52261904Y-72581009D01*
X52261904Y-72581009D02*
X52166666Y-72628628D01*
X52166666Y-72628628D02*
X51785714Y-72628628D01*
X52785714Y-72581009D02*
X53119047Y-72581009D01*
X53261904Y-73104819D02*
X52785714Y-73104819D01*
X52785714Y-73104819D02*
X52785714Y-72104819D01*
X52785714Y-72104819D02*
X53261904Y-72104819D01*
X53690476Y-73104819D02*
X53690476Y-72104819D01*
X53690476Y-72104819D02*
X53928571Y-72104819D01*
X53928571Y-72104819D02*
X54071428Y-72152438D01*
X54071428Y-72152438D02*
X54166666Y-72247676D01*
X54166666Y-72247676D02*
X54214285Y-72342914D01*
X54214285Y-72342914D02*
X54261904Y-72533390D01*
X54261904Y-72533390D02*
X54261904Y-72676247D01*
X54261904Y-72676247D02*
X54214285Y-72866723D01*
X54214285Y-72866723D02*
X54166666Y-72961961D01*
X54166666Y-72961961D02*
X54071428Y-73057200D01*
X54071428Y-73057200D02*
X53928571Y-73104819D01*
X53928571Y-73104819D02*
X53690476Y-73104819D01*
X86761905Y-69804819D02*
X86761905Y-68804819D01*
X86761905Y-68804819D02*
X87000000Y-68804819D01*
X87000000Y-68804819D02*
X87142857Y-68852438D01*
X87142857Y-68852438D02*
X87238095Y-68947676D01*
X87238095Y-68947676D02*
X87285714Y-69042914D01*
X87285714Y-69042914D02*
X87333333Y-69233390D01*
X87333333Y-69233390D02*
X87333333Y-69376247D01*
X87333333Y-69376247D02*
X87285714Y-69566723D01*
X87285714Y-69566723D02*
X87238095Y-69661961D01*
X87238095Y-69661961D02*
X87142857Y-69757200D01*
X87142857Y-69757200D02*
X87000000Y-69804819D01*
X87000000Y-69804819D02*
X86761905Y-69804819D01*
X88238095Y-68804819D02*
X87761905Y-68804819D01*
X87761905Y-68804819D02*
X87714286Y-69281009D01*
X87714286Y-69281009D02*
X87761905Y-69233390D01*
X87761905Y-69233390D02*
X87857143Y-69185771D01*
X87857143Y-69185771D02*
X88095238Y-69185771D01*
X88095238Y-69185771D02*
X88190476Y-69233390D01*
X88190476Y-69233390D02*
X88238095Y-69281009D01*
X88238095Y-69281009D02*
X88285714Y-69376247D01*
X88285714Y-69376247D02*
X88285714Y-69614342D01*
X88285714Y-69614342D02*
X88238095Y-69709580D01*
X88238095Y-69709580D02*
X88190476Y-69757200D01*
X88190476Y-69757200D02*
X88095238Y-69804819D01*
X88095238Y-69804819D02*
X87857143Y-69804819D01*
X87857143Y-69804819D02*
X87761905Y-69757200D01*
X87761905Y-69757200D02*
X87714286Y-69709580D01*
X86857142Y-73104819D02*
X86523809Y-72628628D01*
X86285714Y-73104819D02*
X86285714Y-72104819D01*
X86285714Y-72104819D02*
X86666666Y-72104819D01*
X86666666Y-72104819D02*
X86761904Y-72152438D01*
X86761904Y-72152438D02*
X86809523Y-72200057D01*
X86809523Y-72200057D02*
X86857142Y-72295295D01*
X86857142Y-72295295D02*
X86857142Y-72438152D01*
X86857142Y-72438152D02*
X86809523Y-72533390D01*
X86809523Y-72533390D02*
X86761904Y-72581009D01*
X86761904Y-72581009D02*
X86666666Y-72628628D01*
X86666666Y-72628628D02*
X86285714Y-72628628D01*
X87285714Y-72581009D02*
X87619047Y-72581009D01*
X87761904Y-73104819D02*
X87285714Y-73104819D01*
X87285714Y-73104819D02*
X87285714Y-72104819D01*
X87285714Y-72104819D02*
X87761904Y-72104819D01*
X88190476Y-73104819D02*
X88190476Y-72104819D01*
X88190476Y-72104819D02*
X88428571Y-72104819D01*
X88428571Y-72104819D02*
X88571428Y-72152438D01*
X88571428Y-72152438D02*
X88666666Y-72247676D01*
X88666666Y-72247676D02*
X88714285Y-72342914D01*
X88714285Y-72342914D02*
X88761904Y-72533390D01*
X88761904Y-72533390D02*
X88761904Y-72676247D01*
X88761904Y-72676247D02*
X88714285Y-72866723D01*
X88714285Y-72866723D02*
X88666666Y-72961961D01*
X88666666Y-72961961D02*
X88571428Y-73057200D01*
X88571428Y-73057200D02*
X88428571Y-73104819D01*
X88428571Y-73104819D02*
X88190476Y-73104819D01*
X60853333Y-51199580D02*
X60805714Y-51247200D01*
X60805714Y-51247200D02*
X60662857Y-51294819D01*
X60662857Y-51294819D02*
X60567619Y-51294819D01*
X60567619Y-51294819D02*
X60424762Y-51247200D01*
X60424762Y-51247200D02*
X60329524Y-51151961D01*
X60329524Y-51151961D02*
X60281905Y-51056723D01*
X60281905Y-51056723D02*
X60234286Y-50866247D01*
X60234286Y-50866247D02*
X60234286Y-50723390D01*
X60234286Y-50723390D02*
X60281905Y-50532914D01*
X60281905Y-50532914D02*
X60329524Y-50437676D01*
X60329524Y-50437676D02*
X60424762Y-50342438D01*
X60424762Y-50342438D02*
X60567619Y-50294819D01*
X60567619Y-50294819D02*
X60662857Y-50294819D01*
X60662857Y-50294819D02*
X60805714Y-50342438D01*
X60805714Y-50342438D02*
X60853333Y-50390057D01*
X61424762Y-50723390D02*
X61329524Y-50675771D01*
X61329524Y-50675771D02*
X61281905Y-50628152D01*
X61281905Y-50628152D02*
X61234286Y-50532914D01*
X61234286Y-50532914D02*
X61234286Y-50485295D01*
X61234286Y-50485295D02*
X61281905Y-50390057D01*
X61281905Y-50390057D02*
X61329524Y-50342438D01*
X61329524Y-50342438D02*
X61424762Y-50294819D01*
X61424762Y-50294819D02*
X61615238Y-50294819D01*
X61615238Y-50294819D02*
X61710476Y-50342438D01*
X61710476Y-50342438D02*
X61758095Y-50390057D01*
X61758095Y-50390057D02*
X61805714Y-50485295D01*
X61805714Y-50485295D02*
X61805714Y-50532914D01*
X61805714Y-50532914D02*
X61758095Y-50628152D01*
X61758095Y-50628152D02*
X61710476Y-50675771D01*
X61710476Y-50675771D02*
X61615238Y-50723390D01*
X61615238Y-50723390D02*
X61424762Y-50723390D01*
X61424762Y-50723390D02*
X61329524Y-50771009D01*
X61329524Y-50771009D02*
X61281905Y-50818628D01*
X61281905Y-50818628D02*
X61234286Y-50913866D01*
X61234286Y-50913866D02*
X61234286Y-51104342D01*
X61234286Y-51104342D02*
X61281905Y-51199580D01*
X61281905Y-51199580D02*
X61329524Y-51247200D01*
X61329524Y-51247200D02*
X61424762Y-51294819D01*
X61424762Y-51294819D02*
X61615238Y-51294819D01*
X61615238Y-51294819D02*
X61710476Y-51247200D01*
X61710476Y-51247200D02*
X61758095Y-51199580D01*
X61758095Y-51199580D02*
X61805714Y-51104342D01*
X61805714Y-51104342D02*
X61805714Y-50913866D01*
X61805714Y-50913866D02*
X61758095Y-50818628D01*
X61758095Y-50818628D02*
X61710476Y-50771009D01*
X61710476Y-50771009D02*
X61615238Y-50723390D01*
X60090952Y-56934819D02*
X59519524Y-56934819D01*
X59805238Y-56934819D02*
X59805238Y-55934819D01*
X59805238Y-55934819D02*
X59710000Y-56077676D01*
X59710000Y-56077676D02*
X59614762Y-56172914D01*
X59614762Y-56172914D02*
X59519524Y-56220533D01*
X60710000Y-55934819D02*
X60805238Y-55934819D01*
X60805238Y-55934819D02*
X60900476Y-55982438D01*
X60900476Y-55982438D02*
X60948095Y-56030057D01*
X60948095Y-56030057D02*
X60995714Y-56125295D01*
X60995714Y-56125295D02*
X61043333Y-56315771D01*
X61043333Y-56315771D02*
X61043333Y-56553866D01*
X61043333Y-56553866D02*
X60995714Y-56744342D01*
X60995714Y-56744342D02*
X60948095Y-56839580D01*
X60948095Y-56839580D02*
X60900476Y-56887200D01*
X60900476Y-56887200D02*
X60805238Y-56934819D01*
X60805238Y-56934819D02*
X60710000Y-56934819D01*
X60710000Y-56934819D02*
X60614762Y-56887200D01*
X60614762Y-56887200D02*
X60567143Y-56839580D01*
X60567143Y-56839580D02*
X60519524Y-56744342D01*
X60519524Y-56744342D02*
X60471905Y-56553866D01*
X60471905Y-56553866D02*
X60471905Y-56315771D01*
X60471905Y-56315771D02*
X60519524Y-56125295D01*
X60519524Y-56125295D02*
X60567143Y-56030057D01*
X60567143Y-56030057D02*
X60614762Y-55982438D01*
X60614762Y-55982438D02*
X60710000Y-55934819D01*
X61662381Y-55934819D02*
X61757619Y-55934819D01*
X61757619Y-55934819D02*
X61852857Y-55982438D01*
X61852857Y-55982438D02*
X61900476Y-56030057D01*
X61900476Y-56030057D02*
X61948095Y-56125295D01*
X61948095Y-56125295D02*
X61995714Y-56315771D01*
X61995714Y-56315771D02*
X61995714Y-56553866D01*
X61995714Y-56553866D02*
X61948095Y-56744342D01*
X61948095Y-56744342D02*
X61900476Y-56839580D01*
X61900476Y-56839580D02*
X61852857Y-56887200D01*
X61852857Y-56887200D02*
X61757619Y-56934819D01*
X61757619Y-56934819D02*
X61662381Y-56934819D01*
X61662381Y-56934819D02*
X61567143Y-56887200D01*
X61567143Y-56887200D02*
X61519524Y-56839580D01*
X61519524Y-56839580D02*
X61471905Y-56744342D01*
X61471905Y-56744342D02*
X61424286Y-56553866D01*
X61424286Y-56553866D02*
X61424286Y-56315771D01*
X61424286Y-56315771D02*
X61471905Y-56125295D01*
X61471905Y-56125295D02*
X61519524Y-56030057D01*
X61519524Y-56030057D02*
X61567143Y-55982438D01*
X61567143Y-55982438D02*
X61662381Y-55934819D01*
X62424286Y-56268152D02*
X62424286Y-56934819D01*
X62424286Y-56363390D02*
X62471905Y-56315771D01*
X62471905Y-56315771D02*
X62567143Y-56268152D01*
X62567143Y-56268152D02*
X62710000Y-56268152D01*
X62710000Y-56268152D02*
X62805238Y-56315771D01*
X62805238Y-56315771D02*
X62852857Y-56411009D01*
X62852857Y-56411009D02*
X62852857Y-56934819D01*
X67557142Y-67054819D02*
X67223809Y-66578628D01*
X66985714Y-67054819D02*
X66985714Y-66054819D01*
X66985714Y-66054819D02*
X67366666Y-66054819D01*
X67366666Y-66054819D02*
X67461904Y-66102438D01*
X67461904Y-66102438D02*
X67509523Y-66150057D01*
X67509523Y-66150057D02*
X67557142Y-66245295D01*
X67557142Y-66245295D02*
X67557142Y-66388152D01*
X67557142Y-66388152D02*
X67509523Y-66483390D01*
X67509523Y-66483390D02*
X67461904Y-66531009D01*
X67461904Y-66531009D02*
X67366666Y-66578628D01*
X67366666Y-66578628D02*
X66985714Y-66578628D01*
X68509523Y-67054819D02*
X67938095Y-67054819D01*
X68223809Y-67054819D02*
X68223809Y-66054819D01*
X68223809Y-66054819D02*
X68128571Y-66197676D01*
X68128571Y-66197676D02*
X68033333Y-66292914D01*
X68033333Y-66292914D02*
X67938095Y-66340533D01*
X69366666Y-66388152D02*
X69366666Y-67054819D01*
X69128571Y-66007200D02*
X68890476Y-66721485D01*
X68890476Y-66721485D02*
X69509523Y-66721485D01*
X67720952Y-68454819D02*
X67149524Y-68454819D01*
X67435238Y-68454819D02*
X67435238Y-67454819D01*
X67435238Y-67454819D02*
X67340000Y-67597676D01*
X67340000Y-67597676D02*
X67244762Y-67692914D01*
X67244762Y-67692914D02*
X67149524Y-67740533D01*
X68149524Y-68454819D02*
X68149524Y-67454819D01*
X68244762Y-68073866D02*
X68530476Y-68454819D01*
X68530476Y-67788152D02*
X68149524Y-68169104D01*
X56757142Y-69804819D02*
X56423809Y-69328628D01*
X56185714Y-69804819D02*
X56185714Y-68804819D01*
X56185714Y-68804819D02*
X56566666Y-68804819D01*
X56566666Y-68804819D02*
X56661904Y-68852438D01*
X56661904Y-68852438D02*
X56709523Y-68900057D01*
X56709523Y-68900057D02*
X56757142Y-68995295D01*
X56757142Y-68995295D02*
X56757142Y-69138152D01*
X56757142Y-69138152D02*
X56709523Y-69233390D01*
X56709523Y-69233390D02*
X56661904Y-69281009D01*
X56661904Y-69281009D02*
X56566666Y-69328628D01*
X56566666Y-69328628D02*
X56185714Y-69328628D01*
X57709523Y-69804819D02*
X57138095Y-69804819D01*
X57423809Y-69804819D02*
X57423809Y-68804819D01*
X57423809Y-68804819D02*
X57328571Y-68947676D01*
X57328571Y-68947676D02*
X57233333Y-69042914D01*
X57233333Y-69042914D02*
X57138095Y-69090533D01*
X58328571Y-68804819D02*
X58423809Y-68804819D01*
X58423809Y-68804819D02*
X58519047Y-68852438D01*
X58519047Y-68852438D02*
X58566666Y-68900057D01*
X58566666Y-68900057D02*
X58614285Y-68995295D01*
X58614285Y-68995295D02*
X58661904Y-69185771D01*
X58661904Y-69185771D02*
X58661904Y-69423866D01*
X58661904Y-69423866D02*
X58614285Y-69614342D01*
X58614285Y-69614342D02*
X58566666Y-69709580D01*
X58566666Y-69709580D02*
X58519047Y-69757200D01*
X58519047Y-69757200D02*
X58423809Y-69804819D01*
X58423809Y-69804819D02*
X58328571Y-69804819D01*
X58328571Y-69804819D02*
X58233333Y-69757200D01*
X58233333Y-69757200D02*
X58185714Y-69709580D01*
X58185714Y-69709580D02*
X58138095Y-69614342D01*
X58138095Y-69614342D02*
X58090476Y-69423866D01*
X58090476Y-69423866D02*
X58090476Y-69185771D01*
X58090476Y-69185771D02*
X58138095Y-68995295D01*
X58138095Y-68995295D02*
X58185714Y-68900057D01*
X58185714Y-68900057D02*
X58233333Y-68852438D01*
X58233333Y-68852438D02*
X58328571Y-68804819D01*
X56328571Y-73104819D02*
X55757143Y-73104819D01*
X56042857Y-73104819D02*
X56042857Y-72104819D01*
X56042857Y-72104819D02*
X55947619Y-72247676D01*
X55947619Y-72247676D02*
X55852381Y-72342914D01*
X55852381Y-72342914D02*
X55757143Y-72390533D01*
X56947619Y-72104819D02*
X57042857Y-72104819D01*
X57042857Y-72104819D02*
X57138095Y-72152438D01*
X57138095Y-72152438D02*
X57185714Y-72200057D01*
X57185714Y-72200057D02*
X57233333Y-72295295D01*
X57233333Y-72295295D02*
X57280952Y-72485771D01*
X57280952Y-72485771D02*
X57280952Y-72723866D01*
X57280952Y-72723866D02*
X57233333Y-72914342D01*
X57233333Y-72914342D02*
X57185714Y-73009580D01*
X57185714Y-73009580D02*
X57138095Y-73057200D01*
X57138095Y-73057200D02*
X57042857Y-73104819D01*
X57042857Y-73104819D02*
X56947619Y-73104819D01*
X56947619Y-73104819D02*
X56852381Y-73057200D01*
X56852381Y-73057200D02*
X56804762Y-73009580D01*
X56804762Y-73009580D02*
X56757143Y-72914342D01*
X56757143Y-72914342D02*
X56709524Y-72723866D01*
X56709524Y-72723866D02*
X56709524Y-72485771D01*
X56709524Y-72485771D02*
X56757143Y-72295295D01*
X56757143Y-72295295D02*
X56804762Y-72200057D01*
X56804762Y-72200057D02*
X56852381Y-72152438D01*
X56852381Y-72152438D02*
X56947619Y-72104819D01*
X57900000Y-72104819D02*
X57995238Y-72104819D01*
X57995238Y-72104819D02*
X58090476Y-72152438D01*
X58090476Y-72152438D02*
X58138095Y-72200057D01*
X58138095Y-72200057D02*
X58185714Y-72295295D01*
X58185714Y-72295295D02*
X58233333Y-72485771D01*
X58233333Y-72485771D02*
X58233333Y-72723866D01*
X58233333Y-72723866D02*
X58185714Y-72914342D01*
X58185714Y-72914342D02*
X58138095Y-73009580D01*
X58138095Y-73009580D02*
X58090476Y-73057200D01*
X58090476Y-73057200D02*
X57995238Y-73104819D01*
X57995238Y-73104819D02*
X57900000Y-73104819D01*
X57900000Y-73104819D02*
X57804762Y-73057200D01*
X57804762Y-73057200D02*
X57757143Y-73009580D01*
X57757143Y-73009580D02*
X57709524Y-72914342D01*
X57709524Y-72914342D02*
X57661905Y-72723866D01*
X57661905Y-72723866D02*
X57661905Y-72485771D01*
X57661905Y-72485771D02*
X57709524Y-72295295D01*
X57709524Y-72295295D02*
X57757143Y-72200057D01*
X57757143Y-72200057D02*
X57804762Y-72152438D01*
X57804762Y-72152438D02*
X57900000Y-72104819D01*
X58661905Y-73104819D02*
X58661905Y-72104819D01*
X58757143Y-72723866D02*
X59042857Y-73104819D01*
X59042857Y-72438152D02*
X58661905Y-72819104D01*
X66453333Y-62574819D02*
X66120000Y-62098628D01*
X65881905Y-62574819D02*
X65881905Y-61574819D01*
X65881905Y-61574819D02*
X66262857Y-61574819D01*
X66262857Y-61574819D02*
X66358095Y-61622438D01*
X66358095Y-61622438D02*
X66405714Y-61670057D01*
X66405714Y-61670057D02*
X66453333Y-61765295D01*
X66453333Y-61765295D02*
X66453333Y-61908152D01*
X66453333Y-61908152D02*
X66405714Y-62003390D01*
X66405714Y-62003390D02*
X66358095Y-62051009D01*
X66358095Y-62051009D02*
X66262857Y-62098628D01*
X66262857Y-62098628D02*
X65881905Y-62098628D01*
X66929524Y-62574819D02*
X67120000Y-62574819D01*
X67120000Y-62574819D02*
X67215238Y-62527200D01*
X67215238Y-62527200D02*
X67262857Y-62479580D01*
X67262857Y-62479580D02*
X67358095Y-62336723D01*
X67358095Y-62336723D02*
X67405714Y-62146247D01*
X67405714Y-62146247D02*
X67405714Y-61765295D01*
X67405714Y-61765295D02*
X67358095Y-61670057D01*
X67358095Y-61670057D02*
X67310476Y-61622438D01*
X67310476Y-61622438D02*
X67215238Y-61574819D01*
X67215238Y-61574819D02*
X67024762Y-61574819D01*
X67024762Y-61574819D02*
X66929524Y-61622438D01*
X66929524Y-61622438D02*
X66881905Y-61670057D01*
X66881905Y-61670057D02*
X66834286Y-61765295D01*
X66834286Y-61765295D02*
X66834286Y-62003390D01*
X66834286Y-62003390D02*
X66881905Y-62098628D01*
X66881905Y-62098628D02*
X66929524Y-62146247D01*
X66929524Y-62146247D02*
X67024762Y-62193866D01*
X67024762Y-62193866D02*
X67215238Y-62193866D01*
X67215238Y-62193866D02*
X67310476Y-62146247D01*
X67310476Y-62146247D02*
X67358095Y-62098628D01*
X67358095Y-62098628D02*
X67405714Y-62003390D01*
X63057142Y-63054819D02*
X62580952Y-63054819D01*
X62580952Y-63054819D02*
X62533333Y-63531009D01*
X62533333Y-63531009D02*
X62580952Y-63483390D01*
X62580952Y-63483390D02*
X62676190Y-63435771D01*
X62676190Y-63435771D02*
X62914285Y-63435771D01*
X62914285Y-63435771D02*
X63009523Y-63483390D01*
X63009523Y-63483390D02*
X63057142Y-63531009D01*
X63057142Y-63531009D02*
X63104761Y-63626247D01*
X63104761Y-63626247D02*
X63104761Y-63864342D01*
X63104761Y-63864342D02*
X63057142Y-63959580D01*
X63057142Y-63959580D02*
X63009523Y-64007200D01*
X63009523Y-64007200D02*
X62914285Y-64054819D01*
X62914285Y-64054819D02*
X62676190Y-64054819D01*
X62676190Y-64054819D02*
X62580952Y-64007200D01*
X62580952Y-64007200D02*
X62533333Y-63959580D01*
X63533333Y-64054819D02*
X63533333Y-63054819D01*
X63628571Y-63673866D02*
X63914285Y-64054819D01*
X63914285Y-63388152D02*
X63533333Y-63769104D01*
X64866666Y-64054819D02*
X64295238Y-64054819D01*
X64580952Y-64054819D02*
X64580952Y-63054819D01*
X64580952Y-63054819D02*
X64485714Y-63197676D01*
X64485714Y-63197676D02*
X64390476Y-63292914D01*
X64390476Y-63292914D02*
X64295238Y-63340533D01*
X69107142Y-56769580D02*
X69059523Y-56817200D01*
X69059523Y-56817200D02*
X68916666Y-56864819D01*
X68916666Y-56864819D02*
X68821428Y-56864819D01*
X68821428Y-56864819D02*
X68678571Y-56817200D01*
X68678571Y-56817200D02*
X68583333Y-56721961D01*
X68583333Y-56721961D02*
X68535714Y-56626723D01*
X68535714Y-56626723D02*
X68488095Y-56436247D01*
X68488095Y-56436247D02*
X68488095Y-56293390D01*
X68488095Y-56293390D02*
X68535714Y-56102914D01*
X68535714Y-56102914D02*
X68583333Y-56007676D01*
X68583333Y-56007676D02*
X68678571Y-55912438D01*
X68678571Y-55912438D02*
X68821428Y-55864819D01*
X68821428Y-55864819D02*
X68916666Y-55864819D01*
X68916666Y-55864819D02*
X69059523Y-55912438D01*
X69059523Y-55912438D02*
X69107142Y-55960057D01*
X70059523Y-56864819D02*
X69488095Y-56864819D01*
X69773809Y-56864819D02*
X69773809Y-55864819D01*
X69773809Y-55864819D02*
X69678571Y-56007676D01*
X69678571Y-56007676D02*
X69583333Y-56102914D01*
X69583333Y-56102914D02*
X69488095Y-56150533D01*
X71011904Y-56864819D02*
X70440476Y-56864819D01*
X70726190Y-56864819D02*
X70726190Y-55864819D01*
X70726190Y-55864819D02*
X70630952Y-56007676D01*
X70630952Y-56007676D02*
X70535714Y-56102914D01*
X70535714Y-56102914D02*
X70440476Y-56150533D01*
X70023333Y-58684819D02*
X69451905Y-58684819D01*
X69737619Y-58684819D02*
X69737619Y-57684819D01*
X69737619Y-57684819D02*
X69642381Y-57827676D01*
X69642381Y-57827676D02*
X69547143Y-57922914D01*
X69547143Y-57922914D02*
X69451905Y-57970533D01*
X70880476Y-58018152D02*
X70880476Y-58684819D01*
X70451905Y-58018152D02*
X70451905Y-58541961D01*
X70451905Y-58541961D02*
X70499524Y-58637200D01*
X70499524Y-58637200D02*
X70594762Y-58684819D01*
X70594762Y-58684819D02*
X70737619Y-58684819D01*
X70737619Y-58684819D02*
X70832857Y-58637200D01*
X70832857Y-58637200D02*
X70880476Y-58589580D01*
X71761905Y-69804819D02*
X71761905Y-68804819D01*
X71761905Y-68804819D02*
X72000000Y-68804819D01*
X72000000Y-68804819D02*
X72142857Y-68852438D01*
X72142857Y-68852438D02*
X72238095Y-68947676D01*
X72238095Y-68947676D02*
X72285714Y-69042914D01*
X72285714Y-69042914D02*
X72333333Y-69233390D01*
X72333333Y-69233390D02*
X72333333Y-69376247D01*
X72333333Y-69376247D02*
X72285714Y-69566723D01*
X72285714Y-69566723D02*
X72238095Y-69661961D01*
X72238095Y-69661961D02*
X72142857Y-69757200D01*
X72142857Y-69757200D02*
X72000000Y-69804819D01*
X72000000Y-69804819D02*
X71761905Y-69804819D01*
X73190476Y-69138152D02*
X73190476Y-69804819D01*
X72952381Y-68757200D02*
X72714286Y-69471485D01*
X72714286Y-69471485D02*
X73333333Y-69471485D01*
X70833333Y-72152438D02*
X70738095Y-72104819D01*
X70738095Y-72104819D02*
X70595238Y-72104819D01*
X70595238Y-72104819D02*
X70452381Y-72152438D01*
X70452381Y-72152438D02*
X70357143Y-72247676D01*
X70357143Y-72247676D02*
X70309524Y-72342914D01*
X70309524Y-72342914D02*
X70261905Y-72533390D01*
X70261905Y-72533390D02*
X70261905Y-72676247D01*
X70261905Y-72676247D02*
X70309524Y-72866723D01*
X70309524Y-72866723D02*
X70357143Y-72961961D01*
X70357143Y-72961961D02*
X70452381Y-73057200D01*
X70452381Y-73057200D02*
X70595238Y-73104819D01*
X70595238Y-73104819D02*
X70690476Y-73104819D01*
X70690476Y-73104819D02*
X70833333Y-73057200D01*
X70833333Y-73057200D02*
X70880952Y-73009580D01*
X70880952Y-73009580D02*
X70880952Y-72676247D01*
X70880952Y-72676247D02*
X70690476Y-72676247D01*
X71880952Y-73104819D02*
X71547619Y-72628628D01*
X71309524Y-73104819D02*
X71309524Y-72104819D01*
X71309524Y-72104819D02*
X71690476Y-72104819D01*
X71690476Y-72104819D02*
X71785714Y-72152438D01*
X71785714Y-72152438D02*
X71833333Y-72200057D01*
X71833333Y-72200057D02*
X71880952Y-72295295D01*
X71880952Y-72295295D02*
X71880952Y-72438152D01*
X71880952Y-72438152D02*
X71833333Y-72533390D01*
X71833333Y-72533390D02*
X71785714Y-72581009D01*
X71785714Y-72581009D02*
X71690476Y-72628628D01*
X71690476Y-72628628D02*
X71309524Y-72628628D01*
X72309524Y-72581009D02*
X72642857Y-72581009D01*
X72785714Y-73104819D02*
X72309524Y-73104819D01*
X72309524Y-73104819D02*
X72309524Y-72104819D01*
X72309524Y-72104819D02*
X72785714Y-72104819D01*
X73214286Y-72581009D02*
X73547619Y-72581009D01*
X73690476Y-73104819D02*
X73214286Y-73104819D01*
X73214286Y-73104819D02*
X73214286Y-72104819D01*
X73214286Y-72104819D02*
X73690476Y-72104819D01*
X74119048Y-73104819D02*
X74119048Y-72104819D01*
X74119048Y-72104819D02*
X74690476Y-73104819D01*
X74690476Y-73104819D02*
X74690476Y-72104819D01*
X67367142Y-51294819D02*
X67033809Y-50818628D01*
X66795714Y-51294819D02*
X66795714Y-50294819D01*
X66795714Y-50294819D02*
X67176666Y-50294819D01*
X67176666Y-50294819D02*
X67271904Y-50342438D01*
X67271904Y-50342438D02*
X67319523Y-50390057D01*
X67319523Y-50390057D02*
X67367142Y-50485295D01*
X67367142Y-50485295D02*
X67367142Y-50628152D01*
X67367142Y-50628152D02*
X67319523Y-50723390D01*
X67319523Y-50723390D02*
X67271904Y-50771009D01*
X67271904Y-50771009D02*
X67176666Y-50818628D01*
X67176666Y-50818628D02*
X66795714Y-50818628D01*
X68319523Y-51294819D02*
X67748095Y-51294819D01*
X68033809Y-51294819D02*
X68033809Y-50294819D01*
X68033809Y-50294819D02*
X67938571Y-50437676D01*
X67938571Y-50437676D02*
X67843333Y-50532914D01*
X67843333Y-50532914D02*
X67748095Y-50580533D01*
X69271904Y-51294819D02*
X68700476Y-51294819D01*
X68986190Y-51294819D02*
X68986190Y-50294819D01*
X68986190Y-50294819D02*
X68890952Y-50437676D01*
X68890952Y-50437676D02*
X68795714Y-50532914D01*
X68795714Y-50532914D02*
X68700476Y-50580533D01*
X71771428Y-50294819D02*
X71295238Y-50294819D01*
X71295238Y-50294819D02*
X71247619Y-50771009D01*
X71247619Y-50771009D02*
X71295238Y-50723390D01*
X71295238Y-50723390D02*
X71390476Y-50675771D01*
X71390476Y-50675771D02*
X71628571Y-50675771D01*
X71628571Y-50675771D02*
X71723809Y-50723390D01*
X71723809Y-50723390D02*
X71771428Y-50771009D01*
X71771428Y-50771009D02*
X71819047Y-50866247D01*
X71819047Y-50866247D02*
X71819047Y-51104342D01*
X71819047Y-51104342D02*
X71771428Y-51199580D01*
X71771428Y-51199580D02*
X71723809Y-51247200D01*
X71723809Y-51247200D02*
X71628571Y-51294819D01*
X71628571Y-51294819D02*
X71390476Y-51294819D01*
X71390476Y-51294819D02*
X71295238Y-51247200D01*
X71295238Y-51247200D02*
X71247619Y-51199580D01*
X72247619Y-51294819D02*
X72247619Y-50628152D01*
X72247619Y-50723390D02*
X72295238Y-50675771D01*
X72295238Y-50675771D02*
X72390476Y-50628152D01*
X72390476Y-50628152D02*
X72533333Y-50628152D01*
X72533333Y-50628152D02*
X72628571Y-50675771D01*
X72628571Y-50675771D02*
X72676190Y-50771009D01*
X72676190Y-50771009D02*
X72676190Y-51294819D01*
X72676190Y-50771009D02*
X72723809Y-50675771D01*
X72723809Y-50675771D02*
X72819047Y-50628152D01*
X72819047Y-50628152D02*
X72961904Y-50628152D01*
X72961904Y-50628152D02*
X73057143Y-50675771D01*
X73057143Y-50675771D02*
X73104762Y-50771009D01*
X73104762Y-50771009D02*
X73104762Y-51294819D01*
X91257142Y-69804819D02*
X90923809Y-69328628D01*
X90685714Y-69804819D02*
X90685714Y-68804819D01*
X90685714Y-68804819D02*
X91066666Y-68804819D01*
X91066666Y-68804819D02*
X91161904Y-68852438D01*
X91161904Y-68852438D02*
X91209523Y-68900057D01*
X91209523Y-68900057D02*
X91257142Y-68995295D01*
X91257142Y-68995295D02*
X91257142Y-69138152D01*
X91257142Y-69138152D02*
X91209523Y-69233390D01*
X91209523Y-69233390D02*
X91161904Y-69281009D01*
X91161904Y-69281009D02*
X91066666Y-69328628D01*
X91066666Y-69328628D02*
X90685714Y-69328628D01*
X92209523Y-69804819D02*
X91638095Y-69804819D01*
X91923809Y-69804819D02*
X91923809Y-68804819D01*
X91923809Y-68804819D02*
X91828571Y-68947676D01*
X91828571Y-68947676D02*
X91733333Y-69042914D01*
X91733333Y-69042914D02*
X91638095Y-69090533D01*
X93114285Y-68804819D02*
X92638095Y-68804819D01*
X92638095Y-68804819D02*
X92590476Y-69281009D01*
X92590476Y-69281009D02*
X92638095Y-69233390D01*
X92638095Y-69233390D02*
X92733333Y-69185771D01*
X92733333Y-69185771D02*
X92971428Y-69185771D01*
X92971428Y-69185771D02*
X93066666Y-69233390D01*
X93066666Y-69233390D02*
X93114285Y-69281009D01*
X93114285Y-69281009D02*
X93161904Y-69376247D01*
X93161904Y-69376247D02*
X93161904Y-69614342D01*
X93161904Y-69614342D02*
X93114285Y-69709580D01*
X93114285Y-69709580D02*
X93066666Y-69757200D01*
X93066666Y-69757200D02*
X92971428Y-69804819D01*
X92971428Y-69804819D02*
X92733333Y-69804819D01*
X92733333Y-69804819D02*
X92638095Y-69757200D01*
X92638095Y-69757200D02*
X92590476Y-69709580D01*
X90828571Y-73104819D02*
X90257143Y-73104819D01*
X90542857Y-73104819D02*
X90542857Y-72104819D01*
X90542857Y-72104819D02*
X90447619Y-72247676D01*
X90447619Y-72247676D02*
X90352381Y-72342914D01*
X90352381Y-72342914D02*
X90257143Y-72390533D01*
X91447619Y-72104819D02*
X91542857Y-72104819D01*
X91542857Y-72104819D02*
X91638095Y-72152438D01*
X91638095Y-72152438D02*
X91685714Y-72200057D01*
X91685714Y-72200057D02*
X91733333Y-72295295D01*
X91733333Y-72295295D02*
X91780952Y-72485771D01*
X91780952Y-72485771D02*
X91780952Y-72723866D01*
X91780952Y-72723866D02*
X91733333Y-72914342D01*
X91733333Y-72914342D02*
X91685714Y-73009580D01*
X91685714Y-73009580D02*
X91638095Y-73057200D01*
X91638095Y-73057200D02*
X91542857Y-73104819D01*
X91542857Y-73104819D02*
X91447619Y-73104819D01*
X91447619Y-73104819D02*
X91352381Y-73057200D01*
X91352381Y-73057200D02*
X91304762Y-73009580D01*
X91304762Y-73009580D02*
X91257143Y-72914342D01*
X91257143Y-72914342D02*
X91209524Y-72723866D01*
X91209524Y-72723866D02*
X91209524Y-72485771D01*
X91209524Y-72485771D02*
X91257143Y-72295295D01*
X91257143Y-72295295D02*
X91304762Y-72200057D01*
X91304762Y-72200057D02*
X91352381Y-72152438D01*
X91352381Y-72152438D02*
X91447619Y-72104819D01*
X92400000Y-72104819D02*
X92495238Y-72104819D01*
X92495238Y-72104819D02*
X92590476Y-72152438D01*
X92590476Y-72152438D02*
X92638095Y-72200057D01*
X92638095Y-72200057D02*
X92685714Y-72295295D01*
X92685714Y-72295295D02*
X92733333Y-72485771D01*
X92733333Y-72485771D02*
X92733333Y-72723866D01*
X92733333Y-72723866D02*
X92685714Y-72914342D01*
X92685714Y-72914342D02*
X92638095Y-73009580D01*
X92638095Y-73009580D02*
X92590476Y-73057200D01*
X92590476Y-73057200D02*
X92495238Y-73104819D01*
X92495238Y-73104819D02*
X92400000Y-73104819D01*
X92400000Y-73104819D02*
X92304762Y-73057200D01*
X92304762Y-73057200D02*
X92257143Y-73009580D01*
X92257143Y-73009580D02*
X92209524Y-72914342D01*
X92209524Y-72914342D02*
X92161905Y-72723866D01*
X92161905Y-72723866D02*
X92161905Y-72485771D01*
X92161905Y-72485771D02*
X92209524Y-72295295D01*
X92209524Y-72295295D02*
X92257143Y-72200057D01*
X92257143Y-72200057D02*
X92304762Y-72152438D01*
X92304762Y-72152438D02*
X92400000Y-72104819D01*
X93161905Y-73104819D02*
X93161905Y-72104819D01*
X93257143Y-72723866D02*
X93542857Y-73104819D01*
X93542857Y-72438152D02*
X93161905Y-72819104D01*
X82267142Y-66099580D02*
X82219523Y-66147200D01*
X82219523Y-66147200D02*
X82076666Y-66194819D01*
X82076666Y-66194819D02*
X81981428Y-66194819D01*
X81981428Y-66194819D02*
X81838571Y-66147200D01*
X81838571Y-66147200D02*
X81743333Y-66051961D01*
X81743333Y-66051961D02*
X81695714Y-65956723D01*
X81695714Y-65956723D02*
X81648095Y-65766247D01*
X81648095Y-65766247D02*
X81648095Y-65623390D01*
X81648095Y-65623390D02*
X81695714Y-65432914D01*
X81695714Y-65432914D02*
X81743333Y-65337676D01*
X81743333Y-65337676D02*
X81838571Y-65242438D01*
X81838571Y-65242438D02*
X81981428Y-65194819D01*
X81981428Y-65194819D02*
X82076666Y-65194819D01*
X82076666Y-65194819D02*
X82219523Y-65242438D01*
X82219523Y-65242438D02*
X82267142Y-65290057D01*
X83219523Y-66194819D02*
X82648095Y-66194819D01*
X82933809Y-66194819D02*
X82933809Y-65194819D01*
X82933809Y-65194819D02*
X82838571Y-65337676D01*
X82838571Y-65337676D02*
X82743333Y-65432914D01*
X82743333Y-65432914D02*
X82648095Y-65480533D01*
X83838571Y-65194819D02*
X83933809Y-65194819D01*
X83933809Y-65194819D02*
X84029047Y-65242438D01*
X84029047Y-65242438D02*
X84076666Y-65290057D01*
X84076666Y-65290057D02*
X84124285Y-65385295D01*
X84124285Y-65385295D02*
X84171904Y-65575771D01*
X84171904Y-65575771D02*
X84171904Y-65813866D01*
X84171904Y-65813866D02*
X84124285Y-66004342D01*
X84124285Y-66004342D02*
X84076666Y-66099580D01*
X84076666Y-66099580D02*
X84029047Y-66147200D01*
X84029047Y-66147200D02*
X83933809Y-66194819D01*
X83933809Y-66194819D02*
X83838571Y-66194819D01*
X83838571Y-66194819D02*
X83743333Y-66147200D01*
X83743333Y-66147200D02*
X83695714Y-66099580D01*
X83695714Y-66099580D02*
X83648095Y-66004342D01*
X83648095Y-66004342D02*
X83600476Y-65813866D01*
X83600476Y-65813866D02*
X83600476Y-65575771D01*
X83600476Y-65575771D02*
X83648095Y-65385295D01*
X83648095Y-65385295D02*
X83695714Y-65290057D01*
X83695714Y-65290057D02*
X83743333Y-65242438D01*
X83743333Y-65242438D02*
X83838571Y-65194819D01*
X82437142Y-67634819D02*
X81865714Y-67634819D01*
X82151428Y-67634819D02*
X82151428Y-66634819D01*
X82151428Y-66634819D02*
X82056190Y-66777676D01*
X82056190Y-66777676D02*
X81960952Y-66872914D01*
X81960952Y-66872914D02*
X81865714Y-66920533D01*
X83056190Y-66634819D02*
X83151428Y-66634819D01*
X83151428Y-66634819D02*
X83246666Y-66682438D01*
X83246666Y-66682438D02*
X83294285Y-66730057D01*
X83294285Y-66730057D02*
X83341904Y-66825295D01*
X83341904Y-66825295D02*
X83389523Y-67015771D01*
X83389523Y-67015771D02*
X83389523Y-67253866D01*
X83389523Y-67253866D02*
X83341904Y-67444342D01*
X83341904Y-67444342D02*
X83294285Y-67539580D01*
X83294285Y-67539580D02*
X83246666Y-67587200D01*
X83246666Y-67587200D02*
X83151428Y-67634819D01*
X83151428Y-67634819D02*
X83056190Y-67634819D01*
X83056190Y-67634819D02*
X82960952Y-67587200D01*
X82960952Y-67587200D02*
X82913333Y-67539580D01*
X82913333Y-67539580D02*
X82865714Y-67444342D01*
X82865714Y-67444342D02*
X82818095Y-67253866D01*
X82818095Y-67253866D02*
X82818095Y-67015771D01*
X82818095Y-67015771D02*
X82865714Y-66825295D01*
X82865714Y-66825295D02*
X82913333Y-66730057D01*
X82913333Y-66730057D02*
X82960952Y-66682438D01*
X82960952Y-66682438D02*
X83056190Y-66634819D01*
X84246666Y-66968152D02*
X84246666Y-67634819D01*
X83818095Y-66968152D02*
X83818095Y-67491961D01*
X83818095Y-67491961D02*
X83865714Y-67587200D01*
X83865714Y-67587200D02*
X83960952Y-67634819D01*
X83960952Y-67634819D02*
X84103809Y-67634819D01*
X84103809Y-67634819D02*
X84199047Y-67587200D01*
X84199047Y-67587200D02*
X84246666Y-67539580D01*
X81714286Y-63164819D02*
X82285714Y-63164819D01*
X82000000Y-64164819D02*
X82000000Y-63164819D01*
X82619048Y-64164819D02*
X82619048Y-63164819D01*
X82619048Y-63641009D02*
X83190476Y-63641009D01*
X83190476Y-64164819D02*
X83190476Y-63164819D01*
X84190476Y-64164819D02*
X83619048Y-64164819D01*
X83904762Y-64164819D02*
X83904762Y-63164819D01*
X83904762Y-63164819D02*
X83809524Y-63307676D01*
X83809524Y-63307676D02*
X83714286Y-63402914D01*
X83714286Y-63402914D02*
X83619048Y-63450533D01*
X76164761Y-51390057D02*
X76069523Y-51342438D01*
X76069523Y-51342438D02*
X75974285Y-51247200D01*
X75974285Y-51247200D02*
X75831428Y-51104342D01*
X75831428Y-51104342D02*
X75736190Y-51056723D01*
X75736190Y-51056723D02*
X75640952Y-51056723D01*
X75688571Y-51294819D02*
X75593333Y-51247200D01*
X75593333Y-51247200D02*
X75498095Y-51151961D01*
X75498095Y-51151961D02*
X75450476Y-50961485D01*
X75450476Y-50961485D02*
X75450476Y-50628152D01*
X75450476Y-50628152D02*
X75498095Y-50437676D01*
X75498095Y-50437676D02*
X75593333Y-50342438D01*
X75593333Y-50342438D02*
X75688571Y-50294819D01*
X75688571Y-50294819D02*
X75879047Y-50294819D01*
X75879047Y-50294819D02*
X75974285Y-50342438D01*
X75974285Y-50342438D02*
X76069523Y-50437676D01*
X76069523Y-50437676D02*
X76117142Y-50628152D01*
X76117142Y-50628152D02*
X76117142Y-50961485D01*
X76117142Y-50961485D02*
X76069523Y-51151961D01*
X76069523Y-51151961D02*
X75974285Y-51247200D01*
X75974285Y-51247200D02*
X75879047Y-51294819D01*
X75879047Y-51294819D02*
X75688571Y-51294819D01*
X77069523Y-51294819D02*
X76498095Y-51294819D01*
X76783809Y-51294819D02*
X76783809Y-50294819D01*
X76783809Y-50294819D02*
X76688571Y-50437676D01*
X76688571Y-50437676D02*
X76593333Y-50532914D01*
X76593333Y-50532914D02*
X76498095Y-50580533D01*
X78112857Y-51294819D02*
X78112857Y-50294819D01*
X78112857Y-50294819D02*
X78684285Y-51294819D01*
X78684285Y-51294819D02*
X78684285Y-50294819D01*
X79160476Y-51294819D02*
X79160476Y-50294819D01*
X79160476Y-50294819D02*
X79493809Y-51009104D01*
X79493809Y-51009104D02*
X79827142Y-50294819D01*
X79827142Y-50294819D02*
X79827142Y-51294819D01*
X80493809Y-50294819D02*
X80684285Y-50294819D01*
X80684285Y-50294819D02*
X80779523Y-50342438D01*
X80779523Y-50342438D02*
X80874761Y-50437676D01*
X80874761Y-50437676D02*
X80922380Y-50628152D01*
X80922380Y-50628152D02*
X80922380Y-50961485D01*
X80922380Y-50961485D02*
X80874761Y-51151961D01*
X80874761Y-51151961D02*
X80779523Y-51247200D01*
X80779523Y-51247200D02*
X80684285Y-51294819D01*
X80684285Y-51294819D02*
X80493809Y-51294819D01*
X80493809Y-51294819D02*
X80398571Y-51247200D01*
X80398571Y-51247200D02*
X80303333Y-51151961D01*
X80303333Y-51151961D02*
X80255714Y-50961485D01*
X80255714Y-50961485D02*
X80255714Y-50628152D01*
X80255714Y-50628152D02*
X80303333Y-50437676D01*
X80303333Y-50437676D02*
X80398571Y-50342438D01*
X80398571Y-50342438D02*
X80493809Y-50294819D01*
X81303333Y-51247200D02*
X81446190Y-51294819D01*
X81446190Y-51294819D02*
X81684285Y-51294819D01*
X81684285Y-51294819D02*
X81779523Y-51247200D01*
X81779523Y-51247200D02*
X81827142Y-51199580D01*
X81827142Y-51199580D02*
X81874761Y-51104342D01*
X81874761Y-51104342D02*
X81874761Y-51009104D01*
X81874761Y-51009104D02*
X81827142Y-50913866D01*
X81827142Y-50913866D02*
X81779523Y-50866247D01*
X81779523Y-50866247D02*
X81684285Y-50818628D01*
X81684285Y-50818628D02*
X81493809Y-50771009D01*
X81493809Y-50771009D02*
X81398571Y-50723390D01*
X81398571Y-50723390D02*
X81350952Y-50675771D01*
X81350952Y-50675771D02*
X81303333Y-50580533D01*
X81303333Y-50580533D02*
X81303333Y-50485295D01*
X81303333Y-50485295D02*
X81350952Y-50390057D01*
X81350952Y-50390057D02*
X81398571Y-50342438D01*
X81398571Y-50342438D02*
X81493809Y-50294819D01*
X81493809Y-50294819D02*
X81731904Y-50294819D01*
X81731904Y-50294819D02*
X81874761Y-50342438D01*
X66273333Y-59404819D02*
X65940000Y-58928628D01*
X65701905Y-59404819D02*
X65701905Y-58404819D01*
X65701905Y-58404819D02*
X66082857Y-58404819D01*
X66082857Y-58404819D02*
X66178095Y-58452438D01*
X66178095Y-58452438D02*
X66225714Y-58500057D01*
X66225714Y-58500057D02*
X66273333Y-58595295D01*
X66273333Y-58595295D02*
X66273333Y-58738152D01*
X66273333Y-58738152D02*
X66225714Y-58833390D01*
X66225714Y-58833390D02*
X66178095Y-58881009D01*
X66178095Y-58881009D02*
X66082857Y-58928628D01*
X66082857Y-58928628D02*
X65701905Y-58928628D01*
X66844762Y-58833390D02*
X66749524Y-58785771D01*
X66749524Y-58785771D02*
X66701905Y-58738152D01*
X66701905Y-58738152D02*
X66654286Y-58642914D01*
X66654286Y-58642914D02*
X66654286Y-58595295D01*
X66654286Y-58595295D02*
X66701905Y-58500057D01*
X66701905Y-58500057D02*
X66749524Y-58452438D01*
X66749524Y-58452438D02*
X66844762Y-58404819D01*
X66844762Y-58404819D02*
X67035238Y-58404819D01*
X67035238Y-58404819D02*
X67130476Y-58452438D01*
X67130476Y-58452438D02*
X67178095Y-58500057D01*
X67178095Y-58500057D02*
X67225714Y-58595295D01*
X67225714Y-58595295D02*
X67225714Y-58642914D01*
X67225714Y-58642914D02*
X67178095Y-58738152D01*
X67178095Y-58738152D02*
X67130476Y-58785771D01*
X67130476Y-58785771D02*
X67035238Y-58833390D01*
X67035238Y-58833390D02*
X66844762Y-58833390D01*
X66844762Y-58833390D02*
X66749524Y-58881009D01*
X66749524Y-58881009D02*
X66701905Y-58928628D01*
X66701905Y-58928628D02*
X66654286Y-59023866D01*
X66654286Y-59023866D02*
X66654286Y-59214342D01*
X66654286Y-59214342D02*
X66701905Y-59309580D01*
X66701905Y-59309580D02*
X66749524Y-59357200D01*
X66749524Y-59357200D02*
X66844762Y-59404819D01*
X66844762Y-59404819D02*
X67035238Y-59404819D01*
X67035238Y-59404819D02*
X67130476Y-59357200D01*
X67130476Y-59357200D02*
X67178095Y-59309580D01*
X67178095Y-59309580D02*
X67225714Y-59214342D01*
X67225714Y-59214342D02*
X67225714Y-59023866D01*
X67225714Y-59023866D02*
X67178095Y-58928628D01*
X67178095Y-58928628D02*
X67130476Y-58881009D01*
X67130476Y-58881009D02*
X67035238Y-58833390D01*
X63057142Y-59974819D02*
X62580952Y-59974819D01*
X62580952Y-59974819D02*
X62533333Y-60451009D01*
X62533333Y-60451009D02*
X62580952Y-60403390D01*
X62580952Y-60403390D02*
X62676190Y-60355771D01*
X62676190Y-60355771D02*
X62914285Y-60355771D01*
X62914285Y-60355771D02*
X63009523Y-60403390D01*
X63009523Y-60403390D02*
X63057142Y-60451009D01*
X63057142Y-60451009D02*
X63104761Y-60546247D01*
X63104761Y-60546247D02*
X63104761Y-60784342D01*
X63104761Y-60784342D02*
X63057142Y-60879580D01*
X63057142Y-60879580D02*
X63009523Y-60927200D01*
X63009523Y-60927200D02*
X62914285Y-60974819D01*
X62914285Y-60974819D02*
X62676190Y-60974819D01*
X62676190Y-60974819D02*
X62580952Y-60927200D01*
X62580952Y-60927200D02*
X62533333Y-60879580D01*
X63533333Y-60974819D02*
X63533333Y-59974819D01*
X63628571Y-60593866D02*
X63914285Y-60974819D01*
X63914285Y-60308152D02*
X63533333Y-60689104D01*
X64866666Y-60974819D02*
X64295238Y-60974819D01*
X64580952Y-60974819D02*
X64580952Y-59974819D01*
X64580952Y-59974819D02*
X64485714Y-60117676D01*
X64485714Y-60117676D02*
X64390476Y-60212914D01*
X64390476Y-60212914D02*
X64295238Y-60260533D01*
X76857142Y-56304819D02*
X76523809Y-55828628D01*
X76285714Y-56304819D02*
X76285714Y-55304819D01*
X76285714Y-55304819D02*
X76666666Y-55304819D01*
X76666666Y-55304819D02*
X76761904Y-55352438D01*
X76761904Y-55352438D02*
X76809523Y-55400057D01*
X76809523Y-55400057D02*
X76857142Y-55495295D01*
X76857142Y-55495295D02*
X76857142Y-55638152D01*
X76857142Y-55638152D02*
X76809523Y-55733390D01*
X76809523Y-55733390D02*
X76761904Y-55781009D01*
X76761904Y-55781009D02*
X76666666Y-55828628D01*
X76666666Y-55828628D02*
X76285714Y-55828628D01*
X77809523Y-56304819D02*
X77238095Y-56304819D01*
X77523809Y-56304819D02*
X77523809Y-55304819D01*
X77523809Y-55304819D02*
X77428571Y-55447676D01*
X77428571Y-55447676D02*
X77333333Y-55542914D01*
X77333333Y-55542914D02*
X77238095Y-55590533D01*
X78142857Y-55304819D02*
X78761904Y-55304819D01*
X78761904Y-55304819D02*
X78428571Y-55685771D01*
X78428571Y-55685771D02*
X78571428Y-55685771D01*
X78571428Y-55685771D02*
X78666666Y-55733390D01*
X78666666Y-55733390D02*
X78714285Y-55781009D01*
X78714285Y-55781009D02*
X78761904Y-55876247D01*
X78761904Y-55876247D02*
X78761904Y-56114342D01*
X78761904Y-56114342D02*
X78714285Y-56209580D01*
X78714285Y-56209580D02*
X78666666Y-56257200D01*
X78666666Y-56257200D02*
X78571428Y-56304819D01*
X78571428Y-56304819D02*
X78285714Y-56304819D01*
X78285714Y-56304819D02*
X78190476Y-56257200D01*
X78190476Y-56257200D02*
X78142857Y-56209580D01*
X76833333Y-59604819D02*
X76261905Y-59604819D01*
X76547619Y-59604819D02*
X76547619Y-58604819D01*
X76547619Y-58604819D02*
X76452381Y-58747676D01*
X76452381Y-58747676D02*
X76357143Y-58842914D01*
X76357143Y-58842914D02*
X76261905Y-58890533D01*
X77452381Y-58604819D02*
X77547619Y-58604819D01*
X77547619Y-58604819D02*
X77642857Y-58652438D01*
X77642857Y-58652438D02*
X77690476Y-58700057D01*
X77690476Y-58700057D02*
X77738095Y-58795295D01*
X77738095Y-58795295D02*
X77785714Y-58985771D01*
X77785714Y-58985771D02*
X77785714Y-59223866D01*
X77785714Y-59223866D02*
X77738095Y-59414342D01*
X77738095Y-59414342D02*
X77690476Y-59509580D01*
X77690476Y-59509580D02*
X77642857Y-59557200D01*
X77642857Y-59557200D02*
X77547619Y-59604819D01*
X77547619Y-59604819D02*
X77452381Y-59604819D01*
X77452381Y-59604819D02*
X77357143Y-59557200D01*
X77357143Y-59557200D02*
X77309524Y-59509580D01*
X77309524Y-59509580D02*
X77261905Y-59414342D01*
X77261905Y-59414342D02*
X77214286Y-59223866D01*
X77214286Y-59223866D02*
X77214286Y-58985771D01*
X77214286Y-58985771D02*
X77261905Y-58795295D01*
X77261905Y-58795295D02*
X77309524Y-58700057D01*
X77309524Y-58700057D02*
X77357143Y-58652438D01*
X77357143Y-58652438D02*
X77452381Y-58604819D01*
X78404762Y-58604819D02*
X78500000Y-58604819D01*
X78500000Y-58604819D02*
X78595238Y-58652438D01*
X78595238Y-58652438D02*
X78642857Y-58700057D01*
X78642857Y-58700057D02*
X78690476Y-58795295D01*
X78690476Y-58795295D02*
X78738095Y-58985771D01*
X78738095Y-58985771D02*
X78738095Y-59223866D01*
X78738095Y-59223866D02*
X78690476Y-59414342D01*
X78690476Y-59414342D02*
X78642857Y-59509580D01*
X78642857Y-59509580D02*
X78595238Y-59557200D01*
X78595238Y-59557200D02*
X78500000Y-59604819D01*
X78500000Y-59604819D02*
X78404762Y-59604819D01*
X78404762Y-59604819D02*
X78309524Y-59557200D01*
X78309524Y-59557200D02*
X78261905Y-59509580D01*
X78261905Y-59509580D02*
X78214286Y-59414342D01*
X78214286Y-59414342D02*
X78166667Y-59223866D01*
X78166667Y-59223866D02*
X78166667Y-58985771D01*
X78166667Y-58985771D02*
X78214286Y-58795295D01*
X78214286Y-58795295D02*
X78261905Y-58700057D01*
X78261905Y-58700057D02*
X78309524Y-58652438D01*
X78309524Y-58652438D02*
X78404762Y-58604819D01*
X82377142Y-60839580D02*
X82329523Y-60887200D01*
X82329523Y-60887200D02*
X82186666Y-60934819D01*
X82186666Y-60934819D02*
X82091428Y-60934819D01*
X82091428Y-60934819D02*
X81948571Y-60887200D01*
X81948571Y-60887200D02*
X81853333Y-60791961D01*
X81853333Y-60791961D02*
X81805714Y-60696723D01*
X81805714Y-60696723D02*
X81758095Y-60506247D01*
X81758095Y-60506247D02*
X81758095Y-60363390D01*
X81758095Y-60363390D02*
X81805714Y-60172914D01*
X81805714Y-60172914D02*
X81853333Y-60077676D01*
X81853333Y-60077676D02*
X81948571Y-59982438D01*
X81948571Y-59982438D02*
X82091428Y-59934819D01*
X82091428Y-59934819D02*
X82186666Y-59934819D01*
X82186666Y-59934819D02*
X82329523Y-59982438D01*
X82329523Y-59982438D02*
X82377142Y-60030057D01*
X83329523Y-60934819D02*
X82758095Y-60934819D01*
X83043809Y-60934819D02*
X83043809Y-59934819D01*
X83043809Y-59934819D02*
X82948571Y-60077676D01*
X82948571Y-60077676D02*
X82853333Y-60172914D01*
X82853333Y-60172914D02*
X82758095Y-60220533D01*
X83710476Y-60030057D02*
X83758095Y-59982438D01*
X83758095Y-59982438D02*
X83853333Y-59934819D01*
X83853333Y-59934819D02*
X84091428Y-59934819D01*
X84091428Y-59934819D02*
X84186666Y-59982438D01*
X84186666Y-59982438D02*
X84234285Y-60030057D01*
X84234285Y-60030057D02*
X84281904Y-60125295D01*
X84281904Y-60125295D02*
X84281904Y-60220533D01*
X84281904Y-60220533D02*
X84234285Y-60363390D01*
X84234285Y-60363390D02*
X83662857Y-60934819D01*
X83662857Y-60934819D02*
X84281904Y-60934819D01*
X81900952Y-62144819D02*
X81329524Y-62144819D01*
X81615238Y-62144819D02*
X81615238Y-61144819D01*
X81615238Y-61144819D02*
X81520000Y-61287676D01*
X81520000Y-61287676D02*
X81424762Y-61382914D01*
X81424762Y-61382914D02*
X81329524Y-61430533D01*
X82520000Y-61144819D02*
X82615238Y-61144819D01*
X82615238Y-61144819D02*
X82710476Y-61192438D01*
X82710476Y-61192438D02*
X82758095Y-61240057D01*
X82758095Y-61240057D02*
X82805714Y-61335295D01*
X82805714Y-61335295D02*
X82853333Y-61525771D01*
X82853333Y-61525771D02*
X82853333Y-61763866D01*
X82853333Y-61763866D02*
X82805714Y-61954342D01*
X82805714Y-61954342D02*
X82758095Y-62049580D01*
X82758095Y-62049580D02*
X82710476Y-62097200D01*
X82710476Y-62097200D02*
X82615238Y-62144819D01*
X82615238Y-62144819D02*
X82520000Y-62144819D01*
X82520000Y-62144819D02*
X82424762Y-62097200D01*
X82424762Y-62097200D02*
X82377143Y-62049580D01*
X82377143Y-62049580D02*
X82329524Y-61954342D01*
X82329524Y-61954342D02*
X82281905Y-61763866D01*
X82281905Y-61763866D02*
X82281905Y-61525771D01*
X82281905Y-61525771D02*
X82329524Y-61335295D01*
X82329524Y-61335295D02*
X82377143Y-61240057D01*
X82377143Y-61240057D02*
X82424762Y-61192438D01*
X82424762Y-61192438D02*
X82520000Y-61144819D01*
X83472381Y-61144819D02*
X83567619Y-61144819D01*
X83567619Y-61144819D02*
X83662857Y-61192438D01*
X83662857Y-61192438D02*
X83710476Y-61240057D01*
X83710476Y-61240057D02*
X83758095Y-61335295D01*
X83758095Y-61335295D02*
X83805714Y-61525771D01*
X83805714Y-61525771D02*
X83805714Y-61763866D01*
X83805714Y-61763866D02*
X83758095Y-61954342D01*
X83758095Y-61954342D02*
X83710476Y-62049580D01*
X83710476Y-62049580D02*
X83662857Y-62097200D01*
X83662857Y-62097200D02*
X83567619Y-62144819D01*
X83567619Y-62144819D02*
X83472381Y-62144819D01*
X83472381Y-62144819D02*
X83377143Y-62097200D01*
X83377143Y-62097200D02*
X83329524Y-62049580D01*
X83329524Y-62049580D02*
X83281905Y-61954342D01*
X83281905Y-61954342D02*
X83234286Y-61763866D01*
X83234286Y-61763866D02*
X83234286Y-61525771D01*
X83234286Y-61525771D02*
X83281905Y-61335295D01*
X83281905Y-61335295D02*
X83329524Y-61240057D01*
X83329524Y-61240057D02*
X83377143Y-61192438D01*
X83377143Y-61192438D02*
X83472381Y-61144819D01*
X84234286Y-61478152D02*
X84234286Y-62144819D01*
X84234286Y-61573390D02*
X84281905Y-61525771D01*
X84281905Y-61525771D02*
X84377143Y-61478152D01*
X84377143Y-61478152D02*
X84520000Y-61478152D01*
X84520000Y-61478152D02*
X84615238Y-61525771D01*
X84615238Y-61525771D02*
X84662857Y-61621009D01*
X84662857Y-61621009D02*
X84662857Y-62144819D01*
X71738095Y-58354819D02*
X71738095Y-59164342D01*
X71738095Y-59164342D02*
X71785714Y-59259580D01*
X71785714Y-59259580D02*
X71833333Y-59307200D01*
X71833333Y-59307200D02*
X71928571Y-59354819D01*
X71928571Y-59354819D02*
X72119047Y-59354819D01*
X72119047Y-59354819D02*
X72214285Y-59307200D01*
X72214285Y-59307200D02*
X72261904Y-59259580D01*
X72261904Y-59259580D02*
X72309523Y-59164342D01*
X72309523Y-59164342D02*
X72309523Y-58354819D01*
X72738095Y-58450057D02*
X72785714Y-58402438D01*
X72785714Y-58402438D02*
X72880952Y-58354819D01*
X72880952Y-58354819D02*
X73119047Y-58354819D01*
X73119047Y-58354819D02*
X73214285Y-58402438D01*
X73214285Y-58402438D02*
X73261904Y-58450057D01*
X73261904Y-58450057D02*
X73309523Y-58545295D01*
X73309523Y-58545295D02*
X73309523Y-58640533D01*
X73309523Y-58640533D02*
X73261904Y-58783390D01*
X73261904Y-58783390D02*
X72690476Y-59354819D01*
X72690476Y-59354819D02*
X73309523Y-59354819D01*
X69380952Y-65469104D02*
X69857142Y-65469104D01*
X69285714Y-65754819D02*
X69619047Y-64754819D01*
X69619047Y-64754819D02*
X69952380Y-65754819D01*
X70285714Y-65754819D02*
X70285714Y-64754819D01*
X70285714Y-64754819D02*
X70666666Y-64754819D01*
X70666666Y-64754819D02*
X70761904Y-64802438D01*
X70761904Y-64802438D02*
X70809523Y-64850057D01*
X70809523Y-64850057D02*
X70857142Y-64945295D01*
X70857142Y-64945295D02*
X70857142Y-65088152D01*
X70857142Y-65088152D02*
X70809523Y-65183390D01*
X70809523Y-65183390D02*
X70761904Y-65231009D01*
X70761904Y-65231009D02*
X70666666Y-65278628D01*
X70666666Y-65278628D02*
X70285714Y-65278628D01*
X71190476Y-64754819D02*
X71809523Y-64754819D01*
X71809523Y-64754819D02*
X71476190Y-65135771D01*
X71476190Y-65135771D02*
X71619047Y-65135771D01*
X71619047Y-65135771D02*
X71714285Y-65183390D01*
X71714285Y-65183390D02*
X71761904Y-65231009D01*
X71761904Y-65231009D02*
X71809523Y-65326247D01*
X71809523Y-65326247D02*
X71809523Y-65564342D01*
X71809523Y-65564342D02*
X71761904Y-65659580D01*
X71761904Y-65659580D02*
X71714285Y-65707200D01*
X71714285Y-65707200D02*
X71619047Y-65754819D01*
X71619047Y-65754819D02*
X71333333Y-65754819D01*
X71333333Y-65754819D02*
X71238095Y-65707200D01*
X71238095Y-65707200D02*
X71190476Y-65659580D01*
X72142857Y-64754819D02*
X72761904Y-64754819D01*
X72761904Y-64754819D02*
X72428571Y-65135771D01*
X72428571Y-65135771D02*
X72571428Y-65135771D01*
X72571428Y-65135771D02*
X72666666Y-65183390D01*
X72666666Y-65183390D02*
X72714285Y-65231009D01*
X72714285Y-65231009D02*
X72761904Y-65326247D01*
X72761904Y-65326247D02*
X72761904Y-65564342D01*
X72761904Y-65564342D02*
X72714285Y-65659580D01*
X72714285Y-65659580D02*
X72666666Y-65707200D01*
X72666666Y-65707200D02*
X72571428Y-65754819D01*
X72571428Y-65754819D02*
X72285714Y-65754819D01*
X72285714Y-65754819D02*
X72190476Y-65707200D01*
X72190476Y-65707200D02*
X72142857Y-65659580D01*
X73095238Y-64754819D02*
X73761904Y-64754819D01*
X73761904Y-64754819D02*
X73333333Y-65754819D01*
X74095238Y-64850057D02*
X74142857Y-64802438D01*
X74142857Y-64802438D02*
X74238095Y-64754819D01*
X74238095Y-64754819D02*
X74476190Y-64754819D01*
X74476190Y-64754819D02*
X74571428Y-64802438D01*
X74571428Y-64802438D02*
X74619047Y-64850057D01*
X74619047Y-64850057D02*
X74666666Y-64945295D01*
X74666666Y-64945295D02*
X74666666Y-65040533D01*
X74666666Y-65040533D02*
X74619047Y-65183390D01*
X74619047Y-65183390D02*
X74047619Y-65754819D01*
X74047619Y-65754819D02*
X74666666Y-65754819D01*
X75047619Y-65707200D02*
X75190476Y-65754819D01*
X75190476Y-65754819D02*
X75428571Y-65754819D01*
X75428571Y-65754819D02*
X75523809Y-65707200D01*
X75523809Y-65707200D02*
X75571428Y-65659580D01*
X75571428Y-65659580D02*
X75619047Y-65564342D01*
X75619047Y-65564342D02*
X75619047Y-65469104D01*
X75619047Y-65469104D02*
X75571428Y-65373866D01*
X75571428Y-65373866D02*
X75523809Y-65326247D01*
X75523809Y-65326247D02*
X75428571Y-65278628D01*
X75428571Y-65278628D02*
X75238095Y-65231009D01*
X75238095Y-65231009D02*
X75142857Y-65183390D01*
X75142857Y-65183390D02*
X75095238Y-65135771D01*
X75095238Y-65135771D02*
X75047619Y-65040533D01*
X75047619Y-65040533D02*
X75047619Y-64945295D01*
X75047619Y-64945295D02*
X75095238Y-64850057D01*
X75095238Y-64850057D02*
X75142857Y-64802438D01*
X75142857Y-64802438D02*
X75238095Y-64754819D01*
X75238095Y-64754819D02*
X75476190Y-64754819D01*
X75476190Y-64754819D02*
X75619047Y-64802438D01*
D12*
%TO.C,J11*%
X92170000Y-65810000D02*
X92170000Y-55590000D01*
X94830000Y-55590000D02*
X92170000Y-55590000D01*
X94830000Y-65810000D02*
X92170000Y-65810000D01*
X94830000Y-65810000D02*
X94830000Y-55590000D01*
X94830000Y-67080000D02*
X94830000Y-68410000D01*
X94830000Y-68410000D02*
X93500000Y-68410000D01*
%TO.C,Q2*%
X82500000Y-51940000D02*
X81850000Y-51940000D01*
X82500000Y-51940000D02*
X83150000Y-51940000D01*
X82500000Y-55060000D02*
X81850000Y-55060000D01*
X82500000Y-55060000D02*
X83150000Y-55060000D01*
X83902500Y-55340000D02*
X83422500Y-55340000D01*
X83662500Y-55010000D01*
X83902500Y-55340000D01*
G36*
X83902500Y-55340000D02*
G01*
X83422500Y-55340000D01*
X83662500Y-55010000D01*
X83902500Y-55340000D01*
G37*
%TO.C,C9*%
X63090000Y-53201248D02*
X63090000Y-54623752D01*
X64910000Y-53201248D02*
X64910000Y-54623752D01*
%TO.C,C14*%
X89265000Y-53146248D02*
X89265000Y-53668752D01*
X90735000Y-53146248D02*
X90735000Y-53668752D01*
%TO.C,R12*%
X82272936Y-56765000D02*
X82727064Y-56765000D01*
X82272936Y-58235000D02*
X82727064Y-58235000D01*
%TO.C,C13*%
X86090000Y-53221248D02*
X86090000Y-54643752D01*
X87910000Y-53221248D02*
X87910000Y-54643752D01*
%TO.C,D3*%
X51140000Y-70040000D02*
X51140000Y-71960000D01*
X51140000Y-71960000D02*
X54000000Y-71960000D01*
X54000000Y-70040000D02*
X51140000Y-70040000D01*
%TO.C,D5*%
X85640000Y-70040000D02*
X85640000Y-71960000D01*
X85640000Y-71960000D02*
X88500000Y-71960000D01*
X88500000Y-70040000D02*
X85640000Y-70040000D01*
%TO.C,C8*%
X60265000Y-53651248D02*
X60265000Y-54173752D01*
X61735000Y-53651248D02*
X61735000Y-54173752D01*
%TO.C,R14*%
X72272936Y-66315000D02*
X72727064Y-66315000D01*
X72272936Y-67785000D02*
X72727064Y-67785000D01*
%TO.C,R10*%
X57627064Y-70265000D02*
X57172936Y-70265000D01*
X57627064Y-71735000D02*
X57172936Y-71735000D01*
%TO.C,R9*%
X66772936Y-62765000D02*
X67227064Y-62765000D01*
X66772936Y-64235000D02*
X67227064Y-64235000D01*
%TO.C,C11*%
X73423752Y-56805000D02*
X72901248Y-56805000D01*
X73423752Y-58275000D02*
X72901248Y-58275000D01*
%TO.C,D4*%
X70640000Y-70040000D02*
X70640000Y-71960000D01*
X70640000Y-71960000D02*
X73500000Y-71960000D01*
X73500000Y-70040000D02*
X70640000Y-70040000D01*
%TO.C,R11*%
X67822936Y-51790000D02*
X72177064Y-51790000D01*
X67822936Y-55210000D02*
X72177064Y-55210000D01*
%TO.C,R15*%
X92127064Y-70265000D02*
X91672936Y-70265000D01*
X92127064Y-71735000D02*
X91672936Y-71735000D01*
%TO.C,C10*%
X78261248Y-65705000D02*
X78783752Y-65705000D01*
X78261248Y-67175000D02*
X78783752Y-67175000D01*
%TO.C,J10*%
X76950000Y-73330000D02*
X76950000Y-72000000D01*
X78280000Y-73330000D02*
X76950000Y-73330000D01*
X79550000Y-70670000D02*
X84690000Y-70670000D01*
X79550000Y-73330000D02*
X79550000Y-70670000D01*
X79550000Y-73330000D02*
X84690000Y-73330000D01*
X84690000Y-73330000D02*
X84690000Y-70670000D01*
%TO.C,TH1*%
X78222936Y-62935000D02*
X78677064Y-62935000D01*
X78222936Y-64405000D02*
X78677064Y-64405000D01*
%TO.C,Q1*%
X77500000Y-51940000D02*
X76850000Y-51940000D01*
X77500000Y-51940000D02*
X78150000Y-51940000D01*
X77500000Y-55060000D02*
X76850000Y-55060000D01*
X77500000Y-55060000D02*
X78150000Y-55060000D01*
X76337500Y-51990000D02*
X76097500Y-51660000D01*
X76577500Y-51660000D01*
X76337500Y-51990000D01*
G36*
X76337500Y-51990000D02*
G01*
X76097500Y-51660000D01*
X76577500Y-51660000D01*
X76337500Y-51990000D01*
G37*
%TO.C,R8*%
X66772936Y-59765000D02*
X67227064Y-59765000D01*
X66772936Y-61235000D02*
X67227064Y-61235000D01*
%TO.C,R13*%
X77272936Y-56765000D02*
X77727064Y-56765000D01*
X77272936Y-58235000D02*
X77727064Y-58235000D01*
%TO.C,C12*%
X78201248Y-60115000D02*
X78723752Y-60115000D01*
X78201248Y-61585000D02*
X78723752Y-61585000D01*
%TO.C,J9*%
X61710000Y-70670000D02*
X61710000Y-73330000D01*
X66850000Y-70670000D02*
X61710000Y-70670000D01*
X66850000Y-70670000D02*
X66850000Y-73330000D01*
X66850000Y-73330000D02*
X61710000Y-73330000D01*
X68120000Y-70670000D02*
X69450000Y-70670000D01*
X69450000Y-70670000D02*
X69450000Y-72000000D01*
%TO.C,U2*%
X70390000Y-60365000D02*
X70390000Y-60130000D01*
X70390000Y-64110000D02*
X70390000Y-63635000D01*
X70865000Y-59890000D02*
X70690000Y-59890000D01*
X70865000Y-64110000D02*
X70390000Y-64110000D01*
X74135000Y-59890000D02*
X74610000Y-59890000D01*
X74135000Y-64110000D02*
X74610000Y-64110000D01*
X74610000Y-59890000D02*
X74610000Y-60365000D01*
X74610000Y-64110000D02*
X74610000Y-63635000D01*
X70390000Y-59890000D02*
X70150000Y-59560000D01*
X70630000Y-59560000D01*
X70390000Y-59890000D01*
G36*
X70390000Y-59890000D02*
G01*
X70150000Y-59560000D01*
X70630000Y-59560000D01*
X70390000Y-59890000D01*
G37*
%TO.C,J8*%
X50128500Y-57420000D02*
X50128500Y-66580000D01*
X51078500Y-57420000D02*
X50128500Y-57420000D01*
X51078500Y-66580000D02*
X50128500Y-66580000D01*
X55453500Y-57420000D02*
X54598500Y-57420000D01*
X55453500Y-66580000D02*
X54598500Y-66580000D01*
%TD*%
M02*
