%TF.GenerationSoftware,KiCad,Pcbnew,8.0.4*%
%TF.CreationDate,2025-01-07T17:55:23+00:00*%
%TF.ProjectId,ap3372s_usbpd,61703333-3732-4735-9f75-736270642e6b,rev?*%
%TF.SameCoordinates,Original*%
%TF.FileFunction,Copper,L2,Bot*%
%TF.FilePolarity,Positive*%
%FSLAX46Y46*%
G04 Gerber Fmt 4.6, Leading zero omitted, Abs format (unit mm)*
G04 Created by KiCad (PCBNEW 8.0.4) date 2025-01-07 17:55:23*
%MOMM*%
%LPD*%
G01*
G04 APERTURE LIST*
%TA.AperFunction,ComponentPad*%
%ADD10R,1.700000X1.700000*%
%TD*%
%TA.AperFunction,ComponentPad*%
%ADD11O,1.700000X1.700000*%
%TD*%
%TA.AperFunction,HeatsinkPad*%
%ADD12R,2.600000X2.600000*%
%TD*%
%TA.AperFunction,ComponentPad*%
%ADD13O,1.900000X1.300000*%
%TD*%
%TA.AperFunction,ViaPad*%
%ADD14C,0.600000*%
%TD*%
%TA.AperFunction,Conductor*%
%ADD15C,1.000000*%
%TD*%
%TA.AperFunction,Conductor*%
%ADD16C,0.750000*%
%TD*%
%TA.AperFunction,Conductor*%
%ADD17C,0.500000*%
%TD*%
%TA.AperFunction,Conductor*%
%ADD18C,0.250000*%
%TD*%
%TA.AperFunction,Conductor*%
%ADD19C,0.200000*%
%TD*%
G04 APERTURE END LIST*
D10*
%TO.P,J11,1,Pin_1*%
%TO.N,/VOUT*%
X93500000Y-67080000D03*
D11*
%TO.P,J11,2,Pin_2*%
%TO.N,GND2*%
X93500000Y-64540000D03*
%TO.P,J11,3,Pin_3*%
X93500000Y-62000000D03*
%TO.P,J11,4,Pin_4*%
X93500000Y-59460000D03*
%TO.P,J11,5,Pin_5*%
%TO.N,/VOUT*%
X93500000Y-56920000D03*
%TD*%
D10*
%TO.P,J10,1,Pin_1*%
%TO.N,/SDA'*%
X78280000Y-72000000D03*
D11*
%TO.P,J10,2,Pin_2*%
%TO.N,/SCL'*%
X80820000Y-72000000D03*
%TO.P,J10,3,Pin_3*%
%TO.N,GND2*%
X83360000Y-72000000D03*
%TD*%
D10*
%TO.P,J9,1,Pin_1*%
%TO.N,/DN*%
X68120000Y-72000000D03*
D11*
%TO.P,J9,2,Pin_2*%
%TO.N,/DP*%
X65580000Y-72000000D03*
%TO.P,J9,3,Pin_3*%
%TO.N,GND2*%
X63040000Y-72000000D03*
%TD*%
D12*
%TO.P,U2,25,EP*%
%TO.N,GND2*%
X72500000Y-62000000D03*
%TD*%
D13*
%TO.P,J8,S1,SHIELD*%
%TO.N,unconnected-(J8-SHIELD-PadS1)_1*%
X52836500Y-57680000D03*
%TO.N,unconnected-(J8-SHIELD-PadS1)*%
X52836500Y-66320000D03*
%TD*%
D14*
%TO.N,GND2*%
X81280000Y-60850000D03*
X60405000Y-65715000D03*
X87000000Y-57600000D03*
X70820000Y-57540000D03*
X81270000Y-63660000D03*
X65810000Y-57540000D03*
X70000000Y-68700000D03*
X58160000Y-55870000D03*
X67990000Y-61940000D03*
X90780000Y-56580000D03*
X81270000Y-66430000D03*
X62410000Y-54950000D03*
%TO.N,Net-(J8-CC1)*%
X76180000Y-60590000D03*
X64920000Y-60740000D03*
%TO.N,/DN*%
X75500000Y-59950000D03*
X63670000Y-62270000D03*
%TO.N,/DP*%
X75240000Y-58990000D03*
X62330000Y-61250000D03*
%TO.N,Net-(J8-CC2)*%
X76220000Y-61470000D03*
X68580000Y-65760000D03*
%TO.N,/VBUS*%
X59520000Y-69510000D03*
X60500000Y-64450000D03*
X60500000Y-59540000D03*
%TO.N,/SCL'*%
X76310000Y-67650000D03*
X70060000Y-66450000D03*
%TO.N,/SDA'*%
X75170000Y-67700000D03*
X69944074Y-67335926D03*
%TO.N,/G*%
X83500000Y-55760000D03*
X75010000Y-52550000D03*
%TD*%
D15*
%TO.N,GND2*%
X93500000Y-59460000D02*
X93500000Y-64540000D01*
X90780000Y-56580000D02*
X90200000Y-57160000D01*
X90200000Y-57160000D02*
X90200000Y-63780000D01*
X90200000Y-63780000D02*
X89440000Y-64540000D01*
D16*
X81990000Y-64540000D02*
X81990000Y-64380000D01*
X81990000Y-64380000D02*
X81270000Y-63660000D01*
D15*
X93500000Y-59460000D02*
X90200000Y-59460000D01*
X93500000Y-62000000D02*
X90200000Y-62000000D01*
X93500000Y-64540000D02*
X81990000Y-64540000D01*
D17*
X60405000Y-65715000D02*
X58616500Y-63926500D01*
D16*
X88250000Y-56350000D02*
X90550000Y-56350000D01*
X81270000Y-69910000D02*
X83360000Y-72000000D01*
X67655000Y-66355000D02*
X70000000Y-68700000D01*
D17*
X58160000Y-55870000D02*
X61490000Y-55870000D01*
D16*
X81280000Y-63650000D02*
X81270000Y-63660000D01*
X81270000Y-66430000D02*
X81270000Y-68650000D01*
X87000000Y-57600000D02*
X88250000Y-56350000D01*
X65810000Y-57540000D02*
X70820000Y-57540000D01*
X84040000Y-57600000D02*
X87000000Y-57600000D01*
X81270000Y-68650000D02*
X70050000Y-68650000D01*
X62410000Y-54950000D02*
X65000000Y-57540000D01*
X83980000Y-58150000D02*
X81280000Y-60850000D01*
X81280000Y-60850000D02*
X81280000Y-63650000D01*
X67655000Y-62275000D02*
X67655000Y-66355000D01*
D17*
X61490000Y-55870000D02*
X62410000Y-54950000D01*
X58616500Y-56326500D02*
X58160000Y-55870000D01*
D16*
X81270000Y-63660000D02*
X81270000Y-66430000D01*
X90550000Y-56350000D02*
X90780000Y-56580000D01*
X83980000Y-57540000D02*
X84040000Y-57600000D01*
X83980000Y-57540000D02*
X83980000Y-58150000D01*
X65000000Y-57540000D02*
X65810000Y-57540000D01*
X67990000Y-61940000D02*
X67655000Y-62275000D01*
X81270000Y-68650000D02*
X81270000Y-69910000D01*
D17*
X58616500Y-63926500D02*
X58616500Y-56326500D01*
D16*
X70050000Y-68650000D02*
X70000000Y-68700000D01*
X72440000Y-61940000D02*
X72500000Y-62000000D01*
X67990000Y-61940000D02*
X72440000Y-61940000D01*
X70820000Y-57540000D02*
X83980000Y-57540000D01*
D18*
%TO.N,Net-(J8-CC1)*%
X66080000Y-59580000D02*
X64920000Y-60740000D01*
X75256116Y-60590000D02*
X74246116Y-59580000D01*
X76180000Y-60590000D02*
X75256116Y-60590000D01*
X74246116Y-59580000D02*
X66080000Y-59580000D01*
%TO.N,/DN*%
X65333884Y-59130000D02*
X74496116Y-59130000D01*
X68120000Y-70850000D02*
X68120000Y-72000000D01*
X63670000Y-66400000D02*
X68120000Y-70850000D01*
X63670000Y-62270000D02*
X63670000Y-66400000D01*
X63670000Y-62270000D02*
X63670000Y-60793884D01*
X74496116Y-59130000D02*
X75316116Y-59950000D01*
X63670000Y-60793884D02*
X65333884Y-59130000D01*
X75316116Y-59950000D02*
X75500000Y-59950000D01*
%TO.N,/DP*%
X75240000Y-58990000D02*
X74930000Y-58680000D01*
X74930000Y-58680000D02*
X64900000Y-58680000D01*
X65580000Y-70950000D02*
X65580000Y-72000000D01*
X62330000Y-61250000D02*
X62330000Y-67700000D01*
X62330000Y-67700000D02*
X65580000Y-70950000D01*
X64900000Y-58680000D02*
X62330000Y-61250000D01*
%TO.N,Net-(J8-CC2)*%
X76220000Y-61470000D02*
X76010000Y-61680000D01*
X76010000Y-61680000D02*
X76010000Y-64870000D01*
X68590000Y-65750000D02*
X68580000Y-65760000D01*
X75130000Y-65750000D02*
X68590000Y-65750000D01*
X76010000Y-64870000D02*
X75130000Y-65750000D01*
D16*
%TO.N,/VBUS*%
X59520000Y-69510000D02*
X59520000Y-68110000D01*
X60500000Y-64450000D02*
X60500000Y-59540000D01*
X61330000Y-66300000D02*
X61330000Y-65280000D01*
X59520000Y-68110000D02*
X61330000Y-66300000D01*
X61330000Y-65280000D02*
X60500000Y-64450000D01*
D18*
%TO.N,/SCL'*%
X70090000Y-66420000D02*
X75080000Y-66420000D01*
X75080000Y-66420000D02*
X76310000Y-67650000D01*
X70060000Y-66450000D02*
X70090000Y-66420000D01*
%TO.N,/SDA'*%
X74790000Y-67320000D02*
X75170000Y-67700000D01*
X69960000Y-67320000D02*
X74790000Y-67320000D01*
X69944074Y-67335926D02*
X69960000Y-67320000D01*
D19*
%TO.N,/G*%
X80540000Y-52520000D02*
X75040000Y-52520000D01*
X83500000Y-55480000D02*
X80540000Y-52520000D01*
X83500000Y-55760000D02*
X83500000Y-55480000D01*
X75040000Y-52520000D02*
X75010000Y-52550000D01*
%TD*%
%TA.AperFunction,Conductor*%
%TO.N,GND2*%
G36*
X94442539Y-51019685D02*
G01*
X94488294Y-51072489D01*
X94499500Y-51124000D01*
X94499500Y-55306000D01*
X94479815Y-55373039D01*
X94427011Y-55418794D01*
X94375500Y-55430000D01*
X92170000Y-55430000D01*
X92171596Y-56109522D01*
X92172838Y-56638485D01*
X92168614Y-56670864D01*
X92164938Y-56684582D01*
X92164937Y-56684591D01*
X92144341Y-56919999D01*
X92144341Y-56920000D01*
X92164936Y-57155403D01*
X92164938Y-57155415D01*
X92169947Y-57174109D01*
X92174171Y-57205907D01*
X92178758Y-59158324D01*
X92174533Y-59190707D01*
X92166117Y-59222114D01*
X92178577Y-59254343D01*
X92179007Y-59264368D01*
X92179923Y-59653854D01*
X92166591Y-59699653D01*
X92175962Y-59734623D01*
X92180187Y-59766426D01*
X92184673Y-61676247D01*
X92180448Y-61708630D01*
X92167333Y-61757576D01*
X92184563Y-61802141D01*
X92184993Y-61812169D01*
X92185871Y-62186102D01*
X92168360Y-62246258D01*
X92181981Y-62297091D01*
X92186206Y-62328893D01*
X92190588Y-64194171D01*
X92186363Y-64226554D01*
X92168549Y-64293040D01*
X92190548Y-64349942D01*
X92190978Y-64359969D01*
X92191820Y-64718350D01*
X92172293Y-64785435D01*
X92169288Y-64789718D01*
X92188002Y-64859557D01*
X92192227Y-64891360D01*
X92194821Y-65995524D01*
X92187003Y-66039148D01*
X92155908Y-66122517D01*
X92149501Y-66182116D01*
X92149500Y-66182135D01*
X92149500Y-67977870D01*
X92149501Y-67977876D01*
X92155908Y-68037483D01*
X92192129Y-68134595D01*
X92199947Y-68177635D01*
X92199999Y-68199999D01*
X92214662Y-68214627D01*
X92231887Y-68219685D01*
X92264112Y-68249686D01*
X92292454Y-68287546D01*
X92331476Y-68316758D01*
X92407664Y-68373793D01*
X92407671Y-68373797D01*
X92542517Y-68424091D01*
X92542516Y-68424091D01*
X92549444Y-68424835D01*
X92602127Y-68430500D01*
X94375500Y-68430499D01*
X94442539Y-68450184D01*
X94488294Y-68502987D01*
X94499500Y-68554499D01*
X94499500Y-72876000D01*
X94479815Y-72943039D01*
X94427011Y-72988794D01*
X94375500Y-73000000D01*
X84546039Y-73000000D01*
X84479000Y-72980315D01*
X84433245Y-72927511D01*
X84423301Y-72858353D01*
X84444465Y-72804876D01*
X84533595Y-72677585D01*
X84533599Y-72677579D01*
X84633429Y-72463492D01*
X84633432Y-72463486D01*
X84690636Y-72250000D01*
X83793012Y-72250000D01*
X83825925Y-72192993D01*
X83860000Y-72065826D01*
X83860000Y-71934174D01*
X83825925Y-71807007D01*
X83793012Y-71750000D01*
X84690636Y-71750000D01*
X84690635Y-71749999D01*
X84633432Y-71536513D01*
X84633429Y-71536507D01*
X84533600Y-71322422D01*
X84533599Y-71322420D01*
X84398113Y-71128926D01*
X84398108Y-71128920D01*
X84231082Y-70961894D01*
X84037578Y-70826399D01*
X83823492Y-70726570D01*
X83823486Y-70726567D01*
X83610000Y-70669364D01*
X83610000Y-71566988D01*
X83552993Y-71534075D01*
X83425826Y-71500000D01*
X83294174Y-71500000D01*
X83167007Y-71534075D01*
X83110000Y-71566988D01*
X83110000Y-70669364D01*
X83109999Y-70669364D01*
X82896513Y-70726567D01*
X82896507Y-70726570D01*
X82682422Y-70826399D01*
X82682420Y-70826400D01*
X82488926Y-70961886D01*
X82488920Y-70961891D01*
X82321891Y-71128920D01*
X82321890Y-71128922D01*
X82191880Y-71314595D01*
X82137303Y-71358219D01*
X82067804Y-71365412D01*
X82005450Y-71333890D01*
X81988730Y-71314594D01*
X81858494Y-71128597D01*
X81691402Y-70961506D01*
X81691395Y-70961501D01*
X81497834Y-70825967D01*
X81497830Y-70825965D01*
X81425970Y-70792456D01*
X81283663Y-70726097D01*
X81283659Y-70726096D01*
X81283655Y-70726094D01*
X81055413Y-70664938D01*
X81055403Y-70664936D01*
X80820001Y-70644341D01*
X80819999Y-70644341D01*
X80584596Y-70664936D01*
X80584586Y-70664938D01*
X80356344Y-70726094D01*
X80356335Y-70726098D01*
X80142171Y-70825964D01*
X80142169Y-70825965D01*
X79948600Y-70961503D01*
X79826673Y-71083430D01*
X79765350Y-71116914D01*
X79695658Y-71111930D01*
X79639725Y-71070058D01*
X79622810Y-71039081D01*
X79573797Y-70907671D01*
X79573793Y-70907664D01*
X79487547Y-70792455D01*
X79487544Y-70792452D01*
X79372335Y-70706206D01*
X79372328Y-70706202D01*
X79237482Y-70655908D01*
X79237483Y-70655908D01*
X79177883Y-70649501D01*
X79177881Y-70649500D01*
X79177873Y-70649500D01*
X79177864Y-70649500D01*
X77382129Y-70649500D01*
X77382123Y-70649501D01*
X77322516Y-70655908D01*
X77187671Y-70706202D01*
X77187664Y-70706206D01*
X77072455Y-70792452D01*
X77072452Y-70792455D01*
X76986206Y-70907664D01*
X76986202Y-70907671D01*
X76935908Y-71042517D01*
X76929501Y-71102116D01*
X76929501Y-71102123D01*
X76929500Y-71102135D01*
X76929501Y-72876000D01*
X76909816Y-72943039D01*
X76857013Y-72988794D01*
X76805501Y-73000000D01*
X69594500Y-73000000D01*
X69527461Y-72980315D01*
X69481706Y-72927511D01*
X69470500Y-72876000D01*
X69470499Y-71102129D01*
X69470498Y-71102123D01*
X69470497Y-71102116D01*
X69464091Y-71042517D01*
X69462810Y-71039083D01*
X69413797Y-70907671D01*
X69413793Y-70907664D01*
X69327547Y-70792455D01*
X69327544Y-70792452D01*
X69212335Y-70706206D01*
X69212328Y-70706202D01*
X69077482Y-70655908D01*
X69077483Y-70655908D01*
X69017883Y-70649501D01*
X69017881Y-70649500D01*
X69017873Y-70649500D01*
X69017865Y-70649500D01*
X68796841Y-70649500D01*
X68729802Y-70629815D01*
X68684047Y-70577011D01*
X68682280Y-70572952D01*
X68674314Y-70553719D01*
X68674307Y-70553707D01*
X68605859Y-70451268D01*
X68605858Y-70451267D01*
X68518733Y-70364142D01*
X68518732Y-70364141D01*
X64331819Y-66177228D01*
X64298334Y-66115905D01*
X64295500Y-66089547D01*
X64295500Y-62814854D01*
X64314507Y-62748881D01*
X64395788Y-62619524D01*
X64395789Y-62619522D01*
X64455368Y-62449255D01*
X64455369Y-62449249D01*
X64475565Y-62270003D01*
X64475565Y-62269996D01*
X64455369Y-62090750D01*
X64455368Y-62090745D01*
X64395788Y-61920476D01*
X64314506Y-61791117D01*
X64295500Y-61725145D01*
X64295500Y-61517370D01*
X64315185Y-61450331D01*
X64367989Y-61404576D01*
X64437147Y-61394632D01*
X64485471Y-61412375D01*
X64570478Y-61465789D01*
X64717888Y-61517370D01*
X64740745Y-61525368D01*
X64740750Y-61525369D01*
X64919996Y-61545565D01*
X64920000Y-61545565D01*
X64920004Y-61545565D01*
X65099249Y-61525369D01*
X65099252Y-61525368D01*
X65099255Y-61525368D01*
X65269522Y-61465789D01*
X65422262Y-61369816D01*
X65549816Y-61242262D01*
X65645789Y-61089522D01*
X65705368Y-60919255D01*
X65710672Y-60872173D01*
X65737737Y-60807763D01*
X65746200Y-60798388D01*
X66302772Y-60241819D01*
X66364095Y-60208334D01*
X66390453Y-60205500D01*
X73935664Y-60205500D01*
X74002703Y-60225185D01*
X74023345Y-60241819D01*
X74857379Y-61075855D01*
X74857383Y-61075858D01*
X74959826Y-61144309D01*
X74959827Y-61144309D01*
X74959831Y-61144312D01*
X75026512Y-61171931D01*
X75026514Y-61171933D01*
X75066756Y-61188601D01*
X75073664Y-61191463D01*
X75079466Y-61192617D01*
X75171501Y-61210924D01*
X75194509Y-61215501D01*
X75304354Y-61215501D01*
X75371393Y-61235186D01*
X75417148Y-61287990D01*
X75427574Y-61353386D01*
X75414250Y-61471630D01*
X75409697Y-61493718D01*
X75408538Y-61497538D01*
X75384500Y-61618389D01*
X75384500Y-64559548D01*
X75364815Y-64626587D01*
X75348181Y-64647229D01*
X74907229Y-65088181D01*
X74845906Y-65121666D01*
X74819548Y-65124500D01*
X69108940Y-65124500D01*
X69042968Y-65105494D01*
X68929523Y-65034211D01*
X68759254Y-64974631D01*
X68759249Y-64974630D01*
X68580004Y-64954435D01*
X68579996Y-64954435D01*
X68400750Y-64974630D01*
X68400745Y-64974631D01*
X68230476Y-65034211D01*
X68077737Y-65130184D01*
X67950184Y-65257737D01*
X67854211Y-65410476D01*
X67794631Y-65580745D01*
X67794630Y-65580750D01*
X67774435Y-65759996D01*
X67774435Y-65760003D01*
X67794630Y-65939249D01*
X67794631Y-65939254D01*
X67854211Y-66109523D01*
X67929569Y-66229454D01*
X67950184Y-66262262D01*
X68077738Y-66389816D01*
X68110730Y-66410546D01*
X68191992Y-66461607D01*
X68230478Y-66485789D01*
X68334046Y-66522029D01*
X68400745Y-66545368D01*
X68400750Y-66545369D01*
X68579996Y-66565565D01*
X68580000Y-66565565D01*
X68580004Y-66565565D01*
X68759249Y-66545369D01*
X68759252Y-66545368D01*
X68759255Y-66545368D01*
X68929522Y-66485789D01*
X69069621Y-66397758D01*
X69136857Y-66378758D01*
X69203692Y-66399125D01*
X69248907Y-66452393D01*
X69258813Y-66488868D01*
X69274630Y-66629250D01*
X69274633Y-66629262D01*
X69315024Y-66744690D01*
X69318586Y-66814469D01*
X69302977Y-66851617D01*
X69218285Y-66986402D01*
X69158705Y-67156671D01*
X69158704Y-67156676D01*
X69138509Y-67335922D01*
X69138509Y-67335929D01*
X69158704Y-67515175D01*
X69158705Y-67515180D01*
X69218285Y-67685449D01*
X69266136Y-67761603D01*
X69314258Y-67838188D01*
X69441812Y-67965742D01*
X69490429Y-67996290D01*
X69555988Y-68037484D01*
X69594552Y-68061715D01*
X69700352Y-68098736D01*
X69764819Y-68121294D01*
X69764824Y-68121295D01*
X69944070Y-68141491D01*
X69944074Y-68141491D01*
X69944078Y-68141491D01*
X70123323Y-68121295D01*
X70123326Y-68121294D01*
X70123329Y-68121294D01*
X70293596Y-68061715D01*
X70446336Y-67965742D01*
X70446336Y-67965741D01*
X70448303Y-67964506D01*
X70514275Y-67945500D01*
X74319829Y-67945500D01*
X74386868Y-67965185D01*
X74432623Y-68017989D01*
X74436871Y-68028546D01*
X74444210Y-68049521D01*
X74475132Y-68098733D01*
X74540184Y-68202262D01*
X74667738Y-68329816D01*
X74667740Y-68329817D01*
X74817775Y-68424091D01*
X74820478Y-68425789D01*
X74890195Y-68450184D01*
X74990745Y-68485368D01*
X74990750Y-68485369D01*
X75169996Y-68505565D01*
X75170000Y-68505565D01*
X75170004Y-68505565D01*
X75349249Y-68485369D01*
X75349252Y-68485368D01*
X75349255Y-68485368D01*
X75519522Y-68425789D01*
X75672262Y-68329816D01*
X75685322Y-68316755D01*
X75746641Y-68283272D01*
X75816332Y-68288254D01*
X75838974Y-68299443D01*
X75957307Y-68373797D01*
X75960478Y-68375789D01*
X76098517Y-68424091D01*
X76130745Y-68435368D01*
X76130750Y-68435369D01*
X76309996Y-68455565D01*
X76310000Y-68455565D01*
X76310004Y-68455565D01*
X76489249Y-68435369D01*
X76489252Y-68435368D01*
X76489255Y-68435368D01*
X76659522Y-68375789D01*
X76812262Y-68279816D01*
X76939816Y-68152262D01*
X77035789Y-67999522D01*
X77095368Y-67829255D01*
X77102990Y-67761606D01*
X77115565Y-67650003D01*
X77115565Y-67649996D01*
X77095369Y-67470750D01*
X77095368Y-67470745D01*
X77089565Y-67454160D01*
X77035789Y-67300478D01*
X76939816Y-67147738D01*
X76812262Y-67020184D01*
X76659521Y-66924210D01*
X76489249Y-66864630D01*
X76442174Y-66859326D01*
X76377760Y-66832259D01*
X76368378Y-66823787D01*
X75742271Y-66197680D01*
X75708786Y-66136357D01*
X75713770Y-66066665D01*
X75742271Y-66022318D01*
X76070583Y-65694006D01*
X76408729Y-65355860D01*
X76408733Y-65355858D01*
X76495858Y-65268733D01*
X76516839Y-65237331D01*
X76557961Y-65175790D01*
X76557964Y-65175783D01*
X76564312Y-65166285D01*
X76600128Y-65079816D01*
X76611463Y-65052452D01*
X76617873Y-65020224D01*
X76630960Y-64954434D01*
X76630960Y-64954429D01*
X76635500Y-64931607D01*
X76635500Y-64808393D01*
X76635500Y-62222864D01*
X76655185Y-62155825D01*
X76693529Y-62117870D01*
X76722262Y-62099816D01*
X76849816Y-61972262D01*
X76945789Y-61819522D01*
X77005368Y-61649255D01*
X77008846Y-61618389D01*
X77025565Y-61470003D01*
X77025565Y-61469996D01*
X77005369Y-61290750D01*
X77005368Y-61290745D01*
X76945789Y-61120478D01*
X76910271Y-61063952D01*
X76891271Y-60996718D01*
X76903548Y-60944172D01*
X76905779Y-60939537D01*
X76905789Y-60939522D01*
X76944747Y-60828185D01*
X76965366Y-60769262D01*
X76965369Y-60769249D01*
X76985565Y-60590003D01*
X76985565Y-60589996D01*
X76965369Y-60410750D01*
X76965368Y-60410745D01*
X76905788Y-60240476D01*
X76809815Y-60087737D01*
X76682262Y-59960184D01*
X76529521Y-59864210D01*
X76359244Y-59804628D01*
X76358645Y-59804492D01*
X76358297Y-59804297D01*
X76352683Y-59802333D01*
X76353027Y-59801349D01*
X76297670Y-59770378D01*
X76269208Y-59724559D01*
X76225790Y-59600480D01*
X76139634Y-59463364D01*
X76129816Y-59447738D01*
X76035349Y-59353271D01*
X76001864Y-59291948D01*
X76005988Y-59224636D01*
X76025368Y-59169255D01*
X76026600Y-59158324D01*
X76045565Y-58990003D01*
X76045565Y-58989996D01*
X76025369Y-58810750D01*
X76025368Y-58810745D01*
X76009061Y-58764142D01*
X75965789Y-58640478D01*
X75869816Y-58487738D01*
X75742262Y-58360184D01*
X75619415Y-58282994D01*
X75589521Y-58264210D01*
X75419249Y-58204630D01*
X75359204Y-58197865D01*
X75304198Y-58177748D01*
X75277510Y-58159916D01*
X75277509Y-58159915D01*
X75236374Y-58132429D01*
X75226286Y-58125688D01*
X75226283Y-58125686D01*
X75226280Y-58125685D01*
X75145792Y-58092347D01*
X75112454Y-58078538D01*
X75112455Y-58078538D01*
X75112452Y-58078537D01*
X75112448Y-58078536D01*
X75112444Y-58078535D01*
X75015139Y-58059179D01*
X75015130Y-58059179D01*
X74991607Y-58054500D01*
X74991606Y-58054500D01*
X64961607Y-58054500D01*
X64838393Y-58054500D01*
X64814868Y-58059179D01*
X64814867Y-58059178D01*
X64717555Y-58078535D01*
X64717547Y-58078537D01*
X64680133Y-58094035D01*
X64680132Y-58094035D01*
X64603715Y-58125686D01*
X64593627Y-58132428D01*
X64593626Y-58132429D01*
X64501268Y-58194140D01*
X64464909Y-58230500D01*
X64414142Y-58281267D01*
X64414139Y-58281270D01*
X62271621Y-60423787D01*
X62210298Y-60457272D01*
X62197825Y-60459326D01*
X62150750Y-60464630D01*
X61980478Y-60524210D01*
X61827737Y-60620184D01*
X61700184Y-60747737D01*
X61604494Y-60900027D01*
X61552159Y-60946318D01*
X61483105Y-60956966D01*
X61419257Y-60928591D01*
X61380885Y-60870201D01*
X61375500Y-60834055D01*
X61375500Y-59453768D01*
X61375499Y-59453766D01*
X61341856Y-59284633D01*
X61341855Y-59284626D01*
X61333464Y-59264368D01*
X61275861Y-59125301D01*
X61275854Y-59125288D01*
X61180045Y-58981901D01*
X61180042Y-58981897D01*
X61058102Y-58859957D01*
X61058098Y-58859954D01*
X60914711Y-58764145D01*
X60914698Y-58764138D01*
X60755378Y-58698146D01*
X60755366Y-58698143D01*
X60586232Y-58664500D01*
X60586229Y-58664500D01*
X60413771Y-58664500D01*
X60413768Y-58664500D01*
X60244633Y-58698143D01*
X60244621Y-58698146D01*
X60085301Y-58764138D01*
X60085288Y-58764145D01*
X59941901Y-58859954D01*
X59941897Y-58859957D01*
X59819957Y-58981897D01*
X59819954Y-58981901D01*
X59724145Y-59125288D01*
X59724138Y-59125301D01*
X59658146Y-59284621D01*
X59658143Y-59284633D01*
X59624500Y-59453766D01*
X59624500Y-64536233D01*
X59658143Y-64705366D01*
X59658146Y-64705378D01*
X59724138Y-64864698D01*
X59724145Y-64864711D01*
X59819954Y-65008098D01*
X59819957Y-65008102D01*
X60418181Y-65606325D01*
X60451666Y-65667648D01*
X60454500Y-65694006D01*
X60454500Y-65885994D01*
X60434815Y-65953033D01*
X60418181Y-65973675D01*
X58961901Y-67429955D01*
X58928850Y-67463006D01*
X58839953Y-67551902D01*
X58744145Y-67695288D01*
X58744138Y-67695301D01*
X58678146Y-67854621D01*
X58678143Y-67854633D01*
X58644500Y-68023766D01*
X58644500Y-69596233D01*
X58678143Y-69765366D01*
X58678146Y-69765378D01*
X58744138Y-69924698D01*
X58744145Y-69924711D01*
X58839954Y-70068098D01*
X58839957Y-70068102D01*
X58961897Y-70190042D01*
X58961901Y-70190045D01*
X59105288Y-70285854D01*
X59105301Y-70285861D01*
X59264621Y-70351853D01*
X59264626Y-70351855D01*
X59433766Y-70385499D01*
X59433769Y-70385500D01*
X59433771Y-70385500D01*
X59606231Y-70385500D01*
X59606232Y-70385499D01*
X59775374Y-70351855D01*
X59934705Y-70285858D01*
X60078099Y-70190045D01*
X60200045Y-70068099D01*
X60295858Y-69924705D01*
X60361855Y-69765374D01*
X60395500Y-69596229D01*
X60395500Y-68524006D01*
X60415185Y-68456967D01*
X60431819Y-68436325D01*
X61492819Y-67375325D01*
X61554142Y-67341840D01*
X61623834Y-67346824D01*
X61679767Y-67388696D01*
X61704184Y-67454160D01*
X61704500Y-67463006D01*
X61704500Y-67761606D01*
X61718591Y-67832451D01*
X61718591Y-67832452D01*
X61728534Y-67882443D01*
X61728536Y-67882447D01*
X61728537Y-67882451D01*
X61775688Y-67996286D01*
X61775690Y-67996290D01*
X61803216Y-68037484D01*
X61803217Y-68037485D01*
X61844141Y-68098732D01*
X61844144Y-68098736D01*
X61935586Y-68190178D01*
X61935608Y-68190198D01*
X64620075Y-70874665D01*
X64653560Y-70935988D01*
X64648576Y-71005680D01*
X64620076Y-71050027D01*
X64541506Y-71128597D01*
X64411269Y-71314595D01*
X64356692Y-71358219D01*
X64287193Y-71365412D01*
X64224839Y-71333890D01*
X64208119Y-71314594D01*
X64078113Y-71128926D01*
X64078108Y-71128920D01*
X63911082Y-70961894D01*
X63717578Y-70826399D01*
X63503492Y-70726570D01*
X63503486Y-70726567D01*
X63290000Y-70669364D01*
X63290000Y-71566988D01*
X63232993Y-71534075D01*
X63105826Y-71500000D01*
X62974174Y-71500000D01*
X62847007Y-71534075D01*
X62790000Y-71566988D01*
X62790000Y-70669364D01*
X62789999Y-70669364D01*
X62576513Y-70726567D01*
X62576507Y-70726570D01*
X62362422Y-70826399D01*
X62362420Y-70826400D01*
X62168926Y-70961886D01*
X62168920Y-70961891D01*
X62001891Y-71128920D01*
X62001886Y-71128926D01*
X61866400Y-71322420D01*
X61866399Y-71322422D01*
X61766570Y-71536507D01*
X61766567Y-71536513D01*
X61709364Y-71749999D01*
X61709364Y-71750000D01*
X62606988Y-71750000D01*
X62574075Y-71807007D01*
X62540000Y-71934174D01*
X62540000Y-72065826D01*
X62574075Y-72192993D01*
X62606988Y-72250000D01*
X61709364Y-72250000D01*
X61766567Y-72463486D01*
X61766570Y-72463492D01*
X61866400Y-72677579D01*
X61866404Y-72677585D01*
X61955535Y-72804876D01*
X61977863Y-72871082D01*
X61960853Y-72938849D01*
X61909906Y-72986663D01*
X61853961Y-73000000D01*
X50624500Y-73000000D01*
X50557461Y-72980315D01*
X50511706Y-72927511D01*
X50500500Y-72876000D01*
X50500500Y-66229448D01*
X51386000Y-66229448D01*
X51386000Y-66410551D01*
X51414329Y-66589410D01*
X51470287Y-66761636D01*
X51470288Y-66761639D01*
X51552506Y-66922997D01*
X51658941Y-67069494D01*
X51658945Y-67069499D01*
X51787000Y-67197554D01*
X51787005Y-67197558D01*
X51914787Y-67290396D01*
X51933506Y-67303996D01*
X52038984Y-67357740D01*
X52094860Y-67386211D01*
X52094863Y-67386212D01*
X52180976Y-67414191D01*
X52267091Y-67442171D01*
X52342787Y-67454160D01*
X52445949Y-67470500D01*
X52445954Y-67470500D01*
X53227051Y-67470500D01*
X53313759Y-67456765D01*
X53405909Y-67442171D01*
X53578139Y-67386211D01*
X53739494Y-67303996D01*
X53886001Y-67197553D01*
X54014053Y-67069501D01*
X54120496Y-66922994D01*
X54202711Y-66761639D01*
X54258671Y-66589409D01*
X54278913Y-66461607D01*
X54287000Y-66410551D01*
X54287000Y-66247525D01*
X55916000Y-66247525D01*
X55916000Y-66392475D01*
X55953516Y-66532485D01*
X55953517Y-66532488D01*
X56025988Y-66658011D01*
X56025990Y-66658013D01*
X56025991Y-66658015D01*
X56128485Y-66760509D01*
X56128486Y-66760510D01*
X56128488Y-66760511D01*
X56254011Y-66832982D01*
X56254012Y-66832982D01*
X56254015Y-66832984D01*
X56394025Y-66870500D01*
X56394028Y-66870500D01*
X57638972Y-66870500D01*
X57638975Y-66870500D01*
X57778985Y-66832984D01*
X57904515Y-66760509D01*
X58007009Y-66658015D01*
X58079484Y-66532485D01*
X58117000Y-66392475D01*
X58117000Y-66247525D01*
X58079484Y-66107515D01*
X58030295Y-66022318D01*
X58007011Y-65981988D01*
X58007006Y-65981982D01*
X57904517Y-65879493D01*
X57904511Y-65879488D01*
X57778988Y-65807017D01*
X57778989Y-65807017D01*
X57767506Y-65803940D01*
X57638975Y-65769500D01*
X56394025Y-65769500D01*
X56265493Y-65803940D01*
X56254011Y-65807017D01*
X56128488Y-65879488D01*
X56128482Y-65879493D01*
X56025993Y-65981982D01*
X56025988Y-65981988D01*
X55953517Y-66107511D01*
X55953516Y-66107515D01*
X55916000Y-66247525D01*
X54287000Y-66247525D01*
X54287000Y-66229448D01*
X54264841Y-66089547D01*
X54258671Y-66050591D01*
X54203078Y-65879491D01*
X54202712Y-65878363D01*
X54202711Y-65878360D01*
X54142404Y-65760003D01*
X54120496Y-65717006D01*
X54021501Y-65580750D01*
X54014058Y-65570505D01*
X54014054Y-65570500D01*
X53885999Y-65442445D01*
X53885994Y-65442441D01*
X53739497Y-65336006D01*
X53739496Y-65336005D01*
X53739494Y-65336004D01*
X53687800Y-65309664D01*
X53578139Y-65253788D01*
X53578136Y-65253787D01*
X53405910Y-65197829D01*
X53227051Y-65169500D01*
X53227046Y-65169500D01*
X52445954Y-65169500D01*
X52445949Y-65169500D01*
X52267089Y-65197829D01*
X52094863Y-65253787D01*
X52094860Y-65253788D01*
X51933502Y-65336006D01*
X51787005Y-65442441D01*
X51787000Y-65442445D01*
X51658945Y-65570500D01*
X51658941Y-65570505D01*
X51552506Y-65717002D01*
X51470288Y-65878360D01*
X51470287Y-65878363D01*
X51414329Y-66050589D01*
X51386000Y-66229448D01*
X50500500Y-66229448D01*
X50500500Y-64814234D01*
X55911000Y-64814234D01*
X55911000Y-64965766D01*
X55922343Y-65008098D01*
X55950219Y-65112136D01*
X55981481Y-65166283D01*
X56025985Y-65243365D01*
X56133135Y-65350515D01*
X56264365Y-65426281D01*
X56410734Y-65465500D01*
X56410736Y-65465500D01*
X56562264Y-65465500D01*
X56562266Y-65465500D01*
X56708635Y-65426281D01*
X56839865Y-65350515D01*
X56947015Y-65243365D01*
X57022781Y-65112135D01*
X57062000Y-64965766D01*
X57062000Y-64814234D01*
X57022781Y-64667865D01*
X56947015Y-64536635D01*
X56839865Y-64429485D01*
X56726046Y-64363771D01*
X56708636Y-64353719D01*
X56635450Y-64334109D01*
X56562266Y-64314500D01*
X56410734Y-64314500D01*
X56264363Y-64353719D01*
X56133135Y-64429485D01*
X56133132Y-64429487D01*
X56025987Y-64536632D01*
X56025985Y-64536635D01*
X55950219Y-64667863D01*
X55917569Y-64789718D01*
X55911000Y-64814234D01*
X50500500Y-64814234D01*
X50500500Y-59034234D01*
X55911000Y-59034234D01*
X55911000Y-59185765D01*
X55950219Y-59332136D01*
X55962422Y-59353271D01*
X56025985Y-59463365D01*
X56133135Y-59570515D01*
X56264365Y-59646281D01*
X56410734Y-59685500D01*
X56410736Y-59685500D01*
X56562264Y-59685500D01*
X56562266Y-59685500D01*
X56708635Y-59646281D01*
X56839865Y-59570515D01*
X56947015Y-59463365D01*
X57022781Y-59332135D01*
X57062000Y-59185766D01*
X57062000Y-59034234D01*
X57022781Y-58887865D01*
X56947015Y-58756635D01*
X56839865Y-58649485D01*
X56774250Y-58611602D01*
X56708636Y-58573719D01*
X56635450Y-58554109D01*
X56562266Y-58534500D01*
X56410734Y-58534500D01*
X56264363Y-58573719D01*
X56133135Y-58649485D01*
X56133132Y-58649487D01*
X56025987Y-58756632D01*
X56025985Y-58756635D01*
X55950219Y-58887863D01*
X55911000Y-59034234D01*
X50500500Y-59034234D01*
X50500500Y-57589448D01*
X51386000Y-57589448D01*
X51386000Y-57770551D01*
X51414329Y-57949410D01*
X51470287Y-58121636D01*
X51470288Y-58121639D01*
X51552506Y-58282997D01*
X51658941Y-58429494D01*
X51658945Y-58429499D01*
X51787000Y-58557554D01*
X51787005Y-58557558D01*
X51901133Y-58640476D01*
X51933506Y-58663996D01*
X52000527Y-58698145D01*
X52094860Y-58746211D01*
X52094863Y-58746212D01*
X52150057Y-58764145D01*
X52267091Y-58802171D01*
X52349929Y-58815291D01*
X52445949Y-58830500D01*
X52445954Y-58830500D01*
X53227051Y-58830500D01*
X53313759Y-58816765D01*
X53405909Y-58802171D01*
X53578139Y-58746211D01*
X53739494Y-58663996D01*
X53886001Y-58557553D01*
X54014053Y-58429501D01*
X54120496Y-58282994D01*
X54202711Y-58121639D01*
X54258671Y-57949409D01*
X54273265Y-57857259D01*
X54287000Y-57770551D01*
X54287000Y-57607525D01*
X55916000Y-57607525D01*
X55916000Y-57752475D01*
X55920844Y-57770551D01*
X55953517Y-57892488D01*
X56025988Y-58018011D01*
X56025990Y-58018013D01*
X56025991Y-58018015D01*
X56128485Y-58120509D01*
X56128486Y-58120510D01*
X56128488Y-58120511D01*
X56254011Y-58192982D01*
X56254012Y-58192982D01*
X56254015Y-58192984D01*
X56394025Y-58230500D01*
X56394028Y-58230500D01*
X57638972Y-58230500D01*
X57638975Y-58230500D01*
X57778985Y-58192984D01*
X57904515Y-58120509D01*
X58007009Y-58018015D01*
X58079484Y-57892485D01*
X58117000Y-57752475D01*
X58117000Y-57607525D01*
X58079484Y-57467515D01*
X58007009Y-57341985D01*
X57904515Y-57239491D01*
X57904513Y-57239490D01*
X57904511Y-57239488D01*
X57778988Y-57167017D01*
X57778989Y-57167017D01*
X57767506Y-57163940D01*
X57638975Y-57129500D01*
X56394025Y-57129500D01*
X56265493Y-57163940D01*
X56254011Y-57167017D01*
X56128488Y-57239488D01*
X56128482Y-57239493D01*
X56025993Y-57341982D01*
X56025988Y-57341988D01*
X55953517Y-57467511D01*
X55953516Y-57467515D01*
X55916000Y-57607525D01*
X54287000Y-57607525D01*
X54287000Y-57589448D01*
X54267686Y-57467511D01*
X54258671Y-57410591D01*
X54203078Y-57239491D01*
X54202712Y-57238363D01*
X54202711Y-57238360D01*
X54166359Y-57167016D01*
X54120496Y-57077006D01*
X54106896Y-57058287D01*
X54014058Y-56930505D01*
X54014054Y-56930500D01*
X53885999Y-56802445D01*
X53885994Y-56802441D01*
X53739497Y-56696006D01*
X53739496Y-56696005D01*
X53739494Y-56696004D01*
X53687800Y-56669664D01*
X53578139Y-56613788D01*
X53578136Y-56613787D01*
X53405910Y-56557829D01*
X53227051Y-56529500D01*
X53227046Y-56529500D01*
X52445954Y-56529500D01*
X52445949Y-56529500D01*
X52267089Y-56557829D01*
X52094863Y-56613787D01*
X52094860Y-56613788D01*
X51933502Y-56696006D01*
X51787005Y-56802441D01*
X51787000Y-56802445D01*
X51658945Y-56930500D01*
X51658941Y-56930505D01*
X51552506Y-57077002D01*
X51470288Y-57238360D01*
X51470287Y-57238363D01*
X51414329Y-57410589D01*
X51386000Y-57589448D01*
X50500500Y-57589448D01*
X50500500Y-52549996D01*
X74204435Y-52549996D01*
X74204435Y-52550003D01*
X74224630Y-52729249D01*
X74224631Y-52729254D01*
X74284211Y-52899523D01*
X74380184Y-53052262D01*
X74507738Y-53179816D01*
X74660478Y-53275789D01*
X74830745Y-53335368D01*
X74830750Y-53335369D01*
X75009996Y-53355565D01*
X75010000Y-53355565D01*
X75010004Y-53355565D01*
X75189249Y-53335369D01*
X75189252Y-53335368D01*
X75189255Y-53335368D01*
X75359522Y-53275789D01*
X75512262Y-53179816D01*
X75535259Y-53156819D01*
X75596582Y-53123334D01*
X75622940Y-53120500D01*
X80239903Y-53120500D01*
X80306942Y-53140185D01*
X80327584Y-53156819D01*
X82676140Y-55505375D01*
X82709625Y-55566698D01*
X82711679Y-55606939D01*
X82694435Y-55759995D01*
X82694435Y-55760003D01*
X82714630Y-55939249D01*
X82714631Y-55939254D01*
X82774211Y-56109523D01*
X82870184Y-56262262D01*
X82997738Y-56389816D01*
X83150478Y-56485789D01*
X83275397Y-56529500D01*
X83320745Y-56545368D01*
X83320750Y-56545369D01*
X83499996Y-56565565D01*
X83500000Y-56565565D01*
X83500004Y-56565565D01*
X83679249Y-56545369D01*
X83679252Y-56545368D01*
X83679255Y-56545368D01*
X83849522Y-56485789D01*
X84002262Y-56389816D01*
X84129816Y-56262262D01*
X84225789Y-56109522D01*
X84285368Y-55939255D01*
X84305565Y-55760000D01*
X84305564Y-55759995D01*
X84285369Y-55580750D01*
X84285368Y-55580745D01*
X84225788Y-55410476D01*
X84160141Y-55306000D01*
X84129816Y-55257738D01*
X84002262Y-55130184D01*
X84002261Y-55130183D01*
X83996821Y-55125845D01*
X83997165Y-55125413D01*
X83984737Y-55115500D01*
X83864397Y-54995160D01*
X83864374Y-54995139D01*
X81027590Y-52158355D01*
X81027588Y-52158352D01*
X80908717Y-52039481D01*
X80908716Y-52039480D01*
X80821904Y-51989360D01*
X80821904Y-51989359D01*
X80821900Y-51989358D01*
X80771785Y-51960423D01*
X80619057Y-51919499D01*
X80460943Y-51919499D01*
X80453347Y-51919499D01*
X80453331Y-51919500D01*
X75546897Y-51919500D01*
X75480925Y-51900494D01*
X75359522Y-51824211D01*
X75189254Y-51764631D01*
X75189249Y-51764630D01*
X75010004Y-51744435D01*
X75009996Y-51744435D01*
X74830750Y-51764630D01*
X74830745Y-51764631D01*
X74660476Y-51824211D01*
X74507737Y-51920184D01*
X74380184Y-52047737D01*
X74284211Y-52200476D01*
X74224631Y-52370745D01*
X74224630Y-52370750D01*
X74204435Y-52549996D01*
X50500500Y-52549996D01*
X50500500Y-51124000D01*
X50520185Y-51056961D01*
X50572989Y-51011206D01*
X50624500Y-51000000D01*
X94375500Y-51000000D01*
X94442539Y-51019685D01*
G37*
%TD.AperFunction*%
%TD*%
M02*
