%TF.GenerationSoftware,KiCad,Pcbnew,8.0.4*%
%TF.CreationDate,2025-01-04T18:23:54+00:00*%
%TF.ProjectId,ap3372s_usbpd,61703333-3732-4735-9f75-736270642e6b,rev?*%
%TF.SameCoordinates,Original*%
%TF.FileFunction,Paste,Top*%
%TF.FilePolarity,Positive*%
%FSLAX46Y46*%
G04 Gerber Fmt 4.6, Leading zero omitted, Abs format (unit mm)*
G04 Created by KiCad (PCBNEW 8.0.4) date 2025-01-04 18:23:54*
%MOMM*%
%LPD*%
G01*
G04 APERTURE LIST*
G04 Aperture macros list*
%AMRoundRect*
0 Rectangle with rounded corners*
0 $1 Rounding radius*
0 $2 $3 $4 $5 $6 $7 $8 $9 X,Y pos of 4 corners*
0 Add a 4 corners polygon primitive as box body*
4,1,4,$2,$3,$4,$5,$6,$7,$8,$9,$2,$3,0*
0 Add four circle primitives for the rounded corners*
1,1,$1+$1,$2,$3*
1,1,$1+$1,$4,$5*
1,1,$1+$1,$6,$7*
1,1,$1+$1,$8,$9*
0 Add four rect primitives between the rounded corners*
20,1,$1+$1,$2,$3,$4,$5,0*
20,1,$1+$1,$4,$5,$6,$7,0*
20,1,$1+$1,$6,$7,$8,$9,0*
20,1,$1+$1,$8,$9,$2,$3,0*%
G04 Aperture macros list end*
%ADD10RoundRect,0.150000X-0.587500X-0.150000X0.587500X-0.150000X0.587500X0.150000X-0.587500X0.150000X0*%
%ADD11RoundRect,0.250000X0.650000X-0.412500X0.650000X0.412500X-0.650000X0.412500X-0.650000X-0.412500X0*%
%ADD12RoundRect,0.250000X0.475000X-0.337500X0.475000X0.337500X-0.475000X0.337500X-0.475000X-0.337500X0*%
%ADD13RoundRect,0.250000X0.350000X0.450000X-0.350000X0.450000X-0.350000X-0.450000X0.350000X-0.450000X0*%
%ADD14RoundRect,0.250000X0.325000X0.450000X-0.325000X0.450000X-0.325000X-0.450000X0.325000X-0.450000X0*%
%ADD15RoundRect,0.250000X-0.350000X-0.450000X0.350000X-0.450000X0.350000X0.450000X-0.350000X0.450000X0*%
%ADD16RoundRect,0.250000X-0.337500X-0.475000X0.337500X-0.475000X0.337500X0.475000X-0.337500X0.475000X0*%
%ADD17RoundRect,0.249999X0.450001X1.425001X-0.450001X1.425001X-0.450001X-1.425001X0.450001X-1.425001X0*%
%ADD18RoundRect,0.250000X0.337500X0.475000X-0.337500X0.475000X-0.337500X-0.475000X0.337500X-0.475000X0*%
%ADD19RoundRect,0.150000X0.587500X0.150000X-0.587500X0.150000X-0.587500X-0.150000X0.587500X-0.150000X0*%
%ADD20RoundRect,0.062500X0.350000X0.062500X-0.350000X0.062500X-0.350000X-0.062500X0.350000X-0.062500X0*%
%ADD21RoundRect,0.062500X0.062500X0.350000X-0.062500X0.350000X-0.062500X-0.350000X0.062500X-0.350000X0*%
%ADD22R,2.000000X0.600000*%
%ADD23R,2.000000X0.300000*%
G04 APERTURE END LIST*
D10*
%TO.C,Q2*%
X61562500Y-69550000D03*
X61562500Y-71450000D03*
X63437500Y-70500000D03*
%TD*%
D11*
%TO.C,C9*%
X81000000Y-71650000D03*
X81000000Y-68525000D03*
%TD*%
D12*
%TO.C,C14*%
X55000000Y-71630000D03*
X55000000Y-69555000D03*
%TD*%
D13*
%TO.C,R12*%
X63500000Y-66500000D03*
X61500000Y-66500000D03*
%TD*%
D11*
%TO.C,C13*%
X58000000Y-71630000D03*
X58000000Y-68505000D03*
%TD*%
D14*
%TO.C,D3*%
X93025000Y-53000000D03*
X90975000Y-53000000D03*
%TD*%
%TO.C,D5*%
X58525000Y-53000000D03*
X56475000Y-53000000D03*
%TD*%
D12*
%TO.C,C8*%
X84000000Y-71125000D03*
X84000000Y-69050000D03*
%TD*%
D13*
%TO.C,R14*%
X73500000Y-56950000D03*
X71500000Y-56950000D03*
%TD*%
D15*
%TO.C,R10*%
X86600000Y-53000000D03*
X88600000Y-53000000D03*
%TD*%
D13*
%TO.C,R9*%
X79000000Y-60500000D03*
X77000000Y-60500000D03*
%TD*%
D16*
%TO.C,C11*%
X70800000Y-66460000D03*
X72875000Y-66460000D03*
%TD*%
D14*
%TO.C,D4*%
X73525000Y-53000000D03*
X71475000Y-53000000D03*
%TD*%
D17*
%TO.C,R11*%
X78050000Y-70500000D03*
X71950000Y-70500000D03*
%TD*%
D15*
%TO.C,R15*%
X52100000Y-53000000D03*
X54100000Y-53000000D03*
%TD*%
D18*
%TO.C,C10*%
X67515000Y-57560000D03*
X65440000Y-57560000D03*
%TD*%
D13*
%TO.C,TH1*%
X67550000Y-60330000D03*
X65550000Y-60330000D03*
%TD*%
D19*
%TO.C,Q1*%
X68437500Y-71450000D03*
X68437500Y-69550000D03*
X66562500Y-70500000D03*
%TD*%
D13*
%TO.C,R8*%
X79000000Y-63500000D03*
X77000000Y-63500000D03*
%TD*%
%TO.C,R13*%
X68500000Y-66500000D03*
X66500000Y-66500000D03*
%TD*%
D18*
%TO.C,C12*%
X67575000Y-63150000D03*
X65500000Y-63150000D03*
%TD*%
D20*
%TO.C,U2*%
X74437500Y-63250000D03*
X74437500Y-62750000D03*
X74437500Y-62250000D03*
X74437500Y-61750000D03*
X74437500Y-61250000D03*
X74437500Y-60750000D03*
D21*
X73750000Y-60062500D03*
X73250000Y-60062500D03*
X72750000Y-60062500D03*
X72250000Y-60062500D03*
X71750000Y-60062500D03*
X71250000Y-60062500D03*
D20*
X70562500Y-60750000D03*
X70562500Y-61250000D03*
X70562500Y-61750000D03*
X70562500Y-62250000D03*
X70562500Y-62750000D03*
X70562500Y-63250000D03*
D21*
X71250000Y-63937500D03*
X71750000Y-63937500D03*
X72250000Y-63937500D03*
X72750000Y-63937500D03*
X73250000Y-63937500D03*
X73750000Y-63937500D03*
%TD*%
D22*
%TO.C,J8*%
X86793500Y-65250000D03*
X86793500Y-64450000D03*
D23*
X86793500Y-63250000D03*
X86793500Y-62250000D03*
X86793500Y-61750000D03*
X86793500Y-60750000D03*
D22*
X86793500Y-59550000D03*
X86793500Y-58750000D03*
X86793500Y-58750000D03*
X86793500Y-59550000D03*
D23*
X86793500Y-60250000D03*
X86793500Y-61250000D03*
X86793500Y-62750000D03*
X86793500Y-63750000D03*
D22*
X86793500Y-64450000D03*
X86793500Y-65250000D03*
%TD*%
M02*
