%TF.GenerationSoftware,KiCad,Pcbnew,8.0.4*%
%TF.CreationDate,2025-01-04T18:23:54+00:00*%
%TF.ProjectId,ap3372s_usbpd,61703333-3732-4735-9f75-736270642e6b,rev?*%
%TF.SameCoordinates,Original*%
%TF.FileFunction,Legend,Top*%
%TF.FilePolarity,Positive*%
%FSLAX46Y46*%
G04 Gerber Fmt 4.6, Leading zero omitted, Abs format (unit mm)*
G04 Created by KiCad (PCBNEW 8.0.4) date 2025-01-04 18:23:54*
%MOMM*%
%LPD*%
G01*
G04 APERTURE LIST*
%ADD10C,0.200000*%
%ADD11C,0.150000*%
%ADD12C,0.120000*%
G04 APERTURE END LIST*
D10*
X63414286Y-54489600D02*
X63557143Y-54537219D01*
X63557143Y-54537219D02*
X63795238Y-54537219D01*
X63795238Y-54537219D02*
X63890476Y-54489600D01*
X63890476Y-54489600D02*
X63938095Y-54441980D01*
X63938095Y-54441980D02*
X63985714Y-54346742D01*
X63985714Y-54346742D02*
X63985714Y-54251504D01*
X63985714Y-54251504D02*
X63938095Y-54156266D01*
X63938095Y-54156266D02*
X63890476Y-54108647D01*
X63890476Y-54108647D02*
X63795238Y-54061028D01*
X63795238Y-54061028D02*
X63604762Y-54013409D01*
X63604762Y-54013409D02*
X63509524Y-53965790D01*
X63509524Y-53965790D02*
X63461905Y-53918171D01*
X63461905Y-53918171D02*
X63414286Y-53822933D01*
X63414286Y-53822933D02*
X63414286Y-53727695D01*
X63414286Y-53727695D02*
X63461905Y-53632457D01*
X63461905Y-53632457D02*
X63509524Y-53584838D01*
X63509524Y-53584838D02*
X63604762Y-53537219D01*
X63604762Y-53537219D02*
X63842857Y-53537219D01*
X63842857Y-53537219D02*
X63985714Y-53584838D01*
X64985714Y-54441980D02*
X64938095Y-54489600D01*
X64938095Y-54489600D02*
X64795238Y-54537219D01*
X64795238Y-54537219D02*
X64700000Y-54537219D01*
X64700000Y-54537219D02*
X64557143Y-54489600D01*
X64557143Y-54489600D02*
X64461905Y-54394361D01*
X64461905Y-54394361D02*
X64414286Y-54299123D01*
X64414286Y-54299123D02*
X64366667Y-54108647D01*
X64366667Y-54108647D02*
X64366667Y-53965790D01*
X64366667Y-53965790D02*
X64414286Y-53775314D01*
X64414286Y-53775314D02*
X64461905Y-53680076D01*
X64461905Y-53680076D02*
X64557143Y-53584838D01*
X64557143Y-53584838D02*
X64700000Y-53537219D01*
X64700000Y-53537219D02*
X64795238Y-53537219D01*
X64795238Y-53537219D02*
X64938095Y-53584838D01*
X64938095Y-53584838D02*
X64985714Y-53632457D01*
X81678095Y-53584838D02*
X81582857Y-53537219D01*
X81582857Y-53537219D02*
X81440000Y-53537219D01*
X81440000Y-53537219D02*
X81297143Y-53584838D01*
X81297143Y-53584838D02*
X81201905Y-53680076D01*
X81201905Y-53680076D02*
X81154286Y-53775314D01*
X81154286Y-53775314D02*
X81106667Y-53965790D01*
X81106667Y-53965790D02*
X81106667Y-54108647D01*
X81106667Y-54108647D02*
X81154286Y-54299123D01*
X81154286Y-54299123D02*
X81201905Y-54394361D01*
X81201905Y-54394361D02*
X81297143Y-54489600D01*
X81297143Y-54489600D02*
X81440000Y-54537219D01*
X81440000Y-54537219D02*
X81535238Y-54537219D01*
X81535238Y-54537219D02*
X81678095Y-54489600D01*
X81678095Y-54489600D02*
X81725714Y-54441980D01*
X81725714Y-54441980D02*
X81725714Y-54108647D01*
X81725714Y-54108647D02*
X81535238Y-54108647D01*
X82154286Y-54537219D02*
X82154286Y-53537219D01*
X82154286Y-53537219D02*
X82725714Y-54537219D01*
X82725714Y-54537219D02*
X82725714Y-53537219D01*
X83201905Y-54537219D02*
X83201905Y-53537219D01*
X83201905Y-53537219D02*
X83440000Y-53537219D01*
X83440000Y-53537219D02*
X83582857Y-53584838D01*
X83582857Y-53584838D02*
X83678095Y-53680076D01*
X83678095Y-53680076D02*
X83725714Y-53775314D01*
X83725714Y-53775314D02*
X83773333Y-53965790D01*
X83773333Y-53965790D02*
X83773333Y-54108647D01*
X83773333Y-54108647D02*
X83725714Y-54299123D01*
X83725714Y-54299123D02*
X83678095Y-54394361D01*
X83678095Y-54394361D02*
X83582857Y-54489600D01*
X83582857Y-54489600D02*
X83440000Y-54537219D01*
X83440000Y-54537219D02*
X83201905Y-54537219D01*
X60378095Y-53584838D02*
X60282857Y-53537219D01*
X60282857Y-53537219D02*
X60140000Y-53537219D01*
X60140000Y-53537219D02*
X59997143Y-53584838D01*
X59997143Y-53584838D02*
X59901905Y-53680076D01*
X59901905Y-53680076D02*
X59854286Y-53775314D01*
X59854286Y-53775314D02*
X59806667Y-53965790D01*
X59806667Y-53965790D02*
X59806667Y-54108647D01*
X59806667Y-54108647D02*
X59854286Y-54299123D01*
X59854286Y-54299123D02*
X59901905Y-54394361D01*
X59901905Y-54394361D02*
X59997143Y-54489600D01*
X59997143Y-54489600D02*
X60140000Y-54537219D01*
X60140000Y-54537219D02*
X60235238Y-54537219D01*
X60235238Y-54537219D02*
X60378095Y-54489600D01*
X60378095Y-54489600D02*
X60425714Y-54441980D01*
X60425714Y-54441980D02*
X60425714Y-54108647D01*
X60425714Y-54108647D02*
X60235238Y-54108647D01*
X60854286Y-54537219D02*
X60854286Y-53537219D01*
X60854286Y-53537219D02*
X61425714Y-54537219D01*
X61425714Y-54537219D02*
X61425714Y-53537219D01*
X61901905Y-54537219D02*
X61901905Y-53537219D01*
X61901905Y-53537219D02*
X62140000Y-53537219D01*
X62140000Y-53537219D02*
X62282857Y-53584838D01*
X62282857Y-53584838D02*
X62378095Y-53680076D01*
X62378095Y-53680076D02*
X62425714Y-53775314D01*
X62425714Y-53775314D02*
X62473333Y-53965790D01*
X62473333Y-53965790D02*
X62473333Y-54108647D01*
X62473333Y-54108647D02*
X62425714Y-54299123D01*
X62425714Y-54299123D02*
X62378095Y-54394361D01*
X62378095Y-54394361D02*
X62282857Y-54489600D01*
X62282857Y-54489600D02*
X62140000Y-54537219D01*
X62140000Y-54537219D02*
X61901905Y-54537219D01*
X65934286Y-54489600D02*
X66077143Y-54537219D01*
X66077143Y-54537219D02*
X66315238Y-54537219D01*
X66315238Y-54537219D02*
X66410476Y-54489600D01*
X66410476Y-54489600D02*
X66458095Y-54441980D01*
X66458095Y-54441980D02*
X66505714Y-54346742D01*
X66505714Y-54346742D02*
X66505714Y-54251504D01*
X66505714Y-54251504D02*
X66458095Y-54156266D01*
X66458095Y-54156266D02*
X66410476Y-54108647D01*
X66410476Y-54108647D02*
X66315238Y-54061028D01*
X66315238Y-54061028D02*
X66124762Y-54013409D01*
X66124762Y-54013409D02*
X66029524Y-53965790D01*
X66029524Y-53965790D02*
X65981905Y-53918171D01*
X65981905Y-53918171D02*
X65934286Y-53822933D01*
X65934286Y-53822933D02*
X65934286Y-53727695D01*
X65934286Y-53727695D02*
X65981905Y-53632457D01*
X65981905Y-53632457D02*
X66029524Y-53584838D01*
X66029524Y-53584838D02*
X66124762Y-53537219D01*
X66124762Y-53537219D02*
X66362857Y-53537219D01*
X66362857Y-53537219D02*
X66505714Y-53584838D01*
X66934286Y-54537219D02*
X66934286Y-53537219D01*
X66934286Y-53537219D02*
X67172381Y-53537219D01*
X67172381Y-53537219D02*
X67315238Y-53584838D01*
X67315238Y-53584838D02*
X67410476Y-53680076D01*
X67410476Y-53680076D02*
X67458095Y-53775314D01*
X67458095Y-53775314D02*
X67505714Y-53965790D01*
X67505714Y-53965790D02*
X67505714Y-54108647D01*
X67505714Y-54108647D02*
X67458095Y-54299123D01*
X67458095Y-54299123D02*
X67410476Y-54394361D01*
X67410476Y-54394361D02*
X67315238Y-54489600D01*
X67315238Y-54489600D02*
X67172381Y-54537219D01*
X67172381Y-54537219D02*
X66934286Y-54537219D01*
X78658095Y-54537219D02*
X78658095Y-53537219D01*
X78658095Y-53537219D02*
X78896190Y-53537219D01*
X78896190Y-53537219D02*
X79039047Y-53584838D01*
X79039047Y-53584838D02*
X79134285Y-53680076D01*
X79134285Y-53680076D02*
X79181904Y-53775314D01*
X79181904Y-53775314D02*
X79229523Y-53965790D01*
X79229523Y-53965790D02*
X79229523Y-54108647D01*
X79229523Y-54108647D02*
X79181904Y-54299123D01*
X79181904Y-54299123D02*
X79134285Y-54394361D01*
X79134285Y-54394361D02*
X79039047Y-54489600D01*
X79039047Y-54489600D02*
X78896190Y-54537219D01*
X78896190Y-54537219D02*
X78658095Y-54537219D01*
X79658095Y-54537219D02*
X79658095Y-53537219D01*
X79658095Y-53537219D02*
X80039047Y-53537219D01*
X80039047Y-53537219D02*
X80134285Y-53584838D01*
X80134285Y-53584838D02*
X80181904Y-53632457D01*
X80181904Y-53632457D02*
X80229523Y-53727695D01*
X80229523Y-53727695D02*
X80229523Y-53870552D01*
X80229523Y-53870552D02*
X80181904Y-53965790D01*
X80181904Y-53965790D02*
X80134285Y-54013409D01*
X80134285Y-54013409D02*
X80039047Y-54061028D01*
X80039047Y-54061028D02*
X79658095Y-54061028D01*
X53893482Y-61659838D02*
X53798244Y-61612219D01*
X53798244Y-61612219D02*
X53655387Y-61612219D01*
X53655387Y-61612219D02*
X53512530Y-61659838D01*
X53512530Y-61659838D02*
X53417292Y-61755076D01*
X53417292Y-61755076D02*
X53369673Y-61850314D01*
X53369673Y-61850314D02*
X53322054Y-62040790D01*
X53322054Y-62040790D02*
X53322054Y-62183647D01*
X53322054Y-62183647D02*
X53369673Y-62374123D01*
X53369673Y-62374123D02*
X53417292Y-62469361D01*
X53417292Y-62469361D02*
X53512530Y-62564600D01*
X53512530Y-62564600D02*
X53655387Y-62612219D01*
X53655387Y-62612219D02*
X53750625Y-62612219D01*
X53750625Y-62612219D02*
X53893482Y-62564600D01*
X53893482Y-62564600D02*
X53941101Y-62516980D01*
X53941101Y-62516980D02*
X53941101Y-62183647D01*
X53941101Y-62183647D02*
X53750625Y-62183647D01*
X54369673Y-62612219D02*
X54369673Y-61612219D01*
X54369673Y-61612219D02*
X54941101Y-62612219D01*
X54941101Y-62612219D02*
X54941101Y-61612219D01*
X55417292Y-62612219D02*
X55417292Y-61612219D01*
X55417292Y-61612219D02*
X55655387Y-61612219D01*
X55655387Y-61612219D02*
X55798244Y-61659838D01*
X55798244Y-61659838D02*
X55893482Y-61755076D01*
X55893482Y-61755076D02*
X55941101Y-61850314D01*
X55941101Y-61850314D02*
X55988720Y-62040790D01*
X55988720Y-62040790D02*
X55988720Y-62183647D01*
X55988720Y-62183647D02*
X55941101Y-62374123D01*
X55941101Y-62374123D02*
X55893482Y-62469361D01*
X55893482Y-62469361D02*
X55798244Y-62564600D01*
X55798244Y-62564600D02*
X55655387Y-62612219D01*
X55655387Y-62612219D02*
X55417292Y-62612219D01*
X53226816Y-66772219D02*
X53560149Y-67772219D01*
X53560149Y-67772219D02*
X53893482Y-66772219D01*
X54417292Y-66772219D02*
X54607768Y-66772219D01*
X54607768Y-66772219D02*
X54703006Y-66819838D01*
X54703006Y-66819838D02*
X54798244Y-66915076D01*
X54798244Y-66915076D02*
X54845863Y-67105552D01*
X54845863Y-67105552D02*
X54845863Y-67438885D01*
X54845863Y-67438885D02*
X54798244Y-67629361D01*
X54798244Y-67629361D02*
X54703006Y-67724600D01*
X54703006Y-67724600D02*
X54607768Y-67772219D01*
X54607768Y-67772219D02*
X54417292Y-67772219D01*
X54417292Y-67772219D02*
X54322054Y-67724600D01*
X54322054Y-67724600D02*
X54226816Y-67629361D01*
X54226816Y-67629361D02*
X54179197Y-67438885D01*
X54179197Y-67438885D02*
X54179197Y-67105552D01*
X54179197Y-67105552D02*
X54226816Y-66915076D01*
X54226816Y-66915076D02*
X54322054Y-66819838D01*
X54322054Y-66819838D02*
X54417292Y-66772219D01*
X55274435Y-66772219D02*
X55274435Y-67581742D01*
X55274435Y-67581742D02*
X55322054Y-67676980D01*
X55322054Y-67676980D02*
X55369673Y-67724600D01*
X55369673Y-67724600D02*
X55464911Y-67772219D01*
X55464911Y-67772219D02*
X55655387Y-67772219D01*
X55655387Y-67772219D02*
X55750625Y-67724600D01*
X55750625Y-67724600D02*
X55798244Y-67676980D01*
X55798244Y-67676980D02*
X55845863Y-67581742D01*
X55845863Y-67581742D02*
X55845863Y-66772219D01*
X56179197Y-66772219D02*
X56750625Y-66772219D01*
X56464911Y-67772219D02*
X56464911Y-66772219D01*
X53226816Y-56532219D02*
X53560149Y-57532219D01*
X53560149Y-57532219D02*
X53893482Y-56532219D01*
X54417292Y-56532219D02*
X54607768Y-56532219D01*
X54607768Y-56532219D02*
X54703006Y-56579838D01*
X54703006Y-56579838D02*
X54798244Y-56675076D01*
X54798244Y-56675076D02*
X54845863Y-56865552D01*
X54845863Y-56865552D02*
X54845863Y-57198885D01*
X54845863Y-57198885D02*
X54798244Y-57389361D01*
X54798244Y-57389361D02*
X54703006Y-57484600D01*
X54703006Y-57484600D02*
X54607768Y-57532219D01*
X54607768Y-57532219D02*
X54417292Y-57532219D01*
X54417292Y-57532219D02*
X54322054Y-57484600D01*
X54322054Y-57484600D02*
X54226816Y-57389361D01*
X54226816Y-57389361D02*
X54179197Y-57198885D01*
X54179197Y-57198885D02*
X54179197Y-56865552D01*
X54179197Y-56865552D02*
X54226816Y-56675076D01*
X54226816Y-56675076D02*
X54322054Y-56579838D01*
X54322054Y-56579838D02*
X54417292Y-56532219D01*
X55274435Y-56532219D02*
X55274435Y-57341742D01*
X55274435Y-57341742D02*
X55322054Y-57436980D01*
X55322054Y-57436980D02*
X55369673Y-57484600D01*
X55369673Y-57484600D02*
X55464911Y-57532219D01*
X55464911Y-57532219D02*
X55655387Y-57532219D01*
X55655387Y-57532219D02*
X55750625Y-57484600D01*
X55750625Y-57484600D02*
X55798244Y-57436980D01*
X55798244Y-57436980D02*
X55845863Y-57341742D01*
X55845863Y-57341742D02*
X55845863Y-56532219D01*
X56179197Y-56532219D02*
X56750625Y-56532219D01*
X56464911Y-57532219D02*
X56464911Y-56532219D01*
X53893482Y-64199838D02*
X53798244Y-64152219D01*
X53798244Y-64152219D02*
X53655387Y-64152219D01*
X53655387Y-64152219D02*
X53512530Y-64199838D01*
X53512530Y-64199838D02*
X53417292Y-64295076D01*
X53417292Y-64295076D02*
X53369673Y-64390314D01*
X53369673Y-64390314D02*
X53322054Y-64580790D01*
X53322054Y-64580790D02*
X53322054Y-64723647D01*
X53322054Y-64723647D02*
X53369673Y-64914123D01*
X53369673Y-64914123D02*
X53417292Y-65009361D01*
X53417292Y-65009361D02*
X53512530Y-65104600D01*
X53512530Y-65104600D02*
X53655387Y-65152219D01*
X53655387Y-65152219D02*
X53750625Y-65152219D01*
X53750625Y-65152219D02*
X53893482Y-65104600D01*
X53893482Y-65104600D02*
X53941101Y-65056980D01*
X53941101Y-65056980D02*
X53941101Y-64723647D01*
X53941101Y-64723647D02*
X53750625Y-64723647D01*
X54369673Y-65152219D02*
X54369673Y-64152219D01*
X54369673Y-64152219D02*
X54941101Y-65152219D01*
X54941101Y-65152219D02*
X54941101Y-64152219D01*
X55417292Y-65152219D02*
X55417292Y-64152219D01*
X55417292Y-64152219D02*
X55655387Y-64152219D01*
X55655387Y-64152219D02*
X55798244Y-64199838D01*
X55798244Y-64199838D02*
X55893482Y-64295076D01*
X55893482Y-64295076D02*
X55941101Y-64390314D01*
X55941101Y-64390314D02*
X55988720Y-64580790D01*
X55988720Y-64580790D02*
X55988720Y-64723647D01*
X55988720Y-64723647D02*
X55941101Y-64914123D01*
X55941101Y-64914123D02*
X55893482Y-65009361D01*
X55893482Y-65009361D02*
X55798244Y-65104600D01*
X55798244Y-65104600D02*
X55655387Y-65152219D01*
X55655387Y-65152219D02*
X55417292Y-65152219D01*
X76094286Y-54537219D02*
X76094286Y-53537219D01*
X76094286Y-53537219D02*
X76332381Y-53537219D01*
X76332381Y-53537219D02*
X76475238Y-53584838D01*
X76475238Y-53584838D02*
X76570476Y-53680076D01*
X76570476Y-53680076D02*
X76618095Y-53775314D01*
X76618095Y-53775314D02*
X76665714Y-53965790D01*
X76665714Y-53965790D02*
X76665714Y-54108647D01*
X76665714Y-54108647D02*
X76618095Y-54299123D01*
X76618095Y-54299123D02*
X76570476Y-54394361D01*
X76570476Y-54394361D02*
X76475238Y-54489600D01*
X76475238Y-54489600D02*
X76332381Y-54537219D01*
X76332381Y-54537219D02*
X76094286Y-54537219D01*
X77094286Y-54537219D02*
X77094286Y-53537219D01*
X77094286Y-53537219D02*
X77665714Y-54537219D01*
X77665714Y-54537219D02*
X77665714Y-53537219D01*
X53893482Y-59119838D02*
X53798244Y-59072219D01*
X53798244Y-59072219D02*
X53655387Y-59072219D01*
X53655387Y-59072219D02*
X53512530Y-59119838D01*
X53512530Y-59119838D02*
X53417292Y-59215076D01*
X53417292Y-59215076D02*
X53369673Y-59310314D01*
X53369673Y-59310314D02*
X53322054Y-59500790D01*
X53322054Y-59500790D02*
X53322054Y-59643647D01*
X53322054Y-59643647D02*
X53369673Y-59834123D01*
X53369673Y-59834123D02*
X53417292Y-59929361D01*
X53417292Y-59929361D02*
X53512530Y-60024600D01*
X53512530Y-60024600D02*
X53655387Y-60072219D01*
X53655387Y-60072219D02*
X53750625Y-60072219D01*
X53750625Y-60072219D02*
X53893482Y-60024600D01*
X53893482Y-60024600D02*
X53941101Y-59976980D01*
X53941101Y-59976980D02*
X53941101Y-59643647D01*
X53941101Y-59643647D02*
X53750625Y-59643647D01*
X54369673Y-60072219D02*
X54369673Y-59072219D01*
X54369673Y-59072219D02*
X54941101Y-60072219D01*
X54941101Y-60072219D02*
X54941101Y-59072219D01*
X55417292Y-60072219D02*
X55417292Y-59072219D01*
X55417292Y-59072219D02*
X55655387Y-59072219D01*
X55655387Y-59072219D02*
X55798244Y-59119838D01*
X55798244Y-59119838D02*
X55893482Y-59215076D01*
X55893482Y-59215076D02*
X55941101Y-59310314D01*
X55941101Y-59310314D02*
X55988720Y-59500790D01*
X55988720Y-59500790D02*
X55988720Y-59643647D01*
X55988720Y-59643647D02*
X55941101Y-59834123D01*
X55941101Y-59834123D02*
X55893482Y-59929361D01*
X55893482Y-59929361D02*
X55798244Y-60024600D01*
X55798244Y-60024600D02*
X55655387Y-60072219D01*
X55655387Y-60072219D02*
X55417292Y-60072219D01*
D11*
X61184761Y-73540057D02*
X61089523Y-73492438D01*
X61089523Y-73492438D02*
X60994285Y-73397200D01*
X60994285Y-73397200D02*
X60851428Y-73254342D01*
X60851428Y-73254342D02*
X60756190Y-73206723D01*
X60756190Y-73206723D02*
X60660952Y-73206723D01*
X60708571Y-73444819D02*
X60613333Y-73397200D01*
X60613333Y-73397200D02*
X60518095Y-73301961D01*
X60518095Y-73301961D02*
X60470476Y-73111485D01*
X60470476Y-73111485D02*
X60470476Y-72778152D01*
X60470476Y-72778152D02*
X60518095Y-72587676D01*
X60518095Y-72587676D02*
X60613333Y-72492438D01*
X60613333Y-72492438D02*
X60708571Y-72444819D01*
X60708571Y-72444819D02*
X60899047Y-72444819D01*
X60899047Y-72444819D02*
X60994285Y-72492438D01*
X60994285Y-72492438D02*
X61089523Y-72587676D01*
X61089523Y-72587676D02*
X61137142Y-72778152D01*
X61137142Y-72778152D02*
X61137142Y-73111485D01*
X61137142Y-73111485D02*
X61089523Y-73301961D01*
X61089523Y-73301961D02*
X60994285Y-73397200D01*
X60994285Y-73397200D02*
X60899047Y-73444819D01*
X60899047Y-73444819D02*
X60708571Y-73444819D01*
X61518095Y-72540057D02*
X61565714Y-72492438D01*
X61565714Y-72492438D02*
X61660952Y-72444819D01*
X61660952Y-72444819D02*
X61899047Y-72444819D01*
X61899047Y-72444819D02*
X61994285Y-72492438D01*
X61994285Y-72492438D02*
X62041904Y-72540057D01*
X62041904Y-72540057D02*
X62089523Y-72635295D01*
X62089523Y-72635295D02*
X62089523Y-72730533D01*
X62089523Y-72730533D02*
X62041904Y-72873390D01*
X62041904Y-72873390D02*
X61470476Y-73444819D01*
X61470476Y-73444819D02*
X62089523Y-73444819D01*
X80683333Y-67559580D02*
X80635714Y-67607200D01*
X80635714Y-67607200D02*
X80492857Y-67654819D01*
X80492857Y-67654819D02*
X80397619Y-67654819D01*
X80397619Y-67654819D02*
X80254762Y-67607200D01*
X80254762Y-67607200D02*
X80159524Y-67511961D01*
X80159524Y-67511961D02*
X80111905Y-67416723D01*
X80111905Y-67416723D02*
X80064286Y-67226247D01*
X80064286Y-67226247D02*
X80064286Y-67083390D01*
X80064286Y-67083390D02*
X80111905Y-66892914D01*
X80111905Y-66892914D02*
X80159524Y-66797676D01*
X80159524Y-66797676D02*
X80254762Y-66702438D01*
X80254762Y-66702438D02*
X80397619Y-66654819D01*
X80397619Y-66654819D02*
X80492857Y-66654819D01*
X80492857Y-66654819D02*
X80635714Y-66702438D01*
X80635714Y-66702438D02*
X80683333Y-66750057D01*
X81159524Y-67654819D02*
X81350000Y-67654819D01*
X81350000Y-67654819D02*
X81445238Y-67607200D01*
X81445238Y-67607200D02*
X81492857Y-67559580D01*
X81492857Y-67559580D02*
X81588095Y-67416723D01*
X81588095Y-67416723D02*
X81635714Y-67226247D01*
X81635714Y-67226247D02*
X81635714Y-66845295D01*
X81635714Y-66845295D02*
X81588095Y-66750057D01*
X81588095Y-66750057D02*
X81540476Y-66702438D01*
X81540476Y-66702438D02*
X81445238Y-66654819D01*
X81445238Y-66654819D02*
X81254762Y-66654819D01*
X81254762Y-66654819D02*
X81159524Y-66702438D01*
X81159524Y-66702438D02*
X81111905Y-66750057D01*
X81111905Y-66750057D02*
X81064286Y-66845295D01*
X81064286Y-66845295D02*
X81064286Y-67083390D01*
X81064286Y-67083390D02*
X81111905Y-67178628D01*
X81111905Y-67178628D02*
X81159524Y-67226247D01*
X81159524Y-67226247D02*
X81254762Y-67273866D01*
X81254762Y-67273866D02*
X81445238Y-67273866D01*
X81445238Y-67273866D02*
X81540476Y-67226247D01*
X81540476Y-67226247D02*
X81588095Y-67178628D01*
X81588095Y-67178628D02*
X81635714Y-67083390D01*
X51957142Y-70969580D02*
X51909523Y-71017200D01*
X51909523Y-71017200D02*
X51766666Y-71064819D01*
X51766666Y-71064819D02*
X51671428Y-71064819D01*
X51671428Y-71064819D02*
X51528571Y-71017200D01*
X51528571Y-71017200D02*
X51433333Y-70921961D01*
X51433333Y-70921961D02*
X51385714Y-70826723D01*
X51385714Y-70826723D02*
X51338095Y-70636247D01*
X51338095Y-70636247D02*
X51338095Y-70493390D01*
X51338095Y-70493390D02*
X51385714Y-70302914D01*
X51385714Y-70302914D02*
X51433333Y-70207676D01*
X51433333Y-70207676D02*
X51528571Y-70112438D01*
X51528571Y-70112438D02*
X51671428Y-70064819D01*
X51671428Y-70064819D02*
X51766666Y-70064819D01*
X51766666Y-70064819D02*
X51909523Y-70112438D01*
X51909523Y-70112438D02*
X51957142Y-70160057D01*
X52909523Y-71064819D02*
X52338095Y-71064819D01*
X52623809Y-71064819D02*
X52623809Y-70064819D01*
X52623809Y-70064819D02*
X52528571Y-70207676D01*
X52528571Y-70207676D02*
X52433333Y-70302914D01*
X52433333Y-70302914D02*
X52338095Y-70350533D01*
X53766666Y-70398152D02*
X53766666Y-71064819D01*
X53528571Y-70017200D02*
X53290476Y-70731485D01*
X53290476Y-70731485D02*
X53909523Y-70731485D01*
X51130952Y-72234819D02*
X50559524Y-72234819D01*
X50845238Y-72234819D02*
X50845238Y-71234819D01*
X50845238Y-71234819D02*
X50750000Y-71377676D01*
X50750000Y-71377676D02*
X50654762Y-71472914D01*
X50654762Y-71472914D02*
X50559524Y-71520533D01*
X51750000Y-71234819D02*
X51845238Y-71234819D01*
X51845238Y-71234819D02*
X51940476Y-71282438D01*
X51940476Y-71282438D02*
X51988095Y-71330057D01*
X51988095Y-71330057D02*
X52035714Y-71425295D01*
X52035714Y-71425295D02*
X52083333Y-71615771D01*
X52083333Y-71615771D02*
X52083333Y-71853866D01*
X52083333Y-71853866D02*
X52035714Y-72044342D01*
X52035714Y-72044342D02*
X51988095Y-72139580D01*
X51988095Y-72139580D02*
X51940476Y-72187200D01*
X51940476Y-72187200D02*
X51845238Y-72234819D01*
X51845238Y-72234819D02*
X51750000Y-72234819D01*
X51750000Y-72234819D02*
X51654762Y-72187200D01*
X51654762Y-72187200D02*
X51607143Y-72139580D01*
X51607143Y-72139580D02*
X51559524Y-72044342D01*
X51559524Y-72044342D02*
X51511905Y-71853866D01*
X51511905Y-71853866D02*
X51511905Y-71615771D01*
X51511905Y-71615771D02*
X51559524Y-71425295D01*
X51559524Y-71425295D02*
X51607143Y-71330057D01*
X51607143Y-71330057D02*
X51654762Y-71282438D01*
X51654762Y-71282438D02*
X51750000Y-71234819D01*
X52702381Y-71234819D02*
X52797619Y-71234819D01*
X52797619Y-71234819D02*
X52892857Y-71282438D01*
X52892857Y-71282438D02*
X52940476Y-71330057D01*
X52940476Y-71330057D02*
X52988095Y-71425295D01*
X52988095Y-71425295D02*
X53035714Y-71615771D01*
X53035714Y-71615771D02*
X53035714Y-71853866D01*
X53035714Y-71853866D02*
X52988095Y-72044342D01*
X52988095Y-72044342D02*
X52940476Y-72139580D01*
X52940476Y-72139580D02*
X52892857Y-72187200D01*
X52892857Y-72187200D02*
X52797619Y-72234819D01*
X52797619Y-72234819D02*
X52702381Y-72234819D01*
X52702381Y-72234819D02*
X52607143Y-72187200D01*
X52607143Y-72187200D02*
X52559524Y-72139580D01*
X52559524Y-72139580D02*
X52511905Y-72044342D01*
X52511905Y-72044342D02*
X52464286Y-71853866D01*
X52464286Y-71853866D02*
X52464286Y-71615771D01*
X52464286Y-71615771D02*
X52511905Y-71425295D01*
X52511905Y-71425295D02*
X52559524Y-71330057D01*
X52559524Y-71330057D02*
X52607143Y-71282438D01*
X52607143Y-71282438D02*
X52702381Y-71234819D01*
X53464286Y-71568152D02*
X53464286Y-72234819D01*
X53464286Y-71663390D02*
X53511905Y-71615771D01*
X53511905Y-71615771D02*
X53607143Y-71568152D01*
X53607143Y-71568152D02*
X53750000Y-71568152D01*
X53750000Y-71568152D02*
X53845238Y-71615771D01*
X53845238Y-71615771D02*
X53892857Y-71711009D01*
X53892857Y-71711009D02*
X53892857Y-72234819D01*
X61857142Y-65304819D02*
X61523809Y-64828628D01*
X61285714Y-65304819D02*
X61285714Y-64304819D01*
X61285714Y-64304819D02*
X61666666Y-64304819D01*
X61666666Y-64304819D02*
X61761904Y-64352438D01*
X61761904Y-64352438D02*
X61809523Y-64400057D01*
X61809523Y-64400057D02*
X61857142Y-64495295D01*
X61857142Y-64495295D02*
X61857142Y-64638152D01*
X61857142Y-64638152D02*
X61809523Y-64733390D01*
X61809523Y-64733390D02*
X61761904Y-64781009D01*
X61761904Y-64781009D02*
X61666666Y-64828628D01*
X61666666Y-64828628D02*
X61285714Y-64828628D01*
X62809523Y-65304819D02*
X62238095Y-65304819D01*
X62523809Y-65304819D02*
X62523809Y-64304819D01*
X62523809Y-64304819D02*
X62428571Y-64447676D01*
X62428571Y-64447676D02*
X62333333Y-64542914D01*
X62333333Y-64542914D02*
X62238095Y-64590533D01*
X63190476Y-64400057D02*
X63238095Y-64352438D01*
X63238095Y-64352438D02*
X63333333Y-64304819D01*
X63333333Y-64304819D02*
X63571428Y-64304819D01*
X63571428Y-64304819D02*
X63666666Y-64352438D01*
X63666666Y-64352438D02*
X63714285Y-64400057D01*
X63714285Y-64400057D02*
X63761904Y-64495295D01*
X63761904Y-64495295D02*
X63761904Y-64590533D01*
X63761904Y-64590533D02*
X63714285Y-64733390D01*
X63714285Y-64733390D02*
X63142857Y-65304819D01*
X63142857Y-65304819D02*
X63761904Y-65304819D01*
X62452381Y-67604819D02*
X62547619Y-67604819D01*
X62547619Y-67604819D02*
X62642857Y-67652438D01*
X62642857Y-67652438D02*
X62690476Y-67700057D01*
X62690476Y-67700057D02*
X62738095Y-67795295D01*
X62738095Y-67795295D02*
X62785714Y-67985771D01*
X62785714Y-67985771D02*
X62785714Y-68223866D01*
X62785714Y-68223866D02*
X62738095Y-68414342D01*
X62738095Y-68414342D02*
X62690476Y-68509580D01*
X62690476Y-68509580D02*
X62642857Y-68557200D01*
X62642857Y-68557200D02*
X62547619Y-68604819D01*
X62547619Y-68604819D02*
X62452381Y-68604819D01*
X62452381Y-68604819D02*
X62357143Y-68557200D01*
X62357143Y-68557200D02*
X62309524Y-68509580D01*
X62309524Y-68509580D02*
X62261905Y-68414342D01*
X62261905Y-68414342D02*
X62214286Y-68223866D01*
X62214286Y-68223866D02*
X62214286Y-67985771D01*
X62214286Y-67985771D02*
X62261905Y-67795295D01*
X62261905Y-67795295D02*
X62309524Y-67700057D01*
X62309524Y-67700057D02*
X62357143Y-67652438D01*
X62357143Y-67652438D02*
X62452381Y-67604819D01*
X57367142Y-67579580D02*
X57319523Y-67627200D01*
X57319523Y-67627200D02*
X57176666Y-67674819D01*
X57176666Y-67674819D02*
X57081428Y-67674819D01*
X57081428Y-67674819D02*
X56938571Y-67627200D01*
X56938571Y-67627200D02*
X56843333Y-67531961D01*
X56843333Y-67531961D02*
X56795714Y-67436723D01*
X56795714Y-67436723D02*
X56748095Y-67246247D01*
X56748095Y-67246247D02*
X56748095Y-67103390D01*
X56748095Y-67103390D02*
X56795714Y-66912914D01*
X56795714Y-66912914D02*
X56843333Y-66817676D01*
X56843333Y-66817676D02*
X56938571Y-66722438D01*
X56938571Y-66722438D02*
X57081428Y-66674819D01*
X57081428Y-66674819D02*
X57176666Y-66674819D01*
X57176666Y-66674819D02*
X57319523Y-66722438D01*
X57319523Y-66722438D02*
X57367142Y-66770057D01*
X58319523Y-67674819D02*
X57748095Y-67674819D01*
X58033809Y-67674819D02*
X58033809Y-66674819D01*
X58033809Y-66674819D02*
X57938571Y-66817676D01*
X57938571Y-66817676D02*
X57843333Y-66912914D01*
X57843333Y-66912914D02*
X57748095Y-66960533D01*
X58652857Y-66674819D02*
X59271904Y-66674819D01*
X59271904Y-66674819D02*
X58938571Y-67055771D01*
X58938571Y-67055771D02*
X59081428Y-67055771D01*
X59081428Y-67055771D02*
X59176666Y-67103390D01*
X59176666Y-67103390D02*
X59224285Y-67151009D01*
X59224285Y-67151009D02*
X59271904Y-67246247D01*
X59271904Y-67246247D02*
X59271904Y-67484342D01*
X59271904Y-67484342D02*
X59224285Y-67579580D01*
X59224285Y-67579580D02*
X59176666Y-67627200D01*
X59176666Y-67627200D02*
X59081428Y-67674819D01*
X59081428Y-67674819D02*
X58795714Y-67674819D01*
X58795714Y-67674819D02*
X58700476Y-67627200D01*
X58700476Y-67627200D02*
X58652857Y-67579580D01*
X57327142Y-73314819D02*
X56755714Y-73314819D01*
X57041428Y-73314819D02*
X57041428Y-72314819D01*
X57041428Y-72314819D02*
X56946190Y-72457676D01*
X56946190Y-72457676D02*
X56850952Y-72552914D01*
X56850952Y-72552914D02*
X56755714Y-72600533D01*
X57946190Y-72314819D02*
X58041428Y-72314819D01*
X58041428Y-72314819D02*
X58136666Y-72362438D01*
X58136666Y-72362438D02*
X58184285Y-72410057D01*
X58184285Y-72410057D02*
X58231904Y-72505295D01*
X58231904Y-72505295D02*
X58279523Y-72695771D01*
X58279523Y-72695771D02*
X58279523Y-72933866D01*
X58279523Y-72933866D02*
X58231904Y-73124342D01*
X58231904Y-73124342D02*
X58184285Y-73219580D01*
X58184285Y-73219580D02*
X58136666Y-73267200D01*
X58136666Y-73267200D02*
X58041428Y-73314819D01*
X58041428Y-73314819D02*
X57946190Y-73314819D01*
X57946190Y-73314819D02*
X57850952Y-73267200D01*
X57850952Y-73267200D02*
X57803333Y-73219580D01*
X57803333Y-73219580D02*
X57755714Y-73124342D01*
X57755714Y-73124342D02*
X57708095Y-72933866D01*
X57708095Y-72933866D02*
X57708095Y-72695771D01*
X57708095Y-72695771D02*
X57755714Y-72505295D01*
X57755714Y-72505295D02*
X57803333Y-72410057D01*
X57803333Y-72410057D02*
X57850952Y-72362438D01*
X57850952Y-72362438D02*
X57946190Y-72314819D01*
X59136666Y-72648152D02*
X59136666Y-73314819D01*
X58708095Y-72648152D02*
X58708095Y-73171961D01*
X58708095Y-73171961D02*
X58755714Y-73267200D01*
X58755714Y-73267200D02*
X58850952Y-73314819D01*
X58850952Y-73314819D02*
X58993809Y-73314819D01*
X58993809Y-73314819D02*
X59089047Y-73267200D01*
X59089047Y-73267200D02*
X59136666Y-73219580D01*
X91261905Y-51804819D02*
X91261905Y-50804819D01*
X91261905Y-50804819D02*
X91500000Y-50804819D01*
X91500000Y-50804819D02*
X91642857Y-50852438D01*
X91642857Y-50852438D02*
X91738095Y-50947676D01*
X91738095Y-50947676D02*
X91785714Y-51042914D01*
X91785714Y-51042914D02*
X91833333Y-51233390D01*
X91833333Y-51233390D02*
X91833333Y-51376247D01*
X91833333Y-51376247D02*
X91785714Y-51566723D01*
X91785714Y-51566723D02*
X91738095Y-51661961D01*
X91738095Y-51661961D02*
X91642857Y-51757200D01*
X91642857Y-51757200D02*
X91500000Y-51804819D01*
X91500000Y-51804819D02*
X91261905Y-51804819D01*
X92166667Y-50804819D02*
X92785714Y-50804819D01*
X92785714Y-50804819D02*
X92452381Y-51185771D01*
X92452381Y-51185771D02*
X92595238Y-51185771D01*
X92595238Y-51185771D02*
X92690476Y-51233390D01*
X92690476Y-51233390D02*
X92738095Y-51281009D01*
X92738095Y-51281009D02*
X92785714Y-51376247D01*
X92785714Y-51376247D02*
X92785714Y-51614342D01*
X92785714Y-51614342D02*
X92738095Y-51709580D01*
X92738095Y-51709580D02*
X92690476Y-51757200D01*
X92690476Y-51757200D02*
X92595238Y-51804819D01*
X92595238Y-51804819D02*
X92309524Y-51804819D01*
X92309524Y-51804819D02*
X92214286Y-51757200D01*
X92214286Y-51757200D02*
X92166667Y-51709580D01*
X91357142Y-55104819D02*
X91023809Y-54628628D01*
X90785714Y-55104819D02*
X90785714Y-54104819D01*
X90785714Y-54104819D02*
X91166666Y-54104819D01*
X91166666Y-54104819D02*
X91261904Y-54152438D01*
X91261904Y-54152438D02*
X91309523Y-54200057D01*
X91309523Y-54200057D02*
X91357142Y-54295295D01*
X91357142Y-54295295D02*
X91357142Y-54438152D01*
X91357142Y-54438152D02*
X91309523Y-54533390D01*
X91309523Y-54533390D02*
X91261904Y-54581009D01*
X91261904Y-54581009D02*
X91166666Y-54628628D01*
X91166666Y-54628628D02*
X90785714Y-54628628D01*
X91785714Y-54581009D02*
X92119047Y-54581009D01*
X92261904Y-55104819D02*
X91785714Y-55104819D01*
X91785714Y-55104819D02*
X91785714Y-54104819D01*
X91785714Y-54104819D02*
X92261904Y-54104819D01*
X92690476Y-55104819D02*
X92690476Y-54104819D01*
X92690476Y-54104819D02*
X92928571Y-54104819D01*
X92928571Y-54104819D02*
X93071428Y-54152438D01*
X93071428Y-54152438D02*
X93166666Y-54247676D01*
X93166666Y-54247676D02*
X93214285Y-54342914D01*
X93214285Y-54342914D02*
X93261904Y-54533390D01*
X93261904Y-54533390D02*
X93261904Y-54676247D01*
X93261904Y-54676247D02*
X93214285Y-54866723D01*
X93214285Y-54866723D02*
X93166666Y-54961961D01*
X93166666Y-54961961D02*
X93071428Y-55057200D01*
X93071428Y-55057200D02*
X92928571Y-55104819D01*
X92928571Y-55104819D02*
X92690476Y-55104819D01*
X56761905Y-51804819D02*
X56761905Y-50804819D01*
X56761905Y-50804819D02*
X57000000Y-50804819D01*
X57000000Y-50804819D02*
X57142857Y-50852438D01*
X57142857Y-50852438D02*
X57238095Y-50947676D01*
X57238095Y-50947676D02*
X57285714Y-51042914D01*
X57285714Y-51042914D02*
X57333333Y-51233390D01*
X57333333Y-51233390D02*
X57333333Y-51376247D01*
X57333333Y-51376247D02*
X57285714Y-51566723D01*
X57285714Y-51566723D02*
X57238095Y-51661961D01*
X57238095Y-51661961D02*
X57142857Y-51757200D01*
X57142857Y-51757200D02*
X57000000Y-51804819D01*
X57000000Y-51804819D02*
X56761905Y-51804819D01*
X58238095Y-50804819D02*
X57761905Y-50804819D01*
X57761905Y-50804819D02*
X57714286Y-51281009D01*
X57714286Y-51281009D02*
X57761905Y-51233390D01*
X57761905Y-51233390D02*
X57857143Y-51185771D01*
X57857143Y-51185771D02*
X58095238Y-51185771D01*
X58095238Y-51185771D02*
X58190476Y-51233390D01*
X58190476Y-51233390D02*
X58238095Y-51281009D01*
X58238095Y-51281009D02*
X58285714Y-51376247D01*
X58285714Y-51376247D02*
X58285714Y-51614342D01*
X58285714Y-51614342D02*
X58238095Y-51709580D01*
X58238095Y-51709580D02*
X58190476Y-51757200D01*
X58190476Y-51757200D02*
X58095238Y-51804819D01*
X58095238Y-51804819D02*
X57857143Y-51804819D01*
X57857143Y-51804819D02*
X57761905Y-51757200D01*
X57761905Y-51757200D02*
X57714286Y-51709580D01*
X56857142Y-55104819D02*
X56523809Y-54628628D01*
X56285714Y-55104819D02*
X56285714Y-54104819D01*
X56285714Y-54104819D02*
X56666666Y-54104819D01*
X56666666Y-54104819D02*
X56761904Y-54152438D01*
X56761904Y-54152438D02*
X56809523Y-54200057D01*
X56809523Y-54200057D02*
X56857142Y-54295295D01*
X56857142Y-54295295D02*
X56857142Y-54438152D01*
X56857142Y-54438152D02*
X56809523Y-54533390D01*
X56809523Y-54533390D02*
X56761904Y-54581009D01*
X56761904Y-54581009D02*
X56666666Y-54628628D01*
X56666666Y-54628628D02*
X56285714Y-54628628D01*
X57285714Y-54581009D02*
X57619047Y-54581009D01*
X57761904Y-55104819D02*
X57285714Y-55104819D01*
X57285714Y-55104819D02*
X57285714Y-54104819D01*
X57285714Y-54104819D02*
X57761904Y-54104819D01*
X58190476Y-55104819D02*
X58190476Y-54104819D01*
X58190476Y-54104819D02*
X58428571Y-54104819D01*
X58428571Y-54104819D02*
X58571428Y-54152438D01*
X58571428Y-54152438D02*
X58666666Y-54247676D01*
X58666666Y-54247676D02*
X58714285Y-54342914D01*
X58714285Y-54342914D02*
X58761904Y-54533390D01*
X58761904Y-54533390D02*
X58761904Y-54676247D01*
X58761904Y-54676247D02*
X58714285Y-54866723D01*
X58714285Y-54866723D02*
X58666666Y-54961961D01*
X58666666Y-54961961D02*
X58571428Y-55057200D01*
X58571428Y-55057200D02*
X58428571Y-55104819D01*
X58428571Y-55104819D02*
X58190476Y-55104819D01*
X83763333Y-67749580D02*
X83715714Y-67797200D01*
X83715714Y-67797200D02*
X83572857Y-67844819D01*
X83572857Y-67844819D02*
X83477619Y-67844819D01*
X83477619Y-67844819D02*
X83334762Y-67797200D01*
X83334762Y-67797200D02*
X83239524Y-67701961D01*
X83239524Y-67701961D02*
X83191905Y-67606723D01*
X83191905Y-67606723D02*
X83144286Y-67416247D01*
X83144286Y-67416247D02*
X83144286Y-67273390D01*
X83144286Y-67273390D02*
X83191905Y-67082914D01*
X83191905Y-67082914D02*
X83239524Y-66987676D01*
X83239524Y-66987676D02*
X83334762Y-66892438D01*
X83334762Y-66892438D02*
X83477619Y-66844819D01*
X83477619Y-66844819D02*
X83572857Y-66844819D01*
X83572857Y-66844819D02*
X83715714Y-66892438D01*
X83715714Y-66892438D02*
X83763333Y-66940057D01*
X84334762Y-67273390D02*
X84239524Y-67225771D01*
X84239524Y-67225771D02*
X84191905Y-67178152D01*
X84191905Y-67178152D02*
X84144286Y-67082914D01*
X84144286Y-67082914D02*
X84144286Y-67035295D01*
X84144286Y-67035295D02*
X84191905Y-66940057D01*
X84191905Y-66940057D02*
X84239524Y-66892438D01*
X84239524Y-66892438D02*
X84334762Y-66844819D01*
X84334762Y-66844819D02*
X84525238Y-66844819D01*
X84525238Y-66844819D02*
X84620476Y-66892438D01*
X84620476Y-66892438D02*
X84668095Y-66940057D01*
X84668095Y-66940057D02*
X84715714Y-67035295D01*
X84715714Y-67035295D02*
X84715714Y-67082914D01*
X84715714Y-67082914D02*
X84668095Y-67178152D01*
X84668095Y-67178152D02*
X84620476Y-67225771D01*
X84620476Y-67225771D02*
X84525238Y-67273390D01*
X84525238Y-67273390D02*
X84334762Y-67273390D01*
X84334762Y-67273390D02*
X84239524Y-67321009D01*
X84239524Y-67321009D02*
X84191905Y-67368628D01*
X84191905Y-67368628D02*
X84144286Y-67463866D01*
X84144286Y-67463866D02*
X84144286Y-67654342D01*
X84144286Y-67654342D02*
X84191905Y-67749580D01*
X84191905Y-67749580D02*
X84239524Y-67797200D01*
X84239524Y-67797200D02*
X84334762Y-67844819D01*
X84334762Y-67844819D02*
X84525238Y-67844819D01*
X84525238Y-67844819D02*
X84620476Y-67797200D01*
X84620476Y-67797200D02*
X84668095Y-67749580D01*
X84668095Y-67749580D02*
X84715714Y-67654342D01*
X84715714Y-67654342D02*
X84715714Y-67463866D01*
X84715714Y-67463866D02*
X84668095Y-67368628D01*
X84668095Y-67368628D02*
X84620476Y-67321009D01*
X84620476Y-67321009D02*
X84525238Y-67273390D01*
X83000952Y-72884819D02*
X82429524Y-72884819D01*
X82715238Y-72884819D02*
X82715238Y-71884819D01*
X82715238Y-71884819D02*
X82620000Y-72027676D01*
X82620000Y-72027676D02*
X82524762Y-72122914D01*
X82524762Y-72122914D02*
X82429524Y-72170533D01*
X83620000Y-71884819D02*
X83715238Y-71884819D01*
X83715238Y-71884819D02*
X83810476Y-71932438D01*
X83810476Y-71932438D02*
X83858095Y-71980057D01*
X83858095Y-71980057D02*
X83905714Y-72075295D01*
X83905714Y-72075295D02*
X83953333Y-72265771D01*
X83953333Y-72265771D02*
X83953333Y-72503866D01*
X83953333Y-72503866D02*
X83905714Y-72694342D01*
X83905714Y-72694342D02*
X83858095Y-72789580D01*
X83858095Y-72789580D02*
X83810476Y-72837200D01*
X83810476Y-72837200D02*
X83715238Y-72884819D01*
X83715238Y-72884819D02*
X83620000Y-72884819D01*
X83620000Y-72884819D02*
X83524762Y-72837200D01*
X83524762Y-72837200D02*
X83477143Y-72789580D01*
X83477143Y-72789580D02*
X83429524Y-72694342D01*
X83429524Y-72694342D02*
X83381905Y-72503866D01*
X83381905Y-72503866D02*
X83381905Y-72265771D01*
X83381905Y-72265771D02*
X83429524Y-72075295D01*
X83429524Y-72075295D02*
X83477143Y-71980057D01*
X83477143Y-71980057D02*
X83524762Y-71932438D01*
X83524762Y-71932438D02*
X83620000Y-71884819D01*
X84572381Y-71884819D02*
X84667619Y-71884819D01*
X84667619Y-71884819D02*
X84762857Y-71932438D01*
X84762857Y-71932438D02*
X84810476Y-71980057D01*
X84810476Y-71980057D02*
X84858095Y-72075295D01*
X84858095Y-72075295D02*
X84905714Y-72265771D01*
X84905714Y-72265771D02*
X84905714Y-72503866D01*
X84905714Y-72503866D02*
X84858095Y-72694342D01*
X84858095Y-72694342D02*
X84810476Y-72789580D01*
X84810476Y-72789580D02*
X84762857Y-72837200D01*
X84762857Y-72837200D02*
X84667619Y-72884819D01*
X84667619Y-72884819D02*
X84572381Y-72884819D01*
X84572381Y-72884819D02*
X84477143Y-72837200D01*
X84477143Y-72837200D02*
X84429524Y-72789580D01*
X84429524Y-72789580D02*
X84381905Y-72694342D01*
X84381905Y-72694342D02*
X84334286Y-72503866D01*
X84334286Y-72503866D02*
X84334286Y-72265771D01*
X84334286Y-72265771D02*
X84381905Y-72075295D01*
X84381905Y-72075295D02*
X84429524Y-71980057D01*
X84429524Y-71980057D02*
X84477143Y-71932438D01*
X84477143Y-71932438D02*
X84572381Y-71884819D01*
X85334286Y-72218152D02*
X85334286Y-72884819D01*
X85334286Y-72313390D02*
X85381905Y-72265771D01*
X85381905Y-72265771D02*
X85477143Y-72218152D01*
X85477143Y-72218152D02*
X85620000Y-72218152D01*
X85620000Y-72218152D02*
X85715238Y-72265771D01*
X85715238Y-72265771D02*
X85762857Y-72361009D01*
X85762857Y-72361009D02*
X85762857Y-72884819D01*
X76157142Y-56454819D02*
X75823809Y-55978628D01*
X75585714Y-56454819D02*
X75585714Y-55454819D01*
X75585714Y-55454819D02*
X75966666Y-55454819D01*
X75966666Y-55454819D02*
X76061904Y-55502438D01*
X76061904Y-55502438D02*
X76109523Y-55550057D01*
X76109523Y-55550057D02*
X76157142Y-55645295D01*
X76157142Y-55645295D02*
X76157142Y-55788152D01*
X76157142Y-55788152D02*
X76109523Y-55883390D01*
X76109523Y-55883390D02*
X76061904Y-55931009D01*
X76061904Y-55931009D02*
X75966666Y-55978628D01*
X75966666Y-55978628D02*
X75585714Y-55978628D01*
X77109523Y-56454819D02*
X76538095Y-56454819D01*
X76823809Y-56454819D02*
X76823809Y-55454819D01*
X76823809Y-55454819D02*
X76728571Y-55597676D01*
X76728571Y-55597676D02*
X76633333Y-55692914D01*
X76633333Y-55692914D02*
X76538095Y-55740533D01*
X77966666Y-55788152D02*
X77966666Y-56454819D01*
X77728571Y-55407200D02*
X77490476Y-56121485D01*
X77490476Y-56121485D02*
X78109523Y-56121485D01*
X76320952Y-57854819D02*
X75749524Y-57854819D01*
X76035238Y-57854819D02*
X76035238Y-56854819D01*
X76035238Y-56854819D02*
X75940000Y-56997676D01*
X75940000Y-56997676D02*
X75844762Y-57092914D01*
X75844762Y-57092914D02*
X75749524Y-57140533D01*
X76749524Y-57854819D02*
X76749524Y-56854819D01*
X76844762Y-57473866D02*
X77130476Y-57854819D01*
X77130476Y-57188152D02*
X76749524Y-57569104D01*
X86957142Y-51804819D02*
X86623809Y-51328628D01*
X86385714Y-51804819D02*
X86385714Y-50804819D01*
X86385714Y-50804819D02*
X86766666Y-50804819D01*
X86766666Y-50804819D02*
X86861904Y-50852438D01*
X86861904Y-50852438D02*
X86909523Y-50900057D01*
X86909523Y-50900057D02*
X86957142Y-50995295D01*
X86957142Y-50995295D02*
X86957142Y-51138152D01*
X86957142Y-51138152D02*
X86909523Y-51233390D01*
X86909523Y-51233390D02*
X86861904Y-51281009D01*
X86861904Y-51281009D02*
X86766666Y-51328628D01*
X86766666Y-51328628D02*
X86385714Y-51328628D01*
X87909523Y-51804819D02*
X87338095Y-51804819D01*
X87623809Y-51804819D02*
X87623809Y-50804819D01*
X87623809Y-50804819D02*
X87528571Y-50947676D01*
X87528571Y-50947676D02*
X87433333Y-51042914D01*
X87433333Y-51042914D02*
X87338095Y-51090533D01*
X88528571Y-50804819D02*
X88623809Y-50804819D01*
X88623809Y-50804819D02*
X88719047Y-50852438D01*
X88719047Y-50852438D02*
X88766666Y-50900057D01*
X88766666Y-50900057D02*
X88814285Y-50995295D01*
X88814285Y-50995295D02*
X88861904Y-51185771D01*
X88861904Y-51185771D02*
X88861904Y-51423866D01*
X88861904Y-51423866D02*
X88814285Y-51614342D01*
X88814285Y-51614342D02*
X88766666Y-51709580D01*
X88766666Y-51709580D02*
X88719047Y-51757200D01*
X88719047Y-51757200D02*
X88623809Y-51804819D01*
X88623809Y-51804819D02*
X88528571Y-51804819D01*
X88528571Y-51804819D02*
X88433333Y-51757200D01*
X88433333Y-51757200D02*
X88385714Y-51709580D01*
X88385714Y-51709580D02*
X88338095Y-51614342D01*
X88338095Y-51614342D02*
X88290476Y-51423866D01*
X88290476Y-51423866D02*
X88290476Y-51185771D01*
X88290476Y-51185771D02*
X88338095Y-50995295D01*
X88338095Y-50995295D02*
X88385714Y-50900057D01*
X88385714Y-50900057D02*
X88433333Y-50852438D01*
X88433333Y-50852438D02*
X88528571Y-50804819D01*
X86528571Y-55104819D02*
X85957143Y-55104819D01*
X86242857Y-55104819D02*
X86242857Y-54104819D01*
X86242857Y-54104819D02*
X86147619Y-54247676D01*
X86147619Y-54247676D02*
X86052381Y-54342914D01*
X86052381Y-54342914D02*
X85957143Y-54390533D01*
X87147619Y-54104819D02*
X87242857Y-54104819D01*
X87242857Y-54104819D02*
X87338095Y-54152438D01*
X87338095Y-54152438D02*
X87385714Y-54200057D01*
X87385714Y-54200057D02*
X87433333Y-54295295D01*
X87433333Y-54295295D02*
X87480952Y-54485771D01*
X87480952Y-54485771D02*
X87480952Y-54723866D01*
X87480952Y-54723866D02*
X87433333Y-54914342D01*
X87433333Y-54914342D02*
X87385714Y-55009580D01*
X87385714Y-55009580D02*
X87338095Y-55057200D01*
X87338095Y-55057200D02*
X87242857Y-55104819D01*
X87242857Y-55104819D02*
X87147619Y-55104819D01*
X87147619Y-55104819D02*
X87052381Y-55057200D01*
X87052381Y-55057200D02*
X87004762Y-55009580D01*
X87004762Y-55009580D02*
X86957143Y-54914342D01*
X86957143Y-54914342D02*
X86909524Y-54723866D01*
X86909524Y-54723866D02*
X86909524Y-54485771D01*
X86909524Y-54485771D02*
X86957143Y-54295295D01*
X86957143Y-54295295D02*
X87004762Y-54200057D01*
X87004762Y-54200057D02*
X87052381Y-54152438D01*
X87052381Y-54152438D02*
X87147619Y-54104819D01*
X88100000Y-54104819D02*
X88195238Y-54104819D01*
X88195238Y-54104819D02*
X88290476Y-54152438D01*
X88290476Y-54152438D02*
X88338095Y-54200057D01*
X88338095Y-54200057D02*
X88385714Y-54295295D01*
X88385714Y-54295295D02*
X88433333Y-54485771D01*
X88433333Y-54485771D02*
X88433333Y-54723866D01*
X88433333Y-54723866D02*
X88385714Y-54914342D01*
X88385714Y-54914342D02*
X88338095Y-55009580D01*
X88338095Y-55009580D02*
X88290476Y-55057200D01*
X88290476Y-55057200D02*
X88195238Y-55104819D01*
X88195238Y-55104819D02*
X88100000Y-55104819D01*
X88100000Y-55104819D02*
X88004762Y-55057200D01*
X88004762Y-55057200D02*
X87957143Y-55009580D01*
X87957143Y-55009580D02*
X87909524Y-54914342D01*
X87909524Y-54914342D02*
X87861905Y-54723866D01*
X87861905Y-54723866D02*
X87861905Y-54485771D01*
X87861905Y-54485771D02*
X87909524Y-54295295D01*
X87909524Y-54295295D02*
X87957143Y-54200057D01*
X87957143Y-54200057D02*
X88004762Y-54152438D01*
X88004762Y-54152438D02*
X88100000Y-54104819D01*
X88861905Y-55104819D02*
X88861905Y-54104819D01*
X88957143Y-54723866D02*
X89242857Y-55104819D01*
X89242857Y-54438152D02*
X88861905Y-54819104D01*
X77813333Y-59324819D02*
X77480000Y-58848628D01*
X77241905Y-59324819D02*
X77241905Y-58324819D01*
X77241905Y-58324819D02*
X77622857Y-58324819D01*
X77622857Y-58324819D02*
X77718095Y-58372438D01*
X77718095Y-58372438D02*
X77765714Y-58420057D01*
X77765714Y-58420057D02*
X77813333Y-58515295D01*
X77813333Y-58515295D02*
X77813333Y-58658152D01*
X77813333Y-58658152D02*
X77765714Y-58753390D01*
X77765714Y-58753390D02*
X77718095Y-58801009D01*
X77718095Y-58801009D02*
X77622857Y-58848628D01*
X77622857Y-58848628D02*
X77241905Y-58848628D01*
X78289524Y-59324819D02*
X78480000Y-59324819D01*
X78480000Y-59324819D02*
X78575238Y-59277200D01*
X78575238Y-59277200D02*
X78622857Y-59229580D01*
X78622857Y-59229580D02*
X78718095Y-59086723D01*
X78718095Y-59086723D02*
X78765714Y-58896247D01*
X78765714Y-58896247D02*
X78765714Y-58515295D01*
X78765714Y-58515295D02*
X78718095Y-58420057D01*
X78718095Y-58420057D02*
X78670476Y-58372438D01*
X78670476Y-58372438D02*
X78575238Y-58324819D01*
X78575238Y-58324819D02*
X78384762Y-58324819D01*
X78384762Y-58324819D02*
X78289524Y-58372438D01*
X78289524Y-58372438D02*
X78241905Y-58420057D01*
X78241905Y-58420057D02*
X78194286Y-58515295D01*
X78194286Y-58515295D02*
X78194286Y-58753390D01*
X78194286Y-58753390D02*
X78241905Y-58848628D01*
X78241905Y-58848628D02*
X78289524Y-58896247D01*
X78289524Y-58896247D02*
X78384762Y-58943866D01*
X78384762Y-58943866D02*
X78575238Y-58943866D01*
X78575238Y-58943866D02*
X78670476Y-58896247D01*
X78670476Y-58896247D02*
X78718095Y-58848628D01*
X78718095Y-58848628D02*
X78765714Y-58753390D01*
X80657142Y-59854819D02*
X80180952Y-59854819D01*
X80180952Y-59854819D02*
X80133333Y-60331009D01*
X80133333Y-60331009D02*
X80180952Y-60283390D01*
X80180952Y-60283390D02*
X80276190Y-60235771D01*
X80276190Y-60235771D02*
X80514285Y-60235771D01*
X80514285Y-60235771D02*
X80609523Y-60283390D01*
X80609523Y-60283390D02*
X80657142Y-60331009D01*
X80657142Y-60331009D02*
X80704761Y-60426247D01*
X80704761Y-60426247D02*
X80704761Y-60664342D01*
X80704761Y-60664342D02*
X80657142Y-60759580D01*
X80657142Y-60759580D02*
X80609523Y-60807200D01*
X80609523Y-60807200D02*
X80514285Y-60854819D01*
X80514285Y-60854819D02*
X80276190Y-60854819D01*
X80276190Y-60854819D02*
X80180952Y-60807200D01*
X80180952Y-60807200D02*
X80133333Y-60759580D01*
X81133333Y-60854819D02*
X81133333Y-59854819D01*
X81228571Y-60473866D02*
X81514285Y-60854819D01*
X81514285Y-60188152D02*
X81133333Y-60569104D01*
X82466666Y-60854819D02*
X81895238Y-60854819D01*
X82180952Y-60854819D02*
X82180952Y-59854819D01*
X82180952Y-59854819D02*
X82085714Y-59997676D01*
X82085714Y-59997676D02*
X81990476Y-60092914D01*
X81990476Y-60092914D02*
X81895238Y-60140533D01*
X75017142Y-66839580D02*
X74969523Y-66887200D01*
X74969523Y-66887200D02*
X74826666Y-66934819D01*
X74826666Y-66934819D02*
X74731428Y-66934819D01*
X74731428Y-66934819D02*
X74588571Y-66887200D01*
X74588571Y-66887200D02*
X74493333Y-66791961D01*
X74493333Y-66791961D02*
X74445714Y-66696723D01*
X74445714Y-66696723D02*
X74398095Y-66506247D01*
X74398095Y-66506247D02*
X74398095Y-66363390D01*
X74398095Y-66363390D02*
X74445714Y-66172914D01*
X74445714Y-66172914D02*
X74493333Y-66077676D01*
X74493333Y-66077676D02*
X74588571Y-65982438D01*
X74588571Y-65982438D02*
X74731428Y-65934819D01*
X74731428Y-65934819D02*
X74826666Y-65934819D01*
X74826666Y-65934819D02*
X74969523Y-65982438D01*
X74969523Y-65982438D02*
X75017142Y-66030057D01*
X75969523Y-66934819D02*
X75398095Y-66934819D01*
X75683809Y-66934819D02*
X75683809Y-65934819D01*
X75683809Y-65934819D02*
X75588571Y-66077676D01*
X75588571Y-66077676D02*
X75493333Y-66172914D01*
X75493333Y-66172914D02*
X75398095Y-66220533D01*
X76921904Y-66934819D02*
X76350476Y-66934819D01*
X76636190Y-66934819D02*
X76636190Y-65934819D01*
X76636190Y-65934819D02*
X76540952Y-66077676D01*
X76540952Y-66077676D02*
X76445714Y-66172914D01*
X76445714Y-66172914D02*
X76350476Y-66220533D01*
X70743333Y-68504819D02*
X70171905Y-68504819D01*
X70457619Y-68504819D02*
X70457619Y-67504819D01*
X70457619Y-67504819D02*
X70362381Y-67647676D01*
X70362381Y-67647676D02*
X70267143Y-67742914D01*
X70267143Y-67742914D02*
X70171905Y-67790533D01*
X71600476Y-67838152D02*
X71600476Y-68504819D01*
X71171905Y-67838152D02*
X71171905Y-68361961D01*
X71171905Y-68361961D02*
X71219524Y-68457200D01*
X71219524Y-68457200D02*
X71314762Y-68504819D01*
X71314762Y-68504819D02*
X71457619Y-68504819D01*
X71457619Y-68504819D02*
X71552857Y-68457200D01*
X71552857Y-68457200D02*
X71600476Y-68409580D01*
X71761905Y-51804819D02*
X71761905Y-50804819D01*
X71761905Y-50804819D02*
X72000000Y-50804819D01*
X72000000Y-50804819D02*
X72142857Y-50852438D01*
X72142857Y-50852438D02*
X72238095Y-50947676D01*
X72238095Y-50947676D02*
X72285714Y-51042914D01*
X72285714Y-51042914D02*
X72333333Y-51233390D01*
X72333333Y-51233390D02*
X72333333Y-51376247D01*
X72333333Y-51376247D02*
X72285714Y-51566723D01*
X72285714Y-51566723D02*
X72238095Y-51661961D01*
X72238095Y-51661961D02*
X72142857Y-51757200D01*
X72142857Y-51757200D02*
X72000000Y-51804819D01*
X72000000Y-51804819D02*
X71761905Y-51804819D01*
X73190476Y-51138152D02*
X73190476Y-51804819D01*
X72952381Y-50757200D02*
X72714286Y-51471485D01*
X72714286Y-51471485D02*
X73333333Y-51471485D01*
X70833333Y-54152438D02*
X70738095Y-54104819D01*
X70738095Y-54104819D02*
X70595238Y-54104819D01*
X70595238Y-54104819D02*
X70452381Y-54152438D01*
X70452381Y-54152438D02*
X70357143Y-54247676D01*
X70357143Y-54247676D02*
X70309524Y-54342914D01*
X70309524Y-54342914D02*
X70261905Y-54533390D01*
X70261905Y-54533390D02*
X70261905Y-54676247D01*
X70261905Y-54676247D02*
X70309524Y-54866723D01*
X70309524Y-54866723D02*
X70357143Y-54961961D01*
X70357143Y-54961961D02*
X70452381Y-55057200D01*
X70452381Y-55057200D02*
X70595238Y-55104819D01*
X70595238Y-55104819D02*
X70690476Y-55104819D01*
X70690476Y-55104819D02*
X70833333Y-55057200D01*
X70833333Y-55057200D02*
X70880952Y-55009580D01*
X70880952Y-55009580D02*
X70880952Y-54676247D01*
X70880952Y-54676247D02*
X70690476Y-54676247D01*
X71880952Y-55104819D02*
X71547619Y-54628628D01*
X71309524Y-55104819D02*
X71309524Y-54104819D01*
X71309524Y-54104819D02*
X71690476Y-54104819D01*
X71690476Y-54104819D02*
X71785714Y-54152438D01*
X71785714Y-54152438D02*
X71833333Y-54200057D01*
X71833333Y-54200057D02*
X71880952Y-54295295D01*
X71880952Y-54295295D02*
X71880952Y-54438152D01*
X71880952Y-54438152D02*
X71833333Y-54533390D01*
X71833333Y-54533390D02*
X71785714Y-54581009D01*
X71785714Y-54581009D02*
X71690476Y-54628628D01*
X71690476Y-54628628D02*
X71309524Y-54628628D01*
X72309524Y-54581009D02*
X72642857Y-54581009D01*
X72785714Y-55104819D02*
X72309524Y-55104819D01*
X72309524Y-55104819D02*
X72309524Y-54104819D01*
X72309524Y-54104819D02*
X72785714Y-54104819D01*
X73214286Y-54581009D02*
X73547619Y-54581009D01*
X73690476Y-55104819D02*
X73214286Y-55104819D01*
X73214286Y-55104819D02*
X73214286Y-54104819D01*
X73214286Y-54104819D02*
X73690476Y-54104819D01*
X74119048Y-55104819D02*
X74119048Y-54104819D01*
X74119048Y-54104819D02*
X74690476Y-55104819D01*
X74690476Y-55104819D02*
X74690476Y-54104819D01*
X73667142Y-68534819D02*
X73333809Y-68058628D01*
X73095714Y-68534819D02*
X73095714Y-67534819D01*
X73095714Y-67534819D02*
X73476666Y-67534819D01*
X73476666Y-67534819D02*
X73571904Y-67582438D01*
X73571904Y-67582438D02*
X73619523Y-67630057D01*
X73619523Y-67630057D02*
X73667142Y-67725295D01*
X73667142Y-67725295D02*
X73667142Y-67868152D01*
X73667142Y-67868152D02*
X73619523Y-67963390D01*
X73619523Y-67963390D02*
X73571904Y-68011009D01*
X73571904Y-68011009D02*
X73476666Y-68058628D01*
X73476666Y-68058628D02*
X73095714Y-68058628D01*
X74619523Y-68534819D02*
X74048095Y-68534819D01*
X74333809Y-68534819D02*
X74333809Y-67534819D01*
X74333809Y-67534819D02*
X74238571Y-67677676D01*
X74238571Y-67677676D02*
X74143333Y-67772914D01*
X74143333Y-67772914D02*
X74048095Y-67820533D01*
X75571904Y-68534819D02*
X75000476Y-68534819D01*
X75286190Y-68534819D02*
X75286190Y-67534819D01*
X75286190Y-67534819D02*
X75190952Y-67677676D01*
X75190952Y-67677676D02*
X75095714Y-67772914D01*
X75095714Y-67772914D02*
X75000476Y-67820533D01*
X77381428Y-67264819D02*
X76905238Y-67264819D01*
X76905238Y-67264819D02*
X76857619Y-67741009D01*
X76857619Y-67741009D02*
X76905238Y-67693390D01*
X76905238Y-67693390D02*
X77000476Y-67645771D01*
X77000476Y-67645771D02*
X77238571Y-67645771D01*
X77238571Y-67645771D02*
X77333809Y-67693390D01*
X77333809Y-67693390D02*
X77381428Y-67741009D01*
X77381428Y-67741009D02*
X77429047Y-67836247D01*
X77429047Y-67836247D02*
X77429047Y-68074342D01*
X77429047Y-68074342D02*
X77381428Y-68169580D01*
X77381428Y-68169580D02*
X77333809Y-68217200D01*
X77333809Y-68217200D02*
X77238571Y-68264819D01*
X77238571Y-68264819D02*
X77000476Y-68264819D01*
X77000476Y-68264819D02*
X76905238Y-68217200D01*
X76905238Y-68217200D02*
X76857619Y-68169580D01*
X77857619Y-68264819D02*
X77857619Y-67598152D01*
X77857619Y-67693390D02*
X77905238Y-67645771D01*
X77905238Y-67645771D02*
X78000476Y-67598152D01*
X78000476Y-67598152D02*
X78143333Y-67598152D01*
X78143333Y-67598152D02*
X78238571Y-67645771D01*
X78238571Y-67645771D02*
X78286190Y-67741009D01*
X78286190Y-67741009D02*
X78286190Y-68264819D01*
X78286190Y-67741009D02*
X78333809Y-67645771D01*
X78333809Y-67645771D02*
X78429047Y-67598152D01*
X78429047Y-67598152D02*
X78571904Y-67598152D01*
X78571904Y-67598152D02*
X78667143Y-67645771D01*
X78667143Y-67645771D02*
X78714762Y-67741009D01*
X78714762Y-67741009D02*
X78714762Y-68264819D01*
X52457142Y-51804819D02*
X52123809Y-51328628D01*
X51885714Y-51804819D02*
X51885714Y-50804819D01*
X51885714Y-50804819D02*
X52266666Y-50804819D01*
X52266666Y-50804819D02*
X52361904Y-50852438D01*
X52361904Y-50852438D02*
X52409523Y-50900057D01*
X52409523Y-50900057D02*
X52457142Y-50995295D01*
X52457142Y-50995295D02*
X52457142Y-51138152D01*
X52457142Y-51138152D02*
X52409523Y-51233390D01*
X52409523Y-51233390D02*
X52361904Y-51281009D01*
X52361904Y-51281009D02*
X52266666Y-51328628D01*
X52266666Y-51328628D02*
X51885714Y-51328628D01*
X53409523Y-51804819D02*
X52838095Y-51804819D01*
X53123809Y-51804819D02*
X53123809Y-50804819D01*
X53123809Y-50804819D02*
X53028571Y-50947676D01*
X53028571Y-50947676D02*
X52933333Y-51042914D01*
X52933333Y-51042914D02*
X52838095Y-51090533D01*
X54314285Y-50804819D02*
X53838095Y-50804819D01*
X53838095Y-50804819D02*
X53790476Y-51281009D01*
X53790476Y-51281009D02*
X53838095Y-51233390D01*
X53838095Y-51233390D02*
X53933333Y-51185771D01*
X53933333Y-51185771D02*
X54171428Y-51185771D01*
X54171428Y-51185771D02*
X54266666Y-51233390D01*
X54266666Y-51233390D02*
X54314285Y-51281009D01*
X54314285Y-51281009D02*
X54361904Y-51376247D01*
X54361904Y-51376247D02*
X54361904Y-51614342D01*
X54361904Y-51614342D02*
X54314285Y-51709580D01*
X54314285Y-51709580D02*
X54266666Y-51757200D01*
X54266666Y-51757200D02*
X54171428Y-51804819D01*
X54171428Y-51804819D02*
X53933333Y-51804819D01*
X53933333Y-51804819D02*
X53838095Y-51757200D01*
X53838095Y-51757200D02*
X53790476Y-51709580D01*
X52028571Y-55104819D02*
X51457143Y-55104819D01*
X51742857Y-55104819D02*
X51742857Y-54104819D01*
X51742857Y-54104819D02*
X51647619Y-54247676D01*
X51647619Y-54247676D02*
X51552381Y-54342914D01*
X51552381Y-54342914D02*
X51457143Y-54390533D01*
X52647619Y-54104819D02*
X52742857Y-54104819D01*
X52742857Y-54104819D02*
X52838095Y-54152438D01*
X52838095Y-54152438D02*
X52885714Y-54200057D01*
X52885714Y-54200057D02*
X52933333Y-54295295D01*
X52933333Y-54295295D02*
X52980952Y-54485771D01*
X52980952Y-54485771D02*
X52980952Y-54723866D01*
X52980952Y-54723866D02*
X52933333Y-54914342D01*
X52933333Y-54914342D02*
X52885714Y-55009580D01*
X52885714Y-55009580D02*
X52838095Y-55057200D01*
X52838095Y-55057200D02*
X52742857Y-55104819D01*
X52742857Y-55104819D02*
X52647619Y-55104819D01*
X52647619Y-55104819D02*
X52552381Y-55057200D01*
X52552381Y-55057200D02*
X52504762Y-55009580D01*
X52504762Y-55009580D02*
X52457143Y-54914342D01*
X52457143Y-54914342D02*
X52409524Y-54723866D01*
X52409524Y-54723866D02*
X52409524Y-54485771D01*
X52409524Y-54485771D02*
X52457143Y-54295295D01*
X52457143Y-54295295D02*
X52504762Y-54200057D01*
X52504762Y-54200057D02*
X52552381Y-54152438D01*
X52552381Y-54152438D02*
X52647619Y-54104819D01*
X53600000Y-54104819D02*
X53695238Y-54104819D01*
X53695238Y-54104819D02*
X53790476Y-54152438D01*
X53790476Y-54152438D02*
X53838095Y-54200057D01*
X53838095Y-54200057D02*
X53885714Y-54295295D01*
X53885714Y-54295295D02*
X53933333Y-54485771D01*
X53933333Y-54485771D02*
X53933333Y-54723866D01*
X53933333Y-54723866D02*
X53885714Y-54914342D01*
X53885714Y-54914342D02*
X53838095Y-55009580D01*
X53838095Y-55009580D02*
X53790476Y-55057200D01*
X53790476Y-55057200D02*
X53695238Y-55104819D01*
X53695238Y-55104819D02*
X53600000Y-55104819D01*
X53600000Y-55104819D02*
X53504762Y-55057200D01*
X53504762Y-55057200D02*
X53457143Y-55009580D01*
X53457143Y-55009580D02*
X53409524Y-54914342D01*
X53409524Y-54914342D02*
X53361905Y-54723866D01*
X53361905Y-54723866D02*
X53361905Y-54485771D01*
X53361905Y-54485771D02*
X53409524Y-54295295D01*
X53409524Y-54295295D02*
X53457143Y-54200057D01*
X53457143Y-54200057D02*
X53504762Y-54152438D01*
X53504762Y-54152438D02*
X53600000Y-54104819D01*
X54361905Y-55104819D02*
X54361905Y-54104819D01*
X54457143Y-54723866D02*
X54742857Y-55104819D01*
X54742857Y-54438152D02*
X54361905Y-54819104D01*
X61327142Y-57179580D02*
X61279523Y-57227200D01*
X61279523Y-57227200D02*
X61136666Y-57274819D01*
X61136666Y-57274819D02*
X61041428Y-57274819D01*
X61041428Y-57274819D02*
X60898571Y-57227200D01*
X60898571Y-57227200D02*
X60803333Y-57131961D01*
X60803333Y-57131961D02*
X60755714Y-57036723D01*
X60755714Y-57036723D02*
X60708095Y-56846247D01*
X60708095Y-56846247D02*
X60708095Y-56703390D01*
X60708095Y-56703390D02*
X60755714Y-56512914D01*
X60755714Y-56512914D02*
X60803333Y-56417676D01*
X60803333Y-56417676D02*
X60898571Y-56322438D01*
X60898571Y-56322438D02*
X61041428Y-56274819D01*
X61041428Y-56274819D02*
X61136666Y-56274819D01*
X61136666Y-56274819D02*
X61279523Y-56322438D01*
X61279523Y-56322438D02*
X61327142Y-56370057D01*
X62279523Y-57274819D02*
X61708095Y-57274819D01*
X61993809Y-57274819D02*
X61993809Y-56274819D01*
X61993809Y-56274819D02*
X61898571Y-56417676D01*
X61898571Y-56417676D02*
X61803333Y-56512914D01*
X61803333Y-56512914D02*
X61708095Y-56560533D01*
X62898571Y-56274819D02*
X62993809Y-56274819D01*
X62993809Y-56274819D02*
X63089047Y-56322438D01*
X63089047Y-56322438D02*
X63136666Y-56370057D01*
X63136666Y-56370057D02*
X63184285Y-56465295D01*
X63184285Y-56465295D02*
X63231904Y-56655771D01*
X63231904Y-56655771D02*
X63231904Y-56893866D01*
X63231904Y-56893866D02*
X63184285Y-57084342D01*
X63184285Y-57084342D02*
X63136666Y-57179580D01*
X63136666Y-57179580D02*
X63089047Y-57227200D01*
X63089047Y-57227200D02*
X62993809Y-57274819D01*
X62993809Y-57274819D02*
X62898571Y-57274819D01*
X62898571Y-57274819D02*
X62803333Y-57227200D01*
X62803333Y-57227200D02*
X62755714Y-57179580D01*
X62755714Y-57179580D02*
X62708095Y-57084342D01*
X62708095Y-57084342D02*
X62660476Y-56893866D01*
X62660476Y-56893866D02*
X62660476Y-56655771D01*
X62660476Y-56655771D02*
X62708095Y-56465295D01*
X62708095Y-56465295D02*
X62755714Y-56370057D01*
X62755714Y-56370057D02*
X62803333Y-56322438D01*
X62803333Y-56322438D02*
X62898571Y-56274819D01*
X61497142Y-58714819D02*
X60925714Y-58714819D01*
X61211428Y-58714819D02*
X61211428Y-57714819D01*
X61211428Y-57714819D02*
X61116190Y-57857676D01*
X61116190Y-57857676D02*
X61020952Y-57952914D01*
X61020952Y-57952914D02*
X60925714Y-58000533D01*
X62116190Y-57714819D02*
X62211428Y-57714819D01*
X62211428Y-57714819D02*
X62306666Y-57762438D01*
X62306666Y-57762438D02*
X62354285Y-57810057D01*
X62354285Y-57810057D02*
X62401904Y-57905295D01*
X62401904Y-57905295D02*
X62449523Y-58095771D01*
X62449523Y-58095771D02*
X62449523Y-58333866D01*
X62449523Y-58333866D02*
X62401904Y-58524342D01*
X62401904Y-58524342D02*
X62354285Y-58619580D01*
X62354285Y-58619580D02*
X62306666Y-58667200D01*
X62306666Y-58667200D02*
X62211428Y-58714819D01*
X62211428Y-58714819D02*
X62116190Y-58714819D01*
X62116190Y-58714819D02*
X62020952Y-58667200D01*
X62020952Y-58667200D02*
X61973333Y-58619580D01*
X61973333Y-58619580D02*
X61925714Y-58524342D01*
X61925714Y-58524342D02*
X61878095Y-58333866D01*
X61878095Y-58333866D02*
X61878095Y-58095771D01*
X61878095Y-58095771D02*
X61925714Y-57905295D01*
X61925714Y-57905295D02*
X61973333Y-57810057D01*
X61973333Y-57810057D02*
X62020952Y-57762438D01*
X62020952Y-57762438D02*
X62116190Y-57714819D01*
X63306666Y-58048152D02*
X63306666Y-58714819D01*
X62878095Y-58048152D02*
X62878095Y-58571961D01*
X62878095Y-58571961D02*
X62925714Y-58667200D01*
X62925714Y-58667200D02*
X63020952Y-58714819D01*
X63020952Y-58714819D02*
X63163809Y-58714819D01*
X63163809Y-58714819D02*
X63259047Y-58667200D01*
X63259047Y-58667200D02*
X63306666Y-58619580D01*
X60714286Y-59744819D02*
X61285714Y-59744819D01*
X61000000Y-60744819D02*
X61000000Y-59744819D01*
X61619048Y-60744819D02*
X61619048Y-59744819D01*
X61619048Y-60221009D02*
X62190476Y-60221009D01*
X62190476Y-60744819D02*
X62190476Y-59744819D01*
X63190476Y-60744819D02*
X62619048Y-60744819D01*
X62904762Y-60744819D02*
X62904762Y-59744819D01*
X62904762Y-59744819D02*
X62809524Y-59887676D01*
X62809524Y-59887676D02*
X62714286Y-59982914D01*
X62714286Y-59982914D02*
X62619048Y-60030533D01*
X68644761Y-73460057D02*
X68549523Y-73412438D01*
X68549523Y-73412438D02*
X68454285Y-73317200D01*
X68454285Y-73317200D02*
X68311428Y-73174342D01*
X68311428Y-73174342D02*
X68216190Y-73126723D01*
X68216190Y-73126723D02*
X68120952Y-73126723D01*
X68168571Y-73364819D02*
X68073333Y-73317200D01*
X68073333Y-73317200D02*
X67978095Y-73221961D01*
X67978095Y-73221961D02*
X67930476Y-73031485D01*
X67930476Y-73031485D02*
X67930476Y-72698152D01*
X67930476Y-72698152D02*
X67978095Y-72507676D01*
X67978095Y-72507676D02*
X68073333Y-72412438D01*
X68073333Y-72412438D02*
X68168571Y-72364819D01*
X68168571Y-72364819D02*
X68359047Y-72364819D01*
X68359047Y-72364819D02*
X68454285Y-72412438D01*
X68454285Y-72412438D02*
X68549523Y-72507676D01*
X68549523Y-72507676D02*
X68597142Y-72698152D01*
X68597142Y-72698152D02*
X68597142Y-73031485D01*
X68597142Y-73031485D02*
X68549523Y-73221961D01*
X68549523Y-73221961D02*
X68454285Y-73317200D01*
X68454285Y-73317200D02*
X68359047Y-73364819D01*
X68359047Y-73364819D02*
X68168571Y-73364819D01*
X69549523Y-73364819D02*
X68978095Y-73364819D01*
X69263809Y-73364819D02*
X69263809Y-72364819D01*
X69263809Y-72364819D02*
X69168571Y-72507676D01*
X69168571Y-72507676D02*
X69073333Y-72602914D01*
X69073333Y-72602914D02*
X68978095Y-72650533D01*
X63172857Y-73334819D02*
X63172857Y-72334819D01*
X63172857Y-72334819D02*
X63744285Y-73334819D01*
X63744285Y-73334819D02*
X63744285Y-72334819D01*
X64220476Y-73334819D02*
X64220476Y-72334819D01*
X64220476Y-72334819D02*
X64553809Y-73049104D01*
X64553809Y-73049104D02*
X64887142Y-72334819D01*
X64887142Y-72334819D02*
X64887142Y-73334819D01*
X65553809Y-72334819D02*
X65744285Y-72334819D01*
X65744285Y-72334819D02*
X65839523Y-72382438D01*
X65839523Y-72382438D02*
X65934761Y-72477676D01*
X65934761Y-72477676D02*
X65982380Y-72668152D01*
X65982380Y-72668152D02*
X65982380Y-73001485D01*
X65982380Y-73001485D02*
X65934761Y-73191961D01*
X65934761Y-73191961D02*
X65839523Y-73287200D01*
X65839523Y-73287200D02*
X65744285Y-73334819D01*
X65744285Y-73334819D02*
X65553809Y-73334819D01*
X65553809Y-73334819D02*
X65458571Y-73287200D01*
X65458571Y-73287200D02*
X65363333Y-73191961D01*
X65363333Y-73191961D02*
X65315714Y-73001485D01*
X65315714Y-73001485D02*
X65315714Y-72668152D01*
X65315714Y-72668152D02*
X65363333Y-72477676D01*
X65363333Y-72477676D02*
X65458571Y-72382438D01*
X65458571Y-72382438D02*
X65553809Y-72334819D01*
X66363333Y-73287200D02*
X66506190Y-73334819D01*
X66506190Y-73334819D02*
X66744285Y-73334819D01*
X66744285Y-73334819D02*
X66839523Y-73287200D01*
X66839523Y-73287200D02*
X66887142Y-73239580D01*
X66887142Y-73239580D02*
X66934761Y-73144342D01*
X66934761Y-73144342D02*
X66934761Y-73049104D01*
X66934761Y-73049104D02*
X66887142Y-72953866D01*
X66887142Y-72953866D02*
X66839523Y-72906247D01*
X66839523Y-72906247D02*
X66744285Y-72858628D01*
X66744285Y-72858628D02*
X66553809Y-72811009D01*
X66553809Y-72811009D02*
X66458571Y-72763390D01*
X66458571Y-72763390D02*
X66410952Y-72715771D01*
X66410952Y-72715771D02*
X66363333Y-72620533D01*
X66363333Y-72620533D02*
X66363333Y-72525295D01*
X66363333Y-72525295D02*
X66410952Y-72430057D01*
X66410952Y-72430057D02*
X66458571Y-72382438D01*
X66458571Y-72382438D02*
X66553809Y-72334819D01*
X66553809Y-72334819D02*
X66791904Y-72334819D01*
X66791904Y-72334819D02*
X66934761Y-72382438D01*
X77993333Y-62494819D02*
X77660000Y-62018628D01*
X77421905Y-62494819D02*
X77421905Y-61494819D01*
X77421905Y-61494819D02*
X77802857Y-61494819D01*
X77802857Y-61494819D02*
X77898095Y-61542438D01*
X77898095Y-61542438D02*
X77945714Y-61590057D01*
X77945714Y-61590057D02*
X77993333Y-61685295D01*
X77993333Y-61685295D02*
X77993333Y-61828152D01*
X77993333Y-61828152D02*
X77945714Y-61923390D01*
X77945714Y-61923390D02*
X77898095Y-61971009D01*
X77898095Y-61971009D02*
X77802857Y-62018628D01*
X77802857Y-62018628D02*
X77421905Y-62018628D01*
X78564762Y-61923390D02*
X78469524Y-61875771D01*
X78469524Y-61875771D02*
X78421905Y-61828152D01*
X78421905Y-61828152D02*
X78374286Y-61732914D01*
X78374286Y-61732914D02*
X78374286Y-61685295D01*
X78374286Y-61685295D02*
X78421905Y-61590057D01*
X78421905Y-61590057D02*
X78469524Y-61542438D01*
X78469524Y-61542438D02*
X78564762Y-61494819D01*
X78564762Y-61494819D02*
X78755238Y-61494819D01*
X78755238Y-61494819D02*
X78850476Y-61542438D01*
X78850476Y-61542438D02*
X78898095Y-61590057D01*
X78898095Y-61590057D02*
X78945714Y-61685295D01*
X78945714Y-61685295D02*
X78945714Y-61732914D01*
X78945714Y-61732914D02*
X78898095Y-61828152D01*
X78898095Y-61828152D02*
X78850476Y-61875771D01*
X78850476Y-61875771D02*
X78755238Y-61923390D01*
X78755238Y-61923390D02*
X78564762Y-61923390D01*
X78564762Y-61923390D02*
X78469524Y-61971009D01*
X78469524Y-61971009D02*
X78421905Y-62018628D01*
X78421905Y-62018628D02*
X78374286Y-62113866D01*
X78374286Y-62113866D02*
X78374286Y-62304342D01*
X78374286Y-62304342D02*
X78421905Y-62399580D01*
X78421905Y-62399580D02*
X78469524Y-62447200D01*
X78469524Y-62447200D02*
X78564762Y-62494819D01*
X78564762Y-62494819D02*
X78755238Y-62494819D01*
X78755238Y-62494819D02*
X78850476Y-62447200D01*
X78850476Y-62447200D02*
X78898095Y-62399580D01*
X78898095Y-62399580D02*
X78945714Y-62304342D01*
X78945714Y-62304342D02*
X78945714Y-62113866D01*
X78945714Y-62113866D02*
X78898095Y-62018628D01*
X78898095Y-62018628D02*
X78850476Y-61971009D01*
X78850476Y-61971009D02*
X78755238Y-61923390D01*
X80657142Y-62934819D02*
X80180952Y-62934819D01*
X80180952Y-62934819D02*
X80133333Y-63411009D01*
X80133333Y-63411009D02*
X80180952Y-63363390D01*
X80180952Y-63363390D02*
X80276190Y-63315771D01*
X80276190Y-63315771D02*
X80514285Y-63315771D01*
X80514285Y-63315771D02*
X80609523Y-63363390D01*
X80609523Y-63363390D02*
X80657142Y-63411009D01*
X80657142Y-63411009D02*
X80704761Y-63506247D01*
X80704761Y-63506247D02*
X80704761Y-63744342D01*
X80704761Y-63744342D02*
X80657142Y-63839580D01*
X80657142Y-63839580D02*
X80609523Y-63887200D01*
X80609523Y-63887200D02*
X80514285Y-63934819D01*
X80514285Y-63934819D02*
X80276190Y-63934819D01*
X80276190Y-63934819D02*
X80180952Y-63887200D01*
X80180952Y-63887200D02*
X80133333Y-63839580D01*
X81133333Y-63934819D02*
X81133333Y-62934819D01*
X81228571Y-63553866D02*
X81514285Y-63934819D01*
X81514285Y-63268152D02*
X81133333Y-63649104D01*
X82466666Y-63934819D02*
X81895238Y-63934819D01*
X82180952Y-63934819D02*
X82180952Y-62934819D01*
X82180952Y-62934819D02*
X82085714Y-63077676D01*
X82085714Y-63077676D02*
X81990476Y-63172914D01*
X81990476Y-63172914D02*
X81895238Y-63220533D01*
X66857142Y-65304819D02*
X66523809Y-64828628D01*
X66285714Y-65304819D02*
X66285714Y-64304819D01*
X66285714Y-64304819D02*
X66666666Y-64304819D01*
X66666666Y-64304819D02*
X66761904Y-64352438D01*
X66761904Y-64352438D02*
X66809523Y-64400057D01*
X66809523Y-64400057D02*
X66857142Y-64495295D01*
X66857142Y-64495295D02*
X66857142Y-64638152D01*
X66857142Y-64638152D02*
X66809523Y-64733390D01*
X66809523Y-64733390D02*
X66761904Y-64781009D01*
X66761904Y-64781009D02*
X66666666Y-64828628D01*
X66666666Y-64828628D02*
X66285714Y-64828628D01*
X67809523Y-65304819D02*
X67238095Y-65304819D01*
X67523809Y-65304819D02*
X67523809Y-64304819D01*
X67523809Y-64304819D02*
X67428571Y-64447676D01*
X67428571Y-64447676D02*
X67333333Y-64542914D01*
X67333333Y-64542914D02*
X67238095Y-64590533D01*
X68142857Y-64304819D02*
X68761904Y-64304819D01*
X68761904Y-64304819D02*
X68428571Y-64685771D01*
X68428571Y-64685771D02*
X68571428Y-64685771D01*
X68571428Y-64685771D02*
X68666666Y-64733390D01*
X68666666Y-64733390D02*
X68714285Y-64781009D01*
X68714285Y-64781009D02*
X68761904Y-64876247D01*
X68761904Y-64876247D02*
X68761904Y-65114342D01*
X68761904Y-65114342D02*
X68714285Y-65209580D01*
X68714285Y-65209580D02*
X68666666Y-65257200D01*
X68666666Y-65257200D02*
X68571428Y-65304819D01*
X68571428Y-65304819D02*
X68285714Y-65304819D01*
X68285714Y-65304819D02*
X68190476Y-65257200D01*
X68190476Y-65257200D02*
X68142857Y-65209580D01*
X66833333Y-68604819D02*
X66261905Y-68604819D01*
X66547619Y-68604819D02*
X66547619Y-67604819D01*
X66547619Y-67604819D02*
X66452381Y-67747676D01*
X66452381Y-67747676D02*
X66357143Y-67842914D01*
X66357143Y-67842914D02*
X66261905Y-67890533D01*
X67452381Y-67604819D02*
X67547619Y-67604819D01*
X67547619Y-67604819D02*
X67642857Y-67652438D01*
X67642857Y-67652438D02*
X67690476Y-67700057D01*
X67690476Y-67700057D02*
X67738095Y-67795295D01*
X67738095Y-67795295D02*
X67785714Y-67985771D01*
X67785714Y-67985771D02*
X67785714Y-68223866D01*
X67785714Y-68223866D02*
X67738095Y-68414342D01*
X67738095Y-68414342D02*
X67690476Y-68509580D01*
X67690476Y-68509580D02*
X67642857Y-68557200D01*
X67642857Y-68557200D02*
X67547619Y-68604819D01*
X67547619Y-68604819D02*
X67452381Y-68604819D01*
X67452381Y-68604819D02*
X67357143Y-68557200D01*
X67357143Y-68557200D02*
X67309524Y-68509580D01*
X67309524Y-68509580D02*
X67261905Y-68414342D01*
X67261905Y-68414342D02*
X67214286Y-68223866D01*
X67214286Y-68223866D02*
X67214286Y-67985771D01*
X67214286Y-67985771D02*
X67261905Y-67795295D01*
X67261905Y-67795295D02*
X67309524Y-67700057D01*
X67309524Y-67700057D02*
X67357143Y-67652438D01*
X67357143Y-67652438D02*
X67452381Y-67604819D01*
X68404762Y-67604819D02*
X68500000Y-67604819D01*
X68500000Y-67604819D02*
X68595238Y-67652438D01*
X68595238Y-67652438D02*
X68642857Y-67700057D01*
X68642857Y-67700057D02*
X68690476Y-67795295D01*
X68690476Y-67795295D02*
X68738095Y-67985771D01*
X68738095Y-67985771D02*
X68738095Y-68223866D01*
X68738095Y-68223866D02*
X68690476Y-68414342D01*
X68690476Y-68414342D02*
X68642857Y-68509580D01*
X68642857Y-68509580D02*
X68595238Y-68557200D01*
X68595238Y-68557200D02*
X68500000Y-68604819D01*
X68500000Y-68604819D02*
X68404762Y-68604819D01*
X68404762Y-68604819D02*
X68309524Y-68557200D01*
X68309524Y-68557200D02*
X68261905Y-68509580D01*
X68261905Y-68509580D02*
X68214286Y-68414342D01*
X68214286Y-68414342D02*
X68166667Y-68223866D01*
X68166667Y-68223866D02*
X68166667Y-67985771D01*
X68166667Y-67985771D02*
X68214286Y-67795295D01*
X68214286Y-67795295D02*
X68261905Y-67700057D01*
X68261905Y-67700057D02*
X68309524Y-67652438D01*
X68309524Y-67652438D02*
X68404762Y-67604819D01*
X61337142Y-62679580D02*
X61289523Y-62727200D01*
X61289523Y-62727200D02*
X61146666Y-62774819D01*
X61146666Y-62774819D02*
X61051428Y-62774819D01*
X61051428Y-62774819D02*
X60908571Y-62727200D01*
X60908571Y-62727200D02*
X60813333Y-62631961D01*
X60813333Y-62631961D02*
X60765714Y-62536723D01*
X60765714Y-62536723D02*
X60718095Y-62346247D01*
X60718095Y-62346247D02*
X60718095Y-62203390D01*
X60718095Y-62203390D02*
X60765714Y-62012914D01*
X60765714Y-62012914D02*
X60813333Y-61917676D01*
X60813333Y-61917676D02*
X60908571Y-61822438D01*
X60908571Y-61822438D02*
X61051428Y-61774819D01*
X61051428Y-61774819D02*
X61146666Y-61774819D01*
X61146666Y-61774819D02*
X61289523Y-61822438D01*
X61289523Y-61822438D02*
X61337142Y-61870057D01*
X62289523Y-62774819D02*
X61718095Y-62774819D01*
X62003809Y-62774819D02*
X62003809Y-61774819D01*
X62003809Y-61774819D02*
X61908571Y-61917676D01*
X61908571Y-61917676D02*
X61813333Y-62012914D01*
X61813333Y-62012914D02*
X61718095Y-62060533D01*
X62670476Y-61870057D02*
X62718095Y-61822438D01*
X62718095Y-61822438D02*
X62813333Y-61774819D01*
X62813333Y-61774819D02*
X63051428Y-61774819D01*
X63051428Y-61774819D02*
X63146666Y-61822438D01*
X63146666Y-61822438D02*
X63194285Y-61870057D01*
X63194285Y-61870057D02*
X63241904Y-61965295D01*
X63241904Y-61965295D02*
X63241904Y-62060533D01*
X63241904Y-62060533D02*
X63194285Y-62203390D01*
X63194285Y-62203390D02*
X62622857Y-62774819D01*
X62622857Y-62774819D02*
X63241904Y-62774819D01*
X60860952Y-63984819D02*
X60289524Y-63984819D01*
X60575238Y-63984819D02*
X60575238Y-62984819D01*
X60575238Y-62984819D02*
X60480000Y-63127676D01*
X60480000Y-63127676D02*
X60384762Y-63222914D01*
X60384762Y-63222914D02*
X60289524Y-63270533D01*
X61480000Y-62984819D02*
X61575238Y-62984819D01*
X61575238Y-62984819D02*
X61670476Y-63032438D01*
X61670476Y-63032438D02*
X61718095Y-63080057D01*
X61718095Y-63080057D02*
X61765714Y-63175295D01*
X61765714Y-63175295D02*
X61813333Y-63365771D01*
X61813333Y-63365771D02*
X61813333Y-63603866D01*
X61813333Y-63603866D02*
X61765714Y-63794342D01*
X61765714Y-63794342D02*
X61718095Y-63889580D01*
X61718095Y-63889580D02*
X61670476Y-63937200D01*
X61670476Y-63937200D02*
X61575238Y-63984819D01*
X61575238Y-63984819D02*
X61480000Y-63984819D01*
X61480000Y-63984819D02*
X61384762Y-63937200D01*
X61384762Y-63937200D02*
X61337143Y-63889580D01*
X61337143Y-63889580D02*
X61289524Y-63794342D01*
X61289524Y-63794342D02*
X61241905Y-63603866D01*
X61241905Y-63603866D02*
X61241905Y-63365771D01*
X61241905Y-63365771D02*
X61289524Y-63175295D01*
X61289524Y-63175295D02*
X61337143Y-63080057D01*
X61337143Y-63080057D02*
X61384762Y-63032438D01*
X61384762Y-63032438D02*
X61480000Y-62984819D01*
X62432381Y-62984819D02*
X62527619Y-62984819D01*
X62527619Y-62984819D02*
X62622857Y-63032438D01*
X62622857Y-63032438D02*
X62670476Y-63080057D01*
X62670476Y-63080057D02*
X62718095Y-63175295D01*
X62718095Y-63175295D02*
X62765714Y-63365771D01*
X62765714Y-63365771D02*
X62765714Y-63603866D01*
X62765714Y-63603866D02*
X62718095Y-63794342D01*
X62718095Y-63794342D02*
X62670476Y-63889580D01*
X62670476Y-63889580D02*
X62622857Y-63937200D01*
X62622857Y-63937200D02*
X62527619Y-63984819D01*
X62527619Y-63984819D02*
X62432381Y-63984819D01*
X62432381Y-63984819D02*
X62337143Y-63937200D01*
X62337143Y-63937200D02*
X62289524Y-63889580D01*
X62289524Y-63889580D02*
X62241905Y-63794342D01*
X62241905Y-63794342D02*
X62194286Y-63603866D01*
X62194286Y-63603866D02*
X62194286Y-63365771D01*
X62194286Y-63365771D02*
X62241905Y-63175295D01*
X62241905Y-63175295D02*
X62289524Y-63080057D01*
X62289524Y-63080057D02*
X62337143Y-63032438D01*
X62337143Y-63032438D02*
X62432381Y-62984819D01*
X63194286Y-63318152D02*
X63194286Y-63984819D01*
X63194286Y-63413390D02*
X63241905Y-63365771D01*
X63241905Y-63365771D02*
X63337143Y-63318152D01*
X63337143Y-63318152D02*
X63480000Y-63318152D01*
X63480000Y-63318152D02*
X63575238Y-63365771D01*
X63575238Y-63365771D02*
X63622857Y-63461009D01*
X63622857Y-63461009D02*
X63622857Y-63984819D01*
X71738095Y-58154819D02*
X71738095Y-58964342D01*
X71738095Y-58964342D02*
X71785714Y-59059580D01*
X71785714Y-59059580D02*
X71833333Y-59107200D01*
X71833333Y-59107200D02*
X71928571Y-59154819D01*
X71928571Y-59154819D02*
X72119047Y-59154819D01*
X72119047Y-59154819D02*
X72214285Y-59107200D01*
X72214285Y-59107200D02*
X72261904Y-59059580D01*
X72261904Y-59059580D02*
X72309523Y-58964342D01*
X72309523Y-58964342D02*
X72309523Y-58154819D01*
X72738095Y-58250057D02*
X72785714Y-58202438D01*
X72785714Y-58202438D02*
X72880952Y-58154819D01*
X72880952Y-58154819D02*
X73119047Y-58154819D01*
X73119047Y-58154819D02*
X73214285Y-58202438D01*
X73214285Y-58202438D02*
X73261904Y-58250057D01*
X73261904Y-58250057D02*
X73309523Y-58345295D01*
X73309523Y-58345295D02*
X73309523Y-58440533D01*
X73309523Y-58440533D02*
X73261904Y-58583390D01*
X73261904Y-58583390D02*
X72690476Y-59154819D01*
X72690476Y-59154819D02*
X73309523Y-59154819D01*
X69380952Y-65469104D02*
X69857142Y-65469104D01*
X69285714Y-65754819D02*
X69619047Y-64754819D01*
X69619047Y-64754819D02*
X69952380Y-65754819D01*
X70285714Y-65754819D02*
X70285714Y-64754819D01*
X70285714Y-64754819D02*
X70666666Y-64754819D01*
X70666666Y-64754819D02*
X70761904Y-64802438D01*
X70761904Y-64802438D02*
X70809523Y-64850057D01*
X70809523Y-64850057D02*
X70857142Y-64945295D01*
X70857142Y-64945295D02*
X70857142Y-65088152D01*
X70857142Y-65088152D02*
X70809523Y-65183390D01*
X70809523Y-65183390D02*
X70761904Y-65231009D01*
X70761904Y-65231009D02*
X70666666Y-65278628D01*
X70666666Y-65278628D02*
X70285714Y-65278628D01*
X71190476Y-64754819D02*
X71809523Y-64754819D01*
X71809523Y-64754819D02*
X71476190Y-65135771D01*
X71476190Y-65135771D02*
X71619047Y-65135771D01*
X71619047Y-65135771D02*
X71714285Y-65183390D01*
X71714285Y-65183390D02*
X71761904Y-65231009D01*
X71761904Y-65231009D02*
X71809523Y-65326247D01*
X71809523Y-65326247D02*
X71809523Y-65564342D01*
X71809523Y-65564342D02*
X71761904Y-65659580D01*
X71761904Y-65659580D02*
X71714285Y-65707200D01*
X71714285Y-65707200D02*
X71619047Y-65754819D01*
X71619047Y-65754819D02*
X71333333Y-65754819D01*
X71333333Y-65754819D02*
X71238095Y-65707200D01*
X71238095Y-65707200D02*
X71190476Y-65659580D01*
X72142857Y-64754819D02*
X72761904Y-64754819D01*
X72761904Y-64754819D02*
X72428571Y-65135771D01*
X72428571Y-65135771D02*
X72571428Y-65135771D01*
X72571428Y-65135771D02*
X72666666Y-65183390D01*
X72666666Y-65183390D02*
X72714285Y-65231009D01*
X72714285Y-65231009D02*
X72761904Y-65326247D01*
X72761904Y-65326247D02*
X72761904Y-65564342D01*
X72761904Y-65564342D02*
X72714285Y-65659580D01*
X72714285Y-65659580D02*
X72666666Y-65707200D01*
X72666666Y-65707200D02*
X72571428Y-65754819D01*
X72571428Y-65754819D02*
X72285714Y-65754819D01*
X72285714Y-65754819D02*
X72190476Y-65707200D01*
X72190476Y-65707200D02*
X72142857Y-65659580D01*
X73095238Y-64754819D02*
X73761904Y-64754819D01*
X73761904Y-64754819D02*
X73333333Y-65754819D01*
X74095238Y-64850057D02*
X74142857Y-64802438D01*
X74142857Y-64802438D02*
X74238095Y-64754819D01*
X74238095Y-64754819D02*
X74476190Y-64754819D01*
X74476190Y-64754819D02*
X74571428Y-64802438D01*
X74571428Y-64802438D02*
X74619047Y-64850057D01*
X74619047Y-64850057D02*
X74666666Y-64945295D01*
X74666666Y-64945295D02*
X74666666Y-65040533D01*
X74666666Y-65040533D02*
X74619047Y-65183390D01*
X74619047Y-65183390D02*
X74047619Y-65754819D01*
X74047619Y-65754819D02*
X74666666Y-65754819D01*
X75047619Y-65707200D02*
X75190476Y-65754819D01*
X75190476Y-65754819D02*
X75428571Y-65754819D01*
X75428571Y-65754819D02*
X75523809Y-65707200D01*
X75523809Y-65707200D02*
X75571428Y-65659580D01*
X75571428Y-65659580D02*
X75619047Y-65564342D01*
X75619047Y-65564342D02*
X75619047Y-65469104D01*
X75619047Y-65469104D02*
X75571428Y-65373866D01*
X75571428Y-65373866D02*
X75523809Y-65326247D01*
X75523809Y-65326247D02*
X75428571Y-65278628D01*
X75428571Y-65278628D02*
X75238095Y-65231009D01*
X75238095Y-65231009D02*
X75142857Y-65183390D01*
X75142857Y-65183390D02*
X75095238Y-65135771D01*
X75095238Y-65135771D02*
X75047619Y-65040533D01*
X75047619Y-65040533D02*
X75047619Y-64945295D01*
X75047619Y-64945295D02*
X75095238Y-64850057D01*
X75095238Y-64850057D02*
X75142857Y-64802438D01*
X75142857Y-64802438D02*
X75238095Y-64754819D01*
X75238095Y-64754819D02*
X75476190Y-64754819D01*
X75476190Y-64754819D02*
X75619047Y-64802438D01*
D12*
%TO.C,J11*%
X50170000Y-55750000D02*
X51500000Y-55750000D01*
X50170000Y-57080000D02*
X50170000Y-55750000D01*
X50170000Y-58350000D02*
X50170000Y-68570000D01*
X50170000Y-58350000D02*
X52830000Y-58350000D01*
X50170000Y-68570000D02*
X52830000Y-68570000D01*
X52830000Y-58350000D02*
X52830000Y-68570000D01*
%TO.C,Q2*%
X62500000Y-68940000D02*
X61850000Y-68940000D01*
X62500000Y-68940000D02*
X63150000Y-68940000D01*
X62500000Y-72060000D02*
X61850000Y-72060000D01*
X62500000Y-72060000D02*
X63150000Y-72060000D01*
X61337500Y-68990000D02*
X61097500Y-68660000D01*
X61577500Y-68660000D01*
X61337500Y-68990000D01*
G36*
X61337500Y-68990000D02*
G01*
X61097500Y-68660000D01*
X61577500Y-68660000D01*
X61337500Y-68990000D01*
G37*
%TO.C,C9*%
X80090000Y-70798752D02*
X80090000Y-69376248D01*
X81910000Y-70798752D02*
X81910000Y-69376248D01*
%TO.C,C14*%
X54265000Y-70853752D02*
X54265000Y-70331248D01*
X55735000Y-70853752D02*
X55735000Y-70331248D01*
%TO.C,R12*%
X62727064Y-65765000D02*
X62272936Y-65765000D01*
X62727064Y-67235000D02*
X62272936Y-67235000D01*
%TO.C,C13*%
X57090000Y-70778752D02*
X57090000Y-69356248D01*
X58910000Y-70778752D02*
X58910000Y-69356248D01*
%TO.C,D3*%
X91000000Y-53960000D02*
X93860000Y-53960000D01*
X93860000Y-52040000D02*
X91000000Y-52040000D01*
X93860000Y-53960000D02*
X93860000Y-52040000D01*
%TO.C,D5*%
X56500000Y-53960000D02*
X59360000Y-53960000D01*
X59360000Y-52040000D02*
X56500000Y-52040000D01*
X59360000Y-53960000D02*
X59360000Y-52040000D01*
%TO.C,C8*%
X83265000Y-70348752D02*
X83265000Y-69826248D01*
X84735000Y-70348752D02*
X84735000Y-69826248D01*
%TO.C,R14*%
X72727064Y-56215000D02*
X72272936Y-56215000D01*
X72727064Y-57685000D02*
X72272936Y-57685000D01*
%TO.C,R10*%
X87372936Y-52265000D02*
X87827064Y-52265000D01*
X87372936Y-53735000D02*
X87827064Y-53735000D01*
%TO.C,R9*%
X78227064Y-59765000D02*
X77772936Y-59765000D01*
X78227064Y-61235000D02*
X77772936Y-61235000D01*
%TO.C,C11*%
X71576248Y-65725000D02*
X72098752Y-65725000D01*
X71576248Y-67195000D02*
X72098752Y-67195000D01*
%TO.C,D4*%
X71500000Y-53960000D02*
X74360000Y-53960000D01*
X74360000Y-52040000D02*
X71500000Y-52040000D01*
X74360000Y-53960000D02*
X74360000Y-52040000D01*
%TO.C,R11*%
X77177064Y-68790000D02*
X72822936Y-68790000D01*
X77177064Y-72210000D02*
X72822936Y-72210000D01*
%TO.C,R15*%
X52872936Y-52265000D02*
X53327064Y-52265000D01*
X52872936Y-53735000D02*
X53327064Y-53735000D01*
%TO.C,C10*%
X66738752Y-56825000D02*
X66216248Y-56825000D01*
X66738752Y-58295000D02*
X66216248Y-58295000D01*
%TO.C,J10*%
X60310000Y-50670000D02*
X60310000Y-53330000D01*
X65450000Y-50670000D02*
X60310000Y-50670000D01*
X65450000Y-50670000D02*
X65450000Y-53330000D01*
X65450000Y-53330000D02*
X60310000Y-53330000D01*
X66720000Y-50670000D02*
X68050000Y-50670000D01*
X68050000Y-50670000D02*
X68050000Y-52000000D01*
%TO.C,TH1*%
X66777064Y-59595000D02*
X66322936Y-59595000D01*
X66777064Y-61065000D02*
X66322936Y-61065000D01*
%TO.C,Q1*%
X67500000Y-68940000D02*
X66850000Y-68940000D01*
X67500000Y-68940000D02*
X68150000Y-68940000D01*
X67500000Y-72060000D02*
X66850000Y-72060000D01*
X67500000Y-72060000D02*
X68150000Y-72060000D01*
X68902500Y-72340000D02*
X68422500Y-72340000D01*
X68662500Y-72010000D01*
X68902500Y-72340000D01*
G36*
X68902500Y-72340000D02*
G01*
X68422500Y-72340000D01*
X68662500Y-72010000D01*
X68902500Y-72340000D01*
G37*
%TO.C,R8*%
X78227064Y-62765000D02*
X77772936Y-62765000D01*
X78227064Y-64235000D02*
X77772936Y-64235000D01*
%TO.C,R13*%
X67727064Y-65765000D02*
X67272936Y-65765000D01*
X67727064Y-67235000D02*
X67272936Y-67235000D01*
%TO.C,C12*%
X66798752Y-62415000D02*
X66276248Y-62415000D01*
X66798752Y-63885000D02*
X66276248Y-63885000D01*
%TO.C,J9*%
X75550000Y-53330000D02*
X75550000Y-52000000D01*
X76880000Y-53330000D02*
X75550000Y-53330000D01*
X78150000Y-50670000D02*
X83290000Y-50670000D01*
X78150000Y-53330000D02*
X78150000Y-50670000D01*
X78150000Y-53330000D02*
X83290000Y-53330000D01*
X83290000Y-53330000D02*
X83290000Y-50670000D01*
%TO.C,U2*%
X70390000Y-59890000D02*
X70390000Y-60365000D01*
X70390000Y-64110000D02*
X70390000Y-63635000D01*
X70865000Y-59890000D02*
X70390000Y-59890000D01*
X70865000Y-64110000D02*
X70390000Y-64110000D01*
X74135000Y-59890000D02*
X74610000Y-59890000D01*
X74135000Y-64110000D02*
X74310000Y-64110000D01*
X74610000Y-59890000D02*
X74610000Y-60365000D01*
X74610000Y-63635000D02*
X74610000Y-63870000D01*
X74850000Y-64440000D02*
X74370000Y-64440000D01*
X74610000Y-64110000D01*
X74850000Y-64440000D01*
G36*
X74850000Y-64440000D02*
G01*
X74370000Y-64440000D01*
X74610000Y-64110000D01*
X74850000Y-64440000D01*
G37*
%TO.C,J8*%
X89546500Y-57420000D02*
X90401500Y-57420000D01*
X89546500Y-66580000D02*
X90401500Y-66580000D01*
X93921500Y-57420000D02*
X94871500Y-57420000D01*
X93921500Y-66580000D02*
X94871500Y-66580000D01*
X94871500Y-66580000D02*
X94871500Y-57420000D01*
%TD*%
M02*
