M48
; DRILL file {KiCad 8.0.4} date 2025-01-05T12:56:38+0000
; FORMAT={-:-/ absolute / metric / decimal}
; #@! TF.CreationDate,2025-01-05T12:56:38+00:00
; #@! TF.GenerationSoftware,Kicad,Pcbnew,8.0.4
; #@! TF.FileFunction,Plated,1,2,PTH
FMAT,2
METRIC
; #@! TA.AperFunction,Plated,PTH,ViaDrill
T1C0.300
; #@! TA.AperFunction,Plated,PTH,ComponentDrill
T2C0.600
; #@! TA.AperFunction,Plated,PTH,ComponentDrill
T3C1.000
; #@! TA.AperFunction,Plated,PTH,ComponentDrill
T4C1.300
%
G90
G05
T1
X55.01Y-67.42
X59.83Y-67.65
X61.5Y-68.24
X63.72Y-63.15
X63.73Y-57.57
X63.73Y-60.34
X68.69Y-56.35
X68.78Y-62.53
X68.82Y-63.41
X69.5Y-64.05
X69.76Y-65.01
X69.83Y-56.3
X69.99Y-71.45
X74.18Y-66.46
X74.94Y-57.55
X75.0Y-55.3
X75.056Y-56.664
X76.42Y-58.24
X77.01Y-62.06
X79.19Y-66.46
X80.08Y-63.26
X81.33Y-61.73
X82.59Y-69.05
X82.67Y-62.75
X84.5Y-59.55
X84.5Y-64.46
X84.595Y-58.285
X86.61Y-54.76
X86.84Y-68.13
T3
X51.5Y-57.08
X51.5Y-59.62
X51.5Y-62.16
X51.5Y-64.7
X51.5Y-67.24
X61.64Y-52.0
X64.18Y-52.0
X66.72Y-52.0
X76.88Y-52.0
X79.42Y-52.0
X81.96Y-52.0
T4
X72.5Y-62.0
T2
X91.864Y-57.68G85X92.463Y-57.68
G05
X91.864Y-66.32G85X92.463Y-66.32
G05
M30
