M48
; DRILL file {KiCad 8.0.4} date 2025-01-07T17:55:24+0000
; FORMAT={-:-/ absolute / metric / decimal}
; #@! TF.CreationDate,2025-01-07T17:55:24+00:00
; #@! TF.GenerationSoftware,Kicad,Pcbnew,8.0.4
; #@! TF.FileFunction,Plated,1,2,PTH
FMAT,2
METRIC
; #@! TA.AperFunction,Plated,PTH,ViaDrill
T1C0.300
; #@! TA.AperFunction,Plated,PTH,ComponentDrill
T2C0.600
; #@! TA.AperFunction,Plated,PTH,ComponentDrill
T3C1.000
; #@! TA.AperFunction,Plated,PTH,ComponentDrill
T4C1.300
%
G90
G05
T1
X58.16Y-55.87
X59.52Y-69.51
X60.405Y-65.715
X60.5Y-59.54
X60.5Y-64.45
X62.33Y-61.25
X62.41Y-54.95
X63.67Y-62.27
X64.92Y-60.74
X65.81Y-57.54
X67.99Y-61.94
X68.58Y-65.76
X69.944Y-67.336
X70.0Y-68.7
X70.06Y-66.45
X70.82Y-57.54
X75.01Y-52.55
X75.17Y-67.7
X75.24Y-58.99
X75.5Y-59.95
X76.18Y-60.59
X76.22Y-61.47
X76.31Y-67.65
X81.27Y-63.66
X81.27Y-66.43
X81.28Y-60.85
X83.5Y-55.76
X87.0Y-57.6
X90.78Y-56.58
T3
X63.04Y-72.0
X65.58Y-72.0
X68.12Y-72.0
X78.28Y-72.0
X80.82Y-72.0
X83.36Y-72.0
X93.5Y-56.92
X93.5Y-59.46
X93.5Y-62.0
X93.5Y-64.54
X93.5Y-67.08
T4
X72.5Y-62.0
T2
X53.136Y-57.68G85X52.536Y-57.68
G05
X53.136Y-66.32G85X52.536Y-66.32
G05
M30
