%TF.GenerationSoftware,KiCad,Pcbnew,8.0.4*%
%TF.CreationDate,2025-01-07T17:55:23+00:00*%
%TF.ProjectId,ap3372s_usbpd,61703333-3732-4735-9f75-736270642e6b,rev?*%
%TF.SameCoordinates,Original*%
%TF.FileFunction,Copper,L1,Top*%
%TF.FilePolarity,Positive*%
%FSLAX46Y46*%
G04 Gerber Fmt 4.6, Leading zero omitted, Abs format (unit mm)*
G04 Created by KiCad (PCBNEW 8.0.4) date 2025-01-07 17:55:23*
%MOMM*%
%LPD*%
G01*
G04 APERTURE LIST*
G04 Aperture macros list*
%AMRoundRect*
0 Rectangle with rounded corners*
0 $1 Rounding radius*
0 $2 $3 $4 $5 $6 $7 $8 $9 X,Y pos of 4 corners*
0 Add a 4 corners polygon primitive as box body*
4,1,4,$2,$3,$4,$5,$6,$7,$8,$9,$2,$3,0*
0 Add four circle primitives for the rounded corners*
1,1,$1+$1,$2,$3*
1,1,$1+$1,$4,$5*
1,1,$1+$1,$6,$7*
1,1,$1+$1,$8,$9*
0 Add four rect primitives between the rounded corners*
20,1,$1+$1,$2,$3,$4,$5,0*
20,1,$1+$1,$4,$5,$6,$7,0*
20,1,$1+$1,$6,$7,$8,$9,0*
20,1,$1+$1,$8,$9,$2,$3,0*%
G04 Aperture macros list end*
%TA.AperFunction,ComponentPad*%
%ADD10R,1.700000X1.700000*%
%TD*%
%TA.AperFunction,ComponentPad*%
%ADD11O,1.700000X1.700000*%
%TD*%
%TA.AperFunction,SMDPad,CuDef*%
%ADD12RoundRect,0.150000X0.587500X0.150000X-0.587500X0.150000X-0.587500X-0.150000X0.587500X-0.150000X0*%
%TD*%
%TA.AperFunction,SMDPad,CuDef*%
%ADD13RoundRect,0.250000X-0.650000X0.412500X-0.650000X-0.412500X0.650000X-0.412500X0.650000X0.412500X0*%
%TD*%
%TA.AperFunction,SMDPad,CuDef*%
%ADD14RoundRect,0.250000X-0.475000X0.337500X-0.475000X-0.337500X0.475000X-0.337500X0.475000X0.337500X0*%
%TD*%
%TA.AperFunction,SMDPad,CuDef*%
%ADD15RoundRect,0.250000X-0.350000X-0.450000X0.350000X-0.450000X0.350000X0.450000X-0.350000X0.450000X0*%
%TD*%
%TA.AperFunction,SMDPad,CuDef*%
%ADD16RoundRect,0.250000X-0.325000X-0.450000X0.325000X-0.450000X0.325000X0.450000X-0.325000X0.450000X0*%
%TD*%
%TA.AperFunction,SMDPad,CuDef*%
%ADD17RoundRect,0.250000X0.350000X0.450000X-0.350000X0.450000X-0.350000X-0.450000X0.350000X-0.450000X0*%
%TD*%
%TA.AperFunction,SMDPad,CuDef*%
%ADD18RoundRect,0.250000X0.337500X0.475000X-0.337500X0.475000X-0.337500X-0.475000X0.337500X-0.475000X0*%
%TD*%
%TA.AperFunction,SMDPad,CuDef*%
%ADD19RoundRect,0.249999X-0.450001X-1.425001X0.450001X-1.425001X0.450001X1.425001X-0.450001X1.425001X0*%
%TD*%
%TA.AperFunction,SMDPad,CuDef*%
%ADD20RoundRect,0.250000X-0.337500X-0.475000X0.337500X-0.475000X0.337500X0.475000X-0.337500X0.475000X0*%
%TD*%
%TA.AperFunction,SMDPad,CuDef*%
%ADD21RoundRect,0.150000X-0.587500X-0.150000X0.587500X-0.150000X0.587500X0.150000X-0.587500X0.150000X0*%
%TD*%
%TA.AperFunction,SMDPad,CuDef*%
%ADD22RoundRect,0.062500X-0.350000X-0.062500X0.350000X-0.062500X0.350000X0.062500X-0.350000X0.062500X0*%
%TD*%
%TA.AperFunction,SMDPad,CuDef*%
%ADD23RoundRect,0.062500X-0.062500X-0.350000X0.062500X-0.350000X0.062500X0.350000X-0.062500X0.350000X0*%
%TD*%
%TA.AperFunction,HeatsinkPad*%
%ADD24R,2.600000X2.600000*%
%TD*%
%TA.AperFunction,SMDPad,CuDef*%
%ADD25R,2.000000X0.600000*%
%TD*%
%TA.AperFunction,SMDPad,CuDef*%
%ADD26R,2.000000X0.300000*%
%TD*%
%TA.AperFunction,ComponentPad*%
%ADD27O,1.900000X1.300000*%
%TD*%
%TA.AperFunction,ViaPad*%
%ADD28C,0.600000*%
%TD*%
%TA.AperFunction,Conductor*%
%ADD29C,0.750000*%
%TD*%
%TA.AperFunction,Conductor*%
%ADD30C,0.500000*%
%TD*%
%TA.AperFunction,Conductor*%
%ADD31C,0.250000*%
%TD*%
%TA.AperFunction,Conductor*%
%ADD32C,0.200000*%
%TD*%
G04 APERTURE END LIST*
D10*
%TO.P,J11,1,Pin_1*%
%TO.N,/VOUT*%
X93500000Y-67080000D03*
D11*
%TO.P,J11,2,Pin_2*%
%TO.N,GND2*%
X93500000Y-64540000D03*
%TO.P,J11,3,Pin_3*%
X93500000Y-62000000D03*
%TO.P,J11,4,Pin_4*%
X93500000Y-59460000D03*
%TO.P,J11,5,Pin_5*%
%TO.N,/VOUT*%
X93500000Y-56920000D03*
%TD*%
D12*
%TO.P,Q2,1,G*%
%TO.N,/G*%
X83437500Y-54450000D03*
%TO.P,Q2,2,S*%
%TO.N,/VOUT*%
X83437500Y-52550000D03*
%TO.P,Q2,3,D*%
%TO.N,/D*%
X81562500Y-53500000D03*
%TD*%
D13*
%TO.P,C9,1*%
%TO.N,/VBUS*%
X64000000Y-52350000D03*
%TO.P,C9,2*%
%TO.N,GND2*%
X64000000Y-55475000D03*
%TD*%
D14*
%TO.P,C14,1*%
%TO.N,/VOUT*%
X90000000Y-52370000D03*
%TO.P,C14,2*%
%TO.N,GND2*%
X90000000Y-54445000D03*
%TD*%
D15*
%TO.P,R12,1*%
%TO.N,Net-(U2-PWR_EN)*%
X81500000Y-57500000D03*
%TO.P,R12,2*%
%TO.N,/G*%
X83500000Y-57500000D03*
%TD*%
D13*
%TO.P,C13,1*%
%TO.N,/VOUT*%
X87000000Y-52370000D03*
%TO.P,C13,2*%
%TO.N,GND2*%
X87000000Y-55495000D03*
%TD*%
D16*
%TO.P,D3,1,K*%
%TO.N,GND2*%
X51975000Y-71000000D03*
%TO.P,D3,2,A*%
%TO.N,Net-(D3-A)*%
X54025000Y-71000000D03*
%TD*%
%TO.P,D5,1,K*%
%TO.N,GND2*%
X86475000Y-71000000D03*
%TO.P,D5,2,A*%
%TO.N,Net-(D5-A)*%
X88525000Y-71000000D03*
%TD*%
D14*
%TO.P,C8,1*%
%TO.N,/VBUS*%
X61000000Y-52875000D03*
%TO.P,C8,2*%
%TO.N,GND2*%
X61000000Y-54950000D03*
%TD*%
D15*
%TO.P,R14,1*%
%TO.N,Net-(U2-LED)*%
X71500000Y-67050000D03*
%TO.P,R14,2*%
%TO.N,Net-(D4-A)*%
X73500000Y-67050000D03*
%TD*%
D17*
%TO.P,R10,1*%
%TO.N,/VBUS*%
X58400000Y-71000000D03*
%TO.P,R10,2*%
%TO.N,Net-(D3-A)*%
X56400000Y-71000000D03*
%TD*%
D15*
%TO.P,R9,1*%
%TO.N,Net-(J8-CC2)*%
X66000000Y-63500000D03*
%TO.P,R9,2*%
%TO.N,GND2*%
X68000000Y-63500000D03*
%TD*%
D18*
%TO.P,C11,1*%
%TO.N,Net-(U2-V5V)*%
X74200000Y-57540000D03*
%TO.P,C11,2*%
%TO.N,GND2*%
X72125000Y-57540000D03*
%TD*%
D16*
%TO.P,D4,1,K*%
%TO.N,GND2*%
X71475000Y-71000000D03*
%TO.P,D4,2,A*%
%TO.N,Net-(D4-A)*%
X73525000Y-71000000D03*
%TD*%
D19*
%TO.P,R11,1*%
%TO.N,/VBUS*%
X66950000Y-53500000D03*
%TO.P,R11,2*%
%TO.N,/VSENSE*%
X73050000Y-53500000D03*
%TD*%
D17*
%TO.P,R15,1*%
%TO.N,/VOUT*%
X92900000Y-71000000D03*
%TO.P,R15,2*%
%TO.N,Net-(D5-A)*%
X90900000Y-71000000D03*
%TD*%
D20*
%TO.P,C10,1*%
%TO.N,Net-(U2-V18)*%
X77485000Y-66440000D03*
%TO.P,C10,2*%
%TO.N,GND2*%
X79560000Y-66440000D03*
%TD*%
D10*
%TO.P,J10,1,Pin_1*%
%TO.N,/SDA'*%
X78280000Y-72000000D03*
D11*
%TO.P,J10,2,Pin_2*%
%TO.N,/SCL'*%
X80820000Y-72000000D03*
%TO.P,J10,3,Pin_3*%
%TO.N,GND2*%
X83360000Y-72000000D03*
%TD*%
D15*
%TO.P,TH1,1*%
%TO.N,Net-(U2-OTP)*%
X77450000Y-63670000D03*
%TO.P,TH1,2*%
%TO.N,GND2*%
X79450000Y-63670000D03*
%TD*%
D21*
%TO.P,Q1,1,G*%
%TO.N,/G*%
X76562500Y-52550000D03*
%TO.P,Q1,2,S*%
%TO.N,/VSENSE*%
X76562500Y-54450000D03*
%TO.P,Q1,3,D*%
%TO.N,/D*%
X78437500Y-53500000D03*
%TD*%
D15*
%TO.P,R8,1*%
%TO.N,Net-(J8-CC1)*%
X66000000Y-60500000D03*
%TO.P,R8,2*%
%TO.N,GND2*%
X68000000Y-60500000D03*
%TD*%
%TO.P,R13,1*%
%TO.N,Net-(U2-VOUT)*%
X76500000Y-57500000D03*
%TO.P,R13,2*%
%TO.N,/VOUT*%
X78500000Y-57500000D03*
%TD*%
D20*
%TO.P,C12,1*%
%TO.N,Net-(U2-IFB)*%
X77425000Y-60850000D03*
%TO.P,C12,2*%
%TO.N,GND2*%
X79500000Y-60850000D03*
%TD*%
D10*
%TO.P,J9,1,Pin_1*%
%TO.N,/DN*%
X68120000Y-72000000D03*
D11*
%TO.P,J9,2,Pin_2*%
%TO.N,/DP*%
X65580000Y-72000000D03*
%TO.P,J9,3,Pin_3*%
%TO.N,GND2*%
X63040000Y-72000000D03*
%TD*%
D22*
%TO.P,U2,1,ISENP*%
%TO.N,/VBUS*%
X70562500Y-60750000D03*
%TO.P,U2,2,NC*%
%TO.N,unconnected-(U2-NC-Pad2)*%
X70562500Y-61250000D03*
%TO.P,U2,3,GND*%
%TO.N,GND2*%
X70562500Y-61750000D03*
%TO.P,U2,4,SDA*%
%TO.N,/SDA'*%
X70562500Y-62250000D03*
%TO.P,U2,5,SCL*%
%TO.N,/SCL'*%
X70562500Y-62750000D03*
%TO.P,U2,6,FLIP*%
%TO.N,unconnected-(U2-FLIP-Pad6)*%
X70562500Y-63250000D03*
D23*
%TO.P,U2,7,NC*%
%TO.N,unconnected-(U2-NC-Pad7)*%
X71250000Y-63937500D03*
%TO.P,U2,8,LED*%
%TO.N,Net-(U2-LED)*%
X71750000Y-63937500D03*
%TO.P,U2,9,INT*%
%TO.N,unconnected-(U2-INT-Pad9)*%
X72250000Y-63937500D03*
%TO.P,U2,10,NC*%
%TO.N,unconnected-(U2-NC-Pad10)*%
X72750000Y-63937500D03*
%TO.P,U2,11,NC*%
%TO.N,unconnected-(U2-NC-Pad11)*%
X73250000Y-63937500D03*
%TO.P,U2,12,V18*%
%TO.N,Net-(U2-V18)*%
X73750000Y-63937500D03*
D22*
%TO.P,U2,13,OTP*%
%TO.N,Net-(U2-OTP)*%
X74437500Y-63250000D03*
%TO.P,U2,14,NC*%
%TO.N,unconnected-(U2-NC-Pad14)*%
X74437500Y-62750000D03*
%TO.P,U2,15,IFB*%
%TO.N,Net-(U2-IFB)*%
X74437500Y-62250000D03*
%TO.P,U2,16,CC2*%
%TO.N,Net-(J8-CC2)*%
X74437500Y-61750000D03*
%TO.P,U2,17,CC1*%
%TO.N,Net-(J8-CC1)*%
X74437500Y-61250000D03*
%TO.P,U2,18,DN*%
%TO.N,/DN*%
X74437500Y-60750000D03*
D23*
%TO.P,U2,19,DP*%
%TO.N,/DP*%
X73750000Y-60062500D03*
%TO.P,U2,20,V5V*%
%TO.N,Net-(U2-V5V)*%
X73250000Y-60062500D03*
%TO.P,U2,21,NC*%
%TO.N,unconnected-(U2-NC-Pad21)*%
X72750000Y-60062500D03*
%TO.P,U2,22,VOUT*%
%TO.N,Net-(U2-VOUT)*%
X72250000Y-60062500D03*
%TO.P,U2,23,PWR_EN*%
%TO.N,Net-(U2-PWR_EN)*%
X71750000Y-60062500D03*
%TO.P,U2,24,VCC*%
%TO.N,/VSENSE*%
X71250000Y-60062500D03*
D24*
%TO.P,U2,25,EP*%
%TO.N,GND2*%
X72500000Y-62000000D03*
%TD*%
D25*
%TO.P,J8,A1,GND*%
%TO.N,GND2*%
X58206500Y-58750000D03*
%TO.P,J8,A4,VBUS*%
%TO.N,/VBUS*%
X58206500Y-59550000D03*
D26*
%TO.P,J8,A5,CC1*%
%TO.N,Net-(J8-CC1)*%
X58206500Y-60750000D03*
%TO.P,J8,A6,D+*%
%TO.N,/DN*%
X58206500Y-61750000D03*
%TO.P,J8,A7,D-*%
X58206500Y-62250000D03*
%TO.P,J8,A8,SBU1*%
%TO.N,unconnected-(J8-SBU1-PadA8)*%
X58206500Y-63250000D03*
D25*
%TO.P,J8,A9,VBUS*%
%TO.N,/VBUS*%
X58206500Y-64450000D03*
%TO.P,J8,A12,GND*%
%TO.N,GND2*%
X58206500Y-65250000D03*
%TO.P,J8,B1,GND*%
X58206500Y-65250000D03*
%TO.P,J8,B4,VBUS*%
%TO.N,/VBUS*%
X58206500Y-64450000D03*
D26*
%TO.P,J8,B5,CC2*%
%TO.N,Net-(J8-CC2)*%
X58206500Y-63750000D03*
%TO.P,J8,B6,D+*%
%TO.N,/DP*%
X58206500Y-62750000D03*
%TO.P,J8,B7,D-*%
X58206500Y-61250000D03*
%TO.P,J8,B8,SBU2*%
%TO.N,unconnected-(J8-SBU2-PadB8)*%
X58206500Y-60250000D03*
D25*
%TO.P,J8,B9,VBUS*%
%TO.N,/VBUS*%
X58206500Y-59550000D03*
%TO.P,J8,B12,GND*%
%TO.N,GND2*%
X58206500Y-58750000D03*
D27*
%TO.P,J8,S1,SHIELD*%
%TO.N,unconnected-(J8-SHIELD-PadS1)_1*%
X52836500Y-57680000D03*
%TO.N,unconnected-(J8-SHIELD-PadS1)*%
X52836500Y-66320000D03*
%TD*%
D28*
%TO.N,GND2*%
X81280000Y-60850000D03*
X60405000Y-65715000D03*
X87000000Y-57600000D03*
X70820000Y-57540000D03*
X81270000Y-63660000D03*
X65810000Y-57540000D03*
X70000000Y-68700000D03*
X58160000Y-55870000D03*
X67990000Y-61940000D03*
X90780000Y-56580000D03*
X81270000Y-66430000D03*
X62410000Y-54950000D03*
%TO.N,Net-(J8-CC1)*%
X76180000Y-60590000D03*
X64920000Y-60740000D03*
%TO.N,/DN*%
X75500000Y-59950000D03*
X63670000Y-62270000D03*
%TO.N,/DP*%
X75240000Y-58990000D03*
X62330000Y-61250000D03*
%TO.N,Net-(J8-CC2)*%
X76220000Y-61470000D03*
X68580000Y-65760000D03*
%TO.N,/VBUS*%
X59520000Y-69510000D03*
X60500000Y-64450000D03*
X60500000Y-59540000D03*
%TO.N,/SCL'*%
X76310000Y-67650000D03*
X70060000Y-66450000D03*
%TO.N,/SDA'*%
X75170000Y-67700000D03*
X69944074Y-67335926D03*
%TO.N,/G*%
X83500000Y-55760000D03*
X75010000Y-52550000D03*
%TD*%
D29*
%TO.N,/VOUT*%
X93500000Y-56920000D02*
X91700000Y-58720000D01*
X91700000Y-58720000D02*
X91700000Y-65280000D01*
X91700000Y-65280000D02*
X93500000Y-67080000D01*
X93500000Y-67080000D02*
X93500000Y-70400000D01*
X93500000Y-70400000D02*
X92900000Y-71000000D01*
X90000000Y-52370000D02*
X93500000Y-55870000D01*
X93500000Y-55870000D02*
X93500000Y-56920000D01*
%TO.N,GND2*%
X65640000Y-68700000D02*
X70000000Y-68700000D01*
D30*
X59950000Y-65250000D02*
X60420000Y-65720000D01*
D29*
X63040000Y-71300000D02*
X65640000Y-68700000D01*
X68000000Y-61930000D02*
X67990000Y-61940000D01*
X67990000Y-61940000D02*
X68000000Y-61950000D01*
X63040000Y-72000000D02*
X63040000Y-68340000D01*
D31*
X70562500Y-61750000D02*
X72250000Y-61750000D01*
D29*
X68000000Y-60500000D02*
X68000000Y-61930000D01*
X85475000Y-72000000D02*
X86475000Y-71000000D01*
D31*
X63040000Y-72000000D02*
X62965000Y-72075000D01*
X52975000Y-72075000D02*
X51900000Y-71000000D01*
D29*
X62410000Y-54950000D02*
X63475000Y-54950000D01*
X90780000Y-56580000D02*
X90000000Y-55800000D01*
D31*
X72250000Y-61750000D02*
X72500000Y-62000000D01*
D29*
X72125000Y-57540000D02*
X70820000Y-57540000D01*
X68000000Y-59730000D02*
X68000000Y-60500000D01*
X63040000Y-72000000D02*
X63040000Y-71300000D01*
D31*
X62965000Y-72075000D02*
X52975000Y-72075000D01*
D29*
X65810000Y-57540000D02*
X68000000Y-59730000D01*
X81270000Y-63660000D02*
X81280000Y-63670000D01*
D30*
X58616500Y-56326500D02*
X58160000Y-55870000D01*
D29*
X81270000Y-66430000D02*
X81280000Y-66440000D01*
D30*
X58206500Y-65250000D02*
X59950000Y-65250000D01*
D29*
X63475000Y-54950000D02*
X64000000Y-55475000D01*
X79560000Y-66440000D02*
X81270000Y-66430000D01*
X68000000Y-61950000D02*
X68000000Y-63500000D01*
D30*
X71475000Y-71000000D02*
X71475000Y-70175000D01*
D29*
X79450000Y-63670000D02*
X81270000Y-63660000D01*
X83360000Y-72000000D02*
X85475000Y-72000000D01*
D31*
X68180000Y-61750000D02*
X67990000Y-61940000D01*
D29*
X61000000Y-54950000D02*
X62410000Y-54950000D01*
D31*
X70562500Y-61750000D02*
X68180000Y-61750000D01*
D29*
X87000000Y-57600000D02*
X87000000Y-55495000D01*
X79500000Y-60850000D02*
X81280000Y-60850000D01*
D30*
X71475000Y-70175000D02*
X70000000Y-68700000D01*
D29*
X90000000Y-55800000D02*
X90000000Y-54445000D01*
D30*
X58206500Y-58750000D02*
X58616500Y-58340000D01*
D29*
X63040000Y-68340000D02*
X60420000Y-65720000D01*
D30*
X58616500Y-58340000D02*
X58616500Y-56326500D01*
D31*
%TO.N,Net-(U2-V18)*%
X75330000Y-66440000D02*
X77485000Y-66440000D01*
X73750000Y-64860000D02*
X75330000Y-66440000D01*
X73750000Y-63937500D02*
X73750000Y-64860000D01*
%TO.N,Net-(U2-V5V)*%
X74200000Y-57540000D02*
X74200000Y-58230000D01*
X74200000Y-58230000D02*
X73250000Y-59180000D01*
X73250000Y-59180000D02*
X73250000Y-60062500D01*
%TO.N,Net-(U2-IFB)*%
X77070000Y-62250000D02*
X77425000Y-61895000D01*
X77425000Y-61895000D02*
X77425000Y-60850000D01*
X74437500Y-62250000D02*
X77070000Y-62250000D01*
%TO.N,Net-(J8-CC1)*%
X64920000Y-60740000D02*
X65760000Y-60740000D01*
X58206500Y-60750000D02*
X61946116Y-60750000D01*
X62071116Y-60625000D02*
X64805000Y-60625000D01*
X75556116Y-61250000D02*
X74437500Y-61250000D01*
X76180000Y-60626116D02*
X75556116Y-61250000D01*
X76180000Y-60590000D02*
X76180000Y-60626116D01*
X61946116Y-60750000D02*
X62071116Y-60625000D01*
X65760000Y-60740000D02*
X66000000Y-60500000D01*
X64805000Y-60625000D02*
X64920000Y-60740000D01*
%TO.N,/DN*%
X74437500Y-60750000D02*
X75030000Y-60750000D01*
X75180000Y-60600000D02*
X75180000Y-60270000D01*
X63670000Y-62270000D02*
X63650000Y-62250000D01*
X75500000Y-59950000D02*
X75490000Y-59940000D01*
X75180000Y-60270000D02*
X75500000Y-59950000D01*
X63650000Y-62250000D02*
X58206500Y-62250000D01*
X59680000Y-62250000D02*
X59680000Y-62020000D01*
X59410000Y-61750000D02*
X58206500Y-61750000D01*
X59680000Y-62020000D02*
X59410000Y-61750000D01*
X75030000Y-60750000D02*
X75180000Y-60600000D01*
%TO.N,/DP*%
X58206500Y-62750000D02*
X56906500Y-62750000D01*
X56906500Y-61250000D02*
X58206500Y-61250000D01*
X74290000Y-58990000D02*
X75240000Y-58990000D01*
X56881500Y-62725000D02*
X56881500Y-61275000D01*
X56906500Y-62750000D02*
X56881500Y-62725000D01*
X73750000Y-60062500D02*
X73750000Y-59530000D01*
X58206500Y-61250000D02*
X62330000Y-61250000D01*
X56881500Y-61275000D02*
X56906500Y-61250000D01*
X73750000Y-59530000D02*
X74290000Y-58990000D01*
%TO.N,Net-(J8-CC2)*%
X58206500Y-63750000D02*
X63380000Y-63750000D01*
X63380000Y-63750000D02*
X63630000Y-63500000D01*
X63630000Y-63500000D02*
X66000000Y-63500000D01*
X68580000Y-65760000D02*
X68260000Y-65760000D01*
X76220000Y-61470000D02*
X75940000Y-61750000D01*
X75940000Y-61750000D02*
X74437500Y-61750000D01*
X68260000Y-65760000D02*
X66000000Y-63500000D01*
D29*
%TO.N,/VOUT*%
X87000000Y-52370000D02*
X88690000Y-52370000D01*
X88690000Y-52370000D02*
X90000000Y-52370000D01*
X83437500Y-52550000D02*
X86820000Y-52550000D01*
X86992500Y-52362500D02*
X87000000Y-52370000D01*
D31*
X80430000Y-59430000D02*
X78500000Y-57500000D01*
X88690000Y-58260000D02*
X87520000Y-59430000D01*
D29*
X86820000Y-52550000D02*
X87000000Y-52370000D01*
D31*
X87520000Y-59430000D02*
X80430000Y-59430000D01*
X88690000Y-52370000D02*
X88690000Y-58260000D01*
%TO.N,Net-(D3-A)*%
X56400000Y-71000000D02*
X53950000Y-71000000D01*
%TO.N,Net-(U2-PWR_EN)*%
X70724606Y-58830000D02*
X71050452Y-58830000D01*
X81500000Y-57500000D02*
X80900000Y-57500000D01*
X70070000Y-57187106D02*
X70070000Y-58175394D01*
X71247106Y-56010000D02*
X70070000Y-57187106D01*
X70070000Y-58175394D02*
X70724606Y-58830000D01*
X80900000Y-57500000D02*
X79410000Y-56010000D01*
X71750000Y-59529548D02*
X71750000Y-60062500D01*
X79410000Y-56010000D02*
X71247106Y-56010000D01*
X71050452Y-58830000D02*
X71750000Y-59529548D01*
%TO.N,Net-(U2-VOUT)*%
X73287500Y-58132500D02*
X73287500Y-56819900D01*
X73287500Y-56819900D02*
X73617400Y-56490000D01*
X73617400Y-56490000D02*
X75490000Y-56490000D01*
X72250000Y-60062500D02*
X72250000Y-59170000D01*
X75490000Y-56490000D02*
X76500000Y-57500000D01*
X72250000Y-59170000D02*
X73287500Y-58132500D01*
D32*
%TO.N,Net-(D4-A)*%
X73500000Y-67050000D02*
X73500000Y-70975000D01*
X73500000Y-70975000D02*
X73525000Y-71000000D01*
%TO.N,Net-(U2-LED)*%
X71750000Y-66800000D02*
X71500000Y-67050000D01*
X71750000Y-63937500D02*
X71750000Y-66800000D01*
D31*
%TO.N,Net-(U2-OTP)*%
X74437500Y-63250000D02*
X77030000Y-63250000D01*
X77030000Y-63250000D02*
X77450000Y-63670000D01*
%TO.N,/VBUS*%
X58400000Y-70630000D02*
X58400000Y-71000000D01*
D29*
X63475000Y-52875000D02*
X64000000Y-52350000D01*
X59650000Y-54225000D02*
X61000000Y-52875000D01*
X60500000Y-59540000D02*
X60500000Y-56506864D01*
D30*
X58206500Y-64450000D02*
X60580000Y-64450000D01*
D29*
X64000000Y-52350000D02*
X65800000Y-52350000D01*
X61000000Y-52875000D02*
X63475000Y-52875000D01*
D31*
X68975000Y-59845000D02*
X68975000Y-55525000D01*
D29*
X59650000Y-55656864D02*
X59650000Y-54225000D01*
D31*
X69880000Y-60750000D02*
X68975000Y-59845000D01*
X68975000Y-55525000D02*
X66950000Y-53500000D01*
X59520000Y-69510000D02*
X58400000Y-70630000D01*
D29*
X65800000Y-52350000D02*
X66950000Y-53500000D01*
D30*
X58206500Y-59550000D02*
X60580000Y-59550000D01*
D29*
X60500000Y-56506864D02*
X59650000Y-55656864D01*
D31*
X70562500Y-60750000D02*
X69880000Y-60750000D01*
%TO.N,/VSENSE*%
X69570000Y-56980000D02*
X73050000Y-53500000D01*
D29*
X74000000Y-54450000D02*
X73050000Y-53500000D01*
D31*
X69570000Y-58382501D02*
X69570000Y-56980000D01*
X71250000Y-59736654D02*
X70843346Y-59330000D01*
X71250000Y-60062500D02*
X71250000Y-59736654D01*
X70517499Y-59330000D02*
X69570000Y-58382501D01*
X70843346Y-59330000D02*
X70517499Y-59330000D01*
D29*
X76562500Y-54450000D02*
X74000000Y-54450000D01*
D31*
%TO.N,/SCL'*%
X76470000Y-67650000D02*
X80820000Y-72000000D01*
X70060000Y-66450000D02*
X69730000Y-66120000D01*
X69730000Y-63120260D02*
X70100260Y-62750000D01*
X76310000Y-67650000D02*
X76470000Y-67650000D01*
X69730000Y-66120000D02*
X69730000Y-63120260D01*
X70100260Y-62750000D02*
X70562500Y-62750000D01*
%TO.N,/SDA'*%
X78280000Y-71470000D02*
X78280000Y-72000000D01*
X69205000Y-65041116D02*
X69110000Y-64946116D01*
X69630000Y-62250000D02*
X70562500Y-62250000D01*
X69205000Y-66596852D02*
X69205000Y-65041116D01*
X69110000Y-62770000D02*
X69630000Y-62250000D01*
X75170000Y-67700000D02*
X75170000Y-68360000D01*
X75170000Y-68360000D02*
X78280000Y-71470000D01*
X69944074Y-67335926D02*
X69205000Y-66596852D01*
X69110000Y-64946116D02*
X69110000Y-62770000D01*
%TO.N,Net-(D5-A)*%
X88525000Y-71000000D02*
X90900000Y-71000000D01*
D29*
%TO.N,/D*%
X78437500Y-53500000D02*
X81562500Y-53500000D01*
D32*
%TO.N,/G*%
X83500000Y-57500000D02*
X83500000Y-55760000D01*
X83500000Y-55760000D02*
X83500000Y-54512500D01*
X76562500Y-52550000D02*
X75010000Y-52550000D01*
X83500000Y-54512500D02*
X83437500Y-54450000D01*
%TD*%
%TA.AperFunction,Conductor*%
%TO.N,GND2*%
G36*
X63091837Y-51019685D02*
G01*
X63137592Y-51072489D01*
X63147536Y-51141647D01*
X63118511Y-51205203D01*
X63063804Y-51241704D01*
X63030669Y-51252685D01*
X63030666Y-51252686D01*
X63030663Y-51252687D01*
X62881342Y-51344789D01*
X62757289Y-51468842D01*
X62665187Y-51618163D01*
X62665185Y-51618168D01*
X62610001Y-51784704D01*
X62610000Y-51784705D01*
X62599437Y-51888103D01*
X62573041Y-51952795D01*
X62515860Y-51992946D01*
X62476079Y-51999500D01*
X62049730Y-51999500D01*
X61982691Y-51979815D01*
X61962049Y-51963181D01*
X61943657Y-51944789D01*
X61943656Y-51944788D01*
X61794334Y-51852686D01*
X61627797Y-51797501D01*
X61627795Y-51797500D01*
X61525010Y-51787000D01*
X60474998Y-51787000D01*
X60474980Y-51787001D01*
X60372203Y-51797500D01*
X60372200Y-51797501D01*
X60205668Y-51852685D01*
X60205663Y-51852687D01*
X60056342Y-51944789D01*
X59932289Y-52068842D01*
X59840187Y-52218163D01*
X59840186Y-52218166D01*
X59785001Y-52384703D01*
X59785001Y-52384704D01*
X59785000Y-52384704D01*
X59774500Y-52487483D01*
X59774500Y-52810993D01*
X59754815Y-52878032D01*
X59738181Y-52898674D01*
X59414916Y-53221940D01*
X59091901Y-53544955D01*
X59059845Y-53577011D01*
X58969953Y-53666902D01*
X58874145Y-53810288D01*
X58874138Y-53810301D01*
X58808146Y-53969621D01*
X58808143Y-53969633D01*
X58774500Y-54138766D01*
X58774500Y-55743097D01*
X58808143Y-55912230D01*
X58808146Y-55912242D01*
X58874138Y-56071562D01*
X58874145Y-56071575D01*
X58969954Y-56214962D01*
X58969957Y-56214966D01*
X59588181Y-56833189D01*
X59621666Y-56894512D01*
X59624500Y-56920870D01*
X59624500Y-57893710D01*
X59604815Y-57960749D01*
X59552011Y-58006504D01*
X59482853Y-58016448D01*
X59457536Y-58008035D01*
X59456899Y-58009746D01*
X59313879Y-57956403D01*
X59313872Y-57956401D01*
X59254344Y-57950000D01*
X58456500Y-57950000D01*
X58456500Y-58625500D01*
X58436815Y-58692539D01*
X58384011Y-58738294D01*
X58332500Y-58749500D01*
X57158629Y-58749500D01*
X57158623Y-58749501D01*
X57099016Y-58755908D01*
X57062442Y-58769550D01*
X56992750Y-58774534D01*
X56931429Y-58741049D01*
X56902061Y-58711681D01*
X56868576Y-58650358D01*
X56873560Y-58580666D01*
X56915432Y-58524733D01*
X56980896Y-58500316D01*
X56989742Y-58500000D01*
X57956500Y-58500000D01*
X57956500Y-58119886D01*
X57976185Y-58052847D01*
X57992819Y-58032205D01*
X57999043Y-58025981D01*
X58007009Y-58018015D01*
X58079484Y-57892485D01*
X58117000Y-57752475D01*
X58117000Y-57607525D01*
X58079484Y-57467515D01*
X58067175Y-57446196D01*
X58007011Y-57341988D01*
X58007006Y-57341982D01*
X57904517Y-57239493D01*
X57904511Y-57239488D01*
X57778988Y-57167017D01*
X57778989Y-57167017D01*
X57767506Y-57163940D01*
X57638975Y-57129500D01*
X56394025Y-57129500D01*
X56265493Y-57163940D01*
X56254011Y-57167017D01*
X56128488Y-57239488D01*
X56128482Y-57239493D01*
X56025993Y-57341982D01*
X56025988Y-57341988D01*
X55953517Y-57467511D01*
X55953516Y-57467515D01*
X55916000Y-57607525D01*
X55916000Y-57752475D01*
X55941535Y-57847771D01*
X55953517Y-57892488D01*
X56025988Y-58018011D01*
X56025990Y-58018013D01*
X56025991Y-58018015D01*
X56128485Y-58120509D01*
X56128486Y-58120510D01*
X56128488Y-58120511D01*
X56254011Y-58192982D01*
X56254012Y-58192982D01*
X56254015Y-58192984D01*
X56394025Y-58230500D01*
X56394028Y-58230500D01*
X56586911Y-58230500D01*
X56653950Y-58250185D01*
X56699705Y-58302989D01*
X56710200Y-58367758D01*
X56706500Y-58402160D01*
X56706500Y-58412094D01*
X56686815Y-58479133D01*
X56634011Y-58524888D01*
X56570393Y-58534421D01*
X56570393Y-58534500D01*
X56569871Y-58534500D01*
X56566314Y-58535033D01*
X56562266Y-58534500D01*
X56410734Y-58534500D01*
X56264363Y-58573719D01*
X56133135Y-58649485D01*
X56133132Y-58649487D01*
X56025987Y-58756632D01*
X56025985Y-58756635D01*
X55950219Y-58887863D01*
X55911000Y-59034234D01*
X55911000Y-59185765D01*
X55950219Y-59332136D01*
X55969565Y-59365643D01*
X56025985Y-59463365D01*
X56133135Y-59570515D01*
X56264365Y-59646281D01*
X56410734Y-59685500D01*
X56410736Y-59685500D01*
X56562259Y-59685500D01*
X56562266Y-59685500D01*
X56562272Y-59685498D01*
X56565804Y-59685033D01*
X56568800Y-59685500D01*
X56570394Y-59685500D01*
X56570394Y-59685748D01*
X56634840Y-59695793D01*
X56687100Y-59742168D01*
X56706000Y-59807970D01*
X56706000Y-59897869D01*
X56706001Y-59897879D01*
X56712867Y-59961751D01*
X56712867Y-59988257D01*
X56712409Y-59992516D01*
X56712409Y-59992517D01*
X56706000Y-60052127D01*
X56706000Y-60052132D01*
X56706000Y-60052133D01*
X56706000Y-60447869D01*
X56706001Y-60447878D01*
X56710179Y-60486745D01*
X56710179Y-60513251D01*
X56706000Y-60552123D01*
X56706000Y-60573158D01*
X56686315Y-60640197D01*
X56633511Y-60685952D01*
X56629458Y-60687717D01*
X56610212Y-60695689D01*
X56610210Y-60695690D01*
X56507771Y-60764138D01*
X56507769Y-60764139D01*
X56495269Y-60776640D01*
X56482767Y-60789142D01*
X56439204Y-60832704D01*
X56395642Y-60876266D01*
X56377398Y-60903571D01*
X56377397Y-60903570D01*
X56327189Y-60978712D01*
X56327185Y-60978719D01*
X56296780Y-61052126D01*
X56280038Y-61092543D01*
X56280035Y-61092553D01*
X56276394Y-61110856D01*
X56276395Y-61110857D01*
X56259523Y-61195685D01*
X56259522Y-61195691D01*
X56256000Y-61213394D01*
X56256000Y-62786607D01*
X56260972Y-62811601D01*
X56260972Y-62811605D01*
X56280035Y-62907444D01*
X56280038Y-62907454D01*
X56292611Y-62937808D01*
X56292611Y-62937809D01*
X56327185Y-63021281D01*
X56327188Y-63021287D01*
X56333683Y-63031006D01*
X56357255Y-63066283D01*
X56357256Y-63066286D01*
X56357257Y-63066286D01*
X56395640Y-63123731D01*
X56395641Y-63123732D01*
X56395642Y-63123733D01*
X56420642Y-63148733D01*
X56507767Y-63235858D01*
X56507768Y-63235859D01*
X56610207Y-63304307D01*
X56610219Y-63304314D01*
X56629452Y-63312280D01*
X56683856Y-63356120D01*
X56705921Y-63422414D01*
X56706000Y-63426836D01*
X56706000Y-63447866D01*
X56706001Y-63447878D01*
X56710179Y-63486745D01*
X56710179Y-63513250D01*
X56706000Y-63552122D01*
X56706000Y-63947870D01*
X56706001Y-63947879D01*
X56712867Y-64011751D01*
X56712867Y-64038257D01*
X56712409Y-64042516D01*
X56712409Y-64042517D01*
X56706000Y-64102127D01*
X56706000Y-64102132D01*
X56706000Y-64192028D01*
X56686315Y-64259067D01*
X56633511Y-64304822D01*
X56570393Y-64314281D01*
X56570393Y-64314500D01*
X56568932Y-64314500D01*
X56565816Y-64314967D01*
X56562269Y-64314500D01*
X56562266Y-64314500D01*
X56410734Y-64314500D01*
X56264363Y-64353719D01*
X56133135Y-64429485D01*
X56133132Y-64429487D01*
X56025987Y-64536632D01*
X56025985Y-64536635D01*
X55950219Y-64667863D01*
X55932768Y-64732993D01*
X55911000Y-64814234D01*
X55911000Y-64965766D01*
X55929001Y-65032949D01*
X55950219Y-65112136D01*
X55975706Y-65156280D01*
X56025985Y-65243365D01*
X56133135Y-65350515D01*
X56264365Y-65426281D01*
X56410734Y-65465500D01*
X56410736Y-65465500D01*
X56562258Y-65465500D01*
X56562266Y-65465500D01*
X56562273Y-65465497D01*
X56566304Y-65464967D01*
X56569724Y-65465500D01*
X56570393Y-65465500D01*
X56570393Y-65465604D01*
X56635340Y-65475727D01*
X56687600Y-65522102D01*
X56706500Y-65587905D01*
X56706500Y-65597839D01*
X56710200Y-65632242D01*
X56697796Y-65701002D01*
X56650187Y-65752140D01*
X56586911Y-65769500D01*
X56394025Y-65769500D01*
X56282050Y-65799504D01*
X56254011Y-65807017D01*
X56128488Y-65879488D01*
X56128482Y-65879493D01*
X56025993Y-65981982D01*
X56025988Y-65981988D01*
X55953517Y-66107511D01*
X55953516Y-66107515D01*
X55916000Y-66247525D01*
X55916000Y-66392475D01*
X55941004Y-66485789D01*
X55953517Y-66532488D01*
X56025988Y-66658011D01*
X56025990Y-66658013D01*
X56025991Y-66658015D01*
X56128485Y-66760509D01*
X56128486Y-66760510D01*
X56128488Y-66760511D01*
X56254011Y-66832982D01*
X56254012Y-66832982D01*
X56254015Y-66832984D01*
X56394025Y-66870500D01*
X56394028Y-66870500D01*
X57638972Y-66870500D01*
X57638975Y-66870500D01*
X57778985Y-66832984D01*
X57904515Y-66760509D01*
X58007009Y-66658015D01*
X58079484Y-66532485D01*
X58117000Y-66392475D01*
X58117000Y-66247525D01*
X58079484Y-66107515D01*
X58075694Y-66100951D01*
X58046278Y-66050000D01*
X58456500Y-66050000D01*
X59254328Y-66050000D01*
X59254344Y-66049999D01*
X59313872Y-66043598D01*
X59313879Y-66043596D01*
X59448586Y-65993354D01*
X59448593Y-65993350D01*
X59563687Y-65907190D01*
X59563690Y-65907187D01*
X59649850Y-65792093D01*
X59649854Y-65792086D01*
X59700096Y-65657379D01*
X59700098Y-65657372D01*
X59706499Y-65597844D01*
X59706500Y-65597827D01*
X59706500Y-65500000D01*
X58456500Y-65500000D01*
X58456500Y-66050000D01*
X58046278Y-66050000D01*
X58007011Y-65981988D01*
X58007006Y-65981982D01*
X57992819Y-65967795D01*
X57959334Y-65906472D01*
X57956500Y-65880114D01*
X57956500Y-65500000D01*
X56989742Y-65500000D01*
X56922703Y-65480315D01*
X56876948Y-65427511D01*
X56867004Y-65358353D01*
X56896029Y-65294797D01*
X56902045Y-65288334D01*
X56931430Y-65258949D01*
X56992749Y-65225466D01*
X57062441Y-65230449D01*
X57062442Y-65230450D01*
X57092796Y-65241771D01*
X57099017Y-65244091D01*
X57158627Y-65250500D01*
X59254372Y-65250499D01*
X59313983Y-65244091D01*
X59363847Y-65225493D01*
X59409896Y-65208318D01*
X59453229Y-65200500D01*
X60200028Y-65200500D01*
X60240982Y-65207457D01*
X60291115Y-65225000D01*
X60320745Y-65235368D01*
X60320750Y-65235369D01*
X60499996Y-65255565D01*
X60500000Y-65255565D01*
X60500004Y-65255565D01*
X60679249Y-65235369D01*
X60679252Y-65235368D01*
X60679255Y-65235368D01*
X60849522Y-65175789D01*
X61002262Y-65079816D01*
X61021786Y-65060290D01*
X61040571Y-65044873D01*
X61058416Y-65032951D01*
X61162951Y-64928416D01*
X61224697Y-64836007D01*
X61245081Y-64805500D01*
X61245082Y-64805497D01*
X61245084Y-64805495D01*
X61301658Y-64668913D01*
X61317622Y-64588657D01*
X61330500Y-64523920D01*
X61330500Y-64499500D01*
X61350185Y-64432461D01*
X61402989Y-64386706D01*
X61454500Y-64375500D01*
X63441607Y-64375500D01*
X63502029Y-64363481D01*
X63562452Y-64351463D01*
X63562455Y-64351461D01*
X63562458Y-64351461D01*
X63595787Y-64337654D01*
X63595786Y-64337654D01*
X63595792Y-64337652D01*
X63676286Y-64304312D01*
X63728633Y-64269334D01*
X63778733Y-64235858D01*
X63852773Y-64161817D01*
X63914094Y-64128334D01*
X63940453Y-64125500D01*
X64827983Y-64125500D01*
X64895022Y-64145185D01*
X64940777Y-64197989D01*
X64945686Y-64210489D01*
X64965186Y-64269334D01*
X65057288Y-64418656D01*
X65181344Y-64542712D01*
X65330666Y-64634814D01*
X65497203Y-64689999D01*
X65599991Y-64700500D01*
X66264546Y-64700499D01*
X66331585Y-64720183D01*
X66352227Y-64736818D01*
X67861263Y-66245855D01*
X67861267Y-66245858D01*
X67963710Y-66314309D01*
X67963711Y-66314309D01*
X67963715Y-66314312D01*
X68006683Y-66332109D01*
X68046911Y-66358989D01*
X68077738Y-66389816D01*
X68230478Y-66485789D01*
X68400745Y-66545368D01*
X68470556Y-66553233D01*
X68534968Y-66580298D01*
X68574524Y-66637892D01*
X68577627Y-66652618D01*
X68578311Y-66652483D01*
X68600023Y-66761639D01*
X68603537Y-66779304D01*
X68610719Y-66796643D01*
X68650688Y-66893138D01*
X68650689Y-66893140D01*
X68650690Y-66893141D01*
X68650690Y-66893142D01*
X68679233Y-66935858D01*
X68679234Y-66935859D01*
X68719140Y-66995583D01*
X68719141Y-66995584D01*
X68719142Y-66995585D01*
X68806267Y-67082710D01*
X68806268Y-67082710D01*
X68813335Y-67089777D01*
X68813334Y-67089777D01*
X68813338Y-67089780D01*
X69117861Y-67394304D01*
X69151346Y-67455627D01*
X69153400Y-67468100D01*
X69158704Y-67515175D01*
X69218284Y-67685447D01*
X69218285Y-67685448D01*
X69314258Y-67838188D01*
X69441812Y-67965742D01*
X69594552Y-68061715D01*
X69764819Y-68121294D01*
X69764824Y-68121295D01*
X69944070Y-68141491D01*
X69944074Y-68141491D01*
X69944078Y-68141491D01*
X70123323Y-68121295D01*
X70123326Y-68121294D01*
X70123329Y-68121294D01*
X70293596Y-68061715D01*
X70428955Y-67976662D01*
X70496191Y-67957663D01*
X70563027Y-67978031D01*
X70582608Y-67993976D01*
X70681344Y-68092712D01*
X70830666Y-68184814D01*
X70997203Y-68239999D01*
X71099991Y-68250500D01*
X71900008Y-68250499D01*
X71900016Y-68250498D01*
X71900019Y-68250498D01*
X71956302Y-68244748D01*
X72002797Y-68239999D01*
X72169334Y-68184814D01*
X72318656Y-68092712D01*
X72412319Y-67999049D01*
X72473642Y-67965564D01*
X72543334Y-67970548D01*
X72587681Y-67999049D01*
X72681344Y-68092712D01*
X72830666Y-68184814D01*
X72830667Y-68184814D01*
X72836813Y-68188605D01*
X72835706Y-68190399D01*
X72880337Y-68229687D01*
X72899500Y-68295908D01*
X72899500Y-69784362D01*
X72879815Y-69851401D01*
X72840598Y-69889899D01*
X72772288Y-69932033D01*
X72731342Y-69957289D01*
X72607288Y-70081343D01*
X72607283Y-70081349D01*
X72605241Y-70084661D01*
X72603247Y-70086453D01*
X72602807Y-70087011D01*
X72602711Y-70086935D01*
X72553291Y-70131383D01*
X72484328Y-70142602D01*
X72420247Y-70114755D01*
X72394168Y-70084656D01*
X72392319Y-70081659D01*
X72392316Y-70081655D01*
X72268345Y-69957684D01*
X72119124Y-69865643D01*
X72119119Y-69865641D01*
X71952697Y-69810494D01*
X71952690Y-69810493D01*
X71849986Y-69800000D01*
X71725000Y-69800000D01*
X71725000Y-72199999D01*
X71849972Y-72199999D01*
X71849986Y-72199998D01*
X71952697Y-72189505D01*
X72119119Y-72134358D01*
X72119124Y-72134356D01*
X72268345Y-72042315D01*
X72392318Y-71918342D01*
X72394165Y-71915348D01*
X72395969Y-71913724D01*
X72396798Y-71912677D01*
X72396976Y-71912818D01*
X72446110Y-71868621D01*
X72515073Y-71857396D01*
X72579156Y-71885236D01*
X72605243Y-71915341D01*
X72607288Y-71918656D01*
X72731344Y-72042712D01*
X72880666Y-72134814D01*
X73047203Y-72189999D01*
X73149991Y-72200500D01*
X73900008Y-72200499D01*
X73900016Y-72200498D01*
X73900019Y-72200498D01*
X73973487Y-72192993D01*
X74002797Y-72189999D01*
X74169334Y-72134814D01*
X74318656Y-72042712D01*
X74442712Y-71918656D01*
X74534814Y-71769334D01*
X74589999Y-71602797D01*
X74600500Y-71500009D01*
X74600499Y-70499992D01*
X74589999Y-70397203D01*
X74534814Y-70230666D01*
X74442712Y-70081344D01*
X74318656Y-69957288D01*
X74169334Y-69865186D01*
X74169332Y-69865185D01*
X74163187Y-69861395D01*
X74164290Y-69859605D01*
X74119649Y-69820290D01*
X74100500Y-69754091D01*
X74100500Y-68295908D01*
X74120185Y-68228869D01*
X74164271Y-68190363D01*
X74163187Y-68188605D01*
X74169332Y-68184814D01*
X74169334Y-68184814D01*
X74318656Y-68092712D01*
X74318659Y-68092708D01*
X74324035Y-68089393D01*
X74391428Y-68070953D01*
X74458091Y-68091875D01*
X74494123Y-68128957D01*
X74525494Y-68178883D01*
X74544500Y-68244854D01*
X74544500Y-68421611D01*
X74568535Y-68542444D01*
X74568540Y-68542461D01*
X74615685Y-68656281D01*
X74615687Y-68656284D01*
X74647860Y-68704433D01*
X74647861Y-68704435D01*
X74684141Y-68758733D01*
X74775586Y-68850178D01*
X74775608Y-68850198D01*
X76897067Y-70971657D01*
X76930552Y-71032980D01*
X76932675Y-71072589D01*
X76929500Y-71102127D01*
X76929500Y-71102133D01*
X76929500Y-71102134D01*
X76929500Y-71102135D01*
X76929501Y-72876000D01*
X76909816Y-72943039D01*
X76857013Y-72988794D01*
X76805501Y-73000000D01*
X69594500Y-73000000D01*
X69527461Y-72980315D01*
X69481706Y-72927511D01*
X69470500Y-72876000D01*
X69470499Y-71499986D01*
X70400001Y-71499986D01*
X70410494Y-71602697D01*
X70465641Y-71769119D01*
X70465643Y-71769124D01*
X70557684Y-71918345D01*
X70681654Y-72042315D01*
X70830875Y-72134356D01*
X70830880Y-72134358D01*
X70997302Y-72189505D01*
X70997309Y-72189506D01*
X71100019Y-72199999D01*
X71224999Y-72199999D01*
X71225000Y-72199998D01*
X71225000Y-71250000D01*
X70400001Y-71250000D01*
X70400001Y-71499986D01*
X69470499Y-71499986D01*
X69470499Y-71102129D01*
X69470498Y-71102123D01*
X69470412Y-71101324D01*
X69464091Y-71042517D01*
X69462810Y-71039083D01*
X69413797Y-70907671D01*
X69413793Y-70907664D01*
X69327547Y-70792455D01*
X69327544Y-70792452D01*
X69212335Y-70706206D01*
X69212328Y-70706202D01*
X69077482Y-70655908D01*
X69077483Y-70655908D01*
X69017883Y-70649501D01*
X69017881Y-70649500D01*
X69017873Y-70649500D01*
X69017864Y-70649500D01*
X67222129Y-70649500D01*
X67222123Y-70649501D01*
X67162516Y-70655908D01*
X67027671Y-70706202D01*
X67027664Y-70706206D01*
X66912455Y-70792452D01*
X66912452Y-70792455D01*
X66826206Y-70907664D01*
X66826203Y-70907669D01*
X66777189Y-71039083D01*
X66735317Y-71095016D01*
X66669853Y-71119433D01*
X66601580Y-71104581D01*
X66573326Y-71083430D01*
X66451402Y-70961506D01*
X66451395Y-70961501D01*
X66446536Y-70958099D01*
X66374518Y-70907671D01*
X66257834Y-70825967D01*
X66257830Y-70825965D01*
X66194700Y-70796527D01*
X66043663Y-70726097D01*
X66043659Y-70726096D01*
X66043655Y-70726094D01*
X65815413Y-70664938D01*
X65815403Y-70664936D01*
X65580001Y-70644341D01*
X65579999Y-70644341D01*
X65344596Y-70664936D01*
X65344586Y-70664938D01*
X65116344Y-70726094D01*
X65116335Y-70726098D01*
X64902171Y-70825964D01*
X64902169Y-70825965D01*
X64708597Y-70961505D01*
X64541508Y-71128594D01*
X64411269Y-71314595D01*
X64356692Y-71358219D01*
X64287193Y-71365412D01*
X64224839Y-71333890D01*
X64208119Y-71314594D01*
X64078113Y-71128926D01*
X64078108Y-71128920D01*
X63911082Y-70961894D01*
X63717578Y-70826399D01*
X63503492Y-70726570D01*
X63503486Y-70726567D01*
X63290000Y-70669364D01*
X63290000Y-71566988D01*
X63232993Y-71534075D01*
X63105826Y-71500000D01*
X62974174Y-71500000D01*
X62847007Y-71534075D01*
X62790000Y-71566988D01*
X62790000Y-70669364D01*
X62789999Y-70669364D01*
X62576513Y-70726567D01*
X62576507Y-70726570D01*
X62362422Y-70826399D01*
X62362420Y-70826400D01*
X62168926Y-70961886D01*
X62168920Y-70961891D01*
X62001891Y-71128920D01*
X62001886Y-71128926D01*
X61866400Y-71322420D01*
X61866399Y-71322422D01*
X61766570Y-71536507D01*
X61766567Y-71536513D01*
X61709364Y-71749999D01*
X61709364Y-71750000D01*
X62606988Y-71750000D01*
X62574075Y-71807007D01*
X62540000Y-71934174D01*
X62540000Y-72065826D01*
X62574075Y-72192993D01*
X62606988Y-72250000D01*
X61709364Y-72250000D01*
X61766567Y-72463486D01*
X61766570Y-72463492D01*
X61866400Y-72677579D01*
X61866404Y-72677585D01*
X61955535Y-72804876D01*
X61977863Y-72871082D01*
X61960853Y-72938849D01*
X61909906Y-72986663D01*
X61853961Y-73000000D01*
X50624500Y-73000000D01*
X50557461Y-72980315D01*
X50511706Y-72927511D01*
X50500500Y-72876000D01*
X50500500Y-71499986D01*
X50900001Y-71499986D01*
X50910494Y-71602697D01*
X50965641Y-71769119D01*
X50965643Y-71769124D01*
X51057684Y-71918345D01*
X51181654Y-72042315D01*
X51330875Y-72134356D01*
X51330880Y-72134358D01*
X51497302Y-72189505D01*
X51497309Y-72189506D01*
X51600019Y-72199999D01*
X51724999Y-72199999D01*
X51725000Y-72199998D01*
X51725000Y-71250000D01*
X50900001Y-71250000D01*
X50900001Y-71499986D01*
X50500500Y-71499986D01*
X50500500Y-70500013D01*
X50900000Y-70500013D01*
X50900000Y-70750000D01*
X51725000Y-70750000D01*
X51725000Y-69800000D01*
X52225000Y-69800000D01*
X52225000Y-72199999D01*
X52349972Y-72199999D01*
X52349986Y-72199998D01*
X52452697Y-72189505D01*
X52619119Y-72134358D01*
X52619124Y-72134356D01*
X52768345Y-72042315D01*
X52892318Y-71918342D01*
X52894165Y-71915348D01*
X52895969Y-71913724D01*
X52896798Y-71912677D01*
X52896976Y-71912818D01*
X52946110Y-71868621D01*
X53015073Y-71857396D01*
X53079156Y-71885236D01*
X53105243Y-71915341D01*
X53107288Y-71918656D01*
X53231344Y-72042712D01*
X53380666Y-72134814D01*
X53547203Y-72189999D01*
X53649991Y-72200500D01*
X54400008Y-72200499D01*
X54400016Y-72200498D01*
X54400019Y-72200498D01*
X54473487Y-72192993D01*
X54502797Y-72189999D01*
X54669334Y-72134814D01*
X54818656Y-72042712D01*
X54942712Y-71918656D01*
X55034814Y-71769334D01*
X55054311Y-71710493D01*
X55094084Y-71653051D01*
X55158600Y-71626228D01*
X55172017Y-71625500D01*
X55227983Y-71625500D01*
X55295022Y-71645185D01*
X55340777Y-71697989D01*
X55345686Y-71710489D01*
X55365186Y-71769334D01*
X55457288Y-71918656D01*
X55581344Y-72042712D01*
X55730666Y-72134814D01*
X55897203Y-72189999D01*
X55999991Y-72200500D01*
X56800008Y-72200499D01*
X56800016Y-72200498D01*
X56800019Y-72200498D01*
X56873487Y-72192993D01*
X56902797Y-72189999D01*
X57069334Y-72134814D01*
X57218656Y-72042712D01*
X57312319Y-71949049D01*
X57373642Y-71915564D01*
X57443334Y-71920548D01*
X57487681Y-71949049D01*
X57581344Y-72042712D01*
X57730666Y-72134814D01*
X57897203Y-72189999D01*
X57999991Y-72200500D01*
X58800008Y-72200499D01*
X58800016Y-72200498D01*
X58800019Y-72200498D01*
X58873487Y-72192993D01*
X58902797Y-72189999D01*
X59069334Y-72134814D01*
X59218656Y-72042712D01*
X59342712Y-71918656D01*
X59434814Y-71769334D01*
X59489999Y-71602797D01*
X59500500Y-71500009D01*
X59500499Y-70500013D01*
X70400000Y-70500013D01*
X70400000Y-70750000D01*
X71225000Y-70750000D01*
X71225000Y-69800000D01*
X71100027Y-69800000D01*
X71100012Y-69800001D01*
X70997302Y-69810494D01*
X70830880Y-69865641D01*
X70830875Y-69865643D01*
X70681654Y-69957684D01*
X70557684Y-70081654D01*
X70465643Y-70230875D01*
X70465641Y-70230880D01*
X70410494Y-70397302D01*
X70410493Y-70397309D01*
X70400000Y-70500013D01*
X59500499Y-70500013D01*
X59500499Y-70499992D01*
X59498525Y-70480669D01*
X59511294Y-70411977D01*
X59534199Y-70380389D01*
X59578379Y-70336209D01*
X59639700Y-70302726D01*
X59652156Y-70300674D01*
X59699255Y-70295368D01*
X59869522Y-70235789D01*
X60022262Y-70139816D01*
X60149816Y-70012262D01*
X60245789Y-69859522D01*
X60305368Y-69689255D01*
X60325565Y-69510000D01*
X60318987Y-69451621D01*
X60305369Y-69330750D01*
X60305368Y-69330745D01*
X60245788Y-69160476D01*
X60149815Y-69007737D01*
X60022262Y-68880184D01*
X59869523Y-68784211D01*
X59699254Y-68724631D01*
X59699249Y-68724630D01*
X59520004Y-68704435D01*
X59519996Y-68704435D01*
X59340750Y-68724630D01*
X59340745Y-68724631D01*
X59170476Y-68784211D01*
X59017737Y-68880184D01*
X58890184Y-69007737D01*
X58794210Y-69160478D01*
X58734630Y-69330750D01*
X58729326Y-69377825D01*
X58702258Y-69442239D01*
X58693787Y-69451621D01*
X58382227Y-69763181D01*
X58320904Y-69796666D01*
X58294546Y-69799500D01*
X57999999Y-69799500D01*
X57999980Y-69799501D01*
X57897203Y-69810000D01*
X57897200Y-69810001D01*
X57730668Y-69865185D01*
X57730663Y-69865187D01*
X57581342Y-69957289D01*
X57487681Y-70050951D01*
X57426358Y-70084436D01*
X57356666Y-70079452D01*
X57312319Y-70050951D01*
X57218657Y-69957289D01*
X57218656Y-69957288D01*
X57069334Y-69865186D01*
X56902797Y-69810001D01*
X56902795Y-69810000D01*
X56800010Y-69799500D01*
X55999998Y-69799500D01*
X55999980Y-69799501D01*
X55897203Y-69810000D01*
X55897200Y-69810001D01*
X55730668Y-69865185D01*
X55730663Y-69865187D01*
X55581342Y-69957289D01*
X55457289Y-70081342D01*
X55365187Y-70230663D01*
X55365186Y-70230666D01*
X55345689Y-70289505D01*
X55305916Y-70346949D01*
X55241400Y-70373772D01*
X55227983Y-70374500D01*
X55172017Y-70374500D01*
X55104978Y-70354815D01*
X55059223Y-70302011D01*
X55054311Y-70289505D01*
X55034814Y-70230666D01*
X54942712Y-70081344D01*
X54818656Y-69957288D01*
X54669334Y-69865186D01*
X54502797Y-69810001D01*
X54502795Y-69810000D01*
X54400010Y-69799500D01*
X53649998Y-69799500D01*
X53649980Y-69799501D01*
X53547203Y-69810000D01*
X53547200Y-69810001D01*
X53380668Y-69865185D01*
X53380663Y-69865187D01*
X53231342Y-69957289D01*
X53107288Y-70081343D01*
X53107283Y-70081349D01*
X53105241Y-70084661D01*
X53103247Y-70086453D01*
X53102807Y-70087011D01*
X53102711Y-70086935D01*
X53053291Y-70131383D01*
X52984328Y-70142602D01*
X52920247Y-70114755D01*
X52894168Y-70084656D01*
X52892319Y-70081659D01*
X52892316Y-70081655D01*
X52768345Y-69957684D01*
X52619124Y-69865643D01*
X52619119Y-69865641D01*
X52452697Y-69810494D01*
X52452690Y-69810493D01*
X52349986Y-69800000D01*
X52225000Y-69800000D01*
X51725000Y-69800000D01*
X51600027Y-69800000D01*
X51600012Y-69800001D01*
X51497302Y-69810494D01*
X51330880Y-69865641D01*
X51330875Y-69865643D01*
X51181654Y-69957684D01*
X51057684Y-70081654D01*
X50965643Y-70230875D01*
X50965641Y-70230880D01*
X50910494Y-70397302D01*
X50910493Y-70397309D01*
X50900000Y-70500013D01*
X50500500Y-70500013D01*
X50500500Y-66229448D01*
X51386000Y-66229448D01*
X51386000Y-66410551D01*
X51414329Y-66589410D01*
X51470287Y-66761636D01*
X51470288Y-66761639D01*
X51552506Y-66922997D01*
X51658941Y-67069494D01*
X51658945Y-67069499D01*
X51787000Y-67197554D01*
X51787005Y-67197558D01*
X51914787Y-67290396D01*
X51933506Y-67303996D01*
X52024253Y-67350234D01*
X52094860Y-67386211D01*
X52094863Y-67386212D01*
X52180976Y-67414191D01*
X52267091Y-67442171D01*
X52349929Y-67455291D01*
X52445949Y-67470500D01*
X52445954Y-67470500D01*
X53227051Y-67470500D01*
X53313759Y-67456765D01*
X53405909Y-67442171D01*
X53578139Y-67386211D01*
X53739494Y-67303996D01*
X53886001Y-67197553D01*
X54014053Y-67069501D01*
X54120496Y-66922994D01*
X54202711Y-66761639D01*
X54258671Y-66589409D01*
X54275083Y-66485788D01*
X54287000Y-66410551D01*
X54287000Y-66229448D01*
X54262608Y-66075451D01*
X54258671Y-66050591D01*
X54225253Y-65947738D01*
X54202712Y-65878363D01*
X54202711Y-65878360D01*
X54147243Y-65769500D01*
X54120496Y-65717006D01*
X54058912Y-65632242D01*
X54014058Y-65570505D01*
X54014054Y-65570500D01*
X53885999Y-65442445D01*
X53885994Y-65442441D01*
X53739497Y-65336006D01*
X53739496Y-65336005D01*
X53739494Y-65336004D01*
X53687800Y-65309664D01*
X53578139Y-65253788D01*
X53578136Y-65253787D01*
X53405910Y-65197829D01*
X53227051Y-65169500D01*
X53227046Y-65169500D01*
X52445954Y-65169500D01*
X52445949Y-65169500D01*
X52267089Y-65197829D01*
X52094863Y-65253787D01*
X52094860Y-65253788D01*
X51933502Y-65336006D01*
X51787005Y-65442441D01*
X51787000Y-65442445D01*
X51658945Y-65570500D01*
X51658941Y-65570505D01*
X51552506Y-65717002D01*
X51470288Y-65878360D01*
X51470287Y-65878363D01*
X51414329Y-66050589D01*
X51386000Y-66229448D01*
X50500500Y-66229448D01*
X50500500Y-57589448D01*
X51386000Y-57589448D01*
X51386000Y-57770551D01*
X51414329Y-57949410D01*
X51470287Y-58121636D01*
X51470288Y-58121639D01*
X51524757Y-58228537D01*
X51548781Y-58275688D01*
X51552506Y-58282997D01*
X51658941Y-58429494D01*
X51658945Y-58429499D01*
X51787000Y-58557554D01*
X51787005Y-58557558D01*
X51893337Y-58634812D01*
X51933506Y-58663996D01*
X52033966Y-58715183D01*
X52094860Y-58746211D01*
X52094863Y-58746212D01*
X52126943Y-58756635D01*
X52267091Y-58802171D01*
X52349929Y-58815291D01*
X52445949Y-58830500D01*
X52445954Y-58830500D01*
X53227051Y-58830500D01*
X53313759Y-58816765D01*
X53405909Y-58802171D01*
X53578139Y-58746211D01*
X53739494Y-58663996D01*
X53886001Y-58557553D01*
X54014053Y-58429501D01*
X54120496Y-58282994D01*
X54202711Y-58121639D01*
X54258671Y-57949409D01*
X54285694Y-57778794D01*
X54287000Y-57770551D01*
X54287000Y-57589448D01*
X54261827Y-57430518D01*
X54258671Y-57410591D01*
X54217569Y-57284090D01*
X54202712Y-57238363D01*
X54202711Y-57238360D01*
X54147243Y-57129500D01*
X54120496Y-57077006D01*
X54064547Y-56999998D01*
X54014058Y-56930505D01*
X54014054Y-56930500D01*
X53885999Y-56802445D01*
X53885994Y-56802441D01*
X53739497Y-56696006D01*
X53739496Y-56696005D01*
X53739494Y-56696004D01*
X53687800Y-56669664D01*
X53578139Y-56613788D01*
X53578136Y-56613787D01*
X53405910Y-56557829D01*
X53227051Y-56529500D01*
X53227046Y-56529500D01*
X52445954Y-56529500D01*
X52445949Y-56529500D01*
X52267089Y-56557829D01*
X52094863Y-56613787D01*
X52094860Y-56613788D01*
X51933502Y-56696006D01*
X51787005Y-56802441D01*
X51787000Y-56802445D01*
X51658945Y-56930500D01*
X51658941Y-56930505D01*
X51552506Y-57077002D01*
X51470288Y-57238360D01*
X51470287Y-57238363D01*
X51414329Y-57410589D01*
X51386000Y-57589448D01*
X50500500Y-57589448D01*
X50500500Y-51124000D01*
X50520185Y-51056961D01*
X50572989Y-51011206D01*
X50624500Y-51000000D01*
X63024798Y-51000000D01*
X63091837Y-51019685D01*
G37*
%TD.AperFunction*%
%TA.AperFunction,Conductor*%
G36*
X90193039Y-54214685D02*
G01*
X90238794Y-54267489D01*
X90250000Y-54319000D01*
X90250000Y-55532499D01*
X90524972Y-55532499D01*
X90524986Y-55532498D01*
X90627697Y-55522005D01*
X90794119Y-55466858D01*
X90794124Y-55466856D01*
X90943345Y-55374815D01*
X91067315Y-55250845D01*
X91159356Y-55101624D01*
X91159356Y-55101622D01*
X91179281Y-55041492D01*
X91219053Y-54984047D01*
X91283568Y-54957222D01*
X91352344Y-54969536D01*
X91384669Y-54992813D01*
X92134620Y-55742764D01*
X92168105Y-55804087D01*
X92170939Y-55830154D01*
X92172838Y-56638485D01*
X92168614Y-56670864D01*
X92164938Y-56684582D01*
X92164937Y-56684591D01*
X92144341Y-56919999D01*
X92144341Y-56920002D01*
X92148755Y-56970458D01*
X92134988Y-57038958D01*
X92112908Y-57068946D01*
X91334085Y-57847771D01*
X91141901Y-58039955D01*
X91110120Y-58071736D01*
X91019953Y-58161902D01*
X90924145Y-58305288D01*
X90924138Y-58305301D01*
X90858146Y-58464621D01*
X90858143Y-58464633D01*
X90824500Y-58633766D01*
X90824500Y-65366233D01*
X90858143Y-65535366D01*
X90858146Y-65535378D01*
X90924138Y-65694698D01*
X90924145Y-65694711D01*
X91019954Y-65838098D01*
X91019957Y-65838102D01*
X92113181Y-66931325D01*
X92146666Y-66992648D01*
X92149500Y-67019006D01*
X92149500Y-67977870D01*
X92149501Y-67977876D01*
X92155908Y-68037483D01*
X92192129Y-68134595D01*
X92199947Y-68177635D01*
X92199999Y-68199999D01*
X92214662Y-68214627D01*
X92231887Y-68219685D01*
X92264112Y-68249686D01*
X92292454Y-68287546D01*
X92306944Y-68298393D01*
X92407664Y-68373793D01*
X92407671Y-68373797D01*
X92543833Y-68424582D01*
X92599767Y-68466453D01*
X92624184Y-68531917D01*
X92624500Y-68540764D01*
X92624500Y-69675500D01*
X92604815Y-69742539D01*
X92552011Y-69788294D01*
X92503120Y-69798936D01*
X92503141Y-69799341D01*
X92500691Y-69799465D01*
X92500534Y-69799500D01*
X92500015Y-69799500D01*
X92499980Y-69799501D01*
X92397203Y-69810000D01*
X92397200Y-69810001D01*
X92230668Y-69865185D01*
X92230663Y-69865187D01*
X92081342Y-69957289D01*
X91987681Y-70050951D01*
X91926358Y-70084436D01*
X91856666Y-70079452D01*
X91812319Y-70050951D01*
X91718657Y-69957289D01*
X91718656Y-69957288D01*
X91569334Y-69865186D01*
X91402797Y-69810001D01*
X91402795Y-69810000D01*
X91300010Y-69799500D01*
X90499998Y-69799500D01*
X90499980Y-69799501D01*
X90397203Y-69810000D01*
X90397200Y-69810001D01*
X90230668Y-69865185D01*
X90230663Y-69865187D01*
X90081342Y-69957289D01*
X89957289Y-70081342D01*
X89865187Y-70230663D01*
X89865186Y-70230666D01*
X89845689Y-70289505D01*
X89805916Y-70346949D01*
X89741400Y-70373772D01*
X89727983Y-70374500D01*
X89672017Y-70374500D01*
X89604978Y-70354815D01*
X89559223Y-70302011D01*
X89554311Y-70289505D01*
X89534814Y-70230666D01*
X89442712Y-70081344D01*
X89318656Y-69957288D01*
X89169334Y-69865186D01*
X89002797Y-69810001D01*
X89002795Y-69810000D01*
X88900010Y-69799500D01*
X88149998Y-69799500D01*
X88149980Y-69799501D01*
X88047203Y-69810000D01*
X88047200Y-69810001D01*
X87880668Y-69865185D01*
X87880663Y-69865187D01*
X87731342Y-69957289D01*
X87607288Y-70081343D01*
X87607283Y-70081349D01*
X87605241Y-70084661D01*
X87603247Y-70086453D01*
X87602807Y-70087011D01*
X87602711Y-70086935D01*
X87553291Y-70131383D01*
X87484328Y-70142602D01*
X87420247Y-70114755D01*
X87394168Y-70084656D01*
X87392319Y-70081659D01*
X87392316Y-70081655D01*
X87268345Y-69957684D01*
X87119124Y-69865643D01*
X87119119Y-69865641D01*
X86952697Y-69810494D01*
X86952690Y-69810493D01*
X86849986Y-69800000D01*
X86725000Y-69800000D01*
X86725000Y-72199999D01*
X86849972Y-72199999D01*
X86849986Y-72199998D01*
X86952697Y-72189505D01*
X87119119Y-72134358D01*
X87119124Y-72134356D01*
X87268345Y-72042315D01*
X87392318Y-71918342D01*
X87394165Y-71915348D01*
X87395969Y-71913724D01*
X87396798Y-71912677D01*
X87396976Y-71912818D01*
X87446110Y-71868621D01*
X87515073Y-71857396D01*
X87579156Y-71885236D01*
X87605243Y-71915341D01*
X87607288Y-71918656D01*
X87731344Y-72042712D01*
X87880666Y-72134814D01*
X88047203Y-72189999D01*
X88149991Y-72200500D01*
X88900008Y-72200499D01*
X88900016Y-72200498D01*
X88900019Y-72200498D01*
X88973487Y-72192993D01*
X89002797Y-72189999D01*
X89169334Y-72134814D01*
X89318656Y-72042712D01*
X89442712Y-71918656D01*
X89534814Y-71769334D01*
X89554311Y-71710493D01*
X89594084Y-71653051D01*
X89658600Y-71626228D01*
X89672017Y-71625500D01*
X89727983Y-71625500D01*
X89795022Y-71645185D01*
X89840777Y-71697989D01*
X89845686Y-71710489D01*
X89865186Y-71769334D01*
X89957288Y-71918656D01*
X90081344Y-72042712D01*
X90230666Y-72134814D01*
X90397203Y-72189999D01*
X90499991Y-72200500D01*
X91300008Y-72200499D01*
X91300016Y-72200498D01*
X91300019Y-72200498D01*
X91373487Y-72192993D01*
X91402797Y-72189999D01*
X91569334Y-72134814D01*
X91718656Y-72042712D01*
X91812319Y-71949049D01*
X91873642Y-71915564D01*
X91943334Y-71920548D01*
X91987681Y-71949049D01*
X92081344Y-72042712D01*
X92230666Y-72134814D01*
X92397203Y-72189999D01*
X92499991Y-72200500D01*
X93300008Y-72200499D01*
X93300016Y-72200498D01*
X93300019Y-72200498D01*
X93373487Y-72192993D01*
X93402797Y-72189999D01*
X93569334Y-72134814D01*
X93718656Y-72042712D01*
X93842712Y-71918656D01*
X93934814Y-71769334D01*
X93989999Y-71602797D01*
X94000500Y-71500009D01*
X94000499Y-71189005D01*
X94020183Y-71121967D01*
X94036813Y-71101330D01*
X94180045Y-70958099D01*
X94268044Y-70826400D01*
X94272398Y-70819884D01*
X94326010Y-70775079D01*
X94395335Y-70766372D01*
X94458363Y-70796527D01*
X94495082Y-70855970D01*
X94499500Y-70888775D01*
X94499500Y-72876000D01*
X94479815Y-72943039D01*
X94427011Y-72988794D01*
X94375500Y-73000000D01*
X84546039Y-73000000D01*
X84479000Y-72980315D01*
X84433245Y-72927511D01*
X84423301Y-72858353D01*
X84444465Y-72804876D01*
X84533595Y-72677585D01*
X84533599Y-72677579D01*
X84633429Y-72463492D01*
X84633432Y-72463486D01*
X84690636Y-72250000D01*
X83793012Y-72250000D01*
X83825925Y-72192993D01*
X83860000Y-72065826D01*
X83860000Y-71934174D01*
X83825925Y-71807007D01*
X83793012Y-71750000D01*
X84690636Y-71750000D01*
X84690635Y-71749999D01*
X84633432Y-71536513D01*
X84633429Y-71536507D01*
X84616399Y-71499986D01*
X85400001Y-71499986D01*
X85410494Y-71602697D01*
X85465641Y-71769119D01*
X85465643Y-71769124D01*
X85557684Y-71918345D01*
X85681654Y-72042315D01*
X85830875Y-72134356D01*
X85830880Y-72134358D01*
X85997302Y-72189505D01*
X85997309Y-72189506D01*
X86100019Y-72199999D01*
X86224999Y-72199999D01*
X86225000Y-72199998D01*
X86225000Y-71250000D01*
X85400001Y-71250000D01*
X85400001Y-71499986D01*
X84616399Y-71499986D01*
X84533600Y-71322422D01*
X84533599Y-71322420D01*
X84398113Y-71128926D01*
X84398108Y-71128920D01*
X84231082Y-70961894D01*
X84037578Y-70826399D01*
X83823492Y-70726570D01*
X83823486Y-70726567D01*
X83610000Y-70669364D01*
X83610000Y-71566988D01*
X83552993Y-71534075D01*
X83425826Y-71500000D01*
X83294174Y-71500000D01*
X83167007Y-71534075D01*
X83110000Y-71566988D01*
X83110000Y-70669364D01*
X83109999Y-70669364D01*
X82896513Y-70726567D01*
X82896507Y-70726570D01*
X82682422Y-70826399D01*
X82682420Y-70826400D01*
X82488926Y-70961886D01*
X82488920Y-70961891D01*
X82321891Y-71128920D01*
X82321890Y-71128922D01*
X82191880Y-71314595D01*
X82137303Y-71358219D01*
X82067804Y-71365412D01*
X82005450Y-71333890D01*
X81988730Y-71314594D01*
X81858494Y-71128597D01*
X81691402Y-70961506D01*
X81691395Y-70961501D01*
X81686536Y-70958099D01*
X81614518Y-70907671D01*
X81497834Y-70825967D01*
X81497830Y-70825965D01*
X81434700Y-70796527D01*
X81283663Y-70726097D01*
X81283659Y-70726096D01*
X81283655Y-70726094D01*
X81055413Y-70664938D01*
X81055403Y-70664936D01*
X80820001Y-70644341D01*
X80819999Y-70644341D01*
X80584596Y-70664936D01*
X80584586Y-70664938D01*
X80484126Y-70691856D01*
X80414276Y-70690193D01*
X80364352Y-70659762D01*
X80204603Y-70500013D01*
X85400000Y-70500013D01*
X85400000Y-70750000D01*
X86225000Y-70750000D01*
X86225000Y-69800000D01*
X86100027Y-69800000D01*
X86100012Y-69800001D01*
X85997302Y-69810494D01*
X85830880Y-69865641D01*
X85830875Y-69865643D01*
X85681654Y-69957684D01*
X85557684Y-70081654D01*
X85465643Y-70230875D01*
X85465641Y-70230880D01*
X85410494Y-70397302D01*
X85410493Y-70397309D01*
X85400000Y-70500013D01*
X80204603Y-70500013D01*
X77581770Y-67877180D01*
X77548285Y-67815857D01*
X77553269Y-67746165D01*
X77595141Y-67690232D01*
X77660605Y-67665815D01*
X77669451Y-67665499D01*
X77872502Y-67665499D01*
X77872508Y-67665499D01*
X77975297Y-67654999D01*
X78141834Y-67599814D01*
X78291156Y-67507712D01*
X78415212Y-67383656D01*
X78417252Y-67380347D01*
X78419245Y-67378555D01*
X78419693Y-67377989D01*
X78419789Y-67378065D01*
X78469194Y-67333623D01*
X78538156Y-67322395D01*
X78602240Y-67350234D01*
X78628329Y-67380339D01*
X78630181Y-67383341D01*
X78630183Y-67383344D01*
X78754154Y-67507315D01*
X78903375Y-67599356D01*
X78903380Y-67599358D01*
X79069802Y-67654505D01*
X79069809Y-67654506D01*
X79172519Y-67664999D01*
X79309999Y-67664999D01*
X79810000Y-67664999D01*
X79947472Y-67664999D01*
X79947486Y-67664998D01*
X80050197Y-67654505D01*
X80216619Y-67599358D01*
X80216624Y-67599356D01*
X80365845Y-67507315D01*
X80489815Y-67383345D01*
X80581856Y-67234124D01*
X80581858Y-67234119D01*
X80637005Y-67067697D01*
X80637006Y-67067690D01*
X80647499Y-66964986D01*
X80647500Y-66964973D01*
X80647500Y-66690000D01*
X79810000Y-66690000D01*
X79810000Y-67664999D01*
X79309999Y-67664999D01*
X79310000Y-67664998D01*
X79310000Y-66190000D01*
X79810000Y-66190000D01*
X80647499Y-66190000D01*
X80647499Y-65915028D01*
X80647498Y-65915013D01*
X80637005Y-65812302D01*
X80581858Y-65645880D01*
X80581856Y-65645875D01*
X80489815Y-65496654D01*
X80365845Y-65372684D01*
X80216624Y-65280643D01*
X80216619Y-65280641D01*
X80050197Y-65225494D01*
X80050190Y-65225493D01*
X79947486Y-65215000D01*
X79810000Y-65215000D01*
X79810000Y-66190000D01*
X79310000Y-66190000D01*
X79310000Y-65215000D01*
X79172527Y-65215000D01*
X79172512Y-65215001D01*
X79069802Y-65225494D01*
X78903380Y-65280641D01*
X78903375Y-65280643D01*
X78754154Y-65372684D01*
X78630183Y-65496655D01*
X78630179Y-65496660D01*
X78628326Y-65499665D01*
X78626518Y-65501290D01*
X78625702Y-65502323D01*
X78625525Y-65502183D01*
X78576374Y-65546385D01*
X78507411Y-65557601D01*
X78443331Y-65529752D01*
X78417253Y-65499653D01*
X78417237Y-65499628D01*
X78415212Y-65496344D01*
X78291156Y-65372288D01*
X78198388Y-65315069D01*
X78141836Y-65280187D01*
X78141831Y-65280185D01*
X78140362Y-65279698D01*
X77975297Y-65225001D01*
X77975295Y-65225000D01*
X77872510Y-65214500D01*
X77097498Y-65214500D01*
X77097480Y-65214501D01*
X76994703Y-65225000D01*
X76994700Y-65225001D01*
X76828168Y-65280185D01*
X76828163Y-65280187D01*
X76678842Y-65372289D01*
X76554789Y-65496342D01*
X76462687Y-65645663D01*
X76462685Y-65645668D01*
X76434905Y-65729504D01*
X76395132Y-65786949D01*
X76330616Y-65813772D01*
X76317199Y-65814500D01*
X75640453Y-65814500D01*
X75573414Y-65794815D01*
X75552772Y-65778181D01*
X74411819Y-64637228D01*
X74378334Y-64575905D01*
X74375500Y-64549547D01*
X74375500Y-63999500D01*
X74395185Y-63932461D01*
X74447989Y-63886706D01*
X74499500Y-63875500D01*
X76225501Y-63875500D01*
X76292540Y-63895185D01*
X76338295Y-63947989D01*
X76349501Y-63999500D01*
X76349501Y-64170018D01*
X76360000Y-64272796D01*
X76360001Y-64272799D01*
X76413572Y-64434463D01*
X76415186Y-64439334D01*
X76507288Y-64588656D01*
X76631344Y-64712712D01*
X76780666Y-64804814D01*
X76947203Y-64859999D01*
X77049991Y-64870500D01*
X77850008Y-64870499D01*
X77850016Y-64870498D01*
X77850019Y-64870498D01*
X77909459Y-64864426D01*
X77952797Y-64859999D01*
X78119334Y-64804814D01*
X78268656Y-64712712D01*
X78362675Y-64618692D01*
X78423994Y-64585210D01*
X78493686Y-64590194D01*
X78538034Y-64618695D01*
X78631654Y-64712315D01*
X78780875Y-64804356D01*
X78780880Y-64804358D01*
X78947302Y-64859505D01*
X78947309Y-64859506D01*
X79050019Y-64869999D01*
X79199999Y-64869999D01*
X79700000Y-64869999D01*
X79849972Y-64869999D01*
X79849986Y-64869998D01*
X79952697Y-64859505D01*
X80119119Y-64804358D01*
X80119124Y-64804356D01*
X80268345Y-64712315D01*
X80392315Y-64588345D01*
X80484356Y-64439124D01*
X80484358Y-64439119D01*
X80539505Y-64272697D01*
X80539506Y-64272690D01*
X80549999Y-64169986D01*
X80550000Y-64169973D01*
X80550000Y-63920000D01*
X79700000Y-63920000D01*
X79700000Y-64869999D01*
X79199999Y-64869999D01*
X79200000Y-64869998D01*
X79200000Y-63420000D01*
X79700000Y-63420000D01*
X80549999Y-63420000D01*
X80549999Y-63170028D01*
X80549998Y-63170013D01*
X80539505Y-63067302D01*
X80484358Y-62900880D01*
X80484356Y-62900875D01*
X80392315Y-62751654D01*
X80268345Y-62627684D01*
X80119124Y-62535643D01*
X80119119Y-62535641D01*
X79952697Y-62480494D01*
X79952690Y-62480493D01*
X79849986Y-62470000D01*
X79700000Y-62470000D01*
X79700000Y-63420000D01*
X79200000Y-63420000D01*
X79200000Y-62470000D01*
X79050027Y-62470000D01*
X79050012Y-62470001D01*
X78947302Y-62480494D01*
X78780880Y-62535641D01*
X78780875Y-62535643D01*
X78631657Y-62627682D01*
X78538034Y-62721305D01*
X78476710Y-62754789D01*
X78407019Y-62749805D01*
X78362672Y-62721304D01*
X78268657Y-62627289D01*
X78268656Y-62627288D01*
X78145466Y-62551304D01*
X78119336Y-62535187D01*
X78119331Y-62535185D01*
X77971037Y-62486045D01*
X77913592Y-62446272D01*
X77886769Y-62381756D01*
X77899084Y-62312980D01*
X77908041Y-62299179D01*
X77907473Y-62298799D01*
X77917266Y-62284143D01*
X77964110Y-62214036D01*
X77979312Y-62191285D01*
X78011663Y-62113182D01*
X78026463Y-62077452D01*
X78026464Y-62077446D01*
X78028793Y-62071824D01*
X78030891Y-62072693D01*
X78063622Y-62022738D01*
X78078900Y-62011623D01*
X78081831Y-62009814D01*
X78081834Y-62009814D01*
X78231156Y-61917712D01*
X78355212Y-61793656D01*
X78357252Y-61790347D01*
X78359245Y-61788555D01*
X78359693Y-61787989D01*
X78359789Y-61788065D01*
X78409194Y-61743623D01*
X78478156Y-61732395D01*
X78542240Y-61760234D01*
X78568329Y-61790339D01*
X78570181Y-61793341D01*
X78570183Y-61793344D01*
X78694154Y-61917315D01*
X78843375Y-62009356D01*
X78843380Y-62009358D01*
X79009802Y-62064505D01*
X79009809Y-62064506D01*
X79112519Y-62074999D01*
X79249999Y-62074999D01*
X79750000Y-62074999D01*
X79887472Y-62074999D01*
X79887486Y-62074998D01*
X79990197Y-62064505D01*
X80156619Y-62009358D01*
X80156624Y-62009356D01*
X80305845Y-61917315D01*
X80429815Y-61793345D01*
X80521856Y-61644124D01*
X80521858Y-61644119D01*
X80577005Y-61477697D01*
X80577006Y-61477690D01*
X80587499Y-61374986D01*
X80587500Y-61374973D01*
X80587500Y-61100000D01*
X79750000Y-61100000D01*
X79750000Y-62074999D01*
X79249999Y-62074999D01*
X79250000Y-62074998D01*
X79250000Y-59625000D01*
X79112527Y-59625000D01*
X79112512Y-59625001D01*
X79009802Y-59635494D01*
X78843380Y-59690641D01*
X78843375Y-59690643D01*
X78694154Y-59782684D01*
X78570183Y-59906655D01*
X78570179Y-59906660D01*
X78568326Y-59909665D01*
X78566518Y-59911290D01*
X78565702Y-59912323D01*
X78565525Y-59912183D01*
X78516374Y-59956385D01*
X78447411Y-59967601D01*
X78383331Y-59939752D01*
X78357253Y-59909653D01*
X78357237Y-59909628D01*
X78355212Y-59906344D01*
X78231156Y-59782288D01*
X78137562Y-59724559D01*
X78081836Y-59690187D01*
X78081831Y-59690185D01*
X78068441Y-59685748D01*
X77915297Y-59635001D01*
X77915295Y-59635000D01*
X77812510Y-59624500D01*
X77037498Y-59624500D01*
X77037480Y-59624501D01*
X76934703Y-59635000D01*
X76934700Y-59635001D01*
X76768168Y-59690185D01*
X76768163Y-59690187D01*
X76712438Y-59724559D01*
X76618844Y-59782288D01*
X76618842Y-59782289D01*
X76618840Y-59782291D01*
X76590093Y-59811037D01*
X76528769Y-59844520D01*
X76461460Y-59840395D01*
X76359244Y-59804628D01*
X76358645Y-59804492D01*
X76358297Y-59804297D01*
X76352683Y-59802333D01*
X76353027Y-59801349D01*
X76297670Y-59770378D01*
X76269208Y-59724559D01*
X76225790Y-59600480D01*
X76206960Y-59570512D01*
X76129816Y-59447738D01*
X76035349Y-59353271D01*
X76001864Y-59291948D01*
X76005988Y-59224636D01*
X76025368Y-59169255D01*
X76025369Y-59169249D01*
X76045565Y-58990003D01*
X76045565Y-58989997D01*
X76028482Y-58838383D01*
X76040536Y-58769561D01*
X76087885Y-58718181D01*
X76151698Y-58700499D01*
X76900008Y-58700499D01*
X76900016Y-58700498D01*
X76900019Y-58700498D01*
X76956302Y-58694748D01*
X77002797Y-58689999D01*
X77169334Y-58634814D01*
X77318656Y-58542712D01*
X77412319Y-58449049D01*
X77473642Y-58415564D01*
X77543334Y-58420548D01*
X77587681Y-58449049D01*
X77681344Y-58542712D01*
X77830666Y-58634814D01*
X77997203Y-58689999D01*
X78099991Y-58700500D01*
X78764547Y-58700499D01*
X78831586Y-58720183D01*
X78852228Y-58736818D01*
X79713681Y-59598271D01*
X79747166Y-59659594D01*
X79750000Y-59685952D01*
X79750000Y-60600000D01*
X80587499Y-60600000D01*
X80587499Y-60325028D01*
X80587498Y-60325013D01*
X80577006Y-60222304D01*
X80575747Y-60218505D01*
X80575661Y-60216019D01*
X80575589Y-60215681D01*
X80575649Y-60215668D01*
X80573345Y-60148677D01*
X80609076Y-60088634D01*
X80671596Y-60057441D01*
X80693453Y-60055500D01*
X87581608Y-60055500D01*
X87581608Y-60055499D01*
X87648160Y-60042262D01*
X87648161Y-60042262D01*
X87661825Y-60039543D01*
X87702452Y-60031463D01*
X87744266Y-60014143D01*
X87816286Y-59984312D01*
X87883350Y-59939500D01*
X87918733Y-59915858D01*
X88005858Y-59828733D01*
X88005859Y-59828731D01*
X88012925Y-59821665D01*
X88012928Y-59821661D01*
X89088729Y-58745860D01*
X89088733Y-58745858D01*
X89175858Y-58658733D01*
X89238521Y-58564952D01*
X89244312Y-58556285D01*
X89291463Y-58442451D01*
X89315500Y-58321607D01*
X89315500Y-58198393D01*
X89315500Y-55653516D01*
X89335185Y-55586477D01*
X89387989Y-55540722D01*
X89452106Y-55530158D01*
X89475023Y-55532499D01*
X89749999Y-55532499D01*
X89750000Y-55532498D01*
X89750000Y-54319000D01*
X89769685Y-54251961D01*
X89822489Y-54206206D01*
X89874000Y-54195000D01*
X90126000Y-54195000D01*
X90193039Y-54214685D01*
G37*
%TD.AperFunction*%
%TA.AperFunction,Conductor*%
G36*
X65453033Y-53245185D02*
G01*
X65473675Y-53261819D01*
X65713181Y-53501325D01*
X65746666Y-53562648D01*
X65749500Y-53589006D01*
X65749500Y-54975017D01*
X65760000Y-55077796D01*
X65815185Y-55244332D01*
X65815187Y-55244337D01*
X65844497Y-55291855D01*
X65907288Y-55393656D01*
X66031344Y-55517712D01*
X66180665Y-55609814D01*
X66347202Y-55664999D01*
X66449990Y-55675500D01*
X66449995Y-55675500D01*
X67450005Y-55675500D01*
X67450010Y-55675500D01*
X67552798Y-55664999D01*
X67719335Y-55609814D01*
X67868656Y-55517712D01*
X67888206Y-55498162D01*
X67949528Y-55464675D01*
X68019220Y-55469658D01*
X68063567Y-55498158D01*
X68172029Y-55606619D01*
X68313181Y-55747771D01*
X68346666Y-55809094D01*
X68349500Y-55835452D01*
X68349500Y-59176000D01*
X68329815Y-59243039D01*
X68277011Y-59288794D01*
X68256811Y-59293188D01*
X68250000Y-59300000D01*
X68250000Y-61699999D01*
X68399972Y-61699999D01*
X68399986Y-61699998D01*
X68502697Y-61689505D01*
X68669119Y-61634358D01*
X68669124Y-61634356D01*
X68818345Y-61542315D01*
X68942315Y-61418345D01*
X69034356Y-61269124D01*
X69034359Y-61269117D01*
X69090634Y-61099289D01*
X69130406Y-61041844D01*
X69194922Y-61015020D01*
X69263698Y-61027335D01*
X69296021Y-61050611D01*
X69391016Y-61145606D01*
X69391045Y-61145637D01*
X69481263Y-61235855D01*
X69481271Y-61235861D01*
X69531053Y-61269124D01*
X69583714Y-61304311D01*
X69583717Y-61304312D01*
X69589092Y-61307186D01*
X69588132Y-61308981D01*
X69635281Y-61346981D01*
X69656360Y-61401512D01*
X69663989Y-61459468D01*
X69666094Y-61467322D01*
X69663010Y-61468148D01*
X69668849Y-61522737D01*
X69666004Y-61532689D01*
X69666572Y-61532842D01*
X69666105Y-61534583D01*
X69664896Y-61536564D01*
X69662088Y-61546390D01*
X69662063Y-61546453D01*
X69659488Y-61545431D01*
X69629724Y-61594233D01*
X69570532Y-61624074D01*
X69539571Y-61630232D01*
X69516540Y-61634814D01*
X69461270Y-61645807D01*
X69447547Y-61648537D01*
X69426380Y-61657305D01*
X69426379Y-61657304D01*
X69333718Y-61695685D01*
X69333714Y-61695687D01*
X69306255Y-61714036D01*
X69291770Y-61723715D01*
X69231268Y-61764140D01*
X69209445Y-61785964D01*
X69144142Y-61851267D01*
X68711270Y-62284139D01*
X68711264Y-62284143D01*
X68711265Y-62284144D01*
X68693642Y-62301766D01*
X68632318Y-62335249D01*
X68566960Y-62331788D01*
X68502698Y-62310494D01*
X68399986Y-62300000D01*
X68250000Y-62300000D01*
X68250000Y-63626000D01*
X68230315Y-63693039D01*
X68177511Y-63738794D01*
X68126000Y-63750000D01*
X67874000Y-63750000D01*
X67806961Y-63730315D01*
X67761206Y-63677511D01*
X67750000Y-63626000D01*
X67750000Y-62300000D01*
X67600027Y-62300000D01*
X67600012Y-62300001D01*
X67497302Y-62310494D01*
X67330880Y-62365641D01*
X67330875Y-62365643D01*
X67181657Y-62457682D01*
X67088034Y-62551305D01*
X67026710Y-62584789D01*
X66957019Y-62579805D01*
X66912672Y-62551304D01*
X66818657Y-62457289D01*
X66818656Y-62457288D01*
X66725888Y-62400069D01*
X66669336Y-62365187D01*
X66669331Y-62365185D01*
X66621695Y-62349400D01*
X66502797Y-62310001D01*
X66502795Y-62310000D01*
X66400010Y-62299500D01*
X65599998Y-62299500D01*
X65599980Y-62299501D01*
X65497203Y-62310000D01*
X65497200Y-62310001D01*
X65330668Y-62365185D01*
X65330663Y-62365187D01*
X65181342Y-62457289D01*
X65057289Y-62581342D01*
X64965187Y-62730663D01*
X64965186Y-62730666D01*
X64951403Y-62772262D01*
X64945689Y-62789505D01*
X64905916Y-62846949D01*
X64841400Y-62873772D01*
X64827983Y-62874500D01*
X64459937Y-62874500D01*
X64392898Y-62854815D01*
X64347143Y-62802011D01*
X64337199Y-62732853D01*
X64354943Y-62684528D01*
X64376261Y-62650600D01*
X64395789Y-62619522D01*
X64455368Y-62449255D01*
X64455704Y-62446272D01*
X64475565Y-62270003D01*
X64475565Y-62269996D01*
X64455369Y-62090750D01*
X64455368Y-62090745D01*
X64423615Y-62000000D01*
X64395789Y-61920478D01*
X64299816Y-61767738D01*
X64172262Y-61640184D01*
X64019522Y-61544211D01*
X63986117Y-61532522D01*
X63869003Y-61491542D01*
X63812227Y-61450820D01*
X63786480Y-61385867D01*
X63799936Y-61317305D01*
X63848324Y-61266903D01*
X63909958Y-61250500D01*
X64247060Y-61250500D01*
X64314099Y-61270185D01*
X64334741Y-61286819D01*
X64417738Y-61369816D01*
X64426003Y-61375009D01*
X64560424Y-61459472D01*
X64570478Y-61465789D01*
X64692782Y-61508585D01*
X64740745Y-61525368D01*
X64740750Y-61525369D01*
X64919996Y-61545565D01*
X64920000Y-61545565D01*
X64920004Y-61545565D01*
X65102347Y-61525020D01*
X65171168Y-61537074D01*
X65181327Y-61542701D01*
X65181342Y-61542710D01*
X65181344Y-61542712D01*
X65330666Y-61634814D01*
X65497203Y-61689999D01*
X65599991Y-61700500D01*
X66400008Y-61700499D01*
X66400016Y-61700498D01*
X66400019Y-61700498D01*
X66473487Y-61692993D01*
X66502797Y-61689999D01*
X66669334Y-61634814D01*
X66818656Y-61542712D01*
X66912675Y-61448692D01*
X66973994Y-61415210D01*
X67043686Y-61420194D01*
X67088034Y-61448695D01*
X67181654Y-61542315D01*
X67330875Y-61634356D01*
X67330880Y-61634358D01*
X67497302Y-61689505D01*
X67497309Y-61689506D01*
X67600019Y-61699999D01*
X67749999Y-61699999D01*
X67750000Y-61699998D01*
X67750000Y-59300000D01*
X67600027Y-59300000D01*
X67600012Y-59300001D01*
X67497302Y-59310494D01*
X67330880Y-59365641D01*
X67330875Y-59365643D01*
X67181657Y-59457682D01*
X67088034Y-59551305D01*
X67026710Y-59584789D01*
X66957019Y-59579805D01*
X66912672Y-59551304D01*
X66818657Y-59457289D01*
X66818656Y-59457288D01*
X66669334Y-59365186D01*
X66502797Y-59310001D01*
X66502795Y-59310000D01*
X66400010Y-59299500D01*
X65599998Y-59299500D01*
X65599980Y-59299501D01*
X65497203Y-59310000D01*
X65497200Y-59310001D01*
X65330668Y-59365185D01*
X65330663Y-59365187D01*
X65181342Y-59457289D01*
X65057289Y-59581342D01*
X64965187Y-59730663D01*
X64965186Y-59730666D01*
X64921759Y-59861718D01*
X64881986Y-59919163D01*
X64817938Y-59945933D01*
X64740747Y-59954631D01*
X64686212Y-59973714D01*
X64632477Y-59992517D01*
X64632408Y-59992541D01*
X64591453Y-59999500D01*
X62138857Y-59999500D01*
X62138837Y-59999499D01*
X62132723Y-59999499D01*
X62009510Y-59999499D01*
X61908713Y-60019548D01*
X61908708Y-60019548D01*
X61888664Y-60023536D01*
X61888661Y-60023537D01*
X61859329Y-60035688D01*
X61859327Y-60035689D01*
X61774827Y-60070689D01*
X61774825Y-60070690D01*
X61725573Y-60103601D01*
X61658896Y-60124480D01*
X61656681Y-60124500D01*
X61391106Y-60124500D01*
X61324067Y-60104815D01*
X61278312Y-60052011D01*
X61268368Y-59982853D01*
X61276545Y-59953048D01*
X61335367Y-59811037D01*
X61341855Y-59795374D01*
X61375500Y-59626229D01*
X61375500Y-56420635D01*
X61367126Y-56378537D01*
X61364470Y-56365186D01*
X61349829Y-56291578D01*
X61341856Y-56251491D01*
X61324234Y-56208949D01*
X61316766Y-56139484D01*
X61348040Y-56077004D01*
X61408129Y-56041351D01*
X61438796Y-56037499D01*
X61524972Y-56037499D01*
X61524986Y-56037498D01*
X61627697Y-56027005D01*
X61794119Y-55971858D01*
X61794124Y-55971856D01*
X61849846Y-55937486D01*
X62600001Y-55937486D01*
X62610494Y-56040197D01*
X62665641Y-56206619D01*
X62665643Y-56206624D01*
X62757684Y-56355845D01*
X62881654Y-56479815D01*
X63030875Y-56571856D01*
X63030880Y-56571858D01*
X63197302Y-56627005D01*
X63197309Y-56627006D01*
X63300019Y-56637499D01*
X63749999Y-56637499D01*
X64250000Y-56637499D01*
X64699972Y-56637499D01*
X64699986Y-56637498D01*
X64802697Y-56627005D01*
X64969119Y-56571858D01*
X64969124Y-56571856D01*
X65118345Y-56479815D01*
X65242315Y-56355845D01*
X65334356Y-56206624D01*
X65334358Y-56206619D01*
X65389505Y-56040197D01*
X65389506Y-56040190D01*
X65399999Y-55937486D01*
X65400000Y-55937473D01*
X65400000Y-55725000D01*
X64250000Y-55725000D01*
X64250000Y-56637499D01*
X63749999Y-56637499D01*
X63750000Y-56637498D01*
X63750000Y-55725000D01*
X62600001Y-55725000D01*
X62600001Y-55937486D01*
X61849846Y-55937486D01*
X61943345Y-55879815D01*
X62067315Y-55755845D01*
X62159356Y-55606624D01*
X62159358Y-55606619D01*
X62214505Y-55440197D01*
X62214506Y-55440190D01*
X62224999Y-55337486D01*
X62225000Y-55337473D01*
X62225000Y-55200000D01*
X60874000Y-55200000D01*
X60806961Y-55180315D01*
X60761206Y-55127511D01*
X60750000Y-55076000D01*
X60750000Y-55012513D01*
X62600000Y-55012513D01*
X62600000Y-55225000D01*
X63750000Y-55225000D01*
X64250000Y-55225000D01*
X65399999Y-55225000D01*
X65399999Y-55012528D01*
X65399998Y-55012513D01*
X65389505Y-54909802D01*
X65334358Y-54743380D01*
X65334356Y-54743375D01*
X65242315Y-54594154D01*
X65118345Y-54470184D01*
X64969124Y-54378143D01*
X64969119Y-54378141D01*
X64802697Y-54322994D01*
X64802690Y-54322993D01*
X64699986Y-54312500D01*
X64250000Y-54312500D01*
X64250000Y-55225000D01*
X63750000Y-55225000D01*
X63750000Y-54312500D01*
X63300028Y-54312500D01*
X63300012Y-54312501D01*
X63197302Y-54322994D01*
X63030880Y-54378141D01*
X63030875Y-54378143D01*
X62881654Y-54470184D01*
X62757684Y-54594154D01*
X62665643Y-54743375D01*
X62665641Y-54743380D01*
X62610494Y-54909802D01*
X62610493Y-54909809D01*
X62600000Y-55012513D01*
X60750000Y-55012513D01*
X60750000Y-54824000D01*
X60769685Y-54756961D01*
X60822489Y-54711206D01*
X60874000Y-54700000D01*
X62224999Y-54700000D01*
X62224999Y-54562528D01*
X62224998Y-54562513D01*
X62214505Y-54459802D01*
X62159358Y-54293380D01*
X62159356Y-54293375D01*
X62067315Y-54144154D01*
X61943344Y-54020183D01*
X61943341Y-54020181D01*
X61940339Y-54018329D01*
X61938713Y-54016521D01*
X61937677Y-54015702D01*
X61937817Y-54015524D01*
X61893617Y-53966380D01*
X61882397Y-53897417D01*
X61910243Y-53833336D01*
X61940344Y-53807254D01*
X61943656Y-53805212D01*
X61962049Y-53786819D01*
X62023372Y-53753334D01*
X62049730Y-53750500D01*
X63561231Y-53750500D01*
X63561232Y-53750499D01*
X63730374Y-53716855D01*
X63853604Y-53665811D01*
X63889698Y-53650861D01*
X63889698Y-53650860D01*
X63889705Y-53650858D01*
X64033099Y-53555045D01*
X64033520Y-53554624D01*
X64038827Y-53549318D01*
X64100150Y-53515833D01*
X64126508Y-53512999D01*
X64700002Y-53512999D01*
X64700008Y-53512999D01*
X64802797Y-53502499D01*
X64969334Y-53447314D01*
X65118656Y-53355212D01*
X65212049Y-53261819D01*
X65273372Y-53228334D01*
X65299730Y-53225500D01*
X65385994Y-53225500D01*
X65453033Y-53245185D01*
G37*
%TD.AperFunction*%
%TA.AperFunction,Conductor*%
G36*
X73032514Y-60959501D02*
G01*
X73032674Y-60958905D01*
X73040524Y-60961008D01*
X73040526Y-60961008D01*
X73040528Y-60961009D01*
X73150599Y-60975500D01*
X73349400Y-60975499D01*
X73390830Y-60970045D01*
X73459866Y-60980811D01*
X73512121Y-61027191D01*
X73531006Y-61094460D01*
X73529954Y-61109169D01*
X73524500Y-61150597D01*
X73524500Y-61349403D01*
X73538989Y-61459468D01*
X73541094Y-61467322D01*
X73537814Y-61468200D01*
X73543581Y-61522073D01*
X73540517Y-61532522D01*
X73541095Y-61532677D01*
X73538990Y-61540529D01*
X73524500Y-61650598D01*
X73524500Y-61849403D01*
X73538989Y-61959468D01*
X73541094Y-61967322D01*
X73537814Y-61968200D01*
X73543581Y-62022073D01*
X73540517Y-62032522D01*
X73541095Y-62032677D01*
X73538990Y-62040529D01*
X73524500Y-62150598D01*
X73524500Y-62349403D01*
X73538989Y-62459468D01*
X73541094Y-62467322D01*
X73537814Y-62468200D01*
X73543581Y-62522073D01*
X73540517Y-62532522D01*
X73541095Y-62532677D01*
X73538990Y-62540529D01*
X73524500Y-62650598D01*
X73524500Y-62849396D01*
X73529955Y-62890833D01*
X73519187Y-62959868D01*
X73472806Y-63012123D01*
X73405536Y-63031006D01*
X73390830Y-63029954D01*
X73349401Y-63024500D01*
X73150596Y-63024500D01*
X73040531Y-63038989D01*
X73032678Y-63041094D01*
X73031802Y-63037824D01*
X72977853Y-63043567D01*
X72967477Y-63040518D01*
X72967323Y-63041095D01*
X72959470Y-63038990D01*
X72849401Y-63024500D01*
X72650596Y-63024500D01*
X72540531Y-63038989D01*
X72532678Y-63041094D01*
X72531802Y-63037824D01*
X72477853Y-63043567D01*
X72467477Y-63040518D01*
X72467323Y-63041095D01*
X72459470Y-63038990D01*
X72349401Y-63024500D01*
X72150596Y-63024500D01*
X72040531Y-63038989D01*
X72032678Y-63041094D01*
X72031802Y-63037824D01*
X71977853Y-63043567D01*
X71967477Y-63040518D01*
X71967323Y-63041095D01*
X71959470Y-63038990D01*
X71849401Y-63024500D01*
X71650603Y-63024500D01*
X71609166Y-63029955D01*
X71540131Y-63019187D01*
X71487876Y-62972805D01*
X71468993Y-62905536D01*
X71470045Y-62890833D01*
X71475500Y-62849401D01*
X71475499Y-62650600D01*
X71461009Y-62540528D01*
X71461008Y-62540525D01*
X71458905Y-62532674D01*
X71462207Y-62531789D01*
X71456392Y-62478075D01*
X71459501Y-62467485D01*
X71458905Y-62467326D01*
X71461008Y-62459475D01*
X71461008Y-62459474D01*
X71461009Y-62459472D01*
X71475500Y-62349401D01*
X71475499Y-62150600D01*
X71475499Y-62150598D01*
X71475499Y-62150596D01*
X71461011Y-62040536D01*
X71458906Y-62032682D01*
X71462007Y-62031850D01*
X71456128Y-61977382D01*
X71459147Y-61967389D01*
X71458418Y-61967194D01*
X71460521Y-61959342D01*
X71471626Y-61875000D01*
X71443506Y-61875000D01*
X71376467Y-61855315D01*
X71345115Y-61826466D01*
X71344348Y-61825466D01*
X71319167Y-61760292D01*
X71333219Y-61691850D01*
X71344348Y-61674534D01*
X71345115Y-61673534D01*
X71401534Y-61632319D01*
X71443506Y-61625000D01*
X71471626Y-61625000D01*
X71460521Y-61540659D01*
X71458418Y-61532807D01*
X71462041Y-61531835D01*
X71455919Y-61479884D01*
X71459495Y-61467484D01*
X71458905Y-61467326D01*
X71461008Y-61459475D01*
X71461008Y-61459474D01*
X71461009Y-61459472D01*
X71475500Y-61349401D01*
X71475499Y-61150600D01*
X71470045Y-61109168D01*
X71480811Y-61040133D01*
X71527192Y-60987878D01*
X71594461Y-60968993D01*
X71609155Y-60970043D01*
X71650599Y-60975500D01*
X71849400Y-60975499D01*
X71849401Y-60975499D01*
X71866087Y-60973302D01*
X71959472Y-60961009D01*
X71959475Y-60961007D01*
X71967326Y-60958905D01*
X71968210Y-60962207D01*
X72021925Y-60956392D01*
X72032514Y-60959501D01*
X72032674Y-60958905D01*
X72040524Y-60961008D01*
X72040526Y-60961008D01*
X72040528Y-60961009D01*
X72150599Y-60975500D01*
X72349400Y-60975499D01*
X72349401Y-60975499D01*
X72366087Y-60973302D01*
X72459472Y-60961009D01*
X72459475Y-60961007D01*
X72467326Y-60958905D01*
X72468210Y-60962207D01*
X72521925Y-60956392D01*
X72532514Y-60959501D01*
X72532674Y-60958905D01*
X72540524Y-60961008D01*
X72540526Y-60961008D01*
X72540528Y-60961009D01*
X72650599Y-60975500D01*
X72849400Y-60975499D01*
X72849401Y-60975499D01*
X72866087Y-60973302D01*
X72959472Y-60961009D01*
X72959475Y-60961007D01*
X72967326Y-60958905D01*
X72968210Y-60962207D01*
X73021925Y-60956392D01*
X73032514Y-60959501D01*
G37*
%TD.AperFunction*%
%TA.AperFunction,Conductor*%
G36*
X85992804Y-53443961D02*
G01*
X86030659Y-53467310D01*
X86030660Y-53467310D01*
X86030666Y-53467314D01*
X86197203Y-53522499D01*
X86299991Y-53533000D01*
X87700008Y-53532999D01*
X87802797Y-53522499D01*
X87901497Y-53489792D01*
X87971324Y-53487391D01*
X88031366Y-53523122D01*
X88062559Y-53585643D01*
X88064500Y-53607499D01*
X88064500Y-54258027D01*
X88044815Y-54325066D01*
X87992011Y-54370821D01*
X87922853Y-54380765D01*
X87901497Y-54375733D01*
X87802700Y-54342995D01*
X87802690Y-54342993D01*
X87699986Y-54332500D01*
X87250000Y-54332500D01*
X87250000Y-56657499D01*
X87699972Y-56657499D01*
X87699986Y-56657498D01*
X87802695Y-56647006D01*
X87901495Y-56614266D01*
X87971323Y-56611864D01*
X88031365Y-56647595D01*
X88062558Y-56710115D01*
X88064500Y-56731972D01*
X88064500Y-57949548D01*
X88044815Y-58016587D01*
X88028181Y-58037229D01*
X87297229Y-58768181D01*
X87235906Y-58801666D01*
X87209548Y-58804500D01*
X84331468Y-58804500D01*
X84264429Y-58784815D01*
X84218674Y-58732011D01*
X84208730Y-58662853D01*
X84237755Y-58599297D01*
X84266369Y-58574962D01*
X84318656Y-58542712D01*
X84442712Y-58418656D01*
X84534814Y-58269334D01*
X84589999Y-58102797D01*
X84600500Y-58000009D01*
X84600499Y-56999992D01*
X84589999Y-56897203D01*
X84534814Y-56730666D01*
X84442712Y-56581344D01*
X84318656Y-56457288D01*
X84200665Y-56384511D01*
X84153941Y-56332563D01*
X84142718Y-56263600D01*
X84160767Y-56213002D01*
X84225789Y-56109522D01*
X84278989Y-55957486D01*
X85600001Y-55957486D01*
X85610494Y-56060197D01*
X85665641Y-56226619D01*
X85665643Y-56226624D01*
X85757684Y-56375845D01*
X85881654Y-56499815D01*
X86030875Y-56591856D01*
X86030880Y-56591858D01*
X86197302Y-56647005D01*
X86197309Y-56647006D01*
X86300019Y-56657499D01*
X86749999Y-56657499D01*
X86750000Y-56657498D01*
X86750000Y-55745000D01*
X85600001Y-55745000D01*
X85600001Y-55957486D01*
X84278989Y-55957486D01*
X84285368Y-55939255D01*
X84285369Y-55939249D01*
X84305565Y-55760003D01*
X84305565Y-55759996D01*
X84285369Y-55580750D01*
X84285368Y-55580745D01*
X84225788Y-55410475D01*
X84211539Y-55387799D01*
X84192538Y-55320563D01*
X84212905Y-55253727D01*
X84266172Y-55208513D01*
X84281939Y-55202749D01*
X84282252Y-55202657D01*
X84285398Y-55201744D01*
X84426865Y-55118081D01*
X84512433Y-55032513D01*
X85600000Y-55032513D01*
X85600000Y-55245000D01*
X86750000Y-55245000D01*
X86750000Y-54332500D01*
X86300028Y-54332500D01*
X86300012Y-54332501D01*
X86197302Y-54342994D01*
X86030880Y-54398141D01*
X86030875Y-54398143D01*
X85881654Y-54490184D01*
X85757684Y-54614154D01*
X85665643Y-54763375D01*
X85665641Y-54763380D01*
X85610494Y-54929802D01*
X85610493Y-54929809D01*
X85600000Y-55032513D01*
X84512433Y-55032513D01*
X84543081Y-55001865D01*
X84626744Y-54860398D01*
X84672598Y-54702569D01*
X84675500Y-54665694D01*
X84675500Y-54234306D01*
X84672598Y-54197431D01*
X84657119Y-54144154D01*
X84626745Y-54039606D01*
X84626744Y-54039603D01*
X84626744Y-54039602D01*
X84543081Y-53898135D01*
X84543079Y-53898133D01*
X84543076Y-53898129D01*
X84426870Y-53781923D01*
X84426862Y-53781917D01*
X84285396Y-53698255D01*
X84285393Y-53698254D01*
X84183241Y-53668576D01*
X84124355Y-53630970D01*
X84095149Y-53567497D01*
X84104895Y-53498311D01*
X84150499Y-53445376D01*
X84217482Y-53425501D01*
X84217836Y-53425500D01*
X85927708Y-53425500D01*
X85992804Y-53443961D01*
G37*
%TD.AperFunction*%
%TA.AperFunction,Conductor*%
G36*
X70987930Y-57256277D02*
G01*
X71032278Y-57284778D01*
X71037500Y-57290000D01*
X72251000Y-57290000D01*
X72318039Y-57309685D01*
X72363794Y-57362489D01*
X72375000Y-57414000D01*
X72375000Y-57666000D01*
X72355315Y-57733039D01*
X72302511Y-57778794D01*
X72251000Y-57790000D01*
X71037501Y-57790000D01*
X71037501Y-57958942D01*
X71017816Y-58025981D01*
X70965012Y-58071736D01*
X70895854Y-58081680D01*
X70832298Y-58052655D01*
X70825820Y-58046623D01*
X70731819Y-57952622D01*
X70698334Y-57891299D01*
X70695500Y-57864941D01*
X70695500Y-57497557D01*
X70715185Y-57430518D01*
X70731809Y-57409886D01*
X70856921Y-57284774D01*
X70918238Y-57251293D01*
X70987930Y-57256277D01*
G37*
%TD.AperFunction*%
%TD*%
M02*
