%TF.GenerationSoftware,KiCad,Pcbnew,8.0.4*%
%TF.CreationDate,2025-01-04T18:23:54+00:00*%
%TF.ProjectId,ap3372s_usbpd,61703333-3732-4735-9f75-736270642e6b,rev?*%
%TF.SameCoordinates,Original*%
%TF.FileFunction,Copper,L1,Top*%
%TF.FilePolarity,Positive*%
%FSLAX46Y46*%
G04 Gerber Fmt 4.6, Leading zero omitted, Abs format (unit mm)*
G04 Created by KiCad (PCBNEW 8.0.4) date 2025-01-04 18:23:54*
%MOMM*%
%LPD*%
G01*
G04 APERTURE LIST*
G04 Aperture macros list*
%AMRoundRect*
0 Rectangle with rounded corners*
0 $1 Rounding radius*
0 $2 $3 $4 $5 $6 $7 $8 $9 X,Y pos of 4 corners*
0 Add a 4 corners polygon primitive as box body*
4,1,4,$2,$3,$4,$5,$6,$7,$8,$9,$2,$3,0*
0 Add four circle primitives for the rounded corners*
1,1,$1+$1,$2,$3*
1,1,$1+$1,$4,$5*
1,1,$1+$1,$6,$7*
1,1,$1+$1,$8,$9*
0 Add four rect primitives between the rounded corners*
20,1,$1+$1,$2,$3,$4,$5,0*
20,1,$1+$1,$4,$5,$6,$7,0*
20,1,$1+$1,$6,$7,$8,$9,0*
20,1,$1+$1,$8,$9,$2,$3,0*%
G04 Aperture macros list end*
%TA.AperFunction,ComponentPad*%
%ADD10R,1.700000X1.700000*%
%TD*%
%TA.AperFunction,ComponentPad*%
%ADD11O,1.700000X1.700000*%
%TD*%
%TA.AperFunction,SMDPad,CuDef*%
%ADD12RoundRect,0.150000X-0.587500X-0.150000X0.587500X-0.150000X0.587500X0.150000X-0.587500X0.150000X0*%
%TD*%
%TA.AperFunction,SMDPad,CuDef*%
%ADD13RoundRect,0.250000X0.650000X-0.412500X0.650000X0.412500X-0.650000X0.412500X-0.650000X-0.412500X0*%
%TD*%
%TA.AperFunction,SMDPad,CuDef*%
%ADD14RoundRect,0.250000X0.475000X-0.337500X0.475000X0.337500X-0.475000X0.337500X-0.475000X-0.337500X0*%
%TD*%
%TA.AperFunction,SMDPad,CuDef*%
%ADD15RoundRect,0.250000X0.350000X0.450000X-0.350000X0.450000X-0.350000X-0.450000X0.350000X-0.450000X0*%
%TD*%
%TA.AperFunction,SMDPad,CuDef*%
%ADD16RoundRect,0.250000X0.325000X0.450000X-0.325000X0.450000X-0.325000X-0.450000X0.325000X-0.450000X0*%
%TD*%
%TA.AperFunction,SMDPad,CuDef*%
%ADD17RoundRect,0.250000X-0.350000X-0.450000X0.350000X-0.450000X0.350000X0.450000X-0.350000X0.450000X0*%
%TD*%
%TA.AperFunction,SMDPad,CuDef*%
%ADD18RoundRect,0.250000X-0.337500X-0.475000X0.337500X-0.475000X0.337500X0.475000X-0.337500X0.475000X0*%
%TD*%
%TA.AperFunction,SMDPad,CuDef*%
%ADD19RoundRect,0.249999X0.450001X1.425001X-0.450001X1.425001X-0.450001X-1.425001X0.450001X-1.425001X0*%
%TD*%
%TA.AperFunction,SMDPad,CuDef*%
%ADD20RoundRect,0.250000X0.337500X0.475000X-0.337500X0.475000X-0.337500X-0.475000X0.337500X-0.475000X0*%
%TD*%
%TA.AperFunction,SMDPad,CuDef*%
%ADD21RoundRect,0.150000X0.587500X0.150000X-0.587500X0.150000X-0.587500X-0.150000X0.587500X-0.150000X0*%
%TD*%
%TA.AperFunction,SMDPad,CuDef*%
%ADD22RoundRect,0.062500X0.350000X0.062500X-0.350000X0.062500X-0.350000X-0.062500X0.350000X-0.062500X0*%
%TD*%
%TA.AperFunction,SMDPad,CuDef*%
%ADD23RoundRect,0.062500X0.062500X0.350000X-0.062500X0.350000X-0.062500X-0.350000X0.062500X-0.350000X0*%
%TD*%
%TA.AperFunction,HeatsinkPad*%
%ADD24R,2.600000X2.600000*%
%TD*%
%TA.AperFunction,SMDPad,CuDef*%
%ADD25R,2.000000X0.600000*%
%TD*%
%TA.AperFunction,SMDPad,CuDef*%
%ADD26R,2.000000X0.300000*%
%TD*%
%TA.AperFunction,ComponentPad*%
%ADD27O,1.900000X1.300000*%
%TD*%
%TA.AperFunction,ViaPad*%
%ADD28C,0.600000*%
%TD*%
%TA.AperFunction,Conductor*%
%ADD29C,0.750000*%
%TD*%
%TA.AperFunction,Conductor*%
%ADD30C,0.500000*%
%TD*%
%TA.AperFunction,Conductor*%
%ADD31C,0.250000*%
%TD*%
%TA.AperFunction,Conductor*%
%ADD32C,0.200000*%
%TD*%
G04 APERTURE END LIST*
D10*
%TO.P,J11,1,Pin_1*%
%TO.N,/VOUT*%
X51500000Y-57080000D03*
D11*
%TO.P,J11,2,Pin_2*%
%TO.N,GND2*%
X51500000Y-59620000D03*
%TO.P,J11,3,Pin_3*%
X51500000Y-62160000D03*
%TO.P,J11,4,Pin_4*%
X51500000Y-64700000D03*
%TO.P,J11,5,Pin_5*%
%TO.N,/VOUT*%
X51500000Y-67240000D03*
%TD*%
D12*
%TO.P,Q2,1,G*%
%TO.N,/G*%
X61562500Y-69550000D03*
%TO.P,Q2,2,S*%
%TO.N,/VOUT*%
X61562500Y-71450000D03*
%TO.P,Q2,3,D*%
%TO.N,/D*%
X63437500Y-70500000D03*
%TD*%
D13*
%TO.P,C9,1*%
%TO.N,/VBUS*%
X81000000Y-71650000D03*
%TO.P,C9,2*%
%TO.N,GND2*%
X81000000Y-68525000D03*
%TD*%
D14*
%TO.P,C14,1*%
%TO.N,/VOUT*%
X55000000Y-71630000D03*
%TO.P,C14,2*%
%TO.N,GND2*%
X55000000Y-69555000D03*
%TD*%
D15*
%TO.P,R12,1*%
%TO.N,Net-(U2-PWR_EN)*%
X63500000Y-66500000D03*
%TO.P,R12,2*%
%TO.N,/G*%
X61500000Y-66500000D03*
%TD*%
D13*
%TO.P,C13,1*%
%TO.N,/VOUT*%
X58000000Y-71630000D03*
%TO.P,C13,2*%
%TO.N,GND2*%
X58000000Y-68505000D03*
%TD*%
D16*
%TO.P,D3,1,K*%
%TO.N,GND2*%
X93025000Y-53000000D03*
%TO.P,D3,2,A*%
%TO.N,Net-(D3-A)*%
X90975000Y-53000000D03*
%TD*%
%TO.P,D5,1,K*%
%TO.N,GND2*%
X58525000Y-53000000D03*
%TO.P,D5,2,A*%
%TO.N,Net-(D5-A)*%
X56475000Y-53000000D03*
%TD*%
D14*
%TO.P,C8,1*%
%TO.N,/VBUS*%
X84000000Y-71125000D03*
%TO.P,C8,2*%
%TO.N,GND2*%
X84000000Y-69050000D03*
%TD*%
D15*
%TO.P,R14,1*%
%TO.N,Net-(U2-LED)*%
X73500000Y-56950000D03*
%TO.P,R14,2*%
%TO.N,Net-(D4-A)*%
X71500000Y-56950000D03*
%TD*%
D17*
%TO.P,R10,1*%
%TO.N,/VBUS*%
X86600000Y-53000000D03*
%TO.P,R10,2*%
%TO.N,Net-(D3-A)*%
X88600000Y-53000000D03*
%TD*%
D15*
%TO.P,R9,1*%
%TO.N,Net-(J8-CC2)*%
X79000000Y-60500000D03*
%TO.P,R9,2*%
%TO.N,GND2*%
X77000000Y-60500000D03*
%TD*%
D18*
%TO.P,C11,1*%
%TO.N,Net-(U2-V5V)*%
X70800000Y-66460000D03*
%TO.P,C11,2*%
%TO.N,GND2*%
X72875000Y-66460000D03*
%TD*%
D16*
%TO.P,D4,1,K*%
%TO.N,GND2*%
X73525000Y-53000000D03*
%TO.P,D4,2,A*%
%TO.N,Net-(D4-A)*%
X71475000Y-53000000D03*
%TD*%
D19*
%TO.P,R11,1*%
%TO.N,/VBUS*%
X78050000Y-70500000D03*
%TO.P,R11,2*%
%TO.N,/VSENSE*%
X71950000Y-70500000D03*
%TD*%
D17*
%TO.P,R15,1*%
%TO.N,/VOUT*%
X52100000Y-53000000D03*
%TO.P,R15,2*%
%TO.N,Net-(D5-A)*%
X54100000Y-53000000D03*
%TD*%
D20*
%TO.P,C10,1*%
%TO.N,Net-(U2-V18)*%
X67515000Y-57560000D03*
%TO.P,C10,2*%
%TO.N,GND2*%
X65440000Y-57560000D03*
%TD*%
D10*
%TO.P,J10,1,Pin_1*%
%TO.N,/SDA'*%
X66720000Y-52000000D03*
D11*
%TO.P,J10,2,Pin_2*%
%TO.N,/SCL'*%
X64180000Y-52000000D03*
%TO.P,J10,3,Pin_3*%
%TO.N,GND2*%
X61640000Y-52000000D03*
%TD*%
D15*
%TO.P,TH1,1*%
%TO.N,Net-(U2-OTP)*%
X67550000Y-60330000D03*
%TO.P,TH1,2*%
%TO.N,GND2*%
X65550000Y-60330000D03*
%TD*%
D21*
%TO.P,Q1,1,G*%
%TO.N,/G*%
X68437500Y-71450000D03*
%TO.P,Q1,2,S*%
%TO.N,/VSENSE*%
X68437500Y-69550000D03*
%TO.P,Q1,3,D*%
%TO.N,/D*%
X66562500Y-70500000D03*
%TD*%
D15*
%TO.P,R8,1*%
%TO.N,Net-(J8-CC1)*%
X79000000Y-63500000D03*
%TO.P,R8,2*%
%TO.N,GND2*%
X77000000Y-63500000D03*
%TD*%
%TO.P,R13,1*%
%TO.N,Net-(U2-VOUT)*%
X68500000Y-66500000D03*
%TO.P,R13,2*%
%TO.N,/VOUT*%
X66500000Y-66500000D03*
%TD*%
D20*
%TO.P,C12,1*%
%TO.N,Net-(U2-IFB)*%
X67575000Y-63150000D03*
%TO.P,C12,2*%
%TO.N,GND2*%
X65500000Y-63150000D03*
%TD*%
D10*
%TO.P,J9,1,Pin_1*%
%TO.N,/DN*%
X76880000Y-52000000D03*
D11*
%TO.P,J9,2,Pin_2*%
%TO.N,/DP*%
X79420000Y-52000000D03*
%TO.P,J9,3,Pin_3*%
%TO.N,GND2*%
X81960000Y-52000000D03*
%TD*%
D22*
%TO.P,U2,1,ISENP*%
%TO.N,/VBUS*%
X74437500Y-63250000D03*
%TO.P,U2,2,NC*%
%TO.N,unconnected-(U2-NC-Pad2)*%
X74437500Y-62750000D03*
%TO.P,U2,3,GND*%
%TO.N,GND2*%
X74437500Y-62250000D03*
%TO.P,U2,4,SDA*%
%TO.N,/SDA'*%
X74437500Y-61750000D03*
%TO.P,U2,5,SCL*%
%TO.N,/SCL'*%
X74437500Y-61250000D03*
%TO.P,U2,6,FLIP*%
%TO.N,unconnected-(U2-FLIP-Pad6)*%
X74437500Y-60750000D03*
D23*
%TO.P,U2,7,NC*%
%TO.N,unconnected-(U2-NC-Pad7)*%
X73750000Y-60062500D03*
%TO.P,U2,8,LED*%
%TO.N,Net-(U2-LED)*%
X73250000Y-60062500D03*
%TO.P,U2,9,INT*%
%TO.N,unconnected-(U2-INT-Pad9)*%
X72750000Y-60062500D03*
%TO.P,U2,10,NC*%
%TO.N,unconnected-(U2-NC-Pad10)*%
X72250000Y-60062500D03*
%TO.P,U2,11,NC*%
%TO.N,unconnected-(U2-NC-Pad11)*%
X71750000Y-60062500D03*
%TO.P,U2,12,V18*%
%TO.N,Net-(U2-V18)*%
X71250000Y-60062500D03*
D22*
%TO.P,U2,13,OTP*%
%TO.N,Net-(U2-OTP)*%
X70562500Y-60750000D03*
%TO.P,U2,14,NC*%
%TO.N,unconnected-(U2-NC-Pad14)*%
X70562500Y-61250000D03*
%TO.P,U2,15,IFB*%
%TO.N,Net-(U2-IFB)*%
X70562500Y-61750000D03*
%TO.P,U2,16,CC2*%
%TO.N,Net-(J8-CC2)*%
X70562500Y-62250000D03*
%TO.P,U2,17,CC1*%
%TO.N,Net-(J8-CC1)*%
X70562500Y-62750000D03*
%TO.P,U2,18,DN*%
%TO.N,/DN*%
X70562500Y-63250000D03*
D23*
%TO.P,U2,19,DP*%
%TO.N,/DP*%
X71250000Y-63937500D03*
%TO.P,U2,20,V5V*%
%TO.N,Net-(U2-V5V)*%
X71750000Y-63937500D03*
%TO.P,U2,21,NC*%
%TO.N,unconnected-(U2-NC-Pad21)*%
X72250000Y-63937500D03*
%TO.P,U2,22,VOUT*%
%TO.N,Net-(U2-VOUT)*%
X72750000Y-63937500D03*
%TO.P,U2,23,PWR_EN*%
%TO.N,Net-(U2-PWR_EN)*%
X73250000Y-63937500D03*
%TO.P,U2,24,VCC*%
%TO.N,/VSENSE*%
X73750000Y-63937500D03*
D24*
%TO.P,U2,25,EP*%
%TO.N,GND2*%
X72500000Y-62000000D03*
%TD*%
D25*
%TO.P,J8,A1,GND*%
%TO.N,GND2*%
X86793500Y-65250000D03*
%TO.P,J8,A4,VBUS*%
%TO.N,/VBUS*%
X86793500Y-64450000D03*
D26*
%TO.P,J8,A5,CC1*%
%TO.N,Net-(J8-CC1)*%
X86793500Y-63250000D03*
%TO.P,J8,A6,D+*%
%TO.N,/DN*%
X86793500Y-62250000D03*
%TO.P,J8,A7,D-*%
X86793500Y-61750000D03*
%TO.P,J8,A8,SBU1*%
%TO.N,unconnected-(J8-SBU1-PadA8)*%
X86793500Y-60750000D03*
D25*
%TO.P,J8,A9,VBUS*%
%TO.N,/VBUS*%
X86793500Y-59550000D03*
%TO.P,J8,A12,GND*%
%TO.N,GND2*%
X86793500Y-58750000D03*
%TO.P,J8,B1,GND*%
X86793500Y-58750000D03*
%TO.P,J8,B4,VBUS*%
%TO.N,/VBUS*%
X86793500Y-59550000D03*
D26*
%TO.P,J8,B5,CC2*%
%TO.N,Net-(J8-CC2)*%
X86793500Y-60250000D03*
%TO.P,J8,B6,D+*%
%TO.N,/DP*%
X86793500Y-61250000D03*
%TO.P,J8,B7,D-*%
X86793500Y-62750000D03*
%TO.P,J8,B8,SBU2*%
%TO.N,unconnected-(J8-SBU2-PadB8)*%
X86793500Y-63750000D03*
D25*
%TO.P,J8,B9,VBUS*%
%TO.N,/VBUS*%
X86793500Y-64450000D03*
%TO.P,J8,B12,GND*%
%TO.N,GND2*%
X86793500Y-65250000D03*
D27*
%TO.P,J8,S1,SHIELD*%
%TO.N,unconnected-(J8-SHIELD-PadS1)_1*%
X92163500Y-66320000D03*
%TO.N,unconnected-(J8-SHIELD-PadS1)*%
X92163500Y-57680000D03*
%TD*%
D28*
%TO.N,GND2*%
X63720000Y-63150000D03*
X84595000Y-58285000D03*
X59830000Y-67650000D03*
X74180000Y-66460000D03*
X63730000Y-60340000D03*
X79190000Y-66460000D03*
X75000000Y-55300000D03*
X86840000Y-68130000D03*
X77010000Y-62060000D03*
X55010000Y-67420000D03*
X63730000Y-57570000D03*
X82590000Y-69050000D03*
%TO.N,Net-(J8-CC1)*%
X68820000Y-63410000D03*
X80080000Y-63260000D03*
%TO.N,/DN*%
X69500000Y-64050000D03*
X81330000Y-61730000D03*
%TO.N,/DP*%
X69760000Y-65010000D03*
X82670000Y-62750000D03*
%TO.N,Net-(J8-CC2)*%
X68780000Y-62530000D03*
X76420000Y-58240000D03*
%TO.N,/VBUS*%
X86610000Y-54760000D03*
X84500000Y-59550000D03*
X84500000Y-64460000D03*
%TO.N,/SCL'*%
X68690000Y-56350000D03*
X74940000Y-57550000D03*
%TO.N,/SDA'*%
X69830000Y-56300000D03*
X75055926Y-56664074D03*
%TO.N,/G*%
X61500000Y-68240000D03*
X69990000Y-71450000D03*
%TD*%
D29*
%TO.N,GND2*%
X79360000Y-55300000D02*
X75000000Y-55300000D01*
D30*
X85050000Y-58750000D02*
X84580000Y-58280000D01*
D29*
X81960000Y-52700000D02*
X79360000Y-55300000D01*
X77000000Y-62070000D02*
X77010000Y-62060000D01*
X77010000Y-62060000D02*
X77000000Y-62050000D01*
X81960000Y-52000000D02*
X81960000Y-55660000D01*
D31*
X74437500Y-62250000D02*
X72750000Y-62250000D01*
D29*
X77000000Y-63500000D02*
X77000000Y-62070000D01*
X59525000Y-52000000D02*
X58525000Y-53000000D01*
D31*
X81960000Y-52000000D02*
X82035000Y-51925000D01*
D29*
X55000000Y-67430000D02*
X55010000Y-67420000D01*
D31*
X92025000Y-51925000D02*
X93100000Y-53000000D01*
D29*
X82590000Y-69050000D02*
X81525000Y-69050000D01*
D31*
X72750000Y-62250000D02*
X72500000Y-62000000D01*
D29*
X72875000Y-66460000D02*
X74180000Y-66460000D01*
X77000000Y-64270000D02*
X77000000Y-63500000D01*
X81960000Y-52000000D02*
X81960000Y-52700000D01*
D31*
X82035000Y-51925000D02*
X92025000Y-51925000D01*
D29*
X79190000Y-66460000D02*
X77000000Y-64270000D01*
X58000000Y-68505000D02*
X58975000Y-68505000D01*
X63730000Y-60340000D02*
X63720000Y-60330000D01*
D30*
X86383500Y-67673500D02*
X86840000Y-68130000D01*
D29*
X63730000Y-57570000D02*
X63720000Y-57560000D01*
X55000000Y-69555000D02*
X55000000Y-67430000D01*
D30*
X86793500Y-58750000D02*
X85050000Y-58750000D01*
D29*
X81525000Y-69050000D02*
X81000000Y-68525000D01*
X65440000Y-57560000D02*
X63730000Y-57570000D01*
X77000000Y-62050000D02*
X77000000Y-60500000D01*
D30*
X73525000Y-53000000D02*
X73525000Y-53825000D01*
D29*
X65550000Y-60330000D02*
X63730000Y-60340000D01*
X61640000Y-52000000D02*
X59525000Y-52000000D01*
D31*
X76820000Y-62250000D02*
X77010000Y-62060000D01*
D29*
X84000000Y-69050000D02*
X82590000Y-69050000D01*
D31*
X74437500Y-62250000D02*
X76820000Y-62250000D01*
D29*
X65500000Y-63150000D02*
X63720000Y-63150000D01*
D30*
X73525000Y-53825000D02*
X75000000Y-55300000D01*
D29*
X58975000Y-68505000D02*
X59830000Y-67650000D01*
D30*
X86793500Y-65250000D02*
X86383500Y-65660000D01*
D29*
X81960000Y-55660000D02*
X84580000Y-58280000D01*
D30*
X86383500Y-65660000D02*
X86383500Y-67673500D01*
D31*
%TO.N,Net-(U2-V18)*%
X69670000Y-57560000D02*
X67515000Y-57560000D01*
X71250000Y-59140000D02*
X69670000Y-57560000D01*
X71250000Y-60062500D02*
X71250000Y-59140000D01*
%TO.N,Net-(U2-V5V)*%
X70800000Y-66460000D02*
X70800000Y-65770000D01*
X70800000Y-65770000D02*
X71750000Y-64820000D01*
X71750000Y-64820000D02*
X71750000Y-63937500D01*
%TO.N,Net-(U2-IFB)*%
X67930000Y-61750000D02*
X67575000Y-62105000D01*
X67575000Y-62105000D02*
X67575000Y-63150000D01*
X70562500Y-61750000D02*
X67930000Y-61750000D01*
%TO.N,Net-(J8-CC1)*%
X80080000Y-63260000D02*
X79240000Y-63260000D01*
X86793500Y-63250000D02*
X83053884Y-63250000D01*
X82928884Y-63375000D02*
X80195000Y-63375000D01*
X69443884Y-62750000D02*
X70562500Y-62750000D01*
X68820000Y-63373884D02*
X69443884Y-62750000D01*
X68820000Y-63410000D02*
X68820000Y-63373884D01*
X83053884Y-63250000D02*
X82928884Y-63375000D01*
X79240000Y-63260000D02*
X79000000Y-63500000D01*
X80195000Y-63375000D02*
X80080000Y-63260000D01*
%TO.N,/DN*%
X70562500Y-63250000D02*
X69970000Y-63250000D01*
X69820000Y-63400000D02*
X69820000Y-63730000D01*
X81330000Y-61730000D02*
X81350000Y-61750000D01*
X69500000Y-64050000D02*
X69510000Y-64060000D01*
X69820000Y-63730000D02*
X69500000Y-64050000D01*
X81350000Y-61750000D02*
X86793500Y-61750000D01*
X85320000Y-61750000D02*
X85320000Y-61980000D01*
X85590000Y-62250000D02*
X86793500Y-62250000D01*
X85320000Y-61980000D02*
X85590000Y-62250000D01*
X69970000Y-63250000D02*
X69820000Y-63400000D01*
%TO.N,/DP*%
X86793500Y-61250000D02*
X88093500Y-61250000D01*
X88093500Y-62750000D02*
X86793500Y-62750000D01*
X70710000Y-65010000D02*
X69760000Y-65010000D01*
X88118500Y-61275000D02*
X88118500Y-62725000D01*
X88093500Y-61250000D02*
X88118500Y-61275000D01*
X71250000Y-63937500D02*
X71250000Y-64470000D01*
X86793500Y-62750000D02*
X82670000Y-62750000D01*
X88118500Y-62725000D02*
X88093500Y-62750000D01*
X71250000Y-64470000D02*
X70710000Y-65010000D01*
%TO.N,Net-(J8-CC2)*%
X86793500Y-60250000D02*
X81620000Y-60250000D01*
X81620000Y-60250000D02*
X81370000Y-60500000D01*
X81370000Y-60500000D02*
X79000000Y-60500000D01*
X76420000Y-58240000D02*
X76740000Y-58240000D01*
X68780000Y-62530000D02*
X69060000Y-62250000D01*
X69060000Y-62250000D02*
X70562500Y-62250000D01*
X76740000Y-58240000D02*
X79000000Y-60500000D01*
D29*
%TO.N,/VOUT*%
X58000000Y-71630000D02*
X56310000Y-71630000D01*
X56310000Y-71630000D02*
X55000000Y-71630000D01*
X51500000Y-53600000D02*
X52100000Y-53000000D01*
X52975000Y-58395000D02*
X51500000Y-56920000D01*
X51500000Y-56920000D02*
X51500000Y-53600000D01*
X61562500Y-71450000D02*
X58180000Y-71450000D01*
X58007500Y-71637500D02*
X58000000Y-71630000D01*
X52975000Y-65605000D02*
X52975000Y-58395000D01*
X51500000Y-68130000D02*
X51500000Y-67080000D01*
D31*
X64570000Y-64570000D02*
X66500000Y-66500000D01*
X56310000Y-65740000D02*
X57480000Y-64570000D01*
D29*
X51500000Y-67080000D02*
X52975000Y-65605000D01*
X55000000Y-71630000D02*
X51500000Y-68130000D01*
X58180000Y-71450000D02*
X58000000Y-71630000D01*
D31*
X57480000Y-64570000D02*
X64570000Y-64570000D01*
X56310000Y-71630000D02*
X56310000Y-65740000D01*
%TO.N,Net-(D3-A)*%
X88600000Y-53000000D02*
X91050000Y-53000000D01*
%TO.N,Net-(U2-PWR_EN)*%
X74275394Y-65170000D02*
X73949548Y-65170000D01*
X63500000Y-66500000D02*
X64100000Y-66500000D01*
X74930000Y-66812894D02*
X74930000Y-65824606D01*
X73752894Y-67990000D02*
X74930000Y-66812894D01*
X74930000Y-65824606D02*
X74275394Y-65170000D01*
X64100000Y-66500000D02*
X65590000Y-67990000D01*
X73250000Y-64470452D02*
X73250000Y-63937500D01*
X65590000Y-67990000D02*
X73752894Y-67990000D01*
X73949548Y-65170000D02*
X73250000Y-64470452D01*
%TO.N,Net-(U2-VOUT)*%
X71712500Y-65867500D02*
X71712500Y-67180100D01*
X71712500Y-67180100D02*
X71382600Y-67510000D01*
X71382600Y-67510000D02*
X69510000Y-67510000D01*
X72750000Y-63937500D02*
X72750000Y-64830000D01*
X69510000Y-67510000D02*
X68500000Y-66500000D01*
X72750000Y-64830000D02*
X71712500Y-65867500D01*
D32*
%TO.N,Net-(D4-A)*%
X71500000Y-56950000D02*
X71500000Y-53025000D01*
X71500000Y-53025000D02*
X71475000Y-53000000D01*
%TO.N,Net-(U2-LED)*%
X73250000Y-57200000D02*
X73500000Y-56950000D01*
X73250000Y-60062500D02*
X73250000Y-57200000D01*
D31*
%TO.N,Net-(U2-OTP)*%
X70562500Y-60750000D02*
X67970000Y-60750000D01*
X67970000Y-60750000D02*
X67550000Y-60330000D01*
D29*
%TO.N,/VBUS*%
X81525000Y-71125000D02*
X81000000Y-71650000D01*
X85350000Y-69775000D02*
X84000000Y-71125000D01*
X84500000Y-64460000D02*
X84500000Y-67493136D01*
D30*
X86793500Y-59550000D02*
X84420000Y-59550000D01*
D29*
X81000000Y-71650000D02*
X79200000Y-71650000D01*
X84000000Y-71125000D02*
X81525000Y-71125000D01*
D31*
X76025000Y-64155000D02*
X76025000Y-68475000D01*
D29*
X85350000Y-68343136D02*
X85350000Y-69775000D01*
D31*
X86600000Y-53000000D02*
X86600000Y-54750000D01*
X86600000Y-54750000D02*
X86610000Y-54760000D01*
X75120000Y-63250000D02*
X76025000Y-64155000D01*
X76025000Y-68475000D02*
X78050000Y-70500000D01*
D29*
X79200000Y-71650000D02*
X78050000Y-70500000D01*
D30*
X86793500Y-64450000D02*
X84420000Y-64450000D01*
D29*
X84500000Y-67493136D02*
X85350000Y-68343136D01*
D31*
X74437500Y-63250000D02*
X75120000Y-63250000D01*
%TO.N,/VSENSE*%
X75430000Y-67020000D02*
X71950000Y-70500000D01*
D29*
X71000000Y-69550000D02*
X71950000Y-70500000D01*
D31*
X75430000Y-65617499D02*
X75430000Y-67020000D01*
X73750000Y-64263346D02*
X74156654Y-64670000D01*
X73750000Y-63937500D02*
X73750000Y-64263346D01*
X74482501Y-64670000D02*
X75430000Y-65617499D01*
X74156654Y-64670000D02*
X74482501Y-64670000D01*
D29*
X68437500Y-69550000D02*
X71000000Y-69550000D01*
D31*
%TO.N,/SCL'*%
X68530000Y-56350000D02*
X64180000Y-52000000D01*
X74940000Y-57550000D02*
X75270000Y-57880000D01*
X75270000Y-60879740D02*
X74899740Y-61250000D01*
X68690000Y-56350000D02*
X68530000Y-56350000D01*
X75270000Y-57880000D02*
X75270000Y-60879740D01*
X74899740Y-61250000D02*
X74437500Y-61250000D01*
%TO.N,/SDA'*%
X66720000Y-52530000D02*
X66720000Y-52000000D01*
X75795000Y-58958884D02*
X75890000Y-59053884D01*
X75370000Y-61750000D02*
X74437500Y-61750000D01*
X75795000Y-57403148D02*
X75795000Y-58958884D01*
X75890000Y-61230000D02*
X75370000Y-61750000D01*
X69830000Y-56300000D02*
X69830000Y-55640000D01*
X69830000Y-55640000D02*
X66720000Y-52530000D01*
X75055926Y-56664074D02*
X75795000Y-57403148D01*
X75890000Y-59053884D02*
X75890000Y-61230000D01*
%TO.N,Net-(D5-A)*%
X56475000Y-53000000D02*
X54100000Y-53000000D01*
D29*
%TO.N,/D*%
X66562500Y-70500000D02*
X63437500Y-70500000D01*
D32*
%TO.N,/G*%
X61500000Y-66500000D02*
X61500000Y-68240000D01*
X61500000Y-68240000D02*
X61500000Y-69487500D01*
X68437500Y-71450000D02*
X69990000Y-71450000D01*
X61500000Y-69487500D02*
X61562500Y-69550000D01*
%TD*%
%TA.AperFunction,Conductor*%
%TO.N,GND2*%
G36*
X75472539Y-51019685D02*
G01*
X75518294Y-51072489D01*
X75529500Y-51124000D01*
X75529500Y-52897870D01*
X75529501Y-52897876D01*
X75535908Y-52957483D01*
X75586202Y-53092328D01*
X75586206Y-53092335D01*
X75672452Y-53207544D01*
X75672455Y-53207547D01*
X75787664Y-53293793D01*
X75787671Y-53293797D01*
X75922517Y-53344091D01*
X75922516Y-53344091D01*
X75927493Y-53344626D01*
X75982127Y-53350500D01*
X77777872Y-53350499D01*
X77837483Y-53344091D01*
X77972331Y-53293796D01*
X78087546Y-53207546D01*
X78173796Y-53092331D01*
X78222810Y-52960916D01*
X78264681Y-52904984D01*
X78330145Y-52880566D01*
X78398418Y-52895417D01*
X78426673Y-52916569D01*
X78548599Y-53038495D01*
X78645384Y-53106265D01*
X78742165Y-53174032D01*
X78742167Y-53174033D01*
X78742170Y-53174035D01*
X78956337Y-53273903D01*
X79184592Y-53335063D01*
X79361034Y-53350500D01*
X79419999Y-53355659D01*
X79420000Y-53355659D01*
X79420001Y-53355659D01*
X79478966Y-53350500D01*
X79655408Y-53335063D01*
X79883663Y-53273903D01*
X80097830Y-53174035D01*
X80291401Y-53038495D01*
X80458495Y-52871401D01*
X80588730Y-52685405D01*
X80643307Y-52641781D01*
X80712805Y-52634587D01*
X80775160Y-52666110D01*
X80791879Y-52685405D01*
X80921890Y-52871078D01*
X81088917Y-53038105D01*
X81282421Y-53173600D01*
X81496507Y-53273429D01*
X81496516Y-53273433D01*
X81710000Y-53330634D01*
X81710000Y-52433012D01*
X81767007Y-52465925D01*
X81894174Y-52500000D01*
X82025826Y-52500000D01*
X82152993Y-52465925D01*
X82210000Y-52433012D01*
X82210000Y-53330634D01*
X82423483Y-53273433D01*
X82423492Y-53273429D01*
X82637578Y-53173600D01*
X82831082Y-53038105D01*
X82998105Y-52871082D01*
X83133600Y-52677578D01*
X83216413Y-52499983D01*
X85499500Y-52499983D01*
X85499500Y-53500001D01*
X85499501Y-53500019D01*
X85510000Y-53602796D01*
X85510001Y-53602799D01*
X85565115Y-53769119D01*
X85565186Y-53769334D01*
X85657288Y-53918656D01*
X85781344Y-54042712D01*
X85915597Y-54125519D01*
X85962321Y-54177465D01*
X85974500Y-54231057D01*
X85974500Y-54231059D01*
X85955494Y-54297031D01*
X85884211Y-54410476D01*
X85824631Y-54580745D01*
X85824630Y-54580750D01*
X85804435Y-54759996D01*
X85804435Y-54760003D01*
X85824630Y-54939249D01*
X85824631Y-54939254D01*
X85884211Y-55109523D01*
X85966989Y-55241263D01*
X85980184Y-55262262D01*
X86107738Y-55389816D01*
X86260478Y-55485789D01*
X86428079Y-55544435D01*
X86430745Y-55545368D01*
X86430750Y-55545369D01*
X86609996Y-55565565D01*
X86610000Y-55565565D01*
X86610004Y-55565565D01*
X86789249Y-55545369D01*
X86789252Y-55545368D01*
X86789255Y-55545368D01*
X86959522Y-55485789D01*
X87112262Y-55389816D01*
X87239816Y-55262262D01*
X87335789Y-55109522D01*
X87395368Y-54939255D01*
X87415565Y-54760000D01*
X87395368Y-54580745D01*
X87335789Y-54410478D01*
X87335788Y-54410476D01*
X87335788Y-54410475D01*
X87258919Y-54288141D01*
X87239918Y-54220904D01*
X87260285Y-54154069D01*
X87298814Y-54116630D01*
X87418656Y-54042712D01*
X87512319Y-53949049D01*
X87573642Y-53915564D01*
X87643334Y-53920548D01*
X87687681Y-53949049D01*
X87781344Y-54042712D01*
X87930666Y-54134814D01*
X88097203Y-54189999D01*
X88199991Y-54200500D01*
X89000008Y-54200499D01*
X89000016Y-54200498D01*
X89000019Y-54200498D01*
X89056302Y-54194748D01*
X89102797Y-54189999D01*
X89269334Y-54134814D01*
X89418656Y-54042712D01*
X89542712Y-53918656D01*
X89634814Y-53769334D01*
X89654311Y-53710493D01*
X89694084Y-53653051D01*
X89758600Y-53626228D01*
X89772017Y-53625500D01*
X89827983Y-53625500D01*
X89895022Y-53645185D01*
X89940777Y-53697989D01*
X89945686Y-53710489D01*
X89965186Y-53769334D01*
X90057288Y-53918656D01*
X90181344Y-54042712D01*
X90330666Y-54134814D01*
X90497203Y-54189999D01*
X90599991Y-54200500D01*
X91350008Y-54200499D01*
X91350016Y-54200498D01*
X91350019Y-54200498D01*
X91406302Y-54194748D01*
X91452797Y-54189999D01*
X91619334Y-54134814D01*
X91768656Y-54042712D01*
X91892712Y-53918656D01*
X91894752Y-53915347D01*
X91896745Y-53913555D01*
X91897193Y-53912989D01*
X91897289Y-53913065D01*
X91946694Y-53868623D01*
X92015656Y-53857395D01*
X92079740Y-53885234D01*
X92105829Y-53915339D01*
X92107681Y-53918341D01*
X92107683Y-53918344D01*
X92231654Y-54042315D01*
X92380875Y-54134356D01*
X92380880Y-54134358D01*
X92547302Y-54189505D01*
X92547309Y-54189506D01*
X92650019Y-54199999D01*
X92774999Y-54199999D01*
X93275000Y-54199999D01*
X93399972Y-54199999D01*
X93399986Y-54199998D01*
X93502697Y-54189505D01*
X93669119Y-54134358D01*
X93669124Y-54134356D01*
X93818345Y-54042315D01*
X93942315Y-53918345D01*
X94034356Y-53769124D01*
X94034358Y-53769119D01*
X94089505Y-53602697D01*
X94089506Y-53602690D01*
X94099999Y-53499986D01*
X94100000Y-53499973D01*
X94100000Y-53250000D01*
X93275000Y-53250000D01*
X93275000Y-54199999D01*
X92774999Y-54199999D01*
X92775000Y-54199998D01*
X92775000Y-52750000D01*
X93275000Y-52750000D01*
X94099999Y-52750000D01*
X94099999Y-52500028D01*
X94099998Y-52500013D01*
X94089505Y-52397302D01*
X94034358Y-52230880D01*
X94034356Y-52230875D01*
X93942315Y-52081654D01*
X93818345Y-51957684D01*
X93669124Y-51865643D01*
X93669119Y-51865641D01*
X93502697Y-51810494D01*
X93502690Y-51810493D01*
X93399986Y-51800000D01*
X93275000Y-51800000D01*
X93275000Y-52750000D01*
X92775000Y-52750000D01*
X92775000Y-51800000D01*
X92650027Y-51800000D01*
X92650012Y-51800001D01*
X92547302Y-51810494D01*
X92380880Y-51865641D01*
X92380875Y-51865643D01*
X92231654Y-51957684D01*
X92107683Y-52081655D01*
X92107679Y-52081660D01*
X92105826Y-52084665D01*
X92104018Y-52086290D01*
X92103202Y-52087323D01*
X92103025Y-52087183D01*
X92053874Y-52131385D01*
X91984911Y-52142601D01*
X91920831Y-52114752D01*
X91894753Y-52084653D01*
X91894619Y-52084436D01*
X91892712Y-52081344D01*
X91768656Y-51957288D01*
X91619334Y-51865186D01*
X91452797Y-51810001D01*
X91452795Y-51810000D01*
X91350010Y-51799500D01*
X90599998Y-51799500D01*
X90599980Y-51799501D01*
X90497203Y-51810000D01*
X90497200Y-51810001D01*
X90330668Y-51865185D01*
X90330663Y-51865187D01*
X90181342Y-51957289D01*
X90057289Y-52081342D01*
X89965187Y-52230663D01*
X89965186Y-52230666D01*
X89945689Y-52289505D01*
X89905916Y-52346949D01*
X89841400Y-52373772D01*
X89827983Y-52374500D01*
X89772017Y-52374500D01*
X89704978Y-52354815D01*
X89659223Y-52302011D01*
X89654311Y-52289505D01*
X89634814Y-52230666D01*
X89542712Y-52081344D01*
X89418656Y-51957288D01*
X89269334Y-51865186D01*
X89102797Y-51810001D01*
X89102795Y-51810000D01*
X89000010Y-51799500D01*
X88199998Y-51799500D01*
X88199980Y-51799501D01*
X88097203Y-51810000D01*
X88097200Y-51810001D01*
X87930668Y-51865185D01*
X87930663Y-51865187D01*
X87781342Y-51957289D01*
X87687681Y-52050951D01*
X87626358Y-52084436D01*
X87556666Y-52079452D01*
X87512319Y-52050951D01*
X87418657Y-51957289D01*
X87418656Y-51957288D01*
X87269334Y-51865186D01*
X87102797Y-51810001D01*
X87102795Y-51810000D01*
X87000010Y-51799500D01*
X86199998Y-51799500D01*
X86199980Y-51799501D01*
X86097203Y-51810000D01*
X86097200Y-51810001D01*
X85930668Y-51865185D01*
X85930663Y-51865187D01*
X85781342Y-51957289D01*
X85657289Y-52081342D01*
X85565187Y-52230663D01*
X85565185Y-52230668D01*
X85558779Y-52250000D01*
X85510001Y-52397203D01*
X85510001Y-52397204D01*
X85510000Y-52397204D01*
X85499500Y-52499983D01*
X83216413Y-52499983D01*
X83233429Y-52463492D01*
X83233432Y-52463486D01*
X83290636Y-52250000D01*
X82393012Y-52250000D01*
X82425925Y-52192993D01*
X82460000Y-52065826D01*
X82460000Y-51934174D01*
X82425925Y-51807007D01*
X82393012Y-51750000D01*
X83290636Y-51750000D01*
X83290635Y-51749999D01*
X83233432Y-51536513D01*
X83233429Y-51536507D01*
X83133600Y-51322422D01*
X83133599Y-51322420D01*
X83044465Y-51195123D01*
X83022138Y-51128917D01*
X83039148Y-51061150D01*
X83090096Y-51013337D01*
X83146040Y-51000000D01*
X94375500Y-51000000D01*
X94442539Y-51019685D01*
X94488294Y-51072489D01*
X94499500Y-51124000D01*
X94499500Y-72876000D01*
X94479815Y-72943039D01*
X94427011Y-72988794D01*
X94375500Y-73000000D01*
X81975202Y-73000000D01*
X81908163Y-72980315D01*
X81862408Y-72927511D01*
X81852464Y-72858353D01*
X81881489Y-72794797D01*
X81936195Y-72758295D01*
X81969334Y-72747314D01*
X82118656Y-72655212D01*
X82242712Y-72531156D01*
X82334814Y-72381834D01*
X82389999Y-72215297D01*
X82396944Y-72147314D01*
X82400563Y-72111897D01*
X82426959Y-72047205D01*
X82484140Y-72007054D01*
X82523921Y-72000500D01*
X82950270Y-72000500D01*
X83017309Y-72020185D01*
X83037951Y-72036819D01*
X83056344Y-72055212D01*
X83205666Y-72147314D01*
X83372203Y-72202499D01*
X83474991Y-72213000D01*
X84525008Y-72212999D01*
X84525016Y-72212998D01*
X84525019Y-72212998D01*
X84581302Y-72207248D01*
X84627797Y-72202499D01*
X84794334Y-72147314D01*
X84943656Y-72055212D01*
X85067712Y-71931156D01*
X85159814Y-71781834D01*
X85214999Y-71615297D01*
X85225500Y-71512509D01*
X85225499Y-71189004D01*
X85245183Y-71121966D01*
X85261813Y-71101329D01*
X86030045Y-70333099D01*
X86125858Y-70189705D01*
X86191855Y-70030374D01*
X86225500Y-69861229D01*
X86225500Y-69688771D01*
X86225500Y-68256907D01*
X86191856Y-68087763D01*
X86137070Y-67955500D01*
X86125858Y-67928431D01*
X86035620Y-67793380D01*
X86030046Y-67785038D01*
X85981407Y-67736399D01*
X85908099Y-67663091D01*
X85411819Y-67166811D01*
X85378334Y-67105488D01*
X85375500Y-67079130D01*
X85375500Y-66106289D01*
X85395185Y-66039250D01*
X85447989Y-65993495D01*
X85517147Y-65983551D01*
X85542449Y-65991999D01*
X85543101Y-65990254D01*
X85686120Y-66043596D01*
X85686127Y-66043598D01*
X85745655Y-66049999D01*
X85745672Y-66050000D01*
X86543500Y-66050000D01*
X86543500Y-65500000D01*
X85499500Y-65500000D01*
X85432461Y-65480315D01*
X85386706Y-65427511D01*
X85375500Y-65376000D01*
X85375500Y-65324500D01*
X85395185Y-65257461D01*
X85447989Y-65211706D01*
X85499500Y-65200500D01*
X85546771Y-65200500D01*
X85590104Y-65208318D01*
X85686017Y-65244091D01*
X85686016Y-65244091D01*
X85692944Y-65244835D01*
X85745627Y-65250500D01*
X86919501Y-65250499D01*
X86986539Y-65270184D01*
X87032294Y-65322987D01*
X87043500Y-65374499D01*
X87043500Y-65880114D01*
X87023815Y-65947153D01*
X87007181Y-65967795D01*
X86992993Y-65981982D01*
X86992988Y-65981988D01*
X86920517Y-66107511D01*
X86920516Y-66107515D01*
X86883000Y-66247525D01*
X86883000Y-66392475D01*
X86887844Y-66410551D01*
X86920517Y-66532488D01*
X86992988Y-66658011D01*
X86992990Y-66658013D01*
X86992991Y-66658015D01*
X87095485Y-66760509D01*
X87095486Y-66760510D01*
X87095488Y-66760511D01*
X87221011Y-66832982D01*
X87221012Y-66832982D01*
X87221015Y-66832984D01*
X87361025Y-66870500D01*
X87361028Y-66870500D01*
X88605972Y-66870500D01*
X88605975Y-66870500D01*
X88745985Y-66832984D01*
X88871515Y-66760509D01*
X88974009Y-66658015D01*
X89046484Y-66532485D01*
X89084000Y-66392475D01*
X89084000Y-66247525D01*
X89079156Y-66229448D01*
X90713000Y-66229448D01*
X90713000Y-66410551D01*
X90741329Y-66589410D01*
X90797287Y-66761636D01*
X90797288Y-66761639D01*
X90879506Y-66922997D01*
X90985941Y-67069494D01*
X90985945Y-67069499D01*
X91114000Y-67197554D01*
X91114005Y-67197558D01*
X91212800Y-67269336D01*
X91260506Y-67303996D01*
X91365984Y-67357740D01*
X91421860Y-67386211D01*
X91421863Y-67386212D01*
X91489362Y-67408143D01*
X91594091Y-67442171D01*
X91676929Y-67455291D01*
X91772949Y-67470500D01*
X91772954Y-67470500D01*
X92554051Y-67470500D01*
X92640759Y-67456765D01*
X92732909Y-67442171D01*
X92905139Y-67386211D01*
X93066494Y-67303996D01*
X93213001Y-67197553D01*
X93341053Y-67069501D01*
X93447496Y-66922994D01*
X93529711Y-66761639D01*
X93585671Y-66589409D01*
X93600265Y-66497259D01*
X93614000Y-66410551D01*
X93614000Y-66229448D01*
X93596016Y-66115909D01*
X93585671Y-66050591D01*
X93538346Y-65904937D01*
X93529712Y-65878363D01*
X93529711Y-65878360D01*
X93487491Y-65795500D01*
X93447496Y-65717006D01*
X93428771Y-65691233D01*
X93341058Y-65570505D01*
X93341054Y-65570500D01*
X93212999Y-65442445D01*
X93212994Y-65442441D01*
X93066497Y-65336006D01*
X93066496Y-65336005D01*
X93066494Y-65336004D01*
X93003934Y-65304128D01*
X92905139Y-65253788D01*
X92905136Y-65253787D01*
X92732910Y-65197829D01*
X92554051Y-65169500D01*
X92554046Y-65169500D01*
X91772954Y-65169500D01*
X91772949Y-65169500D01*
X91594089Y-65197829D01*
X91421863Y-65253787D01*
X91421860Y-65253788D01*
X91260502Y-65336006D01*
X91114005Y-65442441D01*
X91114000Y-65442445D01*
X90985945Y-65570500D01*
X90985941Y-65570505D01*
X90879506Y-65717002D01*
X90797288Y-65878360D01*
X90797287Y-65878363D01*
X90741329Y-66050589D01*
X90713000Y-66229448D01*
X89079156Y-66229448D01*
X89046484Y-66107515D01*
X89021676Y-66064547D01*
X88974011Y-65981988D01*
X88974006Y-65981982D01*
X88871517Y-65879493D01*
X88871511Y-65879488D01*
X88745988Y-65807017D01*
X88745989Y-65807017D01*
X88734506Y-65803940D01*
X88605975Y-65769500D01*
X88413089Y-65769500D01*
X88346050Y-65749815D01*
X88300295Y-65697011D01*
X88289800Y-65632242D01*
X88293499Y-65597839D01*
X88293500Y-65597827D01*
X88293500Y-65587905D01*
X88313185Y-65520866D01*
X88365989Y-65475111D01*
X88429607Y-65465579D01*
X88429607Y-65465500D01*
X88430138Y-65465500D01*
X88433696Y-65464967D01*
X88437726Y-65465497D01*
X88437734Y-65465500D01*
X88437742Y-65465500D01*
X88589264Y-65465500D01*
X88589266Y-65465500D01*
X88735635Y-65426281D01*
X88866865Y-65350515D01*
X88974015Y-65243365D01*
X89049781Y-65112135D01*
X89089000Y-64965766D01*
X89089000Y-64814234D01*
X89049781Y-64667865D01*
X88974015Y-64536635D01*
X88866865Y-64429485D01*
X88773359Y-64375499D01*
X88735636Y-64353719D01*
X88662450Y-64334109D01*
X88589266Y-64314500D01*
X88437734Y-64314500D01*
X88437730Y-64314500D01*
X88434182Y-64314967D01*
X88431188Y-64314500D01*
X88429607Y-64314500D01*
X88429607Y-64314253D01*
X88365147Y-64304200D01*
X88312892Y-64257819D01*
X88293999Y-64192028D01*
X88293999Y-64102129D01*
X88293999Y-64102128D01*
X88287591Y-64042517D01*
X88287589Y-64042513D01*
X88287132Y-64038255D01*
X88287132Y-64011745D01*
X88287589Y-64007486D01*
X88287591Y-64007483D01*
X88294000Y-63947873D01*
X88293999Y-63552128D01*
X88293998Y-63552111D01*
X88289820Y-63513253D01*
X88289820Y-63486747D01*
X88294000Y-63447873D01*
X88293999Y-63426844D01*
X88313681Y-63359807D01*
X88366483Y-63314050D01*
X88370549Y-63312280D01*
X88389786Y-63304312D01*
X88441009Y-63270084D01*
X88492233Y-63235858D01*
X88579358Y-63148733D01*
X88604358Y-63123733D01*
X88672811Y-63021286D01*
X88719963Y-62907452D01*
X88731138Y-62851270D01*
X88740479Y-62804311D01*
X88740479Y-62804306D01*
X88744000Y-62786607D01*
X88744000Y-62663394D01*
X88744000Y-61213394D01*
X88744000Y-61213391D01*
X88741341Y-61200028D01*
X88740479Y-61195694D01*
X88740479Y-61195688D01*
X88740478Y-61195689D01*
X88727121Y-61128537D01*
X88727121Y-61128536D01*
X88722001Y-61102797D01*
X88719963Y-61092548D01*
X88687318Y-61013736D01*
X88672814Y-60978720D01*
X88672807Y-60978707D01*
X88604359Y-60876268D01*
X88603591Y-60875500D01*
X88517233Y-60789142D01*
X88492233Y-60764142D01*
X88427201Y-60720689D01*
X88389786Y-60695688D01*
X88370545Y-60687718D01*
X88316142Y-60643876D01*
X88294078Y-60577581D01*
X88293999Y-60573157D01*
X88293999Y-60552128D01*
X88293998Y-60552111D01*
X88289820Y-60513253D01*
X88289820Y-60486747D01*
X88294000Y-60447873D01*
X88293999Y-60052128D01*
X88287591Y-59992517D01*
X88287589Y-59992513D01*
X88287132Y-59988255D01*
X88287132Y-59961745D01*
X88287589Y-59957486D01*
X88287591Y-59957483D01*
X88294000Y-59897873D01*
X88293999Y-59807969D01*
X88313683Y-59740933D01*
X88366486Y-59695177D01*
X88429607Y-59685719D01*
X88429607Y-59685500D01*
X88431075Y-59685500D01*
X88434192Y-59685033D01*
X88437731Y-59685499D01*
X88437734Y-59685500D01*
X88437737Y-59685500D01*
X88589264Y-59685500D01*
X88589266Y-59685500D01*
X88735635Y-59646281D01*
X88866865Y-59570515D01*
X88974015Y-59463365D01*
X89049781Y-59332135D01*
X89089000Y-59185766D01*
X89089000Y-59034234D01*
X89049781Y-58887865D01*
X88974015Y-58756635D01*
X88866865Y-58649485D01*
X88801250Y-58611602D01*
X88735636Y-58573719D01*
X88662450Y-58554109D01*
X88589266Y-58534500D01*
X88437734Y-58534500D01*
X88433686Y-58535033D01*
X88430268Y-58534500D01*
X88429607Y-58534500D01*
X88429607Y-58534396D01*
X88364651Y-58524268D01*
X88312395Y-58477888D01*
X88293500Y-58412094D01*
X88293500Y-58402172D01*
X88293499Y-58402160D01*
X88289800Y-58367758D01*
X88302204Y-58298998D01*
X88349813Y-58247860D01*
X88413089Y-58230500D01*
X88605972Y-58230500D01*
X88605975Y-58230500D01*
X88745985Y-58192984D01*
X88871515Y-58120509D01*
X88974009Y-58018015D01*
X89046484Y-57892485D01*
X89084000Y-57752475D01*
X89084000Y-57607525D01*
X89079156Y-57589448D01*
X90713000Y-57589448D01*
X90713000Y-57770551D01*
X90741329Y-57949410D01*
X90797287Y-58121636D01*
X90797288Y-58121639D01*
X90852757Y-58230500D01*
X90874550Y-58273272D01*
X90879506Y-58282997D01*
X90985941Y-58429494D01*
X90985945Y-58429499D01*
X91114000Y-58557554D01*
X91114005Y-58557558D01*
X91210562Y-58627710D01*
X91260506Y-58663996D01*
X91365984Y-58717740D01*
X91421860Y-58746211D01*
X91421863Y-58746212D01*
X91478556Y-58764632D01*
X91594091Y-58802171D01*
X91676929Y-58815291D01*
X91772949Y-58830500D01*
X91772954Y-58830500D01*
X92554051Y-58830500D01*
X92640759Y-58816765D01*
X92732909Y-58802171D01*
X92905139Y-58746211D01*
X93066494Y-58663996D01*
X93213001Y-58557553D01*
X93341053Y-58429501D01*
X93447496Y-58282994D01*
X93529711Y-58121639D01*
X93585671Y-57949409D01*
X93601679Y-57848338D01*
X93614000Y-57770551D01*
X93614000Y-57589448D01*
X93587113Y-57419698D01*
X93585671Y-57410591D01*
X93530078Y-57239491D01*
X93529712Y-57238363D01*
X93529711Y-57238360D01*
X93474243Y-57129500D01*
X93447496Y-57077006D01*
X93433841Y-57058211D01*
X93341058Y-56930505D01*
X93341054Y-56930500D01*
X93212999Y-56802445D01*
X93212994Y-56802441D01*
X93066497Y-56696006D01*
X93066496Y-56696005D01*
X93066494Y-56696004D01*
X93008360Y-56666383D01*
X92905139Y-56613788D01*
X92905136Y-56613787D01*
X92732910Y-56557829D01*
X92554051Y-56529500D01*
X92554046Y-56529500D01*
X91772954Y-56529500D01*
X91772949Y-56529500D01*
X91594089Y-56557829D01*
X91421863Y-56613787D01*
X91421860Y-56613788D01*
X91260502Y-56696006D01*
X91114005Y-56802441D01*
X91114000Y-56802445D01*
X90985945Y-56930500D01*
X90985941Y-56930505D01*
X90879506Y-57077002D01*
X90797288Y-57238360D01*
X90797287Y-57238363D01*
X90741329Y-57410589D01*
X90713000Y-57589448D01*
X89079156Y-57589448D01*
X89046484Y-57467515D01*
X88977203Y-57347518D01*
X88974011Y-57341988D01*
X88974006Y-57341982D01*
X88871517Y-57239493D01*
X88871511Y-57239488D01*
X88745988Y-57167017D01*
X88745989Y-57167017D01*
X88724537Y-57161269D01*
X88605975Y-57129500D01*
X87361025Y-57129500D01*
X87242463Y-57161269D01*
X87221011Y-57167017D01*
X87095488Y-57239488D01*
X87095482Y-57239493D01*
X86992993Y-57341982D01*
X86992988Y-57341988D01*
X86920517Y-57467511D01*
X86920516Y-57467515D01*
X86883000Y-57607525D01*
X86883000Y-57752475D01*
X86914131Y-57868656D01*
X86920517Y-57892488D01*
X86992988Y-58018011D01*
X86992993Y-58018017D01*
X87007181Y-58032205D01*
X87040666Y-58093528D01*
X87043500Y-58119886D01*
X87043500Y-58625500D01*
X87023815Y-58692539D01*
X86971011Y-58738294D01*
X86919500Y-58749500D01*
X85745629Y-58749500D01*
X85745623Y-58749501D01*
X85686016Y-58755908D01*
X85590104Y-58791682D01*
X85546771Y-58799500D01*
X84799972Y-58799500D01*
X84759017Y-58792542D01*
X84679254Y-58764631D01*
X84679249Y-58764630D01*
X84500004Y-58744435D01*
X84499996Y-58744435D01*
X84320750Y-58764630D01*
X84320745Y-58764631D01*
X84150476Y-58824211D01*
X83997738Y-58920183D01*
X83978208Y-58939713D01*
X83959423Y-58955129D01*
X83941586Y-58967047D01*
X83837047Y-59071585D01*
X83754919Y-59194498D01*
X83754912Y-59194511D01*
X83698343Y-59331082D01*
X83698340Y-59331092D01*
X83669500Y-59476079D01*
X83669500Y-59500500D01*
X83649815Y-59567539D01*
X83597011Y-59613294D01*
X83545500Y-59624500D01*
X81681606Y-59624500D01*
X81558393Y-59624500D01*
X81503641Y-59635390D01*
X81448889Y-59646281D01*
X81437550Y-59648536D01*
X81437545Y-59648538D01*
X81323716Y-59695687D01*
X81253726Y-59742454D01*
X81253725Y-59742455D01*
X81221265Y-59764143D01*
X81195904Y-59789505D01*
X81147226Y-59838182D01*
X81085906Y-59871666D01*
X81059547Y-59874500D01*
X80172017Y-59874500D01*
X80104978Y-59854815D01*
X80059223Y-59802011D01*
X80054311Y-59789505D01*
X80038720Y-59742455D01*
X80034814Y-59730666D01*
X79942712Y-59581344D01*
X79818656Y-59457288D01*
X79724301Y-59399090D01*
X79669336Y-59365187D01*
X79669331Y-59365185D01*
X79662046Y-59362771D01*
X79502797Y-59310001D01*
X79502795Y-59310000D01*
X79400016Y-59299500D01*
X79400009Y-59299500D01*
X78735453Y-59299500D01*
X78668414Y-59279815D01*
X78647772Y-59263181D01*
X77786745Y-58402155D01*
X85293500Y-58402155D01*
X85293500Y-58500000D01*
X86543500Y-58500000D01*
X86543500Y-57950000D01*
X85745655Y-57950000D01*
X85686127Y-57956401D01*
X85686120Y-57956403D01*
X85551413Y-58006645D01*
X85551406Y-58006649D01*
X85436312Y-58092809D01*
X85436309Y-58092812D01*
X85350149Y-58207906D01*
X85350145Y-58207913D01*
X85299903Y-58342620D01*
X85299901Y-58342627D01*
X85293500Y-58402155D01*
X77786745Y-58402155D01*
X77232928Y-57848338D01*
X77232925Y-57848334D01*
X77232925Y-57848335D01*
X77225858Y-57841268D01*
X77225858Y-57841267D01*
X77138733Y-57754142D01*
X77086639Y-57719334D01*
X77036286Y-57685688D01*
X77036284Y-57685687D01*
X77036281Y-57685685D01*
X76993316Y-57667889D01*
X76953087Y-57641009D01*
X76922262Y-57610184D01*
X76769521Y-57514210D01*
X76599249Y-57454630D01*
X76529443Y-57446765D01*
X76465029Y-57419698D01*
X76425474Y-57362103D01*
X76422401Y-57347376D01*
X76421689Y-57347518D01*
X76414226Y-57310000D01*
X76407616Y-57276770D01*
X76396463Y-57220696D01*
X76349311Y-57106862D01*
X76316803Y-57058211D01*
X76280858Y-57004415D01*
X76193733Y-56917290D01*
X76193732Y-56917289D01*
X75882137Y-56605694D01*
X75848652Y-56544371D01*
X75846599Y-56531910D01*
X75841294Y-56484819D01*
X75781715Y-56314552D01*
X75778708Y-56309767D01*
X75685741Y-56161811D01*
X75558188Y-56034258D01*
X75405449Y-55938285D01*
X75235180Y-55878705D01*
X75235175Y-55878704D01*
X75055930Y-55858509D01*
X75055922Y-55858509D01*
X74876676Y-55878704D01*
X74876671Y-55878705D01*
X74706400Y-55938286D01*
X74571043Y-56023336D01*
X74503807Y-56042336D01*
X74436971Y-56021968D01*
X74417391Y-56006023D01*
X74318657Y-55907289D01*
X74318656Y-55907288D01*
X74169334Y-55815186D01*
X74002797Y-55760001D01*
X74002795Y-55760000D01*
X73900010Y-55749500D01*
X73099998Y-55749500D01*
X73099980Y-55749501D01*
X72997203Y-55760000D01*
X72997200Y-55760001D01*
X72830668Y-55815185D01*
X72830663Y-55815187D01*
X72681342Y-55907289D01*
X72587681Y-56000951D01*
X72526358Y-56034436D01*
X72456666Y-56029452D01*
X72412319Y-56000951D01*
X72318657Y-55907289D01*
X72318656Y-55907288D01*
X72169334Y-55815186D01*
X72169332Y-55815185D01*
X72163187Y-55811395D01*
X72164290Y-55809605D01*
X72119649Y-55770290D01*
X72100500Y-55704091D01*
X72100500Y-54215638D01*
X72120185Y-54148599D01*
X72159401Y-54110100D01*
X72268656Y-54042712D01*
X72392712Y-53918656D01*
X72394752Y-53915347D01*
X72396745Y-53913555D01*
X72397193Y-53912989D01*
X72397289Y-53913065D01*
X72446694Y-53868623D01*
X72515656Y-53857395D01*
X72579740Y-53885234D01*
X72605829Y-53915339D01*
X72607681Y-53918341D01*
X72607683Y-53918344D01*
X72731654Y-54042315D01*
X72880875Y-54134356D01*
X72880880Y-54134358D01*
X73047302Y-54189505D01*
X73047309Y-54189506D01*
X73150019Y-54199999D01*
X73274999Y-54199999D01*
X73775000Y-54199999D01*
X73899972Y-54199999D01*
X73899986Y-54199998D01*
X74002697Y-54189505D01*
X74169119Y-54134358D01*
X74169124Y-54134356D01*
X74318345Y-54042315D01*
X74442315Y-53918345D01*
X74534356Y-53769124D01*
X74534358Y-53769119D01*
X74589505Y-53602697D01*
X74589506Y-53602690D01*
X74599999Y-53499986D01*
X74600000Y-53499973D01*
X74600000Y-53250000D01*
X73775000Y-53250000D01*
X73775000Y-54199999D01*
X73274999Y-54199999D01*
X73275000Y-54199998D01*
X73275000Y-52750000D01*
X73775000Y-52750000D01*
X74599999Y-52750000D01*
X74599999Y-52500028D01*
X74599998Y-52500013D01*
X74589505Y-52397302D01*
X74534358Y-52230880D01*
X74534356Y-52230875D01*
X74442315Y-52081654D01*
X74318345Y-51957684D01*
X74169124Y-51865643D01*
X74169119Y-51865641D01*
X74002697Y-51810494D01*
X74002690Y-51810493D01*
X73899986Y-51800000D01*
X73775000Y-51800000D01*
X73775000Y-52750000D01*
X73275000Y-52750000D01*
X73275000Y-51800000D01*
X73150027Y-51800000D01*
X73150012Y-51800001D01*
X73047302Y-51810494D01*
X72880880Y-51865641D01*
X72880875Y-51865643D01*
X72731654Y-51957684D01*
X72607683Y-52081655D01*
X72607679Y-52081660D01*
X72605826Y-52084665D01*
X72604018Y-52086290D01*
X72603202Y-52087323D01*
X72603025Y-52087183D01*
X72553874Y-52131385D01*
X72484911Y-52142601D01*
X72420831Y-52114752D01*
X72394753Y-52084653D01*
X72394619Y-52084436D01*
X72392712Y-52081344D01*
X72268656Y-51957288D01*
X72119334Y-51865186D01*
X71952797Y-51810001D01*
X71952795Y-51810000D01*
X71850010Y-51799500D01*
X71099998Y-51799500D01*
X71099980Y-51799501D01*
X70997203Y-51810000D01*
X70997200Y-51810001D01*
X70830668Y-51865185D01*
X70830663Y-51865187D01*
X70681342Y-51957289D01*
X70557289Y-52081342D01*
X70465187Y-52230663D01*
X70465185Y-52230668D01*
X70458779Y-52250000D01*
X70410001Y-52397203D01*
X70410001Y-52397204D01*
X70410000Y-52397204D01*
X70399500Y-52499983D01*
X70399500Y-53500001D01*
X70399501Y-53500019D01*
X70410000Y-53602796D01*
X70410001Y-53602799D01*
X70465115Y-53769119D01*
X70465186Y-53769334D01*
X70557288Y-53918656D01*
X70681344Y-54042712D01*
X70830666Y-54134814D01*
X70830667Y-54134814D01*
X70836813Y-54138605D01*
X70835706Y-54140399D01*
X70880337Y-54179687D01*
X70899500Y-54245908D01*
X70899500Y-55704091D01*
X70879815Y-55771130D01*
X70835730Y-55809641D01*
X70836812Y-55811395D01*
X70675964Y-55910606D01*
X70608572Y-55929046D01*
X70541908Y-55908123D01*
X70505874Y-55871039D01*
X70474506Y-55821117D01*
X70455500Y-55755145D01*
X70455500Y-55578393D01*
X70455499Y-55578389D01*
X70431464Y-55457555D01*
X70431463Y-55457548D01*
X70384311Y-55343714D01*
X70384310Y-55343713D01*
X70384307Y-55343707D01*
X70315858Y-55241267D01*
X70315855Y-55241263D01*
X70225637Y-55151045D01*
X70225606Y-55151016D01*
X68102932Y-53028342D01*
X68069447Y-52967019D01*
X68067324Y-52927409D01*
X68070500Y-52897873D01*
X68070499Y-51123999D01*
X68090184Y-51056961D01*
X68142987Y-51011206D01*
X68194499Y-51000000D01*
X75405500Y-51000000D01*
X75472539Y-51019685D01*
G37*
%TD.AperFunction*%
%TA.AperFunction,Conductor*%
G36*
X77193039Y-60269685D02*
G01*
X77238794Y-60322489D01*
X77250000Y-60374000D01*
X77250000Y-61699999D01*
X77399972Y-61699999D01*
X77399986Y-61699998D01*
X77502697Y-61689505D01*
X77669119Y-61634358D01*
X77669124Y-61634356D01*
X77818342Y-61542317D01*
X77911964Y-61448695D01*
X77973287Y-61415210D01*
X78042979Y-61420194D01*
X78087327Y-61448695D01*
X78181344Y-61542712D01*
X78330666Y-61634814D01*
X78497203Y-61689999D01*
X78599991Y-61700500D01*
X79400008Y-61700499D01*
X79400016Y-61700498D01*
X79400019Y-61700498D01*
X79462895Y-61694075D01*
X79502797Y-61689999D01*
X79669334Y-61634814D01*
X79818656Y-61542712D01*
X79942712Y-61418656D01*
X80034814Y-61269334D01*
X80054311Y-61210493D01*
X80094084Y-61153051D01*
X80158600Y-61126228D01*
X80172017Y-61125500D01*
X80540063Y-61125500D01*
X80607102Y-61145185D01*
X80652857Y-61197989D01*
X80662801Y-61267147D01*
X80645057Y-61315472D01*
X80604211Y-61380477D01*
X80544631Y-61550745D01*
X80544630Y-61550750D01*
X80524435Y-61729996D01*
X80524435Y-61730003D01*
X80544630Y-61909249D01*
X80544631Y-61909254D01*
X80604211Y-62079523D01*
X80685980Y-62209656D01*
X80700184Y-62232262D01*
X80827738Y-62359816D01*
X80980478Y-62455789D01*
X81106826Y-62500000D01*
X81130997Y-62508458D01*
X81187773Y-62549180D01*
X81213520Y-62614133D01*
X81200064Y-62682695D01*
X81151676Y-62733097D01*
X81090042Y-62749500D01*
X80752940Y-62749500D01*
X80685901Y-62729815D01*
X80665259Y-62713181D01*
X80582262Y-62630184D01*
X80429523Y-62534211D01*
X80259254Y-62474631D01*
X80259249Y-62474630D01*
X80080004Y-62454435D01*
X80079996Y-62454435D01*
X79897652Y-62474979D01*
X79828830Y-62462924D01*
X79818673Y-62457298D01*
X79669340Y-62365189D01*
X79669335Y-62365187D01*
X79669334Y-62365186D01*
X79502797Y-62310001D01*
X79502795Y-62310000D01*
X79400010Y-62299500D01*
X78599998Y-62299500D01*
X78599980Y-62299501D01*
X78497203Y-62310000D01*
X78497200Y-62310001D01*
X78330668Y-62365185D01*
X78330663Y-62365187D01*
X78181345Y-62457287D01*
X78087327Y-62551305D01*
X78026003Y-62584789D01*
X77956312Y-62579805D01*
X77911965Y-62551304D01*
X77818345Y-62457684D01*
X77669124Y-62365643D01*
X77669119Y-62365641D01*
X77502697Y-62310494D01*
X77502690Y-62310493D01*
X77399986Y-62300000D01*
X77250000Y-62300000D01*
X77250000Y-64699999D01*
X77399972Y-64699999D01*
X77399986Y-64699998D01*
X77502697Y-64689505D01*
X77669119Y-64634358D01*
X77669124Y-64634356D01*
X77818342Y-64542317D01*
X77911964Y-64448695D01*
X77973287Y-64415210D01*
X78042979Y-64420194D01*
X78087327Y-64448695D01*
X78181344Y-64542712D01*
X78330666Y-64634814D01*
X78497203Y-64689999D01*
X78599991Y-64700500D01*
X79400008Y-64700499D01*
X79400016Y-64700498D01*
X79400019Y-64700498D01*
X79456302Y-64694748D01*
X79502797Y-64689999D01*
X79669334Y-64634814D01*
X79818656Y-64542712D01*
X79942712Y-64418656D01*
X80034814Y-64269334D01*
X80078241Y-64138278D01*
X80118012Y-64080836D01*
X80182061Y-64054065D01*
X80259255Y-64045368D01*
X80259258Y-64045367D01*
X80259262Y-64045366D01*
X80367593Y-64007459D01*
X80408548Y-64000500D01*
X82990492Y-64000500D01*
X82990492Y-64000499D01*
X83051358Y-63988393D01*
X83051359Y-63988393D01*
X83066455Y-63985390D01*
X83111336Y-63976463D01*
X83164813Y-63954312D01*
X83225170Y-63929312D01*
X83274427Y-63896398D01*
X83341102Y-63875520D01*
X83343318Y-63875500D01*
X83608894Y-63875500D01*
X83675933Y-63895185D01*
X83721688Y-63947989D01*
X83731632Y-64017147D01*
X83723455Y-64046952D01*
X83658146Y-64204621D01*
X83658143Y-64204633D01*
X83624500Y-64373766D01*
X83624500Y-67579369D01*
X83655736Y-67736399D01*
X83658145Y-67748510D01*
X83674088Y-67786999D01*
X83675765Y-67791048D01*
X83683233Y-67860518D01*
X83651957Y-67922997D01*
X83591868Y-67958649D01*
X83561204Y-67962500D01*
X83475029Y-67962500D01*
X83475012Y-67962501D01*
X83372302Y-67972994D01*
X83205880Y-68028141D01*
X83205875Y-68028143D01*
X83056654Y-68120184D01*
X82932684Y-68244154D01*
X82840643Y-68393375D01*
X82840641Y-68393380D01*
X82785494Y-68559802D01*
X82785493Y-68559809D01*
X82775000Y-68662513D01*
X82775000Y-68800000D01*
X84126000Y-68800000D01*
X84193039Y-68819685D01*
X84238794Y-68872489D01*
X84250000Y-68924000D01*
X84250000Y-69176000D01*
X84230315Y-69243039D01*
X84177511Y-69288794D01*
X84126000Y-69300000D01*
X82775001Y-69300000D01*
X82775001Y-69437486D01*
X82785494Y-69540197D01*
X82840641Y-69706619D01*
X82840643Y-69706624D01*
X82932684Y-69855845D01*
X83056655Y-69979816D01*
X83056659Y-69979819D01*
X83059656Y-69981668D01*
X83061279Y-69983472D01*
X83062323Y-69984298D01*
X83062181Y-69984476D01*
X83106381Y-70033616D01*
X83117602Y-70102579D01*
X83089759Y-70166661D01*
X83059661Y-70192741D01*
X83056349Y-70194783D01*
X83056343Y-70194788D01*
X83037951Y-70213181D01*
X82976628Y-70246666D01*
X82950270Y-70249500D01*
X81438768Y-70249500D01*
X81269633Y-70283143D01*
X81269621Y-70283146D01*
X81110301Y-70349138D01*
X81110288Y-70349145D01*
X80966904Y-70444952D01*
X80961170Y-70450686D01*
X80899845Y-70484168D01*
X80873493Y-70487000D01*
X80299998Y-70487000D01*
X80299980Y-70487001D01*
X80197203Y-70497500D01*
X80197200Y-70497501D01*
X80030668Y-70552685D01*
X80030663Y-70552687D01*
X79881342Y-70644789D01*
X79787951Y-70738181D01*
X79726628Y-70771666D01*
X79700270Y-70774500D01*
X79614006Y-70774500D01*
X79546967Y-70754815D01*
X79526325Y-70738181D01*
X79286819Y-70498675D01*
X79253334Y-70437352D01*
X79250500Y-70410994D01*
X79250500Y-69024995D01*
X79250499Y-69024982D01*
X79247756Y-68998137D01*
X79246668Y-68987486D01*
X79600001Y-68987486D01*
X79610494Y-69090197D01*
X79665641Y-69256619D01*
X79665643Y-69256624D01*
X79757684Y-69405845D01*
X79881654Y-69529815D01*
X80030875Y-69621856D01*
X80030880Y-69621858D01*
X80197302Y-69677005D01*
X80197309Y-69677006D01*
X80300019Y-69687499D01*
X80749999Y-69687499D01*
X81250000Y-69687499D01*
X81699972Y-69687499D01*
X81699986Y-69687498D01*
X81802697Y-69677005D01*
X81969119Y-69621858D01*
X81969124Y-69621856D01*
X82118345Y-69529815D01*
X82242315Y-69405845D01*
X82334356Y-69256624D01*
X82334358Y-69256619D01*
X82389505Y-69090197D01*
X82389506Y-69090190D01*
X82399999Y-68987486D01*
X82400000Y-68987473D01*
X82400000Y-68775000D01*
X81250000Y-68775000D01*
X81250000Y-69687499D01*
X80749999Y-69687499D01*
X80750000Y-69687498D01*
X80750000Y-68775000D01*
X79600001Y-68775000D01*
X79600001Y-68987486D01*
X79246668Y-68987486D01*
X79239999Y-68922202D01*
X79184814Y-68755665D01*
X79092712Y-68606344D01*
X78968656Y-68482288D01*
X78856960Y-68413393D01*
X78819337Y-68390187D01*
X78819332Y-68390185D01*
X78805607Y-68385637D01*
X78652798Y-68335001D01*
X78652796Y-68335000D01*
X78550017Y-68324500D01*
X78550010Y-68324500D01*
X77549990Y-68324500D01*
X77549982Y-68324500D01*
X77447203Y-68335000D01*
X77447202Y-68335001D01*
X77412552Y-68346483D01*
X77280667Y-68390185D01*
X77280662Y-68390187D01*
X77131342Y-68482289D01*
X77111790Y-68501841D01*
X77050467Y-68535325D01*
X76980775Y-68530339D01*
X76936430Y-68501839D01*
X76686819Y-68252228D01*
X76653334Y-68190905D01*
X76650500Y-68164547D01*
X76650500Y-68062513D01*
X79600000Y-68062513D01*
X79600000Y-68275000D01*
X80750000Y-68275000D01*
X81250000Y-68275000D01*
X82399999Y-68275000D01*
X82399999Y-68062528D01*
X82399998Y-68062513D01*
X82389505Y-67959802D01*
X82334358Y-67793380D01*
X82334356Y-67793375D01*
X82242315Y-67644154D01*
X82118345Y-67520184D01*
X81969124Y-67428143D01*
X81969119Y-67428141D01*
X81802697Y-67372994D01*
X81802690Y-67372993D01*
X81699986Y-67362500D01*
X81250000Y-67362500D01*
X81250000Y-68275000D01*
X80750000Y-68275000D01*
X80750000Y-67362500D01*
X80300028Y-67362500D01*
X80300012Y-67362501D01*
X80197302Y-67372994D01*
X80030880Y-67428141D01*
X80030875Y-67428143D01*
X79881654Y-67520184D01*
X79757684Y-67644154D01*
X79665643Y-67793375D01*
X79665641Y-67793380D01*
X79610494Y-67959802D01*
X79610493Y-67959809D01*
X79600000Y-68062513D01*
X76650500Y-68062513D01*
X76650500Y-64823999D01*
X76670185Y-64756960D01*
X76722989Y-64711205D01*
X76743188Y-64706810D01*
X76750000Y-64699999D01*
X76750000Y-62300000D01*
X76600027Y-62300000D01*
X76600012Y-62300001D01*
X76497302Y-62310494D01*
X76330880Y-62365641D01*
X76330875Y-62365643D01*
X76181654Y-62457684D01*
X76057684Y-62581654D01*
X75965643Y-62730875D01*
X75965641Y-62730880D01*
X75909365Y-62900711D01*
X75869592Y-62958156D01*
X75805076Y-62984979D01*
X75736301Y-62972664D01*
X75703978Y-62949388D01*
X75610198Y-62855608D01*
X75610178Y-62855586D01*
X75518735Y-62764143D01*
X75496820Y-62749500D01*
X75453743Y-62720717D01*
X75453744Y-62720717D01*
X75453742Y-62720715D01*
X75416290Y-62695690D01*
X75410913Y-62692816D01*
X75411870Y-62691024D01*
X75364705Y-62652998D01*
X75343639Y-62598485D01*
X75336010Y-62540536D01*
X75336009Y-62540528D01*
X75336005Y-62540520D01*
X75333906Y-62532682D01*
X75337007Y-62531850D01*
X75331128Y-62477382D01*
X75334137Y-62467425D01*
X75333408Y-62467230D01*
X75333875Y-62465485D01*
X75335558Y-62462720D01*
X75339390Y-62450044D01*
X75339416Y-62449984D01*
X75342502Y-62451321D01*
X75370222Y-62405814D01*
X75429469Y-62375925D01*
X75431606Y-62375500D01*
X75431607Y-62375500D01*
X75531321Y-62355666D01*
X75531322Y-62355666D01*
X75552447Y-62351464D01*
X75552447Y-62351463D01*
X75552452Y-62351463D01*
X75552457Y-62351460D01*
X75552460Y-62351460D01*
X75585787Y-62337654D01*
X75585786Y-62337654D01*
X75585792Y-62337652D01*
X75666286Y-62304312D01*
X75718709Y-62269283D01*
X75718710Y-62269283D01*
X75751830Y-62247151D01*
X75768733Y-62235858D01*
X75855858Y-62148733D01*
X75855859Y-62148730D01*
X75862925Y-62141665D01*
X75862928Y-62141661D01*
X76281661Y-61722927D01*
X76281675Y-61722916D01*
X76306353Y-61698238D01*
X76367675Y-61664751D01*
X76433039Y-61668211D01*
X76497305Y-61689506D01*
X76600019Y-61699999D01*
X76749999Y-61699999D01*
X76750000Y-61699998D01*
X76750000Y-60374000D01*
X76769685Y-60306961D01*
X76822489Y-60261206D01*
X76874000Y-60250000D01*
X77126000Y-60250000D01*
X77193039Y-60269685D01*
G37*
%TD.AperFunction*%
%TA.AperFunction,Conductor*%
G36*
X60735571Y-65215185D02*
G01*
X60781326Y-65267989D01*
X60791270Y-65337147D01*
X60762245Y-65400703D01*
X60733630Y-65425037D01*
X60705405Y-65442447D01*
X60681342Y-65457289D01*
X60557289Y-65581342D01*
X60465187Y-65730663D01*
X60465185Y-65730668D01*
X60451667Y-65771463D01*
X60410001Y-65897203D01*
X60410001Y-65897204D01*
X60410000Y-65897204D01*
X60399500Y-65999983D01*
X60399500Y-67000001D01*
X60399501Y-67000019D01*
X60410000Y-67102796D01*
X60410001Y-67102799D01*
X60465185Y-67269331D01*
X60465187Y-67269336D01*
X60499999Y-67325776D01*
X60557288Y-67418656D01*
X60681344Y-67542712D01*
X60799334Y-67615488D01*
X60846058Y-67667436D01*
X60857281Y-67736399D01*
X60839231Y-67786999D01*
X60774211Y-67890476D01*
X60714631Y-68060745D01*
X60714630Y-68060750D01*
X60694435Y-68239996D01*
X60694435Y-68240003D01*
X60714630Y-68419249D01*
X60714631Y-68419254D01*
X60774211Y-68589522D01*
X60788461Y-68612201D01*
X60807461Y-68679437D01*
X60787093Y-68746273D01*
X60733826Y-68791487D01*
X60718073Y-68797246D01*
X60714610Y-68798252D01*
X60714603Y-68798255D01*
X60573137Y-68881917D01*
X60573129Y-68881923D01*
X60456923Y-68998129D01*
X60456917Y-68998137D01*
X60373255Y-69139603D01*
X60373254Y-69139606D01*
X60327402Y-69297426D01*
X60327401Y-69297432D01*
X60324500Y-69334298D01*
X60324500Y-69765701D01*
X60327401Y-69802567D01*
X60327402Y-69802573D01*
X60373254Y-69960393D01*
X60373255Y-69960396D01*
X60373256Y-69960398D01*
X60385835Y-69981668D01*
X60456917Y-70101862D01*
X60456923Y-70101870D01*
X60573129Y-70218076D01*
X60573133Y-70218079D01*
X60573135Y-70218081D01*
X60714602Y-70301744D01*
X60746010Y-70310869D01*
X60816759Y-70331424D01*
X60875645Y-70369030D01*
X60904851Y-70432503D01*
X60895105Y-70501689D01*
X60849501Y-70554624D01*
X60782518Y-70574499D01*
X60782164Y-70574500D01*
X59072292Y-70574500D01*
X59007196Y-70556039D01*
X58969340Y-70532689D01*
X58969335Y-70532687D01*
X58969334Y-70532686D01*
X58802797Y-70477501D01*
X58802795Y-70477500D01*
X58700010Y-70467000D01*
X57299998Y-70467000D01*
X57299981Y-70467001D01*
X57197203Y-70477500D01*
X57197199Y-70477501D01*
X57098504Y-70510206D01*
X57028675Y-70512608D01*
X56968633Y-70476876D01*
X56937441Y-70414355D01*
X56935500Y-70392500D01*
X56935500Y-69741972D01*
X56955185Y-69674933D01*
X57007989Y-69629178D01*
X57077147Y-69619234D01*
X57098504Y-69624266D01*
X57197302Y-69657005D01*
X57197309Y-69657006D01*
X57300019Y-69667499D01*
X57749999Y-69667499D01*
X58250000Y-69667499D01*
X58699972Y-69667499D01*
X58699986Y-69667498D01*
X58802697Y-69657005D01*
X58969119Y-69601858D01*
X58969124Y-69601856D01*
X59118345Y-69509815D01*
X59242315Y-69385845D01*
X59334356Y-69236624D01*
X59334358Y-69236619D01*
X59389505Y-69070197D01*
X59389506Y-69070190D01*
X59399999Y-68967486D01*
X59400000Y-68967473D01*
X59400000Y-68755000D01*
X58250000Y-68755000D01*
X58250000Y-69667499D01*
X57749999Y-69667499D01*
X57750000Y-69667498D01*
X57750000Y-68255000D01*
X58250000Y-68255000D01*
X59399999Y-68255000D01*
X59399999Y-68042528D01*
X59399998Y-68042513D01*
X59389505Y-67939802D01*
X59334358Y-67773380D01*
X59334356Y-67773375D01*
X59242315Y-67624154D01*
X59118345Y-67500184D01*
X58969124Y-67408143D01*
X58969119Y-67408141D01*
X58802697Y-67352994D01*
X58802690Y-67352993D01*
X58699986Y-67342500D01*
X58250000Y-67342500D01*
X58250000Y-68255000D01*
X57750000Y-68255000D01*
X57750000Y-67342500D01*
X57300028Y-67342500D01*
X57300012Y-67342501D01*
X57197302Y-67352994D01*
X57098504Y-67385733D01*
X57028676Y-67388135D01*
X56968634Y-67352403D01*
X56937441Y-67289883D01*
X56935500Y-67268027D01*
X56935500Y-66050452D01*
X56955185Y-65983413D01*
X56971819Y-65962771D01*
X57702771Y-65231819D01*
X57764094Y-65198334D01*
X57790452Y-65195500D01*
X60668532Y-65195500D01*
X60735571Y-65215185D01*
G37*
%TD.AperFunction*%
%TA.AperFunction,Conductor*%
G36*
X60520999Y-51019685D02*
G01*
X60566754Y-51072489D01*
X60576698Y-51141647D01*
X60555535Y-51195123D01*
X60466400Y-51322420D01*
X60466399Y-51322422D01*
X60366570Y-51536507D01*
X60366567Y-51536513D01*
X60309364Y-51749999D01*
X60309364Y-51750000D01*
X61206988Y-51750000D01*
X61174075Y-51807007D01*
X61140000Y-51934174D01*
X61140000Y-52065826D01*
X61174075Y-52192993D01*
X61206988Y-52250000D01*
X60309364Y-52250000D01*
X60366567Y-52463486D01*
X60366570Y-52463492D01*
X60466399Y-52677578D01*
X60601894Y-52871082D01*
X60768917Y-53038105D01*
X60962421Y-53173600D01*
X61176507Y-53273429D01*
X61176516Y-53273433D01*
X61390000Y-53330634D01*
X61390000Y-52433012D01*
X61447007Y-52465925D01*
X61574174Y-52500000D01*
X61705826Y-52500000D01*
X61832993Y-52465925D01*
X61890000Y-52433012D01*
X61890000Y-53330633D01*
X62103483Y-53273433D01*
X62103492Y-53273429D01*
X62317578Y-53173600D01*
X62511082Y-53038105D01*
X62678105Y-52871082D01*
X62808119Y-52685405D01*
X62862696Y-52641781D01*
X62932195Y-52634588D01*
X62994549Y-52666110D01*
X63011269Y-52685405D01*
X63141505Y-52871401D01*
X63308599Y-53038495D01*
X63405384Y-53106265D01*
X63502165Y-53174032D01*
X63502167Y-53174033D01*
X63502170Y-53174035D01*
X63716337Y-53273903D01*
X63944592Y-53335063D01*
X64121034Y-53350500D01*
X64179999Y-53355659D01*
X64180000Y-53355659D01*
X64180001Y-53355659D01*
X64238966Y-53350500D01*
X64415408Y-53335063D01*
X64515873Y-53308143D01*
X64585722Y-53309806D01*
X64635647Y-53340237D01*
X67418229Y-56122819D01*
X67451714Y-56184142D01*
X67446730Y-56253834D01*
X67404858Y-56309767D01*
X67339394Y-56334184D01*
X67330549Y-56334500D01*
X67127499Y-56334500D01*
X67127480Y-56334501D01*
X67024703Y-56345000D01*
X67024700Y-56345001D01*
X66858168Y-56400185D01*
X66858163Y-56400187D01*
X66708842Y-56492289D01*
X66584788Y-56616343D01*
X66584783Y-56616349D01*
X66582741Y-56619661D01*
X66580747Y-56621453D01*
X66580307Y-56622011D01*
X66580211Y-56621935D01*
X66530791Y-56666383D01*
X66461828Y-56677602D01*
X66397747Y-56649755D01*
X66371668Y-56619656D01*
X66369819Y-56616659D01*
X66369816Y-56616655D01*
X66245845Y-56492684D01*
X66096624Y-56400643D01*
X66096619Y-56400641D01*
X65930197Y-56345494D01*
X65930190Y-56345493D01*
X65827486Y-56335000D01*
X65690000Y-56335000D01*
X65690000Y-58784999D01*
X65827472Y-58784999D01*
X65827486Y-58784998D01*
X65930197Y-58774505D01*
X66096619Y-58719358D01*
X66096624Y-58719356D01*
X66245845Y-58627315D01*
X66369818Y-58503342D01*
X66371665Y-58500348D01*
X66373469Y-58498724D01*
X66374298Y-58497677D01*
X66374476Y-58497818D01*
X66423610Y-58453621D01*
X66492573Y-58442396D01*
X66556656Y-58470236D01*
X66582743Y-58500341D01*
X66584788Y-58503656D01*
X66708844Y-58627712D01*
X66858166Y-58719814D01*
X67024703Y-58774999D01*
X67127491Y-58785500D01*
X67902508Y-58785499D01*
X67902516Y-58785498D01*
X67902519Y-58785498D01*
X67958802Y-58779748D01*
X68005297Y-58774999D01*
X68171834Y-58719814D01*
X68321156Y-58627712D01*
X68445212Y-58503656D01*
X68537314Y-58354334D01*
X68565095Y-58270495D01*
X68604868Y-58213051D01*
X68669384Y-58186228D01*
X68682801Y-58185500D01*
X69359548Y-58185500D01*
X69426587Y-58205185D01*
X69447229Y-58221819D01*
X70588181Y-59362771D01*
X70621666Y-59424094D01*
X70624500Y-59450452D01*
X70624500Y-60000500D01*
X70604815Y-60067539D01*
X70552011Y-60113294D01*
X70500500Y-60124500D01*
X68774499Y-60124500D01*
X68707460Y-60104815D01*
X68661705Y-60052011D01*
X68650499Y-60000500D01*
X68650499Y-59829998D01*
X68650498Y-59829981D01*
X68639999Y-59727203D01*
X68639998Y-59727200D01*
X68629556Y-59695689D01*
X68584814Y-59560666D01*
X68492712Y-59411344D01*
X68368656Y-59287288D01*
X68219334Y-59195186D01*
X68052797Y-59140001D01*
X68052795Y-59140000D01*
X67950010Y-59129500D01*
X67149998Y-59129500D01*
X67149980Y-59129501D01*
X67047203Y-59140000D01*
X67047200Y-59140001D01*
X66880668Y-59195185D01*
X66880663Y-59195187D01*
X66731345Y-59287287D01*
X66637327Y-59381305D01*
X66576003Y-59414789D01*
X66506312Y-59409805D01*
X66461965Y-59381304D01*
X66368345Y-59287684D01*
X66219124Y-59195643D01*
X66219119Y-59195641D01*
X66052697Y-59140494D01*
X66052690Y-59140493D01*
X65949986Y-59130000D01*
X65800000Y-59130000D01*
X65800000Y-61529999D01*
X65949972Y-61529999D01*
X65949986Y-61529998D01*
X66052697Y-61519505D01*
X66219119Y-61464358D01*
X66219124Y-61464356D01*
X66368342Y-61372317D01*
X66461964Y-61278695D01*
X66523287Y-61245210D01*
X66592979Y-61250194D01*
X66637327Y-61278695D01*
X66731344Y-61372712D01*
X66880666Y-61464814D01*
X67028963Y-61513954D01*
X67086407Y-61553727D01*
X67113230Y-61618242D01*
X67100915Y-61687018D01*
X67091968Y-61700829D01*
X67092526Y-61701202D01*
X67020690Y-61808708D01*
X67020688Y-61808713D01*
X66993024Y-61875499D01*
X66993025Y-61875500D01*
X66975714Y-61917294D01*
X66975711Y-61917300D01*
X66971206Y-61928175D01*
X66969112Y-61927307D01*
X66936359Y-61977278D01*
X66921101Y-61988376D01*
X66918167Y-61990185D01*
X66918166Y-61990186D01*
X66902255Y-62000000D01*
X66768842Y-62082289D01*
X66644788Y-62206343D01*
X66644783Y-62206349D01*
X66642741Y-62209661D01*
X66640747Y-62211453D01*
X66640307Y-62212011D01*
X66640211Y-62211935D01*
X66590791Y-62256383D01*
X66521828Y-62267602D01*
X66457747Y-62239755D01*
X66431668Y-62209656D01*
X66429819Y-62206659D01*
X66429816Y-62206655D01*
X66305845Y-62082684D01*
X66156624Y-61990643D01*
X66156619Y-61990641D01*
X65990197Y-61935494D01*
X65990190Y-61935493D01*
X65887486Y-61925000D01*
X65750000Y-61925000D01*
X65750000Y-64374999D01*
X65887472Y-64374999D01*
X65887486Y-64374998D01*
X65990197Y-64364505D01*
X66156619Y-64309358D01*
X66156624Y-64309356D01*
X66305845Y-64217315D01*
X66429818Y-64093342D01*
X66431665Y-64090348D01*
X66433469Y-64088724D01*
X66434298Y-64087677D01*
X66434476Y-64087818D01*
X66483610Y-64043621D01*
X66552573Y-64032396D01*
X66616656Y-64060236D01*
X66642743Y-64090341D01*
X66644788Y-64093656D01*
X66768844Y-64217712D01*
X66918166Y-64309814D01*
X67084703Y-64364999D01*
X67187491Y-64375500D01*
X67962508Y-64375499D01*
X67962516Y-64375498D01*
X67962519Y-64375498D01*
X68018802Y-64369748D01*
X68065297Y-64364999D01*
X68231834Y-64309814D01*
X68381156Y-64217712D01*
X68409902Y-64188965D01*
X68471224Y-64155480D01*
X68538539Y-64159605D01*
X68640738Y-64195366D01*
X68640741Y-64195366D01*
X68640745Y-64195368D01*
X68640748Y-64195368D01*
X68641340Y-64195504D01*
X68641689Y-64195699D01*
X68647318Y-64197669D01*
X68646973Y-64198654D01*
X68702319Y-64229611D01*
X68730792Y-64275441D01*
X68774209Y-64399519D01*
X68774211Y-64399522D01*
X68870184Y-64552262D01*
X68952096Y-64634174D01*
X68964650Y-64646728D01*
X68998134Y-64708052D01*
X68994010Y-64775362D01*
X68974631Y-64830745D01*
X68974631Y-64830746D01*
X68954435Y-65009996D01*
X68954435Y-65010003D01*
X68971517Y-65161617D01*
X68959462Y-65230439D01*
X68912113Y-65281818D01*
X68848297Y-65299500D01*
X68099998Y-65299500D01*
X68099980Y-65299501D01*
X67997203Y-65310000D01*
X67997200Y-65310001D01*
X67830668Y-65365185D01*
X67830663Y-65365187D01*
X67681342Y-65457289D01*
X67587681Y-65550951D01*
X67526358Y-65584436D01*
X67456666Y-65579452D01*
X67412319Y-65550951D01*
X67318657Y-65457289D01*
X67318656Y-65457288D01*
X67225888Y-65400069D01*
X67169336Y-65365187D01*
X67169331Y-65365185D01*
X67167862Y-65364698D01*
X67002797Y-65310001D01*
X67002795Y-65310000D01*
X66900016Y-65299500D01*
X66900009Y-65299500D01*
X66235452Y-65299500D01*
X66168413Y-65279815D01*
X66147771Y-65263181D01*
X65286319Y-64401729D01*
X65252834Y-64340406D01*
X65250000Y-64314048D01*
X65250000Y-63400000D01*
X64412501Y-63400000D01*
X64412501Y-63674986D01*
X64422993Y-63777695D01*
X64424253Y-63781495D01*
X64424338Y-63783980D01*
X64424411Y-63784319D01*
X64424350Y-63784331D01*
X64426655Y-63851323D01*
X64390924Y-63911366D01*
X64328404Y-63942559D01*
X64306547Y-63944500D01*
X57418393Y-63944500D01*
X57401440Y-63947872D01*
X57401439Y-63947871D01*
X57297555Y-63968535D01*
X57297545Y-63968538D01*
X57259872Y-63984143D01*
X57259871Y-63984143D01*
X57183716Y-64015686D01*
X57177751Y-64019673D01*
X57177747Y-64019676D01*
X57081268Y-64084140D01*
X57049721Y-64115688D01*
X56994142Y-64171267D01*
X56994139Y-64171270D01*
X55911270Y-65254139D01*
X55911267Y-65254142D01*
X55885594Y-65279815D01*
X55824141Y-65341267D01*
X55808158Y-65365186D01*
X55808159Y-65365187D01*
X55755689Y-65443712D01*
X55755685Y-65443719D01*
X55708540Y-65557538D01*
X55708537Y-65557546D01*
X55688984Y-65655855D01*
X55688983Y-65655860D01*
X55684500Y-65678394D01*
X55684500Y-68346483D01*
X55664815Y-68413522D01*
X55612011Y-68459277D01*
X55547899Y-68469841D01*
X55524990Y-68467500D01*
X55250000Y-68467500D01*
X55250000Y-69681000D01*
X55230315Y-69748039D01*
X55177511Y-69793794D01*
X55126000Y-69805000D01*
X54874000Y-69805000D01*
X54806961Y-69785315D01*
X54761206Y-69732511D01*
X54750000Y-69681000D01*
X54750000Y-68467500D01*
X54475029Y-68467500D01*
X54475012Y-68467501D01*
X54372302Y-68477994D01*
X54205880Y-68533141D01*
X54205875Y-68533143D01*
X54056654Y-68625184D01*
X53932684Y-68749154D01*
X53840643Y-68898375D01*
X53840641Y-68898380D01*
X53820717Y-68958509D01*
X53780944Y-69015954D01*
X53716429Y-69042777D01*
X53647653Y-69030462D01*
X53615330Y-69007186D01*
X52686631Y-68078487D01*
X52653146Y-68017164D01*
X52658130Y-67947472D01*
X52672740Y-67919678D01*
X52674035Y-67917830D01*
X52773903Y-67703663D01*
X52835063Y-67475408D01*
X52855659Y-67240000D01*
X52838371Y-67042409D01*
X52852137Y-66973913D01*
X52874215Y-66943927D01*
X53655045Y-66163099D01*
X53750858Y-66019705D01*
X53816855Y-65860374D01*
X53850500Y-65691229D01*
X53850500Y-65518771D01*
X53850500Y-62625013D01*
X64412500Y-62625013D01*
X64412500Y-62900000D01*
X65250000Y-62900000D01*
X65250000Y-61925000D01*
X65112527Y-61925000D01*
X65112512Y-61925001D01*
X65009802Y-61935494D01*
X64843380Y-61990641D01*
X64843375Y-61990643D01*
X64694154Y-62082684D01*
X64570184Y-62206654D01*
X64478143Y-62355875D01*
X64478141Y-62355880D01*
X64422994Y-62522302D01*
X64422993Y-62522309D01*
X64412500Y-62625013D01*
X53850500Y-62625013D01*
X53850500Y-60829986D01*
X64450001Y-60829986D01*
X64460494Y-60932697D01*
X64515641Y-61099119D01*
X64515643Y-61099124D01*
X64607684Y-61248345D01*
X64731654Y-61372315D01*
X64880875Y-61464356D01*
X64880880Y-61464358D01*
X65047302Y-61519505D01*
X65047309Y-61519506D01*
X65150019Y-61529999D01*
X65299999Y-61529999D01*
X65300000Y-61529998D01*
X65300000Y-60580000D01*
X64450001Y-60580000D01*
X64450001Y-60829986D01*
X53850500Y-60829986D01*
X53850500Y-59830013D01*
X64450000Y-59830013D01*
X64450000Y-60080000D01*
X65300000Y-60080000D01*
X65300000Y-59130000D01*
X65150027Y-59130000D01*
X65150012Y-59130001D01*
X65047302Y-59140494D01*
X64880880Y-59195641D01*
X64880875Y-59195643D01*
X64731654Y-59287684D01*
X64607684Y-59411654D01*
X64515643Y-59560875D01*
X64515641Y-59560880D01*
X64460494Y-59727302D01*
X64460493Y-59727309D01*
X64450000Y-59830013D01*
X53850500Y-59830013D01*
X53850500Y-58308771D01*
X53850500Y-58308768D01*
X53850499Y-58308766D01*
X53848556Y-58298998D01*
X53816855Y-58139626D01*
X53808937Y-58120511D01*
X53794222Y-58084986D01*
X64352501Y-58084986D01*
X64362994Y-58187697D01*
X64418141Y-58354119D01*
X64418143Y-58354124D01*
X64510184Y-58503345D01*
X64634154Y-58627315D01*
X64783375Y-58719356D01*
X64783380Y-58719358D01*
X64949802Y-58774505D01*
X64949809Y-58774506D01*
X65052519Y-58784999D01*
X65189999Y-58784999D01*
X65190000Y-58784998D01*
X65190000Y-57810000D01*
X64352501Y-57810000D01*
X64352501Y-58084986D01*
X53794222Y-58084986D01*
X53750861Y-57980301D01*
X53750854Y-57980288D01*
X53655046Y-57836902D01*
X53628144Y-57810000D01*
X53533099Y-57714955D01*
X52886818Y-57068674D01*
X52868438Y-57035013D01*
X64352500Y-57035013D01*
X64352500Y-57310000D01*
X65190000Y-57310000D01*
X65190000Y-56335000D01*
X65052527Y-56335000D01*
X65052512Y-56335001D01*
X64949802Y-56345494D01*
X64783380Y-56400641D01*
X64783375Y-56400643D01*
X64634154Y-56492684D01*
X64510184Y-56616654D01*
X64418143Y-56765875D01*
X64418141Y-56765880D01*
X64362994Y-56932302D01*
X64362993Y-56932309D01*
X64352500Y-57035013D01*
X52868438Y-57035013D01*
X52853333Y-57007351D01*
X52850499Y-56980993D01*
X52850499Y-56182129D01*
X52850498Y-56182123D01*
X52844091Y-56122516D01*
X52793797Y-55987671D01*
X52793793Y-55987664D01*
X52707547Y-55872455D01*
X52707544Y-55872452D01*
X52592335Y-55786206D01*
X52592330Y-55786203D01*
X52456166Y-55735417D01*
X52400233Y-55693545D01*
X52375816Y-55628081D01*
X52375500Y-55619235D01*
X52375500Y-54324499D01*
X52395185Y-54257460D01*
X52447989Y-54211705D01*
X52496879Y-54201068D01*
X52496859Y-54200659D01*
X52499346Y-54200532D01*
X52499500Y-54200499D01*
X52500002Y-54200499D01*
X52500008Y-54200499D01*
X52602797Y-54189999D01*
X52769334Y-54134814D01*
X52918656Y-54042712D01*
X53012319Y-53949049D01*
X53073642Y-53915564D01*
X53143334Y-53920548D01*
X53187681Y-53949049D01*
X53281344Y-54042712D01*
X53430666Y-54134814D01*
X53597203Y-54189999D01*
X53699991Y-54200500D01*
X54500008Y-54200499D01*
X54500016Y-54200498D01*
X54500019Y-54200498D01*
X54556302Y-54194748D01*
X54602797Y-54189999D01*
X54769334Y-54134814D01*
X54918656Y-54042712D01*
X55042712Y-53918656D01*
X55134814Y-53769334D01*
X55154311Y-53710493D01*
X55194084Y-53653051D01*
X55258600Y-53626228D01*
X55272017Y-53625500D01*
X55327983Y-53625500D01*
X55395022Y-53645185D01*
X55440777Y-53697989D01*
X55445686Y-53710489D01*
X55465186Y-53769334D01*
X55557288Y-53918656D01*
X55681344Y-54042712D01*
X55830666Y-54134814D01*
X55997203Y-54189999D01*
X56099991Y-54200500D01*
X56850008Y-54200499D01*
X56850016Y-54200498D01*
X56850019Y-54200498D01*
X56906302Y-54194748D01*
X56952797Y-54189999D01*
X57119334Y-54134814D01*
X57268656Y-54042712D01*
X57392712Y-53918656D01*
X57394752Y-53915347D01*
X57396745Y-53913555D01*
X57397193Y-53912989D01*
X57397289Y-53913065D01*
X57446694Y-53868623D01*
X57515656Y-53857395D01*
X57579740Y-53885234D01*
X57605829Y-53915339D01*
X57607681Y-53918341D01*
X57607683Y-53918344D01*
X57731654Y-54042315D01*
X57880875Y-54134356D01*
X57880880Y-54134358D01*
X58047302Y-54189505D01*
X58047309Y-54189506D01*
X58150019Y-54199999D01*
X58274999Y-54199999D01*
X58775000Y-54199999D01*
X58899972Y-54199999D01*
X58899986Y-54199998D01*
X59002697Y-54189505D01*
X59169119Y-54134358D01*
X59169124Y-54134356D01*
X59318345Y-54042315D01*
X59442315Y-53918345D01*
X59534356Y-53769124D01*
X59534358Y-53769119D01*
X59589505Y-53602697D01*
X59589506Y-53602690D01*
X59599999Y-53499986D01*
X59600000Y-53499973D01*
X59600000Y-53250000D01*
X58775000Y-53250000D01*
X58775000Y-54199999D01*
X58274999Y-54199999D01*
X58275000Y-54199998D01*
X58275000Y-52750000D01*
X58775000Y-52750000D01*
X59599999Y-52750000D01*
X59599999Y-52500028D01*
X59599998Y-52500013D01*
X59589505Y-52397302D01*
X59534358Y-52230880D01*
X59534356Y-52230875D01*
X59442315Y-52081654D01*
X59318345Y-51957684D01*
X59169124Y-51865643D01*
X59169119Y-51865641D01*
X59002697Y-51810494D01*
X59002690Y-51810493D01*
X58899986Y-51800000D01*
X58775000Y-51800000D01*
X58775000Y-52750000D01*
X58275000Y-52750000D01*
X58275000Y-51800000D01*
X58150027Y-51800000D01*
X58150012Y-51800001D01*
X58047302Y-51810494D01*
X57880880Y-51865641D01*
X57880875Y-51865643D01*
X57731654Y-51957684D01*
X57607683Y-52081655D01*
X57607679Y-52081660D01*
X57605826Y-52084665D01*
X57604018Y-52086290D01*
X57603202Y-52087323D01*
X57603025Y-52087183D01*
X57553874Y-52131385D01*
X57484911Y-52142601D01*
X57420831Y-52114752D01*
X57394753Y-52084653D01*
X57394619Y-52084436D01*
X57392712Y-52081344D01*
X57268656Y-51957288D01*
X57119334Y-51865186D01*
X56952797Y-51810001D01*
X56952795Y-51810000D01*
X56850010Y-51799500D01*
X56099998Y-51799500D01*
X56099980Y-51799501D01*
X55997203Y-51810000D01*
X55997200Y-51810001D01*
X55830668Y-51865185D01*
X55830663Y-51865187D01*
X55681342Y-51957289D01*
X55557289Y-52081342D01*
X55465187Y-52230663D01*
X55465186Y-52230666D01*
X55445689Y-52289505D01*
X55405916Y-52346949D01*
X55341400Y-52373772D01*
X55327983Y-52374500D01*
X55272017Y-52374500D01*
X55204978Y-52354815D01*
X55159223Y-52302011D01*
X55154311Y-52289505D01*
X55134814Y-52230666D01*
X55042712Y-52081344D01*
X54918656Y-51957288D01*
X54769334Y-51865186D01*
X54602797Y-51810001D01*
X54602795Y-51810000D01*
X54500010Y-51799500D01*
X53699998Y-51799500D01*
X53699980Y-51799501D01*
X53597203Y-51810000D01*
X53597200Y-51810001D01*
X53430668Y-51865185D01*
X53430663Y-51865187D01*
X53281342Y-51957289D01*
X53187681Y-52050951D01*
X53126358Y-52084436D01*
X53056666Y-52079452D01*
X53012319Y-52050951D01*
X52918657Y-51957289D01*
X52918656Y-51957288D01*
X52769334Y-51865186D01*
X52602797Y-51810001D01*
X52602795Y-51810000D01*
X52500010Y-51799500D01*
X51699998Y-51799500D01*
X51699980Y-51799501D01*
X51597203Y-51810000D01*
X51597200Y-51810001D01*
X51430668Y-51865185D01*
X51430663Y-51865187D01*
X51281342Y-51957289D01*
X51157289Y-52081342D01*
X51065187Y-52230663D01*
X51065185Y-52230668D01*
X51058779Y-52250000D01*
X51010001Y-52397203D01*
X51010001Y-52397204D01*
X51010000Y-52397204D01*
X50999500Y-52499983D01*
X50999500Y-52810993D01*
X50979815Y-52878032D01*
X50963183Y-52898672D01*
X50945287Y-52916569D01*
X50941901Y-52919955D01*
X50904373Y-52957483D01*
X50819953Y-53041902D01*
X50727602Y-53180115D01*
X50673989Y-53224920D01*
X50604664Y-53233627D01*
X50541637Y-53203472D01*
X50504918Y-53144029D01*
X50500500Y-53111224D01*
X50500500Y-51124000D01*
X50520185Y-51056961D01*
X50572989Y-51011206D01*
X50624500Y-51000000D01*
X60453960Y-51000000D01*
X60520999Y-51019685D01*
G37*
%TD.AperFunction*%
%TA.AperFunction,Conductor*%
G36*
X74167702Y-65947344D02*
G01*
X74174180Y-65953376D01*
X74268181Y-66047377D01*
X74301666Y-66108700D01*
X74304500Y-66135058D01*
X74304500Y-66502441D01*
X74284815Y-66569480D01*
X74268181Y-66590123D01*
X74143082Y-66715221D01*
X74081759Y-66748705D01*
X74012067Y-66743721D01*
X73967719Y-66715219D01*
X73962500Y-66710000D01*
X72749000Y-66710000D01*
X72681961Y-66690315D01*
X72636206Y-66637511D01*
X72625000Y-66586000D01*
X72625000Y-66334000D01*
X72644685Y-66266961D01*
X72697489Y-66221206D01*
X72749000Y-66210000D01*
X73962499Y-66210000D01*
X73962499Y-66041057D01*
X73982184Y-65974018D01*
X74034988Y-65928263D01*
X74104146Y-65918319D01*
X74167702Y-65947344D01*
G37*
%TD.AperFunction*%
%TA.AperFunction,Conductor*%
G36*
X51750000Y-64266988D02*
G01*
X51692993Y-64234075D01*
X51565826Y-64200000D01*
X51434174Y-64200000D01*
X51307007Y-64234075D01*
X51250000Y-64266988D01*
X51250000Y-62593012D01*
X51307007Y-62625925D01*
X51434174Y-62660000D01*
X51565826Y-62660000D01*
X51692993Y-62625925D01*
X51750000Y-62593012D01*
X51750000Y-64266988D01*
G37*
%TD.AperFunction*%
%TA.AperFunction,Conductor*%
G36*
X73032514Y-60959501D02*
G01*
X73032674Y-60958905D01*
X73040524Y-60961008D01*
X73040526Y-60961008D01*
X73040528Y-60961009D01*
X73150599Y-60975500D01*
X73349400Y-60975499D01*
X73390830Y-60970045D01*
X73459866Y-60980811D01*
X73512121Y-61027191D01*
X73531006Y-61094460D01*
X73529954Y-61109169D01*
X73524500Y-61150597D01*
X73524500Y-61349403D01*
X73538989Y-61459468D01*
X73541094Y-61467322D01*
X73537814Y-61468200D01*
X73543581Y-61522073D01*
X73540517Y-61532522D01*
X73541095Y-61532677D01*
X73538990Y-61540529D01*
X73524500Y-61650598D01*
X73524500Y-61849403D01*
X73538989Y-61959468D01*
X73541094Y-61967322D01*
X73538010Y-61968148D01*
X73543849Y-62022737D01*
X73541014Y-62032653D01*
X73541582Y-62032806D01*
X73539478Y-62040658D01*
X73528373Y-62125000D01*
X73556494Y-62125000D01*
X73623533Y-62144685D01*
X73654885Y-62173534D01*
X73655652Y-62174534D01*
X73680833Y-62239708D01*
X73666781Y-62308150D01*
X73655652Y-62325466D01*
X73654885Y-62326466D01*
X73598466Y-62367681D01*
X73556494Y-62375000D01*
X73528374Y-62375000D01*
X73539478Y-62459346D01*
X73541582Y-62467197D01*
X73538313Y-62468072D01*
X73543648Y-62522512D01*
X73540650Y-62532554D01*
X73541095Y-62532673D01*
X73538991Y-62540524D01*
X73524500Y-62650598D01*
X73524500Y-62849396D01*
X73529955Y-62890833D01*
X73519187Y-62959868D01*
X73472806Y-63012123D01*
X73405536Y-63031006D01*
X73390830Y-63029954D01*
X73349401Y-63024500D01*
X73150596Y-63024500D01*
X73040531Y-63038989D01*
X73032678Y-63041094D01*
X73031802Y-63037824D01*
X72977853Y-63043567D01*
X72967477Y-63040518D01*
X72967323Y-63041095D01*
X72959470Y-63038990D01*
X72849401Y-63024500D01*
X72650596Y-63024500D01*
X72540531Y-63038989D01*
X72532678Y-63041094D01*
X72531802Y-63037824D01*
X72477853Y-63043567D01*
X72467477Y-63040518D01*
X72467323Y-63041095D01*
X72459470Y-63038990D01*
X72349401Y-63024500D01*
X72150596Y-63024500D01*
X72040531Y-63038989D01*
X72032678Y-63041094D01*
X72031802Y-63037824D01*
X71977853Y-63043567D01*
X71967477Y-63040518D01*
X71967323Y-63041095D01*
X71959470Y-63038990D01*
X71849401Y-63024500D01*
X71650603Y-63024500D01*
X71609166Y-63029955D01*
X71540131Y-63019187D01*
X71487876Y-62972805D01*
X71468993Y-62905536D01*
X71470045Y-62890833D01*
X71475500Y-62849401D01*
X71475499Y-62650600D01*
X71472811Y-62630184D01*
X71470698Y-62614133D01*
X71461009Y-62540528D01*
X71461008Y-62540525D01*
X71458905Y-62532674D01*
X71462207Y-62531789D01*
X71456392Y-62478075D01*
X71459501Y-62467485D01*
X71458905Y-62467326D01*
X71461008Y-62459475D01*
X71461008Y-62459474D01*
X71461009Y-62459472D01*
X71475500Y-62349401D01*
X71475499Y-62150600D01*
X71474720Y-62144685D01*
X71461026Y-62040658D01*
X71461009Y-62040528D01*
X71461008Y-62040525D01*
X71458905Y-62032674D01*
X71462207Y-62031789D01*
X71456392Y-61978075D01*
X71459501Y-61967485D01*
X71458905Y-61967326D01*
X71461008Y-61959475D01*
X71461008Y-61959474D01*
X71461009Y-61959472D01*
X71475500Y-61849401D01*
X71475499Y-61650600D01*
X71461009Y-61540528D01*
X71461008Y-61540525D01*
X71458905Y-61532674D01*
X71462207Y-61531789D01*
X71456392Y-61478075D01*
X71459501Y-61467485D01*
X71458905Y-61467326D01*
X71461008Y-61459475D01*
X71461008Y-61459474D01*
X71461009Y-61459472D01*
X71475500Y-61349401D01*
X71475499Y-61150600D01*
X71472594Y-61128536D01*
X71470045Y-61109168D01*
X71480811Y-61040133D01*
X71527192Y-60987878D01*
X71594461Y-60968993D01*
X71609155Y-60970043D01*
X71650599Y-60975500D01*
X71849400Y-60975499D01*
X71849401Y-60975499D01*
X71866087Y-60973302D01*
X71959472Y-60961009D01*
X71959475Y-60961007D01*
X71967326Y-60958905D01*
X71968210Y-60962207D01*
X72021925Y-60956392D01*
X72032514Y-60959501D01*
X72032674Y-60958905D01*
X72040524Y-60961008D01*
X72040526Y-60961008D01*
X72040528Y-60961009D01*
X72150599Y-60975500D01*
X72349400Y-60975499D01*
X72349401Y-60975499D01*
X72366087Y-60973302D01*
X72459472Y-60961009D01*
X72459475Y-60961007D01*
X72467326Y-60958905D01*
X72468210Y-60962207D01*
X72521925Y-60956392D01*
X72532514Y-60959501D01*
X72532674Y-60958905D01*
X72540524Y-60961008D01*
X72540526Y-60961008D01*
X72540528Y-60961009D01*
X72650599Y-60975500D01*
X72849400Y-60975499D01*
X72849401Y-60975499D01*
X72866087Y-60973302D01*
X72959472Y-60961009D01*
X72959475Y-60961007D01*
X72967326Y-60958905D01*
X72968210Y-60962207D01*
X73021925Y-60956392D01*
X73032514Y-60959501D01*
G37*
%TD.AperFunction*%
%TA.AperFunction,Conductor*%
G36*
X51750000Y-61726988D02*
G01*
X51692993Y-61694075D01*
X51565826Y-61660000D01*
X51434174Y-61660000D01*
X51307007Y-61694075D01*
X51250000Y-61726988D01*
X51250000Y-60053012D01*
X51307007Y-60085925D01*
X51434174Y-60120000D01*
X51565826Y-60120000D01*
X51692993Y-60085925D01*
X51750000Y-60053012D01*
X51750000Y-61726988D01*
G37*
%TD.AperFunction*%
%TD*%
M02*
