%TF.GenerationSoftware,KiCad,Pcbnew,8.0.4*%
%TF.CreationDate,2025-01-04T18:25:06+00:00*%
%TF.ProjectId,breadboard_usb,62726561-6462-46f6-9172-645f7573622e,rev?*%
%TF.SameCoordinates,Original*%
%TF.FileFunction,Copper,L2,Bot*%
%TF.FilePolarity,Positive*%
%FSLAX46Y46*%
G04 Gerber Fmt 4.6, Leading zero omitted, Abs format (unit mm)*
G04 Created by KiCad (PCBNEW 8.0.4) date 2025-01-04 18:25:06*
%MOMM*%
%LPD*%
G01*
G04 APERTURE LIST*
%TA.AperFunction,ComponentPad*%
%ADD10R,1.600000X1.600000*%
%TD*%
%TA.AperFunction,ComponentPad*%
%ADD11O,1.600000X1.600000*%
%TD*%
%TA.AperFunction,ComponentPad*%
%ADD12O,2.000000X3.000000*%
%TD*%
%TA.AperFunction,ComponentPad*%
%ADD13R,1.700000X1.700000*%
%TD*%
%TA.AperFunction,ComponentPad*%
%ADD14O,1.700000X1.700000*%
%TD*%
%TA.AperFunction,ComponentPad*%
%ADD15C,1.800000*%
%TD*%
%TA.AperFunction,ComponentPad*%
%ADD16O,1.300000X1.900000*%
%TD*%
%TA.AperFunction,ViaPad*%
%ADD17C,0.800000*%
%TD*%
%TA.AperFunction,Conductor*%
%ADD18C,0.250000*%
%TD*%
%TA.AperFunction,Conductor*%
%ADD19C,0.500000*%
%TD*%
%TA.AperFunction,Conductor*%
%ADD20C,2.000000*%
%TD*%
%TA.AperFunction,Conductor*%
%ADD21C,1.000000*%
%TD*%
G04 APERTURE END LIST*
D10*
%TO.P,SW3,1*%
%TO.N,/CFG1_2*%
X84190000Y-54540000D03*
D11*
%TO.P,SW3,2*%
%TO.N,/CFG2_2*%
X84190000Y-57080000D03*
%TO.P,SW3,3*%
%TO.N,/CFG3_2*%
X84190000Y-59620000D03*
%TO.P,SW3,4*%
%TO.N,/GND_2*%
X91810000Y-59620000D03*
%TO.P,SW3,5*%
X91810000Y-57080000D03*
%TO.P,SW3,6*%
X91810000Y-54540000D03*
%TD*%
D12*
%TO.P,U5,0,GND*%
%TO.N,/GND_2*%
X88000000Y-70500000D03*
%TD*%
D13*
%TO.P,J17,1,Pin_1*%
%TO.N,/GND_2*%
X100360000Y-52000000D03*
D14*
%TO.P,J17,2,Pin_2*%
X100360000Y-54540000D03*
%TO.P,J17,3,Pin_3*%
X100360000Y-57080000D03*
%TO.P,J17,4,Pin_4*%
X100360000Y-59620000D03*
%TO.P,J17,5,Pin_5*%
X100360000Y-62160000D03*
%TD*%
D13*
%TO.P,J16,1,Pin_1*%
%TO.N,/VBUS_2*%
X52100000Y-52000000D03*
D14*
%TO.P,J16,2,Pin_2*%
X52100000Y-54540000D03*
%TO.P,J16,3,Pin_3*%
X52100000Y-57080000D03*
%TO.P,J16,4,Pin_4*%
X52100000Y-59620000D03*
%TO.P,J16,5,Pin_5*%
X52100000Y-62160000D03*
%TD*%
D15*
%TO.P,RV1,1,1*%
%TO.N,/CFG1_2*%
X65460000Y-57080000D03*
%TO.P,RV1,2,2*%
%TO.N,/GND_2*%
X68000000Y-52000000D03*
%TO.P,RV1,3,3*%
X70540000Y-57080000D03*
%TD*%
D16*
%TO.P,J18,S1,SHIELD*%
%TO.N,unconnected-(J18-SHIELD-PadS1)_1*%
X63680000Y-74250000D03*
%TO.N,unconnected-(J18-SHIELD-PadS1)*%
X72320000Y-74250000D03*
%TD*%
D17*
%TO.N,/CC2_2*%
X84600000Y-74808872D03*
X69760000Y-71585000D03*
%TO.N,/VBUS_2*%
X54070000Y-66420000D03*
X97520000Y-73290000D03*
X70450000Y-66400000D03*
X74300000Y-70200000D03*
X65550000Y-66400000D03*
%TO.N,/GND_2*%
X61360000Y-69030000D03*
X61540000Y-63990000D03*
X73540000Y-66440000D03*
%TO.N,/CFG1_2*%
X81300000Y-61900000D03*
%TO.N,/CFG2_2*%
X83020000Y-68025000D03*
X83020000Y-66500000D03*
X83020000Y-64440000D03*
%TO.N,/PG_2*%
X90610000Y-66940000D03*
X57360000Y-60860000D03*
%TD*%
D18*
%TO.N,/CC2_2*%
X77560000Y-74260000D02*
X75920000Y-72620000D01*
X84600000Y-74808872D02*
X84051128Y-74260000D01*
X75920000Y-72620000D02*
X71920000Y-72620000D01*
X70885000Y-71585000D02*
X69760000Y-71585000D01*
X84051128Y-74260000D02*
X77560000Y-74260000D01*
X71920000Y-72620000D02*
X70885000Y-71585000D01*
D19*
%TO.N,/VBUS_2*%
X74300000Y-70200000D02*
X74313172Y-70200000D01*
D20*
X54050000Y-66400000D02*
X54070000Y-66420000D01*
D19*
X74300000Y-70200000D02*
X74300000Y-69510000D01*
D20*
X70450000Y-66400000D02*
X65550000Y-66400000D01*
D19*
X77403172Y-73290000D02*
X97520000Y-73290000D01*
D20*
X54090000Y-66400000D02*
X65550000Y-66400000D01*
D19*
X74313172Y-70200000D02*
X77403172Y-73290000D01*
D20*
X52100000Y-62160000D02*
X52100000Y-64480000D01*
D19*
X74300000Y-69510000D02*
X71190000Y-66400000D01*
D20*
X54070000Y-66420000D02*
X54090000Y-66400000D01*
X52100000Y-52000000D02*
X52100000Y-62160000D01*
X52100000Y-64480000D02*
X54040000Y-66420000D01*
X54040000Y-66400000D02*
X54050000Y-66400000D01*
D19*
X71190000Y-66400000D02*
X70450000Y-66400000D01*
D20*
%TO.N,/GND_2*%
X77600000Y-70500000D02*
X75460000Y-68360000D01*
X75460000Y-68298730D02*
X71151270Y-63990000D01*
X88000000Y-70500000D02*
X77600000Y-70500000D01*
X75460000Y-68360000D02*
X73540000Y-66440000D01*
D18*
X91890000Y-57000000D02*
X91810000Y-57080000D01*
X91810000Y-57080000D02*
X94420000Y-57080000D01*
D20*
X91860000Y-70500000D02*
X94500000Y-67860000D01*
D18*
X91810000Y-54540000D02*
X94440000Y-54540000D01*
D20*
X88000000Y-70500000D02*
X91860000Y-70500000D01*
D21*
X100360000Y-52000000D02*
X100360000Y-62160000D01*
D20*
X75460000Y-68360000D02*
X75460000Y-68298730D01*
X94500000Y-67860000D02*
X94500000Y-53500000D01*
X71151270Y-63990000D02*
X61540000Y-63990000D01*
X94500000Y-57200000D02*
X98150000Y-57200000D01*
X98150000Y-57200000D02*
X98160000Y-57190000D01*
D21*
X100250000Y-57190000D02*
X98160000Y-57190000D01*
D20*
X94500000Y-53500000D02*
X93000000Y-52000000D01*
X93000000Y-52000000D02*
X68000000Y-52000000D01*
D18*
X91810000Y-59620000D02*
X94120000Y-59620000D01*
%TO.N,/CFG1_2*%
X81300000Y-61900000D02*
X81210000Y-61810000D01*
X81210000Y-54540000D02*
X84190000Y-54540000D01*
X68000000Y-54540000D02*
X81210000Y-54540000D01*
X65460000Y-57080000D02*
X68000000Y-54540000D01*
X81210000Y-61810000D02*
X81210000Y-54540000D01*
%TO.N,/CFG2_2*%
X82480000Y-63900000D02*
X82480000Y-58790000D01*
X83020000Y-64440000D02*
X82480000Y-63900000D01*
X82480000Y-58790000D02*
X84190000Y-57080000D01*
X83020000Y-68025000D02*
X83020000Y-66500000D01*
%TO.N,/PG_2*%
X89370000Y-65700000D02*
X80720000Y-65700000D01*
X75880000Y-60860000D02*
X57360000Y-60860000D01*
X80720000Y-65700000D02*
X75880000Y-60860000D01*
X90610000Y-66940000D02*
X89370000Y-65700000D01*
%TD*%
%TA.AperFunction,Conductor*%
%TO.N,/GND_2*%
G36*
X92060000Y-59304314D02*
G01*
X92055606Y-59299920D01*
X91964394Y-59247259D01*
X91862661Y-59220000D01*
X91757339Y-59220000D01*
X91655606Y-59247259D01*
X91564394Y-59299920D01*
X91560000Y-59304314D01*
X91560000Y-57395686D01*
X91564394Y-57400080D01*
X91655606Y-57452741D01*
X91757339Y-57480000D01*
X91862661Y-57480000D01*
X91964394Y-57452741D01*
X92055606Y-57400080D01*
X92060000Y-57395686D01*
X92060000Y-59304314D01*
G37*
%TD.AperFunction*%
%TA.AperFunction,Conductor*%
G36*
X92060000Y-56764314D02*
G01*
X92055606Y-56759920D01*
X91964394Y-56707259D01*
X91862661Y-56680000D01*
X91757339Y-56680000D01*
X91655606Y-56707259D01*
X91564394Y-56759920D01*
X91560000Y-56764314D01*
X91560000Y-54855686D01*
X91564394Y-54860080D01*
X91655606Y-54912741D01*
X91757339Y-54940000D01*
X91862661Y-54940000D01*
X91964394Y-54912741D01*
X92055606Y-54860080D01*
X92060000Y-54855686D01*
X92060000Y-56764314D01*
G37*
%TD.AperFunction*%
%TA.AperFunction,Conductor*%
G36*
X67407629Y-50519685D02*
G01*
X67453384Y-50572489D01*
X67463328Y-50641647D01*
X67434303Y-50705203D01*
X67399607Y-50733055D01*
X67231652Y-50823947D01*
X67201200Y-50847647D01*
X67870591Y-51517037D01*
X67807007Y-51534075D01*
X67692993Y-51599901D01*
X67599901Y-51692993D01*
X67534075Y-51807007D01*
X67517037Y-51870591D01*
X66848811Y-51202365D01*
X66764516Y-51331390D01*
X66671317Y-51543864D01*
X66614361Y-51768781D01*
X66595202Y-51999994D01*
X66595202Y-52000005D01*
X66614361Y-52231218D01*
X66671317Y-52456135D01*
X66764515Y-52668606D01*
X66848812Y-52797633D01*
X67517037Y-52129408D01*
X67534075Y-52192993D01*
X67599901Y-52307007D01*
X67692993Y-52400099D01*
X67807007Y-52465925D01*
X67870590Y-52482962D01*
X67201201Y-53152351D01*
X67231649Y-53176050D01*
X67435697Y-53286476D01*
X67435706Y-53286479D01*
X67655139Y-53361811D01*
X67883993Y-53400000D01*
X68116007Y-53400000D01*
X68344860Y-53361811D01*
X68564293Y-53286479D01*
X68564301Y-53286476D01*
X68768355Y-53176047D01*
X68798797Y-53152351D01*
X68798798Y-53152350D01*
X68129410Y-52482962D01*
X68192993Y-52465925D01*
X68307007Y-52400099D01*
X68400099Y-52307007D01*
X68465925Y-52192993D01*
X68482962Y-52129409D01*
X69151186Y-52797633D01*
X69235482Y-52668611D01*
X69328682Y-52456135D01*
X69385638Y-52231218D01*
X69404798Y-52000005D01*
X69404798Y-51999994D01*
X69385638Y-51768781D01*
X69328682Y-51543864D01*
X69235484Y-51331393D01*
X69151186Y-51202365D01*
X68482962Y-51870589D01*
X68465925Y-51807007D01*
X68400099Y-51692993D01*
X68307007Y-51599901D01*
X68192993Y-51534075D01*
X68129409Y-51517037D01*
X68798797Y-50847647D01*
X68798797Y-50847645D01*
X68768360Y-50823955D01*
X68768349Y-50823948D01*
X68600393Y-50733055D01*
X68550802Y-50683835D01*
X68535694Y-50615619D01*
X68559864Y-50550063D01*
X68615640Y-50507982D01*
X68659410Y-50500000D01*
X99171399Y-50500000D01*
X99238438Y-50519685D01*
X99284193Y-50572489D01*
X99294137Y-50641647D01*
X99265112Y-50705203D01*
X99245710Y-50723266D01*
X99152812Y-50792809D01*
X99152809Y-50792812D01*
X99066649Y-50907906D01*
X99066645Y-50907913D01*
X99016403Y-51042620D01*
X99016401Y-51042627D01*
X99010000Y-51102155D01*
X99010000Y-51750000D01*
X99926988Y-51750000D01*
X99894075Y-51807007D01*
X99860000Y-51934174D01*
X99860000Y-52065826D01*
X99894075Y-52192993D01*
X99926988Y-52250000D01*
X99010000Y-52250000D01*
X99010000Y-52897844D01*
X99016401Y-52957372D01*
X99016403Y-52957379D01*
X99066645Y-53092086D01*
X99066649Y-53092093D01*
X99152809Y-53207187D01*
X99152812Y-53207190D01*
X99267906Y-53293350D01*
X99267913Y-53293354D01*
X99399986Y-53342614D01*
X99455920Y-53384485D01*
X99480337Y-53449949D01*
X99465486Y-53518222D01*
X99444335Y-53546477D01*
X99321886Y-53668926D01*
X99186400Y-53862420D01*
X99186399Y-53862422D01*
X99086570Y-54076507D01*
X99086567Y-54076513D01*
X99029364Y-54289999D01*
X99029364Y-54290000D01*
X99926988Y-54290000D01*
X99894075Y-54347007D01*
X99860000Y-54474174D01*
X99860000Y-54605826D01*
X99894075Y-54732993D01*
X99926988Y-54790000D01*
X99029364Y-54790000D01*
X99086567Y-55003486D01*
X99086570Y-55003492D01*
X99186399Y-55217578D01*
X99321894Y-55411082D01*
X99488917Y-55578105D01*
X99675031Y-55708425D01*
X99718656Y-55763003D01*
X99725848Y-55832501D01*
X99694326Y-55894856D01*
X99675031Y-55911575D01*
X99488922Y-56041890D01*
X99488920Y-56041891D01*
X99321891Y-56208920D01*
X99321886Y-56208926D01*
X99186400Y-56402420D01*
X99186399Y-56402422D01*
X99086570Y-56616507D01*
X99086567Y-56616513D01*
X99029364Y-56829999D01*
X99029364Y-56830000D01*
X99926988Y-56830000D01*
X99894075Y-56887007D01*
X99860000Y-57014174D01*
X99860000Y-57145826D01*
X99894075Y-57272993D01*
X99926988Y-57330000D01*
X99029364Y-57330000D01*
X99086567Y-57543486D01*
X99086570Y-57543492D01*
X99186399Y-57757578D01*
X99321894Y-57951082D01*
X99488917Y-58118105D01*
X99675031Y-58248425D01*
X99718656Y-58303003D01*
X99725848Y-58372501D01*
X99694326Y-58434856D01*
X99675031Y-58451575D01*
X99488922Y-58581890D01*
X99488920Y-58581891D01*
X99321891Y-58748920D01*
X99321886Y-58748926D01*
X99186400Y-58942420D01*
X99186399Y-58942422D01*
X99086570Y-59156507D01*
X99086567Y-59156513D01*
X99029364Y-59369999D01*
X99029364Y-59370000D01*
X99926988Y-59370000D01*
X99894075Y-59427007D01*
X99860000Y-59554174D01*
X99860000Y-59685826D01*
X99894075Y-59812993D01*
X99926988Y-59870000D01*
X99029364Y-59870000D01*
X99086567Y-60083486D01*
X99086570Y-60083492D01*
X99186399Y-60297578D01*
X99321894Y-60491082D01*
X99488917Y-60658105D01*
X99675031Y-60788425D01*
X99718656Y-60843003D01*
X99725848Y-60912501D01*
X99694326Y-60974856D01*
X99675031Y-60991575D01*
X99488922Y-61121890D01*
X99488920Y-61121891D01*
X99321891Y-61288920D01*
X99321886Y-61288926D01*
X99186400Y-61482420D01*
X99186399Y-61482422D01*
X99086570Y-61696507D01*
X99086567Y-61696513D01*
X99029364Y-61909999D01*
X99029364Y-61910000D01*
X99926988Y-61910000D01*
X99894075Y-61967007D01*
X99860000Y-62094174D01*
X99860000Y-62225826D01*
X99894075Y-62352993D01*
X99926988Y-62410000D01*
X99029364Y-62410000D01*
X99086567Y-62623486D01*
X99086570Y-62623492D01*
X99186399Y-62837578D01*
X99321894Y-63031082D01*
X99488917Y-63198105D01*
X99682421Y-63333600D01*
X99896507Y-63433429D01*
X99896516Y-63433433D01*
X100110000Y-63490634D01*
X100110000Y-62593012D01*
X100167007Y-62625925D01*
X100294174Y-62660000D01*
X100425826Y-62660000D01*
X100552993Y-62625925D01*
X100610000Y-62593012D01*
X100610000Y-63490633D01*
X100823483Y-63433433D01*
X100823492Y-63433429D01*
X101037578Y-63333600D01*
X101231082Y-63198105D01*
X101288319Y-63140869D01*
X101349642Y-63107384D01*
X101419334Y-63112368D01*
X101475267Y-63154240D01*
X101499684Y-63219704D01*
X101500000Y-63228550D01*
X101500000Y-76376000D01*
X101480315Y-76443039D01*
X101427511Y-76488794D01*
X101376000Y-76500000D01*
X50624000Y-76500000D01*
X50556961Y-76480315D01*
X50511206Y-76427511D01*
X50500000Y-76376000D01*
X50500000Y-73859448D01*
X62529500Y-73859448D01*
X62529500Y-74640551D01*
X62557829Y-74819410D01*
X62613787Y-74991636D01*
X62613788Y-74991639D01*
X62696006Y-75152997D01*
X62802441Y-75299494D01*
X62802445Y-75299499D01*
X62930500Y-75427554D01*
X62930505Y-75427558D01*
X63005109Y-75481760D01*
X63077006Y-75533996D01*
X63182484Y-75587740D01*
X63238360Y-75616211D01*
X63238363Y-75616212D01*
X63324476Y-75644191D01*
X63410591Y-75672171D01*
X63493429Y-75685291D01*
X63589449Y-75700500D01*
X63589454Y-75700500D01*
X63770551Y-75700500D01*
X63857259Y-75686765D01*
X63949409Y-75672171D01*
X64121639Y-75616211D01*
X64282994Y-75533996D01*
X64429501Y-75427553D01*
X64557553Y-75299501D01*
X64663996Y-75152994D01*
X64746211Y-74991639D01*
X64802171Y-74819409D01*
X64816765Y-74727259D01*
X64830500Y-74640551D01*
X64830500Y-73859448D01*
X64814019Y-73755397D01*
X64802171Y-73680591D01*
X64746211Y-73508361D01*
X64746211Y-73508360D01*
X64669152Y-73357126D01*
X64663996Y-73347006D01*
X64650396Y-73328287D01*
X64557558Y-73200505D01*
X64557554Y-73200500D01*
X64429499Y-73072445D01*
X64429494Y-73072441D01*
X64282997Y-72966006D01*
X64282996Y-72966005D01*
X64282994Y-72966004D01*
X64231300Y-72939664D01*
X64121639Y-72883788D01*
X64121636Y-72883787D01*
X63949410Y-72827829D01*
X63770551Y-72799500D01*
X63770546Y-72799500D01*
X63589454Y-72799500D01*
X63589449Y-72799500D01*
X63410589Y-72827829D01*
X63238363Y-72883787D01*
X63238360Y-72883788D01*
X63077002Y-72966006D01*
X62930505Y-73072441D01*
X62930500Y-73072445D01*
X62802445Y-73200500D01*
X62802441Y-73200505D01*
X62696006Y-73347002D01*
X62613788Y-73508360D01*
X62613787Y-73508363D01*
X62557829Y-73680589D01*
X62529500Y-73859448D01*
X50500000Y-73859448D01*
X50500000Y-69447525D01*
X63129500Y-69447525D01*
X63129500Y-70692475D01*
X63158539Y-70800848D01*
X63167017Y-70832488D01*
X63239488Y-70958011D01*
X63239490Y-70958013D01*
X63239491Y-70958015D01*
X63341985Y-71060509D01*
X63341986Y-71060510D01*
X63341988Y-71060511D01*
X63467511Y-71132982D01*
X63467512Y-71132982D01*
X63467515Y-71132984D01*
X63607525Y-71170500D01*
X63607528Y-71170500D01*
X63752472Y-71170500D01*
X63752475Y-71170500D01*
X63892485Y-71132984D01*
X64018015Y-71060509D01*
X64120509Y-70958015D01*
X64192984Y-70832485D01*
X64230500Y-70692475D01*
X64230500Y-70524234D01*
X64534500Y-70524234D01*
X64534500Y-70675766D01*
X64538977Y-70692475D01*
X64573719Y-70822136D01*
X64579696Y-70832488D01*
X64649485Y-70953365D01*
X64756635Y-71060515D01*
X64887865Y-71136281D01*
X65034234Y-71175500D01*
X65034236Y-71175500D01*
X65185764Y-71175500D01*
X65185766Y-71175500D01*
X65332135Y-71136281D01*
X65463365Y-71060515D01*
X65570515Y-70953365D01*
X65646281Y-70822135D01*
X65685500Y-70675766D01*
X65685500Y-70524234D01*
X65646281Y-70377865D01*
X65570515Y-70246635D01*
X65463365Y-70139485D01*
X65397750Y-70101602D01*
X65332136Y-70063719D01*
X65213346Y-70031890D01*
X65185766Y-70024500D01*
X65034234Y-70024500D01*
X64887863Y-70063719D01*
X64756635Y-70139485D01*
X64756632Y-70139487D01*
X64649487Y-70246632D01*
X64649485Y-70246635D01*
X64573719Y-70377863D01*
X64534500Y-70524234D01*
X64230500Y-70524234D01*
X64230500Y-69447525D01*
X64192984Y-69307515D01*
X64183499Y-69291087D01*
X64120511Y-69181988D01*
X64120506Y-69181982D01*
X64018017Y-69079493D01*
X64018011Y-69079488D01*
X63892488Y-69007017D01*
X63892489Y-69007017D01*
X63881006Y-69003940D01*
X63752475Y-68969500D01*
X63607525Y-68969500D01*
X63478993Y-69003940D01*
X63467511Y-69007017D01*
X63341988Y-69079488D01*
X63341982Y-69079493D01*
X63239493Y-69181982D01*
X63239488Y-69181988D01*
X63167017Y-69307511D01*
X63167016Y-69307515D01*
X63129500Y-69447525D01*
X50500000Y-69447525D01*
X50500000Y-65161456D01*
X50519685Y-65094417D01*
X50572489Y-65048662D01*
X50641647Y-65038718D01*
X50705203Y-65067743D01*
X50734484Y-65105160D01*
X50816657Y-65266434D01*
X50955483Y-65457510D01*
X53062490Y-67564517D01*
X53253566Y-67703343D01*
X53464008Y-67810568D01*
X53464010Y-67810569D01*
X53544570Y-67836744D01*
X53688631Y-67883552D01*
X53795638Y-67900500D01*
X53921903Y-67920499D01*
X53921908Y-67920499D01*
X53946773Y-67920499D01*
X53946797Y-67920500D01*
X53951908Y-67920500D01*
X54188096Y-67920500D01*
X54284736Y-67905193D01*
X54304727Y-67902026D01*
X54324125Y-67900500D01*
X70568097Y-67900500D01*
X70801368Y-67863553D01*
X71025992Y-67790568D01*
X71236433Y-67683343D01*
X71252427Y-67671722D01*
X71318232Y-67648243D01*
X71386286Y-67664068D01*
X71412992Y-67684360D01*
X72338529Y-68609897D01*
X72486452Y-68757819D01*
X72519937Y-68819142D01*
X72514953Y-68888834D01*
X72473081Y-68944767D01*
X72407617Y-68969184D01*
X72398771Y-68969500D01*
X72392475Y-68969500D01*
X72247525Y-68969500D01*
X72118993Y-69003940D01*
X72107511Y-69007017D01*
X71981988Y-69079488D01*
X71981982Y-69079493D01*
X71879493Y-69181982D01*
X71879488Y-69181988D01*
X71807017Y-69307511D01*
X71807016Y-69307515D01*
X71769500Y-69447525D01*
X71769500Y-70692475D01*
X71798539Y-70800848D01*
X71807017Y-70832488D01*
X71879488Y-70958011D01*
X71879490Y-70958013D01*
X71879491Y-70958015D01*
X71981985Y-71060509D01*
X71981986Y-71060510D01*
X71981988Y-71060511D01*
X72107511Y-71132982D01*
X72107512Y-71132982D01*
X72107515Y-71132984D01*
X72247525Y-71170500D01*
X72247528Y-71170500D01*
X72392472Y-71170500D01*
X72392475Y-71170500D01*
X72532485Y-71132984D01*
X72658015Y-71060509D01*
X72760509Y-70958015D01*
X72832984Y-70832485D01*
X72870500Y-70692475D01*
X72870500Y-69447525D01*
X72870500Y-69441229D01*
X72890185Y-69374190D01*
X72942989Y-69328435D01*
X73012147Y-69318491D01*
X73075703Y-69347516D01*
X73082181Y-69353548D01*
X73440554Y-69711921D01*
X73474039Y-69773244D01*
X73470804Y-69837920D01*
X73414327Y-70011740D01*
X73414326Y-70011744D01*
X73394540Y-70200000D01*
X73414326Y-70388256D01*
X73414327Y-70388259D01*
X73472818Y-70568277D01*
X73472821Y-70568284D01*
X73567467Y-70732216D01*
X73648431Y-70822135D01*
X73694129Y-70872888D01*
X73847265Y-70984148D01*
X73847270Y-70984151D01*
X74020191Y-71061142D01*
X74020195Y-71061143D01*
X74020197Y-71061144D01*
X74102055Y-71078543D01*
X74163537Y-71111735D01*
X74163956Y-71112152D01*
X74834623Y-71782819D01*
X74868108Y-71844142D01*
X74863124Y-71913834D01*
X74821252Y-71969767D01*
X74755788Y-71994184D01*
X74746942Y-71994500D01*
X72230452Y-71994500D01*
X72163413Y-71974815D01*
X72142771Y-71958181D01*
X71375198Y-71190608D01*
X71375178Y-71190586D01*
X71331917Y-71147325D01*
X71298432Y-71086002D01*
X71303416Y-71016310D01*
X71331917Y-70971963D01*
X71350515Y-70953365D01*
X71426281Y-70822135D01*
X71465500Y-70675766D01*
X71465500Y-70524234D01*
X71426281Y-70377865D01*
X71350515Y-70246635D01*
X71243365Y-70139485D01*
X71177750Y-70101602D01*
X71112136Y-70063719D01*
X70993346Y-70031890D01*
X70965766Y-70024500D01*
X70814234Y-70024500D01*
X70667863Y-70063719D01*
X70536635Y-70139485D01*
X70536632Y-70139487D01*
X70429487Y-70246632D01*
X70429485Y-70246635D01*
X70353719Y-70377863D01*
X70314500Y-70524234D01*
X70314500Y-70655216D01*
X70294815Y-70722255D01*
X70242011Y-70768010D01*
X70172853Y-70777954D01*
X70140064Y-70768495D01*
X70039807Y-70723857D01*
X70039802Y-70723855D01*
X69892152Y-70692472D01*
X69854646Y-70684500D01*
X69665354Y-70684500D01*
X69632897Y-70691398D01*
X69480197Y-70723855D01*
X69480192Y-70723857D01*
X69307270Y-70800848D01*
X69307265Y-70800851D01*
X69154129Y-70912111D01*
X69027466Y-71052785D01*
X68932821Y-71216715D01*
X68932818Y-71216722D01*
X68874327Y-71396740D01*
X68874326Y-71396744D01*
X68854540Y-71585000D01*
X68874326Y-71773256D01*
X68874327Y-71773259D01*
X68932818Y-71953277D01*
X68932821Y-71953284D01*
X69027467Y-72117216D01*
X69129185Y-72230185D01*
X69154129Y-72257888D01*
X69307265Y-72369148D01*
X69307270Y-72369151D01*
X69480192Y-72446142D01*
X69480197Y-72446144D01*
X69665354Y-72485500D01*
X69665355Y-72485500D01*
X69854644Y-72485500D01*
X69854646Y-72485500D01*
X70039803Y-72446144D01*
X70212730Y-72369151D01*
X70365871Y-72257888D01*
X70368788Y-72254647D01*
X70371600Y-72251526D01*
X70431087Y-72214879D01*
X70463748Y-72210500D01*
X70574548Y-72210500D01*
X70641587Y-72230185D01*
X70662229Y-72246819D01*
X71431016Y-73015606D01*
X71431045Y-73015637D01*
X71441495Y-73026087D01*
X71474980Y-73087410D01*
X71469996Y-73157102D01*
X71444888Y-73196178D01*
X71445610Y-73196795D01*
X71442443Y-73200502D01*
X71336006Y-73347002D01*
X71253788Y-73508360D01*
X71253787Y-73508363D01*
X71197829Y-73680589D01*
X71169500Y-73859448D01*
X71169500Y-74640551D01*
X71197829Y-74819410D01*
X71253787Y-74991636D01*
X71253788Y-74991639D01*
X71336006Y-75152997D01*
X71442441Y-75299494D01*
X71442445Y-75299499D01*
X71570500Y-75427554D01*
X71570505Y-75427558D01*
X71645109Y-75481760D01*
X71717006Y-75533996D01*
X71822484Y-75587740D01*
X71878360Y-75616211D01*
X71878363Y-75616212D01*
X71964476Y-75644191D01*
X72050591Y-75672171D01*
X72133429Y-75685291D01*
X72229449Y-75700500D01*
X72229454Y-75700500D01*
X72410551Y-75700500D01*
X72497259Y-75686765D01*
X72589409Y-75672171D01*
X72761639Y-75616211D01*
X72922994Y-75533996D01*
X73069501Y-75427553D01*
X73197553Y-75299501D01*
X73303996Y-75152994D01*
X73386211Y-74991639D01*
X73442171Y-74819409D01*
X73456765Y-74727259D01*
X73470500Y-74640551D01*
X73470500Y-73859448D01*
X73454019Y-73755397D01*
X73442171Y-73680591D01*
X73386211Y-73508361D01*
X73386206Y-73508350D01*
X73344142Y-73425795D01*
X73331245Y-73357126D01*
X73357521Y-73292386D01*
X73414627Y-73252128D01*
X73454626Y-73245500D01*
X75609548Y-73245500D01*
X75676587Y-73265185D01*
X75697229Y-73281819D01*
X77071016Y-74655606D01*
X77071045Y-74655637D01*
X77161263Y-74745855D01*
X77161267Y-74745858D01*
X77263707Y-74814307D01*
X77263716Y-74814312D01*
X77276024Y-74819410D01*
X77377548Y-74861463D01*
X77422876Y-74870479D01*
X77498391Y-74885499D01*
X77498392Y-74885500D01*
X77498393Y-74885500D01*
X77498394Y-74885500D01*
X83590943Y-74885500D01*
X83657982Y-74905185D01*
X83703737Y-74957989D01*
X83712702Y-74990823D01*
X83712973Y-74990766D01*
X83713979Y-74995499D01*
X83714264Y-74996542D01*
X83714325Y-74997126D01*
X83772818Y-75177149D01*
X83772821Y-75177156D01*
X83867467Y-75341088D01*
X83945321Y-75427553D01*
X83994129Y-75481760D01*
X84147265Y-75593020D01*
X84147270Y-75593023D01*
X84320192Y-75670014D01*
X84320197Y-75670016D01*
X84505354Y-75709372D01*
X84505355Y-75709372D01*
X84694644Y-75709372D01*
X84694646Y-75709372D01*
X84879803Y-75670016D01*
X85052730Y-75593023D01*
X85205871Y-75481760D01*
X85332533Y-75341088D01*
X85427179Y-75177156D01*
X85485674Y-74997128D01*
X85505460Y-74808872D01*
X85485674Y-74620616D01*
X85427179Y-74440588D01*
X85332533Y-74276656D01*
X85306255Y-74247471D01*
X85276026Y-74184482D01*
X85284650Y-74115146D01*
X85329391Y-74061480D01*
X85396043Y-74040522D01*
X85398405Y-74040500D01*
X96980663Y-74040500D01*
X97047702Y-74060185D01*
X97053548Y-74064182D01*
X97067265Y-74074148D01*
X97067270Y-74074151D01*
X97240192Y-74151142D01*
X97240197Y-74151144D01*
X97425354Y-74190500D01*
X97425355Y-74190500D01*
X97614644Y-74190500D01*
X97614646Y-74190500D01*
X97799803Y-74151144D01*
X97972730Y-74074151D01*
X98125871Y-73962888D01*
X98252533Y-73822216D01*
X98347179Y-73658284D01*
X98405674Y-73478256D01*
X98425460Y-73290000D01*
X98405674Y-73101744D01*
X98347179Y-72921716D01*
X98252533Y-72757784D01*
X98125871Y-72617112D01*
X98125870Y-72617111D01*
X97972734Y-72505851D01*
X97972729Y-72505848D01*
X97799807Y-72428857D01*
X97799802Y-72428855D01*
X97653944Y-72397853D01*
X97614646Y-72389500D01*
X97425354Y-72389500D01*
X97392897Y-72396398D01*
X97240197Y-72428855D01*
X97240192Y-72428857D01*
X97067270Y-72505848D01*
X97067265Y-72505851D01*
X97053548Y-72515818D01*
X96987742Y-72539298D01*
X96980663Y-72539500D01*
X88799092Y-72539500D01*
X88732053Y-72519815D01*
X88686298Y-72467011D01*
X88676354Y-72397853D01*
X88705379Y-72334297D01*
X88742797Y-72305015D01*
X88786171Y-72282914D01*
X88977186Y-72144133D01*
X89144133Y-71977186D01*
X89282914Y-71786171D01*
X89390102Y-71575802D01*
X89463065Y-71351247D01*
X89500000Y-71118052D01*
X89500000Y-70750000D01*
X88500000Y-70750000D01*
X88500000Y-70250000D01*
X89500000Y-70250000D01*
X89500000Y-69881947D01*
X89463065Y-69648752D01*
X89390102Y-69424197D01*
X89282914Y-69213828D01*
X89144133Y-69022813D01*
X88977186Y-68855866D01*
X88786171Y-68717085D01*
X88575802Y-68609897D01*
X88351247Y-68536934D01*
X88250000Y-68520897D01*
X88250000Y-69566988D01*
X88192993Y-69534075D01*
X88065826Y-69500000D01*
X87934174Y-69500000D01*
X87807007Y-69534075D01*
X87750000Y-69566988D01*
X87750000Y-68520897D01*
X87648752Y-68536934D01*
X87424197Y-68609897D01*
X87213828Y-68717085D01*
X87022813Y-68855866D01*
X86855866Y-69022813D01*
X86717085Y-69213828D01*
X86609897Y-69424197D01*
X86536934Y-69648752D01*
X86500000Y-69881947D01*
X86500000Y-70250000D01*
X87500000Y-70250000D01*
X87500000Y-70750000D01*
X86500000Y-70750000D01*
X86500000Y-71118052D01*
X86536934Y-71351247D01*
X86609897Y-71575802D01*
X86717085Y-71786171D01*
X86855866Y-71977186D01*
X87022813Y-72144133D01*
X87213828Y-72282914D01*
X87257203Y-72305015D01*
X87307999Y-72352990D01*
X87324794Y-72420811D01*
X87302257Y-72486945D01*
X87247542Y-72530397D01*
X87200908Y-72539500D01*
X77765402Y-72539500D01*
X77698363Y-72519815D01*
X77677721Y-72503181D01*
X75206430Y-70031890D01*
X75176181Y-69982528D01*
X75127179Y-69831716D01*
X75127178Y-69831714D01*
X75067113Y-69727677D01*
X75050500Y-69665677D01*
X75050500Y-69436079D01*
X75021659Y-69291092D01*
X75021658Y-69291091D01*
X75021658Y-69291087D01*
X75021656Y-69291082D01*
X74965087Y-69154511D01*
X74965080Y-69154498D01*
X74882952Y-69031585D01*
X74858383Y-69007016D01*
X74778416Y-68927049D01*
X71941127Y-66089759D01*
X71910877Y-66040396D01*
X71898785Y-66003181D01*
X71840568Y-65824008D01*
X71733343Y-65613567D01*
X71594517Y-65422490D01*
X71427510Y-65255483D01*
X71236433Y-65116657D01*
X71213871Y-65105161D01*
X71025996Y-65009433D01*
X70801368Y-64936446D01*
X70568097Y-64899500D01*
X70568092Y-64899500D01*
X65668092Y-64899500D01*
X54692889Y-64899500D01*
X54625850Y-64879815D01*
X54605208Y-64863181D01*
X53636819Y-63894792D01*
X53603334Y-63833469D01*
X53600500Y-63807111D01*
X53600500Y-60860000D01*
X56454540Y-60860000D01*
X56474326Y-61048256D01*
X56474327Y-61048259D01*
X56532818Y-61228277D01*
X56532821Y-61228284D01*
X56627467Y-61392216D01*
X56729185Y-61505185D01*
X56754129Y-61532888D01*
X56907265Y-61644148D01*
X56907270Y-61644151D01*
X57080192Y-61721142D01*
X57080197Y-61721144D01*
X57265354Y-61760500D01*
X57265355Y-61760500D01*
X57454644Y-61760500D01*
X57454646Y-61760500D01*
X57639803Y-61721144D01*
X57812730Y-61644151D01*
X57965871Y-61532888D01*
X57968788Y-61529647D01*
X57971600Y-61526526D01*
X58031087Y-61489879D01*
X58063748Y-61485500D01*
X75569548Y-61485500D01*
X75636587Y-61505185D01*
X75657229Y-61521819D01*
X80321263Y-66185855D01*
X80321267Y-66185858D01*
X80423708Y-66254308D01*
X80423715Y-66254312D01*
X80486239Y-66280210D01*
X80537548Y-66301463D01*
X80557597Y-66305451D01*
X80591196Y-66312134D01*
X80658392Y-66325501D01*
X80658394Y-66325501D01*
X80787721Y-66325501D01*
X80787741Y-66325500D01*
X81995165Y-66325500D01*
X82062204Y-66345185D01*
X82107959Y-66397989D01*
X82118485Y-66462459D01*
X82114540Y-66500000D01*
X82134326Y-66688256D01*
X82134327Y-66688259D01*
X82192818Y-66868277D01*
X82192821Y-66868284D01*
X82287467Y-67032216D01*
X82330772Y-67080310D01*
X82362650Y-67115715D01*
X82392880Y-67178706D01*
X82394500Y-67198687D01*
X82394500Y-67326312D01*
X82374815Y-67393351D01*
X82362650Y-67409284D01*
X82287466Y-67492784D01*
X82192821Y-67656715D01*
X82192818Y-67656722D01*
X82134327Y-67836740D01*
X82134326Y-67836744D01*
X82114540Y-68025000D01*
X82134326Y-68213256D01*
X82134327Y-68213259D01*
X82192818Y-68393277D01*
X82192821Y-68393284D01*
X82287467Y-68557216D01*
X82414129Y-68697888D01*
X82567265Y-68809148D01*
X82567270Y-68809151D01*
X82740192Y-68886142D01*
X82740197Y-68886144D01*
X82925354Y-68925500D01*
X82925355Y-68925500D01*
X83114644Y-68925500D01*
X83114646Y-68925500D01*
X83299803Y-68886144D01*
X83472730Y-68809151D01*
X83625871Y-68697888D01*
X83752533Y-68557216D01*
X83847179Y-68393284D01*
X83905674Y-68213256D01*
X83925460Y-68025000D01*
X83905674Y-67836744D01*
X83847179Y-67656716D01*
X83752533Y-67492784D01*
X83677350Y-67409284D01*
X83647120Y-67346292D01*
X83645500Y-67326312D01*
X83645500Y-67198687D01*
X83665185Y-67131648D01*
X83677350Y-67115715D01*
X83695891Y-67095122D01*
X83752533Y-67032216D01*
X83847179Y-66868284D01*
X83905674Y-66688256D01*
X83925460Y-66500000D01*
X83921514Y-66462459D01*
X83934083Y-66393732D01*
X83981815Y-66342708D01*
X84044835Y-66325500D01*
X89059548Y-66325500D01*
X89126587Y-66345185D01*
X89147229Y-66361819D01*
X89671038Y-66885628D01*
X89704523Y-66946951D01*
X89706678Y-66960347D01*
X89714139Y-67031338D01*
X89724326Y-67128256D01*
X89724327Y-67128259D01*
X89782818Y-67308277D01*
X89782821Y-67308284D01*
X89877467Y-67472216D01*
X90001054Y-67609473D01*
X90004129Y-67612888D01*
X90157265Y-67724148D01*
X90157270Y-67724151D01*
X90330192Y-67801142D01*
X90330197Y-67801144D01*
X90515354Y-67840500D01*
X90515355Y-67840500D01*
X90704644Y-67840500D01*
X90704646Y-67840500D01*
X90889803Y-67801144D01*
X91062730Y-67724151D01*
X91215871Y-67612888D01*
X91342533Y-67472216D01*
X91437179Y-67308284D01*
X91495674Y-67128256D01*
X91515460Y-66940000D01*
X91495674Y-66751744D01*
X91437179Y-66571716D01*
X91342533Y-66407784D01*
X91215871Y-66267112D01*
X91215870Y-66267111D01*
X91062734Y-66155851D01*
X91062729Y-66155848D01*
X90889807Y-66078857D01*
X90889802Y-66078855D01*
X90744001Y-66047865D01*
X90704646Y-66039500D01*
X90704645Y-66039500D01*
X90645452Y-66039500D01*
X90578413Y-66019815D01*
X90557771Y-66003181D01*
X89860198Y-65305608D01*
X89860178Y-65305586D01*
X89768733Y-65214141D01*
X89717509Y-65179915D01*
X89666287Y-65145689D01*
X89666286Y-65145688D01*
X89666283Y-65145686D01*
X89666280Y-65145685D01*
X89585792Y-65112347D01*
X89552453Y-65098537D01*
X89542427Y-65096543D01*
X89492029Y-65086518D01*
X89431610Y-65074500D01*
X89431607Y-65074500D01*
X89431606Y-65074500D01*
X83908253Y-65074500D01*
X83841214Y-65054815D01*
X83795459Y-65002011D01*
X83785515Y-64932853D01*
X83800866Y-64888500D01*
X83847179Y-64808284D01*
X83905674Y-64628256D01*
X83925460Y-64440000D01*
X83905674Y-64251744D01*
X83847179Y-64071716D01*
X83752533Y-63907784D01*
X83625871Y-63767112D01*
X83625870Y-63767111D01*
X83472734Y-63655851D01*
X83472729Y-63655848D01*
X83299807Y-63578857D01*
X83299803Y-63578856D01*
X83203718Y-63558432D01*
X83142237Y-63525239D01*
X83108461Y-63464076D01*
X83105500Y-63437142D01*
X83105500Y-60674049D01*
X83125185Y-60607010D01*
X83177989Y-60561255D01*
X83247147Y-60551311D01*
X83310703Y-60580336D01*
X83317181Y-60586368D01*
X83350858Y-60620045D01*
X83350861Y-60620047D01*
X83537266Y-60750568D01*
X83743504Y-60846739D01*
X83963308Y-60905635D01*
X84125230Y-60919801D01*
X84189998Y-60925468D01*
X84190000Y-60925468D01*
X84190002Y-60925468D01*
X84246673Y-60920509D01*
X84416692Y-60905635D01*
X84636496Y-60846739D01*
X84842734Y-60750568D01*
X85029139Y-60620047D01*
X85190047Y-60459139D01*
X85320568Y-60272734D01*
X85416739Y-60066496D01*
X85475635Y-59846692D01*
X85495468Y-59620000D01*
X85475635Y-59393308D01*
X85416739Y-59173504D01*
X85320568Y-58967266D01*
X85190047Y-58780861D01*
X85190045Y-58780858D01*
X85029141Y-58619954D01*
X84842734Y-58489432D01*
X84842728Y-58489429D01*
X84784725Y-58462382D01*
X84732285Y-58416210D01*
X84713133Y-58349017D01*
X84733348Y-58282135D01*
X84784725Y-58237618D01*
X84842734Y-58210568D01*
X85029139Y-58080047D01*
X85190047Y-57919139D01*
X85320568Y-57732734D01*
X85416739Y-57526496D01*
X85475635Y-57306692D01*
X85492634Y-57112384D01*
X85495468Y-57080001D01*
X85495468Y-57079998D01*
X85475635Y-56853313D01*
X85475635Y-56853308D01*
X85416739Y-56633504D01*
X85320568Y-56427266D01*
X85190047Y-56240861D01*
X85190045Y-56240858D01*
X85029143Y-56079956D01*
X85004536Y-56062726D01*
X84960912Y-56008149D01*
X84953719Y-55938650D01*
X84985241Y-55876296D01*
X85045471Y-55840882D01*
X85062404Y-55837861D01*
X85097483Y-55834091D01*
X85232331Y-55783796D01*
X85347546Y-55697546D01*
X85433796Y-55582331D01*
X85484091Y-55447483D01*
X85490500Y-55387873D01*
X85490499Y-54289999D01*
X90531127Y-54289999D01*
X90531128Y-54290000D01*
X91494314Y-54290000D01*
X91489920Y-54294394D01*
X91437259Y-54385606D01*
X91410000Y-54487339D01*
X91410000Y-54592661D01*
X91437259Y-54694394D01*
X91489920Y-54785606D01*
X91494314Y-54790000D01*
X90531128Y-54790000D01*
X90583730Y-54986317D01*
X90583734Y-54986326D01*
X90679865Y-55192482D01*
X90810342Y-55378820D01*
X90971179Y-55539657D01*
X91157517Y-55670134D01*
X91216457Y-55697618D01*
X91268896Y-55743790D01*
X91288048Y-55810984D01*
X91267832Y-55877865D01*
X91216457Y-55922382D01*
X91157517Y-55949865D01*
X90971179Y-56080342D01*
X90810342Y-56241179D01*
X90679865Y-56427517D01*
X90583734Y-56633673D01*
X90583730Y-56633682D01*
X90531127Y-56829999D01*
X90531128Y-56830000D01*
X91494314Y-56830000D01*
X91489920Y-56834394D01*
X91437259Y-56925606D01*
X91410000Y-57027339D01*
X91410000Y-57132661D01*
X91437259Y-57234394D01*
X91489920Y-57325606D01*
X91494314Y-57330000D01*
X90531128Y-57330000D01*
X90583730Y-57526317D01*
X90583734Y-57526326D01*
X90679865Y-57732482D01*
X90810342Y-57918820D01*
X90971179Y-58079657D01*
X91157517Y-58210134D01*
X91216457Y-58237618D01*
X91268896Y-58283790D01*
X91288048Y-58350984D01*
X91267832Y-58417865D01*
X91216457Y-58462382D01*
X91157517Y-58489865D01*
X90971179Y-58620342D01*
X90810342Y-58781179D01*
X90679865Y-58967517D01*
X90583734Y-59173673D01*
X90583730Y-59173682D01*
X90531127Y-59369999D01*
X90531128Y-59370000D01*
X91494314Y-59370000D01*
X91489920Y-59374394D01*
X91437259Y-59465606D01*
X91410000Y-59567339D01*
X91410000Y-59672661D01*
X91437259Y-59774394D01*
X91489920Y-59865606D01*
X91494314Y-59870000D01*
X90531128Y-59870000D01*
X90583730Y-60066317D01*
X90583734Y-60066326D01*
X90679865Y-60272482D01*
X90810342Y-60458820D01*
X90971179Y-60619657D01*
X91157517Y-60750134D01*
X91363673Y-60846265D01*
X91363682Y-60846269D01*
X91559999Y-60898872D01*
X91560000Y-60898871D01*
X91560000Y-59935686D01*
X91564394Y-59940080D01*
X91655606Y-59992741D01*
X91757339Y-60020000D01*
X91862661Y-60020000D01*
X91964394Y-59992741D01*
X92055606Y-59940080D01*
X92060000Y-59935686D01*
X92060000Y-60898872D01*
X92256317Y-60846269D01*
X92256326Y-60846265D01*
X92462482Y-60750134D01*
X92648820Y-60619657D01*
X92809657Y-60458820D01*
X92940134Y-60272482D01*
X93036265Y-60066326D01*
X93036269Y-60066317D01*
X93088872Y-59870000D01*
X92125686Y-59870000D01*
X92130080Y-59865606D01*
X92182741Y-59774394D01*
X92210000Y-59672661D01*
X92210000Y-59567339D01*
X92182741Y-59465606D01*
X92130080Y-59374394D01*
X92125686Y-59370000D01*
X93088872Y-59370000D01*
X93088872Y-59369999D01*
X93036269Y-59173682D01*
X93036265Y-59173673D01*
X92940134Y-58967517D01*
X92809657Y-58781179D01*
X92648820Y-58620342D01*
X92462481Y-58489865D01*
X92462479Y-58489864D01*
X92403543Y-58462382D01*
X92351103Y-58416210D01*
X92331951Y-58349017D01*
X92352166Y-58282136D01*
X92403543Y-58237618D01*
X92462479Y-58210135D01*
X92462481Y-58210134D01*
X92648820Y-58079657D01*
X92809657Y-57918820D01*
X92940134Y-57732482D01*
X93036265Y-57526326D01*
X93036269Y-57526317D01*
X93088872Y-57330000D01*
X92125686Y-57330000D01*
X92130080Y-57325606D01*
X92182741Y-57234394D01*
X92210000Y-57132661D01*
X92210000Y-57027339D01*
X92182741Y-56925606D01*
X92130080Y-56834394D01*
X92125686Y-56830000D01*
X93088872Y-56830000D01*
X93088872Y-56829999D01*
X93036269Y-56633682D01*
X93036265Y-56633673D01*
X92940134Y-56427517D01*
X92809657Y-56241179D01*
X92648820Y-56080342D01*
X92462481Y-55949865D01*
X92462479Y-55949864D01*
X92403543Y-55922382D01*
X92351103Y-55876210D01*
X92331951Y-55809017D01*
X92352166Y-55742136D01*
X92403543Y-55697618D01*
X92462479Y-55670135D01*
X92462481Y-55670134D01*
X92648820Y-55539657D01*
X92809657Y-55378820D01*
X92940134Y-55192482D01*
X93036265Y-54986326D01*
X93036269Y-54986317D01*
X93088872Y-54790000D01*
X92125686Y-54790000D01*
X92130080Y-54785606D01*
X92182741Y-54694394D01*
X92210000Y-54592661D01*
X92210000Y-54487339D01*
X92182741Y-54385606D01*
X92130080Y-54294394D01*
X92125686Y-54290000D01*
X93088872Y-54290000D01*
X93088872Y-54289999D01*
X93036269Y-54093682D01*
X93036265Y-54093673D01*
X92940134Y-53887517D01*
X92809657Y-53701179D01*
X92648820Y-53540342D01*
X92462482Y-53409865D01*
X92256328Y-53313734D01*
X92060000Y-53261127D01*
X92060000Y-54224314D01*
X92055606Y-54219920D01*
X91964394Y-54167259D01*
X91862661Y-54140000D01*
X91757339Y-54140000D01*
X91655606Y-54167259D01*
X91564394Y-54219920D01*
X91560000Y-54224314D01*
X91560000Y-53261127D01*
X91363671Y-53313734D01*
X91157517Y-53409865D01*
X90971179Y-53540342D01*
X90810342Y-53701179D01*
X90679865Y-53887517D01*
X90583734Y-54093673D01*
X90583730Y-54093682D01*
X90531127Y-54289999D01*
X85490499Y-54289999D01*
X85490499Y-53692128D01*
X85484091Y-53632517D01*
X85433796Y-53497669D01*
X85433795Y-53497668D01*
X85433793Y-53497664D01*
X85347547Y-53382455D01*
X85347544Y-53382452D01*
X85232335Y-53296206D01*
X85232328Y-53296202D01*
X85097482Y-53245908D01*
X85097483Y-53245908D01*
X85037883Y-53239501D01*
X85037881Y-53239500D01*
X85037873Y-53239500D01*
X85037864Y-53239500D01*
X83342129Y-53239500D01*
X83342123Y-53239501D01*
X83282516Y-53245908D01*
X83147671Y-53296202D01*
X83147664Y-53296206D01*
X83032455Y-53382452D01*
X83032452Y-53382455D01*
X82946206Y-53497664D01*
X82946202Y-53497671D01*
X82895908Y-53632517D01*
X82891994Y-53668926D01*
X82889501Y-53692123D01*
X82889500Y-53692135D01*
X82889500Y-53790500D01*
X82869815Y-53857539D01*
X82817011Y-53903294D01*
X82765500Y-53914500D01*
X67938388Y-53914500D01*
X67817555Y-53938535D01*
X67817547Y-53938537D01*
X67703716Y-53985687D01*
X67601265Y-54054142D01*
X67601262Y-54054145D01*
X65958520Y-55696888D01*
X65897197Y-55730373D01*
X65830577Y-55726488D01*
X65804986Y-55717702D01*
X65614204Y-55685867D01*
X65576049Y-55679500D01*
X65343951Y-55679500D01*
X65298164Y-55687140D01*
X65115015Y-55717702D01*
X64895504Y-55793061D01*
X64895495Y-55793064D01*
X64691371Y-55903531D01*
X64691365Y-55903535D01*
X64508222Y-56046081D01*
X64508219Y-56046084D01*
X64351016Y-56216852D01*
X64224075Y-56411151D01*
X64130842Y-56623699D01*
X64073866Y-56848691D01*
X64073864Y-56848702D01*
X64054700Y-57079993D01*
X64054700Y-57080006D01*
X64073864Y-57311297D01*
X64073866Y-57311308D01*
X64130842Y-57536300D01*
X64224075Y-57748848D01*
X64351016Y-57943147D01*
X64351019Y-57943151D01*
X64351021Y-57943153D01*
X64508216Y-58113913D01*
X64508219Y-58113915D01*
X64508222Y-58113918D01*
X64691365Y-58256464D01*
X64691371Y-58256468D01*
X64691374Y-58256470D01*
X64842451Y-58338229D01*
X64894652Y-58366479D01*
X64895497Y-58366936D01*
X64966371Y-58391267D01*
X65115015Y-58442297D01*
X65115017Y-58442297D01*
X65115019Y-58442298D01*
X65343951Y-58480500D01*
X65343952Y-58480500D01*
X65576048Y-58480500D01*
X65576049Y-58480500D01*
X65804981Y-58442298D01*
X66024503Y-58366936D01*
X66228626Y-58256470D01*
X66229170Y-58256047D01*
X66367282Y-58148550D01*
X66411784Y-58113913D01*
X66568979Y-57943153D01*
X66695924Y-57748849D01*
X66789157Y-57536300D01*
X66846134Y-57311305D01*
X66846135Y-57311297D01*
X66865300Y-57080006D01*
X66865300Y-57079994D01*
X69135202Y-57079994D01*
X69135202Y-57080005D01*
X69154361Y-57311218D01*
X69211317Y-57536135D01*
X69304515Y-57748606D01*
X69388812Y-57877633D01*
X70057037Y-57209408D01*
X70074075Y-57272993D01*
X70139901Y-57387007D01*
X70232993Y-57480099D01*
X70347007Y-57545925D01*
X70410590Y-57562962D01*
X69741201Y-58232351D01*
X69771649Y-58256050D01*
X69975697Y-58366476D01*
X69975706Y-58366479D01*
X70195139Y-58441811D01*
X70423993Y-58480000D01*
X70656007Y-58480000D01*
X70884860Y-58441811D01*
X71104293Y-58366479D01*
X71104301Y-58366476D01*
X71308355Y-58256047D01*
X71338797Y-58232351D01*
X71338798Y-58232350D01*
X70669410Y-57562962D01*
X70732993Y-57545925D01*
X70847007Y-57480099D01*
X70940099Y-57387007D01*
X71005925Y-57272993D01*
X71022962Y-57209409D01*
X71691186Y-57877633D01*
X71775482Y-57748611D01*
X71868682Y-57536135D01*
X71925638Y-57311218D01*
X71944798Y-57080005D01*
X71944798Y-57079994D01*
X71925638Y-56848781D01*
X71868682Y-56623864D01*
X71775484Y-56411393D01*
X71691186Y-56282365D01*
X71022962Y-56950589D01*
X71005925Y-56887007D01*
X70940099Y-56772993D01*
X70847007Y-56679901D01*
X70732993Y-56614075D01*
X70669409Y-56597037D01*
X71338797Y-55927647D01*
X71338797Y-55927645D01*
X71308360Y-55903955D01*
X71308354Y-55903951D01*
X71104302Y-55793523D01*
X71104293Y-55793520D01*
X70884860Y-55718188D01*
X70656007Y-55680000D01*
X70423993Y-55680000D01*
X70195139Y-55718188D01*
X69975706Y-55793520D01*
X69975697Y-55793523D01*
X69771650Y-55903949D01*
X69741200Y-55927647D01*
X70410591Y-56597037D01*
X70347007Y-56614075D01*
X70232993Y-56679901D01*
X70139901Y-56772993D01*
X70074075Y-56887007D01*
X70057037Y-56950591D01*
X69388811Y-56282365D01*
X69304516Y-56411390D01*
X69211317Y-56623864D01*
X69154361Y-56848781D01*
X69135202Y-57079994D01*
X66865300Y-57079994D01*
X66865300Y-57079993D01*
X66846135Y-56848702D01*
X66846132Y-56848686D01*
X66826963Y-56772993D01*
X66808823Y-56701361D01*
X66811447Y-56631544D01*
X66841345Y-56583243D01*
X68222772Y-55201819D01*
X68284095Y-55168334D01*
X68310453Y-55165500D01*
X80460500Y-55165500D01*
X80527539Y-55185185D01*
X80573294Y-55237989D01*
X80584500Y-55289500D01*
X80584500Y-61305056D01*
X80567887Y-61367056D01*
X80472821Y-61531715D01*
X80472818Y-61531722D01*
X80419275Y-61696513D01*
X80414326Y-61711744D01*
X80394540Y-61900000D01*
X80414326Y-62088256D01*
X80414327Y-62088259D01*
X80472818Y-62268277D01*
X80472821Y-62268284D01*
X80567467Y-62432216D01*
X80682614Y-62560099D01*
X80694129Y-62572888D01*
X80847265Y-62684148D01*
X80847270Y-62684151D01*
X81020192Y-62761142D01*
X81020197Y-62761144D01*
X81205354Y-62800500D01*
X81205355Y-62800500D01*
X81394644Y-62800500D01*
X81394646Y-62800500D01*
X81579803Y-62761144D01*
X81680065Y-62716503D01*
X81749313Y-62707218D01*
X81812590Y-62736846D01*
X81849804Y-62795981D01*
X81854500Y-62829783D01*
X81854500Y-63961611D01*
X81878535Y-64082444D01*
X81878540Y-64082461D01*
X81925685Y-64196280D01*
X81925690Y-64196289D01*
X81959914Y-64247507D01*
X81959915Y-64247509D01*
X81994141Y-64298733D01*
X82081038Y-64385630D01*
X82114523Y-64446953D01*
X82116678Y-64460349D01*
X82125673Y-64545928D01*
X82134326Y-64628256D01*
X82134327Y-64628259D01*
X82192818Y-64808277D01*
X82192821Y-64808284D01*
X82234119Y-64879815D01*
X82239134Y-64888500D01*
X82255607Y-64956400D01*
X82232754Y-65022427D01*
X82177833Y-65065618D01*
X82131747Y-65074500D01*
X81030453Y-65074500D01*
X80963414Y-65054815D01*
X80942772Y-65038181D01*
X76372928Y-60468338D01*
X76372925Y-60468334D01*
X76372925Y-60468335D01*
X76365858Y-60461268D01*
X76365858Y-60461267D01*
X76278733Y-60374142D01*
X76278732Y-60374141D01*
X76278731Y-60374140D01*
X76227509Y-60339915D01*
X76225430Y-60338526D01*
X76176286Y-60305688D01*
X76176283Y-60305686D01*
X76176280Y-60305685D01*
X76095792Y-60272347D01*
X76062453Y-60258537D01*
X76052427Y-60256543D01*
X76002029Y-60246518D01*
X75941610Y-60234500D01*
X75941607Y-60234500D01*
X75941606Y-60234500D01*
X58063748Y-60234500D01*
X57996709Y-60214815D01*
X57971600Y-60193474D01*
X57965873Y-60187114D01*
X57965869Y-60187110D01*
X57812734Y-60075851D01*
X57812729Y-60075848D01*
X57639807Y-59998857D01*
X57639802Y-59998855D01*
X57494001Y-59967865D01*
X57454646Y-59959500D01*
X57265354Y-59959500D01*
X57232897Y-59966398D01*
X57080197Y-59998855D01*
X57080192Y-59998857D01*
X56907270Y-60075848D01*
X56907265Y-60075851D01*
X56754129Y-60187111D01*
X56627466Y-60327785D01*
X56532821Y-60491715D01*
X56532818Y-60491722D01*
X56474327Y-60671740D01*
X56474326Y-60671744D01*
X56454540Y-60860000D01*
X53600500Y-60860000D01*
X53600500Y-51881902D01*
X53563553Y-51648631D01*
X53490565Y-51424000D01*
X53464014Y-51371891D01*
X53450499Y-51315597D01*
X53450499Y-51102129D01*
X53450498Y-51102123D01*
X53450497Y-51102116D01*
X53444091Y-51042517D01*
X53393884Y-50907906D01*
X53393797Y-50907671D01*
X53393793Y-50907664D01*
X53307547Y-50792455D01*
X53307544Y-50792452D01*
X53215124Y-50723266D01*
X53173253Y-50667332D01*
X53168269Y-50597641D01*
X53201755Y-50536318D01*
X53263078Y-50502834D01*
X53289435Y-50500000D01*
X67340590Y-50500000D01*
X67407629Y-50519685D01*
G37*
%TD.AperFunction*%
%TA.AperFunction,Conductor*%
G36*
X100610000Y-61726988D02*
G01*
X100552993Y-61694075D01*
X100425826Y-61660000D01*
X100294174Y-61660000D01*
X100167007Y-61694075D01*
X100110000Y-61726988D01*
X100110000Y-60053012D01*
X100167007Y-60085925D01*
X100294174Y-60120000D01*
X100425826Y-60120000D01*
X100552993Y-60085925D01*
X100610000Y-60053012D01*
X100610000Y-61726988D01*
G37*
%TD.AperFunction*%
%TA.AperFunction,Conductor*%
G36*
X100610000Y-59186988D02*
G01*
X100552993Y-59154075D01*
X100425826Y-59120000D01*
X100294174Y-59120000D01*
X100167007Y-59154075D01*
X100110000Y-59186988D01*
X100110000Y-57513012D01*
X100167007Y-57545925D01*
X100294174Y-57580000D01*
X100425826Y-57580000D01*
X100552993Y-57545925D01*
X100610000Y-57513012D01*
X100610000Y-59186988D01*
G37*
%TD.AperFunction*%
%TA.AperFunction,Conductor*%
G36*
X100610000Y-56646988D02*
G01*
X100552993Y-56614075D01*
X100425826Y-56580000D01*
X100294174Y-56580000D01*
X100167007Y-56614075D01*
X100110000Y-56646988D01*
X100110000Y-54973012D01*
X100167007Y-55005925D01*
X100294174Y-55040000D01*
X100425826Y-55040000D01*
X100552993Y-55005925D01*
X100610000Y-54973012D01*
X100610000Y-56646988D01*
G37*
%TD.AperFunction*%
%TA.AperFunction,Conductor*%
G36*
X100610000Y-54106988D02*
G01*
X100552993Y-54074075D01*
X100425826Y-54040000D01*
X100294174Y-54040000D01*
X100167007Y-54074075D01*
X100110000Y-54106988D01*
X100110000Y-52433012D01*
X100167007Y-52465925D01*
X100294174Y-52500000D01*
X100425826Y-52500000D01*
X100552993Y-52465925D01*
X100610000Y-52433012D01*
X100610000Y-54106988D01*
G37*
%TD.AperFunction*%
%TD*%
M02*
