M48
; DRILL file {KiCad 8.0.4} date 2025-01-05T12:56:12+0000
; FORMAT={-:-/ absolute / metric / decimal}
; #@! TF.CreationDate,2025-01-05T12:56:12+00:00
; #@! TF.GenerationSoftware,Kicad,Pcbnew,8.0.4
; #@! TF.FileFunction,Plated,1,2,PTH
FMAT,2
METRIC
; #@! TA.AperFunction,Plated,PTH,ViaDrill
T1C0.400
; #@! TA.AperFunction,Plated,PTH,ComponentDrill
T2C0.600
; #@! TA.AperFunction,Plated,PTH,ComponentDrill
T3C0.800
; #@! TA.AperFunction,Plated,PTH,ComponentDrill
T4C1.000
%
G90
G05
T1
X54.07Y-66.42
X57.36Y-60.86
X61.36Y-69.03
X61.54Y-63.99
X65.55Y-66.4
X69.76Y-71.585
X70.45Y-66.4
X73.54Y-66.44
X74.3Y-70.2
X81.3Y-61.9
X83.02Y-64.44
X83.02Y-66.5
X83.02Y-68.025
X84.6Y-74.809
X90.61Y-66.94
X97.52Y-73.29
T3
X84.19Y-54.54
X84.19Y-57.08
X84.19Y-59.62
X91.81Y-54.54
X91.81Y-57.08
X91.81Y-59.62
T4
X52.1Y-52.0
X52.1Y-54.54
X52.1Y-57.08
X52.1Y-59.62
X52.1Y-62.16
X65.46Y-57.08
X68.0Y-52.0
X70.54Y-57.08
X100.36Y-52.0
X100.36Y-54.54
X100.36Y-57.08
X100.36Y-59.62
X100.36Y-62.16
T2
X63.68Y-73.95G85X63.68Y-74.55
G05
X72.32Y-73.95G85X72.32Y-74.55
G05
T4
X88.0Y-70.0G85X88.0Y-71.0
G05
M30
