%TF.GenerationSoftware,KiCad,Pcbnew,8.0.4*%
%TF.CreationDate,2025-01-04T18:25:06+00:00*%
%TF.ProjectId,breadboard_usb,62726561-6462-46f6-9172-645f7573622e,rev?*%
%TF.SameCoordinates,Original*%
%TF.FileFunction,Soldermask,Top*%
%TF.FilePolarity,Negative*%
%FSLAX46Y46*%
G04 Gerber Fmt 4.6, Leading zero omitted, Abs format (unit mm)*
G04 Created by KiCad (PCBNEW 8.0.4) date 2025-01-04 18:25:06*
%MOMM*%
%LPD*%
G01*
G04 APERTURE LIST*
G04 Aperture macros list*
%AMRoundRect*
0 Rectangle with rounded corners*
0 $1 Rounding radius*
0 $2 $3 $4 $5 $6 $7 $8 $9 X,Y pos of 4 corners*
0 Add a 4 corners polygon primitive as box body*
4,1,4,$2,$3,$4,$5,$6,$7,$8,$9,$2,$3,0*
0 Add four circle primitives for the rounded corners*
1,1,$1+$1,$2,$3*
1,1,$1+$1,$4,$5*
1,1,$1+$1,$6,$7*
1,1,$1+$1,$8,$9*
0 Add four rect primitives between the rounded corners*
20,1,$1+$1,$2,$3,$4,$5,0*
20,1,$1+$1,$4,$5,$6,$7,0*
20,1,$1+$1,$6,$7,$8,$9,0*
20,1,$1+$1,$8,$9,$2,$3,0*%
%AMFreePoly0*
4,1,19,0.500000,-0.750000,0.000000,-0.750000,0.000000,-0.744911,-0.071157,-0.744911,-0.207708,-0.704816,-0.327430,-0.627875,-0.420627,-0.520320,-0.479746,-0.390866,-0.500000,-0.250000,-0.500000,0.250000,-0.479746,0.390866,-0.420627,0.520320,-0.327430,0.627875,-0.207708,0.704816,-0.071157,0.744911,0.000000,0.744911,0.000000,0.750000,0.500000,0.750000,0.500000,-0.750000,0.500000,-0.750000,
$1*%
%AMFreePoly1*
4,1,19,0.000000,0.744911,0.071157,0.744911,0.207708,0.704816,0.327430,0.627875,0.420627,0.520320,0.479746,0.390866,0.500000,0.250000,0.500000,-0.250000,0.479746,-0.390866,0.420627,-0.520320,0.327430,-0.627875,0.207708,-0.704816,0.071157,-0.744911,0.000000,-0.744911,0.000000,-0.750000,-0.500000,-0.750000,-0.500000,0.750000,0.000000,0.750000,0.000000,0.744911,0.000000,0.744911,
$1*%
G04 Aperture macros list end*
%ADD10RoundRect,0.250000X0.350000X0.450000X-0.350000X0.450000X-0.350000X-0.450000X0.350000X-0.450000X0*%
%ADD11FreePoly0,180.000000*%
%ADD12FreePoly1,180.000000*%
%ADD13RoundRect,0.250000X0.337500X0.475000X-0.337500X0.475000X-0.337500X-0.475000X0.337500X-0.475000X0*%
%ADD14R,1.600000X1.600000*%
%ADD15O,1.600000X1.600000*%
%ADD16O,2.000000X3.000000*%
%ADD17R,2.300000X3.200000*%
%ADD18R,1.100000X0.510000*%
%ADD19R,1.700000X1.700000*%
%ADD20O,1.700000X1.700000*%
%ADD21RoundRect,0.250000X-0.325000X-0.450000X0.325000X-0.450000X0.325000X0.450000X-0.325000X0.450000X0*%
%ADD22RoundRect,0.250000X-0.350000X-0.450000X0.350000X-0.450000X0.350000X0.450000X-0.350000X0.450000X0*%
%ADD23C,1.800000*%
%ADD24O,0.600000X1.700000*%
%ADD25C,0.650000*%
%ADD26R,0.600000X2.000000*%
%ADD27R,0.300000X2.000000*%
%ADD28O,1.300000X1.900000*%
G04 APERTURE END LIST*
D10*
%TO.C,R29*%
X79000000Y-60080000D03*
X77000000Y-60080000D03*
%TD*%
%TO.C,R25*%
X66500000Y-64000000D03*
X64500000Y-64000000D03*
%TD*%
%TO.C,R27*%
X97500000Y-70500000D03*
X95500000Y-70500000D03*
%TD*%
D11*
%TO.C,JP4*%
X58650000Y-64000000D03*
D12*
X57350000Y-64000000D03*
%TD*%
D13*
%TO.C,C10*%
X80537500Y-69000000D03*
X78462500Y-69000000D03*
%TD*%
D14*
%TO.C,SW3*%
X84190000Y-54540000D03*
D15*
X84190000Y-57080000D03*
X84190000Y-59620000D03*
X91810000Y-59620000D03*
X91810000Y-57080000D03*
X91810000Y-54540000D03*
%TD*%
D16*
%TO.C,U5*%
X88000000Y-70500000D03*
D17*
X88000000Y-70500000D03*
D18*
X85450000Y-68500000D03*
X85450000Y-69500000D03*
X85450000Y-70500000D03*
X85450000Y-71500000D03*
X85450000Y-72500000D03*
X90550000Y-72500000D03*
X90550000Y-71500000D03*
X90550000Y-70500000D03*
X90550000Y-69500000D03*
X90550000Y-68500000D03*
%TD*%
D19*
%TO.C,J17*%
X100360000Y-52000000D03*
D20*
X100360000Y-54540000D03*
X100360000Y-57080000D03*
X100360000Y-59620000D03*
X100360000Y-62160000D03*
%TD*%
D10*
%TO.C,R30*%
X79000000Y-57080000D03*
X77000000Y-57080000D03*
%TD*%
D21*
%TO.C,D7*%
X56975000Y-69000000D03*
X59025000Y-69000000D03*
%TD*%
D19*
%TO.C,J16*%
X52100000Y-52000000D03*
D20*
X52100000Y-54540000D03*
X52100000Y-57080000D03*
X52100000Y-59620000D03*
X52100000Y-62160000D03*
%TD*%
D22*
%TO.C,R24*%
X69500000Y-64000000D03*
X71500000Y-64000000D03*
%TD*%
%TO.C,R26*%
X57000000Y-72000000D03*
X59000000Y-72000000D03*
%TD*%
D23*
%TO.C,RV1*%
X65460000Y-57080000D03*
X68000000Y-52000000D03*
X70540000Y-57080000D03*
%TD*%
D10*
%TO.C,R31*%
X79000000Y-54080000D03*
X77000000Y-54080000D03*
%TD*%
D22*
%TO.C,R28*%
X78500000Y-72000000D03*
X80500000Y-72000000D03*
%TD*%
D24*
%TO.C,J18*%
X63680000Y-70070000D03*
D25*
X65110000Y-70600000D03*
X70890000Y-70600000D03*
D24*
X72320000Y-70070000D03*
D26*
X64750000Y-68880000D03*
X65550000Y-68880000D03*
D27*
X66750000Y-68880000D03*
X67750000Y-68880000D03*
X68250000Y-68880000D03*
X69250000Y-68880000D03*
D26*
X70450000Y-68880000D03*
X71250000Y-68880000D03*
X71250000Y-68880000D03*
X70450000Y-68880000D03*
D27*
X69750000Y-68880000D03*
X68750000Y-68880000D03*
X67250000Y-68880000D03*
X66250000Y-68880000D03*
D26*
X65550000Y-68880000D03*
X64750000Y-68880000D03*
D28*
X63680000Y-74250000D03*
X72320000Y-74250000D03*
%TD*%
M02*
