%TF.GenerationSoftware,KiCad,Pcbnew,8.0.4*%
%TF.CreationDate,2025-01-04T18:25:06+00:00*%
%TF.ProjectId,breadboard_usb,62726561-6462-46f6-9172-645f7573622e,rev?*%
%TF.SameCoordinates,Original*%
%TF.FileFunction,Copper,L1,Top*%
%TF.FilePolarity,Positive*%
%FSLAX46Y46*%
G04 Gerber Fmt 4.6, Leading zero omitted, Abs format (unit mm)*
G04 Created by KiCad (PCBNEW 8.0.4) date 2025-01-04 18:25:06*
%MOMM*%
%LPD*%
G01*
G04 APERTURE LIST*
G04 Aperture macros list*
%AMRoundRect*
0 Rectangle with rounded corners*
0 $1 Rounding radius*
0 $2 $3 $4 $5 $6 $7 $8 $9 X,Y pos of 4 corners*
0 Add a 4 corners polygon primitive as box body*
4,1,4,$2,$3,$4,$5,$6,$7,$8,$9,$2,$3,0*
0 Add four circle primitives for the rounded corners*
1,1,$1+$1,$2,$3*
1,1,$1+$1,$4,$5*
1,1,$1+$1,$6,$7*
1,1,$1+$1,$8,$9*
0 Add four rect primitives between the rounded corners*
20,1,$1+$1,$2,$3,$4,$5,0*
20,1,$1+$1,$4,$5,$6,$7,0*
20,1,$1+$1,$6,$7,$8,$9,0*
20,1,$1+$1,$8,$9,$2,$3,0*%
%AMFreePoly0*
4,1,19,0.500000,-0.750000,0.000000,-0.750000,0.000000,-0.744911,-0.071157,-0.744911,-0.207708,-0.704816,-0.327430,-0.627875,-0.420627,-0.520320,-0.479746,-0.390866,-0.500000,-0.250000,-0.500000,0.250000,-0.479746,0.390866,-0.420627,0.520320,-0.327430,0.627875,-0.207708,0.704816,-0.071157,0.744911,0.000000,0.744911,0.000000,0.750000,0.500000,0.750000,0.500000,-0.750000,0.500000,-0.750000,
$1*%
%AMFreePoly1*
4,1,19,0.000000,0.744911,0.071157,0.744911,0.207708,0.704816,0.327430,0.627875,0.420627,0.520320,0.479746,0.390866,0.500000,0.250000,0.500000,-0.250000,0.479746,-0.390866,0.420627,-0.520320,0.327430,-0.627875,0.207708,-0.704816,0.071157,-0.744911,0.000000,-0.744911,0.000000,-0.750000,-0.500000,-0.750000,-0.500000,0.750000,0.000000,0.750000,0.000000,0.744911,0.000000,0.744911,
$1*%
G04 Aperture macros list end*
%TA.AperFunction,SMDPad,CuDef*%
%ADD10RoundRect,0.250000X0.350000X0.450000X-0.350000X0.450000X-0.350000X-0.450000X0.350000X-0.450000X0*%
%TD*%
%TA.AperFunction,SMDPad,CuDef*%
%ADD11FreePoly0,180.000000*%
%TD*%
%TA.AperFunction,SMDPad,CuDef*%
%ADD12FreePoly1,180.000000*%
%TD*%
%TA.AperFunction,SMDPad,CuDef*%
%ADD13RoundRect,0.250000X0.337500X0.475000X-0.337500X0.475000X-0.337500X-0.475000X0.337500X-0.475000X0*%
%TD*%
%TA.AperFunction,ComponentPad*%
%ADD14R,1.600000X1.600000*%
%TD*%
%TA.AperFunction,ComponentPad*%
%ADD15O,1.600000X1.600000*%
%TD*%
%TA.AperFunction,ComponentPad*%
%ADD16O,2.000000X3.000000*%
%TD*%
%TA.AperFunction,SMDPad,CuDef*%
%ADD17R,2.300000X3.200000*%
%TD*%
%TA.AperFunction,SMDPad,CuDef*%
%ADD18R,1.100000X0.510000*%
%TD*%
%TA.AperFunction,ComponentPad*%
%ADD19R,1.700000X1.700000*%
%TD*%
%TA.AperFunction,ComponentPad*%
%ADD20O,1.700000X1.700000*%
%TD*%
%TA.AperFunction,SMDPad,CuDef*%
%ADD21RoundRect,0.250000X-0.325000X-0.450000X0.325000X-0.450000X0.325000X0.450000X-0.325000X0.450000X0*%
%TD*%
%TA.AperFunction,SMDPad,CuDef*%
%ADD22RoundRect,0.250000X-0.350000X-0.450000X0.350000X-0.450000X0.350000X0.450000X-0.350000X0.450000X0*%
%TD*%
%TA.AperFunction,ComponentPad*%
%ADD23C,1.800000*%
%TD*%
%TA.AperFunction,SMDPad,CuDef*%
%ADD24R,0.600000X2.000000*%
%TD*%
%TA.AperFunction,SMDPad,CuDef*%
%ADD25R,0.300000X2.000000*%
%TD*%
%TA.AperFunction,ComponentPad*%
%ADD26O,1.300000X1.900000*%
%TD*%
%TA.AperFunction,ViaPad*%
%ADD27C,0.800000*%
%TD*%
%TA.AperFunction,Conductor*%
%ADD28C,0.500000*%
%TD*%
%TA.AperFunction,Conductor*%
%ADD29C,0.250000*%
%TD*%
%TA.AperFunction,Conductor*%
%ADD30C,2.000000*%
%TD*%
G04 APERTURE END LIST*
D10*
%TO.P,R29,1*%
%TO.N,/CFG3_2*%
X79000000Y-60080000D03*
%TO.P,R29,2*%
%TO.N,/VDD_2*%
X77000000Y-60080000D03*
%TD*%
%TO.P,R25,1*%
%TO.N,/CC1_2*%
X66500000Y-64000000D03*
%TO.P,R25,2*%
%TO.N,/GND_2*%
X64500000Y-64000000D03*
%TD*%
%TO.P,R27,1*%
%TO.N,/VBUS_2*%
X97500000Y-70500000D03*
%TO.P,R27,2*%
%TO.N,Net-(U5-VBUS)*%
X95500000Y-70500000D03*
%TD*%
D11*
%TO.P,JP4,1,A*%
%TO.N,/GND_2*%
X58650000Y-64000000D03*
D12*
%TO.P,JP4,2,B*%
%TO.N,/PG_2*%
X57350000Y-64000000D03*
%TD*%
D13*
%TO.P,C10,1*%
%TO.N,/VDD_2*%
X80537500Y-69000000D03*
%TO.P,C10,2*%
%TO.N,/GND_2*%
X78462500Y-69000000D03*
%TD*%
D14*
%TO.P,SW3,1*%
%TO.N,/CFG1_2*%
X84190000Y-54540000D03*
D15*
%TO.P,SW3,2*%
%TO.N,/CFG2_2*%
X84190000Y-57080000D03*
%TO.P,SW3,3*%
%TO.N,/CFG3_2*%
X84190000Y-59620000D03*
%TO.P,SW3,4*%
%TO.N,/GND_2*%
X91810000Y-59620000D03*
%TO.P,SW3,5*%
X91810000Y-57080000D03*
%TO.P,SW3,6*%
X91810000Y-54540000D03*
%TD*%
D16*
%TO.P,U5,0,GND*%
%TO.N,/GND_2*%
X88000000Y-70500000D03*
D17*
X88000000Y-70500000D03*
D18*
%TO.P,U5,1,VDD*%
%TO.N,/VDD_2*%
X85450000Y-68500000D03*
%TO.P,U5,2,CFG1*%
%TO.N,/CFG1_2*%
X85450000Y-69500000D03*
%TO.P,U5,3,CFG2*%
%TO.N,/CFG2_2*%
X85450000Y-70500000D03*
%TO.P,U5,4,DP*%
%TO.N,/DP_2*%
X85450000Y-71500000D03*
%TO.P,U5,5,DM*%
%TO.N,/DM_2*%
X85450000Y-72500000D03*
%TO.P,U5,6,CC1*%
%TO.N,/CC1_2*%
X90550000Y-72500000D03*
%TO.P,U5,7,CC2*%
%TO.N,/CC2_2*%
X90550000Y-71500000D03*
%TO.P,U5,8,VBUS*%
%TO.N,Net-(U5-VBUS)*%
X90550000Y-70500000D03*
%TO.P,U5,9,CFG3*%
%TO.N,/CFG3_2*%
X90550000Y-69500000D03*
%TO.P,U5,10,PG*%
%TO.N,/PG_2*%
X90550000Y-68500000D03*
%TD*%
D19*
%TO.P,J17,1,Pin_1*%
%TO.N,/GND_2*%
X100360000Y-52000000D03*
D20*
%TO.P,J17,2,Pin_2*%
X100360000Y-54540000D03*
%TO.P,J17,3,Pin_3*%
X100360000Y-57080000D03*
%TO.P,J17,4,Pin_4*%
X100360000Y-59620000D03*
%TO.P,J17,5,Pin_5*%
X100360000Y-62160000D03*
%TD*%
D10*
%TO.P,R30,1*%
%TO.N,/CFG2_2*%
X79000000Y-57080000D03*
%TO.P,R30,2*%
%TO.N,/VDD_2*%
X77000000Y-57080000D03*
%TD*%
D21*
%TO.P,D7,1,K*%
%TO.N,/PG_2*%
X56975000Y-69000000D03*
%TO.P,D7,2,A*%
%TO.N,Net-(D7-A)*%
X59025000Y-69000000D03*
%TD*%
D19*
%TO.P,J16,1,Pin_1*%
%TO.N,/VBUS_2*%
X52100000Y-52000000D03*
D20*
%TO.P,J16,2,Pin_2*%
X52100000Y-54540000D03*
%TO.P,J16,3,Pin_3*%
X52100000Y-57080000D03*
%TO.P,J16,4,Pin_4*%
X52100000Y-59620000D03*
%TO.P,J16,5,Pin_5*%
X52100000Y-62160000D03*
%TD*%
D22*
%TO.P,R24,1*%
%TO.N,/CC2_2*%
X69500000Y-64000000D03*
%TO.P,R24,2*%
%TO.N,/GND_2*%
X71500000Y-64000000D03*
%TD*%
%TO.P,R26,1*%
%TO.N,/VBUS_2*%
X57000000Y-72000000D03*
%TO.P,R26,2*%
%TO.N,Net-(D7-A)*%
X59000000Y-72000000D03*
%TD*%
D23*
%TO.P,RV1,1,1*%
%TO.N,/CFG1_2*%
X65460000Y-57080000D03*
%TO.P,RV1,2,2*%
%TO.N,/GND_2*%
X68000000Y-52000000D03*
%TO.P,RV1,3,3*%
X70540000Y-57080000D03*
%TD*%
D10*
%TO.P,R31,1*%
%TO.N,/CFG1_2*%
X79000000Y-54080000D03*
%TO.P,R31,2*%
%TO.N,/VDD_2*%
X77000000Y-54080000D03*
%TD*%
D22*
%TO.P,R28,1*%
%TO.N,/VBUS_2*%
X78500000Y-72000000D03*
%TO.P,R28,2*%
%TO.N,/VDD_2*%
X80500000Y-72000000D03*
%TD*%
D24*
%TO.P,J18,A1,GND*%
%TO.N,/GND_2*%
X64750000Y-68880000D03*
%TO.P,J18,A4,VBUS*%
%TO.N,/VBUS_2*%
X65550000Y-68880000D03*
D25*
%TO.P,J18,A5,CC1*%
%TO.N,/CC1_2*%
X66750000Y-68880000D03*
%TO.P,J18,A6,D+*%
%TO.N,/DP_2*%
X67750000Y-68880000D03*
%TO.P,J18,A7,D-*%
%TO.N,/DM_2*%
X68250000Y-68880000D03*
%TO.P,J18,A8,SBU1*%
%TO.N,unconnected-(J18-SBU1-PadA8)*%
X69250000Y-68880000D03*
D24*
%TO.P,J18,A9,VBUS*%
%TO.N,/VBUS_2*%
X70450000Y-68880000D03*
%TO.P,J18,A12,GND*%
%TO.N,/GND_2*%
X71250000Y-68880000D03*
%TO.P,J18,B1,GND*%
X71250000Y-68880000D03*
%TO.P,J18,B4,VBUS*%
%TO.N,/VBUS_2*%
X70450000Y-68880000D03*
D25*
%TO.P,J18,B5,CC2*%
%TO.N,/CC2_2*%
X69750000Y-68880000D03*
%TO.P,J18,B6,D+*%
%TO.N,/DP_2*%
X68750000Y-68880000D03*
%TO.P,J18,B7,D-*%
%TO.N,/DM_2*%
X67250000Y-68880000D03*
%TO.P,J18,B8,SBU2*%
%TO.N,unconnected-(J18-SBU2-PadB8)*%
X66250000Y-68880000D03*
D24*
%TO.P,J18,B9,VBUS*%
%TO.N,/VBUS_2*%
X65550000Y-68880000D03*
%TO.P,J18,B12,GND*%
%TO.N,/GND_2*%
X64750000Y-68880000D03*
D26*
%TO.P,J18,S1,SHIELD*%
%TO.N,unconnected-(J18-SHIELD-PadS1)_1*%
X63680000Y-74250000D03*
%TO.N,unconnected-(J18-SHIELD-PadS1)*%
X72320000Y-74250000D03*
%TD*%
D27*
%TO.N,/CC2_2*%
X84600000Y-74808872D03*
X69760000Y-71585000D03*
%TO.N,/VBUS_2*%
X54070000Y-66420000D03*
X97520000Y-73290000D03*
X70450000Y-66400000D03*
X74300000Y-70200000D03*
X65550000Y-66400000D03*
%TO.N,/GND_2*%
X61360000Y-69030000D03*
X61540000Y-63990000D03*
X73540000Y-66440000D03*
%TO.N,/CFG1_2*%
X81300000Y-61900000D03*
%TO.N,/CFG2_2*%
X83020000Y-68025000D03*
X83020000Y-66500000D03*
X83020000Y-64440000D03*
%TO.N,/PG_2*%
X90610000Y-66940000D03*
X57360000Y-60860000D03*
%TD*%
D28*
%TO.N,/VDD_2*%
X80537500Y-63787500D02*
X80537500Y-69000000D01*
X77000000Y-54080000D02*
X77000000Y-57080000D01*
X77000000Y-60080000D02*
X77000000Y-60250000D01*
D29*
X82237500Y-67300000D02*
X84250000Y-67300000D01*
X84250000Y-67300000D02*
X85450000Y-68500000D01*
X80500000Y-69037500D02*
X80537500Y-69000000D01*
X80500000Y-72000000D02*
X80500000Y-69037500D01*
D28*
X77000000Y-57080000D02*
X77000000Y-60080000D01*
D29*
X80537500Y-69000000D02*
X82237500Y-67300000D01*
D28*
X77000000Y-60250000D02*
X80537500Y-63787500D01*
D29*
%TO.N,/CC2_2*%
X68990000Y-66820000D02*
X68990000Y-64510000D01*
X69750000Y-71575000D02*
X69750000Y-68880000D01*
X69750000Y-67580000D02*
X68990000Y-66820000D01*
X69750000Y-68880000D02*
X69750000Y-67580000D01*
X68990000Y-64510000D02*
X69500000Y-64000000D01*
X86946128Y-74808872D02*
X90255000Y-71500000D01*
X90255000Y-71500000D02*
X90550000Y-71500000D01*
X69760000Y-71585000D02*
X69750000Y-71575000D01*
X84600000Y-74808872D02*
X86946128Y-74808872D01*
D28*
%TO.N,/VBUS_2*%
X70450000Y-68880000D02*
X70450000Y-66470000D01*
D29*
X57000000Y-72000000D02*
X54070000Y-69070000D01*
D28*
X97500000Y-70500000D02*
X97520000Y-73290000D01*
X76700000Y-70200000D02*
X78500000Y-72000000D01*
X97520000Y-73290000D02*
X97500000Y-73300000D01*
D29*
X54070000Y-69070000D02*
X54070000Y-66420000D01*
D30*
X52100000Y-52000000D02*
X52100000Y-64450000D01*
D28*
X74300000Y-70200000D02*
X76700000Y-70200000D01*
D30*
X52100000Y-64450000D02*
X54070000Y-66420000D01*
D28*
X65550000Y-68880000D02*
X65550000Y-66420000D01*
X97500000Y-73300000D02*
X97520000Y-73320000D01*
%TO.N,/GND_2*%
X71500000Y-64000000D02*
X73462500Y-64000000D01*
X61530000Y-64000000D02*
X58650000Y-64000000D01*
X64500000Y-64000000D02*
X61550000Y-64000000D01*
X61550000Y-64000000D02*
X61540000Y-63990000D01*
X64500000Y-66300000D02*
X64500000Y-64000000D01*
X73130000Y-66030000D02*
X73540000Y-66440000D01*
X63580000Y-66300000D02*
X61360000Y-68520000D01*
X73462500Y-64000000D02*
X78462500Y-69000000D01*
X70540000Y-57080000D02*
X70540000Y-54540000D01*
X64500000Y-64000000D02*
X64500000Y-63120000D01*
X64500000Y-63120000D02*
X70540000Y-57080000D01*
X64500000Y-66300000D02*
X63580000Y-66300000D01*
X71500000Y-66030000D02*
X73130000Y-66030000D01*
X70540000Y-54540000D02*
X68000000Y-52000000D01*
X71500000Y-58040000D02*
X70540000Y-57080000D01*
X71500000Y-68630000D02*
X71500000Y-66030000D01*
X71500000Y-64000000D02*
X71500000Y-58040000D01*
X61360000Y-68520000D02*
X61360000Y-69030000D01*
X61540000Y-63990000D02*
X61530000Y-64000000D01*
X71500000Y-66030000D02*
X71500000Y-64000000D01*
X71250000Y-68880000D02*
X71500000Y-68630000D01*
X64750000Y-68880000D02*
X64500000Y-68630000D01*
X64500000Y-68630000D02*
X64500000Y-66300000D01*
D29*
%TO.N,/DP_2*%
X69200000Y-72310000D02*
X67750000Y-70860000D01*
X76074695Y-72310000D02*
X69200000Y-72310000D01*
X68750000Y-71860000D02*
X68815000Y-71925000D01*
X68750000Y-68880000D02*
X68750000Y-71860000D01*
X85450000Y-71500000D02*
X85130000Y-71500000D01*
X83580000Y-73050000D02*
X76814695Y-73050000D01*
X67750000Y-70860000D02*
X67750000Y-68880000D01*
X76814695Y-73050000D02*
X76074695Y-72310000D01*
X85130000Y-71500000D02*
X83580000Y-73050000D01*
%TO.N,/DM_2*%
X67410000Y-66860000D02*
X68140000Y-66860000D01*
X68275000Y-66995000D02*
X68275000Y-68855000D01*
X67250000Y-68880000D02*
X67250000Y-67020000D01*
X85450000Y-72500000D02*
X83610000Y-74340000D01*
X83610000Y-74340000D02*
X75560000Y-74340000D01*
X75560000Y-74340000D02*
X74100000Y-72880000D01*
X68140000Y-66860000D02*
X68275000Y-66995000D01*
X67250000Y-67020000D02*
X67410000Y-66860000D01*
X68370000Y-72880000D02*
X67250000Y-71760000D01*
X68275000Y-68855000D02*
X68250000Y-68880000D01*
X74100000Y-72880000D02*
X68370000Y-72880000D01*
X67250000Y-71760000D02*
X67250000Y-68880000D01*
%TO.N,/CC1_2*%
X66750000Y-64250000D02*
X66500000Y-64000000D01*
X66750000Y-72800000D02*
X69510000Y-75560000D01*
X69510000Y-75560000D02*
X87490000Y-75560000D01*
X87490000Y-75560000D02*
X90550000Y-72500000D01*
X66750000Y-68880000D02*
X66750000Y-72800000D01*
X66750000Y-68880000D02*
X66750000Y-64250000D01*
%TO.N,/CFG1_2*%
X81950000Y-61900000D02*
X86325000Y-66275000D01*
X81300000Y-61900000D02*
X81950000Y-61900000D01*
X79000000Y-54080000D02*
X83730000Y-54080000D01*
X86325000Y-66275000D02*
X86325000Y-68920000D01*
X86325000Y-68920000D02*
X85745000Y-69500000D01*
X85745000Y-69500000D02*
X85450000Y-69500000D01*
X83730000Y-54080000D02*
X84190000Y-54540000D01*
%TO.N,/CFG2_2*%
X83020000Y-64440000D02*
X83020000Y-64430000D01*
X83020000Y-68025000D02*
X83020000Y-68525000D01*
X79000000Y-57080000D02*
X84190000Y-57080000D01*
X83020000Y-66500000D02*
X83020000Y-64440000D01*
X84995000Y-70500000D02*
X85450000Y-70500000D01*
X83020000Y-68525000D02*
X84995000Y-70500000D01*
%TO.N,/CFG3_2*%
X84190000Y-63435000D02*
X84190000Y-59620000D01*
X84190000Y-59620000D02*
X79460000Y-59620000D01*
X90550000Y-69500000D02*
X90255000Y-69500000D01*
X90255000Y-69500000D02*
X84190000Y-63435000D01*
X79460000Y-59620000D02*
X79000000Y-60080000D01*
%TO.N,/PG_2*%
X57350000Y-60870000D02*
X57360000Y-60860000D01*
X90550000Y-67000000D02*
X90550000Y-68500000D01*
X56975000Y-69000000D02*
X56975000Y-64375000D01*
X56975000Y-64375000D02*
X57350000Y-64000000D01*
X57350000Y-64000000D02*
X57350000Y-60870000D01*
X90610000Y-66940000D02*
X90550000Y-67000000D01*
%TO.N,Net-(D7-A)*%
X59000000Y-69025000D02*
X59025000Y-69000000D01*
X59000000Y-72000000D02*
X59000000Y-69025000D01*
%TO.N,Net-(U5-VBUS)*%
X90550000Y-70500000D02*
X95500000Y-70500000D01*
%TD*%
%TA.AperFunction,Conductor*%
%TO.N,/GND_2*%
G36*
X92060000Y-59304314D02*
G01*
X92055606Y-59299920D01*
X91964394Y-59247259D01*
X91862661Y-59220000D01*
X91757339Y-59220000D01*
X91655606Y-59247259D01*
X91564394Y-59299920D01*
X91560000Y-59304314D01*
X91560000Y-57395686D01*
X91564394Y-57400080D01*
X91655606Y-57452741D01*
X91757339Y-57480000D01*
X91862661Y-57480000D01*
X91964394Y-57452741D01*
X92055606Y-57400080D01*
X92060000Y-57395686D01*
X92060000Y-59304314D01*
G37*
%TD.AperFunction*%
%TA.AperFunction,Conductor*%
G36*
X92060000Y-56764314D02*
G01*
X92055606Y-56759920D01*
X91964394Y-56707259D01*
X91862661Y-56680000D01*
X91757339Y-56680000D01*
X91655606Y-56707259D01*
X91564394Y-56759920D01*
X91560000Y-56764314D01*
X91560000Y-54855686D01*
X91564394Y-54860080D01*
X91655606Y-54912741D01*
X91757339Y-54940000D01*
X91862661Y-54940000D01*
X91964394Y-54912741D01*
X92055606Y-54860080D01*
X92060000Y-54855686D01*
X92060000Y-56764314D01*
G37*
%TD.AperFunction*%
%TA.AperFunction,Conductor*%
G36*
X67407629Y-50519685D02*
G01*
X67453384Y-50572489D01*
X67463328Y-50641647D01*
X67434303Y-50705203D01*
X67399607Y-50733055D01*
X67231652Y-50823947D01*
X67201200Y-50847647D01*
X67870591Y-51517037D01*
X67807007Y-51534075D01*
X67692993Y-51599901D01*
X67599901Y-51692993D01*
X67534075Y-51807007D01*
X67517037Y-51870591D01*
X66848811Y-51202365D01*
X66764516Y-51331390D01*
X66671317Y-51543864D01*
X66614361Y-51768781D01*
X66595202Y-51999994D01*
X66595202Y-52000005D01*
X66614361Y-52231218D01*
X66671317Y-52456135D01*
X66764515Y-52668606D01*
X66848812Y-52797633D01*
X67517037Y-52129408D01*
X67534075Y-52192993D01*
X67599901Y-52307007D01*
X67692993Y-52400099D01*
X67807007Y-52465925D01*
X67870590Y-52482962D01*
X67201201Y-53152351D01*
X67231649Y-53176050D01*
X67435697Y-53286476D01*
X67435706Y-53286479D01*
X67655139Y-53361811D01*
X67883993Y-53400000D01*
X68116007Y-53400000D01*
X68344860Y-53361811D01*
X68564293Y-53286479D01*
X68564301Y-53286476D01*
X68768355Y-53176047D01*
X68798797Y-53152351D01*
X68798798Y-53152350D01*
X68129410Y-52482962D01*
X68192993Y-52465925D01*
X68307007Y-52400099D01*
X68400099Y-52307007D01*
X68465925Y-52192993D01*
X68482962Y-52129409D01*
X69151186Y-52797633D01*
X69235482Y-52668611D01*
X69328682Y-52456135D01*
X69385638Y-52231218D01*
X69404798Y-52000005D01*
X69404798Y-51999994D01*
X69385638Y-51768781D01*
X69328682Y-51543864D01*
X69235484Y-51331393D01*
X69151186Y-51202365D01*
X68482962Y-51870589D01*
X68465925Y-51807007D01*
X68400099Y-51692993D01*
X68307007Y-51599901D01*
X68192993Y-51534075D01*
X68129409Y-51517037D01*
X68798797Y-50847647D01*
X68798797Y-50847645D01*
X68768360Y-50823955D01*
X68768349Y-50823948D01*
X68600393Y-50733055D01*
X68550802Y-50683835D01*
X68535694Y-50615619D01*
X68559864Y-50550063D01*
X68615640Y-50507982D01*
X68659410Y-50500000D01*
X99171399Y-50500000D01*
X99238438Y-50519685D01*
X99284193Y-50572489D01*
X99294137Y-50641647D01*
X99265112Y-50705203D01*
X99245710Y-50723266D01*
X99152812Y-50792809D01*
X99152809Y-50792812D01*
X99066649Y-50907906D01*
X99066645Y-50907913D01*
X99016403Y-51042620D01*
X99016401Y-51042627D01*
X99010000Y-51102155D01*
X99010000Y-51750000D01*
X99926988Y-51750000D01*
X99894075Y-51807007D01*
X99860000Y-51934174D01*
X99860000Y-52065826D01*
X99894075Y-52192993D01*
X99926988Y-52250000D01*
X99010000Y-52250000D01*
X99010000Y-52897844D01*
X99016401Y-52957372D01*
X99016403Y-52957379D01*
X99066645Y-53092086D01*
X99066649Y-53092093D01*
X99152809Y-53207187D01*
X99152812Y-53207190D01*
X99267906Y-53293350D01*
X99267913Y-53293354D01*
X99399986Y-53342614D01*
X99455920Y-53384485D01*
X99480337Y-53449949D01*
X99465486Y-53518222D01*
X99444335Y-53546477D01*
X99321886Y-53668926D01*
X99186400Y-53862420D01*
X99186399Y-53862422D01*
X99086570Y-54076507D01*
X99086567Y-54076513D01*
X99029364Y-54289999D01*
X99029364Y-54290000D01*
X99926988Y-54290000D01*
X99894075Y-54347007D01*
X99860000Y-54474174D01*
X99860000Y-54605826D01*
X99894075Y-54732993D01*
X99926988Y-54790000D01*
X99029364Y-54790000D01*
X99086567Y-55003486D01*
X99086570Y-55003492D01*
X99186399Y-55217578D01*
X99321894Y-55411082D01*
X99488917Y-55578105D01*
X99675031Y-55708425D01*
X99718656Y-55763003D01*
X99725848Y-55832501D01*
X99694326Y-55894856D01*
X99675031Y-55911575D01*
X99488922Y-56041890D01*
X99488920Y-56041891D01*
X99321891Y-56208920D01*
X99321886Y-56208926D01*
X99186400Y-56402420D01*
X99186399Y-56402422D01*
X99086570Y-56616507D01*
X99086567Y-56616513D01*
X99029364Y-56829999D01*
X99029364Y-56830000D01*
X99926988Y-56830000D01*
X99894075Y-56887007D01*
X99860000Y-57014174D01*
X99860000Y-57145826D01*
X99894075Y-57272993D01*
X99926988Y-57330000D01*
X99029364Y-57330000D01*
X99086567Y-57543486D01*
X99086570Y-57543492D01*
X99186399Y-57757578D01*
X99321894Y-57951082D01*
X99488917Y-58118105D01*
X99675031Y-58248425D01*
X99718656Y-58303003D01*
X99725848Y-58372501D01*
X99694326Y-58434856D01*
X99675031Y-58451575D01*
X99488922Y-58581890D01*
X99488920Y-58581891D01*
X99321891Y-58748920D01*
X99321886Y-58748926D01*
X99186400Y-58942420D01*
X99186399Y-58942422D01*
X99086570Y-59156507D01*
X99086567Y-59156513D01*
X99029364Y-59369999D01*
X99029364Y-59370000D01*
X99926988Y-59370000D01*
X99894075Y-59427007D01*
X99860000Y-59554174D01*
X99860000Y-59685826D01*
X99894075Y-59812993D01*
X99926988Y-59870000D01*
X99029364Y-59870000D01*
X99086567Y-60083486D01*
X99086570Y-60083492D01*
X99186399Y-60297578D01*
X99321894Y-60491082D01*
X99488917Y-60658105D01*
X99675031Y-60788425D01*
X99718656Y-60843003D01*
X99725848Y-60912501D01*
X99694326Y-60974856D01*
X99675031Y-60991575D01*
X99488922Y-61121890D01*
X99488920Y-61121891D01*
X99321891Y-61288920D01*
X99321886Y-61288926D01*
X99186400Y-61482420D01*
X99186399Y-61482422D01*
X99086570Y-61696507D01*
X99086567Y-61696513D01*
X99029364Y-61909999D01*
X99029364Y-61910000D01*
X99926988Y-61910000D01*
X99894075Y-61967007D01*
X99860000Y-62094174D01*
X99860000Y-62225826D01*
X99894075Y-62352993D01*
X99926988Y-62410000D01*
X99029364Y-62410000D01*
X99086567Y-62623486D01*
X99086570Y-62623492D01*
X99186399Y-62837578D01*
X99321894Y-63031082D01*
X99488917Y-63198105D01*
X99682421Y-63333600D01*
X99896507Y-63433429D01*
X99896516Y-63433433D01*
X100110000Y-63490634D01*
X100110000Y-62593012D01*
X100167007Y-62625925D01*
X100294174Y-62660000D01*
X100425826Y-62660000D01*
X100552993Y-62625925D01*
X100610000Y-62593012D01*
X100610000Y-63490633D01*
X100823483Y-63433433D01*
X100823492Y-63433429D01*
X101037578Y-63333600D01*
X101231082Y-63198105D01*
X101288319Y-63140869D01*
X101349642Y-63107384D01*
X101419334Y-63112368D01*
X101475267Y-63154240D01*
X101499684Y-63219704D01*
X101500000Y-63228550D01*
X101500000Y-76376000D01*
X101480315Y-76443039D01*
X101427511Y-76488794D01*
X101376000Y-76500000D01*
X50624000Y-76500000D01*
X50556961Y-76480315D01*
X50511206Y-76427511D01*
X50500000Y-76376000D01*
X50500000Y-73859448D01*
X62529500Y-73859448D01*
X62529500Y-74640551D01*
X62557829Y-74819410D01*
X62613787Y-74991636D01*
X62613788Y-74991639D01*
X62696006Y-75152997D01*
X62802441Y-75299494D01*
X62802445Y-75299499D01*
X62930500Y-75427554D01*
X62930505Y-75427558D01*
X63058287Y-75520396D01*
X63077006Y-75533996D01*
X63182484Y-75587740D01*
X63238360Y-75616211D01*
X63238363Y-75616212D01*
X63324476Y-75644191D01*
X63410591Y-75672171D01*
X63493429Y-75685291D01*
X63589449Y-75700500D01*
X63589454Y-75700500D01*
X63770551Y-75700500D01*
X63857259Y-75686765D01*
X63949409Y-75672171D01*
X64121639Y-75616211D01*
X64282994Y-75533996D01*
X64429501Y-75427553D01*
X64557553Y-75299501D01*
X64663996Y-75152994D01*
X64746211Y-74991639D01*
X64802171Y-74819409D01*
X64817469Y-74722819D01*
X64830500Y-74640551D01*
X64830500Y-73859448D01*
X64807966Y-73717181D01*
X64802171Y-73680591D01*
X64768834Y-73577989D01*
X64746212Y-73508363D01*
X64746211Y-73508360D01*
X64714251Y-73445637D01*
X64663996Y-73347006D01*
X64622579Y-73290000D01*
X64557558Y-73200505D01*
X64557553Y-73200499D01*
X64429499Y-73072445D01*
X64429494Y-73072441D01*
X64282997Y-72966006D01*
X64282996Y-72966005D01*
X64282994Y-72966004D01*
X64223127Y-72935500D01*
X64121639Y-72883788D01*
X64121636Y-72883787D01*
X63949410Y-72827829D01*
X63770551Y-72799500D01*
X63770546Y-72799500D01*
X63589454Y-72799500D01*
X63589449Y-72799500D01*
X63410589Y-72827829D01*
X63238363Y-72883787D01*
X63238360Y-72883788D01*
X63077002Y-72966006D01*
X62930505Y-73072441D01*
X62930500Y-73072445D01*
X62802447Y-73200499D01*
X62802441Y-73200505D01*
X62696006Y-73347002D01*
X62613788Y-73508360D01*
X62613787Y-73508363D01*
X62557829Y-73680589D01*
X62529500Y-73859448D01*
X50500000Y-73859448D01*
X50500000Y-65131456D01*
X50519685Y-65064417D01*
X50572489Y-65018662D01*
X50641647Y-65008718D01*
X50705203Y-65037743D01*
X50734484Y-65075160D01*
X50816657Y-65236434D01*
X50920601Y-65379500D01*
X50955484Y-65427511D01*
X50955485Y-65427512D01*
X53092491Y-67564519D01*
X53092496Y-67564523D01*
X53283565Y-67703342D01*
X53283567Y-67703343D01*
X53376794Y-67750844D01*
X53427590Y-67798818D01*
X53444500Y-67861329D01*
X53444500Y-69131606D01*
X53467868Y-69249091D01*
X53467870Y-69249103D01*
X53468535Y-69252446D01*
X53468536Y-69252448D01*
X53515686Y-69366283D01*
X53515687Y-69366285D01*
X53515688Y-69366286D01*
X53537369Y-69398733D01*
X53584141Y-69468732D01*
X53584144Y-69468736D01*
X53675586Y-69560178D01*
X53675608Y-69560198D01*
X55863181Y-71747771D01*
X55896666Y-71809094D01*
X55899500Y-71835452D01*
X55899500Y-72500001D01*
X55899501Y-72500019D01*
X55910000Y-72602796D01*
X55910001Y-72602799D01*
X55962550Y-72761380D01*
X55965186Y-72769334D01*
X56057288Y-72918656D01*
X56181344Y-73042712D01*
X56330666Y-73134814D01*
X56497203Y-73189999D01*
X56599991Y-73200500D01*
X57400008Y-73200499D01*
X57400016Y-73200498D01*
X57400019Y-73200498D01*
X57456302Y-73194748D01*
X57502797Y-73189999D01*
X57669334Y-73134814D01*
X57818656Y-73042712D01*
X57912319Y-72949049D01*
X57973642Y-72915564D01*
X58043334Y-72920548D01*
X58087681Y-72949049D01*
X58181344Y-73042712D01*
X58330666Y-73134814D01*
X58497203Y-73189999D01*
X58599991Y-73200500D01*
X59400008Y-73200499D01*
X59400016Y-73200498D01*
X59400019Y-73200498D01*
X59456302Y-73194748D01*
X59502797Y-73189999D01*
X59669334Y-73134814D01*
X59818656Y-73042712D01*
X59942712Y-72918656D01*
X60034814Y-72769334D01*
X60089999Y-72602797D01*
X60100500Y-72500009D01*
X60100499Y-71499992D01*
X60089999Y-71397203D01*
X60034814Y-71230666D01*
X59942712Y-71081344D01*
X59818656Y-70957288D01*
X59684402Y-70874480D01*
X59637679Y-70822533D01*
X59625500Y-70768942D01*
X59625500Y-70231057D01*
X59645185Y-70164018D01*
X59684401Y-70125520D01*
X59818656Y-70042712D01*
X59942712Y-69918656D01*
X60034814Y-69769334D01*
X60089999Y-69602797D01*
X60100500Y-69500009D01*
X60100500Y-69447525D01*
X63129500Y-69447525D01*
X63129500Y-70692475D01*
X63166599Y-70830927D01*
X63167017Y-70832488D01*
X63239488Y-70958011D01*
X63239490Y-70958013D01*
X63239491Y-70958015D01*
X63341985Y-71060509D01*
X63341986Y-71060510D01*
X63341988Y-71060511D01*
X63467511Y-71132982D01*
X63467512Y-71132982D01*
X63467515Y-71132984D01*
X63607525Y-71170500D01*
X63607528Y-71170500D01*
X63752472Y-71170500D01*
X63752475Y-71170500D01*
X63892485Y-71132984D01*
X64018015Y-71060509D01*
X64120509Y-70958015D01*
X64192984Y-70832485D01*
X64230500Y-70692475D01*
X64230500Y-70499589D01*
X64250185Y-70432550D01*
X64302989Y-70386795D01*
X64367758Y-70376300D01*
X64402160Y-70379999D01*
X64402172Y-70380000D01*
X64412094Y-70380000D01*
X64479133Y-70399685D01*
X64524888Y-70452489D01*
X64534422Y-70516107D01*
X64534500Y-70516107D01*
X64534500Y-70516629D01*
X64535033Y-70520186D01*
X64534501Y-70524229D01*
X64534500Y-70524234D01*
X64534500Y-70675766D01*
X64538977Y-70692475D01*
X64573719Y-70822136D01*
X64598575Y-70865187D01*
X64649485Y-70953365D01*
X64756635Y-71060515D01*
X64887865Y-71136281D01*
X65034234Y-71175500D01*
X65034236Y-71175500D01*
X65185764Y-71175500D01*
X65185766Y-71175500D01*
X65332135Y-71136281D01*
X65463365Y-71060515D01*
X65570515Y-70953365D01*
X65646281Y-70822135D01*
X65685500Y-70675766D01*
X65685500Y-70524234D01*
X65685500Y-70524229D01*
X65685033Y-70520682D01*
X65685500Y-70517687D01*
X65685500Y-70516107D01*
X65685747Y-70516107D01*
X65695800Y-70451647D01*
X65742181Y-70399392D01*
X65807972Y-70380499D01*
X65897871Y-70380499D01*
X65897872Y-70380499D01*
X65957483Y-70374091D01*
X65957487Y-70374089D01*
X65961743Y-70373632D01*
X65988254Y-70373633D01*
X66013756Y-70376375D01*
X66078307Y-70403113D01*
X66118155Y-70460506D01*
X66124500Y-70499664D01*
X66124500Y-72861607D01*
X66125038Y-72864312D01*
X66125038Y-72864319D01*
X66148534Y-72982441D01*
X66148537Y-72982451D01*
X66152720Y-72992549D01*
X66152721Y-72992553D01*
X66195685Y-73096280D01*
X66195687Y-73096283D01*
X66195688Y-73096286D01*
X66221432Y-73134814D01*
X66229914Y-73147507D01*
X66229915Y-73147509D01*
X66264140Y-73198731D01*
X66264141Y-73198732D01*
X66264142Y-73198733D01*
X66351267Y-73285858D01*
X66351268Y-73285858D01*
X66358335Y-73292925D01*
X66358334Y-73292925D01*
X66358338Y-73292928D01*
X69111262Y-76045854D01*
X69111265Y-76045857D01*
X69162490Y-76080084D01*
X69213714Y-76114311D01*
X69327548Y-76161463D01*
X69448388Y-76185499D01*
X69448392Y-76185500D01*
X69448393Y-76185500D01*
X87551607Y-76185500D01*
X87612029Y-76173481D01*
X87672452Y-76161463D01*
X87672455Y-76161461D01*
X87672458Y-76161461D01*
X87705787Y-76147654D01*
X87705786Y-76147654D01*
X87705792Y-76147652D01*
X87786286Y-76114312D01*
X87837509Y-76080084D01*
X87888733Y-76045858D01*
X87975858Y-75958733D01*
X87975858Y-75958731D01*
X87986066Y-75948524D01*
X87986067Y-75948521D01*
X90642772Y-73291818D01*
X90704095Y-73258333D01*
X90730453Y-73255499D01*
X91147871Y-73255499D01*
X91147872Y-73255499D01*
X91207483Y-73249091D01*
X91342331Y-73198796D01*
X91457546Y-73112546D01*
X91543796Y-72997331D01*
X91594091Y-72862483D01*
X91600500Y-72802873D01*
X91600499Y-72197128D01*
X91594091Y-72137517D01*
X91558961Y-72043330D01*
X91553978Y-71973642D01*
X91558958Y-71956679D01*
X91594091Y-71862483D01*
X91600500Y-71802873D01*
X91600499Y-71249499D01*
X91620183Y-71182461D01*
X91672987Y-71136706D01*
X91724499Y-71125500D01*
X94327983Y-71125500D01*
X94395022Y-71145185D01*
X94440777Y-71197989D01*
X94445686Y-71210489D01*
X94465186Y-71269334D01*
X94557288Y-71418656D01*
X94681344Y-71542712D01*
X94830666Y-71634814D01*
X94997203Y-71689999D01*
X95099991Y-71700500D01*
X95900008Y-71700499D01*
X95900016Y-71700498D01*
X95900019Y-71700498D01*
X95956302Y-71694748D01*
X96002797Y-71689999D01*
X96169334Y-71634814D01*
X96318656Y-71542712D01*
X96412319Y-71449049D01*
X96473642Y-71415564D01*
X96543334Y-71420548D01*
X96587681Y-71449049D01*
X96681346Y-71542714D01*
X96698883Y-71553531D01*
X96745606Y-71605479D01*
X96757781Y-71658179D01*
X96765690Y-72761380D01*
X96749081Y-72824268D01*
X96692820Y-72921716D01*
X96636101Y-73096280D01*
X96634326Y-73101744D01*
X96614540Y-73290000D01*
X96634326Y-73478256D01*
X96634327Y-73478259D01*
X96692818Y-73658277D01*
X96692821Y-73658284D01*
X96787467Y-73822216D01*
X96867581Y-73911191D01*
X96914129Y-73962888D01*
X97067265Y-74074148D01*
X97067270Y-74074151D01*
X97240192Y-74151142D01*
X97240197Y-74151144D01*
X97425354Y-74190500D01*
X97425355Y-74190500D01*
X97614644Y-74190500D01*
X97614646Y-74190500D01*
X97799803Y-74151144D01*
X97972730Y-74074151D01*
X98125871Y-73962888D01*
X98252533Y-73822216D01*
X98347179Y-73658284D01*
X98405674Y-73478256D01*
X98425460Y-73290000D01*
X98405674Y-73101744D01*
X98347179Y-72921716D01*
X98283257Y-72811000D01*
X98266647Y-72749889D01*
X98264234Y-72413294D01*
X98258761Y-71649752D01*
X98277965Y-71582574D01*
X98313321Y-71547618D01*
X98312987Y-71547195D01*
X98316796Y-71544182D01*
X98317666Y-71543322D01*
X98318656Y-71542712D01*
X98442712Y-71418656D01*
X98534814Y-71269334D01*
X98589999Y-71102797D01*
X98600500Y-71000009D01*
X98600499Y-69999992D01*
X98594240Y-69938724D01*
X98589999Y-69897203D01*
X98589998Y-69897200D01*
X98580349Y-69868081D01*
X98534814Y-69730666D01*
X98442712Y-69581344D01*
X98318656Y-69457288D01*
X98223718Y-69398730D01*
X98169336Y-69365187D01*
X98169331Y-69365185D01*
X98089872Y-69338855D01*
X98002797Y-69310001D01*
X98002795Y-69310000D01*
X97900010Y-69299500D01*
X97099998Y-69299500D01*
X97099980Y-69299501D01*
X96997203Y-69310000D01*
X96997200Y-69310001D01*
X96830668Y-69365185D01*
X96830663Y-69365187D01*
X96681342Y-69457289D01*
X96587681Y-69550951D01*
X96526358Y-69584436D01*
X96456666Y-69579452D01*
X96412319Y-69550951D01*
X96318657Y-69457289D01*
X96318656Y-69457288D01*
X96223718Y-69398730D01*
X96169336Y-69365187D01*
X96169331Y-69365185D01*
X96089872Y-69338855D01*
X96002797Y-69310001D01*
X96002795Y-69310000D01*
X95900010Y-69299500D01*
X95099998Y-69299500D01*
X95099980Y-69299501D01*
X94997203Y-69310000D01*
X94997200Y-69310001D01*
X94830668Y-69365185D01*
X94830663Y-69365187D01*
X94681342Y-69457289D01*
X94557289Y-69581342D01*
X94465187Y-69730663D01*
X94465186Y-69730666D01*
X94445689Y-69789505D01*
X94405916Y-69846949D01*
X94341400Y-69873772D01*
X94327983Y-69874500D01*
X91724500Y-69874500D01*
X91657461Y-69854815D01*
X91611706Y-69802011D01*
X91600500Y-69750500D01*
X91600499Y-69197129D01*
X91600498Y-69197123D01*
X91598870Y-69181982D01*
X91594091Y-69137517D01*
X91558961Y-69043330D01*
X91553978Y-68973642D01*
X91558958Y-68956679D01*
X91594091Y-68862483D01*
X91600500Y-68802873D01*
X91600499Y-68197128D01*
X91595299Y-68148757D01*
X91594091Y-68137516D01*
X91543797Y-68002671D01*
X91543793Y-68002664D01*
X91457547Y-67887455D01*
X91457544Y-67887452D01*
X91342335Y-67801206D01*
X91342329Y-67801203D01*
X91291512Y-67782249D01*
X91235578Y-67740377D01*
X91211162Y-67674912D01*
X91226014Y-67606639D01*
X91242689Y-67583102D01*
X91342533Y-67472216D01*
X91437179Y-67308284D01*
X91495674Y-67128256D01*
X91515460Y-66940000D01*
X91495674Y-66751744D01*
X91437179Y-66571716D01*
X91342533Y-66407784D01*
X91215871Y-66267112D01*
X91215870Y-66267111D01*
X91062734Y-66155851D01*
X91062729Y-66155848D01*
X90889807Y-66078857D01*
X90889802Y-66078855D01*
X90744001Y-66047865D01*
X90704646Y-66039500D01*
X90515354Y-66039500D01*
X90482897Y-66046398D01*
X90330197Y-66078855D01*
X90330192Y-66078857D01*
X90157270Y-66155848D01*
X90157265Y-66155851D01*
X90004129Y-66267111D01*
X89877466Y-66407785D01*
X89782821Y-66571715D01*
X89782818Y-66571722D01*
X89726293Y-66745690D01*
X89724326Y-66751744D01*
X89704540Y-66940000D01*
X89724326Y-67128256D01*
X89724327Y-67128259D01*
X89782818Y-67308277D01*
X89782821Y-67308284D01*
X89877467Y-67472216D01*
X89892649Y-67489077D01*
X89922879Y-67552068D01*
X89924500Y-67572050D01*
X89924500Y-67652884D01*
X89904815Y-67719923D01*
X89852011Y-67765678D01*
X89843834Y-67769066D01*
X89757669Y-67801203D01*
X89757664Y-67801206D01*
X89662468Y-67872471D01*
X89597004Y-67896889D01*
X89528731Y-67882038D01*
X89500476Y-67860886D01*
X84851819Y-63212229D01*
X84818334Y-63150906D01*
X84815500Y-63124548D01*
X84815500Y-60834188D01*
X84835185Y-60767149D01*
X84868377Y-60732613D01*
X84974786Y-60658105D01*
X85029139Y-60620047D01*
X85190047Y-60459139D01*
X85320568Y-60272734D01*
X85416739Y-60066496D01*
X85475635Y-59846692D01*
X85495468Y-59620000D01*
X85475635Y-59393308D01*
X85416739Y-59173504D01*
X85320568Y-58967266D01*
X85190047Y-58780861D01*
X85190045Y-58780858D01*
X85029141Y-58619954D01*
X84842734Y-58489432D01*
X84842728Y-58489429D01*
X84784725Y-58462382D01*
X84732285Y-58416210D01*
X84713133Y-58349017D01*
X84733348Y-58282135D01*
X84784725Y-58237618D01*
X84792576Y-58233957D01*
X84842734Y-58210568D01*
X85029139Y-58080047D01*
X85190047Y-57919139D01*
X85320568Y-57732734D01*
X85416739Y-57526496D01*
X85475635Y-57306692D01*
X85492634Y-57112384D01*
X85495468Y-57080001D01*
X85495468Y-57079998D01*
X85475635Y-56853313D01*
X85475635Y-56853308D01*
X85416739Y-56633504D01*
X85320568Y-56427266D01*
X85190047Y-56240861D01*
X85190045Y-56240858D01*
X85029143Y-56079956D01*
X85004536Y-56062726D01*
X84960912Y-56008149D01*
X84953719Y-55938650D01*
X84985241Y-55876296D01*
X85045471Y-55840882D01*
X85062404Y-55837861D01*
X85097483Y-55834091D01*
X85232331Y-55783796D01*
X85347546Y-55697546D01*
X85433796Y-55582331D01*
X85484091Y-55447483D01*
X85490500Y-55387873D01*
X85490499Y-54289999D01*
X90531127Y-54289999D01*
X90531128Y-54290000D01*
X91494314Y-54290000D01*
X91489920Y-54294394D01*
X91437259Y-54385606D01*
X91410000Y-54487339D01*
X91410000Y-54592661D01*
X91437259Y-54694394D01*
X91489920Y-54785606D01*
X91494314Y-54790000D01*
X90531128Y-54790000D01*
X90583730Y-54986317D01*
X90583734Y-54986326D01*
X90679865Y-55192482D01*
X90810342Y-55378820D01*
X90971179Y-55539657D01*
X91157517Y-55670134D01*
X91216457Y-55697618D01*
X91268896Y-55743790D01*
X91288048Y-55810984D01*
X91267832Y-55877865D01*
X91216457Y-55922382D01*
X91157517Y-55949865D01*
X90971179Y-56080342D01*
X90810342Y-56241179D01*
X90679865Y-56427517D01*
X90583734Y-56633673D01*
X90583730Y-56633682D01*
X90531127Y-56829999D01*
X90531128Y-56830000D01*
X91494314Y-56830000D01*
X91489920Y-56834394D01*
X91437259Y-56925606D01*
X91410000Y-57027339D01*
X91410000Y-57132661D01*
X91437259Y-57234394D01*
X91489920Y-57325606D01*
X91494314Y-57330000D01*
X90531128Y-57330000D01*
X90583730Y-57526317D01*
X90583734Y-57526326D01*
X90679865Y-57732482D01*
X90810342Y-57918820D01*
X90971179Y-58079657D01*
X91157517Y-58210134D01*
X91216457Y-58237618D01*
X91268896Y-58283790D01*
X91288048Y-58350984D01*
X91267832Y-58417865D01*
X91216457Y-58462382D01*
X91157517Y-58489865D01*
X90971179Y-58620342D01*
X90810342Y-58781179D01*
X90679865Y-58967517D01*
X90583734Y-59173673D01*
X90583730Y-59173682D01*
X90531127Y-59369999D01*
X90531128Y-59370000D01*
X91494314Y-59370000D01*
X91489920Y-59374394D01*
X91437259Y-59465606D01*
X91410000Y-59567339D01*
X91410000Y-59672661D01*
X91437259Y-59774394D01*
X91489920Y-59865606D01*
X91494314Y-59870000D01*
X90531128Y-59870000D01*
X90583730Y-60066317D01*
X90583734Y-60066326D01*
X90679865Y-60272482D01*
X90810342Y-60458820D01*
X90971179Y-60619657D01*
X91157517Y-60750134D01*
X91363673Y-60846265D01*
X91363682Y-60846269D01*
X91559999Y-60898872D01*
X91560000Y-60898871D01*
X91560000Y-59935686D01*
X91564394Y-59940080D01*
X91655606Y-59992741D01*
X91757339Y-60020000D01*
X91862661Y-60020000D01*
X91964394Y-59992741D01*
X92055606Y-59940080D01*
X92060000Y-59935686D01*
X92060000Y-60898872D01*
X92256317Y-60846269D01*
X92256326Y-60846265D01*
X92462482Y-60750134D01*
X92648820Y-60619657D01*
X92809657Y-60458820D01*
X92940134Y-60272482D01*
X93036265Y-60066326D01*
X93036269Y-60066317D01*
X93088872Y-59870000D01*
X92125686Y-59870000D01*
X92130080Y-59865606D01*
X92182741Y-59774394D01*
X92210000Y-59672661D01*
X92210000Y-59567339D01*
X92182741Y-59465606D01*
X92130080Y-59374394D01*
X92125686Y-59370000D01*
X93088872Y-59370000D01*
X93088872Y-59369999D01*
X93036269Y-59173682D01*
X93036265Y-59173673D01*
X92940134Y-58967517D01*
X92809657Y-58781179D01*
X92648820Y-58620342D01*
X92462481Y-58489865D01*
X92462479Y-58489864D01*
X92403543Y-58462382D01*
X92351103Y-58416210D01*
X92331951Y-58349017D01*
X92352166Y-58282136D01*
X92403543Y-58237618D01*
X92462479Y-58210135D01*
X92462481Y-58210134D01*
X92648820Y-58079657D01*
X92809657Y-57918820D01*
X92940134Y-57732482D01*
X93036265Y-57526326D01*
X93036269Y-57526317D01*
X93088872Y-57330000D01*
X92125686Y-57330000D01*
X92130080Y-57325606D01*
X92182741Y-57234394D01*
X92210000Y-57132661D01*
X92210000Y-57027339D01*
X92182741Y-56925606D01*
X92130080Y-56834394D01*
X92125686Y-56830000D01*
X93088872Y-56830000D01*
X93088872Y-56829999D01*
X93036269Y-56633682D01*
X93036265Y-56633673D01*
X92940134Y-56427517D01*
X92809657Y-56241179D01*
X92648820Y-56080342D01*
X92462481Y-55949865D01*
X92462479Y-55949864D01*
X92403543Y-55922382D01*
X92351103Y-55876210D01*
X92331951Y-55809017D01*
X92352166Y-55742136D01*
X92403543Y-55697618D01*
X92462479Y-55670135D01*
X92462481Y-55670134D01*
X92648820Y-55539657D01*
X92809657Y-55378820D01*
X92940134Y-55192482D01*
X93036265Y-54986326D01*
X93036269Y-54986317D01*
X93088872Y-54790000D01*
X92125686Y-54790000D01*
X92130080Y-54785606D01*
X92182741Y-54694394D01*
X92210000Y-54592661D01*
X92210000Y-54487339D01*
X92182741Y-54385606D01*
X92130080Y-54294394D01*
X92125686Y-54290000D01*
X93088872Y-54290000D01*
X93088872Y-54289999D01*
X93036269Y-54093682D01*
X93036265Y-54093673D01*
X92940134Y-53887517D01*
X92809657Y-53701179D01*
X92648820Y-53540342D01*
X92462482Y-53409865D01*
X92256328Y-53313734D01*
X92060000Y-53261127D01*
X92060000Y-54224314D01*
X92055606Y-54219920D01*
X91964394Y-54167259D01*
X91862661Y-54140000D01*
X91757339Y-54140000D01*
X91655606Y-54167259D01*
X91564394Y-54219920D01*
X91560000Y-54224314D01*
X91560000Y-53261127D01*
X91363671Y-53313734D01*
X91157517Y-53409865D01*
X90971179Y-53540342D01*
X90810342Y-53701179D01*
X90679865Y-53887517D01*
X90583734Y-54093673D01*
X90583730Y-54093682D01*
X90531127Y-54289999D01*
X85490499Y-54289999D01*
X85490499Y-53692128D01*
X85484091Y-53632517D01*
X85433796Y-53497669D01*
X85433795Y-53497668D01*
X85433793Y-53497664D01*
X85347547Y-53382455D01*
X85347544Y-53382452D01*
X85232335Y-53296206D01*
X85232328Y-53296202D01*
X85097482Y-53245908D01*
X85097483Y-53245908D01*
X85037883Y-53239501D01*
X85037881Y-53239500D01*
X85037873Y-53239500D01*
X85037864Y-53239500D01*
X83342129Y-53239500D01*
X83342123Y-53239501D01*
X83282516Y-53245908D01*
X83147671Y-53296202D01*
X83147664Y-53296206D01*
X83032457Y-53382451D01*
X83032449Y-53382458D01*
X83015718Y-53404810D01*
X82959785Y-53446682D01*
X82916451Y-53454500D01*
X80172017Y-53454500D01*
X80104978Y-53434815D01*
X80059223Y-53382011D01*
X80054311Y-53369505D01*
X80034814Y-53310666D01*
X79942712Y-53161344D01*
X79818656Y-53037288D01*
X79669334Y-52945186D01*
X79502797Y-52890001D01*
X79502795Y-52890000D01*
X79400010Y-52879500D01*
X78599998Y-52879500D01*
X78599980Y-52879501D01*
X78497203Y-52890000D01*
X78497200Y-52890001D01*
X78330668Y-52945185D01*
X78330663Y-52945187D01*
X78181342Y-53037289D01*
X78087681Y-53130951D01*
X78026358Y-53164436D01*
X77956666Y-53159452D01*
X77912319Y-53130951D01*
X77818657Y-53037289D01*
X77818656Y-53037288D01*
X77669334Y-52945186D01*
X77502797Y-52890001D01*
X77502795Y-52890000D01*
X77400010Y-52879500D01*
X76599998Y-52879500D01*
X76599980Y-52879501D01*
X76497203Y-52890000D01*
X76497200Y-52890001D01*
X76330668Y-52945185D01*
X76330663Y-52945187D01*
X76181342Y-53037289D01*
X76057289Y-53161342D01*
X75965187Y-53310663D01*
X75965186Y-53310666D01*
X75910001Y-53477203D01*
X75910001Y-53477204D01*
X75910000Y-53477204D01*
X75899500Y-53579983D01*
X75899500Y-54580001D01*
X75899501Y-54580019D01*
X75910000Y-54682796D01*
X75910001Y-54682799D01*
X75958614Y-54829500D01*
X75965186Y-54849334D01*
X76057288Y-54998656D01*
X76181344Y-55122712D01*
X76190591Y-55128416D01*
X76237318Y-55180360D01*
X76249500Y-55233957D01*
X76249500Y-55926042D01*
X76229815Y-55993081D01*
X76190598Y-56031580D01*
X76181344Y-56037287D01*
X76057289Y-56161342D01*
X75965187Y-56310663D01*
X75965186Y-56310666D01*
X75910001Y-56477203D01*
X75910001Y-56477204D01*
X75910000Y-56477204D01*
X75899500Y-56579983D01*
X75899500Y-57580001D01*
X75899501Y-57580019D01*
X75910000Y-57682796D01*
X75910001Y-57682799D01*
X75965185Y-57849331D01*
X75965186Y-57849334D01*
X76057288Y-57998656D01*
X76181344Y-58122712D01*
X76190591Y-58128416D01*
X76237318Y-58180360D01*
X76249500Y-58233957D01*
X76249500Y-58926042D01*
X76229815Y-58993081D01*
X76190598Y-59031580D01*
X76181344Y-59037287D01*
X76057289Y-59161342D01*
X75965187Y-59310663D01*
X75965186Y-59310666D01*
X75910001Y-59477203D01*
X75910001Y-59477204D01*
X75910000Y-59477204D01*
X75899500Y-59579983D01*
X75899500Y-60580001D01*
X75899501Y-60580019D01*
X75910000Y-60682796D01*
X75910001Y-60682799D01*
X75950543Y-60805145D01*
X75965186Y-60849334D01*
X76057288Y-60998656D01*
X76181344Y-61122712D01*
X76330666Y-61214814D01*
X76497203Y-61269999D01*
X76599991Y-61280500D01*
X76917769Y-61280499D01*
X76984808Y-61300183D01*
X77005450Y-61316818D01*
X79750681Y-64062048D01*
X79784166Y-64123371D01*
X79787000Y-64149729D01*
X79787000Y-67828752D01*
X79767315Y-67895791D01*
X79736002Y-67926531D01*
X79737011Y-67927807D01*
X79731343Y-67932288D01*
X79607288Y-68056343D01*
X79607283Y-68056349D01*
X79605241Y-68059661D01*
X79603247Y-68061453D01*
X79602807Y-68062011D01*
X79602711Y-68061935D01*
X79553291Y-68106383D01*
X79484328Y-68117602D01*
X79420247Y-68089755D01*
X79394168Y-68059656D01*
X79392319Y-68056659D01*
X79392316Y-68056655D01*
X79268345Y-67932684D01*
X79119124Y-67840643D01*
X79119119Y-67840641D01*
X78952697Y-67785494D01*
X78952690Y-67785493D01*
X78849986Y-67775000D01*
X78712500Y-67775000D01*
X78712500Y-70224999D01*
X78849972Y-70224999D01*
X78849986Y-70224998D01*
X78952697Y-70214505D01*
X79119119Y-70159358D01*
X79119124Y-70159356D01*
X79268345Y-70067315D01*
X79392318Y-69943342D01*
X79394165Y-69940348D01*
X79395969Y-69938724D01*
X79396798Y-69937677D01*
X79396976Y-69937818D01*
X79446110Y-69893621D01*
X79515073Y-69882396D01*
X79579156Y-69910236D01*
X79605243Y-69940341D01*
X79607288Y-69943656D01*
X79607289Y-69943657D01*
X79731345Y-70067713D01*
X79731348Y-70067715D01*
X79815595Y-70119678D01*
X79862321Y-70171625D01*
X79874500Y-70225217D01*
X79874500Y-70768942D01*
X79854815Y-70835981D01*
X79815598Y-70874479D01*
X79737249Y-70922806D01*
X79681342Y-70957289D01*
X79587681Y-71050951D01*
X79526358Y-71084436D01*
X79456666Y-71079452D01*
X79412319Y-71050951D01*
X79318657Y-70957289D01*
X79318656Y-70957288D01*
X79169334Y-70865186D01*
X79002797Y-70810001D01*
X79002795Y-70810000D01*
X78900016Y-70799500D01*
X78900009Y-70799500D01*
X78412230Y-70799500D01*
X78345191Y-70779815D01*
X78324549Y-70763181D01*
X77998049Y-70436680D01*
X77964564Y-70375357D01*
X77969548Y-70305665D01*
X78011420Y-70249732D01*
X78076884Y-70225315D01*
X78085730Y-70224999D01*
X78212499Y-70224999D01*
X78212500Y-70224998D01*
X78212500Y-69250000D01*
X77375001Y-69250000D01*
X77375001Y-69516414D01*
X77355316Y-69583453D01*
X77302512Y-69629208D01*
X77233354Y-69639152D01*
X77182111Y-69619517D01*
X77084523Y-69554312D01*
X77055495Y-69534916D01*
X77055488Y-69534912D01*
X76918917Y-69478343D01*
X76918907Y-69478340D01*
X76773920Y-69449500D01*
X76773918Y-69449500D01*
X74839337Y-69449500D01*
X74772298Y-69429815D01*
X74766452Y-69425818D01*
X74752734Y-69415851D01*
X74752729Y-69415848D01*
X74579807Y-69338857D01*
X74579802Y-69338855D01*
X74432335Y-69307511D01*
X74394646Y-69299500D01*
X74205354Y-69299500D01*
X74172897Y-69306398D01*
X74020197Y-69338855D01*
X74020192Y-69338857D01*
X73847270Y-69415848D01*
X73847265Y-69415851D01*
X73694129Y-69527111D01*
X73567466Y-69667785D01*
X73472821Y-69831715D01*
X73472818Y-69831722D01*
X73414327Y-70011740D01*
X73414326Y-70011744D01*
X73394540Y-70200000D01*
X73414326Y-70388256D01*
X73414327Y-70388259D01*
X73472818Y-70568277D01*
X73472821Y-70568284D01*
X73567467Y-70732216D01*
X73648431Y-70822135D01*
X73694129Y-70872888D01*
X73847265Y-70984148D01*
X73847270Y-70984151D01*
X74020192Y-71061142D01*
X74020197Y-71061144D01*
X74205354Y-71100500D01*
X74205355Y-71100500D01*
X74394644Y-71100500D01*
X74394646Y-71100500D01*
X74579803Y-71061144D01*
X74752730Y-70984151D01*
X74754776Y-70982664D01*
X74766452Y-70974182D01*
X74832258Y-70950702D01*
X74839337Y-70950500D01*
X76337770Y-70950500D01*
X76404809Y-70970185D01*
X76425451Y-70986819D01*
X77363181Y-71924548D01*
X77396666Y-71985871D01*
X77399500Y-72012229D01*
X77399501Y-72300500D01*
X77379817Y-72367539D01*
X77327013Y-72413294D01*
X77275501Y-72424500D01*
X77125147Y-72424500D01*
X77058108Y-72404815D01*
X77037466Y-72388181D01*
X76564893Y-71915608D01*
X76564873Y-71915586D01*
X76473428Y-71824141D01*
X76408992Y-71781087D01*
X76370981Y-71755688D01*
X76370982Y-71755688D01*
X76370980Y-71755687D01*
X76330734Y-71739017D01*
X76290487Y-71722347D01*
X76257148Y-71708537D01*
X76247122Y-71706543D01*
X76196724Y-71696518D01*
X76136305Y-71684500D01*
X76136302Y-71684500D01*
X76136301Y-71684500D01*
X70787568Y-71684500D01*
X70720529Y-71664815D01*
X70674774Y-71612011D01*
X70664247Y-71573462D01*
X70645674Y-71396744D01*
X70621429Y-71322128D01*
X70619435Y-71252290D01*
X70655515Y-71192457D01*
X70718216Y-71161628D01*
X70771452Y-71164036D01*
X70814234Y-71175500D01*
X70814236Y-71175500D01*
X70965764Y-71175500D01*
X70965766Y-71175500D01*
X71112135Y-71136281D01*
X71243365Y-71060515D01*
X71350515Y-70953365D01*
X71426281Y-70822135D01*
X71465500Y-70675766D01*
X71465500Y-70524234D01*
X71465499Y-70524229D01*
X71464967Y-70520186D01*
X71465500Y-70516767D01*
X71465500Y-70516107D01*
X71465603Y-70516107D01*
X71475732Y-70451151D01*
X71522112Y-70398895D01*
X71587906Y-70380000D01*
X71597828Y-70380000D01*
X71597839Y-70379999D01*
X71632242Y-70376300D01*
X71701002Y-70388704D01*
X71752140Y-70436313D01*
X71769500Y-70499589D01*
X71769500Y-70692475D01*
X71806599Y-70830927D01*
X71807017Y-70832488D01*
X71879488Y-70958011D01*
X71879490Y-70958013D01*
X71879491Y-70958015D01*
X71981985Y-71060509D01*
X71981986Y-71060510D01*
X71981988Y-71060511D01*
X72107511Y-71132982D01*
X72107512Y-71132982D01*
X72107515Y-71132984D01*
X72247525Y-71170500D01*
X72247528Y-71170500D01*
X72392472Y-71170500D01*
X72392475Y-71170500D01*
X72532485Y-71132984D01*
X72658015Y-71060509D01*
X72760509Y-70958015D01*
X72832984Y-70832485D01*
X72870500Y-70692475D01*
X72870500Y-69447525D01*
X72832984Y-69307515D01*
X72769252Y-69197129D01*
X72760511Y-69181988D01*
X72760506Y-69181982D01*
X72658017Y-69079493D01*
X72658011Y-69079488D01*
X72532488Y-69007017D01*
X72532489Y-69007017D01*
X72506301Y-69000000D01*
X72392475Y-68969500D01*
X72247525Y-68969500D01*
X72133699Y-69000000D01*
X72107511Y-69007017D01*
X71981988Y-69079488D01*
X71981982Y-69079493D01*
X71967795Y-69093681D01*
X71906472Y-69127166D01*
X71880114Y-69130000D01*
X71374500Y-69130000D01*
X71307461Y-69110315D01*
X71261706Y-69057511D01*
X71250500Y-69006000D01*
X71250500Y-68630000D01*
X71500000Y-68630000D01*
X72050000Y-68630000D01*
X72050000Y-68475013D01*
X77375000Y-68475013D01*
X77375000Y-68750000D01*
X78212500Y-68750000D01*
X78212500Y-67775000D01*
X78075027Y-67775000D01*
X78075012Y-67775001D01*
X77972302Y-67785494D01*
X77805880Y-67840641D01*
X77805875Y-67840643D01*
X77656654Y-67932684D01*
X77532684Y-68056654D01*
X77440643Y-68205875D01*
X77440641Y-68205880D01*
X77385494Y-68372302D01*
X77385493Y-68372309D01*
X77375000Y-68475013D01*
X72050000Y-68475013D01*
X72050000Y-67832172D01*
X72049999Y-67832155D01*
X72043598Y-67772627D01*
X72043596Y-67772620D01*
X71993354Y-67637913D01*
X71993350Y-67637906D01*
X71907190Y-67522812D01*
X71907187Y-67522809D01*
X71792093Y-67436649D01*
X71792086Y-67436645D01*
X71657379Y-67386403D01*
X71657372Y-67386401D01*
X71597844Y-67380000D01*
X71500000Y-67380000D01*
X71500000Y-68630000D01*
X71250500Y-68630000D01*
X71250499Y-67832129D01*
X71250498Y-67832123D01*
X71250497Y-67832116D01*
X71244091Y-67772517D01*
X71241540Y-67765678D01*
X71208318Y-67676604D01*
X71200500Y-67633271D01*
X71200500Y-66934321D01*
X71217113Y-66872321D01*
X71250702Y-66814143D01*
X71277179Y-66768284D01*
X71335674Y-66588256D01*
X71355460Y-66400000D01*
X71335674Y-66211744D01*
X71277179Y-66031716D01*
X71182533Y-65867784D01*
X71055871Y-65727112D01*
X71055870Y-65727111D01*
X70902734Y-65615851D01*
X70902729Y-65615848D01*
X70729807Y-65538857D01*
X70729802Y-65538855D01*
X70584001Y-65507865D01*
X70544646Y-65499500D01*
X70355354Y-65499500D01*
X70322897Y-65506398D01*
X70170197Y-65538855D01*
X70170192Y-65538857D01*
X69997270Y-65615848D01*
X69997265Y-65615851D01*
X69844129Y-65727111D01*
X69844128Y-65727112D01*
X69831649Y-65740972D01*
X69772162Y-65777620D01*
X69702305Y-65776289D01*
X69644257Y-65737402D01*
X69616448Y-65673305D01*
X69615500Y-65657999D01*
X69615500Y-65324499D01*
X69635185Y-65257460D01*
X69687989Y-65211705D01*
X69739500Y-65200499D01*
X69900002Y-65200499D01*
X69900008Y-65200499D01*
X70002797Y-65189999D01*
X70169334Y-65134814D01*
X70318656Y-65042712D01*
X70412675Y-64948692D01*
X70473994Y-64915210D01*
X70543686Y-64920194D01*
X70588034Y-64948695D01*
X70681654Y-65042315D01*
X70830875Y-65134356D01*
X70830880Y-65134358D01*
X70997302Y-65189505D01*
X70997309Y-65189506D01*
X71100019Y-65199999D01*
X71249999Y-65199999D01*
X71750000Y-65199999D01*
X71899972Y-65199999D01*
X71899986Y-65199998D01*
X72002697Y-65189505D01*
X72169119Y-65134358D01*
X72169124Y-65134356D01*
X72318345Y-65042315D01*
X72442315Y-64918345D01*
X72534356Y-64769124D01*
X72534358Y-64769119D01*
X72589505Y-64602697D01*
X72589506Y-64602690D01*
X72599999Y-64499986D01*
X72600000Y-64499973D01*
X72600000Y-64250000D01*
X71750000Y-64250000D01*
X71750000Y-65199999D01*
X71249999Y-65199999D01*
X71250000Y-65199998D01*
X71250000Y-63750000D01*
X71750000Y-63750000D01*
X72599999Y-63750000D01*
X72599999Y-63500028D01*
X72599998Y-63500013D01*
X72589505Y-63397302D01*
X72534358Y-63230880D01*
X72534356Y-63230875D01*
X72442315Y-63081654D01*
X72318345Y-62957684D01*
X72169124Y-62865643D01*
X72169119Y-62865641D01*
X72002697Y-62810494D01*
X72002690Y-62810493D01*
X71899986Y-62800000D01*
X71750000Y-62800000D01*
X71750000Y-63750000D01*
X71250000Y-63750000D01*
X71250000Y-62800000D01*
X71100027Y-62800000D01*
X71100012Y-62800001D01*
X70997302Y-62810494D01*
X70830880Y-62865641D01*
X70830875Y-62865643D01*
X70681657Y-62957682D01*
X70588034Y-63051305D01*
X70526710Y-63084789D01*
X70457019Y-63079805D01*
X70412672Y-63051304D01*
X70318657Y-62957289D01*
X70318656Y-62957288D01*
X70169334Y-62865186D01*
X70002797Y-62810001D01*
X70002795Y-62810000D01*
X69900010Y-62799500D01*
X69099998Y-62799500D01*
X69099980Y-62799501D01*
X68997203Y-62810000D01*
X68997200Y-62810001D01*
X68830668Y-62865185D01*
X68830663Y-62865187D01*
X68681342Y-62957289D01*
X68557289Y-63081342D01*
X68465187Y-63230663D01*
X68465185Y-63230668D01*
X68453177Y-63266906D01*
X68410001Y-63397203D01*
X68410001Y-63397204D01*
X68410000Y-63397204D01*
X68399500Y-63499983D01*
X68399500Y-64276416D01*
X68390062Y-64323865D01*
X68388538Y-64327542D01*
X68388536Y-64327549D01*
X68380002Y-64370449D01*
X68380003Y-64370450D01*
X68366170Y-64440000D01*
X68366169Y-64440002D01*
X68364500Y-64448392D01*
X68364500Y-66115806D01*
X68344815Y-66182845D01*
X68292011Y-66228600D01*
X68222853Y-66238544D01*
X68216314Y-66237424D01*
X68201613Y-66234500D01*
X68201607Y-66234500D01*
X68201606Y-66234500D01*
X67499500Y-66234500D01*
X67432461Y-66214815D01*
X67386706Y-66162011D01*
X67375500Y-66110500D01*
X67375500Y-65037230D01*
X67395185Y-64970191D01*
X67411819Y-64949549D01*
X67412673Y-64948695D01*
X67442712Y-64918656D01*
X67534814Y-64769334D01*
X67589999Y-64602797D01*
X67600500Y-64500009D01*
X67600499Y-63499992D01*
X67589999Y-63397203D01*
X67534814Y-63230666D01*
X67442712Y-63081344D01*
X67318656Y-62957288D01*
X67169334Y-62865186D01*
X67002797Y-62810001D01*
X67002795Y-62810000D01*
X66900010Y-62799500D01*
X66099998Y-62799500D01*
X66099980Y-62799501D01*
X65997203Y-62810000D01*
X65997200Y-62810001D01*
X65830668Y-62865185D01*
X65830663Y-62865187D01*
X65681345Y-62957287D01*
X65587327Y-63051305D01*
X65526003Y-63084789D01*
X65456312Y-63079805D01*
X65411965Y-63051304D01*
X65318345Y-62957684D01*
X65169124Y-62865643D01*
X65169119Y-62865641D01*
X65002697Y-62810494D01*
X65002690Y-62810493D01*
X64899986Y-62800000D01*
X64750000Y-62800000D01*
X64750000Y-65199999D01*
X64899972Y-65199999D01*
X64899986Y-65199998D01*
X65002697Y-65189505D01*
X65169119Y-65134358D01*
X65169124Y-65134356D01*
X65318342Y-65042317D01*
X65411964Y-64948695D01*
X65473287Y-64915210D01*
X65542979Y-64920194D01*
X65587327Y-64948695D01*
X65681344Y-65042712D01*
X65830666Y-65134814D01*
X65997203Y-65189999D01*
X66013101Y-65191623D01*
X66077793Y-65218018D01*
X66117945Y-65275198D01*
X66124500Y-65314981D01*
X66124500Y-65479121D01*
X66104815Y-65546160D01*
X66052011Y-65591915D01*
X65982853Y-65601859D01*
X65950064Y-65592400D01*
X65829807Y-65538857D01*
X65829802Y-65538855D01*
X65684001Y-65507865D01*
X65644646Y-65499500D01*
X65455354Y-65499500D01*
X65422897Y-65506398D01*
X65270197Y-65538855D01*
X65270192Y-65538857D01*
X65097270Y-65615848D01*
X65097265Y-65615851D01*
X64944129Y-65727111D01*
X64817466Y-65867785D01*
X64722821Y-66031715D01*
X64722818Y-66031722D01*
X64664327Y-66211740D01*
X64664326Y-66211744D01*
X64644540Y-66400000D01*
X64664326Y-66588256D01*
X64664327Y-66588259D01*
X64722818Y-66768277D01*
X64722821Y-66768284D01*
X64782887Y-66872321D01*
X64799500Y-66934321D01*
X64799500Y-67633271D01*
X64791682Y-67676604D01*
X64755908Y-67772517D01*
X64749863Y-67828752D01*
X64749500Y-67832127D01*
X64749500Y-68862485D01*
X64749501Y-69006000D01*
X64729816Y-69073039D01*
X64677013Y-69118794D01*
X64625501Y-69130000D01*
X64119886Y-69130000D01*
X64052847Y-69110315D01*
X64032205Y-69093681D01*
X64018017Y-69079493D01*
X64018011Y-69079488D01*
X63892488Y-69007017D01*
X63892489Y-69007017D01*
X63866301Y-69000000D01*
X63752475Y-68969500D01*
X63607525Y-68969500D01*
X63493699Y-69000000D01*
X63467511Y-69007017D01*
X63341988Y-69079488D01*
X63341982Y-69079493D01*
X63239493Y-69181982D01*
X63239488Y-69181988D01*
X63167017Y-69307511D01*
X63167016Y-69307515D01*
X63129500Y-69447525D01*
X60100500Y-69447525D01*
X60100499Y-68499992D01*
X60097947Y-68475013D01*
X60089999Y-68397203D01*
X60089998Y-68397200D01*
X60082730Y-68375267D01*
X60034814Y-68230666D01*
X59942712Y-68081344D01*
X59818656Y-67957288D01*
X59705438Y-67887455D01*
X59669336Y-67865187D01*
X59669331Y-67865185D01*
X59650500Y-67858945D01*
X59569653Y-67832155D01*
X63950000Y-67832155D01*
X63950000Y-68630000D01*
X64500000Y-68630000D01*
X64500000Y-67380000D01*
X64402155Y-67380000D01*
X64342627Y-67386401D01*
X64342620Y-67386403D01*
X64207913Y-67436645D01*
X64207906Y-67436649D01*
X64092812Y-67522809D01*
X64092809Y-67522812D01*
X64006649Y-67637906D01*
X64006645Y-67637913D01*
X63956403Y-67772620D01*
X63956401Y-67772627D01*
X63950000Y-67832155D01*
X59569653Y-67832155D01*
X59502797Y-67810001D01*
X59502795Y-67810000D01*
X59400010Y-67799500D01*
X58649998Y-67799500D01*
X58649980Y-67799501D01*
X58547203Y-67810000D01*
X58547200Y-67810001D01*
X58380668Y-67865185D01*
X58380663Y-67865187D01*
X58231342Y-67957289D01*
X58107285Y-68081346D01*
X58105537Y-68084182D01*
X58103829Y-68085717D01*
X58102807Y-68087011D01*
X58102585Y-68086836D01*
X58053589Y-68130905D01*
X57984626Y-68142126D01*
X57920544Y-68114282D01*
X57894463Y-68084182D01*
X57892714Y-68081346D01*
X57768657Y-67957289D01*
X57768656Y-67957288D01*
X57659402Y-67889900D01*
X57612679Y-67837953D01*
X57600500Y-67784362D01*
X57600500Y-65379500D01*
X57620185Y-65312461D01*
X57672989Y-65266706D01*
X57724500Y-65255500D01*
X57850000Y-65255500D01*
X57921940Y-65250355D01*
X58059992Y-65209819D01*
X58181032Y-65132031D01*
X58275254Y-65023294D01*
X58335024Y-64892416D01*
X58355500Y-64750000D01*
X58355500Y-64499986D01*
X63400001Y-64499986D01*
X63410494Y-64602697D01*
X63465641Y-64769119D01*
X63465643Y-64769124D01*
X63557684Y-64918345D01*
X63681654Y-65042315D01*
X63830875Y-65134356D01*
X63830880Y-65134358D01*
X63997302Y-65189505D01*
X63997309Y-65189506D01*
X64100019Y-65199999D01*
X64249999Y-65199999D01*
X64250000Y-65199998D01*
X64250000Y-64250000D01*
X63400001Y-64250000D01*
X63400001Y-64499986D01*
X58355500Y-64499986D01*
X58355500Y-64285763D01*
X58355500Y-63500013D01*
X63400000Y-63500013D01*
X63400000Y-63750000D01*
X64250000Y-63750000D01*
X64250000Y-62800000D01*
X64100027Y-62800000D01*
X64100012Y-62800001D01*
X63997302Y-62810494D01*
X63830880Y-62865641D01*
X63830875Y-62865643D01*
X63681654Y-62957684D01*
X63557684Y-63081654D01*
X63465643Y-63230875D01*
X63465641Y-63230880D01*
X63410494Y-63397302D01*
X63410493Y-63397309D01*
X63400000Y-63500013D01*
X58355500Y-63500013D01*
X58355500Y-63250000D01*
X58350355Y-63178060D01*
X58309819Y-63040008D01*
X58259387Y-62961534D01*
X58232032Y-62918969D01*
X58232028Y-62918965D01*
X58123299Y-62824750D01*
X58123297Y-62824748D01*
X58123294Y-62824746D01*
X58123291Y-62824745D01*
X58123289Y-62824743D01*
X58047988Y-62790354D01*
X57995184Y-62744599D01*
X57975500Y-62677560D01*
X57975500Y-61569793D01*
X57995185Y-61502754D01*
X58007350Y-61486821D01*
X58028265Y-61463591D01*
X58092533Y-61392216D01*
X58187179Y-61228284D01*
X58245674Y-61048256D01*
X58265460Y-60860000D01*
X58245674Y-60671744D01*
X58187179Y-60491716D01*
X58092533Y-60327784D01*
X57965871Y-60187112D01*
X57965870Y-60187111D01*
X57812734Y-60075851D01*
X57812729Y-60075848D01*
X57639807Y-59998857D01*
X57639802Y-59998855D01*
X57494001Y-59967865D01*
X57454646Y-59959500D01*
X57265354Y-59959500D01*
X57232897Y-59966398D01*
X57080197Y-59998855D01*
X57080192Y-59998857D01*
X56907270Y-60075848D01*
X56907265Y-60075851D01*
X56754129Y-60187111D01*
X56627466Y-60327785D01*
X56532821Y-60491715D01*
X56532818Y-60491722D01*
X56474327Y-60671740D01*
X56474326Y-60671744D01*
X56454540Y-60860000D01*
X56474326Y-61048256D01*
X56474327Y-61048259D01*
X56532818Y-61228277D01*
X56532821Y-61228284D01*
X56627466Y-61392215D01*
X56692649Y-61464607D01*
X56722880Y-61527599D01*
X56724500Y-61547580D01*
X56724500Y-62904905D01*
X56704815Y-62971944D01*
X56681705Y-62998616D01*
X56637165Y-63037211D01*
X56543018Y-63145864D01*
X56543015Y-63145867D01*
X56465231Y-63266905D01*
X56465223Y-63266918D01*
X56408263Y-63391643D01*
X56406015Y-63395939D01*
X56364966Y-63535738D01*
X56364963Y-63535748D01*
X56344503Y-63678059D01*
X56344503Y-63734399D01*
X56344500Y-63734409D01*
X56344500Y-64265573D01*
X56344503Y-64265601D01*
X56344503Y-64321941D01*
X56345936Y-64331908D01*
X56348238Y-64347917D01*
X56349500Y-64365564D01*
X56349500Y-67784362D01*
X56329815Y-67851401D01*
X56290598Y-67889899D01*
X56232881Y-67925500D01*
X56181342Y-67957289D01*
X56057289Y-68081342D01*
X55965187Y-68230663D01*
X55965185Y-68230668D01*
X55937349Y-68314670D01*
X55910001Y-68397203D01*
X55910001Y-68397204D01*
X55910000Y-68397204D01*
X55899500Y-68499983D01*
X55899500Y-69500001D01*
X55899501Y-69500019D01*
X55910000Y-69602796D01*
X55910001Y-69602799D01*
X55954873Y-69738211D01*
X55957275Y-69808039D01*
X55921543Y-69868081D01*
X55859023Y-69899274D01*
X55789564Y-69891714D01*
X55749486Y-69864896D01*
X54731819Y-68847229D01*
X54698334Y-68785906D01*
X54695500Y-68759548D01*
X54695500Y-67861329D01*
X54715185Y-67794290D01*
X54763204Y-67750845D01*
X54856434Y-67703343D01*
X55047510Y-67564518D01*
X55214518Y-67397510D01*
X55353343Y-67206434D01*
X55460568Y-66995992D01*
X55533553Y-66771369D01*
X55553840Y-66643283D01*
X55570500Y-66538097D01*
X55570500Y-66301902D01*
X55533553Y-66068631D01*
X55499689Y-65964412D01*
X55460568Y-65844008D01*
X55460566Y-65844005D01*
X55460566Y-65844003D01*
X55421666Y-65767659D01*
X55353343Y-65633567D01*
X55323081Y-65591915D01*
X55214523Y-65442496D01*
X55214519Y-65442491D01*
X53636819Y-63864791D01*
X53603334Y-63803468D01*
X53600500Y-63777110D01*
X53600500Y-57079993D01*
X64054700Y-57079993D01*
X64054700Y-57080006D01*
X64073864Y-57311297D01*
X64073866Y-57311308D01*
X64130842Y-57536300D01*
X64224075Y-57748848D01*
X64351016Y-57943147D01*
X64351019Y-57943151D01*
X64351021Y-57943153D01*
X64508216Y-58113913D01*
X64508219Y-58113915D01*
X64508222Y-58113918D01*
X64691365Y-58256464D01*
X64691371Y-58256468D01*
X64691374Y-58256470D01*
X64784263Y-58306739D01*
X64894652Y-58366479D01*
X64895497Y-58366936D01*
X64972179Y-58393261D01*
X65115015Y-58442297D01*
X65115017Y-58442297D01*
X65115019Y-58442298D01*
X65343951Y-58480500D01*
X65343952Y-58480500D01*
X65576048Y-58480500D01*
X65576049Y-58480500D01*
X65804981Y-58442298D01*
X66024503Y-58366936D01*
X66228626Y-58256470D01*
X66229170Y-58256047D01*
X66290129Y-58208600D01*
X66411784Y-58113913D01*
X66568979Y-57943153D01*
X66695924Y-57748849D01*
X66789157Y-57536300D01*
X66846134Y-57311305D01*
X66846135Y-57311297D01*
X66865300Y-57080006D01*
X66865300Y-57079994D01*
X69135202Y-57079994D01*
X69135202Y-57080005D01*
X69154361Y-57311218D01*
X69211317Y-57536135D01*
X69304515Y-57748606D01*
X69388812Y-57877633D01*
X70057037Y-57209408D01*
X70074075Y-57272993D01*
X70139901Y-57387007D01*
X70232993Y-57480099D01*
X70347007Y-57545925D01*
X70410590Y-57562962D01*
X69741201Y-58232351D01*
X69771649Y-58256050D01*
X69975697Y-58366476D01*
X69975706Y-58366479D01*
X70195139Y-58441811D01*
X70423993Y-58480000D01*
X70656007Y-58480000D01*
X70884860Y-58441811D01*
X71104293Y-58366479D01*
X71104301Y-58366476D01*
X71308355Y-58256047D01*
X71338797Y-58232351D01*
X71338798Y-58232350D01*
X70669410Y-57562962D01*
X70732993Y-57545925D01*
X70847007Y-57480099D01*
X70940099Y-57387007D01*
X71005925Y-57272993D01*
X71022962Y-57209409D01*
X71691186Y-57877633D01*
X71775482Y-57748611D01*
X71868682Y-57536135D01*
X71925638Y-57311218D01*
X71944798Y-57080005D01*
X71944798Y-57079994D01*
X71925638Y-56848781D01*
X71868682Y-56623864D01*
X71775484Y-56411393D01*
X71691186Y-56282365D01*
X71022962Y-56950589D01*
X71005925Y-56887007D01*
X70940099Y-56772993D01*
X70847007Y-56679901D01*
X70732993Y-56614075D01*
X70669409Y-56597037D01*
X71338797Y-55927647D01*
X71338797Y-55927645D01*
X71308360Y-55903955D01*
X71308354Y-55903951D01*
X71104302Y-55793523D01*
X71104293Y-55793520D01*
X70884860Y-55718188D01*
X70656007Y-55680000D01*
X70423993Y-55680000D01*
X70195139Y-55718188D01*
X69975706Y-55793520D01*
X69975697Y-55793523D01*
X69771650Y-55903949D01*
X69741200Y-55927647D01*
X70410591Y-56597037D01*
X70347007Y-56614075D01*
X70232993Y-56679901D01*
X70139901Y-56772993D01*
X70074075Y-56887007D01*
X70057037Y-56950591D01*
X69388811Y-56282365D01*
X69304516Y-56411390D01*
X69211317Y-56623864D01*
X69154361Y-56848781D01*
X69135202Y-57079994D01*
X66865300Y-57079994D01*
X66865300Y-57079993D01*
X66846135Y-56848702D01*
X66846133Y-56848691D01*
X66789157Y-56623699D01*
X66695924Y-56411151D01*
X66568983Y-56216852D01*
X66568980Y-56216849D01*
X66568979Y-56216847D01*
X66411784Y-56046087D01*
X66411779Y-56046083D01*
X66411777Y-56046081D01*
X66228634Y-55903535D01*
X66228628Y-55903531D01*
X66024504Y-55793064D01*
X66024495Y-55793061D01*
X65804984Y-55717702D01*
X65633282Y-55689050D01*
X65576049Y-55679500D01*
X65343951Y-55679500D01*
X65298164Y-55687140D01*
X65115015Y-55717702D01*
X64895504Y-55793061D01*
X64895495Y-55793064D01*
X64691371Y-55903531D01*
X64691365Y-55903535D01*
X64508222Y-56046081D01*
X64508219Y-56046084D01*
X64351016Y-56216852D01*
X64224075Y-56411151D01*
X64130842Y-56623699D01*
X64073866Y-56848691D01*
X64073864Y-56848702D01*
X64054700Y-57079993D01*
X53600500Y-57079993D01*
X53600500Y-51881902D01*
X53563553Y-51648631D01*
X53490565Y-51424000D01*
X53464014Y-51371891D01*
X53450499Y-51315597D01*
X53450499Y-51102129D01*
X53450498Y-51102123D01*
X53450497Y-51102116D01*
X53444091Y-51042517D01*
X53393884Y-50907906D01*
X53393797Y-50907671D01*
X53393793Y-50907664D01*
X53307547Y-50792455D01*
X53307544Y-50792452D01*
X53215124Y-50723266D01*
X53173253Y-50667332D01*
X53168269Y-50597641D01*
X53201755Y-50536318D01*
X53263078Y-50502834D01*
X53289435Y-50500000D01*
X67340590Y-50500000D01*
X67407629Y-50519685D01*
G37*
%TD.AperFunction*%
%TA.AperFunction,Conductor*%
G36*
X100610000Y-61726988D02*
G01*
X100552993Y-61694075D01*
X100425826Y-61660000D01*
X100294174Y-61660000D01*
X100167007Y-61694075D01*
X100110000Y-61726988D01*
X100110000Y-60053012D01*
X100167007Y-60085925D01*
X100294174Y-60120000D01*
X100425826Y-60120000D01*
X100552993Y-60085925D01*
X100610000Y-60053012D01*
X100610000Y-61726988D01*
G37*
%TD.AperFunction*%
%TA.AperFunction,Conductor*%
G36*
X100610000Y-59186988D02*
G01*
X100552993Y-59154075D01*
X100425826Y-59120000D01*
X100294174Y-59120000D01*
X100167007Y-59154075D01*
X100110000Y-59186988D01*
X100110000Y-57513012D01*
X100167007Y-57545925D01*
X100294174Y-57580000D01*
X100425826Y-57580000D01*
X100552993Y-57545925D01*
X100610000Y-57513012D01*
X100610000Y-59186988D01*
G37*
%TD.AperFunction*%
%TA.AperFunction,Conductor*%
G36*
X100610000Y-56646988D02*
G01*
X100552993Y-56614075D01*
X100425826Y-56580000D01*
X100294174Y-56580000D01*
X100167007Y-56614075D01*
X100110000Y-56646988D01*
X100110000Y-54973012D01*
X100167007Y-55005925D01*
X100294174Y-55040000D01*
X100425826Y-55040000D01*
X100552993Y-55005925D01*
X100610000Y-54973012D01*
X100610000Y-56646988D01*
G37*
%TD.AperFunction*%
%TA.AperFunction,Conductor*%
G36*
X100610000Y-54106988D02*
G01*
X100552993Y-54074075D01*
X100425826Y-54040000D01*
X100294174Y-54040000D01*
X100167007Y-54074075D01*
X100110000Y-54106988D01*
X100110000Y-52433012D01*
X100167007Y-52465925D01*
X100294174Y-52500000D01*
X100425826Y-52500000D01*
X100552993Y-52465925D01*
X100610000Y-52433012D01*
X100610000Y-54106988D01*
G37*
%TD.AperFunction*%
%TD*%
M02*
