%TF.GenerationSoftware,KiCad,Pcbnew,8.0.4*%
%TF.CreationDate,2025-01-04T18:22:50+00:00*%
%TF.ProjectId,r1283_power,72313238-335f-4706-9f77-65722e6b6963,rev?*%
%TF.SameCoordinates,Original*%
%TF.FileFunction,Paste,Top*%
%TF.FilePolarity,Positive*%
%FSLAX46Y46*%
G04 Gerber Fmt 4.6, Leading zero omitted, Abs format (unit mm)*
G04 Created by KiCad (PCBNEW 8.0.4) date 2025-01-04 18:22:50*
%MOMM*%
%LPD*%
G01*
G04 APERTURE LIST*
G04 Aperture macros list*
%AMRoundRect*
0 Rectangle with rounded corners*
0 $1 Rounding radius*
0 $2 $3 $4 $5 $6 $7 $8 $9 X,Y pos of 4 corners*
0 Add a 4 corners polygon primitive as box body*
4,1,4,$2,$3,$4,$5,$6,$7,$8,$9,$2,$3,0*
0 Add four circle primitives for the rounded corners*
1,1,$1+$1,$2,$3*
1,1,$1+$1,$4,$5*
1,1,$1+$1,$6,$7*
1,1,$1+$1,$8,$9*
0 Add four rect primitives between the rounded corners*
20,1,$1+$1,$2,$3,$4,$5,0*
20,1,$1+$1,$4,$5,$6,$7,0*
20,1,$1+$1,$6,$7,$8,$9,0*
20,1,$1+$1,$8,$9,$2,$3,0*%
G04 Aperture macros list end*
%ADD10RoundRect,0.062500X0.362500X0.062500X-0.362500X0.062500X-0.362500X-0.062500X0.362500X-0.062500X0*%
%ADD11RoundRect,0.250000X1.500000X0.650000X-1.500000X0.650000X-1.500000X-0.650000X1.500000X-0.650000X0*%
%ADD12RoundRect,0.250000X-0.350000X-0.450000X0.350000X-0.450000X0.350000X0.450000X-0.350000X0.450000X0*%
%ADD13RoundRect,0.250000X-0.475000X0.337500X-0.475000X-0.337500X0.475000X-0.337500X0.475000X0.337500X0*%
%ADD14RoundRect,0.250000X0.350000X0.450000X-0.350000X0.450000X-0.350000X-0.450000X0.350000X-0.450000X0*%
%ADD15RoundRect,0.250000X-1.500000X-0.650000X1.500000X-0.650000X1.500000X0.650000X-1.500000X0.650000X0*%
%ADD16RoundRect,0.250000X0.450000X-0.350000X0.450000X0.350000X-0.450000X0.350000X-0.450000X-0.350000X0*%
%ADD17R,1.600000X1.900000*%
%ADD18RoundRect,0.250000X-0.337500X-0.475000X0.337500X-0.475000X0.337500X0.475000X-0.337500X0.475000X0*%
%ADD19RoundRect,0.250000X0.337500X0.475000X-0.337500X0.475000X-0.337500X-0.475000X0.337500X-0.475000X0*%
G04 APERTURE END LIST*
D10*
%TO.C,U1*%
X63575000Y-62750000D03*
X63575000Y-62250000D03*
X63575000Y-61750000D03*
X63575000Y-61250000D03*
X63575000Y-60750000D03*
X63575000Y-60250000D03*
X66425000Y-60250000D03*
X66425000Y-60750000D03*
X66425000Y-61250000D03*
X66425000Y-61750000D03*
X66425000Y-62250000D03*
X66425000Y-62750000D03*
%TD*%
D11*
%TO.C,D1*%
X71000000Y-57000000D03*
X76000000Y-57000000D03*
%TD*%
D12*
%TO.C,R5*%
X87000000Y-64000000D03*
X85000000Y-64000000D03*
%TD*%
D13*
%TO.C,C1*%
X58000000Y-65037500D03*
X58000000Y-62962500D03*
%TD*%
D14*
%TO.C,R1*%
X75000000Y-52900000D03*
X77000000Y-52900000D03*
%TD*%
D15*
%TO.C,D2*%
X76000000Y-66000000D03*
X71000000Y-66000000D03*
%TD*%
D16*
%TO.C,R3*%
X55000000Y-63000000D03*
X55000000Y-65000000D03*
%TD*%
D17*
%TO.C,L2*%
X65000000Y-70050000D03*
X65000000Y-65950000D03*
%TD*%
D12*
%TO.C,R4*%
X87000000Y-59000000D03*
X85000000Y-59000000D03*
%TD*%
%TO.C,R7*%
X72000000Y-69940000D03*
X70000000Y-69940000D03*
%TD*%
%TO.C,R6*%
X82000000Y-64000000D03*
X80000000Y-64000000D03*
%TD*%
D17*
%TO.C,L1*%
X65000000Y-57050000D03*
X65000000Y-52950000D03*
%TD*%
D13*
%TO.C,C7*%
X58000000Y-60037500D03*
X58000000Y-57962500D03*
%TD*%
D18*
%TO.C,C5*%
X92037500Y-66000000D03*
X89962500Y-66000000D03*
%TD*%
%TO.C,C4*%
X72037500Y-52820000D03*
X69962500Y-52820000D03*
%TD*%
D19*
%TO.C,C3*%
X94962500Y-66000000D03*
X97037500Y-66000000D03*
%TD*%
D12*
%TO.C,R2*%
X82000000Y-59000000D03*
X80000000Y-59000000D03*
%TD*%
D19*
%TO.C,C2*%
X94962500Y-63000000D03*
X97037500Y-63000000D03*
%TD*%
D18*
%TO.C,C6*%
X77037500Y-69860000D03*
X74962500Y-69860000D03*
%TD*%
M02*
