%TF.GenerationSoftware,KiCad,Pcbnew,8.0.4*%
%TF.CreationDate,2025-01-20T11:41:48+00:00*%
%TF.ProjectId,r1283_power,72313238-335f-4706-9f77-65722e6b6963,rev?*%
%TF.SameCoordinates,Original*%
%TF.FileFunction,Legend,Bot*%
%TF.FilePolarity,Positive*%
%FSLAX46Y46*%
G04 Gerber Fmt 4.6, Leading zero omitted, Abs format (unit mm)*
G04 Created by KiCad (PCBNEW 8.0.4) date 2025-01-20 11:41:48*
%MOMM*%
%LPD*%
G01*
G04 APERTURE LIST*
%ADD10C,0.300000*%
G04 APERTURE END LIST*
D10*
X96107141Y-59970870D02*
X95607141Y-61470870D01*
X95607141Y-61470870D02*
X95107141Y-59970870D01*
X94321427Y-59970870D02*
X94035713Y-59970870D01*
X94035713Y-59970870D02*
X93892856Y-60042299D01*
X93892856Y-60042299D02*
X93749999Y-60185156D01*
X93749999Y-60185156D02*
X93678570Y-60470870D01*
X93678570Y-60470870D02*
X93678570Y-60970870D01*
X93678570Y-60970870D02*
X93749999Y-61256584D01*
X93749999Y-61256584D02*
X93892856Y-61399442D01*
X93892856Y-61399442D02*
X94035713Y-61470870D01*
X94035713Y-61470870D02*
X94321427Y-61470870D01*
X94321427Y-61470870D02*
X94464285Y-61399442D01*
X94464285Y-61399442D02*
X94607142Y-61256584D01*
X94607142Y-61256584D02*
X94678570Y-60970870D01*
X94678570Y-60970870D02*
X94678570Y-60470870D01*
X94678570Y-60470870D02*
X94607142Y-60185156D01*
X94607142Y-60185156D02*
X94464285Y-60042299D01*
X94464285Y-60042299D02*
X94321427Y-59970870D01*
X93035713Y-59970870D02*
X93035713Y-61185156D01*
X93035713Y-61185156D02*
X92964284Y-61328013D01*
X92964284Y-61328013D02*
X92892856Y-61399442D01*
X92892856Y-61399442D02*
X92749998Y-61470870D01*
X92749998Y-61470870D02*
X92464284Y-61470870D01*
X92464284Y-61470870D02*
X92321427Y-61399442D01*
X92321427Y-61399442D02*
X92249998Y-61328013D01*
X92249998Y-61328013D02*
X92178570Y-61185156D01*
X92178570Y-61185156D02*
X92178570Y-59970870D01*
X91678569Y-59970870D02*
X90821427Y-59970870D01*
X91249998Y-61470870D02*
X91249998Y-59970870D01*
X90678570Y-61613727D02*
X89535712Y-61613727D01*
X89178570Y-61470870D02*
X89178570Y-59970870D01*
X89178570Y-59970870D02*
X88607141Y-59970870D01*
X88607141Y-59970870D02*
X88464284Y-60042299D01*
X88464284Y-60042299D02*
X88392855Y-60113727D01*
X88392855Y-60113727D02*
X88321427Y-60256584D01*
X88321427Y-60256584D02*
X88321427Y-60470870D01*
X88321427Y-60470870D02*
X88392855Y-60613727D01*
X88392855Y-60613727D02*
X88464284Y-60685156D01*
X88464284Y-60685156D02*
X88607141Y-60756584D01*
X88607141Y-60756584D02*
X89178570Y-60756584D01*
X87392855Y-59970870D02*
X87107141Y-59970870D01*
X87107141Y-59970870D02*
X86964284Y-60042299D01*
X86964284Y-60042299D02*
X86821427Y-60185156D01*
X86821427Y-60185156D02*
X86749998Y-60470870D01*
X86749998Y-60470870D02*
X86749998Y-60970870D01*
X86749998Y-60970870D02*
X86821427Y-61256584D01*
X86821427Y-61256584D02*
X86964284Y-61399442D01*
X86964284Y-61399442D02*
X87107141Y-61470870D01*
X87107141Y-61470870D02*
X87392855Y-61470870D01*
X87392855Y-61470870D02*
X87535713Y-61399442D01*
X87535713Y-61399442D02*
X87678570Y-61256584D01*
X87678570Y-61256584D02*
X87749998Y-60970870D01*
X87749998Y-60970870D02*
X87749998Y-60470870D01*
X87749998Y-60470870D02*
X87678570Y-60185156D01*
X87678570Y-60185156D02*
X87535713Y-60042299D01*
X87535713Y-60042299D02*
X87392855Y-59970870D01*
X86178569Y-61399442D02*
X85964284Y-61470870D01*
X85964284Y-61470870D02*
X85607141Y-61470870D01*
X85607141Y-61470870D02*
X85464284Y-61399442D01*
X85464284Y-61399442D02*
X85392855Y-61328013D01*
X85392855Y-61328013D02*
X85321426Y-61185156D01*
X85321426Y-61185156D02*
X85321426Y-61042299D01*
X85321426Y-61042299D02*
X85392855Y-60899442D01*
X85392855Y-60899442D02*
X85464284Y-60828013D01*
X85464284Y-60828013D02*
X85607141Y-60756584D01*
X85607141Y-60756584D02*
X85892855Y-60685156D01*
X85892855Y-60685156D02*
X86035712Y-60613727D01*
X86035712Y-60613727D02*
X86107141Y-60542299D01*
X86107141Y-60542299D02*
X86178569Y-60399442D01*
X86178569Y-60399442D02*
X86178569Y-60256584D01*
X86178569Y-60256584D02*
X86107141Y-60113727D01*
X86107141Y-60113727D02*
X86035712Y-60042299D01*
X86035712Y-60042299D02*
X85892855Y-59970870D01*
X85892855Y-59970870D02*
X85535712Y-59970870D01*
X85535712Y-59970870D02*
X85321426Y-60042299D01*
X83535713Y-60685156D02*
X82392856Y-60685156D01*
X82392856Y-61113727D02*
X83535713Y-61113727D01*
X80107141Y-62042299D02*
X80178570Y-61970870D01*
X80178570Y-61970870D02*
X80321427Y-61756584D01*
X80321427Y-61756584D02*
X80392856Y-61613727D01*
X80392856Y-61613727D02*
X80464284Y-61399442D01*
X80464284Y-61399442D02*
X80535713Y-61042299D01*
X80535713Y-61042299D02*
X80535713Y-60756584D01*
X80535713Y-60756584D02*
X80464284Y-60399442D01*
X80464284Y-60399442D02*
X80392856Y-60185156D01*
X80392856Y-60185156D02*
X80321427Y-60042299D01*
X80321427Y-60042299D02*
X80178570Y-59828013D01*
X80178570Y-59828013D02*
X80107141Y-59756584D01*
X78678570Y-61470870D02*
X79178570Y-60756584D01*
X79535713Y-61470870D02*
X79535713Y-59970870D01*
X79535713Y-59970870D02*
X78964284Y-59970870D01*
X78964284Y-59970870D02*
X78821427Y-60042299D01*
X78821427Y-60042299D02*
X78749998Y-60113727D01*
X78749998Y-60113727D02*
X78678570Y-60256584D01*
X78678570Y-60256584D02*
X78678570Y-60470870D01*
X78678570Y-60470870D02*
X78749998Y-60613727D01*
X78749998Y-60613727D02*
X78821427Y-60685156D01*
X78821427Y-60685156D02*
X78964284Y-60756584D01*
X78964284Y-60756584D02*
X79535713Y-60756584D01*
X77249998Y-61470870D02*
X78107141Y-61470870D01*
X77678570Y-61470870D02*
X77678570Y-59970870D01*
X77678570Y-59970870D02*
X77821427Y-60185156D01*
X77821427Y-60185156D02*
X77964284Y-60328013D01*
X77964284Y-60328013D02*
X78107141Y-60399442D01*
X75464285Y-60899442D02*
X74321428Y-60899442D01*
X74892856Y-61470870D02*
X74892856Y-60328013D01*
X71607142Y-61470870D02*
X72107142Y-60756584D01*
X72464285Y-61470870D02*
X72464285Y-59970870D01*
X72464285Y-59970870D02*
X71892856Y-59970870D01*
X71892856Y-59970870D02*
X71749999Y-60042299D01*
X71749999Y-60042299D02*
X71678570Y-60113727D01*
X71678570Y-60113727D02*
X71607142Y-60256584D01*
X71607142Y-60256584D02*
X71607142Y-60470870D01*
X71607142Y-60470870D02*
X71678570Y-60613727D01*
X71678570Y-60613727D02*
X71749999Y-60685156D01*
X71749999Y-60685156D02*
X71892856Y-60756584D01*
X71892856Y-60756584D02*
X72464285Y-60756584D01*
X71178570Y-59970870D02*
X70678570Y-61470870D01*
X70678570Y-61470870D02*
X70178570Y-59970870D01*
X68892856Y-61470870D02*
X69749999Y-61470870D01*
X69321428Y-61470870D02*
X69321428Y-59970870D01*
X69321428Y-59970870D02*
X69464285Y-60185156D01*
X69464285Y-60185156D02*
X69607142Y-60328013D01*
X69607142Y-60328013D02*
X69749999Y-60399442D01*
X67107143Y-60899442D02*
X65964286Y-60899442D01*
X66535714Y-61470870D02*
X66535714Y-60328013D01*
X63250000Y-61470870D02*
X63750000Y-60756584D01*
X64107143Y-61470870D02*
X64107143Y-59970870D01*
X64107143Y-59970870D02*
X63535714Y-59970870D01*
X63535714Y-59970870D02*
X63392857Y-60042299D01*
X63392857Y-60042299D02*
X63321428Y-60113727D01*
X63321428Y-60113727D02*
X63250000Y-60256584D01*
X63250000Y-60256584D02*
X63250000Y-60470870D01*
X63250000Y-60470870D02*
X63321428Y-60613727D01*
X63321428Y-60613727D02*
X63392857Y-60685156D01*
X63392857Y-60685156D02*
X63535714Y-60756584D01*
X63535714Y-60756584D02*
X64107143Y-60756584D01*
X62678571Y-60113727D02*
X62607143Y-60042299D01*
X62607143Y-60042299D02*
X62464286Y-59970870D01*
X62464286Y-59970870D02*
X62107143Y-59970870D01*
X62107143Y-59970870D02*
X61964286Y-60042299D01*
X61964286Y-60042299D02*
X61892857Y-60113727D01*
X61892857Y-60113727D02*
X61821428Y-60256584D01*
X61821428Y-60256584D02*
X61821428Y-60399442D01*
X61821428Y-60399442D02*
X61892857Y-60613727D01*
X61892857Y-60613727D02*
X62750000Y-61470870D01*
X62750000Y-61470870D02*
X61821428Y-61470870D01*
X61321429Y-62042299D02*
X61250000Y-61970870D01*
X61250000Y-61970870D02*
X61107143Y-61756584D01*
X61107143Y-61756584D02*
X61035715Y-61613727D01*
X61035715Y-61613727D02*
X60964286Y-61399442D01*
X60964286Y-61399442D02*
X60892857Y-61042299D01*
X60892857Y-61042299D02*
X60892857Y-60756584D01*
X60892857Y-60756584D02*
X60964286Y-60399442D01*
X60964286Y-60399442D02*
X61035715Y-60185156D01*
X61035715Y-60185156D02*
X61107143Y-60042299D01*
X61107143Y-60042299D02*
X61250000Y-59828013D01*
X61250000Y-59828013D02*
X61321429Y-59756584D01*
X57964286Y-59899442D02*
X59250000Y-61828013D01*
X55464286Y-61470870D02*
X55964286Y-60756584D01*
X56321429Y-61470870D02*
X56321429Y-59970870D01*
X56321429Y-59970870D02*
X55750000Y-59970870D01*
X55750000Y-59970870D02*
X55607143Y-60042299D01*
X55607143Y-60042299D02*
X55535714Y-60113727D01*
X55535714Y-60113727D02*
X55464286Y-60256584D01*
X55464286Y-60256584D02*
X55464286Y-60470870D01*
X55464286Y-60470870D02*
X55535714Y-60613727D01*
X55535714Y-60613727D02*
X55607143Y-60685156D01*
X55607143Y-60685156D02*
X55750000Y-60756584D01*
X55750000Y-60756584D02*
X56321429Y-60756584D01*
X54892857Y-60113727D02*
X54821429Y-60042299D01*
X54821429Y-60042299D02*
X54678572Y-59970870D01*
X54678572Y-59970870D02*
X54321429Y-59970870D01*
X54321429Y-59970870D02*
X54178572Y-60042299D01*
X54178572Y-60042299D02*
X54107143Y-60113727D01*
X54107143Y-60113727D02*
X54035714Y-60256584D01*
X54035714Y-60256584D02*
X54035714Y-60399442D01*
X54035714Y-60399442D02*
X54107143Y-60613727D01*
X54107143Y-60613727D02*
X54964286Y-61470870D01*
X54964286Y-61470870D02*
X54035714Y-61470870D01*
X96964284Y-62385786D02*
X96464284Y-63885786D01*
X96464284Y-63885786D02*
X95964284Y-62385786D01*
X95178570Y-62385786D02*
X94892856Y-62385786D01*
X94892856Y-62385786D02*
X94749999Y-62457215D01*
X94749999Y-62457215D02*
X94607142Y-62600072D01*
X94607142Y-62600072D02*
X94535713Y-62885786D01*
X94535713Y-62885786D02*
X94535713Y-63385786D01*
X94535713Y-63385786D02*
X94607142Y-63671500D01*
X94607142Y-63671500D02*
X94749999Y-63814358D01*
X94749999Y-63814358D02*
X94892856Y-63885786D01*
X94892856Y-63885786D02*
X95178570Y-63885786D01*
X95178570Y-63885786D02*
X95321428Y-63814358D01*
X95321428Y-63814358D02*
X95464285Y-63671500D01*
X95464285Y-63671500D02*
X95535713Y-63385786D01*
X95535713Y-63385786D02*
X95535713Y-62885786D01*
X95535713Y-62885786D02*
X95464285Y-62600072D01*
X95464285Y-62600072D02*
X95321428Y-62457215D01*
X95321428Y-62457215D02*
X95178570Y-62385786D01*
X93892856Y-62385786D02*
X93892856Y-63600072D01*
X93892856Y-63600072D02*
X93821427Y-63742929D01*
X93821427Y-63742929D02*
X93749999Y-63814358D01*
X93749999Y-63814358D02*
X93607141Y-63885786D01*
X93607141Y-63885786D02*
X93321427Y-63885786D01*
X93321427Y-63885786D02*
X93178570Y-63814358D01*
X93178570Y-63814358D02*
X93107141Y-63742929D01*
X93107141Y-63742929D02*
X93035713Y-63600072D01*
X93035713Y-63600072D02*
X93035713Y-62385786D01*
X92535712Y-62385786D02*
X91678570Y-62385786D01*
X92107141Y-63885786D02*
X92107141Y-62385786D01*
X91535713Y-64028643D02*
X90392855Y-64028643D01*
X90035713Y-63885786D02*
X90035713Y-62385786D01*
X90035713Y-62385786D02*
X89178570Y-63885786D01*
X89178570Y-63885786D02*
X89178570Y-62385786D01*
X88464284Y-63100072D02*
X87964284Y-63100072D01*
X87749998Y-63885786D02*
X88464284Y-63885786D01*
X88464284Y-63885786D02*
X88464284Y-62385786D01*
X88464284Y-62385786D02*
X87749998Y-62385786D01*
X86321426Y-62457215D02*
X86464284Y-62385786D01*
X86464284Y-62385786D02*
X86678569Y-62385786D01*
X86678569Y-62385786D02*
X86892855Y-62457215D01*
X86892855Y-62457215D02*
X87035712Y-62600072D01*
X87035712Y-62600072D02*
X87107141Y-62742929D01*
X87107141Y-62742929D02*
X87178569Y-63028643D01*
X87178569Y-63028643D02*
X87178569Y-63242929D01*
X87178569Y-63242929D02*
X87107141Y-63528643D01*
X87107141Y-63528643D02*
X87035712Y-63671500D01*
X87035712Y-63671500D02*
X86892855Y-63814358D01*
X86892855Y-63814358D02*
X86678569Y-63885786D01*
X86678569Y-63885786D02*
X86535712Y-63885786D01*
X86535712Y-63885786D02*
X86321426Y-63814358D01*
X86321426Y-63814358D02*
X86249998Y-63742929D01*
X86249998Y-63742929D02*
X86249998Y-63242929D01*
X86249998Y-63242929D02*
X86535712Y-63242929D01*
X84464284Y-63100072D02*
X83321427Y-63100072D01*
X83321427Y-63528643D02*
X84464284Y-63528643D01*
X81464284Y-63314358D02*
X80321427Y-63314358D01*
X78821426Y-63885786D02*
X79678569Y-63885786D01*
X79249998Y-63885786D02*
X79249998Y-62385786D01*
X79249998Y-62385786D02*
X79392855Y-62600072D01*
X79392855Y-62600072D02*
X79535712Y-62742929D01*
X79535712Y-62742929D02*
X79678569Y-62814358D01*
X78178570Y-63742929D02*
X78107141Y-63814358D01*
X78107141Y-63814358D02*
X78178570Y-63885786D01*
X78178570Y-63885786D02*
X78249998Y-63814358D01*
X78249998Y-63814358D02*
X78178570Y-63742929D01*
X78178570Y-63742929D02*
X78178570Y-63885786D01*
X77535712Y-62528643D02*
X77464284Y-62457215D01*
X77464284Y-62457215D02*
X77321427Y-62385786D01*
X77321427Y-62385786D02*
X76964284Y-62385786D01*
X76964284Y-62385786D02*
X76821427Y-62457215D01*
X76821427Y-62457215D02*
X76749998Y-62528643D01*
X76749998Y-62528643D02*
X76678569Y-62671500D01*
X76678569Y-62671500D02*
X76678569Y-62814358D01*
X76678569Y-62814358D02*
X76749998Y-63028643D01*
X76749998Y-63028643D02*
X77607141Y-63885786D01*
X77607141Y-63885786D02*
X76678569Y-63885786D01*
X74678570Y-62385786D02*
X74678570Y-62742929D01*
X75035713Y-62600072D02*
X74678570Y-62742929D01*
X74678570Y-62742929D02*
X74321427Y-62600072D01*
X74892856Y-63028643D02*
X74678570Y-62742929D01*
X74678570Y-62742929D02*
X74464284Y-63028643D01*
X72178570Y-64457215D02*
X72249999Y-64385786D01*
X72249999Y-64385786D02*
X72392856Y-64171500D01*
X72392856Y-64171500D02*
X72464285Y-64028643D01*
X72464285Y-64028643D02*
X72535713Y-63814358D01*
X72535713Y-63814358D02*
X72607142Y-63457215D01*
X72607142Y-63457215D02*
X72607142Y-63171500D01*
X72607142Y-63171500D02*
X72535713Y-62814358D01*
X72535713Y-62814358D02*
X72464285Y-62600072D01*
X72464285Y-62600072D02*
X72392856Y-62457215D01*
X72392856Y-62457215D02*
X72249999Y-62242929D01*
X72249999Y-62242929D02*
X72178570Y-62171500D01*
X70749999Y-63885786D02*
X71249999Y-63171500D01*
X71607142Y-63885786D02*
X71607142Y-62385786D01*
X71607142Y-62385786D02*
X71035713Y-62385786D01*
X71035713Y-62385786D02*
X70892856Y-62457215D01*
X70892856Y-62457215D02*
X70821427Y-62528643D01*
X70821427Y-62528643D02*
X70749999Y-62671500D01*
X70749999Y-62671500D02*
X70749999Y-62885786D01*
X70749999Y-62885786D02*
X70821427Y-63028643D01*
X70821427Y-63028643D02*
X70892856Y-63100072D01*
X70892856Y-63100072D02*
X71035713Y-63171500D01*
X71035713Y-63171500D02*
X71607142Y-63171500D01*
X69392856Y-62385786D02*
X70107142Y-62385786D01*
X70107142Y-62385786D02*
X70178570Y-63100072D01*
X70178570Y-63100072D02*
X70107142Y-63028643D01*
X70107142Y-63028643D02*
X69964285Y-62957215D01*
X69964285Y-62957215D02*
X69607142Y-62957215D01*
X69607142Y-62957215D02*
X69464285Y-63028643D01*
X69464285Y-63028643D02*
X69392856Y-63100072D01*
X69392856Y-63100072D02*
X69321427Y-63242929D01*
X69321427Y-63242929D02*
X69321427Y-63600072D01*
X69321427Y-63600072D02*
X69392856Y-63742929D01*
X69392856Y-63742929D02*
X69464285Y-63814358D01*
X69464285Y-63814358D02*
X69607142Y-63885786D01*
X69607142Y-63885786D02*
X69964285Y-63885786D01*
X69964285Y-63885786D02*
X70107142Y-63814358D01*
X70107142Y-63814358D02*
X70178570Y-63742929D01*
X67535714Y-63314358D02*
X66392857Y-63314358D01*
X66964285Y-63885786D02*
X66964285Y-62742929D01*
X63678571Y-63885786D02*
X64178571Y-63171500D01*
X64535714Y-63885786D02*
X64535714Y-62385786D01*
X64535714Y-62385786D02*
X63964285Y-62385786D01*
X63964285Y-62385786D02*
X63821428Y-62457215D01*
X63821428Y-62457215D02*
X63749999Y-62528643D01*
X63749999Y-62528643D02*
X63678571Y-62671500D01*
X63678571Y-62671500D02*
X63678571Y-62885786D01*
X63678571Y-62885786D02*
X63749999Y-63028643D01*
X63749999Y-63028643D02*
X63821428Y-63100072D01*
X63821428Y-63100072D02*
X63964285Y-63171500D01*
X63964285Y-63171500D02*
X64535714Y-63171500D01*
X63249999Y-62385786D02*
X62749999Y-63885786D01*
X62749999Y-63885786D02*
X62249999Y-62385786D01*
X61035714Y-62385786D02*
X61750000Y-62385786D01*
X61750000Y-62385786D02*
X61821428Y-63100072D01*
X61821428Y-63100072D02*
X61750000Y-63028643D01*
X61750000Y-63028643D02*
X61607143Y-62957215D01*
X61607143Y-62957215D02*
X61250000Y-62957215D01*
X61250000Y-62957215D02*
X61107143Y-63028643D01*
X61107143Y-63028643D02*
X61035714Y-63100072D01*
X61035714Y-63100072D02*
X60964285Y-63242929D01*
X60964285Y-63242929D02*
X60964285Y-63600072D01*
X60964285Y-63600072D02*
X61035714Y-63742929D01*
X61035714Y-63742929D02*
X61107143Y-63814358D01*
X61107143Y-63814358D02*
X61250000Y-63885786D01*
X61250000Y-63885786D02*
X61607143Y-63885786D01*
X61607143Y-63885786D02*
X61750000Y-63814358D01*
X61750000Y-63814358D02*
X61821428Y-63742929D01*
X60464286Y-64457215D02*
X60392857Y-64385786D01*
X60392857Y-64385786D02*
X60250000Y-64171500D01*
X60250000Y-64171500D02*
X60178572Y-64028643D01*
X60178572Y-64028643D02*
X60107143Y-63814358D01*
X60107143Y-63814358D02*
X60035714Y-63457215D01*
X60035714Y-63457215D02*
X60035714Y-63171500D01*
X60035714Y-63171500D02*
X60107143Y-62814358D01*
X60107143Y-62814358D02*
X60178572Y-62600072D01*
X60178572Y-62600072D02*
X60250000Y-62457215D01*
X60250000Y-62457215D02*
X60392857Y-62242929D01*
X60392857Y-62242929D02*
X60464286Y-62171500D01*
X57107143Y-62314358D02*
X58392857Y-64242929D01*
X54607143Y-63885786D02*
X55107143Y-63171500D01*
X55464286Y-63885786D02*
X55464286Y-62385786D01*
X55464286Y-62385786D02*
X54892857Y-62385786D01*
X54892857Y-62385786D02*
X54750000Y-62457215D01*
X54750000Y-62457215D02*
X54678571Y-62528643D01*
X54678571Y-62528643D02*
X54607143Y-62671500D01*
X54607143Y-62671500D02*
X54607143Y-62885786D01*
X54607143Y-62885786D02*
X54678571Y-63028643D01*
X54678571Y-63028643D02*
X54750000Y-63100072D01*
X54750000Y-63100072D02*
X54892857Y-63171500D01*
X54892857Y-63171500D02*
X55464286Y-63171500D01*
X53321429Y-62885786D02*
X53321429Y-63885786D01*
X53678571Y-62314358D02*
X54035714Y-63385786D01*
X54035714Y-63385786D02*
X53107143Y-63385786D01*
M02*
