M48
; DRILL file {KiCad 8.0.4} date 2025-01-20T11:41:50+0000
; FORMAT={-:-/ absolute / metric / decimal}
; #@! TF.CreationDate,2025-01-20T11:41:50+00:00
; #@! TF.GenerationSoftware,Kicad,Pcbnew,8.0.4
; #@! TF.FileFunction,Plated,1,2,PTH
FMAT,2
METRIC
; #@! TA.AperFunction,Plated,PTH,ViaDrill
T1C0.300
; #@! TA.AperFunction,Plated,PTH,ComponentDrill
T2C0.800
%
G90
G05
T1
X52.49Y-58.16
X55.85Y-55.46
X56.03Y-62.36
X59.6Y-62.32
X60.057Y-66.037
X61.4Y-60.46
X61.55Y-57.5
X62.2Y-68.31
X62.21Y-61.98
X63.0Y-59.6
X63.62Y-64.91
X64.7Y-51.64
X65.9Y-60.359
X66.14Y-64.89
X67.27Y-68.15
X67.72Y-60.88
X67.77Y-58.03
X67.98Y-63.53
X68.52Y-53.83
X70.12Y-55.94
X73.49Y-53.38
X78.8Y-58.0
X82.84Y-58.37
X88.9Y-60.0
X89.54Y-62.7
X90.8Y-54.8
X96.84Y-58.37
T2
X53.36Y-72.0
X55.9Y-72.0
X58.44Y-72.0
X81.62Y-53.9
X81.62Y-70.0
X84.16Y-53.9
X84.16Y-70.0
X86.7Y-53.9
X86.7Y-70.0
X91.46Y-72.0
X94.0Y-72.0
X96.54Y-72.0
M30
