%TF.GenerationSoftware,KiCad,Pcbnew,8.0.4*%
%TF.CreationDate,2025-01-20T11:41:47+00:00*%
%TF.ProjectId,r1283_power,72313238-335f-4706-9f77-65722e6b6963,rev?*%
%TF.SameCoordinates,Original*%
%TF.FileFunction,Copper,L1,Top*%
%TF.FilePolarity,Positive*%
%FSLAX46Y46*%
G04 Gerber Fmt 4.6, Leading zero omitted, Abs format (unit mm)*
G04 Created by KiCad (PCBNEW 8.0.4) date 2025-01-20 11:41:47*
%MOMM*%
%LPD*%
G01*
G04 APERTURE LIST*
G04 Aperture macros list*
%AMRoundRect*
0 Rectangle with rounded corners*
0 $1 Rounding radius*
0 $2 $3 $4 $5 $6 $7 $8 $9 X,Y pos of 4 corners*
0 Add a 4 corners polygon primitive as box body*
4,1,4,$2,$3,$4,$5,$6,$7,$8,$9,$2,$3,0*
0 Add four circle primitives for the rounded corners*
1,1,$1+$1,$2,$3*
1,1,$1+$1,$4,$5*
1,1,$1+$1,$6,$7*
1,1,$1+$1,$8,$9*
0 Add four rect primitives between the rounded corners*
20,1,$1+$1,$2,$3,$4,$5,0*
20,1,$1+$1,$4,$5,$6,$7,0*
20,1,$1+$1,$6,$7,$8,$9,0*
20,1,$1+$1,$8,$9,$2,$3,0*%
%AMFreePoly0*
4,1,19,0.500000,-0.750000,0.000000,-0.750000,0.000000,-0.744911,-0.071157,-0.744911,-0.207708,-0.704816,-0.327430,-0.627875,-0.420627,-0.520320,-0.479746,-0.390866,-0.500000,-0.250000,-0.500000,0.250000,-0.479746,0.390866,-0.420627,0.520320,-0.327430,0.627875,-0.207708,0.704816,-0.071157,0.744911,0.000000,0.744911,0.000000,0.750000,0.500000,0.750000,0.500000,-0.750000,0.500000,-0.750000,
$1*%
%AMFreePoly1*
4,1,19,0.000000,0.744911,0.071157,0.744911,0.207708,0.704816,0.327430,0.627875,0.420627,0.520320,0.479746,0.390866,0.500000,0.250000,0.500000,-0.250000,0.479746,-0.390866,0.420627,-0.520320,0.327430,-0.627875,0.207708,-0.704816,0.071157,-0.744911,0.000000,-0.744911,0.000000,-0.750000,-0.500000,-0.750000,-0.500000,0.750000,0.000000,0.750000,0.000000,0.744911,0.000000,0.744911,
$1*%
G04 Aperture macros list end*
%TA.AperFunction,SMDPad,CuDef*%
%ADD10RoundRect,0.062500X0.362500X0.062500X-0.362500X0.062500X-0.362500X-0.062500X0.362500X-0.062500X0*%
%TD*%
%TA.AperFunction,HeatsinkPad*%
%ADD11R,1.600000X2.500000*%
%TD*%
%TA.AperFunction,SMDPad,CuDef*%
%ADD12RoundRect,0.250000X1.500000X0.650000X-1.500000X0.650000X-1.500000X-0.650000X1.500000X-0.650000X0*%
%TD*%
%TA.AperFunction,SMDPad,CuDef*%
%ADD13RoundRect,0.250000X-0.350000X-0.450000X0.350000X-0.450000X0.350000X0.450000X-0.350000X0.450000X0*%
%TD*%
%TA.AperFunction,ComponentPad*%
%ADD14C,1.440000*%
%TD*%
%TA.AperFunction,SMDPad,CuDef*%
%ADD15RoundRect,0.250000X-0.475000X0.337500X-0.475000X-0.337500X0.475000X-0.337500X0.475000X0.337500X0*%
%TD*%
%TA.AperFunction,SMDPad,CuDef*%
%ADD16FreePoly0,180.000000*%
%TD*%
%TA.AperFunction,SMDPad,CuDef*%
%ADD17FreePoly1,180.000000*%
%TD*%
%TA.AperFunction,SMDPad,CuDef*%
%ADD18RoundRect,0.250000X0.350000X0.450000X-0.350000X0.450000X-0.350000X-0.450000X0.350000X-0.450000X0*%
%TD*%
%TA.AperFunction,SMDPad,CuDef*%
%ADD19RoundRect,0.250000X-1.500000X-0.650000X1.500000X-0.650000X1.500000X0.650000X-1.500000X0.650000X0*%
%TD*%
%TA.AperFunction,SMDPad,CuDef*%
%ADD20RoundRect,0.250000X0.450000X-0.350000X0.450000X0.350000X-0.450000X0.350000X-0.450000X-0.350000X0*%
%TD*%
%TA.AperFunction,SMDPad,CuDef*%
%ADD21R,1.600000X1.900000*%
%TD*%
%TA.AperFunction,SMDPad,CuDef*%
%ADD22RoundRect,0.250000X-0.337500X-0.475000X0.337500X-0.475000X0.337500X0.475000X-0.337500X0.475000X0*%
%TD*%
%TA.AperFunction,SMDPad,CuDef*%
%ADD23RoundRect,0.250000X0.337500X0.475000X-0.337500X0.475000X-0.337500X-0.475000X0.337500X-0.475000X0*%
%TD*%
%TA.AperFunction,ComponentPad*%
%ADD24RoundRect,0.250000X-0.500000X-1.750000X0.500000X-1.750000X0.500000X1.750000X-0.500000X1.750000X0*%
%TD*%
%TA.AperFunction,ComponentPad*%
%ADD25RoundRect,0.250000X0.500000X1.750000X-0.500000X1.750000X-0.500000X-1.750000X0.500000X-1.750000X0*%
%TD*%
%TA.AperFunction,ViaPad*%
%ADD26C,0.600000*%
%TD*%
%TA.AperFunction,Conductor*%
%ADD27C,0.750000*%
%TD*%
%TA.AperFunction,Conductor*%
%ADD28C,0.250000*%
%TD*%
%TA.AperFunction,Conductor*%
%ADD29C,0.200000*%
%TD*%
G04 APERTURE END LIST*
D10*
%TO.P,U1,1,NC*%
%TO.N,unconnected-(U1-NC-Pad1)*%
X66425000Y-63750000D03*
%TO.P,U1,2,Lx1*%
%TO.N,/Lx1*%
X66425000Y-63250000D03*
%TO.P,U1,3,Lx2*%
%TO.N,/Lx2*%
X66425000Y-62750000D03*
%TO.P,U1,4,VOutN*%
%TO.N,/VOUT_NEG*%
X66425000Y-62250000D03*
%TO.P,U1,5,CE*%
%TO.N,/ENABLE*%
X66425000Y-61750000D03*
%TO.P,U1,6,Vfb2*%
%TO.N,Net-(JP2-A)*%
X66425000Y-61250000D03*
%TO.P,U1,7,Vref*%
%TO.N,Net-(U1-Vref)*%
X63575000Y-61250000D03*
%TO.P,U1,8,Vcc*%
%TO.N,+5V*%
X63575000Y-61750000D03*
%TO.P,U1,9,Vfb1*%
%TO.N,Net-(JP1-A)*%
X63575000Y-62250000D03*
%TO.P,U1,10,GND*%
%TO.N,GND1*%
X63575000Y-62750000D03*
%TO.P,U1,11,PVcc*%
%TO.N,+5V*%
X63575000Y-63250000D03*
%TO.P,U1,12,PGND*%
%TO.N,GND1*%
X63575000Y-63750000D03*
D11*
%TO.P,U1,13,GND_(EP)*%
X65000000Y-62500000D03*
%TD*%
D12*
%TO.P,D1,1,K*%
%TO.N,/VOUT_POS*%
X76000000Y-58000000D03*
%TO.P,D1,2,A*%
%TO.N,/Lx1*%
X71000000Y-58000000D03*
%TD*%
D13*
%TO.P,R5,1*%
%TO.N,/VOUT_NEG*%
X85000000Y-65000000D03*
%TO.P,R5,2*%
%TO.N,Net-(JP2-B)*%
X87000000Y-65000000D03*
%TD*%
D14*
%TO.P,RV2,1,1*%
%TO.N,Net-(JP1-A)*%
X86700000Y-53900000D03*
%TO.P,RV2,2,2*%
X84160000Y-53900000D03*
%TO.P,RV2,3,3*%
%TO.N,Net-(JP1-B)*%
X81620000Y-53900000D03*
%TD*%
D15*
%TO.P,C1,1*%
%TO.N,+5V*%
X58000000Y-63962500D03*
%TO.P,C1,2*%
%TO.N,GND1*%
X58000000Y-66037500D03*
%TD*%
D16*
%TO.P,JP2,1,A*%
%TO.N,Net-(JP2-A)*%
X83540000Y-68100000D03*
D17*
%TO.P,JP2,2,B*%
%TO.N,Net-(JP2-B)*%
X82240000Y-68100000D03*
%TD*%
D18*
%TO.P,R2,1*%
%TO.N,/VOUT_POS*%
X77000000Y-53900000D03*
%TO.P,R2,2*%
%TO.N,Net-(JP1-B)*%
X75000000Y-53900000D03*
%TD*%
D19*
%TO.P,D2,1,K*%
%TO.N,/Lx2*%
X71000000Y-67000000D03*
%TO.P,D2,2,A*%
%TO.N,/VOUT_NEG*%
X76000000Y-67000000D03*
%TD*%
D20*
%TO.P,R7,1*%
%TO.N,+5V*%
X55000000Y-66000000D03*
%TO.P,R7,2*%
%TO.N,/ENABLE*%
X55000000Y-64000000D03*
%TD*%
D21*
%TO.P,L2,1,1*%
%TO.N,/Lx2*%
X65000000Y-66950000D03*
%TO.P,L2,2,2*%
%TO.N,GND1*%
X65000000Y-71050000D03*
%TD*%
D13*
%TO.P,R1,1*%
%TO.N,Net-(JP1-A)*%
X85000000Y-60000000D03*
%TO.P,R1,2*%
%TO.N,GND1*%
X87000000Y-60000000D03*
%TD*%
%TO.P,R4,1*%
%TO.N,Net-(JP2-A)*%
X70000000Y-70940000D03*
%TO.P,R4,2*%
%TO.N,Net-(U1-Vref)*%
X72000000Y-70940000D03*
%TD*%
%TO.P,R6,1*%
%TO.N,/VOUT_NEG*%
X80000000Y-65000000D03*
%TO.P,R6,2*%
%TO.N,Net-(C6-Pad1)*%
X82000000Y-65000000D03*
%TD*%
D16*
%TO.P,JP1,1,A*%
%TO.N,Net-(JP1-A)*%
X83540000Y-52000000D03*
D17*
%TO.P,JP1,2,B*%
%TO.N,Net-(JP1-B)*%
X82240000Y-52000000D03*
%TD*%
D21*
%TO.P,L1,1,1*%
%TO.N,+5V*%
X65000000Y-53950000D03*
%TO.P,L1,2,2*%
%TO.N,/Lx1*%
X65000000Y-58050000D03*
%TD*%
D15*
%TO.P,C4,1*%
%TO.N,Net-(U1-Vref)*%
X58000000Y-58962500D03*
%TO.P,C4,2*%
%TO.N,GND1*%
X58000000Y-61037500D03*
%TD*%
D22*
%TO.P,C3,1*%
%TO.N,/VOUT_NEG*%
X89962500Y-65000000D03*
%TO.P,C3,2*%
%TO.N,GND1*%
X92037500Y-65000000D03*
%TD*%
%TO.P,C5,1*%
%TO.N,Net-(C5-Pad1)*%
X69962500Y-53820000D03*
%TO.P,C5,2*%
%TO.N,Net-(JP1-A)*%
X72037500Y-53820000D03*
%TD*%
D14*
%TO.P,RV5,1,1*%
%TO.N,Net-(JP2-A)*%
X86700000Y-70000000D03*
%TO.P,RV5,2,2*%
X84160000Y-70000000D03*
%TO.P,RV5,3,3*%
%TO.N,Net-(JP2-B)*%
X81620000Y-70000000D03*
%TD*%
D23*
%TO.P,C7,1*%
%TO.N,/VOUT_POS*%
X97037500Y-65000000D03*
%TO.P,C7,2*%
%TO.N,GND1*%
X94962500Y-65000000D03*
%TD*%
D13*
%TO.P,R3,1*%
%TO.N,/VOUT_POS*%
X80000000Y-60000000D03*
%TO.P,R3,2*%
%TO.N,Net-(C5-Pad1)*%
X82000000Y-60000000D03*
%TD*%
D23*
%TO.P,C2,1*%
%TO.N,/VOUT_POS*%
X97037500Y-62000000D03*
%TO.P,C2,2*%
%TO.N,GND1*%
X94962500Y-62000000D03*
%TD*%
D22*
%TO.P,C6,1*%
%TO.N,Net-(C6-Pad1)*%
X74962500Y-70860000D03*
%TO.P,C6,2*%
%TO.N,Net-(JP2-A)*%
X77037500Y-70860000D03*
%TD*%
D24*
%TO.P,J1,1,Pin_1*%
%TO.N,+5V*%
X53360000Y-72000000D03*
%TO.P,J1,2,Pin_2*%
%TO.N,/ENABLE*%
X55900000Y-72000000D03*
%TO.P,J1,3,Pin_3*%
%TO.N,GND1*%
X58440000Y-72000000D03*
%TD*%
D25*
%TO.P,J2,1,Pin_1*%
%TO.N,/VOUT_POS*%
X96540000Y-72000000D03*
%TO.P,J2,2,Pin_2*%
%TO.N,GND1*%
X94000000Y-72000000D03*
%TO.P,J2,3,Pin_3*%
%TO.N,/VOUT_NEG*%
X91460000Y-72000000D03*
%TD*%
D26*
%TO.N,GND1*%
X64700000Y-51640000D03*
X70120000Y-55940000D03*
X61550000Y-57500000D03*
%TO.N,Net-(JP1-A)*%
X73490000Y-53380000D03*
%TO.N,GND1*%
X66140000Y-64890000D03*
X63620000Y-64910000D03*
X82840000Y-58370000D03*
%TO.N,Net-(C5-Pad1)*%
X78800000Y-58000000D03*
X68520000Y-53830000D03*
%TO.N,Net-(JP2-A)*%
X65900000Y-60359265D03*
X67270000Y-68150000D03*
%TO.N,Net-(JP1-A)*%
X62210000Y-61980000D03*
X63000000Y-59600000D03*
%TO.N,Net-(U1-Vref)*%
X61400000Y-60460000D03*
X62200000Y-68310000D03*
%TO.N,/Lx1*%
X67770000Y-58030000D03*
X67980000Y-63530000D03*
%TO.N,/ENABLE*%
X56030000Y-62360000D03*
X67720000Y-60880000D03*
%TO.N,GND1*%
X96840000Y-58370000D03*
X89540000Y-62700000D03*
X55850000Y-55460000D03*
X52490000Y-58160000D03*
X60057500Y-66037500D03*
X88900000Y-60000000D03*
X59600000Y-62320000D03*
X90800000Y-54800000D03*
%TD*%
D27*
%TO.N,/VOUT_NEG*%
X79980000Y-63105000D02*
X72105000Y-63105000D01*
X72105000Y-63105000D02*
X70790000Y-61790000D01*
X70790000Y-61790000D02*
X68240000Y-61790000D01*
X76000000Y-67000000D02*
X76000000Y-63445000D01*
X76000000Y-63445000D02*
X75660000Y-63105000D01*
D28*
%TO.N,Net-(JP2-A)*%
X77037500Y-70860000D02*
X77607500Y-71430000D01*
X82730000Y-71430000D02*
X84160000Y-70000000D01*
X77607500Y-71430000D02*
X82730000Y-71430000D01*
D29*
X84160000Y-70000000D02*
X86700000Y-70000000D01*
X84160000Y-70000000D02*
X84160000Y-68720000D01*
X84160000Y-68720000D02*
X83540000Y-68100000D01*
%TO.N,Net-(JP2-B)*%
X82240000Y-68100000D02*
X82240000Y-67345000D01*
X82240000Y-67345000D02*
X83535000Y-66050000D01*
X83535000Y-66050000D02*
X85950000Y-66050000D01*
X85950000Y-66050000D02*
X87000000Y-65000000D01*
X81620000Y-70000000D02*
X81620000Y-68720000D01*
X81620000Y-68720000D02*
X82240000Y-68100000D01*
%TO.N,Net-(JP1-B)*%
X81620000Y-53900000D02*
X80570000Y-52850000D01*
X80570000Y-52850000D02*
X76050000Y-52850000D01*
X76050000Y-52850000D02*
X75000000Y-53900000D01*
X81620000Y-53900000D02*
X81620000Y-52620000D01*
X81620000Y-52620000D02*
X82240000Y-52000000D01*
D28*
%TO.N,Net-(JP1-A)*%
X84160000Y-53900000D02*
X84160000Y-52620000D01*
X84160000Y-52620000D02*
X83540000Y-52000000D01*
X73050000Y-53820000D02*
X73490000Y-53380000D01*
X72037500Y-53820000D02*
X73050000Y-53820000D01*
X84160000Y-53900000D02*
X86700000Y-53900000D01*
D27*
%TO.N,GND1*%
X65000000Y-62500000D02*
X65000000Y-64230000D01*
X65000000Y-64230000D02*
X64320000Y-64910000D01*
X64320000Y-64910000D02*
X63620000Y-64910000D01*
X63620000Y-64910000D02*
X66120000Y-64910000D01*
X66120000Y-64910000D02*
X66140000Y-64890000D01*
X61287500Y-66037500D02*
X62412500Y-64912500D01*
X62412500Y-64912500D02*
X62890000Y-64435000D01*
X63620000Y-64910000D02*
X62415000Y-64910000D01*
X62415000Y-64910000D02*
X62412500Y-64912500D01*
%TO.N,+5V*%
X61557500Y-63962500D02*
X58000000Y-63962500D01*
X55000000Y-66000000D02*
X54240000Y-66000000D01*
X53390000Y-71970000D02*
X53360000Y-72000000D01*
D28*
X58590810Y-59925000D02*
X57155000Y-59925000D01*
D27*
X62030000Y-63490000D02*
X61557500Y-63962500D01*
X60955636Y-53950000D02*
X65000000Y-53950000D01*
X53390000Y-66850000D02*
X53390000Y-71970000D01*
D28*
X63575000Y-63250000D02*
X62270000Y-63250000D01*
D27*
X55962500Y-66000000D02*
X58000000Y-63962500D01*
X55000000Y-66000000D02*
X55962500Y-66000000D01*
X53390000Y-61515636D02*
X53390000Y-66850000D01*
X54240000Y-66000000D02*
X53390000Y-66850000D01*
X56067818Y-58837818D02*
X53390000Y-61515636D01*
D28*
X63575000Y-61750000D02*
X63029548Y-61750000D01*
X62270000Y-63250000D02*
X62030000Y-63490000D01*
X63029548Y-61750000D02*
X62569548Y-61290000D01*
X59955810Y-61290000D02*
X58590810Y-59925000D01*
D27*
X56067818Y-58837818D02*
X60955636Y-53950000D01*
D28*
X57155000Y-59925000D02*
X56067818Y-58837818D01*
X62569548Y-61290000D02*
X59955810Y-61290000D01*
D27*
%TO.N,/VOUT_POS*%
X92130000Y-61470000D02*
X93500000Y-60100000D01*
X78550000Y-61470000D02*
X80010000Y-61470000D01*
X96540000Y-68300000D02*
X96540000Y-72000000D01*
X80010000Y-61470000D02*
X92130000Y-61470000D01*
X80000000Y-61460000D02*
X80010000Y-61470000D01*
X78520000Y-61440000D02*
X78550000Y-61470000D01*
D28*
X77000000Y-57000000D02*
X76000000Y-58000000D01*
D27*
X80000000Y-60000000D02*
X80000000Y-61460000D01*
X76000000Y-58000000D02*
X78520000Y-60520000D01*
X97037500Y-61137500D02*
X97037500Y-62000000D01*
X96000000Y-60100000D02*
X97037500Y-61137500D01*
D28*
X77000000Y-53900000D02*
X77000000Y-57000000D01*
D27*
X97037500Y-62000000D02*
X97037500Y-65000000D01*
X93500000Y-60100000D02*
X96000000Y-60100000D01*
X78520000Y-60520000D02*
X78520000Y-61440000D01*
X97037500Y-67802500D02*
X96540000Y-68300000D01*
X97037500Y-65000000D02*
X97037500Y-67802500D01*
D28*
%TO.N,Net-(C5-Pad1)*%
X80765000Y-58765000D02*
X82000000Y-60000000D01*
X79565000Y-58765000D02*
X80765000Y-58765000D01*
X78800000Y-58000000D02*
X79565000Y-58765000D01*
X68530000Y-53820000D02*
X68520000Y-53830000D01*
X69962500Y-53820000D02*
X68530000Y-53820000D01*
X68510000Y-53820000D02*
X68490000Y-53820000D01*
X68520000Y-53830000D02*
X68510000Y-53820000D01*
%TO.N,Net-(JP2-A)*%
X73670000Y-71200100D02*
X73670000Y-70860000D01*
X73670000Y-70860000D02*
X72720000Y-69910000D01*
X71030000Y-69910000D02*
X70000000Y-70940000D01*
X77037500Y-70860000D02*
X77240000Y-70860000D01*
X67270000Y-68210000D02*
X70000000Y-70940000D01*
X67270000Y-68150000D02*
X67270000Y-68210000D01*
X65900000Y-60725000D02*
X66425000Y-61250000D01*
X65900000Y-60359265D02*
X65900000Y-60725000D01*
X75987500Y-71910000D02*
X74379900Y-71910000D01*
X72720000Y-69910000D02*
X71030000Y-69910000D01*
X74379900Y-71910000D02*
X73670000Y-71200100D01*
X77037500Y-70860000D02*
X75987500Y-71910000D01*
D27*
%TO.N,/VOUT_NEG*%
X79980000Y-63105000D02*
X84880000Y-63105000D01*
X85000000Y-65000000D02*
X85000000Y-63225000D01*
X80000000Y-63125000D02*
X79980000Y-63105000D01*
D28*
X66425000Y-62250000D02*
X67780000Y-62250000D01*
X67780000Y-62250000D02*
X68240000Y-61790000D01*
D27*
X88067500Y-63105000D02*
X89962500Y-65000000D01*
X89962500Y-67000000D02*
X91460000Y-68497500D01*
X84880000Y-63105000D02*
X88067500Y-63105000D01*
X89962500Y-65000000D02*
X89962500Y-67000000D01*
X80000000Y-65000000D02*
X80000000Y-63125000D01*
X85000000Y-63225000D02*
X84880000Y-63105000D01*
X91460000Y-68497500D02*
X91460000Y-72000000D01*
D28*
%TO.N,Net-(JP1-A)*%
X62210000Y-61970000D02*
X62250000Y-62010000D01*
X63575000Y-62250000D02*
X62530000Y-62250000D01*
X84160000Y-59160000D02*
X85000000Y-60000000D01*
X62210000Y-61980000D02*
X62210000Y-61970000D01*
X62490000Y-62250000D02*
X62220000Y-61980000D01*
X84160000Y-53900000D02*
X84160000Y-59160000D01*
X62530000Y-62250000D02*
X62490000Y-62250000D01*
X62220000Y-61980000D02*
X62210000Y-61980000D01*
%TO.N,Net-(C6-Pad1)*%
X79965810Y-66075000D02*
X80925000Y-66075000D01*
X80925000Y-66075000D02*
X82000000Y-65000000D01*
X75180810Y-70860000D02*
X79965810Y-66075000D01*
X74962500Y-70860000D02*
X75180810Y-70860000D01*
%TO.N,Net-(U1-Vref)*%
X68721116Y-71965000D02*
X70975000Y-71965000D01*
X62200000Y-68310000D02*
X65066116Y-68310000D01*
D29*
X58000000Y-58962500D02*
X61287500Y-58962500D01*
D28*
X65066116Y-68310000D02*
X68721116Y-71965000D01*
D29*
X62795000Y-60470000D02*
X63575000Y-61250000D01*
X61400000Y-59075000D02*
X61400000Y-60460000D01*
D28*
X70975000Y-71965000D02*
X72000000Y-70940000D01*
D29*
X61287500Y-58962500D02*
X61400000Y-59075000D01*
X61400000Y-60460000D02*
X61400000Y-60470000D01*
X61400000Y-60470000D02*
X62795000Y-60470000D01*
D28*
%TO.N,/Lx1*%
X66425000Y-63250000D02*
X67700000Y-63250000D01*
D27*
X67750000Y-58050000D02*
X67770000Y-58030000D01*
X67790000Y-58050000D02*
X70950000Y-58050000D01*
X70950000Y-58050000D02*
X71000000Y-58000000D01*
X65000000Y-58050000D02*
X67750000Y-58050000D01*
D28*
X67700000Y-63250000D02*
X67980000Y-63530000D01*
D27*
X67770000Y-58030000D02*
X67790000Y-58050000D01*
%TO.N,/Lx2*%
X71000000Y-65241852D02*
X68559074Y-62800926D01*
X65000000Y-66950000D02*
X70950000Y-66950000D01*
D28*
X68490000Y-62750000D02*
X68550000Y-62810000D01*
D27*
X71000000Y-67000000D02*
X71000000Y-65241852D01*
D28*
X66425000Y-62750000D02*
X68490000Y-62750000D01*
D27*
X70950000Y-66950000D02*
X71000000Y-67000000D01*
D29*
%TO.N,/ENABLE*%
X67720000Y-60894386D02*
X66864386Y-61750000D01*
X66864386Y-61750000D02*
X66425000Y-61750000D01*
X55000000Y-63390000D02*
X56030000Y-62360000D01*
X55000000Y-64000000D02*
X55000000Y-63390000D01*
X67720000Y-60880000D02*
X67720000Y-60894386D01*
D27*
%TO.N,GND1*%
X92037500Y-66000000D02*
X94000000Y-67962500D01*
D28*
X63575000Y-63750000D02*
X62890000Y-64435000D01*
D27*
X94262500Y-62700000D02*
X94962500Y-62000000D01*
X59600000Y-62310000D02*
X59600000Y-62320000D01*
X58440000Y-67960000D02*
X58440000Y-66477500D01*
D28*
X62350660Y-62750000D02*
X62340660Y-62740000D01*
D27*
X58000000Y-61037500D02*
X58327500Y-61037500D01*
X58440000Y-71900000D02*
X58440000Y-67960000D01*
X94000000Y-72000000D02*
X94000000Y-67962500D01*
D28*
X63575000Y-62750000D02*
X62350660Y-62750000D01*
D27*
X59600000Y-62320000D02*
X59610000Y-62320000D01*
X59610000Y-62320000D02*
X60030000Y-62740000D01*
X65000000Y-71050000D02*
X61730000Y-71050000D01*
X94962500Y-65000000D02*
X94962500Y-63400000D01*
D28*
X62340660Y-62740000D02*
X61330000Y-62740000D01*
D27*
X60462500Y-66037500D02*
X61287500Y-66037500D01*
X61730000Y-71050000D02*
X59250000Y-68570000D01*
X89540000Y-62700000D02*
X94262500Y-62700000D01*
X94962500Y-63400000D02*
X94262500Y-62700000D01*
X58327500Y-61037500D02*
X59600000Y-62310000D01*
X92037500Y-65000000D02*
X92037500Y-66000000D01*
X88900000Y-60000000D02*
X87000000Y-60000000D01*
X58440000Y-66477500D02*
X58000000Y-66037500D01*
X59250000Y-68570000D02*
X58440000Y-68570000D01*
X60057500Y-66037500D02*
X58000000Y-66037500D01*
X60030000Y-62740000D02*
X61330000Y-62740000D01*
X60057500Y-66037500D02*
X60457500Y-66037500D01*
D28*
%TO.N,Net-(JP1-A)*%
X63080000Y-59520000D02*
X72520810Y-59520000D01*
X63000000Y-59600000D02*
X63080000Y-59520000D01*
X72520810Y-59520000D02*
X73420000Y-58620810D01*
X73420000Y-58620810D02*
X73420000Y-55202500D01*
X73420000Y-55202500D02*
X72037500Y-53820000D01*
%TD*%
%TA.AperFunction,Conductor*%
%TO.N,GND1*%
G36*
X82198461Y-50520185D02*
G01*
X82244216Y-50572989D01*
X82254160Y-50642147D01*
X82225135Y-50705703D01*
X82166357Y-50743477D01*
X82149071Y-50747237D01*
X82098001Y-50754580D01*
X82025701Y-50764975D01*
X82025691Y-50764977D01*
X81887741Y-50805483D01*
X81756863Y-50865252D01*
X81756861Y-50865254D01*
X81641523Y-50939376D01*
X81640083Y-50940196D01*
X81635901Y-50942988D01*
X81527169Y-51037207D01*
X81527166Y-51037210D01*
X81433018Y-51145864D01*
X81433015Y-51145867D01*
X81355231Y-51266905D01*
X81355223Y-51266918D01*
X81298263Y-51391643D01*
X81296015Y-51395939D01*
X81254966Y-51535738D01*
X81254965Y-51535744D01*
X81234503Y-51678059D01*
X81234503Y-51734399D01*
X81234500Y-51734409D01*
X81234500Y-52104902D01*
X81214815Y-52171941D01*
X81198181Y-52192583D01*
X81139481Y-52251282D01*
X81139477Y-52251287D01*
X81100108Y-52319477D01*
X81049541Y-52367693D01*
X80980934Y-52380915D01*
X80930722Y-52364865D01*
X80856374Y-52321941D01*
X80851904Y-52319360D01*
X80851904Y-52319359D01*
X80851900Y-52319358D01*
X80801785Y-52290423D01*
X80649057Y-52249499D01*
X80490943Y-52249499D01*
X80483347Y-52249499D01*
X80483331Y-52249500D01*
X76129057Y-52249500D01*
X75970942Y-52249500D01*
X75818215Y-52290423D01*
X75818214Y-52290423D01*
X75818212Y-52290424D01*
X75818209Y-52290425D01*
X75768096Y-52319359D01*
X75768095Y-52319360D01*
X75724689Y-52344420D01*
X75681285Y-52369479D01*
X75681282Y-52369481D01*
X75569478Y-52481286D01*
X75387582Y-52663181D01*
X75326259Y-52696666D01*
X75299901Y-52699500D01*
X74599998Y-52699500D01*
X74599980Y-52699501D01*
X74497203Y-52710000D01*
X74497200Y-52710001D01*
X74330668Y-52765185D01*
X74330659Y-52765189D01*
X74214088Y-52837091D01*
X74146696Y-52855531D01*
X74080032Y-52834608D01*
X74061311Y-52819233D01*
X73992262Y-52750184D01*
X73839523Y-52654211D01*
X73669254Y-52594631D01*
X73669249Y-52594630D01*
X73490004Y-52574435D01*
X73489996Y-52574435D01*
X73310750Y-52594630D01*
X73310745Y-52594631D01*
X73140476Y-52654211D01*
X73011910Y-52734995D01*
X72990067Y-52748721D01*
X72981842Y-52753889D01*
X72980444Y-52751665D01*
X72926881Y-52773518D01*
X72858189Y-52760747D01*
X72849187Y-52755699D01*
X72694340Y-52660189D01*
X72694335Y-52660187D01*
X72694334Y-52660186D01*
X72527797Y-52605001D01*
X72527795Y-52605000D01*
X72425010Y-52594500D01*
X71649998Y-52594500D01*
X71649980Y-52594501D01*
X71547203Y-52605000D01*
X71547200Y-52605001D01*
X71380668Y-52660185D01*
X71380663Y-52660187D01*
X71231342Y-52752289D01*
X71107285Y-52876346D01*
X71105537Y-52879182D01*
X71103829Y-52880717D01*
X71102807Y-52882011D01*
X71102585Y-52881836D01*
X71053589Y-52925905D01*
X70984626Y-52937126D01*
X70920544Y-52909282D01*
X70894463Y-52879182D01*
X70892714Y-52876346D01*
X70768657Y-52752289D01*
X70768656Y-52752288D01*
X70619334Y-52660186D01*
X70452797Y-52605001D01*
X70452795Y-52605000D01*
X70350010Y-52594500D01*
X69574998Y-52594500D01*
X69574980Y-52594501D01*
X69472203Y-52605000D01*
X69472200Y-52605001D01*
X69305668Y-52660185D01*
X69305663Y-52660187D01*
X69156342Y-52752289D01*
X69032288Y-52876343D01*
X69032285Y-52876347D01*
X68940151Y-53025720D01*
X68888203Y-53072445D01*
X68819241Y-53083666D01*
X68793658Y-53077665D01*
X68699254Y-53044631D01*
X68699249Y-53044630D01*
X68520004Y-53024435D01*
X68519996Y-53024435D01*
X68340750Y-53044630D01*
X68340745Y-53044631D01*
X68170476Y-53104211D01*
X68017737Y-53200184D01*
X67890184Y-53327737D01*
X67794211Y-53480476D01*
X67734631Y-53650745D01*
X67734630Y-53650750D01*
X67714435Y-53829996D01*
X67714435Y-53830003D01*
X67734630Y-54009249D01*
X67734631Y-54009254D01*
X67794211Y-54179523D01*
X67846855Y-54263305D01*
X67890184Y-54332262D01*
X68017738Y-54459816D01*
X68170478Y-54555789D01*
X68235031Y-54578377D01*
X68340745Y-54615368D01*
X68340750Y-54615369D01*
X68519996Y-54635565D01*
X68520000Y-54635565D01*
X68520004Y-54635565D01*
X68699249Y-54615369D01*
X68699251Y-54615368D01*
X68699255Y-54615368D01*
X68803806Y-54578783D01*
X68873582Y-54575221D01*
X68934209Y-54609949D01*
X68950297Y-54630726D01*
X69032288Y-54763656D01*
X69156344Y-54887712D01*
X69305666Y-54979814D01*
X69472203Y-55034999D01*
X69574991Y-55045500D01*
X70350008Y-55045499D01*
X70350016Y-55045498D01*
X70350019Y-55045498D01*
X70406302Y-55039748D01*
X70452797Y-55034999D01*
X70619334Y-54979814D01*
X70768656Y-54887712D01*
X70892712Y-54763656D01*
X70894461Y-54760819D01*
X70896169Y-54759283D01*
X70897193Y-54757989D01*
X70897414Y-54758163D01*
X70946406Y-54714096D01*
X71015368Y-54702872D01*
X71079451Y-54730713D01*
X71105537Y-54760817D01*
X71107288Y-54763656D01*
X71231344Y-54887712D01*
X71380666Y-54979814D01*
X71547203Y-55034999D01*
X71649991Y-55045500D01*
X72327047Y-55045499D01*
X72394086Y-55065183D01*
X72414728Y-55081818D01*
X72758181Y-55425271D01*
X72791666Y-55486594D01*
X72794500Y-55512952D01*
X72794500Y-56487164D01*
X72774815Y-56554203D01*
X72722011Y-56599958D01*
X72657897Y-56610522D01*
X72550010Y-56599500D01*
X69449998Y-56599500D01*
X69449981Y-56599501D01*
X69347203Y-56610000D01*
X69347200Y-56610001D01*
X69180668Y-56665185D01*
X69180663Y-56665187D01*
X69031342Y-56757289D01*
X68907289Y-56881342D01*
X68815187Y-57030663D01*
X68815186Y-57030666D01*
X68795689Y-57089505D01*
X68755916Y-57146949D01*
X68691400Y-57173772D01*
X68677983Y-57174500D01*
X67968987Y-57174500D01*
X67944796Y-57172117D01*
X67904760Y-57164153D01*
X67856230Y-57154500D01*
X67856229Y-57154500D01*
X67683771Y-57154500D01*
X67683770Y-57154500D01*
X67635239Y-57164153D01*
X67595203Y-57172117D01*
X67571013Y-57174500D01*
X66424499Y-57174500D01*
X66357460Y-57154815D01*
X66311705Y-57102011D01*
X66301562Y-57055388D01*
X66300900Y-57055423D01*
X66300854Y-57055429D01*
X66300853Y-57055426D01*
X66300676Y-57055436D01*
X66300499Y-57052135D01*
X66300499Y-57052128D01*
X66294091Y-56992517D01*
X66252625Y-56881342D01*
X66243797Y-56857671D01*
X66243793Y-56857664D01*
X66157547Y-56742455D01*
X66157544Y-56742452D01*
X66042335Y-56656206D01*
X66042328Y-56656202D01*
X65907482Y-56605908D01*
X65907483Y-56605908D01*
X65847883Y-56599501D01*
X65847881Y-56599500D01*
X65847873Y-56599500D01*
X65847864Y-56599500D01*
X64152129Y-56599500D01*
X64152123Y-56599501D01*
X64092516Y-56605908D01*
X63957671Y-56656202D01*
X63957664Y-56656206D01*
X63842455Y-56742452D01*
X63842452Y-56742455D01*
X63756206Y-56857664D01*
X63756202Y-56857671D01*
X63705908Y-56992517D01*
X63701807Y-57030666D01*
X63699500Y-57052127D01*
X63699500Y-57941620D01*
X63699501Y-58770500D01*
X63679816Y-58837539D01*
X63627013Y-58883294D01*
X63575501Y-58894500D01*
X63417536Y-58894500D01*
X63356012Y-58876776D01*
X63355794Y-58877231D01*
X63353119Y-58875942D01*
X63351568Y-58875496D01*
X63349521Y-58874210D01*
X63179262Y-58814633D01*
X63179249Y-58814630D01*
X63000004Y-58794435D01*
X62999996Y-58794435D01*
X62820750Y-58814630D01*
X62820745Y-58814631D01*
X62650476Y-58874211D01*
X62497737Y-58970184D01*
X62370184Y-59097737D01*
X62274209Y-59250480D01*
X62241541Y-59343840D01*
X62200820Y-59400616D01*
X62135867Y-59426363D01*
X62067305Y-59412907D01*
X62016903Y-59364519D01*
X62000500Y-59302885D01*
X62000500Y-59164059D01*
X62000501Y-59164046D01*
X62000501Y-58995945D01*
X62000501Y-58995943D01*
X61959577Y-58843215D01*
X61909101Y-58755789D01*
X61880520Y-58706284D01*
X61768716Y-58594480D01*
X61768715Y-58594479D01*
X61764385Y-58590149D01*
X61764385Y-58590148D01*
X61764380Y-58590144D01*
X61656217Y-58481981D01*
X61656216Y-58481980D01*
X61569404Y-58431860D01*
X61569404Y-58431859D01*
X61569400Y-58431858D01*
X61519285Y-58402923D01*
X61366557Y-58361999D01*
X61208443Y-58361999D01*
X61200847Y-58361999D01*
X61200831Y-58362000D01*
X59263768Y-58362000D01*
X59196729Y-58342315D01*
X59158229Y-58303097D01*
X59067712Y-58156344D01*
X58943656Y-58032288D01*
X58794334Y-57940186D01*
X58627797Y-57885001D01*
X58627794Y-57885000D01*
X58552579Y-57877316D01*
X58487887Y-57850919D01*
X58447736Y-57793738D01*
X58444873Y-57723927D01*
X58477499Y-57666279D01*
X61281961Y-54861819D01*
X61343284Y-54828334D01*
X61369642Y-54825500D01*
X63575501Y-54825500D01*
X63642540Y-54845185D01*
X63688295Y-54897989D01*
X63698437Y-54944611D01*
X63699099Y-54944576D01*
X63699146Y-54944571D01*
X63699146Y-54944573D01*
X63699324Y-54944564D01*
X63699501Y-54947876D01*
X63705908Y-55007483D01*
X63756202Y-55142328D01*
X63756206Y-55142335D01*
X63842452Y-55257544D01*
X63842455Y-55257547D01*
X63957664Y-55343793D01*
X63957671Y-55343797D01*
X64092517Y-55394091D01*
X64092516Y-55394091D01*
X64099444Y-55394835D01*
X64152127Y-55400500D01*
X65847872Y-55400499D01*
X65907483Y-55394091D01*
X66042331Y-55343796D01*
X66157546Y-55257546D01*
X66243796Y-55142331D01*
X66294091Y-55007483D01*
X66300500Y-54947873D01*
X66300499Y-52952128D01*
X66294091Y-52892517D01*
X66291305Y-52885048D01*
X66243797Y-52757671D01*
X66243793Y-52757664D01*
X66157547Y-52642455D01*
X66157544Y-52642452D01*
X66042335Y-52556206D01*
X66042328Y-52556202D01*
X65907482Y-52505908D01*
X65907483Y-52505908D01*
X65847883Y-52499501D01*
X65847881Y-52499500D01*
X65847873Y-52499500D01*
X65847864Y-52499500D01*
X64152129Y-52499500D01*
X64152123Y-52499501D01*
X64092516Y-52505908D01*
X63957671Y-52556202D01*
X63957664Y-52556206D01*
X63842455Y-52642452D01*
X63842452Y-52642455D01*
X63756206Y-52757664D01*
X63756202Y-52757671D01*
X63705908Y-52892517D01*
X63699501Y-52952116D01*
X63699501Y-52952123D01*
X63699322Y-52955452D01*
X63698065Y-52955384D01*
X63679815Y-53017539D01*
X63627011Y-53063294D01*
X63575500Y-53074500D01*
X60869407Y-53074500D01*
X60836566Y-53081032D01*
X60836565Y-53081031D01*
X60700270Y-53108142D01*
X60700262Y-53108144D01*
X60645891Y-53130666D01*
X60540933Y-53174140D01*
X60540924Y-53174145D01*
X60403923Y-53265688D01*
X60399700Y-53268509D01*
X60397532Y-53269958D01*
X56674976Y-56992516D01*
X55509719Y-58157773D01*
X52831901Y-60835591D01*
X52800522Y-60866970D01*
X52709953Y-60957538D01*
X52614145Y-61100924D01*
X52614138Y-61100937D01*
X52548146Y-61260257D01*
X52548143Y-61260269D01*
X52514500Y-61429402D01*
X52514500Y-69512117D01*
X52494815Y-69579156D01*
X52455598Y-69617655D01*
X52391344Y-69657287D01*
X52267289Y-69781342D01*
X52175187Y-69930663D01*
X52175185Y-69930668D01*
X52166918Y-69955616D01*
X52120001Y-70097203D01*
X52120001Y-70097204D01*
X52120000Y-70097204D01*
X52109500Y-70199983D01*
X52109500Y-70199991D01*
X52109500Y-71845606D01*
X52109501Y-73375500D01*
X52089816Y-73442539D01*
X52037012Y-73488294D01*
X51985501Y-73499500D01*
X50624500Y-73499500D01*
X50557461Y-73479815D01*
X50511706Y-73427011D01*
X50500500Y-73375500D01*
X50500500Y-50624500D01*
X50520185Y-50557461D01*
X50572989Y-50511706D01*
X50624500Y-50500500D01*
X82131422Y-50500500D01*
X82198461Y-50520185D01*
G37*
%TD.AperFunction*%
%TA.AperFunction,Conductor*%
G36*
X65046803Y-60165185D02*
G01*
X65092558Y-60217989D01*
X65102984Y-60283383D01*
X65094435Y-60359260D01*
X65094435Y-60359268D01*
X65114630Y-60538514D01*
X65114631Y-60538519D01*
X65174211Y-60708788D01*
X65270184Y-60861527D01*
X65274525Y-60866970D01*
X65273453Y-60867824D01*
X65294308Y-60902609D01*
X65296205Y-60901824D01*
X65309824Y-60934701D01*
X65309825Y-60934704D01*
X65345688Y-61021286D01*
X65345690Y-61021291D01*
X65360005Y-61042713D01*
X65360006Y-61042714D01*
X65414141Y-61123732D01*
X65414144Y-61123736D01*
X65463180Y-61172771D01*
X65496666Y-61234094D01*
X65499500Y-61260452D01*
X65499500Y-61349402D01*
X65513989Y-61459468D01*
X65516094Y-61467322D01*
X65512814Y-61468200D01*
X65518581Y-61522073D01*
X65515517Y-61532522D01*
X65516095Y-61532677D01*
X65513990Y-61540529D01*
X65499500Y-61650598D01*
X65499500Y-61849403D01*
X65513989Y-61959468D01*
X65516094Y-61967322D01*
X65512814Y-61968200D01*
X65518581Y-62022073D01*
X65515517Y-62032522D01*
X65516095Y-62032677D01*
X65513990Y-62040529D01*
X65499500Y-62150598D01*
X65499500Y-62349403D01*
X65513989Y-62459468D01*
X65516094Y-62467322D01*
X65512814Y-62468200D01*
X65518581Y-62522073D01*
X65515517Y-62532522D01*
X65516095Y-62532677D01*
X65513990Y-62540529D01*
X65499500Y-62650598D01*
X65499500Y-62849403D01*
X65513989Y-62959468D01*
X65516094Y-62967322D01*
X65512814Y-62968200D01*
X65518581Y-63022073D01*
X65515517Y-63032522D01*
X65516095Y-63032677D01*
X65513990Y-63040529D01*
X65499500Y-63150598D01*
X65499500Y-63349403D01*
X65513989Y-63459468D01*
X65516094Y-63467322D01*
X65512814Y-63468200D01*
X65518581Y-63522073D01*
X65515517Y-63532522D01*
X65516095Y-63532677D01*
X65513990Y-63540529D01*
X65499500Y-63650598D01*
X65499500Y-63849403D01*
X65513988Y-63959463D01*
X65513991Y-63959472D01*
X65570615Y-64096175D01*
X65570721Y-64096429D01*
X65660964Y-64214036D01*
X65778571Y-64304279D01*
X65915528Y-64361009D01*
X66025599Y-64375500D01*
X66824400Y-64375499D01*
X66824403Y-64375499D01*
X66934463Y-64361011D01*
X66934467Y-64361009D01*
X66934472Y-64361009D01*
X67071429Y-64304279D01*
X67189036Y-64214036D01*
X67251850Y-64132174D01*
X67308274Y-64090974D01*
X67378020Y-64086819D01*
X67437904Y-64119982D01*
X67477738Y-64159816D01*
X67630478Y-64255789D01*
X67769057Y-64304280D01*
X67800745Y-64315368D01*
X67800750Y-64315369D01*
X67979996Y-64335565D01*
X67980000Y-64335565D01*
X67980004Y-64335565D01*
X68159249Y-64315369D01*
X68159252Y-64315368D01*
X68159255Y-64315368D01*
X68329522Y-64255789D01*
X68482262Y-64159816D01*
X68493360Y-64148718D01*
X68554683Y-64115233D01*
X68624375Y-64120217D01*
X68668722Y-64148718D01*
X69907823Y-65387819D01*
X69941308Y-65449142D01*
X69936324Y-65518834D01*
X69894452Y-65574767D01*
X69828988Y-65599184D01*
X69820142Y-65599500D01*
X69449998Y-65599500D01*
X69449980Y-65599501D01*
X69347203Y-65610000D01*
X69347200Y-65610001D01*
X69180668Y-65665185D01*
X69180663Y-65665187D01*
X69031342Y-65757289D01*
X68907289Y-65881342D01*
X68899714Y-65893623D01*
X68832861Y-66002011D01*
X68824481Y-66015597D01*
X68772533Y-66062321D01*
X68718942Y-66074500D01*
X66424499Y-66074500D01*
X66357460Y-66054815D01*
X66311705Y-66002011D01*
X66301562Y-65955388D01*
X66300900Y-65955423D01*
X66300854Y-65955429D01*
X66300853Y-65955426D01*
X66300676Y-65955436D01*
X66300499Y-65952135D01*
X66300499Y-65952128D01*
X66294091Y-65892517D01*
X66276167Y-65844461D01*
X66243797Y-65757671D01*
X66243793Y-65757664D01*
X66157547Y-65642455D01*
X66157544Y-65642452D01*
X66042335Y-65556206D01*
X66042328Y-65556202D01*
X65907482Y-65505908D01*
X65907483Y-65505908D01*
X65847883Y-65499501D01*
X65847881Y-65499500D01*
X65847873Y-65499500D01*
X65847864Y-65499500D01*
X64152129Y-65499500D01*
X64152123Y-65499501D01*
X64092516Y-65505908D01*
X63957671Y-65556202D01*
X63957664Y-65556206D01*
X63842455Y-65642452D01*
X63842452Y-65642455D01*
X63756206Y-65757664D01*
X63756202Y-65757671D01*
X63705908Y-65892517D01*
X63700410Y-65943659D01*
X63699500Y-65952127D01*
X63699500Y-66792147D01*
X63699501Y-67560500D01*
X63679816Y-67627539D01*
X63627013Y-67673294D01*
X63575501Y-67684500D01*
X62744855Y-67684500D01*
X62678883Y-67665494D01*
X62549523Y-67584211D01*
X62379254Y-67524631D01*
X62379249Y-67524630D01*
X62200004Y-67504435D01*
X62199996Y-67504435D01*
X62020750Y-67524630D01*
X62020745Y-67524631D01*
X61850476Y-67584211D01*
X61697737Y-67680184D01*
X61570184Y-67807737D01*
X61474211Y-67960476D01*
X61414631Y-68130745D01*
X61414630Y-68130750D01*
X61394435Y-68309996D01*
X61394435Y-68310003D01*
X61414630Y-68489249D01*
X61414631Y-68489254D01*
X61474211Y-68659523D01*
X61513398Y-68721888D01*
X61570184Y-68812262D01*
X61697738Y-68939816D01*
X61850478Y-69035789D01*
X61923873Y-69061471D01*
X62020745Y-69095368D01*
X62020750Y-69095369D01*
X62199996Y-69115565D01*
X62200000Y-69115565D01*
X62200004Y-69115565D01*
X62379249Y-69095369D01*
X62379252Y-69095368D01*
X62379255Y-69095368D01*
X62549522Y-69035789D01*
X62678883Y-68954505D01*
X62744855Y-68935500D01*
X64755664Y-68935500D01*
X64822703Y-68955185D01*
X64843345Y-68971819D01*
X65273082Y-69401556D01*
X65306567Y-69462879D01*
X65301583Y-69532571D01*
X65273082Y-69576918D01*
X65250000Y-69600000D01*
X65250000Y-70800000D01*
X66300000Y-70800000D01*
X66300000Y-70727836D01*
X66319685Y-70660797D01*
X66372489Y-70615042D01*
X66441647Y-70605098D01*
X66505203Y-70634123D01*
X66511673Y-70640148D01*
X66975077Y-71103552D01*
X68322379Y-72450855D01*
X68322382Y-72450857D01*
X68322383Y-72450858D01*
X68424831Y-72519312D01*
X68463911Y-72535499D01*
X68463912Y-72535500D01*
X68463913Y-72535500D01*
X68538664Y-72566463D01*
X68558713Y-72570451D01*
X68592312Y-72577134D01*
X68659508Y-72590501D01*
X68659510Y-72590501D01*
X68788837Y-72590501D01*
X68788857Y-72590500D01*
X71036607Y-72590500D01*
X71097029Y-72578481D01*
X71157452Y-72566463D01*
X71157455Y-72566461D01*
X71157458Y-72566461D01*
X71190787Y-72552654D01*
X71190786Y-72552654D01*
X71190792Y-72552652D01*
X71271286Y-72519312D01*
X71322509Y-72485084D01*
X71373733Y-72450858D01*
X71460858Y-72363733D01*
X71460859Y-72363731D01*
X71467925Y-72356665D01*
X71467928Y-72356661D01*
X71647771Y-72176818D01*
X71709094Y-72143333D01*
X71735452Y-72140499D01*
X72400002Y-72140499D01*
X72400008Y-72140499D01*
X72502797Y-72129999D01*
X72669334Y-72074814D01*
X72818656Y-71982712D01*
X72942712Y-71858656D01*
X73034814Y-71709334D01*
X73036248Y-71705004D01*
X73076018Y-71647561D01*
X73140533Y-71620736D01*
X73209309Y-71633049D01*
X73241635Y-71656327D01*
X73275586Y-71690278D01*
X73275608Y-71690298D01*
X73890916Y-72305606D01*
X73890945Y-72305637D01*
X73981163Y-72395855D01*
X73981167Y-72395858D01*
X74083607Y-72464307D01*
X74083616Y-72464312D01*
X74104639Y-72473020D01*
X74197448Y-72511463D01*
X74236904Y-72519311D01*
X74318291Y-72535499D01*
X74318292Y-72535500D01*
X74318293Y-72535500D01*
X76049108Y-72535500D01*
X76049108Y-72535499D01*
X76130496Y-72519311D01*
X76130497Y-72519311D01*
X76143890Y-72516646D01*
X76169952Y-72511463D01*
X76203292Y-72497652D01*
X76283786Y-72464312D01*
X76340304Y-72426547D01*
X76386233Y-72395858D01*
X76473358Y-72308733D01*
X76473359Y-72308731D01*
X76480425Y-72301665D01*
X76480428Y-72301661D01*
X76660271Y-72121818D01*
X76721594Y-72088333D01*
X76747952Y-72085499D01*
X77425002Y-72085499D01*
X77425008Y-72085499D01*
X77527797Y-72074999D01*
X77567647Y-72061793D01*
X77606651Y-72055500D01*
X82791607Y-72055500D01*
X82852029Y-72043481D01*
X82912452Y-72031463D01*
X82912455Y-72031461D01*
X82912458Y-72031461D01*
X82945787Y-72017654D01*
X82945786Y-72017654D01*
X82945792Y-72017652D01*
X83026286Y-71984312D01*
X83077509Y-71950084D01*
X83081618Y-71947339D01*
X83090271Y-71941556D01*
X83128733Y-71915858D01*
X83215858Y-71828733D01*
X83215858Y-71828731D01*
X83226066Y-71818524D01*
X83226067Y-71818521D01*
X83810499Y-71234090D01*
X83871820Y-71200607D01*
X83930271Y-71201998D01*
X83947253Y-71206549D01*
X84099215Y-71219844D01*
X84159998Y-71225162D01*
X84160000Y-71225162D01*
X84160002Y-71225162D01*
X84213186Y-71220508D01*
X84372747Y-71206549D01*
X84579030Y-71151276D01*
X84772581Y-71061021D01*
X84947519Y-70938529D01*
X85098529Y-70787519D01*
X85192456Y-70653377D01*
X85247033Y-70609752D01*
X85294031Y-70600500D01*
X85565969Y-70600500D01*
X85633008Y-70620185D01*
X85667544Y-70653377D01*
X85761472Y-70787521D01*
X85912478Y-70938527D01*
X85912481Y-70938529D01*
X86087419Y-71061021D01*
X86087421Y-71061022D01*
X86087420Y-71061022D01*
X86151936Y-71091106D01*
X86280970Y-71151276D01*
X86487253Y-71206549D01*
X86639215Y-71219844D01*
X86699998Y-71225162D01*
X86700000Y-71225162D01*
X86700002Y-71225162D01*
X86753186Y-71220508D01*
X86912747Y-71206549D01*
X87119030Y-71151276D01*
X87312581Y-71061021D01*
X87487519Y-70938529D01*
X87638529Y-70787519D01*
X87761021Y-70612581D01*
X87851276Y-70419030D01*
X87906549Y-70212747D01*
X87925162Y-70000000D01*
X87906549Y-69787253D01*
X87851276Y-69580970D01*
X87761021Y-69387419D01*
X87638529Y-69212481D01*
X87638527Y-69212478D01*
X87487521Y-69061472D01*
X87312578Y-68938977D01*
X87312579Y-68938977D01*
X87177071Y-68875789D01*
X87119030Y-68848724D01*
X87119026Y-68848723D01*
X87119022Y-68848721D01*
X86912752Y-68793452D01*
X86912748Y-68793451D01*
X86912747Y-68793451D01*
X86912746Y-68793450D01*
X86912741Y-68793450D01*
X86700002Y-68774838D01*
X86699998Y-68774838D01*
X86487258Y-68793450D01*
X86487247Y-68793452D01*
X86280977Y-68848721D01*
X86280968Y-68848725D01*
X86087421Y-68938977D01*
X85912478Y-69061472D01*
X85761472Y-69212478D01*
X85667544Y-69346623D01*
X85612967Y-69390248D01*
X85565969Y-69399500D01*
X85294031Y-69399500D01*
X85226992Y-69379815D01*
X85192456Y-69346623D01*
X85098527Y-69212478D01*
X84947521Y-69061472D01*
X84813377Y-68967544D01*
X84769752Y-68912967D01*
X84760500Y-68865969D01*
X84760500Y-68640945D01*
X84760500Y-68640943D01*
X84719577Y-68488216D01*
X84675154Y-68411272D01*
X84640524Y-68351290D01*
X84640518Y-68351282D01*
X84581819Y-68292583D01*
X84548334Y-68231260D01*
X84545500Y-68204902D01*
X84545500Y-67834426D01*
X84545497Y-67834399D01*
X84545497Y-67778060D01*
X84525035Y-67635744D01*
X84525034Y-67635739D01*
X84502236Y-67558099D01*
X84484498Y-67497691D01*
X84465245Y-67455533D01*
X84424776Y-67366918D01*
X84424773Y-67366914D01*
X84424770Y-67366906D01*
X84346986Y-67245870D01*
X84346985Y-67245869D01*
X84346984Y-67245867D01*
X84346981Y-67245863D01*
X84252847Y-67137226D01*
X84252830Y-67137207D01*
X84252829Y-67137206D01*
X84144091Y-67042985D01*
X84108858Y-67020342D01*
X84023142Y-66965255D01*
X84023136Y-66965252D01*
X83952028Y-66932778D01*
X83892259Y-66905483D01*
X83851368Y-66893476D01*
X83792591Y-66855703D01*
X83763566Y-66792147D01*
X83773510Y-66722989D01*
X83819265Y-66670185D01*
X83886304Y-66650500D01*
X85863331Y-66650500D01*
X85863347Y-66650501D01*
X85870943Y-66650501D01*
X86029054Y-66650501D01*
X86029057Y-66650501D01*
X86181785Y-66609577D01*
X86231904Y-66580639D01*
X86318716Y-66530520D01*
X86430520Y-66418716D01*
X86430520Y-66418714D01*
X86440728Y-66408507D01*
X86440730Y-66408504D01*
X86612416Y-66236818D01*
X86673739Y-66203333D01*
X86700097Y-66200499D01*
X87400002Y-66200499D01*
X87400008Y-66200499D01*
X87502797Y-66189999D01*
X87669334Y-66134814D01*
X87818656Y-66042712D01*
X87942712Y-65918656D01*
X88034814Y-65769334D01*
X88089999Y-65602797D01*
X88100500Y-65500009D01*
X88100499Y-64675504D01*
X88120183Y-64608466D01*
X88172987Y-64562711D01*
X88242146Y-64552767D01*
X88305702Y-64581792D01*
X88312180Y-64587824D01*
X88838181Y-65113825D01*
X88871666Y-65175148D01*
X88874500Y-65201506D01*
X88874500Y-65525000D01*
X88874501Y-65525019D01*
X88885000Y-65627796D01*
X88885001Y-65627799D01*
X88940185Y-65794331D01*
X88940187Y-65794336D01*
X88971104Y-65844461D01*
X89032096Y-65943345D01*
X89032289Y-65943657D01*
X89050681Y-65962049D01*
X89084166Y-66023372D01*
X89087000Y-66049730D01*
X89087000Y-67086233D01*
X89120643Y-67255366D01*
X89120646Y-67255378D01*
X89186638Y-67414698D01*
X89186645Y-67414711D01*
X89282454Y-67558098D01*
X89282457Y-67558102D01*
X90548181Y-68823825D01*
X90581666Y-68885148D01*
X90584500Y-68911506D01*
X90584500Y-69530621D01*
X90564815Y-69597660D01*
X90525599Y-69636158D01*
X90491346Y-69657285D01*
X90367289Y-69781342D01*
X90275187Y-69930663D01*
X90275185Y-69930668D01*
X90266918Y-69955616D01*
X90220001Y-70097203D01*
X90220001Y-70097204D01*
X90220000Y-70097204D01*
X90209500Y-70199983D01*
X90209500Y-70199991D01*
X90209500Y-71845606D01*
X90209501Y-73375500D01*
X90189816Y-73442539D01*
X90137012Y-73488294D01*
X90085501Y-73499500D01*
X59637309Y-73499500D01*
X59570270Y-73479815D01*
X59549628Y-73463181D01*
X58486447Y-72400000D01*
X58492661Y-72400000D01*
X58594394Y-72372741D01*
X58685606Y-72320080D01*
X58760080Y-72245606D01*
X58812741Y-72154394D01*
X58840000Y-72052661D01*
X58840000Y-72046448D01*
X59689998Y-72896446D01*
X59689999Y-72896445D01*
X59689999Y-72047844D01*
X63700000Y-72047844D01*
X63706401Y-72107372D01*
X63706403Y-72107379D01*
X63756645Y-72242086D01*
X63756649Y-72242093D01*
X63842809Y-72357187D01*
X63842812Y-72357190D01*
X63957906Y-72443350D01*
X63957913Y-72443354D01*
X64092620Y-72493596D01*
X64092627Y-72493598D01*
X64152155Y-72499999D01*
X64152172Y-72500000D01*
X64750000Y-72500000D01*
X65250000Y-72500000D01*
X65847828Y-72500000D01*
X65847844Y-72499999D01*
X65907372Y-72493598D01*
X65907379Y-72493596D01*
X66042086Y-72443354D01*
X66042093Y-72443350D01*
X66157187Y-72357190D01*
X66157190Y-72357187D01*
X66243350Y-72242093D01*
X66243354Y-72242086D01*
X66293596Y-72107379D01*
X66293598Y-72107372D01*
X66299999Y-72047844D01*
X66300000Y-72047827D01*
X66300000Y-71300000D01*
X65250000Y-71300000D01*
X65250000Y-72500000D01*
X64750000Y-72500000D01*
X64750000Y-71300000D01*
X63700000Y-71300000D01*
X63700000Y-72047844D01*
X59689999Y-72047844D01*
X59689999Y-71103553D01*
X59689998Y-71103552D01*
X58840000Y-71953551D01*
X58840000Y-71947339D01*
X58812741Y-71845606D01*
X58760080Y-71754394D01*
X58685606Y-71679920D01*
X58594394Y-71627259D01*
X58492661Y-71600000D01*
X58486447Y-71600000D01*
X59689998Y-70396447D01*
X59689999Y-70396446D01*
X59689999Y-70200028D01*
X59689998Y-70200013D01*
X59679505Y-70097302D01*
X59664545Y-70052155D01*
X63700000Y-70052155D01*
X63700000Y-70800000D01*
X64750000Y-70800000D01*
X64750000Y-69600000D01*
X64152155Y-69600000D01*
X64092627Y-69606401D01*
X64092620Y-69606403D01*
X63957913Y-69656645D01*
X63957906Y-69656649D01*
X63842812Y-69742809D01*
X63842809Y-69742812D01*
X63756649Y-69857906D01*
X63756645Y-69857913D01*
X63706403Y-69992620D01*
X63706401Y-69992627D01*
X63700000Y-70052155D01*
X59664545Y-70052155D01*
X59624358Y-69930880D01*
X59624356Y-69930875D01*
X59532315Y-69781654D01*
X59408345Y-69657684D01*
X59259124Y-69565643D01*
X59259119Y-69565641D01*
X59092697Y-69510494D01*
X59092690Y-69510493D01*
X58989980Y-69500000D01*
X57890028Y-69500000D01*
X57890012Y-69500001D01*
X57787302Y-69510494D01*
X57620880Y-69565641D01*
X57620875Y-69565643D01*
X57471654Y-69657684D01*
X57347683Y-69781655D01*
X57347680Y-69781659D01*
X57275831Y-69898144D01*
X57223883Y-69944869D01*
X57154920Y-69956090D01*
X57090838Y-69928247D01*
X57064754Y-69898144D01*
X57064461Y-69897669D01*
X56992712Y-69781344D01*
X56868656Y-69657288D01*
X56745500Y-69581325D01*
X56719336Y-69565187D01*
X56719331Y-69565185D01*
X56670868Y-69549126D01*
X56552797Y-69510001D01*
X56552795Y-69510000D01*
X56450010Y-69499500D01*
X55349998Y-69499500D01*
X55349980Y-69499501D01*
X55247203Y-69510000D01*
X55247200Y-69510001D01*
X55080668Y-69565185D01*
X55080663Y-69565187D01*
X54931342Y-69657289D01*
X54807289Y-69781342D01*
X54803647Y-69787247D01*
X54760065Y-69857906D01*
X54735539Y-69897669D01*
X54683591Y-69944393D01*
X54614628Y-69955616D01*
X54550546Y-69927772D01*
X54524461Y-69897669D01*
X54452712Y-69781344D01*
X54328656Y-69657288D01*
X54328655Y-69657287D01*
X54324402Y-69654664D01*
X54277678Y-69602715D01*
X54265500Y-69549126D01*
X54265500Y-67264006D01*
X54285185Y-67196967D01*
X54301819Y-67176325D01*
X54347319Y-67130825D01*
X54408642Y-67097340D01*
X54447603Y-67095148D01*
X54499991Y-67100500D01*
X55500008Y-67100499D01*
X55500016Y-67100498D01*
X55500019Y-67100498D01*
X55556302Y-67094748D01*
X55602797Y-67089999D01*
X55769334Y-67034814D01*
X55918656Y-66942712D01*
X55949549Y-66911819D01*
X56010872Y-66878334D01*
X56037230Y-66875500D01*
X56048731Y-66875500D01*
X56048732Y-66875499D01*
X56217874Y-66841855D01*
X56377205Y-66775858D01*
X56520599Y-66680045D01*
X56615330Y-66585313D01*
X56676651Y-66551829D01*
X56746342Y-66556813D01*
X56802276Y-66598684D01*
X56820715Y-66633989D01*
X56840640Y-66694116D01*
X56840643Y-66694124D01*
X56932684Y-66843345D01*
X57056654Y-66967315D01*
X57205875Y-67059356D01*
X57205880Y-67059358D01*
X57372302Y-67114505D01*
X57372309Y-67114506D01*
X57475019Y-67124999D01*
X57749999Y-67124999D01*
X58250000Y-67124999D01*
X58524972Y-67124999D01*
X58524986Y-67124998D01*
X58627697Y-67114505D01*
X58794119Y-67059358D01*
X58794124Y-67059356D01*
X58943345Y-66967315D01*
X59067315Y-66843345D01*
X59159356Y-66694124D01*
X59159358Y-66694119D01*
X59214505Y-66527697D01*
X59214506Y-66527690D01*
X59224999Y-66424986D01*
X59225000Y-66424973D01*
X59225000Y-66287500D01*
X58250000Y-66287500D01*
X58250000Y-67124999D01*
X57749999Y-67124999D01*
X57750000Y-67124998D01*
X57750000Y-65911500D01*
X57769685Y-65844461D01*
X57822489Y-65798706D01*
X57874000Y-65787500D01*
X59224999Y-65787500D01*
X59224999Y-65650028D01*
X59224998Y-65650013D01*
X59214505Y-65547302D01*
X59159358Y-65380880D01*
X59159356Y-65380875D01*
X59067315Y-65231654D01*
X58943344Y-65107683D01*
X58943341Y-65107681D01*
X58940339Y-65105829D01*
X58938713Y-65104021D01*
X58937677Y-65103202D01*
X58937817Y-65103024D01*
X58893617Y-65053880D01*
X58882397Y-64984917D01*
X58910243Y-64920836D01*
X58940344Y-64894754D01*
X58943656Y-64892712D01*
X58962049Y-64874319D01*
X59023372Y-64840834D01*
X59049730Y-64838000D01*
X61643731Y-64838000D01*
X61643732Y-64837999D01*
X61812874Y-64804355D01*
X61972205Y-64738358D01*
X62115599Y-64642545D01*
X62595481Y-64162662D01*
X62656799Y-64129181D01*
X62726490Y-64134165D01*
X62781532Y-64174860D01*
X62811318Y-64213677D01*
X62928824Y-64303843D01*
X63065658Y-64360521D01*
X63175622Y-64374999D01*
X63175637Y-64375000D01*
X63450000Y-64375000D01*
X63450000Y-63999500D01*
X63469685Y-63932461D01*
X63522489Y-63886706D01*
X63574000Y-63875500D01*
X63576000Y-63875500D01*
X63643039Y-63895185D01*
X63688794Y-63947989D01*
X63700000Y-63999500D01*
X63700000Y-64375000D01*
X63974363Y-64375000D01*
X63974377Y-64374999D01*
X64084341Y-64360521D01*
X64084342Y-64360521D01*
X64221175Y-64303843D01*
X64338679Y-64213679D01*
X64428843Y-64096175D01*
X64485521Y-63959342D01*
X64485521Y-63959340D01*
X64496626Y-63875000D01*
X64466971Y-63875000D01*
X64399932Y-63855315D01*
X64354177Y-63802511D01*
X64344233Y-63733353D01*
X64368603Y-63675503D01*
X64370138Y-63673503D01*
X64426571Y-63632306D01*
X64468506Y-63625000D01*
X64496626Y-63625000D01*
X64485521Y-63540659D01*
X64483418Y-63532807D01*
X64487041Y-63531835D01*
X64480919Y-63479884D01*
X64484495Y-63467484D01*
X64483905Y-63467326D01*
X64486008Y-63459475D01*
X64486008Y-63459474D01*
X64486009Y-63459472D01*
X64500500Y-63349401D01*
X64500499Y-63150600D01*
X64500499Y-63150598D01*
X64500499Y-63150596D01*
X64486011Y-63040536D01*
X64483906Y-63032682D01*
X64487007Y-63031850D01*
X64481128Y-62977382D01*
X64484147Y-62967389D01*
X64483418Y-62967194D01*
X64485521Y-62959342D01*
X64496626Y-62875000D01*
X64468506Y-62875000D01*
X64401467Y-62855315D01*
X64370115Y-62826466D01*
X64369348Y-62825466D01*
X64344167Y-62760292D01*
X64358219Y-62691850D01*
X64369348Y-62674534D01*
X64370115Y-62673534D01*
X64426534Y-62632319D01*
X64468506Y-62625000D01*
X64496626Y-62625000D01*
X64485521Y-62540659D01*
X64483418Y-62532807D01*
X64487041Y-62531835D01*
X64480919Y-62479884D01*
X64484495Y-62467484D01*
X64483905Y-62467326D01*
X64486008Y-62459475D01*
X64486008Y-62459474D01*
X64486009Y-62459472D01*
X64500500Y-62349401D01*
X64500499Y-62150600D01*
X64486009Y-62040528D01*
X64486008Y-62040525D01*
X64483905Y-62032674D01*
X64487207Y-62031789D01*
X64481392Y-61978075D01*
X64484501Y-61967485D01*
X64483905Y-61967326D01*
X64486008Y-61959475D01*
X64486008Y-61959474D01*
X64486009Y-61959472D01*
X64500500Y-61849401D01*
X64500499Y-61650600D01*
X64486009Y-61540528D01*
X64486008Y-61540525D01*
X64483905Y-61532674D01*
X64487207Y-61531789D01*
X64481392Y-61478075D01*
X64484501Y-61467485D01*
X64483905Y-61467326D01*
X64486008Y-61459475D01*
X64486008Y-61459474D01*
X64486009Y-61459472D01*
X64500500Y-61349401D01*
X64500499Y-61150600D01*
X64500499Y-61150596D01*
X64486011Y-61040536D01*
X64486009Y-61040531D01*
X64486009Y-61040528D01*
X64429279Y-60903571D01*
X64339036Y-60785964D01*
X64221429Y-60695721D01*
X64221425Y-60695719D01*
X64084472Y-60638991D01*
X64084470Y-60638990D01*
X63974410Y-60624501D01*
X63974407Y-60624500D01*
X63974401Y-60624500D01*
X63974394Y-60624500D01*
X63850097Y-60624500D01*
X63783058Y-60604815D01*
X63762416Y-60588181D01*
X63540837Y-60366602D01*
X63507352Y-60305279D01*
X63512336Y-60235587D01*
X63540837Y-60191240D01*
X63550265Y-60181812D01*
X63611588Y-60148332D01*
X63637940Y-60145500D01*
X64979764Y-60145500D01*
X65046803Y-60165185D01*
G37*
%TD.AperFunction*%
%TA.AperFunction,Conductor*%
G36*
X99442539Y-50520185D02*
G01*
X99488294Y-50572989D01*
X99499500Y-50624500D01*
X99499500Y-73375500D01*
X99479815Y-73442539D01*
X99427011Y-73488294D01*
X99375500Y-73499500D01*
X97914500Y-73499500D01*
X97847461Y-73479815D01*
X97801706Y-73427011D01*
X97790500Y-73375500D01*
X97790499Y-70199998D01*
X97790498Y-70199981D01*
X97779999Y-70097203D01*
X97779998Y-70097200D01*
X97769548Y-70065663D01*
X97724814Y-69930666D01*
X97632712Y-69781344D01*
X97508656Y-69657288D01*
X97508653Y-69657285D01*
X97474401Y-69636158D01*
X97427678Y-69584210D01*
X97415500Y-69530621D01*
X97415500Y-68714006D01*
X97435185Y-68646967D01*
X97451819Y-68626325D01*
X97717542Y-68360602D01*
X97717545Y-68360599D01*
X97813358Y-68217205D01*
X97814783Y-68213766D01*
X97854178Y-68118656D01*
X97879355Y-68057874D01*
X97913000Y-67888729D01*
X97913000Y-67716271D01*
X97913000Y-66049730D01*
X97932685Y-65982691D01*
X97949319Y-65962049D01*
X97955980Y-65955388D01*
X97967712Y-65943656D01*
X98059814Y-65794334D01*
X98114999Y-65627797D01*
X98125500Y-65525009D01*
X98125499Y-64474992D01*
X98117552Y-64397200D01*
X98114999Y-64372203D01*
X98114998Y-64372200D01*
X98096166Y-64315369D01*
X98059814Y-64205666D01*
X97967712Y-64056344D01*
X97949319Y-64037951D01*
X97915834Y-63976628D01*
X97913000Y-63950270D01*
X97913000Y-63049730D01*
X97932685Y-62982691D01*
X97949319Y-62962049D01*
X97957725Y-62953643D01*
X97967712Y-62943656D01*
X98059814Y-62794334D01*
X98114999Y-62627797D01*
X98125500Y-62525009D01*
X98125499Y-61474992D01*
X98120842Y-61429407D01*
X98114999Y-61372203D01*
X98114998Y-61372200D01*
X98077968Y-61260452D01*
X98059814Y-61205666D01*
X97967712Y-61056344D01*
X97927272Y-61015904D01*
X97893787Y-60954581D01*
X97893349Y-60952483D01*
X97879355Y-60882126D01*
X97860080Y-60835591D01*
X97813361Y-60722801D01*
X97813354Y-60722788D01*
X97717546Y-60579402D01*
X97660155Y-60522011D01*
X97595599Y-60457455D01*
X97082770Y-59944626D01*
X96558102Y-59419957D01*
X96558098Y-59419954D01*
X96414711Y-59324145D01*
X96414698Y-59324138D01*
X96255378Y-59258146D01*
X96255366Y-59258143D01*
X96086232Y-59224500D01*
X96086229Y-59224500D01*
X93413771Y-59224500D01*
X93413768Y-59224500D01*
X93244633Y-59258143D01*
X93244621Y-59258146D01*
X93085301Y-59324138D01*
X93085288Y-59324145D01*
X92945504Y-59417547D01*
X92941906Y-59419950D01*
X92941899Y-59419956D01*
X91803675Y-60558181D01*
X91742352Y-60591666D01*
X91715994Y-60594500D01*
X88224000Y-60594500D01*
X88156961Y-60574815D01*
X88111206Y-60522011D01*
X88100000Y-60470500D01*
X88100000Y-60250000D01*
X86874000Y-60250000D01*
X86806961Y-60230315D01*
X86761206Y-60177511D01*
X86750000Y-60126000D01*
X86750000Y-59750000D01*
X87250000Y-59750000D01*
X88099999Y-59750000D01*
X88099999Y-59500028D01*
X88099998Y-59500013D01*
X88089505Y-59397302D01*
X88034358Y-59230880D01*
X88034356Y-59230875D01*
X87942315Y-59081654D01*
X87818345Y-58957684D01*
X87669124Y-58865643D01*
X87669119Y-58865641D01*
X87502697Y-58810494D01*
X87502690Y-58810493D01*
X87399986Y-58800000D01*
X87250000Y-58800000D01*
X87250000Y-59750000D01*
X86750000Y-59750000D01*
X86750000Y-58800000D01*
X86600027Y-58800000D01*
X86600012Y-58800001D01*
X86497302Y-58810494D01*
X86330880Y-58865641D01*
X86330875Y-58865643D01*
X86181657Y-58957682D01*
X86088034Y-59051305D01*
X86026710Y-59084789D01*
X85957019Y-59079805D01*
X85912672Y-59051304D01*
X85818657Y-58957289D01*
X85818656Y-58957288D01*
X85698692Y-58883294D01*
X85669336Y-58865187D01*
X85669331Y-58865185D01*
X85667862Y-58864698D01*
X85502797Y-58810001D01*
X85502795Y-58810000D01*
X85400016Y-58799500D01*
X85400009Y-58799500D01*
X84909500Y-58799500D01*
X84842461Y-58779815D01*
X84796706Y-58727011D01*
X84785500Y-58675500D01*
X84785500Y-55016525D01*
X84805185Y-54949486D01*
X84838375Y-54914951D01*
X84947519Y-54838529D01*
X85098529Y-54687519D01*
X85149049Y-54615369D01*
X85174951Y-54578377D01*
X85229528Y-54534752D01*
X85276526Y-54525500D01*
X85583474Y-54525500D01*
X85650513Y-54545185D01*
X85685049Y-54578377D01*
X85761471Y-54687520D01*
X85912478Y-54838527D01*
X85912481Y-54838529D01*
X86087419Y-54961021D01*
X86087421Y-54961022D01*
X86087420Y-54961022D01*
X86127716Y-54979812D01*
X86280970Y-55051276D01*
X86487253Y-55106549D01*
X86639215Y-55119844D01*
X86699998Y-55125162D01*
X86700000Y-55125162D01*
X86700002Y-55125162D01*
X86753186Y-55120508D01*
X86912747Y-55106549D01*
X87119030Y-55051276D01*
X87312581Y-54961021D01*
X87487519Y-54838529D01*
X87638529Y-54687519D01*
X87761021Y-54512581D01*
X87851276Y-54319030D01*
X87906549Y-54112747D01*
X87925162Y-53900000D01*
X87906549Y-53687253D01*
X87851276Y-53480970D01*
X87761021Y-53287419D01*
X87638529Y-53112481D01*
X87638527Y-53112478D01*
X87487521Y-52961472D01*
X87312578Y-52838977D01*
X87312579Y-52838977D01*
X87183547Y-52778809D01*
X87119030Y-52748724D01*
X87119026Y-52748723D01*
X87119022Y-52748721D01*
X86912752Y-52693452D01*
X86912748Y-52693451D01*
X86912747Y-52693451D01*
X86912746Y-52693450D01*
X86912741Y-52693450D01*
X86700002Y-52674838D01*
X86699998Y-52674838D01*
X86487258Y-52693450D01*
X86487247Y-52693452D01*
X86280977Y-52748721D01*
X86280968Y-52748725D01*
X86087421Y-52838977D01*
X85912478Y-52961472D01*
X85761471Y-53112479D01*
X85685049Y-53221623D01*
X85630472Y-53265248D01*
X85583474Y-53274500D01*
X85276526Y-53274500D01*
X85209487Y-53254815D01*
X85174951Y-53221623D01*
X85098530Y-53112482D01*
X85030678Y-53044630D01*
X84947519Y-52961471D01*
X84896726Y-52925905D01*
X84838376Y-52885048D01*
X84794751Y-52830471D01*
X84785500Y-52783473D01*
X84785500Y-52558396D01*
X84785500Y-52558394D01*
X84785070Y-52556235D01*
X84785073Y-52556203D01*
X84785065Y-52556205D01*
X84761464Y-52437555D01*
X84761463Y-52437548D01*
X84714311Y-52323714D01*
X84714310Y-52323713D01*
X84714307Y-52323707D01*
X84665916Y-52251286D01*
X84665915Y-52251284D01*
X84645858Y-52221267D01*
X84645856Y-52221265D01*
X84645854Y-52221262D01*
X84581819Y-52157227D01*
X84548334Y-52095904D01*
X84545500Y-52069546D01*
X84545500Y-51734426D01*
X84545497Y-51734399D01*
X84545497Y-51678060D01*
X84525035Y-51535744D01*
X84525034Y-51535739D01*
X84484498Y-51397692D01*
X84484498Y-51397691D01*
X84481736Y-51391643D01*
X84424776Y-51266918D01*
X84424773Y-51266914D01*
X84424770Y-51266906D01*
X84346986Y-51145870D01*
X84346985Y-51145869D01*
X84346984Y-51145867D01*
X84346981Y-51145863D01*
X84252847Y-51037226D01*
X84252830Y-51037207D01*
X84252829Y-51037206D01*
X84144091Y-50942985D01*
X84108858Y-50920342D01*
X84023142Y-50865255D01*
X84023136Y-50865252D01*
X83952028Y-50832778D01*
X83892259Y-50805483D01*
X83774650Y-50770950D01*
X83754308Y-50764977D01*
X83754306Y-50764976D01*
X83754304Y-50764976D01*
X83754300Y-50764975D01*
X83754298Y-50764975D01*
X83703857Y-50757722D01*
X83630930Y-50747237D01*
X83567376Y-50718213D01*
X83529601Y-50659435D01*
X83529601Y-50589566D01*
X83567375Y-50530787D01*
X83630930Y-50501762D01*
X83648578Y-50500500D01*
X99375500Y-50500500D01*
X99442539Y-50520185D01*
G37*
%TD.AperFunction*%
%TA.AperFunction,Conductor*%
G36*
X93854526Y-61086130D02*
G01*
X93910460Y-61128001D01*
X93934877Y-61193466D01*
X93928899Y-61241316D01*
X93885494Y-61372302D01*
X93885493Y-61372309D01*
X93875000Y-61475013D01*
X93875000Y-61750000D01*
X95088500Y-61750000D01*
X95155539Y-61769685D01*
X95201294Y-61822489D01*
X95212500Y-61874000D01*
X95212500Y-63224999D01*
X95349972Y-63224999D01*
X95349986Y-63224998D01*
X95452697Y-63214505D01*
X95619119Y-63159358D01*
X95619124Y-63159356D01*
X95768346Y-63067315D01*
X95892316Y-62943344D01*
X95892318Y-62943342D01*
X95894165Y-62940348D01*
X95895969Y-62938724D01*
X95896798Y-62937677D01*
X95896976Y-62937818D01*
X95946110Y-62893621D01*
X96015073Y-62882396D01*
X96079156Y-62910236D01*
X96105243Y-62940341D01*
X96107288Y-62943656D01*
X96107289Y-62943657D01*
X96125681Y-62962049D01*
X96159166Y-63023372D01*
X96162000Y-63049730D01*
X96162000Y-63950270D01*
X96142315Y-64017309D01*
X96125681Y-64037951D01*
X96107288Y-64056343D01*
X96107283Y-64056349D01*
X96105241Y-64059661D01*
X96103247Y-64061453D01*
X96102807Y-64062011D01*
X96102711Y-64061935D01*
X96053291Y-64106383D01*
X95984328Y-64117602D01*
X95920247Y-64089755D01*
X95894168Y-64059656D01*
X95892319Y-64056659D01*
X95892316Y-64056655D01*
X95768345Y-63932684D01*
X95619124Y-63840643D01*
X95619119Y-63840641D01*
X95452697Y-63785494D01*
X95452690Y-63785493D01*
X95349986Y-63775000D01*
X95212500Y-63775000D01*
X95212500Y-66224999D01*
X95349972Y-66224999D01*
X95349986Y-66224998D01*
X95452697Y-66214505D01*
X95619119Y-66159358D01*
X95619124Y-66159356D01*
X95768345Y-66067315D01*
X95892318Y-65943342D01*
X95894165Y-65940348D01*
X95895969Y-65938724D01*
X95896798Y-65937677D01*
X95896976Y-65937818D01*
X95946110Y-65893621D01*
X96015073Y-65882396D01*
X96079156Y-65910236D01*
X96105242Y-65940339D01*
X96107288Y-65943656D01*
X96107289Y-65943657D01*
X96125681Y-65962049D01*
X96159166Y-66023372D01*
X96162000Y-66049730D01*
X96162000Y-67388494D01*
X96142315Y-67455533D01*
X96125681Y-67476175D01*
X95981901Y-67619955D01*
X95936362Y-67665494D01*
X95859953Y-67741902D01*
X95764145Y-67885288D01*
X95764138Y-67885301D01*
X95698146Y-68044621D01*
X95698143Y-68044633D01*
X95664500Y-68213766D01*
X95664500Y-69530621D01*
X95644815Y-69597660D01*
X95605599Y-69636158D01*
X95571346Y-69657285D01*
X95447288Y-69781343D01*
X95447285Y-69781347D01*
X95375244Y-69898144D01*
X95323296Y-69944869D01*
X95254334Y-69956090D01*
X95190252Y-69928247D01*
X95164167Y-69898144D01*
X95092315Y-69781654D01*
X94968345Y-69657684D01*
X94819124Y-69565643D01*
X94819119Y-69565641D01*
X94652697Y-69510494D01*
X94652690Y-69510493D01*
X94549980Y-69500000D01*
X93450028Y-69500000D01*
X93450012Y-69500001D01*
X93347302Y-69510494D01*
X93180880Y-69565641D01*
X93180875Y-69565643D01*
X93031654Y-69657684D01*
X92907683Y-69781655D01*
X92907680Y-69781659D01*
X92835831Y-69898144D01*
X92783883Y-69944869D01*
X92714920Y-69956090D01*
X92650838Y-69928247D01*
X92624754Y-69898144D01*
X92624461Y-69897669D01*
X92552712Y-69781344D01*
X92428656Y-69657288D01*
X92428653Y-69657285D01*
X92394401Y-69636158D01*
X92347678Y-69584210D01*
X92335500Y-69530621D01*
X92335500Y-68411268D01*
X92335499Y-68411266D01*
X92334933Y-68408419D01*
X92301855Y-68242126D01*
X92291535Y-68217211D01*
X92235861Y-68082801D01*
X92235854Y-68082788D01*
X92140046Y-67939402D01*
X92085932Y-67885288D01*
X92018099Y-67817455D01*
X90874319Y-66673675D01*
X90840834Y-66612352D01*
X90838000Y-66585994D01*
X90838000Y-66049730D01*
X90857685Y-65982691D01*
X90874319Y-65962049D01*
X90880980Y-65955388D01*
X90892712Y-65943656D01*
X90894752Y-65940347D01*
X90896745Y-65938555D01*
X90897193Y-65937989D01*
X90897289Y-65938065D01*
X90946694Y-65893623D01*
X91015656Y-65882395D01*
X91079740Y-65910234D01*
X91105829Y-65940339D01*
X91107681Y-65943341D01*
X91107683Y-65943344D01*
X91231654Y-66067315D01*
X91380875Y-66159356D01*
X91380880Y-66159358D01*
X91547302Y-66214505D01*
X91547309Y-66214506D01*
X91650019Y-66224999D01*
X91787499Y-66224999D01*
X92287500Y-66224999D01*
X92424972Y-66224999D01*
X92424986Y-66224998D01*
X92527697Y-66214505D01*
X92694119Y-66159358D01*
X92694124Y-66159356D01*
X92843345Y-66067315D01*
X92967315Y-65943345D01*
X93059356Y-65794124D01*
X93059358Y-65794119D01*
X93114505Y-65627697D01*
X93114506Y-65627690D01*
X93124999Y-65524986D01*
X93875001Y-65524986D01*
X93885494Y-65627697D01*
X93940641Y-65794119D01*
X93940643Y-65794124D01*
X94032684Y-65943345D01*
X94156654Y-66067315D01*
X94305875Y-66159356D01*
X94305880Y-66159358D01*
X94472302Y-66214505D01*
X94472309Y-66214506D01*
X94575019Y-66224999D01*
X94712499Y-66224999D01*
X94712500Y-66224998D01*
X94712500Y-65250000D01*
X93875001Y-65250000D01*
X93875001Y-65524986D01*
X93124999Y-65524986D01*
X93125000Y-65524973D01*
X93125000Y-65250000D01*
X92287500Y-65250000D01*
X92287500Y-66224999D01*
X91787499Y-66224999D01*
X91787500Y-66224998D01*
X91787500Y-64750000D01*
X92287500Y-64750000D01*
X93124999Y-64750000D01*
X93124999Y-64475028D01*
X93124998Y-64475013D01*
X93875000Y-64475013D01*
X93875000Y-64750000D01*
X94712500Y-64750000D01*
X94712500Y-63775000D01*
X94575027Y-63775000D01*
X94575012Y-63775001D01*
X94472302Y-63785494D01*
X94305880Y-63840641D01*
X94305875Y-63840643D01*
X94156654Y-63932684D01*
X94032684Y-64056654D01*
X93940643Y-64205875D01*
X93940641Y-64205880D01*
X93885494Y-64372302D01*
X93885493Y-64372309D01*
X93875000Y-64475013D01*
X93124998Y-64475013D01*
X93114505Y-64372302D01*
X93059358Y-64205880D01*
X93059356Y-64205875D01*
X92967315Y-64056654D01*
X92843345Y-63932684D01*
X92694124Y-63840643D01*
X92694119Y-63840641D01*
X92527697Y-63785494D01*
X92527690Y-63785493D01*
X92424986Y-63775000D01*
X92287500Y-63775000D01*
X92287500Y-64750000D01*
X91787500Y-64750000D01*
X91787500Y-63775000D01*
X91650027Y-63775000D01*
X91650012Y-63775001D01*
X91547302Y-63785494D01*
X91380880Y-63840641D01*
X91380875Y-63840643D01*
X91231654Y-63932684D01*
X91107683Y-64056655D01*
X91107679Y-64056660D01*
X91105826Y-64059665D01*
X91104018Y-64061290D01*
X91103202Y-64062323D01*
X91103025Y-64062183D01*
X91053874Y-64106385D01*
X90984911Y-64117601D01*
X90920831Y-64089752D01*
X90894753Y-64059653D01*
X90894737Y-64059628D01*
X90892712Y-64056344D01*
X90768656Y-63932288D01*
X90643862Y-63855315D01*
X90619336Y-63840187D01*
X90619331Y-63840185D01*
X90617862Y-63839698D01*
X90452797Y-63785001D01*
X90452795Y-63785000D01*
X90350016Y-63774500D01*
X90350009Y-63774500D01*
X90026506Y-63774500D01*
X89959467Y-63754815D01*
X89938825Y-63738181D01*
X88757826Y-62557181D01*
X88740246Y-62524986D01*
X93875001Y-62524986D01*
X93885494Y-62627697D01*
X93940641Y-62794119D01*
X93940643Y-62794124D01*
X94032684Y-62943345D01*
X94156654Y-63067315D01*
X94156653Y-63067315D01*
X94305875Y-63159356D01*
X94305880Y-63159358D01*
X94472302Y-63214505D01*
X94472309Y-63214506D01*
X94575019Y-63224999D01*
X94712499Y-63224999D01*
X94712500Y-63224998D01*
X94712500Y-62250000D01*
X93875001Y-62250000D01*
X93875001Y-62524986D01*
X88740246Y-62524986D01*
X88724341Y-62495858D01*
X88729325Y-62426166D01*
X88771197Y-62370233D01*
X88836661Y-62345816D01*
X88845507Y-62345500D01*
X92216231Y-62345500D01*
X92216232Y-62345499D01*
X92385374Y-62311855D01*
X92544705Y-62245858D01*
X92688099Y-62150045D01*
X93723514Y-61114629D01*
X93784835Y-61081146D01*
X93854526Y-61086130D01*
G37*
%TD.AperFunction*%
%TA.AperFunction,Conductor*%
G36*
X56287927Y-59958365D02*
G01*
X56332274Y-59986866D01*
X56758096Y-60412688D01*
X56791581Y-60474011D01*
X56788123Y-60539367D01*
X56785494Y-60547301D01*
X56775000Y-60650013D01*
X56775000Y-60787500D01*
X58126000Y-60787500D01*
X58193039Y-60807185D01*
X58238794Y-60859989D01*
X58250000Y-60911500D01*
X58250000Y-62124999D01*
X58524972Y-62124999D01*
X58524986Y-62124998D01*
X58627697Y-62114505D01*
X58794119Y-62059358D01*
X58794124Y-62059356D01*
X58943345Y-61967315D01*
X59067315Y-61843345D01*
X59159356Y-61694124D01*
X59159356Y-61694122D01*
X59174767Y-61647615D01*
X59214539Y-61590170D01*
X59279054Y-61563345D01*
X59347830Y-61575659D01*
X59380155Y-61598936D01*
X59557073Y-61775855D01*
X59557077Y-61775858D01*
X59659522Y-61844310D01*
X59659521Y-61844310D01*
X59659523Y-61844311D01*
X59659525Y-61844312D01*
X59691937Y-61857737D01*
X59691938Y-61857738D01*
X59691939Y-61857738D01*
X59773358Y-61891463D01*
X59793407Y-61895451D01*
X59827006Y-61902134D01*
X59894202Y-61915501D01*
X59894204Y-61915501D01*
X60023531Y-61915501D01*
X60023551Y-61915500D01*
X61286354Y-61915500D01*
X61353393Y-61935185D01*
X61399148Y-61987989D01*
X61409574Y-62025616D01*
X61424630Y-62159250D01*
X61424631Y-62159254D01*
X61484211Y-62329523D01*
X61580184Y-62482262D01*
X61626409Y-62528487D01*
X61659894Y-62589810D01*
X61654910Y-62659502D01*
X61613038Y-62715435D01*
X61607619Y-62719270D01*
X61471901Y-62809954D01*
X61471897Y-62809957D01*
X61231175Y-63050681D01*
X61169852Y-63084166D01*
X61143494Y-63087000D01*
X59049730Y-63087000D01*
X58982691Y-63067315D01*
X58962049Y-63050681D01*
X58943657Y-63032289D01*
X58943656Y-63032288D01*
X58825391Y-62959342D01*
X58794336Y-62940187D01*
X58794331Y-62940185D01*
X58786762Y-62937677D01*
X58627797Y-62885001D01*
X58627795Y-62885000D01*
X58525010Y-62874500D01*
X57474998Y-62874500D01*
X57474980Y-62874501D01*
X57372203Y-62885000D01*
X57372200Y-62885001D01*
X57205668Y-62940185D01*
X57205663Y-62940187D01*
X57056342Y-63032289D01*
X56932289Y-63156342D01*
X56840187Y-63305663D01*
X56840185Y-63305668D01*
X56825693Y-63349403D01*
X56785001Y-63472203D01*
X56785001Y-63472204D01*
X56785000Y-63472204D01*
X56774500Y-63574983D01*
X56774500Y-63898493D01*
X56754815Y-63965532D01*
X56738181Y-63986174D01*
X56412180Y-64312174D01*
X56350857Y-64345659D01*
X56281165Y-64340675D01*
X56225232Y-64298803D01*
X56200815Y-64233339D01*
X56200499Y-64224514D01*
X56200499Y-63599992D01*
X56192539Y-63522073D01*
X56189999Y-63497203D01*
X56189998Y-63497200D01*
X56177495Y-63459468D01*
X56134814Y-63330666D01*
X56134752Y-63330565D01*
X56134732Y-63330491D01*
X56131760Y-63324118D01*
X56132849Y-63323610D01*
X56116314Y-63263172D01*
X56137239Y-63196509D01*
X56190883Y-63151741D01*
X56202745Y-63147849D01*
X56202682Y-63147668D01*
X56209255Y-63145368D01*
X56379522Y-63085789D01*
X56532262Y-62989816D01*
X56659816Y-62862262D01*
X56755789Y-62709522D01*
X56815368Y-62539255D01*
X56816204Y-62531835D01*
X56835565Y-62360003D01*
X56835565Y-62359996D01*
X56815369Y-62180750D01*
X56815368Y-62180745D01*
X56807848Y-62159254D01*
X56755789Y-62010478D01*
X56755787Y-62010475D01*
X56755787Y-62010474D01*
X56752870Y-62004416D01*
X56741516Y-61935475D01*
X56769237Y-61871340D01*
X56770798Y-61870290D01*
X56712671Y-61877547D01*
X56649667Y-61847345D01*
X56644918Y-61842840D01*
X56532262Y-61730184D01*
X56379523Y-61634211D01*
X56209254Y-61574631D01*
X56209249Y-61574630D01*
X56030004Y-61554435D01*
X56029996Y-61554435D01*
X55850750Y-61574630D01*
X55850745Y-61574631D01*
X55680476Y-61634211D01*
X55527737Y-61730184D01*
X55435433Y-61822489D01*
X55400184Y-61857738D01*
X55363890Y-61915500D01*
X55304210Y-62010478D01*
X55244630Y-62180750D01*
X55234837Y-62267668D01*
X55207770Y-62332082D01*
X55199298Y-62341465D01*
X54677582Y-62863181D01*
X54616259Y-62896666D01*
X54589902Y-62899500D01*
X54499999Y-62899500D01*
X54499980Y-62899501D01*
X54402101Y-62909500D01*
X54333408Y-62896730D01*
X54282524Y-62848849D01*
X54265500Y-62786142D01*
X54265500Y-61929641D01*
X54285185Y-61862602D01*
X54301814Y-61841965D01*
X54718793Y-61424986D01*
X56775001Y-61424986D01*
X56785494Y-61527697D01*
X56840641Y-61694119D01*
X56843696Y-61700670D01*
X56841342Y-61701767D01*
X56856578Y-61757466D01*
X56835649Y-61824128D01*
X56819716Y-61837423D01*
X56827232Y-61832373D01*
X56897087Y-61830946D01*
X56952270Y-61862931D01*
X57056654Y-61967315D01*
X57205875Y-62059356D01*
X57205880Y-62059358D01*
X57372302Y-62114505D01*
X57372309Y-62114506D01*
X57475019Y-62124999D01*
X57749999Y-62124999D01*
X57750000Y-62124998D01*
X57750000Y-61287500D01*
X56775001Y-61287500D01*
X56775001Y-61424986D01*
X54718793Y-61424986D01*
X56156914Y-59986864D01*
X56218235Y-59953381D01*
X56287927Y-59958365D01*
G37*
%TD.AperFunction*%
%TA.AperFunction,Conductor*%
G36*
X80336942Y-53470185D02*
G01*
X80357584Y-53486819D01*
X80393378Y-53522613D01*
X80426863Y-53583936D01*
X80425472Y-53642386D01*
X80413452Y-53687246D01*
X80413451Y-53687253D01*
X80394838Y-53899999D01*
X80394838Y-53900001D01*
X80413450Y-54112741D01*
X80413452Y-54112752D01*
X80468721Y-54319022D01*
X80468723Y-54319026D01*
X80468724Y-54319030D01*
X80506485Y-54400008D01*
X80558977Y-54512578D01*
X80681472Y-54687521D01*
X80832478Y-54838527D01*
X80832481Y-54838529D01*
X81007419Y-54961021D01*
X81007421Y-54961022D01*
X81007420Y-54961022D01*
X81047716Y-54979812D01*
X81200970Y-55051276D01*
X81407253Y-55106549D01*
X81559215Y-55119844D01*
X81619998Y-55125162D01*
X81620000Y-55125162D01*
X81620002Y-55125162D01*
X81673186Y-55120508D01*
X81832747Y-55106549D01*
X82039030Y-55051276D01*
X82232581Y-54961021D01*
X82407519Y-54838529D01*
X82558529Y-54687519D01*
X82681021Y-54512581D01*
X82771276Y-54319030D01*
X82771280Y-54319013D01*
X82773130Y-54313936D01*
X82775253Y-54314709D01*
X82806576Y-54263305D01*
X82869419Y-54232766D01*
X82938796Y-54241050D01*
X82992680Y-54285528D01*
X83005827Y-54314315D01*
X83006870Y-54313936D01*
X83008722Y-54319022D01*
X83008724Y-54319030D01*
X83046485Y-54400008D01*
X83098977Y-54512578D01*
X83221472Y-54687521D01*
X83372478Y-54838527D01*
X83372481Y-54838529D01*
X83481623Y-54914950D01*
X83525248Y-54969526D01*
X83534500Y-55016525D01*
X83534500Y-59098393D01*
X83534500Y-59221607D01*
X83534500Y-59221609D01*
X83534499Y-59221609D01*
X83541767Y-59258142D01*
X83541767Y-59258144D01*
X83558535Y-59342446D01*
X83558536Y-59342450D01*
X83558537Y-59342452D01*
X83564789Y-59357546D01*
X83605685Y-59456281D01*
X83605687Y-59456285D01*
X83634892Y-59499991D01*
X83634893Y-59499993D01*
X83674140Y-59558731D01*
X83674141Y-59558732D01*
X83674142Y-59558733D01*
X83761267Y-59645858D01*
X83761268Y-59645858D01*
X83768335Y-59652925D01*
X83768334Y-59652925D01*
X83768338Y-59652928D01*
X83863181Y-59747771D01*
X83896666Y-59809094D01*
X83899500Y-59835452D01*
X83899501Y-60470500D01*
X83879817Y-60537539D01*
X83827013Y-60583294D01*
X83775501Y-60594500D01*
X83224500Y-60594500D01*
X83157461Y-60574815D01*
X83111706Y-60522011D01*
X83100500Y-60470500D01*
X83100499Y-59499991D01*
X83100498Y-59499980D01*
X83089999Y-59397203D01*
X83089998Y-59397200D01*
X83087611Y-59389998D01*
X83034814Y-59230666D01*
X82942712Y-59081344D01*
X82818656Y-58957288D01*
X82698692Y-58883294D01*
X82669336Y-58865187D01*
X82669331Y-58865185D01*
X82667862Y-58864698D01*
X82502797Y-58810001D01*
X82502795Y-58810000D01*
X82400016Y-58799500D01*
X82400009Y-58799500D01*
X81735452Y-58799500D01*
X81668413Y-58779815D01*
X81647771Y-58763181D01*
X81255198Y-58370608D01*
X81255178Y-58370586D01*
X81163733Y-58279141D01*
X81099698Y-58236355D01*
X81061286Y-58210688D01*
X81061287Y-58210688D01*
X81061285Y-58210687D01*
X81021039Y-58194017D01*
X80980792Y-58177347D01*
X80947453Y-58163537D01*
X80937427Y-58161543D01*
X80887029Y-58151518D01*
X80826610Y-58139500D01*
X80826607Y-58139500D01*
X80826606Y-58139500D01*
X79875453Y-58139500D01*
X79808414Y-58119815D01*
X79787772Y-58103181D01*
X79626211Y-57941620D01*
X79592726Y-57880297D01*
X79590673Y-57867836D01*
X79585368Y-57820745D01*
X79525789Y-57650478D01*
X79429816Y-57497738D01*
X79302262Y-57370184D01*
X79149523Y-57274211D01*
X78979254Y-57214631D01*
X78979249Y-57214630D01*
X78800004Y-57194435D01*
X78799996Y-57194435D01*
X78620750Y-57214630D01*
X78620745Y-57214631D01*
X78450477Y-57274211D01*
X78429126Y-57287627D01*
X78361889Y-57306626D01*
X78295054Y-57286257D01*
X78249841Y-57232989D01*
X78242047Y-57203683D01*
X78241415Y-57203819D01*
X78239998Y-57197200D01*
X78225953Y-57154815D01*
X78184814Y-57030666D01*
X78092712Y-56881344D01*
X77968656Y-56757288D01*
X77819334Y-56665186D01*
X77758301Y-56644961D01*
X77710495Y-56629120D01*
X77653050Y-56589347D01*
X77626228Y-56524831D01*
X77625500Y-56511414D01*
X77625500Y-55131057D01*
X77645185Y-55064018D01*
X77684401Y-55025520D01*
X77818656Y-54942712D01*
X77942712Y-54818656D01*
X78034814Y-54669334D01*
X78089999Y-54502797D01*
X78100500Y-54400009D01*
X78100499Y-53574499D01*
X78120183Y-53507461D01*
X78172987Y-53461706D01*
X78224499Y-53450500D01*
X80269903Y-53450500D01*
X80336942Y-53470185D01*
G37*
%TD.AperFunction*%
%TD*%
M02*
