%TF.GenerationSoftware,KiCad,Pcbnew,8.0.4*%
%TF.CreationDate,2025-01-20T11:41:48+00:00*%
%TF.ProjectId,r1283_power,72313238-335f-4706-9f77-65722e6b6963,rev?*%
%TF.SameCoordinates,Original*%
%TF.FileFunction,Soldermask,Top*%
%TF.FilePolarity,Negative*%
%FSLAX46Y46*%
G04 Gerber Fmt 4.6, Leading zero omitted, Abs format (unit mm)*
G04 Created by KiCad (PCBNEW 8.0.4) date 2025-01-20 11:41:48*
%MOMM*%
%LPD*%
G01*
G04 APERTURE LIST*
G04 Aperture macros list*
%AMRoundRect*
0 Rectangle with rounded corners*
0 $1 Rounding radius*
0 $2 $3 $4 $5 $6 $7 $8 $9 X,Y pos of 4 corners*
0 Add a 4 corners polygon primitive as box body*
4,1,4,$2,$3,$4,$5,$6,$7,$8,$9,$2,$3,0*
0 Add four circle primitives for the rounded corners*
1,1,$1+$1,$2,$3*
1,1,$1+$1,$4,$5*
1,1,$1+$1,$6,$7*
1,1,$1+$1,$8,$9*
0 Add four rect primitives between the rounded corners*
20,1,$1+$1,$2,$3,$4,$5,0*
20,1,$1+$1,$4,$5,$6,$7,0*
20,1,$1+$1,$6,$7,$8,$9,0*
20,1,$1+$1,$8,$9,$2,$3,0*%
%AMFreePoly0*
4,1,19,0.500000,-0.750000,0.000000,-0.750000,0.000000,-0.744911,-0.071157,-0.744911,-0.207708,-0.704816,-0.327430,-0.627875,-0.420627,-0.520320,-0.479746,-0.390866,-0.500000,-0.250000,-0.500000,0.250000,-0.479746,0.390866,-0.420627,0.520320,-0.327430,0.627875,-0.207708,0.704816,-0.071157,0.744911,0.000000,0.744911,0.000000,0.750000,0.500000,0.750000,0.500000,-0.750000,0.500000,-0.750000,
$1*%
%AMFreePoly1*
4,1,19,0.000000,0.744911,0.071157,0.744911,0.207708,0.704816,0.327430,0.627875,0.420627,0.520320,0.479746,0.390866,0.500000,0.250000,0.500000,-0.250000,0.479746,-0.390866,0.420627,-0.520320,0.327430,-0.627875,0.207708,-0.704816,0.071157,-0.744911,0.000000,-0.744911,0.000000,-0.750000,-0.500000,-0.750000,-0.500000,0.750000,0.000000,0.750000,0.000000,0.744911,0.000000,0.744911,
$1*%
G04 Aperture macros list end*
%ADD10RoundRect,0.062500X0.362500X0.062500X-0.362500X0.062500X-0.362500X-0.062500X0.362500X-0.062500X0*%
%ADD11R,1.600000X2.500000*%
%ADD12RoundRect,0.250000X1.500000X0.650000X-1.500000X0.650000X-1.500000X-0.650000X1.500000X-0.650000X0*%
%ADD13RoundRect,0.250000X-0.350000X-0.450000X0.350000X-0.450000X0.350000X0.450000X-0.350000X0.450000X0*%
%ADD14C,1.440000*%
%ADD15RoundRect,0.250000X-0.475000X0.337500X-0.475000X-0.337500X0.475000X-0.337500X0.475000X0.337500X0*%
%ADD16FreePoly0,180.000000*%
%ADD17FreePoly1,180.000000*%
%ADD18RoundRect,0.250000X0.350000X0.450000X-0.350000X0.450000X-0.350000X-0.450000X0.350000X-0.450000X0*%
%ADD19RoundRect,0.250000X-1.500000X-0.650000X1.500000X-0.650000X1.500000X0.650000X-1.500000X0.650000X0*%
%ADD20RoundRect,0.250000X0.450000X-0.350000X0.450000X0.350000X-0.450000X0.350000X-0.450000X-0.350000X0*%
%ADD21R,1.600000X1.900000*%
%ADD22RoundRect,0.250000X-0.337500X-0.475000X0.337500X-0.475000X0.337500X0.475000X-0.337500X0.475000X0*%
%ADD23RoundRect,0.250000X0.337500X0.475000X-0.337500X0.475000X-0.337500X-0.475000X0.337500X-0.475000X0*%
%ADD24RoundRect,0.250000X-0.500000X-1.750000X0.500000X-1.750000X0.500000X1.750000X-0.500000X1.750000X0*%
%ADD25RoundRect,0.250000X0.500000X1.750000X-0.500000X1.750000X-0.500000X-1.750000X0.500000X-1.750000X0*%
G04 APERTURE END LIST*
D10*
%TO.C,U1*%
X66425000Y-63750000D03*
X66425000Y-63250000D03*
X66425000Y-62750000D03*
X66425000Y-62250000D03*
X66425000Y-61750000D03*
X66425000Y-61250000D03*
X63575000Y-61250000D03*
X63575000Y-61750000D03*
X63575000Y-62250000D03*
X63575000Y-62750000D03*
X63575000Y-63250000D03*
X63575000Y-63750000D03*
D11*
X65000000Y-62500000D03*
%TD*%
D12*
%TO.C,D1*%
X76000000Y-58000000D03*
X71000000Y-58000000D03*
%TD*%
D13*
%TO.C,R5*%
X85000000Y-65000000D03*
X87000000Y-65000000D03*
%TD*%
D14*
%TO.C,RV2*%
X86700000Y-53900000D03*
X84160000Y-53900000D03*
X81620000Y-53900000D03*
%TD*%
D15*
%TO.C,C1*%
X58000000Y-63962500D03*
X58000000Y-66037500D03*
%TD*%
D16*
%TO.C,JP2*%
X83540000Y-68100000D03*
D17*
X82240000Y-68100000D03*
%TD*%
D18*
%TO.C,R2*%
X77000000Y-53900000D03*
X75000000Y-53900000D03*
%TD*%
D19*
%TO.C,D2*%
X71000000Y-67000000D03*
X76000000Y-67000000D03*
%TD*%
D20*
%TO.C,R7*%
X55000000Y-66000000D03*
X55000000Y-64000000D03*
%TD*%
D21*
%TO.C,L2*%
X65000000Y-66950000D03*
X65000000Y-71050000D03*
%TD*%
D13*
%TO.C,R1*%
X85000000Y-60000000D03*
X87000000Y-60000000D03*
%TD*%
%TO.C,R4*%
X70000000Y-70940000D03*
X72000000Y-70940000D03*
%TD*%
%TO.C,R6*%
X80000000Y-65000000D03*
X82000000Y-65000000D03*
%TD*%
D16*
%TO.C,JP1*%
X83540000Y-52000000D03*
D17*
X82240000Y-52000000D03*
%TD*%
D21*
%TO.C,L1*%
X65000000Y-53950000D03*
X65000000Y-58050000D03*
%TD*%
D15*
%TO.C,C4*%
X58000000Y-58962500D03*
X58000000Y-61037500D03*
%TD*%
D22*
%TO.C,C3*%
X89962500Y-65000000D03*
X92037500Y-65000000D03*
%TD*%
%TO.C,C5*%
X69962500Y-53820000D03*
X72037500Y-53820000D03*
%TD*%
D14*
%TO.C,RV5*%
X86700000Y-70000000D03*
X84160000Y-70000000D03*
X81620000Y-70000000D03*
%TD*%
D23*
%TO.C,C7*%
X97037500Y-65000000D03*
X94962500Y-65000000D03*
%TD*%
D13*
%TO.C,R3*%
X80000000Y-60000000D03*
X82000000Y-60000000D03*
%TD*%
D23*
%TO.C,C2*%
X97037500Y-62000000D03*
X94962500Y-62000000D03*
%TD*%
D22*
%TO.C,C6*%
X74962500Y-70860000D03*
X77037500Y-70860000D03*
%TD*%
D24*
%TO.C,J1*%
X53360000Y-72000000D03*
X55900000Y-72000000D03*
X58440000Y-72000000D03*
%TD*%
D25*
%TO.C,J2*%
X96540000Y-72000000D03*
X94000000Y-72000000D03*
X91460000Y-72000000D03*
%TD*%
M02*
