%TF.GenerationSoftware,KiCad,Pcbnew,8.0.4*%
%TF.CreationDate,2025-01-04T18:22:50+00:00*%
%TF.ProjectId,r1283_power,72313238-335f-4706-9f77-65722e6b6963,rev?*%
%TF.SameCoordinates,Original*%
%TF.FileFunction,Legend,Top*%
%TF.FilePolarity,Positive*%
%FSLAX46Y46*%
G04 Gerber Fmt 4.6, Leading zero omitted, Abs format (unit mm)*
G04 Created by KiCad (PCBNEW 8.0.4) date 2025-01-04 18:22:50*
%MOMM*%
%LPD*%
G01*
G04 APERTURE LIST*
%ADD10C,0.200000*%
%ADD11C,0.150000*%
%ADD12C,0.120000*%
%ADD13C,0.100000*%
G04 APERTURE END LIST*
D10*
X96338095Y-68452219D02*
X96338095Y-67452219D01*
X96338095Y-67452219D02*
X96719047Y-67452219D01*
X96719047Y-67452219D02*
X96814285Y-67499838D01*
X96814285Y-67499838D02*
X96861904Y-67547457D01*
X96861904Y-67547457D02*
X96909523Y-67642695D01*
X96909523Y-67642695D02*
X96909523Y-67785552D01*
X96909523Y-67785552D02*
X96861904Y-67880790D01*
X96861904Y-67880790D02*
X96814285Y-67928409D01*
X96814285Y-67928409D02*
X96719047Y-67976028D01*
X96719047Y-67976028D02*
X96338095Y-67976028D01*
X97528571Y-67452219D02*
X97719047Y-67452219D01*
X97719047Y-67452219D02*
X97814285Y-67499838D01*
X97814285Y-67499838D02*
X97909523Y-67595076D01*
X97909523Y-67595076D02*
X97957142Y-67785552D01*
X97957142Y-67785552D02*
X97957142Y-68118885D01*
X97957142Y-68118885D02*
X97909523Y-68309361D01*
X97909523Y-68309361D02*
X97814285Y-68404600D01*
X97814285Y-68404600D02*
X97719047Y-68452219D01*
X97719047Y-68452219D02*
X97528571Y-68452219D01*
X97528571Y-68452219D02*
X97433333Y-68404600D01*
X97433333Y-68404600D02*
X97338095Y-68309361D01*
X97338095Y-68309361D02*
X97290476Y-68118885D01*
X97290476Y-68118885D02*
X97290476Y-67785552D01*
X97290476Y-67785552D02*
X97338095Y-67595076D01*
X97338095Y-67595076D02*
X97433333Y-67499838D01*
X97433333Y-67499838D02*
X97528571Y-67452219D01*
X98338095Y-68404600D02*
X98480952Y-68452219D01*
X98480952Y-68452219D02*
X98719047Y-68452219D01*
X98719047Y-68452219D02*
X98814285Y-68404600D01*
X98814285Y-68404600D02*
X98861904Y-68356980D01*
X98861904Y-68356980D02*
X98909523Y-68261742D01*
X98909523Y-68261742D02*
X98909523Y-68166504D01*
X98909523Y-68166504D02*
X98861904Y-68071266D01*
X98861904Y-68071266D02*
X98814285Y-68023647D01*
X98814285Y-68023647D02*
X98719047Y-67976028D01*
X98719047Y-67976028D02*
X98528571Y-67928409D01*
X98528571Y-67928409D02*
X98433333Y-67880790D01*
X98433333Y-67880790D02*
X98385714Y-67833171D01*
X98385714Y-67833171D02*
X98338095Y-67737933D01*
X98338095Y-67737933D02*
X98338095Y-67642695D01*
X98338095Y-67642695D02*
X98385714Y-67547457D01*
X98385714Y-67547457D02*
X98433333Y-67499838D01*
X98433333Y-67499838D02*
X98528571Y-67452219D01*
X98528571Y-67452219D02*
X98766666Y-67452219D01*
X98766666Y-67452219D02*
X98909523Y-67499838D01*
X58638095Y-67499838D02*
X58542857Y-67452219D01*
X58542857Y-67452219D02*
X58400000Y-67452219D01*
X58400000Y-67452219D02*
X58257143Y-67499838D01*
X58257143Y-67499838D02*
X58161905Y-67595076D01*
X58161905Y-67595076D02*
X58114286Y-67690314D01*
X58114286Y-67690314D02*
X58066667Y-67880790D01*
X58066667Y-67880790D02*
X58066667Y-68023647D01*
X58066667Y-68023647D02*
X58114286Y-68214123D01*
X58114286Y-68214123D02*
X58161905Y-68309361D01*
X58161905Y-68309361D02*
X58257143Y-68404600D01*
X58257143Y-68404600D02*
X58400000Y-68452219D01*
X58400000Y-68452219D02*
X58495238Y-68452219D01*
X58495238Y-68452219D02*
X58638095Y-68404600D01*
X58638095Y-68404600D02*
X58685714Y-68356980D01*
X58685714Y-68356980D02*
X58685714Y-68023647D01*
X58685714Y-68023647D02*
X58495238Y-68023647D01*
X59114286Y-68452219D02*
X59114286Y-67452219D01*
X59114286Y-67452219D02*
X59685714Y-68452219D01*
X59685714Y-68452219D02*
X59685714Y-67452219D01*
X60161905Y-68452219D02*
X60161905Y-67452219D01*
X60161905Y-67452219D02*
X60400000Y-67452219D01*
X60400000Y-67452219D02*
X60542857Y-67499838D01*
X60542857Y-67499838D02*
X60638095Y-67595076D01*
X60638095Y-67595076D02*
X60685714Y-67690314D01*
X60685714Y-67690314D02*
X60733333Y-67880790D01*
X60733333Y-67880790D02*
X60733333Y-68023647D01*
X60733333Y-68023647D02*
X60685714Y-68214123D01*
X60685714Y-68214123D02*
X60638095Y-68309361D01*
X60638095Y-68309361D02*
X60542857Y-68404600D01*
X60542857Y-68404600D02*
X60400000Y-68452219D01*
X60400000Y-68452219D02*
X60161905Y-68452219D01*
X93238095Y-67499838D02*
X93142857Y-67452219D01*
X93142857Y-67452219D02*
X93000000Y-67452219D01*
X93000000Y-67452219D02*
X92857143Y-67499838D01*
X92857143Y-67499838D02*
X92761905Y-67595076D01*
X92761905Y-67595076D02*
X92714286Y-67690314D01*
X92714286Y-67690314D02*
X92666667Y-67880790D01*
X92666667Y-67880790D02*
X92666667Y-68023647D01*
X92666667Y-68023647D02*
X92714286Y-68214123D01*
X92714286Y-68214123D02*
X92761905Y-68309361D01*
X92761905Y-68309361D02*
X92857143Y-68404600D01*
X92857143Y-68404600D02*
X93000000Y-68452219D01*
X93000000Y-68452219D02*
X93095238Y-68452219D01*
X93095238Y-68452219D02*
X93238095Y-68404600D01*
X93238095Y-68404600D02*
X93285714Y-68356980D01*
X93285714Y-68356980D02*
X93285714Y-68023647D01*
X93285714Y-68023647D02*
X93095238Y-68023647D01*
X93714286Y-68452219D02*
X93714286Y-67452219D01*
X93714286Y-67452219D02*
X94285714Y-68452219D01*
X94285714Y-68452219D02*
X94285714Y-67452219D01*
X94761905Y-68452219D02*
X94761905Y-67452219D01*
X94761905Y-67452219D02*
X95000000Y-67452219D01*
X95000000Y-67452219D02*
X95142857Y-67499838D01*
X95142857Y-67499838D02*
X95238095Y-67595076D01*
X95238095Y-67595076D02*
X95285714Y-67690314D01*
X95285714Y-67690314D02*
X95333333Y-67880790D01*
X95333333Y-67880790D02*
X95333333Y-68023647D01*
X95333333Y-68023647D02*
X95285714Y-68214123D01*
X95285714Y-68214123D02*
X95238095Y-68309361D01*
X95238095Y-68309361D02*
X95142857Y-68404600D01*
X95142857Y-68404600D02*
X95000000Y-68452219D01*
X95000000Y-68452219D02*
X94761905Y-68452219D01*
D11*
X91109160Y-59854104D02*
X91585350Y-59854104D01*
X91013922Y-60139819D02*
X91347255Y-59139819D01*
X91347255Y-59139819D02*
X91680588Y-60139819D01*
X92156779Y-60139819D02*
X92061541Y-60092200D01*
X92061541Y-60092200D02*
X92013922Y-59996961D01*
X92013922Y-59996961D02*
X92013922Y-59139819D01*
X92680589Y-60139819D02*
X92585351Y-60092200D01*
X92585351Y-60092200D02*
X92537732Y-59996961D01*
X92537732Y-59996961D02*
X92537732Y-59139819D01*
X94347256Y-60139819D02*
X93775828Y-60139819D01*
X94061542Y-60139819D02*
X94061542Y-59139819D01*
X94061542Y-59139819D02*
X93966304Y-59282676D01*
X93966304Y-59282676D02*
X93871066Y-59377914D01*
X93871066Y-59377914D02*
X93775828Y-59425533D01*
X94966304Y-59139819D02*
X95061542Y-59139819D01*
X95061542Y-59139819D02*
X95156780Y-59187438D01*
X95156780Y-59187438D02*
X95204399Y-59235057D01*
X95204399Y-59235057D02*
X95252018Y-59330295D01*
X95252018Y-59330295D02*
X95299637Y-59520771D01*
X95299637Y-59520771D02*
X95299637Y-59758866D01*
X95299637Y-59758866D02*
X95252018Y-59949342D01*
X95252018Y-59949342D02*
X95204399Y-60044580D01*
X95204399Y-60044580D02*
X95156780Y-60092200D01*
X95156780Y-60092200D02*
X95061542Y-60139819D01*
X95061542Y-60139819D02*
X94966304Y-60139819D01*
X94966304Y-60139819D02*
X94871066Y-60092200D01*
X94871066Y-60092200D02*
X94823447Y-60044580D01*
X94823447Y-60044580D02*
X94775828Y-59949342D01*
X94775828Y-59949342D02*
X94728209Y-59758866D01*
X94728209Y-59758866D02*
X94728209Y-59520771D01*
X94728209Y-59520771D02*
X94775828Y-59330295D01*
X94775828Y-59330295D02*
X94823447Y-59235057D01*
X94823447Y-59235057D02*
X94871066Y-59187438D01*
X94871066Y-59187438D02*
X94966304Y-59139819D01*
X96156780Y-59473152D02*
X96156780Y-60139819D01*
X95728209Y-59473152D02*
X95728209Y-59996961D01*
X95728209Y-59996961D02*
X95775828Y-60092200D01*
X95775828Y-60092200D02*
X95871066Y-60139819D01*
X95871066Y-60139819D02*
X96013923Y-60139819D01*
X96013923Y-60139819D02*
X96109161Y-60092200D01*
X96109161Y-60092200D02*
X96156780Y-60044580D01*
D10*
X53269523Y-67452219D02*
X52793333Y-67452219D01*
X52793333Y-67452219D02*
X52745714Y-67928409D01*
X52745714Y-67928409D02*
X52793333Y-67880790D01*
X52793333Y-67880790D02*
X52888571Y-67833171D01*
X52888571Y-67833171D02*
X53126666Y-67833171D01*
X53126666Y-67833171D02*
X53221904Y-67880790D01*
X53221904Y-67880790D02*
X53269523Y-67928409D01*
X53269523Y-67928409D02*
X53317142Y-68023647D01*
X53317142Y-68023647D02*
X53317142Y-68261742D01*
X53317142Y-68261742D02*
X53269523Y-68356980D01*
X53269523Y-68356980D02*
X53221904Y-68404600D01*
X53221904Y-68404600D02*
X53126666Y-68452219D01*
X53126666Y-68452219D02*
X52888571Y-68452219D01*
X52888571Y-68452219D02*
X52793333Y-68404600D01*
X52793333Y-68404600D02*
X52745714Y-68356980D01*
X53602857Y-67452219D02*
X53936190Y-68452219D01*
X53936190Y-68452219D02*
X54269523Y-67452219D01*
X55261905Y-67928409D02*
X55595238Y-67928409D01*
X55738095Y-68452219D02*
X55261905Y-68452219D01*
X55261905Y-68452219D02*
X55261905Y-67452219D01*
X55261905Y-67452219D02*
X55738095Y-67452219D01*
X56166667Y-68452219D02*
X56166667Y-67452219D01*
X56166667Y-67452219D02*
X56738095Y-68452219D01*
X56738095Y-68452219D02*
X56738095Y-67452219D01*
X89161905Y-68452219D02*
X89161905Y-67452219D01*
X89161905Y-67452219D02*
X89733333Y-68452219D01*
X89733333Y-68452219D02*
X89733333Y-67452219D01*
X90209524Y-67928409D02*
X90542857Y-67928409D01*
X90685714Y-68452219D02*
X90209524Y-68452219D01*
X90209524Y-68452219D02*
X90209524Y-67452219D01*
X90209524Y-67452219D02*
X90685714Y-67452219D01*
X91638095Y-67499838D02*
X91542857Y-67452219D01*
X91542857Y-67452219D02*
X91400000Y-67452219D01*
X91400000Y-67452219D02*
X91257143Y-67499838D01*
X91257143Y-67499838D02*
X91161905Y-67595076D01*
X91161905Y-67595076D02*
X91114286Y-67690314D01*
X91114286Y-67690314D02*
X91066667Y-67880790D01*
X91066667Y-67880790D02*
X91066667Y-68023647D01*
X91066667Y-68023647D02*
X91114286Y-68214123D01*
X91114286Y-68214123D02*
X91161905Y-68309361D01*
X91161905Y-68309361D02*
X91257143Y-68404600D01*
X91257143Y-68404600D02*
X91400000Y-68452219D01*
X91400000Y-68452219D02*
X91495238Y-68452219D01*
X91495238Y-68452219D02*
X91638095Y-68404600D01*
X91638095Y-68404600D02*
X91685714Y-68356980D01*
X91685714Y-68356980D02*
X91685714Y-68023647D01*
X91685714Y-68023647D02*
X91495238Y-68023647D01*
D11*
X64238095Y-63404819D02*
X64238095Y-64214342D01*
X64238095Y-64214342D02*
X64285714Y-64309580D01*
X64285714Y-64309580D02*
X64333333Y-64357200D01*
X64333333Y-64357200D02*
X64428571Y-64404819D01*
X64428571Y-64404819D02*
X64619047Y-64404819D01*
X64619047Y-64404819D02*
X64714285Y-64357200D01*
X64714285Y-64357200D02*
X64761904Y-64309580D01*
X64761904Y-64309580D02*
X64809523Y-64214342D01*
X64809523Y-64214342D02*
X64809523Y-63404819D01*
X65809523Y-64404819D02*
X65238095Y-64404819D01*
X65523809Y-64404819D02*
X65523809Y-63404819D01*
X65523809Y-63404819D02*
X65428571Y-63547676D01*
X65428571Y-63547676D02*
X65333333Y-63642914D01*
X65333333Y-63642914D02*
X65238095Y-63690533D01*
X71501905Y-55164819D02*
X71501905Y-54164819D01*
X71501905Y-54164819D02*
X71740000Y-54164819D01*
X71740000Y-54164819D02*
X71882857Y-54212438D01*
X71882857Y-54212438D02*
X71978095Y-54307676D01*
X71978095Y-54307676D02*
X72025714Y-54402914D01*
X72025714Y-54402914D02*
X72073333Y-54593390D01*
X72073333Y-54593390D02*
X72073333Y-54736247D01*
X72073333Y-54736247D02*
X72025714Y-54926723D01*
X72025714Y-54926723D02*
X71978095Y-55021961D01*
X71978095Y-55021961D02*
X71882857Y-55117200D01*
X71882857Y-55117200D02*
X71740000Y-55164819D01*
X71740000Y-55164819D02*
X71501905Y-55164819D01*
X73025714Y-55164819D02*
X72454286Y-55164819D01*
X72740000Y-55164819D02*
X72740000Y-54164819D01*
X72740000Y-54164819D02*
X72644762Y-54307676D01*
X72644762Y-54307676D02*
X72549524Y-54402914D01*
X72549524Y-54402914D02*
X72454286Y-54450533D01*
X74310476Y-55164819D02*
X74310476Y-54164819D01*
X74310476Y-54164819D02*
X74643809Y-54879104D01*
X74643809Y-54879104D02*
X74977142Y-54164819D01*
X74977142Y-54164819D02*
X74977142Y-55164819D01*
X75881904Y-54498152D02*
X75881904Y-55164819D01*
X75643809Y-54117200D02*
X75405714Y-54831485D01*
X75405714Y-54831485D02*
X76024761Y-54831485D01*
X84283333Y-62854819D02*
X83950000Y-62378628D01*
X83711905Y-62854819D02*
X83711905Y-61854819D01*
X83711905Y-61854819D02*
X84092857Y-61854819D01*
X84092857Y-61854819D02*
X84188095Y-61902438D01*
X84188095Y-61902438D02*
X84235714Y-61950057D01*
X84235714Y-61950057D02*
X84283333Y-62045295D01*
X84283333Y-62045295D02*
X84283333Y-62188152D01*
X84283333Y-62188152D02*
X84235714Y-62283390D01*
X84235714Y-62283390D02*
X84188095Y-62331009D01*
X84188095Y-62331009D02*
X84092857Y-62378628D01*
X84092857Y-62378628D02*
X83711905Y-62378628D01*
X85188095Y-61854819D02*
X84711905Y-61854819D01*
X84711905Y-61854819D02*
X84664286Y-62331009D01*
X84664286Y-62331009D02*
X84711905Y-62283390D01*
X84711905Y-62283390D02*
X84807143Y-62235771D01*
X84807143Y-62235771D02*
X85045238Y-62235771D01*
X85045238Y-62235771D02*
X85140476Y-62283390D01*
X85140476Y-62283390D02*
X85188095Y-62331009D01*
X85188095Y-62331009D02*
X85235714Y-62426247D01*
X85235714Y-62426247D02*
X85235714Y-62664342D01*
X85235714Y-62664342D02*
X85188095Y-62759580D01*
X85188095Y-62759580D02*
X85140476Y-62807200D01*
X85140476Y-62807200D02*
X85045238Y-62854819D01*
X85045238Y-62854819D02*
X84807143Y-62854819D01*
X84807143Y-62854819D02*
X84711905Y-62807200D01*
X84711905Y-62807200D02*
X84664286Y-62759580D01*
X86524761Y-62854819D02*
X85953333Y-62854819D01*
X86239047Y-62854819D02*
X86239047Y-61854819D01*
X86239047Y-61854819D02*
X86143809Y-61997676D01*
X86143809Y-61997676D02*
X86048571Y-62092914D01*
X86048571Y-62092914D02*
X85953333Y-62140533D01*
X87143809Y-61854819D02*
X87239047Y-61854819D01*
X87239047Y-61854819D02*
X87334285Y-61902438D01*
X87334285Y-61902438D02*
X87381904Y-61950057D01*
X87381904Y-61950057D02*
X87429523Y-62045295D01*
X87429523Y-62045295D02*
X87477142Y-62235771D01*
X87477142Y-62235771D02*
X87477142Y-62473866D01*
X87477142Y-62473866D02*
X87429523Y-62664342D01*
X87429523Y-62664342D02*
X87381904Y-62759580D01*
X87381904Y-62759580D02*
X87334285Y-62807200D01*
X87334285Y-62807200D02*
X87239047Y-62854819D01*
X87239047Y-62854819D02*
X87143809Y-62854819D01*
X87143809Y-62854819D02*
X87048571Y-62807200D01*
X87048571Y-62807200D02*
X87000952Y-62759580D01*
X87000952Y-62759580D02*
X86953333Y-62664342D01*
X86953333Y-62664342D02*
X86905714Y-62473866D01*
X86905714Y-62473866D02*
X86905714Y-62235771D01*
X86905714Y-62235771D02*
X86953333Y-62045295D01*
X86953333Y-62045295D02*
X87000952Y-61950057D01*
X87000952Y-61950057D02*
X87048571Y-61902438D01*
X87048571Y-61902438D02*
X87143809Y-61854819D01*
X87905714Y-62854819D02*
X87905714Y-61854819D01*
X88000952Y-62473866D02*
X88286666Y-62854819D01*
X88286666Y-62188152D02*
X87905714Y-62569104D01*
X88314761Y-53924819D02*
X87981428Y-53448628D01*
X87743333Y-53924819D02*
X87743333Y-52924819D01*
X87743333Y-52924819D02*
X88124285Y-52924819D01*
X88124285Y-52924819D02*
X88219523Y-52972438D01*
X88219523Y-52972438D02*
X88267142Y-53020057D01*
X88267142Y-53020057D02*
X88314761Y-53115295D01*
X88314761Y-53115295D02*
X88314761Y-53258152D01*
X88314761Y-53258152D02*
X88267142Y-53353390D01*
X88267142Y-53353390D02*
X88219523Y-53401009D01*
X88219523Y-53401009D02*
X88124285Y-53448628D01*
X88124285Y-53448628D02*
X87743333Y-53448628D01*
X88600476Y-52924819D02*
X88933809Y-53924819D01*
X88933809Y-53924819D02*
X89267142Y-52924819D01*
X90124285Y-53924819D02*
X89552857Y-53924819D01*
X89838571Y-53924819D02*
X89838571Y-52924819D01*
X89838571Y-52924819D02*
X89743333Y-53067676D01*
X89743333Y-53067676D02*
X89648095Y-53162914D01*
X89648095Y-53162914D02*
X89552857Y-53210533D01*
X87838571Y-55424819D02*
X87267143Y-55424819D01*
X87552857Y-55424819D02*
X87552857Y-54424819D01*
X87552857Y-54424819D02*
X87457619Y-54567676D01*
X87457619Y-54567676D02*
X87362381Y-54662914D01*
X87362381Y-54662914D02*
X87267143Y-54710533D01*
X88457619Y-54424819D02*
X88552857Y-54424819D01*
X88552857Y-54424819D02*
X88648095Y-54472438D01*
X88648095Y-54472438D02*
X88695714Y-54520057D01*
X88695714Y-54520057D02*
X88743333Y-54615295D01*
X88743333Y-54615295D02*
X88790952Y-54805771D01*
X88790952Y-54805771D02*
X88790952Y-55043866D01*
X88790952Y-55043866D02*
X88743333Y-55234342D01*
X88743333Y-55234342D02*
X88695714Y-55329580D01*
X88695714Y-55329580D02*
X88648095Y-55377200D01*
X88648095Y-55377200D02*
X88552857Y-55424819D01*
X88552857Y-55424819D02*
X88457619Y-55424819D01*
X88457619Y-55424819D02*
X88362381Y-55377200D01*
X88362381Y-55377200D02*
X88314762Y-55329580D01*
X88314762Y-55329580D02*
X88267143Y-55234342D01*
X88267143Y-55234342D02*
X88219524Y-55043866D01*
X88219524Y-55043866D02*
X88219524Y-54805771D01*
X88219524Y-54805771D02*
X88267143Y-54615295D01*
X88267143Y-54615295D02*
X88314762Y-54520057D01*
X88314762Y-54520057D02*
X88362381Y-54472438D01*
X88362381Y-54472438D02*
X88457619Y-54424819D01*
X89410000Y-54424819D02*
X89505238Y-54424819D01*
X89505238Y-54424819D02*
X89600476Y-54472438D01*
X89600476Y-54472438D02*
X89648095Y-54520057D01*
X89648095Y-54520057D02*
X89695714Y-54615295D01*
X89695714Y-54615295D02*
X89743333Y-54805771D01*
X89743333Y-54805771D02*
X89743333Y-55043866D01*
X89743333Y-55043866D02*
X89695714Y-55234342D01*
X89695714Y-55234342D02*
X89648095Y-55329580D01*
X89648095Y-55329580D02*
X89600476Y-55377200D01*
X89600476Y-55377200D02*
X89505238Y-55424819D01*
X89505238Y-55424819D02*
X89410000Y-55424819D01*
X89410000Y-55424819D02*
X89314762Y-55377200D01*
X89314762Y-55377200D02*
X89267143Y-55329580D01*
X89267143Y-55329580D02*
X89219524Y-55234342D01*
X89219524Y-55234342D02*
X89171905Y-55043866D01*
X89171905Y-55043866D02*
X89171905Y-54805771D01*
X89171905Y-54805771D02*
X89219524Y-54615295D01*
X89219524Y-54615295D02*
X89267143Y-54520057D01*
X89267143Y-54520057D02*
X89314762Y-54472438D01*
X89314762Y-54472438D02*
X89410000Y-54424819D01*
X90171905Y-55424819D02*
X90171905Y-54424819D01*
X90267143Y-55043866D02*
X90552857Y-55424819D01*
X90552857Y-54758152D02*
X90171905Y-55139104D01*
X59873333Y-63049580D02*
X59825714Y-63097200D01*
X59825714Y-63097200D02*
X59682857Y-63144819D01*
X59682857Y-63144819D02*
X59587619Y-63144819D01*
X59587619Y-63144819D02*
X59444762Y-63097200D01*
X59444762Y-63097200D02*
X59349524Y-63001961D01*
X59349524Y-63001961D02*
X59301905Y-62906723D01*
X59301905Y-62906723D02*
X59254286Y-62716247D01*
X59254286Y-62716247D02*
X59254286Y-62573390D01*
X59254286Y-62573390D02*
X59301905Y-62382914D01*
X59301905Y-62382914D02*
X59349524Y-62287676D01*
X59349524Y-62287676D02*
X59444762Y-62192438D01*
X59444762Y-62192438D02*
X59587619Y-62144819D01*
X59587619Y-62144819D02*
X59682857Y-62144819D01*
X59682857Y-62144819D02*
X59825714Y-62192438D01*
X59825714Y-62192438D02*
X59873333Y-62240057D01*
X60825714Y-63144819D02*
X60254286Y-63144819D01*
X60540000Y-63144819D02*
X60540000Y-62144819D01*
X60540000Y-62144819D02*
X60444762Y-62287676D01*
X60444762Y-62287676D02*
X60349524Y-62382914D01*
X60349524Y-62382914D02*
X60254286Y-62430533D01*
X59557142Y-65144819D02*
X58985714Y-65144819D01*
X59271428Y-65144819D02*
X59271428Y-64144819D01*
X59271428Y-64144819D02*
X59176190Y-64287676D01*
X59176190Y-64287676D02*
X59080952Y-64382914D01*
X59080952Y-64382914D02*
X58985714Y-64430533D01*
X60176190Y-64144819D02*
X60271428Y-64144819D01*
X60271428Y-64144819D02*
X60366666Y-64192438D01*
X60366666Y-64192438D02*
X60414285Y-64240057D01*
X60414285Y-64240057D02*
X60461904Y-64335295D01*
X60461904Y-64335295D02*
X60509523Y-64525771D01*
X60509523Y-64525771D02*
X60509523Y-64763866D01*
X60509523Y-64763866D02*
X60461904Y-64954342D01*
X60461904Y-64954342D02*
X60414285Y-65049580D01*
X60414285Y-65049580D02*
X60366666Y-65097200D01*
X60366666Y-65097200D02*
X60271428Y-65144819D01*
X60271428Y-65144819D02*
X60176190Y-65144819D01*
X60176190Y-65144819D02*
X60080952Y-65097200D01*
X60080952Y-65097200D02*
X60033333Y-65049580D01*
X60033333Y-65049580D02*
X59985714Y-64954342D01*
X59985714Y-64954342D02*
X59938095Y-64763866D01*
X59938095Y-64763866D02*
X59938095Y-64525771D01*
X59938095Y-64525771D02*
X59985714Y-64335295D01*
X59985714Y-64335295D02*
X60033333Y-64240057D01*
X60033333Y-64240057D02*
X60080952Y-64192438D01*
X60080952Y-64192438D02*
X60176190Y-64144819D01*
X61366666Y-64478152D02*
X61366666Y-65144819D01*
X60938095Y-64478152D02*
X60938095Y-65001961D01*
X60938095Y-65001961D02*
X60985714Y-65097200D01*
X60985714Y-65097200D02*
X61080952Y-65144819D01*
X61080952Y-65144819D02*
X61223809Y-65144819D01*
X61223809Y-65144819D02*
X61319047Y-65097200D01*
X61319047Y-65097200D02*
X61366666Y-65049580D01*
X74433333Y-51554819D02*
X74100000Y-51078628D01*
X73861905Y-51554819D02*
X73861905Y-50554819D01*
X73861905Y-50554819D02*
X74242857Y-50554819D01*
X74242857Y-50554819D02*
X74338095Y-50602438D01*
X74338095Y-50602438D02*
X74385714Y-50650057D01*
X74385714Y-50650057D02*
X74433333Y-50745295D01*
X74433333Y-50745295D02*
X74433333Y-50888152D01*
X74433333Y-50888152D02*
X74385714Y-50983390D01*
X74385714Y-50983390D02*
X74338095Y-51031009D01*
X74338095Y-51031009D02*
X74242857Y-51078628D01*
X74242857Y-51078628D02*
X73861905Y-51078628D01*
X75385714Y-51554819D02*
X74814286Y-51554819D01*
X75100000Y-51554819D02*
X75100000Y-50554819D01*
X75100000Y-50554819D02*
X75004762Y-50697676D01*
X75004762Y-50697676D02*
X74909524Y-50792914D01*
X74909524Y-50792914D02*
X74814286Y-50840533D01*
X76555714Y-50554819D02*
X77174761Y-50554819D01*
X77174761Y-50554819D02*
X76841428Y-50935771D01*
X76841428Y-50935771D02*
X76984285Y-50935771D01*
X76984285Y-50935771D02*
X77079523Y-50983390D01*
X77079523Y-50983390D02*
X77127142Y-51031009D01*
X77127142Y-51031009D02*
X77174761Y-51126247D01*
X77174761Y-51126247D02*
X77174761Y-51364342D01*
X77174761Y-51364342D02*
X77127142Y-51459580D01*
X77127142Y-51459580D02*
X77079523Y-51507200D01*
X77079523Y-51507200D02*
X76984285Y-51554819D01*
X76984285Y-51554819D02*
X76698571Y-51554819D01*
X76698571Y-51554819D02*
X76603333Y-51507200D01*
X76603333Y-51507200D02*
X76555714Y-51459580D01*
X77746190Y-50983390D02*
X77650952Y-50935771D01*
X77650952Y-50935771D02*
X77603333Y-50888152D01*
X77603333Y-50888152D02*
X77555714Y-50792914D01*
X77555714Y-50792914D02*
X77555714Y-50745295D01*
X77555714Y-50745295D02*
X77603333Y-50650057D01*
X77603333Y-50650057D02*
X77650952Y-50602438D01*
X77650952Y-50602438D02*
X77746190Y-50554819D01*
X77746190Y-50554819D02*
X77936666Y-50554819D01*
X77936666Y-50554819D02*
X78031904Y-50602438D01*
X78031904Y-50602438D02*
X78079523Y-50650057D01*
X78079523Y-50650057D02*
X78127142Y-50745295D01*
X78127142Y-50745295D02*
X78127142Y-50792914D01*
X78127142Y-50792914D02*
X78079523Y-50888152D01*
X78079523Y-50888152D02*
X78031904Y-50935771D01*
X78031904Y-50935771D02*
X77936666Y-50983390D01*
X77936666Y-50983390D02*
X77746190Y-50983390D01*
X77746190Y-50983390D02*
X77650952Y-51031009D01*
X77650952Y-51031009D02*
X77603333Y-51078628D01*
X77603333Y-51078628D02*
X77555714Y-51173866D01*
X77555714Y-51173866D02*
X77555714Y-51364342D01*
X77555714Y-51364342D02*
X77603333Y-51459580D01*
X77603333Y-51459580D02*
X77650952Y-51507200D01*
X77650952Y-51507200D02*
X77746190Y-51554819D01*
X77746190Y-51554819D02*
X77936666Y-51554819D01*
X77936666Y-51554819D02*
X78031904Y-51507200D01*
X78031904Y-51507200D02*
X78079523Y-51459580D01*
X78079523Y-51459580D02*
X78127142Y-51364342D01*
X78127142Y-51364342D02*
X78127142Y-51173866D01*
X78127142Y-51173866D02*
X78079523Y-51078628D01*
X78079523Y-51078628D02*
X78031904Y-51031009D01*
X78031904Y-51031009D02*
X77936666Y-50983390D01*
X78555714Y-51554819D02*
X78555714Y-50554819D01*
X78650952Y-51173866D02*
X78936666Y-51554819D01*
X78936666Y-50888152D02*
X78555714Y-51269104D01*
X71501905Y-64014819D02*
X71501905Y-63014819D01*
X71501905Y-63014819D02*
X71740000Y-63014819D01*
X71740000Y-63014819D02*
X71882857Y-63062438D01*
X71882857Y-63062438D02*
X71978095Y-63157676D01*
X71978095Y-63157676D02*
X72025714Y-63252914D01*
X72025714Y-63252914D02*
X72073333Y-63443390D01*
X72073333Y-63443390D02*
X72073333Y-63586247D01*
X72073333Y-63586247D02*
X72025714Y-63776723D01*
X72025714Y-63776723D02*
X71978095Y-63871961D01*
X71978095Y-63871961D02*
X71882857Y-63967200D01*
X71882857Y-63967200D02*
X71740000Y-64014819D01*
X71740000Y-64014819D02*
X71501905Y-64014819D01*
X72454286Y-63110057D02*
X72501905Y-63062438D01*
X72501905Y-63062438D02*
X72597143Y-63014819D01*
X72597143Y-63014819D02*
X72835238Y-63014819D01*
X72835238Y-63014819D02*
X72930476Y-63062438D01*
X72930476Y-63062438D02*
X72978095Y-63110057D01*
X72978095Y-63110057D02*
X73025714Y-63205295D01*
X73025714Y-63205295D02*
X73025714Y-63300533D01*
X73025714Y-63300533D02*
X72978095Y-63443390D01*
X72978095Y-63443390D02*
X72406667Y-64014819D01*
X72406667Y-64014819D02*
X73025714Y-64014819D01*
X74310476Y-64034819D02*
X74310476Y-63034819D01*
X74310476Y-63034819D02*
X74643809Y-63749104D01*
X74643809Y-63749104D02*
X74977142Y-63034819D01*
X74977142Y-63034819D02*
X74977142Y-64034819D01*
X75881904Y-63368152D02*
X75881904Y-64034819D01*
X75643809Y-62987200D02*
X75405714Y-63701485D01*
X75405714Y-63701485D02*
X76024761Y-63701485D01*
X52693333Y-63354819D02*
X52360000Y-62878628D01*
X52121905Y-63354819D02*
X52121905Y-62354819D01*
X52121905Y-62354819D02*
X52502857Y-62354819D01*
X52502857Y-62354819D02*
X52598095Y-62402438D01*
X52598095Y-62402438D02*
X52645714Y-62450057D01*
X52645714Y-62450057D02*
X52693333Y-62545295D01*
X52693333Y-62545295D02*
X52693333Y-62688152D01*
X52693333Y-62688152D02*
X52645714Y-62783390D01*
X52645714Y-62783390D02*
X52598095Y-62831009D01*
X52598095Y-62831009D02*
X52502857Y-62878628D01*
X52502857Y-62878628D02*
X52121905Y-62878628D01*
X53026667Y-62354819D02*
X53645714Y-62354819D01*
X53645714Y-62354819D02*
X53312381Y-62735771D01*
X53312381Y-62735771D02*
X53455238Y-62735771D01*
X53455238Y-62735771D02*
X53550476Y-62783390D01*
X53550476Y-62783390D02*
X53598095Y-62831009D01*
X53598095Y-62831009D02*
X53645714Y-62926247D01*
X53645714Y-62926247D02*
X53645714Y-63164342D01*
X53645714Y-63164342D02*
X53598095Y-63259580D01*
X53598095Y-63259580D02*
X53550476Y-63307200D01*
X53550476Y-63307200D02*
X53455238Y-63354819D01*
X53455238Y-63354819D02*
X53169524Y-63354819D01*
X53169524Y-63354819D02*
X53074286Y-63307200D01*
X53074286Y-63307200D02*
X53026667Y-63259580D01*
X51814761Y-65434819D02*
X51243333Y-65434819D01*
X51529047Y-65434819D02*
X51529047Y-64434819D01*
X51529047Y-64434819D02*
X51433809Y-64577676D01*
X51433809Y-64577676D02*
X51338571Y-64672914D01*
X51338571Y-64672914D02*
X51243333Y-64720533D01*
X52433809Y-64434819D02*
X52529047Y-64434819D01*
X52529047Y-64434819D02*
X52624285Y-64482438D01*
X52624285Y-64482438D02*
X52671904Y-64530057D01*
X52671904Y-64530057D02*
X52719523Y-64625295D01*
X52719523Y-64625295D02*
X52767142Y-64815771D01*
X52767142Y-64815771D02*
X52767142Y-65053866D01*
X52767142Y-65053866D02*
X52719523Y-65244342D01*
X52719523Y-65244342D02*
X52671904Y-65339580D01*
X52671904Y-65339580D02*
X52624285Y-65387200D01*
X52624285Y-65387200D02*
X52529047Y-65434819D01*
X52529047Y-65434819D02*
X52433809Y-65434819D01*
X52433809Y-65434819D02*
X52338571Y-65387200D01*
X52338571Y-65387200D02*
X52290952Y-65339580D01*
X52290952Y-65339580D02*
X52243333Y-65244342D01*
X52243333Y-65244342D02*
X52195714Y-65053866D01*
X52195714Y-65053866D02*
X52195714Y-64815771D01*
X52195714Y-64815771D02*
X52243333Y-64625295D01*
X52243333Y-64625295D02*
X52290952Y-64530057D01*
X52290952Y-64530057D02*
X52338571Y-64482438D01*
X52338571Y-64482438D02*
X52433809Y-64434819D01*
X53195714Y-65434819D02*
X53195714Y-64434819D01*
X53290952Y-65053866D02*
X53576666Y-65434819D01*
X53576666Y-64768152D02*
X53195714Y-65149104D01*
X62193333Y-72374819D02*
X61717143Y-72374819D01*
X61717143Y-72374819D02*
X61717143Y-71374819D01*
X62479048Y-71470057D02*
X62526667Y-71422438D01*
X62526667Y-71422438D02*
X62621905Y-71374819D01*
X62621905Y-71374819D02*
X62860000Y-71374819D01*
X62860000Y-71374819D02*
X62955238Y-71422438D01*
X62955238Y-71422438D02*
X63002857Y-71470057D01*
X63002857Y-71470057D02*
X63050476Y-71565295D01*
X63050476Y-71565295D02*
X63050476Y-71660533D01*
X63050476Y-71660533D02*
X63002857Y-71803390D01*
X63002857Y-71803390D02*
X62431429Y-72374819D01*
X62431429Y-72374819D02*
X63050476Y-72374819D01*
X64463809Y-71768152D02*
X64463809Y-72434819D01*
X64225714Y-71387200D02*
X63987619Y-72101485D01*
X63987619Y-72101485D02*
X64606666Y-72101485D01*
X64987619Y-72339580D02*
X65035238Y-72387200D01*
X65035238Y-72387200D02*
X64987619Y-72434819D01*
X64987619Y-72434819D02*
X64940000Y-72387200D01*
X64940000Y-72387200D02*
X64987619Y-72339580D01*
X64987619Y-72339580D02*
X64987619Y-72434819D01*
X65368571Y-71434819D02*
X66035237Y-71434819D01*
X66035237Y-71434819D02*
X65606666Y-72434819D01*
X66844761Y-71768152D02*
X66844761Y-72434819D01*
X66416190Y-71768152D02*
X66416190Y-72291961D01*
X66416190Y-72291961D02*
X66463809Y-72387200D01*
X66463809Y-72387200D02*
X66559047Y-72434819D01*
X66559047Y-72434819D02*
X66701904Y-72434819D01*
X66701904Y-72434819D02*
X66797142Y-72387200D01*
X66797142Y-72387200D02*
X66844761Y-72339580D01*
X84283333Y-61054819D02*
X83950000Y-60578628D01*
X83711905Y-61054819D02*
X83711905Y-60054819D01*
X83711905Y-60054819D02*
X84092857Y-60054819D01*
X84092857Y-60054819D02*
X84188095Y-60102438D01*
X84188095Y-60102438D02*
X84235714Y-60150057D01*
X84235714Y-60150057D02*
X84283333Y-60245295D01*
X84283333Y-60245295D02*
X84283333Y-60388152D01*
X84283333Y-60388152D02*
X84235714Y-60483390D01*
X84235714Y-60483390D02*
X84188095Y-60531009D01*
X84188095Y-60531009D02*
X84092857Y-60578628D01*
X84092857Y-60578628D02*
X83711905Y-60578628D01*
X85140476Y-60388152D02*
X85140476Y-61054819D01*
X84902381Y-60007200D02*
X84664286Y-60721485D01*
X84664286Y-60721485D02*
X85283333Y-60721485D01*
X86574761Y-61054819D02*
X86003333Y-61054819D01*
X86289047Y-61054819D02*
X86289047Y-60054819D01*
X86289047Y-60054819D02*
X86193809Y-60197676D01*
X86193809Y-60197676D02*
X86098571Y-60292914D01*
X86098571Y-60292914D02*
X86003333Y-60340533D01*
X87193809Y-60054819D02*
X87289047Y-60054819D01*
X87289047Y-60054819D02*
X87384285Y-60102438D01*
X87384285Y-60102438D02*
X87431904Y-60150057D01*
X87431904Y-60150057D02*
X87479523Y-60245295D01*
X87479523Y-60245295D02*
X87527142Y-60435771D01*
X87527142Y-60435771D02*
X87527142Y-60673866D01*
X87527142Y-60673866D02*
X87479523Y-60864342D01*
X87479523Y-60864342D02*
X87431904Y-60959580D01*
X87431904Y-60959580D02*
X87384285Y-61007200D01*
X87384285Y-61007200D02*
X87289047Y-61054819D01*
X87289047Y-61054819D02*
X87193809Y-61054819D01*
X87193809Y-61054819D02*
X87098571Y-61007200D01*
X87098571Y-61007200D02*
X87050952Y-60959580D01*
X87050952Y-60959580D02*
X87003333Y-60864342D01*
X87003333Y-60864342D02*
X86955714Y-60673866D01*
X86955714Y-60673866D02*
X86955714Y-60435771D01*
X86955714Y-60435771D02*
X87003333Y-60245295D01*
X87003333Y-60245295D02*
X87050952Y-60150057D01*
X87050952Y-60150057D02*
X87098571Y-60102438D01*
X87098571Y-60102438D02*
X87193809Y-60054819D01*
X87955714Y-61054819D02*
X87955714Y-60054819D01*
X88050952Y-60673866D02*
X88336666Y-61054819D01*
X88336666Y-60388152D02*
X87955714Y-60769104D01*
X68643333Y-72174819D02*
X68310000Y-71698628D01*
X68071905Y-72174819D02*
X68071905Y-71174819D01*
X68071905Y-71174819D02*
X68452857Y-71174819D01*
X68452857Y-71174819D02*
X68548095Y-71222438D01*
X68548095Y-71222438D02*
X68595714Y-71270057D01*
X68595714Y-71270057D02*
X68643333Y-71365295D01*
X68643333Y-71365295D02*
X68643333Y-71508152D01*
X68643333Y-71508152D02*
X68595714Y-71603390D01*
X68595714Y-71603390D02*
X68548095Y-71651009D01*
X68548095Y-71651009D02*
X68452857Y-71698628D01*
X68452857Y-71698628D02*
X68071905Y-71698628D01*
X68976667Y-71174819D02*
X69643333Y-71174819D01*
X69643333Y-71174819D02*
X69214762Y-72174819D01*
X70904761Y-72194819D02*
X70333333Y-72194819D01*
X70619047Y-72194819D02*
X70619047Y-71194819D01*
X70619047Y-71194819D02*
X70523809Y-71337676D01*
X70523809Y-71337676D02*
X70428571Y-71432914D01*
X70428571Y-71432914D02*
X70333333Y-71480533D01*
X71523809Y-71194819D02*
X71619047Y-71194819D01*
X71619047Y-71194819D02*
X71714285Y-71242438D01*
X71714285Y-71242438D02*
X71761904Y-71290057D01*
X71761904Y-71290057D02*
X71809523Y-71385295D01*
X71809523Y-71385295D02*
X71857142Y-71575771D01*
X71857142Y-71575771D02*
X71857142Y-71813866D01*
X71857142Y-71813866D02*
X71809523Y-72004342D01*
X71809523Y-72004342D02*
X71761904Y-72099580D01*
X71761904Y-72099580D02*
X71714285Y-72147200D01*
X71714285Y-72147200D02*
X71619047Y-72194819D01*
X71619047Y-72194819D02*
X71523809Y-72194819D01*
X71523809Y-72194819D02*
X71428571Y-72147200D01*
X71428571Y-72147200D02*
X71380952Y-72099580D01*
X71380952Y-72099580D02*
X71333333Y-72004342D01*
X71333333Y-72004342D02*
X71285714Y-71813866D01*
X71285714Y-71813866D02*
X71285714Y-71575771D01*
X71285714Y-71575771D02*
X71333333Y-71385295D01*
X71333333Y-71385295D02*
X71380952Y-71290057D01*
X71380952Y-71290057D02*
X71428571Y-71242438D01*
X71428571Y-71242438D02*
X71523809Y-71194819D01*
X72285714Y-72194819D02*
X72285714Y-71194819D01*
X72380952Y-71813866D02*
X72666666Y-72194819D01*
X72666666Y-71528152D02*
X72285714Y-71909104D01*
X78923333Y-62854819D02*
X78590000Y-62378628D01*
X78351905Y-62854819D02*
X78351905Y-61854819D01*
X78351905Y-61854819D02*
X78732857Y-61854819D01*
X78732857Y-61854819D02*
X78828095Y-61902438D01*
X78828095Y-61902438D02*
X78875714Y-61950057D01*
X78875714Y-61950057D02*
X78923333Y-62045295D01*
X78923333Y-62045295D02*
X78923333Y-62188152D01*
X78923333Y-62188152D02*
X78875714Y-62283390D01*
X78875714Y-62283390D02*
X78828095Y-62331009D01*
X78828095Y-62331009D02*
X78732857Y-62378628D01*
X78732857Y-62378628D02*
X78351905Y-62378628D01*
X79780476Y-61854819D02*
X79590000Y-61854819D01*
X79590000Y-61854819D02*
X79494762Y-61902438D01*
X79494762Y-61902438D02*
X79447143Y-61950057D01*
X79447143Y-61950057D02*
X79351905Y-62092914D01*
X79351905Y-62092914D02*
X79304286Y-62283390D01*
X79304286Y-62283390D02*
X79304286Y-62664342D01*
X79304286Y-62664342D02*
X79351905Y-62759580D01*
X79351905Y-62759580D02*
X79399524Y-62807200D01*
X79399524Y-62807200D02*
X79494762Y-62854819D01*
X79494762Y-62854819D02*
X79685238Y-62854819D01*
X79685238Y-62854819D02*
X79780476Y-62807200D01*
X79780476Y-62807200D02*
X79828095Y-62759580D01*
X79828095Y-62759580D02*
X79875714Y-62664342D01*
X79875714Y-62664342D02*
X79875714Y-62426247D01*
X79875714Y-62426247D02*
X79828095Y-62331009D01*
X79828095Y-62331009D02*
X79780476Y-62283390D01*
X79780476Y-62283390D02*
X79685238Y-62235771D01*
X79685238Y-62235771D02*
X79494762Y-62235771D01*
X79494762Y-62235771D02*
X79399524Y-62283390D01*
X79399524Y-62283390D02*
X79351905Y-62331009D01*
X79351905Y-62331009D02*
X79304286Y-62426247D01*
X81820952Y-62854819D02*
X81249524Y-62854819D01*
X81535238Y-62854819D02*
X81535238Y-61854819D01*
X81535238Y-61854819D02*
X81440000Y-61997676D01*
X81440000Y-61997676D02*
X81344762Y-62092914D01*
X81344762Y-62092914D02*
X81249524Y-62140533D01*
X82249524Y-62854819D02*
X82249524Y-61854819D01*
X82344762Y-62473866D02*
X82630476Y-62854819D01*
X82630476Y-62188152D02*
X82249524Y-62569104D01*
X60883333Y-53634819D02*
X60407143Y-53634819D01*
X60407143Y-53634819D02*
X60407143Y-52634819D01*
X61740476Y-53634819D02*
X61169048Y-53634819D01*
X61454762Y-53634819D02*
X61454762Y-52634819D01*
X61454762Y-52634819D02*
X61359524Y-52777676D01*
X61359524Y-52777676D02*
X61264286Y-52872914D01*
X61264286Y-52872914D02*
X61169048Y-52920533D01*
X59483809Y-54738152D02*
X59483809Y-55404819D01*
X59245714Y-54357200D02*
X59007619Y-55071485D01*
X59007619Y-55071485D02*
X59626666Y-55071485D01*
X60007619Y-55309580D02*
X60055238Y-55357200D01*
X60055238Y-55357200D02*
X60007619Y-55404819D01*
X60007619Y-55404819D02*
X59960000Y-55357200D01*
X59960000Y-55357200D02*
X60007619Y-55309580D01*
X60007619Y-55309580D02*
X60007619Y-55404819D01*
X60388571Y-54404819D02*
X61055237Y-54404819D01*
X61055237Y-54404819D02*
X60626666Y-55404819D01*
X61864761Y-54738152D02*
X61864761Y-55404819D01*
X61436190Y-54738152D02*
X61436190Y-55261961D01*
X61436190Y-55261961D02*
X61483809Y-55357200D01*
X61483809Y-55357200D02*
X61579047Y-55404819D01*
X61579047Y-55404819D02*
X61721904Y-55404819D01*
X61721904Y-55404819D02*
X61817142Y-55357200D01*
X61817142Y-55357200D02*
X61864761Y-55309580D01*
X56043333Y-58319580D02*
X55995714Y-58367200D01*
X55995714Y-58367200D02*
X55852857Y-58414819D01*
X55852857Y-58414819D02*
X55757619Y-58414819D01*
X55757619Y-58414819D02*
X55614762Y-58367200D01*
X55614762Y-58367200D02*
X55519524Y-58271961D01*
X55519524Y-58271961D02*
X55471905Y-58176723D01*
X55471905Y-58176723D02*
X55424286Y-57986247D01*
X55424286Y-57986247D02*
X55424286Y-57843390D01*
X55424286Y-57843390D02*
X55471905Y-57652914D01*
X55471905Y-57652914D02*
X55519524Y-57557676D01*
X55519524Y-57557676D02*
X55614762Y-57462438D01*
X55614762Y-57462438D02*
X55757619Y-57414819D01*
X55757619Y-57414819D02*
X55852857Y-57414819D01*
X55852857Y-57414819D02*
X55995714Y-57462438D01*
X55995714Y-57462438D02*
X56043333Y-57510057D01*
X56376667Y-57414819D02*
X57043333Y-57414819D01*
X57043333Y-57414819D02*
X56614762Y-58414819D01*
X54010952Y-60074819D02*
X53439524Y-60074819D01*
X53725238Y-60074819D02*
X53725238Y-59074819D01*
X53725238Y-59074819D02*
X53630000Y-59217676D01*
X53630000Y-59217676D02*
X53534762Y-59312914D01*
X53534762Y-59312914D02*
X53439524Y-59360533D01*
X54630000Y-59074819D02*
X54725238Y-59074819D01*
X54725238Y-59074819D02*
X54820476Y-59122438D01*
X54820476Y-59122438D02*
X54868095Y-59170057D01*
X54868095Y-59170057D02*
X54915714Y-59265295D01*
X54915714Y-59265295D02*
X54963333Y-59455771D01*
X54963333Y-59455771D02*
X54963333Y-59693866D01*
X54963333Y-59693866D02*
X54915714Y-59884342D01*
X54915714Y-59884342D02*
X54868095Y-59979580D01*
X54868095Y-59979580D02*
X54820476Y-60027200D01*
X54820476Y-60027200D02*
X54725238Y-60074819D01*
X54725238Y-60074819D02*
X54630000Y-60074819D01*
X54630000Y-60074819D02*
X54534762Y-60027200D01*
X54534762Y-60027200D02*
X54487143Y-59979580D01*
X54487143Y-59979580D02*
X54439524Y-59884342D01*
X54439524Y-59884342D02*
X54391905Y-59693866D01*
X54391905Y-59693866D02*
X54391905Y-59455771D01*
X54391905Y-59455771D02*
X54439524Y-59265295D01*
X54439524Y-59265295D02*
X54487143Y-59170057D01*
X54487143Y-59170057D02*
X54534762Y-59122438D01*
X54534762Y-59122438D02*
X54630000Y-59074819D01*
X55582381Y-59074819D02*
X55677619Y-59074819D01*
X55677619Y-59074819D02*
X55772857Y-59122438D01*
X55772857Y-59122438D02*
X55820476Y-59170057D01*
X55820476Y-59170057D02*
X55868095Y-59265295D01*
X55868095Y-59265295D02*
X55915714Y-59455771D01*
X55915714Y-59455771D02*
X55915714Y-59693866D01*
X55915714Y-59693866D02*
X55868095Y-59884342D01*
X55868095Y-59884342D02*
X55820476Y-59979580D01*
X55820476Y-59979580D02*
X55772857Y-60027200D01*
X55772857Y-60027200D02*
X55677619Y-60074819D01*
X55677619Y-60074819D02*
X55582381Y-60074819D01*
X55582381Y-60074819D02*
X55487143Y-60027200D01*
X55487143Y-60027200D02*
X55439524Y-59979580D01*
X55439524Y-59979580D02*
X55391905Y-59884342D01*
X55391905Y-59884342D02*
X55344286Y-59693866D01*
X55344286Y-59693866D02*
X55344286Y-59455771D01*
X55344286Y-59455771D02*
X55391905Y-59265295D01*
X55391905Y-59265295D02*
X55439524Y-59170057D01*
X55439524Y-59170057D02*
X55487143Y-59122438D01*
X55487143Y-59122438D02*
X55582381Y-59074819D01*
X56344286Y-59408152D02*
X56344286Y-60074819D01*
X56344286Y-59503390D02*
X56391905Y-59455771D01*
X56391905Y-59455771D02*
X56487143Y-59408152D01*
X56487143Y-59408152D02*
X56630000Y-59408152D01*
X56630000Y-59408152D02*
X56725238Y-59455771D01*
X56725238Y-59455771D02*
X56772857Y-59551009D01*
X56772857Y-59551009D02*
X56772857Y-60074819D01*
X90913333Y-64659580D02*
X90865714Y-64707200D01*
X90865714Y-64707200D02*
X90722857Y-64754819D01*
X90722857Y-64754819D02*
X90627619Y-64754819D01*
X90627619Y-64754819D02*
X90484762Y-64707200D01*
X90484762Y-64707200D02*
X90389524Y-64611961D01*
X90389524Y-64611961D02*
X90341905Y-64516723D01*
X90341905Y-64516723D02*
X90294286Y-64326247D01*
X90294286Y-64326247D02*
X90294286Y-64183390D01*
X90294286Y-64183390D02*
X90341905Y-63992914D01*
X90341905Y-63992914D02*
X90389524Y-63897676D01*
X90389524Y-63897676D02*
X90484762Y-63802438D01*
X90484762Y-63802438D02*
X90627619Y-63754819D01*
X90627619Y-63754819D02*
X90722857Y-63754819D01*
X90722857Y-63754819D02*
X90865714Y-63802438D01*
X90865714Y-63802438D02*
X90913333Y-63850057D01*
X91818095Y-63754819D02*
X91341905Y-63754819D01*
X91341905Y-63754819D02*
X91294286Y-64231009D01*
X91294286Y-64231009D02*
X91341905Y-64183390D01*
X91341905Y-64183390D02*
X91437143Y-64135771D01*
X91437143Y-64135771D02*
X91675238Y-64135771D01*
X91675238Y-64135771D02*
X91770476Y-64183390D01*
X91770476Y-64183390D02*
X91818095Y-64231009D01*
X91818095Y-64231009D02*
X91865714Y-64326247D01*
X91865714Y-64326247D02*
X91865714Y-64564342D01*
X91865714Y-64564342D02*
X91818095Y-64659580D01*
X91818095Y-64659580D02*
X91770476Y-64707200D01*
X91770476Y-64707200D02*
X91675238Y-64754819D01*
X91675238Y-64754819D02*
X91437143Y-64754819D01*
X91437143Y-64754819D02*
X91341905Y-64707200D01*
X91341905Y-64707200D02*
X91294286Y-64659580D01*
X67893333Y-51459580D02*
X67845714Y-51507200D01*
X67845714Y-51507200D02*
X67702857Y-51554819D01*
X67702857Y-51554819D02*
X67607619Y-51554819D01*
X67607619Y-51554819D02*
X67464762Y-51507200D01*
X67464762Y-51507200D02*
X67369524Y-51411961D01*
X67369524Y-51411961D02*
X67321905Y-51316723D01*
X67321905Y-51316723D02*
X67274286Y-51126247D01*
X67274286Y-51126247D02*
X67274286Y-50983390D01*
X67274286Y-50983390D02*
X67321905Y-50792914D01*
X67321905Y-50792914D02*
X67369524Y-50697676D01*
X67369524Y-50697676D02*
X67464762Y-50602438D01*
X67464762Y-50602438D02*
X67607619Y-50554819D01*
X67607619Y-50554819D02*
X67702857Y-50554819D01*
X67702857Y-50554819D02*
X67845714Y-50602438D01*
X67845714Y-50602438D02*
X67893333Y-50650057D01*
X68750476Y-50888152D02*
X68750476Y-51554819D01*
X68512381Y-50507200D02*
X68274286Y-51221485D01*
X68274286Y-51221485D02*
X68893333Y-51221485D01*
X70420952Y-51554819D02*
X69849524Y-51554819D01*
X70135238Y-51554819D02*
X70135238Y-50554819D01*
X70135238Y-50554819D02*
X70040000Y-50697676D01*
X70040000Y-50697676D02*
X69944762Y-50792914D01*
X69944762Y-50792914D02*
X69849524Y-50840533D01*
X70801905Y-50650057D02*
X70849524Y-50602438D01*
X70849524Y-50602438D02*
X70944762Y-50554819D01*
X70944762Y-50554819D02*
X71182857Y-50554819D01*
X71182857Y-50554819D02*
X71278095Y-50602438D01*
X71278095Y-50602438D02*
X71325714Y-50650057D01*
X71325714Y-50650057D02*
X71373333Y-50745295D01*
X71373333Y-50745295D02*
X71373333Y-50840533D01*
X71373333Y-50840533D02*
X71325714Y-50983390D01*
X71325714Y-50983390D02*
X70754286Y-51554819D01*
X70754286Y-51554819D02*
X71373333Y-51554819D01*
X71992381Y-50554819D02*
X72087619Y-50554819D01*
X72087619Y-50554819D02*
X72182857Y-50602438D01*
X72182857Y-50602438D02*
X72230476Y-50650057D01*
X72230476Y-50650057D02*
X72278095Y-50745295D01*
X72278095Y-50745295D02*
X72325714Y-50935771D01*
X72325714Y-50935771D02*
X72325714Y-51173866D01*
X72325714Y-51173866D02*
X72278095Y-51364342D01*
X72278095Y-51364342D02*
X72230476Y-51459580D01*
X72230476Y-51459580D02*
X72182857Y-51507200D01*
X72182857Y-51507200D02*
X72087619Y-51554819D01*
X72087619Y-51554819D02*
X71992381Y-51554819D01*
X71992381Y-51554819D02*
X71897143Y-51507200D01*
X71897143Y-51507200D02*
X71849524Y-51459580D01*
X71849524Y-51459580D02*
X71801905Y-51364342D01*
X71801905Y-51364342D02*
X71754286Y-51173866D01*
X71754286Y-51173866D02*
X71754286Y-50935771D01*
X71754286Y-50935771D02*
X71801905Y-50745295D01*
X71801905Y-50745295D02*
X71849524Y-50650057D01*
X71849524Y-50650057D02*
X71897143Y-50602438D01*
X71897143Y-50602438D02*
X71992381Y-50554819D01*
X72754286Y-50888152D02*
X72754286Y-51888152D01*
X72754286Y-50935771D02*
X72849524Y-50888152D01*
X72849524Y-50888152D02*
X73040000Y-50888152D01*
X73040000Y-50888152D02*
X73135238Y-50935771D01*
X73135238Y-50935771D02*
X73182857Y-50983390D01*
X73182857Y-50983390D02*
X73230476Y-51078628D01*
X73230476Y-51078628D02*
X73230476Y-51364342D01*
X73230476Y-51364342D02*
X73182857Y-51459580D01*
X73182857Y-51459580D02*
X73135238Y-51507200D01*
X73135238Y-51507200D02*
X73040000Y-51554819D01*
X73040000Y-51554819D02*
X72849524Y-51554819D01*
X72849524Y-51554819D02*
X72754286Y-51507200D01*
X87974761Y-70694819D02*
X87641428Y-70218628D01*
X87403333Y-70694819D02*
X87403333Y-69694819D01*
X87403333Y-69694819D02*
X87784285Y-69694819D01*
X87784285Y-69694819D02*
X87879523Y-69742438D01*
X87879523Y-69742438D02*
X87927142Y-69790057D01*
X87927142Y-69790057D02*
X87974761Y-69885295D01*
X87974761Y-69885295D02*
X87974761Y-70028152D01*
X87974761Y-70028152D02*
X87927142Y-70123390D01*
X87927142Y-70123390D02*
X87879523Y-70171009D01*
X87879523Y-70171009D02*
X87784285Y-70218628D01*
X87784285Y-70218628D02*
X87403333Y-70218628D01*
X88260476Y-69694819D02*
X88593809Y-70694819D01*
X88593809Y-70694819D02*
X88927142Y-69694819D01*
X89212857Y-69790057D02*
X89260476Y-69742438D01*
X89260476Y-69742438D02*
X89355714Y-69694819D01*
X89355714Y-69694819D02*
X89593809Y-69694819D01*
X89593809Y-69694819D02*
X89689047Y-69742438D01*
X89689047Y-69742438D02*
X89736666Y-69790057D01*
X89736666Y-69790057D02*
X89784285Y-69885295D01*
X89784285Y-69885295D02*
X89784285Y-69980533D01*
X89784285Y-69980533D02*
X89736666Y-70123390D01*
X89736666Y-70123390D02*
X89165238Y-70694819D01*
X89165238Y-70694819D02*
X89784285Y-70694819D01*
X87588571Y-72044819D02*
X87017143Y-72044819D01*
X87302857Y-72044819D02*
X87302857Y-71044819D01*
X87302857Y-71044819D02*
X87207619Y-71187676D01*
X87207619Y-71187676D02*
X87112381Y-71282914D01*
X87112381Y-71282914D02*
X87017143Y-71330533D01*
X88207619Y-71044819D02*
X88302857Y-71044819D01*
X88302857Y-71044819D02*
X88398095Y-71092438D01*
X88398095Y-71092438D02*
X88445714Y-71140057D01*
X88445714Y-71140057D02*
X88493333Y-71235295D01*
X88493333Y-71235295D02*
X88540952Y-71425771D01*
X88540952Y-71425771D02*
X88540952Y-71663866D01*
X88540952Y-71663866D02*
X88493333Y-71854342D01*
X88493333Y-71854342D02*
X88445714Y-71949580D01*
X88445714Y-71949580D02*
X88398095Y-71997200D01*
X88398095Y-71997200D02*
X88302857Y-72044819D01*
X88302857Y-72044819D02*
X88207619Y-72044819D01*
X88207619Y-72044819D02*
X88112381Y-71997200D01*
X88112381Y-71997200D02*
X88064762Y-71949580D01*
X88064762Y-71949580D02*
X88017143Y-71854342D01*
X88017143Y-71854342D02*
X87969524Y-71663866D01*
X87969524Y-71663866D02*
X87969524Y-71425771D01*
X87969524Y-71425771D02*
X88017143Y-71235295D01*
X88017143Y-71235295D02*
X88064762Y-71140057D01*
X88064762Y-71140057D02*
X88112381Y-71092438D01*
X88112381Y-71092438D02*
X88207619Y-71044819D01*
X89160000Y-71044819D02*
X89255238Y-71044819D01*
X89255238Y-71044819D02*
X89350476Y-71092438D01*
X89350476Y-71092438D02*
X89398095Y-71140057D01*
X89398095Y-71140057D02*
X89445714Y-71235295D01*
X89445714Y-71235295D02*
X89493333Y-71425771D01*
X89493333Y-71425771D02*
X89493333Y-71663866D01*
X89493333Y-71663866D02*
X89445714Y-71854342D01*
X89445714Y-71854342D02*
X89398095Y-71949580D01*
X89398095Y-71949580D02*
X89350476Y-71997200D01*
X89350476Y-71997200D02*
X89255238Y-72044819D01*
X89255238Y-72044819D02*
X89160000Y-72044819D01*
X89160000Y-72044819D02*
X89064762Y-71997200D01*
X89064762Y-71997200D02*
X89017143Y-71949580D01*
X89017143Y-71949580D02*
X88969524Y-71854342D01*
X88969524Y-71854342D02*
X88921905Y-71663866D01*
X88921905Y-71663866D02*
X88921905Y-71425771D01*
X88921905Y-71425771D02*
X88969524Y-71235295D01*
X88969524Y-71235295D02*
X89017143Y-71140057D01*
X89017143Y-71140057D02*
X89064762Y-71092438D01*
X89064762Y-71092438D02*
X89160000Y-71044819D01*
X89921905Y-72044819D02*
X89921905Y-71044819D01*
X90017143Y-71663866D02*
X90302857Y-72044819D01*
X90302857Y-71378152D02*
X89921905Y-71759104D01*
X98613333Y-66399580D02*
X98565714Y-66447200D01*
X98565714Y-66447200D02*
X98422857Y-66494819D01*
X98422857Y-66494819D02*
X98327619Y-66494819D01*
X98327619Y-66494819D02*
X98184762Y-66447200D01*
X98184762Y-66447200D02*
X98089524Y-66351961D01*
X98089524Y-66351961D02*
X98041905Y-66256723D01*
X98041905Y-66256723D02*
X97994286Y-66066247D01*
X97994286Y-66066247D02*
X97994286Y-65923390D01*
X97994286Y-65923390D02*
X98041905Y-65732914D01*
X98041905Y-65732914D02*
X98089524Y-65637676D01*
X98089524Y-65637676D02*
X98184762Y-65542438D01*
X98184762Y-65542438D02*
X98327619Y-65494819D01*
X98327619Y-65494819D02*
X98422857Y-65494819D01*
X98422857Y-65494819D02*
X98565714Y-65542438D01*
X98565714Y-65542438D02*
X98613333Y-65590057D01*
X98946667Y-65494819D02*
X99565714Y-65494819D01*
X99565714Y-65494819D02*
X99232381Y-65875771D01*
X99232381Y-65875771D02*
X99375238Y-65875771D01*
X99375238Y-65875771D02*
X99470476Y-65923390D01*
X99470476Y-65923390D02*
X99518095Y-65971009D01*
X99518095Y-65971009D02*
X99565714Y-66066247D01*
X99565714Y-66066247D02*
X99565714Y-66304342D01*
X99565714Y-66304342D02*
X99518095Y-66399580D01*
X99518095Y-66399580D02*
X99470476Y-66447200D01*
X99470476Y-66447200D02*
X99375238Y-66494819D01*
X99375238Y-66494819D02*
X99089524Y-66494819D01*
X99089524Y-66494819D02*
X98994286Y-66447200D01*
X98994286Y-66447200D02*
X98946667Y-66399580D01*
X78993333Y-61054819D02*
X78660000Y-60578628D01*
X78421905Y-61054819D02*
X78421905Y-60054819D01*
X78421905Y-60054819D02*
X78802857Y-60054819D01*
X78802857Y-60054819D02*
X78898095Y-60102438D01*
X78898095Y-60102438D02*
X78945714Y-60150057D01*
X78945714Y-60150057D02*
X78993333Y-60245295D01*
X78993333Y-60245295D02*
X78993333Y-60388152D01*
X78993333Y-60388152D02*
X78945714Y-60483390D01*
X78945714Y-60483390D02*
X78898095Y-60531009D01*
X78898095Y-60531009D02*
X78802857Y-60578628D01*
X78802857Y-60578628D02*
X78421905Y-60578628D01*
X79374286Y-60150057D02*
X79421905Y-60102438D01*
X79421905Y-60102438D02*
X79517143Y-60054819D01*
X79517143Y-60054819D02*
X79755238Y-60054819D01*
X79755238Y-60054819D02*
X79850476Y-60102438D01*
X79850476Y-60102438D02*
X79898095Y-60150057D01*
X79898095Y-60150057D02*
X79945714Y-60245295D01*
X79945714Y-60245295D02*
X79945714Y-60340533D01*
X79945714Y-60340533D02*
X79898095Y-60483390D01*
X79898095Y-60483390D02*
X79326667Y-61054819D01*
X79326667Y-61054819D02*
X79945714Y-61054819D01*
X81740952Y-61054819D02*
X81169524Y-61054819D01*
X81455238Y-61054819D02*
X81455238Y-60054819D01*
X81455238Y-60054819D02*
X81360000Y-60197676D01*
X81360000Y-60197676D02*
X81264762Y-60292914D01*
X81264762Y-60292914D02*
X81169524Y-60340533D01*
X82169524Y-61054819D02*
X82169524Y-60054819D01*
X82264762Y-60673866D02*
X82550476Y-61054819D01*
X82550476Y-60388152D02*
X82169524Y-60769104D01*
X95803333Y-61729580D02*
X95755714Y-61777200D01*
X95755714Y-61777200D02*
X95612857Y-61824819D01*
X95612857Y-61824819D02*
X95517619Y-61824819D01*
X95517619Y-61824819D02*
X95374762Y-61777200D01*
X95374762Y-61777200D02*
X95279524Y-61681961D01*
X95279524Y-61681961D02*
X95231905Y-61586723D01*
X95231905Y-61586723D02*
X95184286Y-61396247D01*
X95184286Y-61396247D02*
X95184286Y-61253390D01*
X95184286Y-61253390D02*
X95231905Y-61062914D01*
X95231905Y-61062914D02*
X95279524Y-60967676D01*
X95279524Y-60967676D02*
X95374762Y-60872438D01*
X95374762Y-60872438D02*
X95517619Y-60824819D01*
X95517619Y-60824819D02*
X95612857Y-60824819D01*
X95612857Y-60824819D02*
X95755714Y-60872438D01*
X95755714Y-60872438D02*
X95803333Y-60920057D01*
X96184286Y-60920057D02*
X96231905Y-60872438D01*
X96231905Y-60872438D02*
X96327143Y-60824819D01*
X96327143Y-60824819D02*
X96565238Y-60824819D01*
X96565238Y-60824819D02*
X96660476Y-60872438D01*
X96660476Y-60872438D02*
X96708095Y-60920057D01*
X96708095Y-60920057D02*
X96755714Y-61015295D01*
X96755714Y-61015295D02*
X96755714Y-61110533D01*
X96755714Y-61110533D02*
X96708095Y-61253390D01*
X96708095Y-61253390D02*
X96136667Y-61824819D01*
X96136667Y-61824819D02*
X96755714Y-61824819D01*
X74173333Y-72109580D02*
X74125714Y-72157200D01*
X74125714Y-72157200D02*
X73982857Y-72204819D01*
X73982857Y-72204819D02*
X73887619Y-72204819D01*
X73887619Y-72204819D02*
X73744762Y-72157200D01*
X73744762Y-72157200D02*
X73649524Y-72061961D01*
X73649524Y-72061961D02*
X73601905Y-71966723D01*
X73601905Y-71966723D02*
X73554286Y-71776247D01*
X73554286Y-71776247D02*
X73554286Y-71633390D01*
X73554286Y-71633390D02*
X73601905Y-71442914D01*
X73601905Y-71442914D02*
X73649524Y-71347676D01*
X73649524Y-71347676D02*
X73744762Y-71252438D01*
X73744762Y-71252438D02*
X73887619Y-71204819D01*
X73887619Y-71204819D02*
X73982857Y-71204819D01*
X73982857Y-71204819D02*
X74125714Y-71252438D01*
X74125714Y-71252438D02*
X74173333Y-71300057D01*
X75030476Y-71204819D02*
X74840000Y-71204819D01*
X74840000Y-71204819D02*
X74744762Y-71252438D01*
X74744762Y-71252438D02*
X74697143Y-71300057D01*
X74697143Y-71300057D02*
X74601905Y-71442914D01*
X74601905Y-71442914D02*
X74554286Y-71633390D01*
X74554286Y-71633390D02*
X74554286Y-72014342D01*
X74554286Y-72014342D02*
X74601905Y-72109580D01*
X74601905Y-72109580D02*
X74649524Y-72157200D01*
X74649524Y-72157200D02*
X74744762Y-72204819D01*
X74744762Y-72204819D02*
X74935238Y-72204819D01*
X74935238Y-72204819D02*
X75030476Y-72157200D01*
X75030476Y-72157200D02*
X75078095Y-72109580D01*
X75078095Y-72109580D02*
X75125714Y-72014342D01*
X75125714Y-72014342D02*
X75125714Y-71776247D01*
X75125714Y-71776247D02*
X75078095Y-71681009D01*
X75078095Y-71681009D02*
X75030476Y-71633390D01*
X75030476Y-71633390D02*
X74935238Y-71585771D01*
X74935238Y-71585771D02*
X74744762Y-71585771D01*
X74744762Y-71585771D02*
X74649524Y-71633390D01*
X74649524Y-71633390D02*
X74601905Y-71681009D01*
X74601905Y-71681009D02*
X74554286Y-71776247D01*
X76640952Y-72204819D02*
X76069524Y-72204819D01*
X76355238Y-72204819D02*
X76355238Y-71204819D01*
X76355238Y-71204819D02*
X76260000Y-71347676D01*
X76260000Y-71347676D02*
X76164762Y-71442914D01*
X76164762Y-71442914D02*
X76069524Y-71490533D01*
X77021905Y-71300057D02*
X77069524Y-71252438D01*
X77069524Y-71252438D02*
X77164762Y-71204819D01*
X77164762Y-71204819D02*
X77402857Y-71204819D01*
X77402857Y-71204819D02*
X77498095Y-71252438D01*
X77498095Y-71252438D02*
X77545714Y-71300057D01*
X77545714Y-71300057D02*
X77593333Y-71395295D01*
X77593333Y-71395295D02*
X77593333Y-71490533D01*
X77593333Y-71490533D02*
X77545714Y-71633390D01*
X77545714Y-71633390D02*
X76974286Y-72204819D01*
X76974286Y-72204819D02*
X77593333Y-72204819D01*
X78212381Y-71204819D02*
X78307619Y-71204819D01*
X78307619Y-71204819D02*
X78402857Y-71252438D01*
X78402857Y-71252438D02*
X78450476Y-71300057D01*
X78450476Y-71300057D02*
X78498095Y-71395295D01*
X78498095Y-71395295D02*
X78545714Y-71585771D01*
X78545714Y-71585771D02*
X78545714Y-71823866D01*
X78545714Y-71823866D02*
X78498095Y-72014342D01*
X78498095Y-72014342D02*
X78450476Y-72109580D01*
X78450476Y-72109580D02*
X78402857Y-72157200D01*
X78402857Y-72157200D02*
X78307619Y-72204819D01*
X78307619Y-72204819D02*
X78212381Y-72204819D01*
X78212381Y-72204819D02*
X78117143Y-72157200D01*
X78117143Y-72157200D02*
X78069524Y-72109580D01*
X78069524Y-72109580D02*
X78021905Y-72014342D01*
X78021905Y-72014342D02*
X77974286Y-71823866D01*
X77974286Y-71823866D02*
X77974286Y-71585771D01*
X77974286Y-71585771D02*
X78021905Y-71395295D01*
X78021905Y-71395295D02*
X78069524Y-71300057D01*
X78069524Y-71300057D02*
X78117143Y-71252438D01*
X78117143Y-71252438D02*
X78212381Y-71204819D01*
X78974286Y-71538152D02*
X78974286Y-72538152D01*
X78974286Y-71585771D02*
X79069524Y-71538152D01*
X79069524Y-71538152D02*
X79260000Y-71538152D01*
X79260000Y-71538152D02*
X79355238Y-71585771D01*
X79355238Y-71585771D02*
X79402857Y-71633390D01*
X79402857Y-71633390D02*
X79450476Y-71728628D01*
X79450476Y-71728628D02*
X79450476Y-72014342D01*
X79450476Y-72014342D02*
X79402857Y-72109580D01*
X79402857Y-72109580D02*
X79355238Y-72157200D01*
X79355238Y-72157200D02*
X79260000Y-72204819D01*
X79260000Y-72204819D02*
X79069524Y-72204819D01*
X79069524Y-72204819D02*
X78974286Y-72157200D01*
D12*
%TO.C,U1*%
X67020000Y-63530000D02*
X67020000Y-63050000D01*
X67500000Y-63050000D01*
X67020000Y-63530000D01*
G36*
X67020000Y-63530000D02*
G01*
X67020000Y-63050000D01*
X67500000Y-63050000D01*
X67020000Y-63530000D01*
G37*
X66500000Y-59865000D02*
X63500000Y-59865000D01*
X66500000Y-63135000D02*
X63500000Y-63135000D01*
%TO.C,D1*%
X78010000Y-55350000D02*
X71000000Y-55350000D01*
X78010000Y-58650000D02*
X71000000Y-58650000D01*
X78010000Y-58650000D02*
X78010000Y-55350000D01*
%TO.C,R5*%
X85772936Y-63265000D02*
X86227064Y-63265000D01*
X85772936Y-64735000D02*
X86227064Y-64735000D01*
D13*
%TO.C,RV1*%
X80000000Y-51500000D02*
G75*
G02*
X81000000Y-50500000I999999J1D01*
G01*
X86000000Y-50500000D02*
G75*
G02*
X87000000Y-51500000I0J-1000000D01*
G01*
X80000000Y-57500000D02*
X80000000Y-51500000D01*
X80000000Y-57500000D02*
X83500000Y-57500000D01*
X81000000Y-50500000D02*
X83500000Y-50500000D01*
X86000000Y-50500000D02*
X83500000Y-50500000D01*
X87000000Y-57500000D02*
X83500000Y-57500000D01*
X87000000Y-57500000D02*
X87000000Y-51500000D01*
D12*
%TO.C,C1*%
X57265000Y-63738748D02*
X57265000Y-64261252D01*
X58735000Y-63738748D02*
X58735000Y-64261252D01*
%TO.C,R1*%
X76227064Y-52165000D02*
X75772936Y-52165000D01*
X76227064Y-53635000D02*
X75772936Y-53635000D01*
%TO.C,D2*%
X68990000Y-64350000D02*
X68990000Y-67650000D01*
X68990000Y-64350000D02*
X76000000Y-64350000D01*
X68990000Y-67650000D02*
X76000000Y-67650000D01*
%TO.C,R3*%
X54265000Y-64227064D02*
X54265000Y-63772936D01*
X55735000Y-64227064D02*
X55735000Y-63772936D01*
%TO.C,L2*%
X62300000Y-65150000D02*
X62300000Y-70850000D01*
X62300000Y-70850000D02*
X63800000Y-70850000D01*
X63800000Y-65150000D02*
X62300000Y-65150000D01*
X66200000Y-65150000D02*
X67700000Y-65150000D01*
X67700000Y-65150000D02*
X67700000Y-70850000D01*
X67700000Y-70850000D02*
X66200000Y-70850000D01*
%TO.C,R4*%
X85772936Y-58265000D02*
X86227064Y-58265000D01*
X85772936Y-59735000D02*
X86227064Y-59735000D01*
%TO.C,R7*%
X70772936Y-69205000D02*
X71227064Y-69205000D01*
X70772936Y-70675000D02*
X71227064Y-70675000D01*
%TO.C,R6*%
X80772936Y-63265000D02*
X81227064Y-63265000D01*
X80772936Y-64735000D02*
X81227064Y-64735000D01*
%TO.C,L1*%
X62300000Y-52150000D02*
X62300000Y-57850000D01*
X62300000Y-57850000D02*
X63800000Y-57850000D01*
X63800000Y-52150000D02*
X62300000Y-52150000D01*
X66200000Y-52150000D02*
X67700000Y-52150000D01*
X67700000Y-52150000D02*
X67700000Y-57850000D01*
X67700000Y-57850000D02*
X66200000Y-57850000D01*
%TO.C,C7*%
X57265000Y-58738748D02*
X57265000Y-59261252D01*
X58735000Y-58738748D02*
X58735000Y-59261252D01*
%TO.C,C5*%
X90738748Y-65265000D02*
X91261252Y-65265000D01*
X90738748Y-66735000D02*
X91261252Y-66735000D01*
%TO.C,C4*%
X70738748Y-52085000D02*
X71261252Y-52085000D01*
X70738748Y-53555000D02*
X71261252Y-53555000D01*
D13*
%TO.C,RV2*%
X80000000Y-66500000D02*
G75*
G02*
X81000000Y-65500000I999999J1D01*
G01*
X86000000Y-65500000D02*
G75*
G02*
X87000000Y-66500000I0J-1000000D01*
G01*
X80000000Y-72500000D02*
X80000000Y-66500000D01*
X80000000Y-72500000D02*
X83500000Y-72500000D01*
X81000000Y-65500000D02*
X83500000Y-65500000D01*
X86000000Y-65500000D02*
X83500000Y-65500000D01*
X87000000Y-72500000D02*
X83500000Y-72500000D01*
X87000000Y-72500000D02*
X87000000Y-66500000D01*
D12*
%TO.C,C3*%
X96261252Y-65265000D02*
X95738748Y-65265000D01*
X96261252Y-66735000D02*
X95738748Y-66735000D01*
%TO.C,R2*%
X80772936Y-58265000D02*
X81227064Y-58265000D01*
X80772936Y-59735000D02*
X81227064Y-59735000D01*
%TO.C,C2*%
X96261252Y-62265000D02*
X95738748Y-62265000D01*
X96261252Y-63735000D02*
X95738748Y-63735000D01*
%TO.C,C6*%
X75738748Y-69125000D02*
X76261252Y-69125000D01*
X75738748Y-70595000D02*
X76261252Y-70595000D01*
%TD*%
M02*
