%TF.GenerationSoftware,KiCad,Pcbnew,8.0.4*%
%TF.CreationDate,2025-01-04T18:22:50+00:00*%
%TF.ProjectId,r1283_power,72313238-335f-4706-9f77-65722e6b6963,rev?*%
%TF.SameCoordinates,Original*%
%TF.FileFunction,Copper,L1,Top*%
%TF.FilePolarity,Positive*%
%FSLAX46Y46*%
G04 Gerber Fmt 4.6, Leading zero omitted, Abs format (unit mm)*
G04 Created by KiCad (PCBNEW 8.0.4) date 2025-01-04 18:22:50*
%MOMM*%
%LPD*%
G01*
G04 APERTURE LIST*
G04 Aperture macros list*
%AMRoundRect*
0 Rectangle with rounded corners*
0 $1 Rounding radius*
0 $2 $3 $4 $5 $6 $7 $8 $9 X,Y pos of 4 corners*
0 Add a 4 corners polygon primitive as box body*
4,1,4,$2,$3,$4,$5,$6,$7,$8,$9,$2,$3,0*
0 Add four circle primitives for the rounded corners*
1,1,$1+$1,$2,$3*
1,1,$1+$1,$4,$5*
1,1,$1+$1,$6,$7*
1,1,$1+$1,$8,$9*
0 Add four rect primitives between the rounded corners*
20,1,$1+$1,$2,$3,$4,$5,0*
20,1,$1+$1,$4,$5,$6,$7,0*
20,1,$1+$1,$6,$7,$8,$9,0*
20,1,$1+$1,$8,$9,$2,$3,0*%
%AMOutline5P*
0 Free polygon, 5 corners , with rotation*
0 The origin of the aperture is its center*
0 number of corners: always 5*
0 $1 to $10 corner X, Y*
0 $11 Rotation angle, in degrees counterclockwise*
0 create outline with 5 corners*
4,1,5,$1,$2,$3,$4,$5,$6,$7,$8,$9,$10,$1,$2,$11*%
%AMOutline6P*
0 Free polygon, 6 corners , with rotation*
0 The origin of the aperture is its center*
0 number of corners: always 6*
0 $1 to $12 corner X, Y*
0 $13 Rotation angle, in degrees counterclockwise*
0 create outline with 6 corners*
4,1,6,$1,$2,$3,$4,$5,$6,$7,$8,$9,$10,$11,$12,$1,$2,$13*%
%AMOutline7P*
0 Free polygon, 7 corners , with rotation*
0 The origin of the aperture is its center*
0 number of corners: always 7*
0 $1 to $14 corner X, Y*
0 $15 Rotation angle, in degrees counterclockwise*
0 create outline with 7 corners*
4,1,7,$1,$2,$3,$4,$5,$6,$7,$8,$9,$10,$11,$12,$13,$14,$1,$2,$15*%
%AMOutline8P*
0 Free polygon, 8 corners , with rotation*
0 The origin of the aperture is its center*
0 number of corners: always 8*
0 $1 to $16 corner X, Y*
0 $17 Rotation angle, in degrees counterclockwise*
0 create outline with 8 corners*
4,1,8,$1,$2,$3,$4,$5,$6,$7,$8,$9,$10,$11,$12,$13,$14,$15,$16,$1,$2,$17*%
G04 Aperture macros list end*
%TA.AperFunction,HeatsinkPad*%
%ADD10Outline5P,-0.800000X0.930000X-0.480000X1.250000X0.800000X1.250000X0.800000X-1.250000X-0.800000X-1.250000X180.000000*%
%TD*%
%TA.AperFunction,SMDPad,CuDef*%
%ADD11RoundRect,0.062500X0.362500X0.062500X-0.362500X0.062500X-0.362500X-0.062500X0.362500X-0.062500X0*%
%TD*%
%TA.AperFunction,SMDPad,CuDef*%
%ADD12RoundRect,0.250000X1.500000X0.650000X-1.500000X0.650000X-1.500000X-0.650000X1.500000X-0.650000X0*%
%TD*%
%TA.AperFunction,SMDPad,CuDef*%
%ADD13RoundRect,0.250000X-0.350000X-0.450000X0.350000X-0.450000X0.350000X0.450000X-0.350000X0.450000X0*%
%TD*%
%TA.AperFunction,ComponentPad*%
%ADD14C,1.800000*%
%TD*%
%TA.AperFunction,SMDPad,CuDef*%
%ADD15RoundRect,0.250000X-0.475000X0.337500X-0.475000X-0.337500X0.475000X-0.337500X0.475000X0.337500X0*%
%TD*%
%TA.AperFunction,SMDPad,CuDef*%
%ADD16RoundRect,0.250000X0.350000X0.450000X-0.350000X0.450000X-0.350000X-0.450000X0.350000X-0.450000X0*%
%TD*%
%TA.AperFunction,SMDPad,CuDef*%
%ADD17RoundRect,0.250000X-1.500000X-0.650000X1.500000X-0.650000X1.500000X0.650000X-1.500000X0.650000X0*%
%TD*%
%TA.AperFunction,SMDPad,CuDef*%
%ADD18RoundRect,0.250000X0.450000X-0.350000X0.450000X0.350000X-0.450000X0.350000X-0.450000X-0.350000X0*%
%TD*%
%TA.AperFunction,SMDPad,CuDef*%
%ADD19R,1.600000X1.900000*%
%TD*%
%TA.AperFunction,SMDPad,CuDef*%
%ADD20RoundRect,0.250000X-0.337500X-0.475000X0.337500X-0.475000X0.337500X0.475000X-0.337500X0.475000X0*%
%TD*%
%TA.AperFunction,SMDPad,CuDef*%
%ADD21RoundRect,0.250000X0.337500X0.475000X-0.337500X0.475000X-0.337500X-0.475000X0.337500X-0.475000X0*%
%TD*%
%TA.AperFunction,ComponentPad*%
%ADD22RoundRect,0.250000X-0.500000X-1.750000X0.500000X-1.750000X0.500000X1.750000X-0.500000X1.750000X0*%
%TD*%
%TA.AperFunction,ComponentPad*%
%ADD23RoundRect,0.250000X0.500000X1.750000X-0.500000X1.750000X-0.500000X-1.750000X0.500000X-1.750000X0*%
%TD*%
%TA.AperFunction,ViaPad*%
%ADD24C,0.600000*%
%TD*%
%TA.AperFunction,Conductor*%
%ADD25C,0.750000*%
%TD*%
%TA.AperFunction,Conductor*%
%ADD26C,0.250000*%
%TD*%
%TA.AperFunction,Conductor*%
%ADD27C,0.200000*%
%TD*%
G04 APERTURE END LIST*
D10*
%TO.P,U1,EP,GND*%
%TO.N,GND1*%
X65000000Y-61500000D03*
D11*
%TO.P,U1,12,PGND*%
X63575000Y-62750000D03*
%TO.P,U1,11,PVcc*%
%TO.N,+5V*%
X63575000Y-62250000D03*
%TO.P,U1,10,GND*%
%TO.N,GND1*%
X63575000Y-61750000D03*
%TO.P,U1,9,Vfb1*%
%TO.N,Net-(U1-Vfb1)*%
X63575000Y-61250000D03*
%TO.P,U1,8,Vcc*%
%TO.N,+5V*%
X63575000Y-60750000D03*
%TO.P,U1,7,Vref*%
%TO.N,Net-(U1-Vref)*%
X63575000Y-60250000D03*
%TO.P,U1,6,Vfb2*%
%TO.N,Net-(U1-Vfb2)*%
X66425000Y-60250000D03*
%TO.P,U1,5,CE*%
%TO.N,/ENABLE*%
X66425000Y-60750000D03*
%TO.P,U1,4,VOutN*%
%TO.N,/VOUT_NEG*%
X66425000Y-61250000D03*
%TO.P,U1,3,Lx2*%
%TO.N,/Lx2*%
X66425000Y-61750000D03*
%TO.P,U1,2,Lx1*%
%TO.N,/Lx1*%
X66425000Y-62250000D03*
%TO.P,U1,1,NC*%
%TO.N,unconnected-(U1-NC-Pad1)*%
X66425000Y-62750000D03*
%TD*%
D12*
%TO.P,D1,2,A*%
%TO.N,/Lx1*%
X71000000Y-57000000D03*
%TO.P,D1,1,K*%
%TO.N,/VOUT_POS*%
X76000000Y-57000000D03*
%TD*%
D13*
%TO.P,R5,2*%
%TO.N,Net-(R5-Pad2)*%
X87000000Y-64000000D03*
%TO.P,R5,1*%
%TO.N,/VOUT_NEG*%
X85000000Y-64000000D03*
%TD*%
D14*
%TO.P,RV1,3,3*%
%TO.N,Net-(U1-Vfb1)*%
X86040000Y-56540000D03*
%TO.P,RV1,2,2*%
X83500000Y-51460000D03*
%TO.P,RV1,1,1*%
%TO.N,Net-(R1-Pad2)*%
X80960000Y-56540000D03*
%TD*%
D15*
%TO.P,C1,2*%
%TO.N,GND1*%
X58000000Y-65037500D03*
%TO.P,C1,1*%
%TO.N,+5V*%
X58000000Y-62962500D03*
%TD*%
D16*
%TO.P,R1,2*%
%TO.N,Net-(R1-Pad2)*%
X75000000Y-52900000D03*
%TO.P,R1,1*%
%TO.N,/VOUT_POS*%
X77000000Y-52900000D03*
%TD*%
D17*
%TO.P,D2,2,A*%
%TO.N,/VOUT_NEG*%
X76000000Y-66000000D03*
%TO.P,D2,1,K*%
%TO.N,/Lx2*%
X71000000Y-66000000D03*
%TD*%
D18*
%TO.P,R3,2*%
%TO.N,/ENABLE*%
X55000000Y-63000000D03*
%TO.P,R3,1*%
%TO.N,+5V*%
X55000000Y-65000000D03*
%TD*%
D19*
%TO.P,L2,2,2*%
%TO.N,GND1*%
X65000000Y-70050000D03*
%TO.P,L2,1,1*%
%TO.N,/Lx2*%
X65000000Y-65950000D03*
%TD*%
D13*
%TO.P,R4,2*%
%TO.N,GND1*%
X87000000Y-59000000D03*
%TO.P,R4,1*%
%TO.N,Net-(U1-Vfb1)*%
X85000000Y-59000000D03*
%TD*%
%TO.P,R7,2*%
%TO.N,Net-(U1-Vref)*%
X72000000Y-69940000D03*
%TO.P,R7,1*%
%TO.N,Net-(U1-Vfb2)*%
X70000000Y-69940000D03*
%TD*%
%TO.P,R6,2*%
%TO.N,Net-(C6-Pad1)*%
X82000000Y-64000000D03*
%TO.P,R6,1*%
%TO.N,/VOUT_NEG*%
X80000000Y-64000000D03*
%TD*%
D19*
%TO.P,L1,2,2*%
%TO.N,/Lx1*%
X65000000Y-57050000D03*
%TO.P,L1,1,1*%
%TO.N,+5V*%
X65000000Y-52950000D03*
%TD*%
D15*
%TO.P,C7,2*%
%TO.N,GND1*%
X58000000Y-60037500D03*
%TO.P,C7,1*%
%TO.N,Net-(U1-Vref)*%
X58000000Y-57962500D03*
%TD*%
D20*
%TO.P,C5,2*%
%TO.N,GND1*%
X92037500Y-66000000D03*
%TO.P,C5,1*%
%TO.N,/VOUT_NEG*%
X89962500Y-66000000D03*
%TD*%
%TO.P,C4,2*%
%TO.N,Net-(U1-Vfb1)*%
X72037500Y-52820000D03*
%TO.P,C4,1*%
%TO.N,Net-(C4-Pad1)*%
X69962500Y-52820000D03*
%TD*%
D14*
%TO.P,RV2,3,3*%
%TO.N,Net-(R5-Pad2)*%
X86040000Y-71540000D03*
%TO.P,RV2,2,2*%
%TO.N,Net-(U1-Vfb2)*%
X83500000Y-66460000D03*
%TO.P,RV2,1,1*%
X80960000Y-71540000D03*
%TD*%
D21*
%TO.P,C3,2*%
%TO.N,GND1*%
X94962500Y-66000000D03*
%TO.P,C3,1*%
%TO.N,/VOUT_POS*%
X97037500Y-66000000D03*
%TD*%
D13*
%TO.P,R2,2*%
%TO.N,Net-(C4-Pad1)*%
X82000000Y-59000000D03*
%TO.P,R2,1*%
%TO.N,/VOUT_POS*%
X80000000Y-59000000D03*
%TD*%
D21*
%TO.P,C2,2*%
%TO.N,GND1*%
X94962500Y-63000000D03*
%TO.P,C2,1*%
%TO.N,/VOUT_POS*%
X97037500Y-63000000D03*
%TD*%
D20*
%TO.P,C6,2*%
%TO.N,Net-(U1-Vfb2)*%
X77037500Y-69860000D03*
%TO.P,C6,1*%
%TO.N,Net-(C6-Pad1)*%
X74962500Y-69860000D03*
%TD*%
D22*
%TO.P,J7,3,Pin_3*%
%TO.N,GND1*%
X58440000Y-71000000D03*
%TO.P,J7,2,Pin_2*%
%TO.N,/ENABLE*%
X55900000Y-71000000D03*
%TO.P,J7,1,Pin_1*%
%TO.N,+5V*%
X53360000Y-71000000D03*
%TD*%
D23*
%TO.P,J6,3,Pin_3*%
%TO.N,/VOUT_NEG*%
X91460000Y-71000000D03*
%TO.P,J6,2,Pin_2*%
%TO.N,GND1*%
X94000000Y-71000000D03*
%TO.P,J6,1,Pin_1*%
%TO.N,/VOUT_POS*%
X96540000Y-71000000D03*
%TD*%
D24*
%TO.N,Net-(C4-Pad1)*%
X81130000Y-53420000D03*
X68520000Y-52830000D03*
%TO.N,Net-(U1-Vfb1)*%
X62210000Y-60980000D03*
X63570000Y-59230000D03*
%TO.N,Net-(U1-Vfb2)*%
X66350735Y-59359265D03*
X67270000Y-67150000D03*
%TO.N,Net-(U1-Vref)*%
X61400000Y-59460000D03*
X62200000Y-67310000D03*
%TO.N,/Lx1*%
X67770000Y-57030000D03*
X67980000Y-62530000D03*
%TO.N,/ENABLE*%
X56030000Y-61360000D03*
X67720000Y-59880000D03*
%TO.N,GND1*%
X96840000Y-57370000D03*
X89560000Y-62240000D03*
X55850000Y-54460000D03*
X52490000Y-57160000D03*
X60057500Y-65037500D03*
X89540000Y-58990000D03*
X59600000Y-61320000D03*
X93250000Y-54440000D03*
%TD*%
D25*
%TO.N,+5V*%
X61557500Y-62962500D02*
X58000000Y-62962500D01*
X55000000Y-65000000D02*
X54240000Y-65000000D01*
X53390000Y-70970000D02*
X53360000Y-71000000D01*
D26*
X58590810Y-58925000D02*
X57155000Y-58925000D01*
D25*
X62030000Y-62490000D02*
X61557500Y-62962500D01*
X60955636Y-52950000D02*
X65000000Y-52950000D01*
X53390000Y-65850000D02*
X53390000Y-70970000D01*
D26*
X63575000Y-62250000D02*
X62270000Y-62250000D01*
D25*
X55962500Y-65000000D02*
X58000000Y-62962500D01*
X55000000Y-65000000D02*
X55962500Y-65000000D01*
X53390000Y-60515636D02*
X53390000Y-65850000D01*
X54240000Y-65000000D02*
X53390000Y-65850000D01*
X56067818Y-57837818D02*
X53390000Y-60515636D01*
D26*
X63575000Y-60750000D02*
X63029548Y-60750000D01*
X62270000Y-62250000D02*
X62030000Y-62490000D01*
X63029548Y-60750000D02*
X62569548Y-60290000D01*
X59955810Y-60290000D02*
X58590810Y-58925000D01*
D25*
X56067818Y-57837818D02*
X60955636Y-52950000D01*
D26*
X57155000Y-58925000D02*
X56067818Y-57837818D01*
X62569548Y-60290000D02*
X59955810Y-60290000D01*
D25*
%TO.N,/VOUT_POS*%
X78550000Y-60470000D02*
X80010000Y-60470000D01*
X97040000Y-62842500D02*
X97037500Y-62840000D01*
X80000000Y-60460000D02*
X80010000Y-60470000D01*
X78520000Y-60440000D02*
X78550000Y-60470000D01*
D26*
X77000000Y-56000000D02*
X76000000Y-57000000D01*
D25*
X94667500Y-60470000D02*
X97037500Y-62840000D01*
X80000000Y-59000000D02*
X80000000Y-60460000D01*
X76000000Y-57000000D02*
X78520000Y-59520000D01*
X80010000Y-60470000D02*
X94667500Y-60470000D01*
D26*
X77000000Y-52900000D02*
X77000000Y-56000000D01*
D25*
X96540000Y-71000000D02*
X96540000Y-66497500D01*
X97037500Y-63000000D02*
X97037500Y-62840000D01*
X78520000Y-59520000D02*
X78520000Y-60440000D01*
X97037500Y-66000000D02*
X97037500Y-63000000D01*
X96540000Y-66497500D02*
X97037500Y-66000000D01*
D26*
%TO.N,Net-(C4-Pad1)*%
X68530000Y-52820000D02*
X68520000Y-52830000D01*
X69962500Y-52820000D02*
X68530000Y-52820000D01*
X68510000Y-52820000D02*
X68490000Y-52820000D01*
X82000000Y-59000000D02*
X82185000Y-58815000D01*
X68520000Y-52830000D02*
X68510000Y-52820000D01*
X82185000Y-58815000D02*
X82185000Y-54475000D01*
X82185000Y-54475000D02*
X81130000Y-53420000D01*
%TO.N,Net-(U1-Vfb1)*%
X72520810Y-58520000D02*
X73420000Y-57620810D01*
X62210000Y-60970000D02*
X62250000Y-61010000D01*
X63575000Y-61250000D02*
X62530000Y-61250000D01*
X63570000Y-59230000D02*
X64280000Y-58520000D01*
X83500000Y-54000000D02*
X83500000Y-51460000D01*
X83100000Y-51060000D02*
X73797500Y-51060000D01*
X62210000Y-60980000D02*
X62210000Y-60970000D01*
X73420000Y-57620810D02*
X73420000Y-54202500D01*
X73420000Y-54202500D02*
X72037500Y-52820000D01*
X73797500Y-51060000D02*
X72037500Y-52820000D01*
X85000000Y-57580000D02*
X86040000Y-56540000D01*
X83500000Y-51460000D02*
X83100000Y-51060000D01*
X62490000Y-61250000D02*
X62220000Y-60980000D01*
X86040000Y-56540000D02*
X83500000Y-54000000D01*
X85000000Y-59000000D02*
X85000000Y-57580000D01*
X64280000Y-58520000D02*
X72520810Y-58520000D01*
X62530000Y-61250000D02*
X62490000Y-61250000D01*
X62220000Y-60980000D02*
X62210000Y-60980000D01*
D25*
%TO.N,/VOUT_NEG*%
X91460000Y-67497500D02*
X89962500Y-66000000D01*
X70790000Y-60790000D02*
X68468148Y-60790000D01*
X79980000Y-62105000D02*
X84880000Y-62105000D01*
X85000000Y-64000000D02*
X85000000Y-62225000D01*
X76000000Y-66000000D02*
X71875000Y-61875000D01*
X80000000Y-62125000D02*
X79980000Y-62105000D01*
D26*
X66425000Y-61250000D02*
X67780000Y-61250000D01*
D25*
X89962500Y-64918136D02*
X89962500Y-66000000D01*
D26*
X67780000Y-61250000D02*
X68240000Y-60790000D01*
D25*
X71875000Y-61875000D02*
X70790000Y-60790000D01*
X80000000Y-64000000D02*
X80000000Y-62125000D01*
X71875000Y-61875000D02*
X72105000Y-62105000D01*
X85000000Y-62225000D02*
X84880000Y-62105000D01*
X84880000Y-62105000D02*
X87149364Y-62105000D01*
X91460000Y-71000000D02*
X91460000Y-67497500D01*
X87149364Y-62105000D02*
X89962500Y-64918136D01*
X72105000Y-62105000D02*
X79980000Y-62105000D01*
D26*
%TO.N,Net-(U1-Vfb2)*%
X73670000Y-70200100D02*
X73670000Y-69860000D01*
X73670000Y-69860000D02*
X72720000Y-68910000D01*
X71030000Y-68910000D02*
X70000000Y-69940000D01*
X83500000Y-66460000D02*
X83500000Y-69000000D01*
X67270000Y-67210000D02*
X70000000Y-69940000D01*
X67270000Y-67150000D02*
X67270000Y-67210000D01*
X83500000Y-69000000D02*
X80960000Y-71540000D01*
X66350735Y-59359265D02*
X66350735Y-60175735D01*
X66350735Y-60175735D02*
X66425000Y-60250000D01*
X77037500Y-69860000D02*
X79280000Y-69860000D01*
X75987500Y-70910000D02*
X74379900Y-70910000D01*
X72720000Y-68910000D02*
X71030000Y-68910000D01*
X74379900Y-70910000D02*
X73670000Y-70200100D01*
X79280000Y-69860000D02*
X80960000Y-71540000D01*
X77037500Y-69860000D02*
X75987500Y-70910000D01*
%TO.N,Net-(C6-Pad1)*%
X79965810Y-65075000D02*
X80925000Y-65075000D01*
X80925000Y-65075000D02*
X82000000Y-64000000D01*
X75180810Y-69860000D02*
X79965810Y-65075000D01*
X74962500Y-69860000D02*
X75180810Y-69860000D01*
%TO.N,Net-(U1-Vref)*%
X68721116Y-70965000D02*
X70975000Y-70965000D01*
X62200000Y-67310000D02*
X65066116Y-67310000D01*
D27*
X58000000Y-57962500D02*
X61287500Y-57962500D01*
D26*
X65066116Y-67310000D02*
X68721116Y-70965000D01*
D27*
X62795000Y-59470000D02*
X63575000Y-60250000D01*
X61400000Y-58075000D02*
X61400000Y-59460000D01*
D26*
X70975000Y-70965000D02*
X72000000Y-69940000D01*
D27*
X61287500Y-57962500D02*
X61400000Y-58075000D01*
X61400000Y-59460000D02*
X61400000Y-59470000D01*
X61400000Y-59470000D02*
X62795000Y-59470000D01*
D26*
%TO.N,/Lx1*%
X66425000Y-62250000D02*
X67700000Y-62250000D01*
D25*
X67750000Y-57050000D02*
X67770000Y-57030000D01*
X67790000Y-57050000D02*
X70950000Y-57050000D01*
X70950000Y-57050000D02*
X71000000Y-57000000D01*
X65000000Y-57050000D02*
X67750000Y-57050000D01*
D26*
X67700000Y-62250000D02*
X67980000Y-62530000D01*
D25*
X67770000Y-57030000D02*
X67790000Y-57050000D01*
%TO.N,/Lx2*%
X71000000Y-64241852D02*
X68559074Y-61800926D01*
X65000000Y-65950000D02*
X70950000Y-65950000D01*
D26*
X68490000Y-61750000D02*
X68550000Y-61810000D01*
D25*
X71000000Y-66000000D02*
X71000000Y-64241852D01*
D26*
X66425000Y-61750000D02*
X68490000Y-61750000D01*
D25*
X70950000Y-65950000D02*
X71000000Y-66000000D01*
D27*
%TO.N,/ENABLE*%
X67720000Y-59894386D02*
X66864386Y-60750000D01*
X66864386Y-60750000D02*
X66425000Y-60750000D01*
X55000000Y-62390000D02*
X56030000Y-61360000D01*
X55000000Y-63000000D02*
X55000000Y-62390000D01*
X67720000Y-59880000D02*
X67720000Y-59894386D01*
D26*
%TO.N,Net-(R1-Pad2)*%
X77715000Y-51825000D02*
X80960000Y-55070000D01*
X75000000Y-52900000D02*
X76075000Y-51825000D01*
X76075000Y-51825000D02*
X77715000Y-51825000D01*
X80960000Y-55070000D02*
X80960000Y-56540000D01*
%TO.N,Net-(R5-Pad2)*%
X86040000Y-64960000D02*
X87000000Y-64000000D01*
X86040000Y-71540000D02*
X86040000Y-64960000D01*
%TO.N,GND1*%
X63575000Y-62750000D02*
X62890000Y-63435000D01*
D25*
X59600000Y-61310000D02*
X59600000Y-61320000D01*
X93037500Y-66000000D02*
X94000000Y-66962500D01*
X58440000Y-66960000D02*
X58440000Y-65477500D01*
D26*
X62350660Y-61750000D02*
X62340660Y-61740000D01*
D25*
X94962500Y-66000000D02*
X94962500Y-63000000D01*
X94962500Y-63000000D02*
X90320000Y-63000000D01*
X58000000Y-60037500D02*
X58327500Y-60037500D01*
X58440000Y-70900000D02*
X58440000Y-66960000D01*
X58540000Y-71000000D02*
X58440000Y-70900000D01*
X94000000Y-71000000D02*
X94000000Y-66962500D01*
X90320000Y-63000000D02*
X89560000Y-62240000D01*
D26*
X63575000Y-61750000D02*
X62350660Y-61750000D01*
D25*
X59600000Y-61320000D02*
X59610000Y-61320000D01*
X92037500Y-66000000D02*
X93037500Y-66000000D01*
X59610000Y-61320000D02*
X60030000Y-61740000D01*
X65000000Y-70050000D02*
X61730000Y-70050000D01*
D26*
X62340660Y-61740000D02*
X61330000Y-61740000D01*
D25*
X60462500Y-65037500D02*
X61287500Y-65037500D01*
X87000000Y-59000000D02*
X89530000Y-59000000D01*
X61730000Y-70050000D02*
X59250000Y-67570000D01*
X58327500Y-60037500D02*
X59600000Y-61310000D01*
X89530000Y-59000000D02*
X89540000Y-58990000D01*
X58440000Y-65477500D02*
X58000000Y-65037500D01*
X59250000Y-67570000D02*
X58440000Y-67570000D01*
X94000000Y-66962500D02*
X94962500Y-66000000D01*
X60057500Y-65037500D02*
X58000000Y-65037500D01*
X60030000Y-61740000D02*
X61330000Y-61740000D01*
X60057500Y-65037500D02*
X60457500Y-65037500D01*
X61287500Y-65037500D02*
X62890000Y-63435000D01*
%TD*%
%TA.AperFunction,Conductor*%
%TO.N,GND1*%
G36*
X73240086Y-50520185D02*
G01*
X73285841Y-50572989D01*
X73295785Y-50642147D01*
X73266760Y-50705703D01*
X73260728Y-50712181D01*
X72414727Y-51558181D01*
X72353404Y-51591666D01*
X72327046Y-51594500D01*
X71649998Y-51594500D01*
X71649980Y-51594501D01*
X71547203Y-51605000D01*
X71547200Y-51605001D01*
X71380668Y-51660185D01*
X71380663Y-51660187D01*
X71231342Y-51752289D01*
X71107285Y-51876346D01*
X71105537Y-51879182D01*
X71103829Y-51880717D01*
X71102807Y-51882011D01*
X71102585Y-51881836D01*
X71053589Y-51925905D01*
X70984626Y-51937126D01*
X70920544Y-51909282D01*
X70894463Y-51879182D01*
X70892714Y-51876346D01*
X70768657Y-51752289D01*
X70768656Y-51752288D01*
X70619334Y-51660186D01*
X70452797Y-51605001D01*
X70452795Y-51605000D01*
X70350010Y-51594500D01*
X69574998Y-51594500D01*
X69574980Y-51594501D01*
X69472203Y-51605000D01*
X69472200Y-51605001D01*
X69305668Y-51660185D01*
X69305663Y-51660187D01*
X69156342Y-51752289D01*
X69032288Y-51876343D01*
X69032285Y-51876347D01*
X68940151Y-52025720D01*
X68888203Y-52072445D01*
X68819241Y-52083666D01*
X68793658Y-52077665D01*
X68699254Y-52044631D01*
X68699249Y-52044630D01*
X68520004Y-52024435D01*
X68519996Y-52024435D01*
X68340750Y-52044630D01*
X68340745Y-52044631D01*
X68170476Y-52104211D01*
X68017737Y-52200184D01*
X67890184Y-52327737D01*
X67794211Y-52480476D01*
X67734631Y-52650745D01*
X67734630Y-52650750D01*
X67714435Y-52829996D01*
X67714435Y-52830003D01*
X67734630Y-53009249D01*
X67734631Y-53009254D01*
X67794211Y-53179523D01*
X67862260Y-53287821D01*
X67890184Y-53332262D01*
X68017738Y-53459816D01*
X68170478Y-53555789D01*
X68236194Y-53578784D01*
X68340745Y-53615368D01*
X68340750Y-53615369D01*
X68519996Y-53635565D01*
X68520000Y-53635565D01*
X68520004Y-53635565D01*
X68699249Y-53615369D01*
X68699251Y-53615368D01*
X68699255Y-53615368D01*
X68803806Y-53578783D01*
X68873582Y-53575221D01*
X68934209Y-53609949D01*
X68950297Y-53630726D01*
X69032288Y-53763656D01*
X69156344Y-53887712D01*
X69305666Y-53979814D01*
X69472203Y-54034999D01*
X69574991Y-54045500D01*
X70350008Y-54045499D01*
X70350016Y-54045498D01*
X70350019Y-54045498D01*
X70406302Y-54039748D01*
X70452797Y-54034999D01*
X70619334Y-53979814D01*
X70768656Y-53887712D01*
X70892712Y-53763656D01*
X70894461Y-53760819D01*
X70896169Y-53759283D01*
X70897193Y-53757989D01*
X70897414Y-53758163D01*
X70946406Y-53714096D01*
X71015368Y-53702872D01*
X71079451Y-53730713D01*
X71105537Y-53760817D01*
X71107288Y-53763656D01*
X71231344Y-53887712D01*
X71380666Y-53979814D01*
X71547203Y-54034999D01*
X71649991Y-54045500D01*
X72327047Y-54045499D01*
X72394086Y-54065183D01*
X72414728Y-54081818D01*
X72758181Y-54425271D01*
X72791666Y-54486594D01*
X72794500Y-54512952D01*
X72794500Y-55487164D01*
X72774815Y-55554203D01*
X72722011Y-55599958D01*
X72657897Y-55610522D01*
X72550010Y-55599500D01*
X69449998Y-55599500D01*
X69449981Y-55599501D01*
X69347203Y-55610000D01*
X69347200Y-55610001D01*
X69180668Y-55665185D01*
X69180663Y-55665187D01*
X69031342Y-55757289D01*
X68907289Y-55881342D01*
X68815187Y-56030663D01*
X68815186Y-56030666D01*
X68797613Y-56083700D01*
X68795689Y-56089505D01*
X68755916Y-56146949D01*
X68691400Y-56173772D01*
X68677983Y-56174500D01*
X67968987Y-56174500D01*
X67944796Y-56172117D01*
X67890722Y-56161361D01*
X67856230Y-56154500D01*
X67856229Y-56154500D01*
X67683771Y-56154500D01*
X67683770Y-56154500D01*
X67649278Y-56161361D01*
X67595203Y-56172117D01*
X67571013Y-56174500D01*
X66424499Y-56174500D01*
X66357460Y-56154815D01*
X66311705Y-56102011D01*
X66301562Y-56055388D01*
X66300900Y-56055423D01*
X66300854Y-56055429D01*
X66300853Y-56055426D01*
X66300676Y-56055436D01*
X66300499Y-56052135D01*
X66300499Y-56052128D01*
X66294091Y-55992517D01*
X66252625Y-55881342D01*
X66243797Y-55857671D01*
X66243793Y-55857664D01*
X66157547Y-55742455D01*
X66157544Y-55742452D01*
X66042335Y-55656206D01*
X66042328Y-55656202D01*
X65907482Y-55605908D01*
X65907483Y-55605908D01*
X65847883Y-55599501D01*
X65847881Y-55599500D01*
X65847873Y-55599500D01*
X65847864Y-55599500D01*
X64152129Y-55599500D01*
X64152123Y-55599501D01*
X64092516Y-55605908D01*
X63957671Y-55656202D01*
X63957664Y-55656206D01*
X63842455Y-55742452D01*
X63842452Y-55742455D01*
X63756206Y-55857664D01*
X63756202Y-55857671D01*
X63705908Y-55992517D01*
X63701807Y-56030666D01*
X63699501Y-56052123D01*
X63699500Y-56052135D01*
X63699500Y-58047870D01*
X63699501Y-58047876D01*
X63705909Y-58107487D01*
X63707692Y-58115031D01*
X63706363Y-58115344D01*
X63710755Y-58176824D01*
X63677272Y-58238135D01*
X63511620Y-58403787D01*
X63450297Y-58437272D01*
X63437825Y-58439326D01*
X63390750Y-58444630D01*
X63220478Y-58504210D01*
X63067737Y-58600184D01*
X62940184Y-58727737D01*
X62887571Y-58811471D01*
X62835236Y-58857762D01*
X62782577Y-58869499D01*
X62708347Y-58869499D01*
X62708331Y-58869500D01*
X62124500Y-58869500D01*
X62057461Y-58849815D01*
X62011706Y-58797011D01*
X62000500Y-58745500D01*
X62000500Y-58164059D01*
X62000501Y-58164046D01*
X62000501Y-57995945D01*
X62000501Y-57995943D01*
X61959577Y-57843215D01*
X61920892Y-57776211D01*
X61880520Y-57706284D01*
X61768716Y-57594480D01*
X61768715Y-57594479D01*
X61764385Y-57590149D01*
X61764385Y-57590148D01*
X61764380Y-57590144D01*
X61656217Y-57481981D01*
X61656209Y-57481975D01*
X61560351Y-57426632D01*
X61560349Y-57426631D01*
X61519290Y-57402925D01*
X61519289Y-57402924D01*
X61499252Y-57397555D01*
X61366557Y-57361999D01*
X61208443Y-57361999D01*
X61200847Y-57361999D01*
X61200831Y-57362000D01*
X59263768Y-57362000D01*
X59196729Y-57342315D01*
X59158229Y-57303097D01*
X59146275Y-57283716D01*
X59067712Y-57156344D01*
X58943656Y-57032288D01*
X58794334Y-56940186D01*
X58627797Y-56885001D01*
X58627794Y-56885000D01*
X58552579Y-56877316D01*
X58487887Y-56850919D01*
X58447736Y-56793738D01*
X58444873Y-56723927D01*
X58477499Y-56666279D01*
X61281961Y-53861819D01*
X61343284Y-53828334D01*
X61369642Y-53825500D01*
X63575501Y-53825500D01*
X63642540Y-53845185D01*
X63688295Y-53897989D01*
X63698437Y-53944611D01*
X63699099Y-53944576D01*
X63699146Y-53944571D01*
X63699146Y-53944573D01*
X63699324Y-53944564D01*
X63699501Y-53947876D01*
X63705908Y-54007483D01*
X63756202Y-54142328D01*
X63756206Y-54142335D01*
X63842452Y-54257544D01*
X63842455Y-54257547D01*
X63957664Y-54343793D01*
X63957671Y-54343797D01*
X64092517Y-54394091D01*
X64092516Y-54394091D01*
X64099444Y-54394835D01*
X64152127Y-54400500D01*
X65847872Y-54400499D01*
X65907483Y-54394091D01*
X66042331Y-54343796D01*
X66157546Y-54257546D01*
X66243796Y-54142331D01*
X66294091Y-54007483D01*
X66300500Y-53947873D01*
X66300499Y-51952128D01*
X66294091Y-51892517D01*
X66290107Y-51881836D01*
X66243797Y-51757671D01*
X66243793Y-51757664D01*
X66157547Y-51642455D01*
X66157544Y-51642452D01*
X66042335Y-51556206D01*
X66042328Y-51556202D01*
X65907482Y-51505908D01*
X65907483Y-51505908D01*
X65847883Y-51499501D01*
X65847881Y-51499500D01*
X65847873Y-51499500D01*
X65847864Y-51499500D01*
X64152129Y-51499500D01*
X64152123Y-51499501D01*
X64092516Y-51505908D01*
X63957671Y-51556202D01*
X63957664Y-51556206D01*
X63842455Y-51642452D01*
X63842452Y-51642455D01*
X63756206Y-51757664D01*
X63756202Y-51757671D01*
X63705908Y-51892517D01*
X63699501Y-51952116D01*
X63699501Y-51952123D01*
X63699322Y-51955452D01*
X63698065Y-51955384D01*
X63679815Y-52017539D01*
X63627011Y-52063294D01*
X63575500Y-52074500D01*
X60869407Y-52074500D01*
X60835761Y-52081192D01*
X60835760Y-52081191D01*
X60700270Y-52108142D01*
X60700262Y-52108144D01*
X60645891Y-52130666D01*
X60540933Y-52174140D01*
X60540925Y-52174145D01*
X60466713Y-52223733D01*
X60466712Y-52223733D01*
X60397541Y-52269951D01*
X60397533Y-52269957D01*
X56674976Y-55992516D01*
X55509719Y-57157773D01*
X52831901Y-59835591D01*
X52787492Y-59880000D01*
X52709953Y-59957538D01*
X52614145Y-60100924D01*
X52614138Y-60100937D01*
X52548146Y-60260257D01*
X52548143Y-60260269D01*
X52514500Y-60429402D01*
X52514500Y-68512117D01*
X52494815Y-68579156D01*
X52455598Y-68617655D01*
X52391344Y-68657287D01*
X52267289Y-68781342D01*
X52175187Y-68930663D01*
X52175185Y-68930668D01*
X52166918Y-68955616D01*
X52120001Y-69097203D01*
X52120001Y-69097204D01*
X52120000Y-69097204D01*
X52109500Y-69199983D01*
X52109500Y-69199991D01*
X52109500Y-70999999D01*
X52109501Y-72376000D01*
X52089816Y-72443039D01*
X52037012Y-72488794D01*
X51985501Y-72500000D01*
X50624500Y-72500000D01*
X50557461Y-72480315D01*
X50511706Y-72427511D01*
X50500500Y-72376000D01*
X50500500Y-50624500D01*
X50520185Y-50557461D01*
X50572989Y-50511706D01*
X50624500Y-50500500D01*
X73173047Y-50500500D01*
X73240086Y-50520185D01*
G37*
%TD.AperFunction*%
%TA.AperFunction,Conductor*%
G36*
X65497538Y-59165185D02*
G01*
X65543293Y-59217989D01*
X65553719Y-59283383D01*
X65545170Y-59359260D01*
X65545170Y-59359268D01*
X65565365Y-59538514D01*
X65565368Y-59538527D01*
X65624944Y-59708783D01*
X65627968Y-59715063D01*
X65625410Y-59716294D01*
X65640933Y-59771236D01*
X65620564Y-59838070D01*
X65615317Y-59845451D01*
X65570720Y-59903571D01*
X65570719Y-59903573D01*
X65513991Y-60040527D01*
X65513990Y-60040529D01*
X65499500Y-60150598D01*
X65499500Y-60349403D01*
X65513989Y-60459468D01*
X65516094Y-60467322D01*
X65512814Y-60468200D01*
X65518581Y-60522073D01*
X65515517Y-60532522D01*
X65516095Y-60532677D01*
X65513990Y-60540529D01*
X65499500Y-60650598D01*
X65499500Y-60849403D01*
X65513989Y-60959468D01*
X65516094Y-60967322D01*
X65512814Y-60968200D01*
X65518581Y-61022073D01*
X65515517Y-61032522D01*
X65516095Y-61032677D01*
X65513990Y-61040529D01*
X65499500Y-61150598D01*
X65499500Y-61349403D01*
X65513989Y-61459468D01*
X65516094Y-61467322D01*
X65512814Y-61468200D01*
X65518581Y-61522073D01*
X65515517Y-61532522D01*
X65516095Y-61532677D01*
X65513990Y-61540529D01*
X65499500Y-61650598D01*
X65499500Y-61849403D01*
X65513989Y-61959468D01*
X65516094Y-61967322D01*
X65512814Y-61968200D01*
X65518581Y-62022073D01*
X65515517Y-62032522D01*
X65516095Y-62032677D01*
X65513990Y-62040529D01*
X65499500Y-62150598D01*
X65499500Y-62349403D01*
X65513989Y-62459468D01*
X65516094Y-62467322D01*
X65512814Y-62468200D01*
X65518581Y-62522073D01*
X65515517Y-62532522D01*
X65516095Y-62532677D01*
X65513990Y-62540529D01*
X65499500Y-62650598D01*
X65499500Y-62849403D01*
X65513988Y-62959463D01*
X65513991Y-62959472D01*
X65570615Y-63096175D01*
X65570721Y-63096429D01*
X65660964Y-63214036D01*
X65778571Y-63304279D01*
X65915528Y-63361009D01*
X66025599Y-63375500D01*
X66824400Y-63375499D01*
X66824403Y-63375499D01*
X66934463Y-63361011D01*
X66934467Y-63361009D01*
X66934472Y-63361009D01*
X67071429Y-63304279D01*
X67189036Y-63214036D01*
X67251850Y-63132174D01*
X67308274Y-63090974D01*
X67378020Y-63086819D01*
X67437904Y-63119982D01*
X67477738Y-63159816D01*
X67630478Y-63255789D01*
X67769057Y-63304280D01*
X67800745Y-63315368D01*
X67800750Y-63315369D01*
X67979996Y-63335565D01*
X67980000Y-63335565D01*
X67980004Y-63335565D01*
X68159249Y-63315369D01*
X68159252Y-63315368D01*
X68159255Y-63315368D01*
X68329522Y-63255789D01*
X68482262Y-63159816D01*
X68493360Y-63148718D01*
X68554683Y-63115233D01*
X68624375Y-63120217D01*
X68668722Y-63148718D01*
X69907823Y-64387819D01*
X69941308Y-64449142D01*
X69936324Y-64518834D01*
X69894452Y-64574767D01*
X69828988Y-64599184D01*
X69820142Y-64599500D01*
X69449998Y-64599500D01*
X69449980Y-64599501D01*
X69347203Y-64610000D01*
X69347200Y-64610001D01*
X69180668Y-64665185D01*
X69180663Y-64665187D01*
X69031342Y-64757289D01*
X68907289Y-64881342D01*
X68907288Y-64881344D01*
X68832861Y-65002011D01*
X68824481Y-65015597D01*
X68772533Y-65062321D01*
X68718942Y-65074500D01*
X66424499Y-65074500D01*
X66357460Y-65054815D01*
X66311705Y-65002011D01*
X66301562Y-64955388D01*
X66300900Y-64955423D01*
X66300854Y-64955429D01*
X66300853Y-64955426D01*
X66300676Y-64955436D01*
X66300499Y-64952135D01*
X66300499Y-64952128D01*
X66294091Y-64892517D01*
X66276167Y-64844461D01*
X66243797Y-64757671D01*
X66243793Y-64757664D01*
X66157547Y-64642455D01*
X66157544Y-64642452D01*
X66042335Y-64556206D01*
X66042328Y-64556202D01*
X65907482Y-64505908D01*
X65907483Y-64505908D01*
X65847883Y-64499501D01*
X65847881Y-64499500D01*
X65847873Y-64499500D01*
X65847864Y-64499500D01*
X64152129Y-64499500D01*
X64152123Y-64499501D01*
X64092516Y-64505908D01*
X63957671Y-64556202D01*
X63957664Y-64556206D01*
X63842455Y-64642452D01*
X63842452Y-64642455D01*
X63756206Y-64757664D01*
X63756202Y-64757671D01*
X63705908Y-64892517D01*
X63699501Y-64952116D01*
X63699500Y-64952127D01*
X63699500Y-65791151D01*
X63699501Y-66560500D01*
X63679816Y-66627539D01*
X63627013Y-66673294D01*
X63575501Y-66684500D01*
X62744855Y-66684500D01*
X62678883Y-66665494D01*
X62549523Y-66584211D01*
X62379254Y-66524631D01*
X62379249Y-66524630D01*
X62200004Y-66504435D01*
X62199996Y-66504435D01*
X62020750Y-66524630D01*
X62020745Y-66524631D01*
X61850476Y-66584211D01*
X61697737Y-66680184D01*
X61570184Y-66807737D01*
X61474211Y-66960476D01*
X61414631Y-67130745D01*
X61414630Y-67130750D01*
X61394435Y-67309996D01*
X61394435Y-67310003D01*
X61414630Y-67489249D01*
X61414631Y-67489254D01*
X61474211Y-67659523D01*
X61537109Y-67759624D01*
X61570184Y-67812262D01*
X61697738Y-67939816D01*
X61850478Y-68035789D01*
X62020745Y-68095368D01*
X62020750Y-68095369D01*
X62199996Y-68115565D01*
X62200000Y-68115565D01*
X62200004Y-68115565D01*
X62379249Y-68095369D01*
X62379252Y-68095368D01*
X62379255Y-68095368D01*
X62549522Y-68035789D01*
X62678883Y-67954505D01*
X62744855Y-67935500D01*
X64755664Y-67935500D01*
X64822703Y-67955185D01*
X64843345Y-67971819D01*
X65273082Y-68401556D01*
X65306567Y-68462879D01*
X65301583Y-68532571D01*
X65273082Y-68576918D01*
X65250000Y-68600000D01*
X65250000Y-69800000D01*
X66300000Y-69800000D01*
X66300000Y-69727836D01*
X66319685Y-69660797D01*
X66372489Y-69615042D01*
X66441647Y-69605098D01*
X66505203Y-69634123D01*
X66511673Y-69640148D01*
X66975077Y-70103552D01*
X68322379Y-71450855D01*
X68322382Y-71450857D01*
X68322383Y-71450858D01*
X68424831Y-71519312D01*
X68463911Y-71535499D01*
X68463912Y-71535500D01*
X68463913Y-71535500D01*
X68538664Y-71566463D01*
X68558713Y-71570451D01*
X68592312Y-71577134D01*
X68659508Y-71590501D01*
X68659510Y-71590501D01*
X68788837Y-71590501D01*
X68788857Y-71590500D01*
X71036607Y-71590500D01*
X71097029Y-71578481D01*
X71157452Y-71566463D01*
X71157455Y-71566461D01*
X71157458Y-71566461D01*
X71190787Y-71552654D01*
X71190786Y-71552654D01*
X71190792Y-71552652D01*
X71271286Y-71519312D01*
X71332524Y-71478393D01*
X71373733Y-71450858D01*
X71460858Y-71363733D01*
X71460859Y-71363730D01*
X71467925Y-71356665D01*
X71467928Y-71356661D01*
X71647771Y-71176818D01*
X71709094Y-71143333D01*
X71735452Y-71140499D01*
X72400002Y-71140499D01*
X72400008Y-71140499D01*
X72502797Y-71129999D01*
X72669334Y-71074814D01*
X72818656Y-70982712D01*
X72942712Y-70858656D01*
X73034814Y-70709334D01*
X73036248Y-70705004D01*
X73076018Y-70647561D01*
X73140533Y-70620736D01*
X73209309Y-70633049D01*
X73241635Y-70656327D01*
X73275586Y-70690278D01*
X73275608Y-70690298D01*
X73890916Y-71305606D01*
X73890945Y-71305637D01*
X73981163Y-71395855D01*
X73981167Y-71395858D01*
X74083607Y-71464307D01*
X74083616Y-71464312D01*
X74104639Y-71473020D01*
X74197448Y-71511463D01*
X74236904Y-71519311D01*
X74318291Y-71535499D01*
X74318292Y-71535500D01*
X74318293Y-71535500D01*
X76049108Y-71535500D01*
X76049108Y-71535499D01*
X76130496Y-71519311D01*
X76130497Y-71519311D01*
X76143890Y-71516646D01*
X76169952Y-71511463D01*
X76203292Y-71497652D01*
X76283786Y-71464312D01*
X76340304Y-71426547D01*
X76386233Y-71395858D01*
X76473358Y-71308733D01*
X76473359Y-71308731D01*
X76480425Y-71301665D01*
X76480428Y-71301661D01*
X76660271Y-71121818D01*
X76721594Y-71088333D01*
X76747952Y-71085499D01*
X77425002Y-71085499D01*
X77425008Y-71085499D01*
X77527797Y-71074999D01*
X77694334Y-71019814D01*
X77843656Y-70927712D01*
X77967712Y-70803656D01*
X78059814Y-70654334D01*
X78087595Y-70570495D01*
X78127368Y-70513051D01*
X78191884Y-70486228D01*
X78205301Y-70485500D01*
X78969548Y-70485500D01*
X79036587Y-70505185D01*
X79057229Y-70521819D01*
X79578650Y-71043240D01*
X79612135Y-71104563D01*
X79611175Y-71161361D01*
X79573866Y-71308690D01*
X79573864Y-71308702D01*
X79554700Y-71539993D01*
X79554700Y-71540006D01*
X79573864Y-71771297D01*
X79573866Y-71771308D01*
X79630842Y-71996300D01*
X79724075Y-72208848D01*
X79788971Y-72308179D01*
X79809158Y-72375068D01*
X79789978Y-72442254D01*
X79737520Y-72488404D01*
X79685162Y-72500000D01*
X59594456Y-72500000D01*
X59572042Y-72485595D01*
X58486447Y-71400000D01*
X58492661Y-71400000D01*
X58594394Y-71372741D01*
X58685606Y-71320080D01*
X58760080Y-71245606D01*
X58812741Y-71154394D01*
X58840000Y-71052661D01*
X58840000Y-71046448D01*
X59689998Y-71896446D01*
X59689999Y-71896445D01*
X59689999Y-71047844D01*
X63700000Y-71047844D01*
X63706401Y-71107372D01*
X63706403Y-71107379D01*
X63756645Y-71242086D01*
X63756649Y-71242093D01*
X63842809Y-71357187D01*
X63842812Y-71357190D01*
X63957906Y-71443350D01*
X63957913Y-71443354D01*
X64092620Y-71493596D01*
X64092627Y-71493598D01*
X64152155Y-71499999D01*
X64152172Y-71500000D01*
X64750000Y-71500000D01*
X65250000Y-71500000D01*
X65847828Y-71500000D01*
X65847844Y-71499999D01*
X65907372Y-71493598D01*
X65907379Y-71493596D01*
X66042086Y-71443354D01*
X66042093Y-71443350D01*
X66157187Y-71357190D01*
X66157190Y-71357187D01*
X66243350Y-71242093D01*
X66243354Y-71242086D01*
X66293596Y-71107379D01*
X66293598Y-71107372D01*
X66299999Y-71047844D01*
X66300000Y-71047827D01*
X66300000Y-70300000D01*
X65250000Y-70300000D01*
X65250000Y-71500000D01*
X64750000Y-71500000D01*
X64750000Y-70300000D01*
X63700000Y-70300000D01*
X63700000Y-71047844D01*
X59689999Y-71047844D01*
X59689999Y-70103553D01*
X59689998Y-70103552D01*
X58840000Y-70953551D01*
X58840000Y-70947339D01*
X58812741Y-70845606D01*
X58760080Y-70754394D01*
X58685606Y-70679920D01*
X58594394Y-70627259D01*
X58492661Y-70600000D01*
X58486447Y-70600000D01*
X59689998Y-69396447D01*
X59689999Y-69396446D01*
X59689999Y-69200028D01*
X59689998Y-69200013D01*
X59679505Y-69097302D01*
X59664545Y-69052155D01*
X63700000Y-69052155D01*
X63700000Y-69800000D01*
X64750000Y-69800000D01*
X64750000Y-68600000D01*
X64152155Y-68600000D01*
X64092627Y-68606401D01*
X64092620Y-68606403D01*
X63957913Y-68656645D01*
X63957906Y-68656649D01*
X63842812Y-68742809D01*
X63842809Y-68742812D01*
X63756649Y-68857906D01*
X63756645Y-68857913D01*
X63706403Y-68992620D01*
X63706401Y-68992627D01*
X63700000Y-69052155D01*
X59664545Y-69052155D01*
X59624358Y-68930880D01*
X59624356Y-68930875D01*
X59532315Y-68781654D01*
X59408345Y-68657684D01*
X59259124Y-68565643D01*
X59259119Y-68565641D01*
X59092697Y-68510494D01*
X59092690Y-68510493D01*
X58989980Y-68500000D01*
X57890028Y-68500000D01*
X57890012Y-68500001D01*
X57787302Y-68510494D01*
X57620880Y-68565641D01*
X57620875Y-68565643D01*
X57471654Y-68657684D01*
X57347683Y-68781655D01*
X57347680Y-68781659D01*
X57275831Y-68898144D01*
X57223883Y-68944869D01*
X57154920Y-68956090D01*
X57090838Y-68928247D01*
X57064754Y-68898144D01*
X57064461Y-68897669D01*
X56992712Y-68781344D01*
X56868656Y-68657288D01*
X56719334Y-68565186D01*
X56552797Y-68510001D01*
X56552795Y-68510000D01*
X56450010Y-68499500D01*
X55349998Y-68499500D01*
X55349980Y-68499501D01*
X55247203Y-68510000D01*
X55247200Y-68510001D01*
X55080668Y-68565185D01*
X55080663Y-68565187D01*
X54931342Y-68657289D01*
X54807289Y-68781342D01*
X54800538Y-68792288D01*
X54760065Y-68857906D01*
X54735539Y-68897669D01*
X54683591Y-68944393D01*
X54614628Y-68955616D01*
X54550546Y-68927772D01*
X54524461Y-68897669D01*
X54452712Y-68781344D01*
X54328656Y-68657288D01*
X54328655Y-68657287D01*
X54324402Y-68654664D01*
X54277678Y-68602715D01*
X54265500Y-68549126D01*
X54265500Y-66264006D01*
X54285185Y-66196967D01*
X54301819Y-66176325D01*
X54347319Y-66130825D01*
X54408642Y-66097340D01*
X54447603Y-66095148D01*
X54499991Y-66100500D01*
X55500008Y-66100499D01*
X55500016Y-66100498D01*
X55500019Y-66100498D01*
X55556302Y-66094748D01*
X55602797Y-66089999D01*
X55769334Y-66034814D01*
X55918656Y-65942712D01*
X55949549Y-65911819D01*
X56010872Y-65878334D01*
X56037230Y-65875500D01*
X56048731Y-65875500D01*
X56048732Y-65875499D01*
X56217874Y-65841855D01*
X56377205Y-65775858D01*
X56520599Y-65680045D01*
X56615330Y-65585313D01*
X56676651Y-65551829D01*
X56746342Y-65556813D01*
X56802276Y-65598684D01*
X56820715Y-65633989D01*
X56840640Y-65694116D01*
X56840643Y-65694124D01*
X56932684Y-65843345D01*
X57056654Y-65967315D01*
X57205875Y-66059356D01*
X57205880Y-66059358D01*
X57372302Y-66114505D01*
X57372309Y-66114506D01*
X57475019Y-66124999D01*
X57749999Y-66124999D01*
X58250000Y-66124999D01*
X58524972Y-66124999D01*
X58524986Y-66124998D01*
X58627697Y-66114505D01*
X58794119Y-66059358D01*
X58794124Y-66059356D01*
X58943345Y-65967315D01*
X59067315Y-65843345D01*
X59159356Y-65694124D01*
X59159358Y-65694119D01*
X59214505Y-65527697D01*
X59214506Y-65527690D01*
X59224999Y-65424986D01*
X59225000Y-65424973D01*
X59225000Y-65287500D01*
X58250000Y-65287500D01*
X58250000Y-66124999D01*
X57749999Y-66124999D01*
X57750000Y-66124998D01*
X57750000Y-64911500D01*
X57769685Y-64844461D01*
X57822489Y-64798706D01*
X57874000Y-64787500D01*
X59224999Y-64787500D01*
X59224999Y-64650028D01*
X59224998Y-64650013D01*
X59214505Y-64547302D01*
X59159358Y-64380880D01*
X59159356Y-64380875D01*
X59067315Y-64231654D01*
X58943344Y-64107683D01*
X58943341Y-64107681D01*
X58940339Y-64105829D01*
X58938713Y-64104021D01*
X58937677Y-64103202D01*
X58937817Y-64103024D01*
X58893617Y-64053880D01*
X58882397Y-63984917D01*
X58910243Y-63920836D01*
X58940344Y-63894754D01*
X58943656Y-63892712D01*
X58962049Y-63874319D01*
X59023372Y-63840834D01*
X59049730Y-63838000D01*
X61643731Y-63838000D01*
X61643732Y-63837999D01*
X61812874Y-63804355D01*
X61972205Y-63738358D01*
X62115599Y-63642545D01*
X62595481Y-63162662D01*
X62656799Y-63129181D01*
X62726490Y-63134165D01*
X62781532Y-63174860D01*
X62811318Y-63213677D01*
X62928824Y-63303843D01*
X63065658Y-63360521D01*
X63175622Y-63374999D01*
X63175637Y-63375000D01*
X63450000Y-63375000D01*
X63450000Y-62999500D01*
X63469685Y-62932461D01*
X63522489Y-62886706D01*
X63574000Y-62875500D01*
X63576000Y-62875500D01*
X63643039Y-62895185D01*
X63688794Y-62947989D01*
X63700000Y-62999500D01*
X63700000Y-63375000D01*
X63974363Y-63375000D01*
X63974377Y-63374999D01*
X64084341Y-63360521D01*
X64084342Y-63360521D01*
X64221175Y-63303843D01*
X64338679Y-63213679D01*
X64428843Y-63096175D01*
X64485521Y-62959342D01*
X64485521Y-62959340D01*
X64496626Y-62875000D01*
X64466971Y-62875000D01*
X64399932Y-62855315D01*
X64354177Y-62802511D01*
X64344233Y-62733353D01*
X64368603Y-62675503D01*
X64370138Y-62673503D01*
X64426571Y-62632306D01*
X64468506Y-62625000D01*
X64496626Y-62625000D01*
X64485521Y-62540659D01*
X64483418Y-62532807D01*
X64487041Y-62531835D01*
X64480919Y-62479884D01*
X64484495Y-62467484D01*
X64483905Y-62467326D01*
X64486008Y-62459475D01*
X64486008Y-62459474D01*
X64486009Y-62459472D01*
X64500500Y-62349401D01*
X64500499Y-62150600D01*
X64500499Y-62150598D01*
X64500499Y-62150596D01*
X64486011Y-62040536D01*
X64483906Y-62032682D01*
X64487007Y-62031850D01*
X64481128Y-61977382D01*
X64484147Y-61967389D01*
X64483418Y-61967194D01*
X64485521Y-61959342D01*
X64496626Y-61875000D01*
X64468506Y-61875000D01*
X64401467Y-61855315D01*
X64370115Y-61826466D01*
X64369348Y-61825466D01*
X64344167Y-61760292D01*
X64358219Y-61691850D01*
X64369348Y-61674534D01*
X64370115Y-61673534D01*
X64426534Y-61632319D01*
X64468506Y-61625000D01*
X64496626Y-61625000D01*
X64485521Y-61540659D01*
X64483418Y-61532807D01*
X64487041Y-61531835D01*
X64480919Y-61479884D01*
X64484495Y-61467484D01*
X64483905Y-61467326D01*
X64486008Y-61459475D01*
X64486008Y-61459474D01*
X64486009Y-61459472D01*
X64500500Y-61349401D01*
X64500499Y-61150600D01*
X64486009Y-61040528D01*
X64486008Y-61040525D01*
X64483905Y-61032674D01*
X64487207Y-61031789D01*
X64481392Y-60978075D01*
X64484501Y-60967485D01*
X64483905Y-60967326D01*
X64486008Y-60959475D01*
X64486008Y-60959474D01*
X64486009Y-60959472D01*
X64500500Y-60849401D01*
X64500499Y-60650600D01*
X64486009Y-60540528D01*
X64486008Y-60540525D01*
X64483905Y-60532674D01*
X64487207Y-60531789D01*
X64481392Y-60478075D01*
X64484501Y-60467485D01*
X64483905Y-60467326D01*
X64486008Y-60459475D01*
X64486008Y-60459474D01*
X64486009Y-60459472D01*
X64500500Y-60349401D01*
X64500499Y-60150600D01*
X64500499Y-60150598D01*
X64500499Y-60150596D01*
X64486011Y-60040536D01*
X64486009Y-60040529D01*
X64486009Y-60040528D01*
X64429279Y-59903571D01*
X64339036Y-59785964D01*
X64339034Y-59785962D01*
X64339033Y-59785961D01*
X64311919Y-59765156D01*
X64270716Y-59708728D01*
X64266562Y-59638982D01*
X64282414Y-59600807D01*
X64285787Y-59595439D01*
X64295789Y-59579522D01*
X64332709Y-59474011D01*
X64355366Y-59409262D01*
X64355367Y-59409257D01*
X64355368Y-59409255D01*
X64360672Y-59362174D01*
X64387737Y-59297764D01*
X64396201Y-59288389D01*
X64502773Y-59181818D01*
X64564096Y-59148334D01*
X64590453Y-59145500D01*
X65430499Y-59145500D01*
X65497538Y-59165185D01*
G37*
%TD.AperFunction*%
%TA.AperFunction,Conductor*%
G36*
X99442539Y-50520185D02*
G01*
X99488294Y-50572989D01*
X99499500Y-50624500D01*
X99499500Y-72376000D01*
X99479815Y-72443039D01*
X99427011Y-72488794D01*
X99375500Y-72500000D01*
X97914500Y-72500000D01*
X97847461Y-72480315D01*
X97801706Y-72427511D01*
X97790500Y-72376000D01*
X97790499Y-69199998D01*
X97790498Y-69199981D01*
X97779999Y-69097203D01*
X97779998Y-69097200D01*
X97769548Y-69065663D01*
X97724814Y-68930666D01*
X97632712Y-68781344D01*
X97508656Y-68657288D01*
X97508653Y-68657285D01*
X97474401Y-68636158D01*
X97427678Y-68584210D01*
X97415500Y-68530621D01*
X97415500Y-67338448D01*
X97435185Y-67271409D01*
X97487989Y-67225654D01*
X97521227Y-67216631D01*
X97521181Y-67216415D01*
X97525171Y-67215560D01*
X97526906Y-67215089D01*
X97527797Y-67214999D01*
X97694334Y-67159814D01*
X97843656Y-67067712D01*
X97967712Y-66943656D01*
X98059814Y-66794334D01*
X98114999Y-66627797D01*
X98125500Y-66525009D01*
X98125499Y-65474992D01*
X98125370Y-65473733D01*
X98114999Y-65372203D01*
X98114998Y-65372200D01*
X98098127Y-65321288D01*
X98059814Y-65205666D01*
X97967712Y-65056344D01*
X97949319Y-65037951D01*
X97915834Y-64976628D01*
X97913000Y-64950270D01*
X97913000Y-64049730D01*
X97932685Y-63982691D01*
X97949319Y-63962049D01*
X97967712Y-63943656D01*
X98059814Y-63794334D01*
X98114999Y-63627797D01*
X98125500Y-63525009D01*
X98125499Y-62474992D01*
X98114999Y-62372203D01*
X98059814Y-62205666D01*
X97967712Y-62056344D01*
X97843656Y-61932288D01*
X97718862Y-61855315D01*
X97694336Y-61840187D01*
X97694331Y-61840185D01*
X97692862Y-61839698D01*
X97527797Y-61785001D01*
X97527795Y-61785000D01*
X97425016Y-61774500D01*
X97425009Y-61774500D01*
X97261506Y-61774500D01*
X97194467Y-61754815D01*
X97173825Y-61738181D01*
X95225602Y-59789957D01*
X95225598Y-59789954D01*
X95082211Y-59694145D01*
X95082198Y-59694138D01*
X94922878Y-59628146D01*
X94922866Y-59628143D01*
X94753732Y-59594500D01*
X94753729Y-59594500D01*
X88224000Y-59594500D01*
X88156961Y-59574815D01*
X88111206Y-59522011D01*
X88100000Y-59470500D01*
X88100000Y-59250000D01*
X86874000Y-59250000D01*
X86806961Y-59230315D01*
X86761206Y-59177511D01*
X86750000Y-59126000D01*
X86750000Y-58750000D01*
X87250000Y-58750000D01*
X88099999Y-58750000D01*
X88099999Y-58500028D01*
X88099998Y-58500013D01*
X88089505Y-58397302D01*
X88034358Y-58230880D01*
X88034356Y-58230875D01*
X87942315Y-58081654D01*
X87818345Y-57957684D01*
X87669124Y-57865643D01*
X87669119Y-57865641D01*
X87502697Y-57810494D01*
X87502690Y-57810493D01*
X87399986Y-57800000D01*
X87250000Y-57800000D01*
X87250000Y-58750000D01*
X86750000Y-58750000D01*
X86750000Y-57821877D01*
X86769685Y-57754838D01*
X86804606Y-57719655D01*
X86804579Y-57719621D01*
X86804849Y-57719410D01*
X86806190Y-57718060D01*
X86808609Y-57716479D01*
X86808626Y-57716470D01*
X86821711Y-57706286D01*
X86966251Y-57593786D01*
X86991784Y-57573913D01*
X87148979Y-57403153D01*
X87275924Y-57208849D01*
X87369157Y-56996300D01*
X87426134Y-56771305D01*
X87445300Y-56540000D01*
X87445300Y-56539993D01*
X87426135Y-56308702D01*
X87426133Y-56308691D01*
X87369157Y-56083699D01*
X87275924Y-55871151D01*
X87148983Y-55676852D01*
X87148980Y-55676849D01*
X87148979Y-55676847D01*
X86991784Y-55506087D01*
X86991779Y-55506083D01*
X86991777Y-55506081D01*
X86808634Y-55363535D01*
X86808628Y-55363531D01*
X86604504Y-55253064D01*
X86604495Y-55253061D01*
X86384984Y-55177702D01*
X86213282Y-55149050D01*
X86156049Y-55139500D01*
X85923951Y-55139500D01*
X85885795Y-55145867D01*
X85695014Y-55177702D01*
X85669419Y-55186489D01*
X85599620Y-55189637D01*
X85541478Y-55156888D01*
X84161819Y-53777228D01*
X84128334Y-53715905D01*
X84125500Y-53689547D01*
X84125500Y-52787814D01*
X84145185Y-52720775D01*
X84190483Y-52678759D01*
X84210452Y-52667952D01*
X84268626Y-52636470D01*
X84270988Y-52634632D01*
X84340831Y-52580271D01*
X84451784Y-52493913D01*
X84608979Y-52323153D01*
X84735924Y-52128849D01*
X84829157Y-51916300D01*
X84886134Y-51691305D01*
X84886615Y-51685500D01*
X84905300Y-51460006D01*
X84905300Y-51459993D01*
X84886135Y-51228702D01*
X84886133Y-51228691D01*
X84829157Y-51003699D01*
X84735924Y-50791151D01*
X84671356Y-50692321D01*
X84651168Y-50625431D01*
X84670349Y-50558246D01*
X84722808Y-50512096D01*
X84775165Y-50500500D01*
X99375500Y-50500500D01*
X99442539Y-50520185D01*
G37*
%TD.AperFunction*%
%TA.AperFunction,Conductor*%
G36*
X94320533Y-61365185D02*
G01*
X94341175Y-61381819D01*
X94535583Y-61576227D01*
X94569068Y-61637550D01*
X94564084Y-61707242D01*
X94522212Y-61763175D01*
X94478610Y-61783000D01*
X94478731Y-61783364D01*
X94475335Y-61784489D01*
X94473858Y-61785161D01*
X94472304Y-61785493D01*
X94305880Y-61840641D01*
X94305875Y-61840643D01*
X94156654Y-61932684D01*
X94032684Y-62056654D01*
X93940643Y-62205875D01*
X93940641Y-62205880D01*
X93885494Y-62372302D01*
X93885493Y-62372309D01*
X93875000Y-62475013D01*
X93875000Y-62750000D01*
X95088500Y-62750000D01*
X95155539Y-62769685D01*
X95201294Y-62822489D01*
X95212500Y-62874000D01*
X95212500Y-64224999D01*
X95349972Y-64224999D01*
X95349986Y-64224998D01*
X95452697Y-64214505D01*
X95619119Y-64159358D01*
X95619124Y-64159356D01*
X95768345Y-64067315D01*
X95892318Y-63943342D01*
X95894165Y-63940348D01*
X95895969Y-63938724D01*
X95896798Y-63937677D01*
X95896976Y-63937818D01*
X95946110Y-63893621D01*
X96015073Y-63882396D01*
X96079156Y-63910236D01*
X96105243Y-63940341D01*
X96107288Y-63943656D01*
X96107289Y-63943657D01*
X96125681Y-63962049D01*
X96159166Y-64023372D01*
X96162000Y-64049730D01*
X96162000Y-64950270D01*
X96142315Y-65017309D01*
X96125681Y-65037951D01*
X96107288Y-65056343D01*
X96107283Y-65056349D01*
X96105241Y-65059661D01*
X96103247Y-65061453D01*
X96102807Y-65062011D01*
X96102711Y-65061935D01*
X96053291Y-65106383D01*
X95984328Y-65117602D01*
X95920247Y-65089755D01*
X95894168Y-65059656D01*
X95892319Y-65056659D01*
X95892316Y-65056655D01*
X95768345Y-64932684D01*
X95619124Y-64840643D01*
X95619119Y-64840641D01*
X95452697Y-64785494D01*
X95452690Y-64785493D01*
X95349986Y-64775000D01*
X95212500Y-64775000D01*
X95212500Y-67224999D01*
X95349972Y-67224999D01*
X95349986Y-67224998D01*
X95452695Y-67214506D01*
X95501495Y-67198335D01*
X95571323Y-67195933D01*
X95631366Y-67231664D01*
X95662559Y-67294184D01*
X95664500Y-67316041D01*
X95664500Y-68530621D01*
X95644815Y-68597660D01*
X95605599Y-68636158D01*
X95571346Y-68657285D01*
X95447288Y-68781343D01*
X95447285Y-68781347D01*
X95375244Y-68898144D01*
X95323296Y-68944869D01*
X95254334Y-68956090D01*
X95190252Y-68928247D01*
X95164167Y-68898144D01*
X95092315Y-68781654D01*
X94968345Y-68657684D01*
X94819124Y-68565643D01*
X94819119Y-68565641D01*
X94652697Y-68510494D01*
X94652690Y-68510493D01*
X94549980Y-68500000D01*
X93450028Y-68500000D01*
X93450012Y-68500001D01*
X93347302Y-68510494D01*
X93180880Y-68565641D01*
X93180875Y-68565643D01*
X93031654Y-68657684D01*
X92907683Y-68781655D01*
X92907680Y-68781659D01*
X92835831Y-68898144D01*
X92783883Y-68944869D01*
X92714920Y-68956090D01*
X92650838Y-68928247D01*
X92624754Y-68898144D01*
X92624461Y-68897669D01*
X92552712Y-68781344D01*
X92428656Y-68657288D01*
X92428653Y-68657285D01*
X92394401Y-68636158D01*
X92347678Y-68584210D01*
X92335500Y-68530621D01*
X92335500Y-67411268D01*
X92327562Y-67371364D01*
X92333789Y-67301773D01*
X92376651Y-67246595D01*
X92436578Y-67223814D01*
X92527696Y-67214506D01*
X92694119Y-67159358D01*
X92694124Y-67159356D01*
X92843345Y-67067315D01*
X92967315Y-66943345D01*
X93059356Y-66794124D01*
X93059358Y-66794119D01*
X93114505Y-66627697D01*
X93114506Y-66627690D01*
X93124999Y-66524986D01*
X93875001Y-66524986D01*
X93885494Y-66627697D01*
X93940641Y-66794119D01*
X93940643Y-66794124D01*
X94032684Y-66943345D01*
X94156654Y-67067315D01*
X94305875Y-67159356D01*
X94305880Y-67159358D01*
X94472302Y-67214505D01*
X94472309Y-67214506D01*
X94575019Y-67224999D01*
X94712499Y-67224999D01*
X94712500Y-67224998D01*
X94712500Y-66250000D01*
X93875001Y-66250000D01*
X93875001Y-66524986D01*
X93124999Y-66524986D01*
X93125000Y-66524973D01*
X93125000Y-66250000D01*
X91911500Y-66250000D01*
X91844461Y-66230315D01*
X91798706Y-66177511D01*
X91787500Y-66126000D01*
X91787500Y-65750000D01*
X92287500Y-65750000D01*
X93124999Y-65750000D01*
X93124999Y-65475028D01*
X93124998Y-65475013D01*
X93875000Y-65475013D01*
X93875000Y-65750000D01*
X94712500Y-65750000D01*
X94712500Y-64775000D01*
X94575027Y-64775000D01*
X94575012Y-64775001D01*
X94472302Y-64785494D01*
X94305880Y-64840641D01*
X94305875Y-64840643D01*
X94156654Y-64932684D01*
X94032684Y-65056654D01*
X93940643Y-65205875D01*
X93940641Y-65205880D01*
X93885494Y-65372302D01*
X93885493Y-65372309D01*
X93875000Y-65475013D01*
X93124998Y-65475013D01*
X93114505Y-65372302D01*
X93059358Y-65205880D01*
X93059356Y-65205875D01*
X92967315Y-65056654D01*
X92843345Y-64932684D01*
X92694124Y-64840643D01*
X92694119Y-64840641D01*
X92527697Y-64785494D01*
X92527690Y-64785493D01*
X92424986Y-64775000D01*
X92287500Y-64775000D01*
X92287500Y-65750000D01*
X91787500Y-65750000D01*
X91787500Y-64775000D01*
X91650027Y-64775000D01*
X91650012Y-64775001D01*
X91547302Y-64785494D01*
X91380880Y-64840641D01*
X91380875Y-64840643D01*
X91231654Y-64932684D01*
X91107683Y-65056655D01*
X91107679Y-65056660D01*
X91105826Y-65059665D01*
X91104018Y-65061290D01*
X91103202Y-65062323D01*
X91103025Y-65062183D01*
X91053874Y-65106385D01*
X90984911Y-65117601D01*
X90920831Y-65089752D01*
X90894753Y-65059653D01*
X90894659Y-65059500D01*
X90892712Y-65056344D01*
X90874319Y-65037951D01*
X90840834Y-64976628D01*
X90838000Y-64950270D01*
X90838000Y-64831904D01*
X90837999Y-64831902D01*
X90826681Y-64775001D01*
X90804355Y-64662762D01*
X90804353Y-64662757D01*
X90738361Y-64503437D01*
X90738354Y-64503424D01*
X90642546Y-64360038D01*
X90642545Y-64360037D01*
X90520599Y-64238091D01*
X89807494Y-63524986D01*
X93875001Y-63524986D01*
X93885494Y-63627697D01*
X93940641Y-63794119D01*
X93940643Y-63794124D01*
X94032684Y-63943345D01*
X94156654Y-64067315D01*
X94305875Y-64159356D01*
X94305880Y-64159358D01*
X94472302Y-64214505D01*
X94472309Y-64214506D01*
X94575019Y-64224999D01*
X94712499Y-64224999D01*
X94712500Y-64224998D01*
X94712500Y-63250000D01*
X93875001Y-63250000D01*
X93875001Y-63524986D01*
X89807494Y-63524986D01*
X89181001Y-62898493D01*
X87839690Y-61557181D01*
X87806205Y-61495858D01*
X87811189Y-61426166D01*
X87853061Y-61370233D01*
X87918525Y-61345816D01*
X87927371Y-61345500D01*
X94253494Y-61345500D01*
X94320533Y-61365185D01*
G37*
%TD.AperFunction*%
%TA.AperFunction,Conductor*%
G36*
X56287927Y-58958365D02*
G01*
X56332274Y-58986866D01*
X56758096Y-59412688D01*
X56791581Y-59474011D01*
X56788123Y-59539367D01*
X56785494Y-59547301D01*
X56775000Y-59650013D01*
X56775000Y-59787500D01*
X58126000Y-59787500D01*
X58193039Y-59807185D01*
X58238794Y-59859989D01*
X58250000Y-59911500D01*
X58250000Y-61124999D01*
X58524972Y-61124999D01*
X58524986Y-61124998D01*
X58627697Y-61114505D01*
X58794119Y-61059358D01*
X58794124Y-61059356D01*
X58943345Y-60967315D01*
X59067315Y-60843345D01*
X59159356Y-60694124D01*
X59159356Y-60694122D01*
X59174767Y-60647615D01*
X59214539Y-60590170D01*
X59279054Y-60563345D01*
X59347830Y-60575659D01*
X59380155Y-60598936D01*
X59557073Y-60775855D01*
X59557077Y-60775858D01*
X59659522Y-60844310D01*
X59659521Y-60844310D01*
X59659523Y-60844311D01*
X59659525Y-60844312D01*
X59691937Y-60857737D01*
X59691938Y-60857738D01*
X59691939Y-60857738D01*
X59773358Y-60891463D01*
X59793407Y-60895451D01*
X59827006Y-60902134D01*
X59894202Y-60915501D01*
X59894204Y-60915501D01*
X60023531Y-60915501D01*
X60023551Y-60915500D01*
X61286354Y-60915500D01*
X61353393Y-60935185D01*
X61399148Y-60987989D01*
X61409574Y-61025616D01*
X61424630Y-61159250D01*
X61424631Y-61159254D01*
X61484211Y-61329523D01*
X61580184Y-61482262D01*
X61626409Y-61528487D01*
X61659894Y-61589810D01*
X61654910Y-61659502D01*
X61613038Y-61715435D01*
X61607619Y-61719270D01*
X61471901Y-61809954D01*
X61471897Y-61809957D01*
X61231175Y-62050681D01*
X61169852Y-62084166D01*
X61143494Y-62087000D01*
X59049730Y-62087000D01*
X58982691Y-62067315D01*
X58962049Y-62050681D01*
X58943657Y-62032289D01*
X58943656Y-62032288D01*
X58825391Y-61959342D01*
X58794336Y-61940187D01*
X58794331Y-61940185D01*
X58792862Y-61939698D01*
X58627797Y-61885001D01*
X58627795Y-61885000D01*
X58525010Y-61874500D01*
X57474998Y-61874500D01*
X57474980Y-61874501D01*
X57372203Y-61885000D01*
X57372200Y-61885001D01*
X57205668Y-61940185D01*
X57205663Y-61940187D01*
X57056342Y-62032289D01*
X56932289Y-62156342D01*
X56840187Y-62305663D01*
X56840185Y-62305668D01*
X56825693Y-62349403D01*
X56785001Y-62472203D01*
X56785001Y-62472204D01*
X56785000Y-62472204D01*
X56774500Y-62574983D01*
X56774500Y-62898493D01*
X56754815Y-62965532D01*
X56738181Y-62986174D01*
X56412180Y-63312174D01*
X56350857Y-63345659D01*
X56281165Y-63340675D01*
X56225232Y-63298803D01*
X56200815Y-63233339D01*
X56200499Y-63224514D01*
X56200499Y-62599992D01*
X56192539Y-62522073D01*
X56189999Y-62497203D01*
X56189998Y-62497200D01*
X56148613Y-62372309D01*
X56134814Y-62330666D01*
X56134752Y-62330565D01*
X56134732Y-62330491D01*
X56131760Y-62324118D01*
X56132849Y-62323610D01*
X56116314Y-62263172D01*
X56137239Y-62196509D01*
X56190883Y-62151741D01*
X56202745Y-62147849D01*
X56202682Y-62147668D01*
X56209255Y-62145368D01*
X56379522Y-62085789D01*
X56532262Y-61989816D01*
X56659816Y-61862262D01*
X56755789Y-61709522D01*
X56815368Y-61539255D01*
X56816204Y-61531835D01*
X56835565Y-61360003D01*
X56835565Y-61359996D01*
X56815369Y-61180750D01*
X56815368Y-61180745D01*
X56807848Y-61159254D01*
X56755789Y-61010478D01*
X56755787Y-61010475D01*
X56755787Y-61010474D01*
X56752870Y-61004416D01*
X56741516Y-60935475D01*
X56769237Y-60871340D01*
X56770798Y-60870290D01*
X56712671Y-60877547D01*
X56649667Y-60847345D01*
X56644918Y-60842840D01*
X56532262Y-60730184D01*
X56379523Y-60634211D01*
X56209254Y-60574631D01*
X56209249Y-60574630D01*
X56030004Y-60554435D01*
X56029996Y-60554435D01*
X55850750Y-60574630D01*
X55850745Y-60574631D01*
X55680476Y-60634211D01*
X55527737Y-60730184D01*
X55433794Y-60824128D01*
X55400184Y-60857738D01*
X55363890Y-60915500D01*
X55304210Y-61010478D01*
X55244630Y-61180750D01*
X55234837Y-61267668D01*
X55207770Y-61332082D01*
X55199298Y-61341465D01*
X54677582Y-61863181D01*
X54616259Y-61896666D01*
X54589902Y-61899500D01*
X54499999Y-61899500D01*
X54499980Y-61899501D01*
X54402101Y-61909500D01*
X54333408Y-61896730D01*
X54282524Y-61848849D01*
X54265500Y-61786142D01*
X54265500Y-60929641D01*
X54285185Y-60862602D01*
X54301814Y-60841965D01*
X54718793Y-60424986D01*
X56775001Y-60424986D01*
X56785494Y-60527697D01*
X56840641Y-60694119D01*
X56843696Y-60700670D01*
X56841342Y-60701767D01*
X56856578Y-60757466D01*
X56835649Y-60824128D01*
X56819716Y-60837423D01*
X56827232Y-60832373D01*
X56897087Y-60830946D01*
X56952270Y-60862931D01*
X57056654Y-60967315D01*
X57205875Y-61059356D01*
X57205880Y-61059358D01*
X57372302Y-61114505D01*
X57372309Y-61114506D01*
X57475019Y-61124999D01*
X57749999Y-61124999D01*
X57750000Y-61124998D01*
X57750000Y-60287500D01*
X56775001Y-60287500D01*
X56775001Y-60424986D01*
X54718793Y-60424986D01*
X56156914Y-58986864D01*
X56218235Y-58953381D01*
X56287927Y-58958365D01*
G37*
%TD.AperFunction*%
%TD*%
M02*
