%TF.GenerationSoftware,KiCad,Pcbnew,8.0.4*%
%TF.CreationDate,2025-01-20T11:41:48+00:00*%
%TF.ProjectId,r1283_power,72313238-335f-4706-9f77-65722e6b6963,rev?*%
%TF.SameCoordinates,Original*%
%TF.FileFunction,Legend,Top*%
%TF.FilePolarity,Positive*%
%FSLAX46Y46*%
G04 Gerber Fmt 4.6, Leading zero omitted, Abs format (unit mm)*
G04 Created by KiCad (PCBNEW 8.0.4) date 2025-01-20 11:41:48*
%MOMM*%
%LPD*%
G01*
G04 APERTURE LIST*
%ADD10C,0.250000*%
%ADD11C,0.200000*%
%ADD12C,0.150000*%
%ADD13C,0.100000*%
%ADD14C,0.120000*%
G04 APERTURE END LIST*
D10*
X87825000Y-71500000D02*
G75*
G02*
X87575000Y-71500000I-125000J0D01*
G01*
X87575000Y-71500000D02*
G75*
G02*
X87825000Y-71500000I125000J0D01*
G01*
X87825000Y-55400000D02*
G75*
G02*
X87575000Y-55400000I-125000J0D01*
G01*
X87575000Y-55400000D02*
G75*
G02*
X87825000Y-55400000I125000J0D01*
G01*
D11*
X98052219Y-72439850D02*
X98052219Y-72249374D01*
X98052219Y-72249374D02*
X98099838Y-72154136D01*
X98099838Y-72154136D02*
X98195076Y-72058898D01*
X98195076Y-72058898D02*
X98385552Y-72011279D01*
X98385552Y-72011279D02*
X98718885Y-72011279D01*
X98718885Y-72011279D02*
X98909361Y-72058898D01*
X98909361Y-72058898D02*
X99004600Y-72154136D01*
X99004600Y-72154136D02*
X99052219Y-72249374D01*
X99052219Y-72249374D02*
X99052219Y-72439850D01*
X99052219Y-72439850D02*
X99004600Y-72535088D01*
X99004600Y-72535088D02*
X98909361Y-72630326D01*
X98909361Y-72630326D02*
X98718885Y-72677945D01*
X98718885Y-72677945D02*
X98385552Y-72677945D01*
X98385552Y-72677945D02*
X98195076Y-72630326D01*
X98195076Y-72630326D02*
X98099838Y-72535088D01*
X98099838Y-72535088D02*
X98052219Y-72439850D01*
X98052219Y-71582707D02*
X98861742Y-71582707D01*
X98861742Y-71582707D02*
X98956980Y-71535088D01*
X98956980Y-71535088D02*
X99004600Y-71487469D01*
X99004600Y-71487469D02*
X99052219Y-71392231D01*
X99052219Y-71392231D02*
X99052219Y-71201755D01*
X99052219Y-71201755D02*
X99004600Y-71106517D01*
X99004600Y-71106517D02*
X98956980Y-71058898D01*
X98956980Y-71058898D02*
X98861742Y-71011279D01*
X98861742Y-71011279D02*
X98052219Y-71011279D01*
X98052219Y-70677945D02*
X98052219Y-70106517D01*
X99052219Y-70392231D02*
X98052219Y-70392231D01*
X96338095Y-69452219D02*
X96338095Y-68452219D01*
X96338095Y-68452219D02*
X96719047Y-68452219D01*
X96719047Y-68452219D02*
X96814285Y-68499838D01*
X96814285Y-68499838D02*
X96861904Y-68547457D01*
X96861904Y-68547457D02*
X96909523Y-68642695D01*
X96909523Y-68642695D02*
X96909523Y-68785552D01*
X96909523Y-68785552D02*
X96861904Y-68880790D01*
X96861904Y-68880790D02*
X96814285Y-68928409D01*
X96814285Y-68928409D02*
X96719047Y-68976028D01*
X96719047Y-68976028D02*
X96338095Y-68976028D01*
X97528571Y-68452219D02*
X97719047Y-68452219D01*
X97719047Y-68452219D02*
X97814285Y-68499838D01*
X97814285Y-68499838D02*
X97909523Y-68595076D01*
X97909523Y-68595076D02*
X97957142Y-68785552D01*
X97957142Y-68785552D02*
X97957142Y-69118885D01*
X97957142Y-69118885D02*
X97909523Y-69309361D01*
X97909523Y-69309361D02*
X97814285Y-69404600D01*
X97814285Y-69404600D02*
X97719047Y-69452219D01*
X97719047Y-69452219D02*
X97528571Y-69452219D01*
X97528571Y-69452219D02*
X97433333Y-69404600D01*
X97433333Y-69404600D02*
X97338095Y-69309361D01*
X97338095Y-69309361D02*
X97290476Y-69118885D01*
X97290476Y-69118885D02*
X97290476Y-68785552D01*
X97290476Y-68785552D02*
X97338095Y-68595076D01*
X97338095Y-68595076D02*
X97433333Y-68499838D01*
X97433333Y-68499838D02*
X97528571Y-68452219D01*
X98338095Y-69404600D02*
X98480952Y-69452219D01*
X98480952Y-69452219D02*
X98719047Y-69452219D01*
X98719047Y-69452219D02*
X98814285Y-69404600D01*
X98814285Y-69404600D02*
X98861904Y-69356980D01*
X98861904Y-69356980D02*
X98909523Y-69261742D01*
X98909523Y-69261742D02*
X98909523Y-69166504D01*
X98909523Y-69166504D02*
X98861904Y-69071266D01*
X98861904Y-69071266D02*
X98814285Y-69023647D01*
X98814285Y-69023647D02*
X98719047Y-68976028D01*
X98719047Y-68976028D02*
X98528571Y-68928409D01*
X98528571Y-68928409D02*
X98433333Y-68880790D01*
X98433333Y-68880790D02*
X98385714Y-68833171D01*
X98385714Y-68833171D02*
X98338095Y-68737933D01*
X98338095Y-68737933D02*
X98338095Y-68642695D01*
X98338095Y-68642695D02*
X98385714Y-68547457D01*
X98385714Y-68547457D02*
X98433333Y-68499838D01*
X98433333Y-68499838D02*
X98528571Y-68452219D01*
X98528571Y-68452219D02*
X98766666Y-68452219D01*
X98766666Y-68452219D02*
X98909523Y-68499838D01*
X58638095Y-68499838D02*
X58542857Y-68452219D01*
X58542857Y-68452219D02*
X58400000Y-68452219D01*
X58400000Y-68452219D02*
X58257143Y-68499838D01*
X58257143Y-68499838D02*
X58161905Y-68595076D01*
X58161905Y-68595076D02*
X58114286Y-68690314D01*
X58114286Y-68690314D02*
X58066667Y-68880790D01*
X58066667Y-68880790D02*
X58066667Y-69023647D01*
X58066667Y-69023647D02*
X58114286Y-69214123D01*
X58114286Y-69214123D02*
X58161905Y-69309361D01*
X58161905Y-69309361D02*
X58257143Y-69404600D01*
X58257143Y-69404600D02*
X58400000Y-69452219D01*
X58400000Y-69452219D02*
X58495238Y-69452219D01*
X58495238Y-69452219D02*
X58638095Y-69404600D01*
X58638095Y-69404600D02*
X58685714Y-69356980D01*
X58685714Y-69356980D02*
X58685714Y-69023647D01*
X58685714Y-69023647D02*
X58495238Y-69023647D01*
X59114286Y-69452219D02*
X59114286Y-68452219D01*
X59114286Y-68452219D02*
X59685714Y-69452219D01*
X59685714Y-69452219D02*
X59685714Y-68452219D01*
X60161905Y-69452219D02*
X60161905Y-68452219D01*
X60161905Y-68452219D02*
X60400000Y-68452219D01*
X60400000Y-68452219D02*
X60542857Y-68499838D01*
X60542857Y-68499838D02*
X60638095Y-68595076D01*
X60638095Y-68595076D02*
X60685714Y-68690314D01*
X60685714Y-68690314D02*
X60733333Y-68880790D01*
X60733333Y-68880790D02*
X60733333Y-69023647D01*
X60733333Y-69023647D02*
X60685714Y-69214123D01*
X60685714Y-69214123D02*
X60638095Y-69309361D01*
X60638095Y-69309361D02*
X60542857Y-69404600D01*
X60542857Y-69404600D02*
X60400000Y-69452219D01*
X60400000Y-69452219D02*
X60161905Y-69452219D01*
X93238095Y-68499838D02*
X93142857Y-68452219D01*
X93142857Y-68452219D02*
X93000000Y-68452219D01*
X93000000Y-68452219D02*
X92857143Y-68499838D01*
X92857143Y-68499838D02*
X92761905Y-68595076D01*
X92761905Y-68595076D02*
X92714286Y-68690314D01*
X92714286Y-68690314D02*
X92666667Y-68880790D01*
X92666667Y-68880790D02*
X92666667Y-69023647D01*
X92666667Y-69023647D02*
X92714286Y-69214123D01*
X92714286Y-69214123D02*
X92761905Y-69309361D01*
X92761905Y-69309361D02*
X92857143Y-69404600D01*
X92857143Y-69404600D02*
X93000000Y-69452219D01*
X93000000Y-69452219D02*
X93095238Y-69452219D01*
X93095238Y-69452219D02*
X93238095Y-69404600D01*
X93238095Y-69404600D02*
X93285714Y-69356980D01*
X93285714Y-69356980D02*
X93285714Y-69023647D01*
X93285714Y-69023647D02*
X93095238Y-69023647D01*
X93714286Y-69452219D02*
X93714286Y-68452219D01*
X93714286Y-68452219D02*
X94285714Y-69452219D01*
X94285714Y-69452219D02*
X94285714Y-68452219D01*
X94761905Y-69452219D02*
X94761905Y-68452219D01*
X94761905Y-68452219D02*
X95000000Y-68452219D01*
X95000000Y-68452219D02*
X95142857Y-68499838D01*
X95142857Y-68499838D02*
X95238095Y-68595076D01*
X95238095Y-68595076D02*
X95285714Y-68690314D01*
X95285714Y-68690314D02*
X95333333Y-68880790D01*
X95333333Y-68880790D02*
X95333333Y-69023647D01*
X95333333Y-69023647D02*
X95285714Y-69214123D01*
X95285714Y-69214123D02*
X95238095Y-69309361D01*
X95238095Y-69309361D02*
X95142857Y-69404600D01*
X95142857Y-69404600D02*
X95000000Y-69452219D01*
X95000000Y-69452219D02*
X94761905Y-69452219D01*
D12*
X91219160Y-58814104D02*
X91695350Y-58814104D01*
X91123922Y-59099819D02*
X91457255Y-58099819D01*
X91457255Y-58099819D02*
X91790588Y-59099819D01*
X92266779Y-59099819D02*
X92171541Y-59052200D01*
X92171541Y-59052200D02*
X92123922Y-58956961D01*
X92123922Y-58956961D02*
X92123922Y-58099819D01*
X92790589Y-59099819D02*
X92695351Y-59052200D01*
X92695351Y-59052200D02*
X92647732Y-58956961D01*
X92647732Y-58956961D02*
X92647732Y-58099819D01*
X94457256Y-59099819D02*
X93885828Y-59099819D01*
X94171542Y-59099819D02*
X94171542Y-58099819D01*
X94171542Y-58099819D02*
X94076304Y-58242676D01*
X94076304Y-58242676D02*
X93981066Y-58337914D01*
X93981066Y-58337914D02*
X93885828Y-58385533D01*
X95076304Y-58099819D02*
X95171542Y-58099819D01*
X95171542Y-58099819D02*
X95266780Y-58147438D01*
X95266780Y-58147438D02*
X95314399Y-58195057D01*
X95314399Y-58195057D02*
X95362018Y-58290295D01*
X95362018Y-58290295D02*
X95409637Y-58480771D01*
X95409637Y-58480771D02*
X95409637Y-58718866D01*
X95409637Y-58718866D02*
X95362018Y-58909342D01*
X95362018Y-58909342D02*
X95314399Y-59004580D01*
X95314399Y-59004580D02*
X95266780Y-59052200D01*
X95266780Y-59052200D02*
X95171542Y-59099819D01*
X95171542Y-59099819D02*
X95076304Y-59099819D01*
X95076304Y-59099819D02*
X94981066Y-59052200D01*
X94981066Y-59052200D02*
X94933447Y-59004580D01*
X94933447Y-59004580D02*
X94885828Y-58909342D01*
X94885828Y-58909342D02*
X94838209Y-58718866D01*
X94838209Y-58718866D02*
X94838209Y-58480771D01*
X94838209Y-58480771D02*
X94885828Y-58290295D01*
X94885828Y-58290295D02*
X94933447Y-58195057D01*
X94933447Y-58195057D02*
X94981066Y-58147438D01*
X94981066Y-58147438D02*
X95076304Y-58099819D01*
X96266780Y-58433152D02*
X96266780Y-59099819D01*
X95838209Y-58433152D02*
X95838209Y-58956961D01*
X95838209Y-58956961D02*
X95885828Y-59052200D01*
X95885828Y-59052200D02*
X95981066Y-59099819D01*
X95981066Y-59099819D02*
X96123923Y-59099819D01*
X96123923Y-59099819D02*
X96219161Y-59052200D01*
X96219161Y-59052200D02*
X96266780Y-59004580D01*
D11*
X51852219Y-72630326D02*
X50852219Y-72630326D01*
X51852219Y-72154136D02*
X50852219Y-72154136D01*
X50852219Y-72154136D02*
X51852219Y-71582708D01*
X51852219Y-71582708D02*
X50852219Y-71582708D01*
X53269523Y-68452219D02*
X52793333Y-68452219D01*
X52793333Y-68452219D02*
X52745714Y-68928409D01*
X52745714Y-68928409D02*
X52793333Y-68880790D01*
X52793333Y-68880790D02*
X52888571Y-68833171D01*
X52888571Y-68833171D02*
X53126666Y-68833171D01*
X53126666Y-68833171D02*
X53221904Y-68880790D01*
X53221904Y-68880790D02*
X53269523Y-68928409D01*
X53269523Y-68928409D02*
X53317142Y-69023647D01*
X53317142Y-69023647D02*
X53317142Y-69261742D01*
X53317142Y-69261742D02*
X53269523Y-69356980D01*
X53269523Y-69356980D02*
X53221904Y-69404600D01*
X53221904Y-69404600D02*
X53126666Y-69452219D01*
X53126666Y-69452219D02*
X52888571Y-69452219D01*
X52888571Y-69452219D02*
X52793333Y-69404600D01*
X52793333Y-69404600D02*
X52745714Y-69356980D01*
X53602857Y-68452219D02*
X53936190Y-69452219D01*
X53936190Y-69452219D02*
X54269523Y-68452219D01*
X55261905Y-68928409D02*
X55595238Y-68928409D01*
X55738095Y-69452219D02*
X55261905Y-69452219D01*
X55261905Y-69452219D02*
X55261905Y-68452219D01*
X55261905Y-68452219D02*
X55738095Y-68452219D01*
X56166667Y-69452219D02*
X56166667Y-68452219D01*
X56166667Y-68452219D02*
X56738095Y-69452219D01*
X56738095Y-69452219D02*
X56738095Y-68452219D01*
X89161905Y-69452219D02*
X89161905Y-68452219D01*
X89161905Y-68452219D02*
X89733333Y-69452219D01*
X89733333Y-69452219D02*
X89733333Y-68452219D01*
X90209524Y-68928409D02*
X90542857Y-68928409D01*
X90685714Y-69452219D02*
X90209524Y-69452219D01*
X90209524Y-69452219D02*
X90209524Y-68452219D01*
X90209524Y-68452219D02*
X90685714Y-68452219D01*
X91638095Y-68499838D02*
X91542857Y-68452219D01*
X91542857Y-68452219D02*
X91400000Y-68452219D01*
X91400000Y-68452219D02*
X91257143Y-68499838D01*
X91257143Y-68499838D02*
X91161905Y-68595076D01*
X91161905Y-68595076D02*
X91114286Y-68690314D01*
X91114286Y-68690314D02*
X91066667Y-68880790D01*
X91066667Y-68880790D02*
X91066667Y-69023647D01*
X91066667Y-69023647D02*
X91114286Y-69214123D01*
X91114286Y-69214123D02*
X91161905Y-69309361D01*
X91161905Y-69309361D02*
X91257143Y-69404600D01*
X91257143Y-69404600D02*
X91400000Y-69452219D01*
X91400000Y-69452219D02*
X91495238Y-69452219D01*
X91495238Y-69452219D02*
X91638095Y-69404600D01*
X91638095Y-69404600D02*
X91685714Y-69356980D01*
X91685714Y-69356980D02*
X91685714Y-69023647D01*
X91685714Y-69023647D02*
X91495238Y-69023647D01*
D13*
X90075312Y-53257292D02*
X90027693Y-53304912D01*
X90027693Y-53304912D02*
X89884836Y-53352531D01*
X89884836Y-53352531D02*
X89789598Y-53352531D01*
X89789598Y-53352531D02*
X89646741Y-53304912D01*
X89646741Y-53304912D02*
X89551503Y-53209673D01*
X89551503Y-53209673D02*
X89503884Y-53114435D01*
X89503884Y-53114435D02*
X89456265Y-52923959D01*
X89456265Y-52923959D02*
X89456265Y-52781102D01*
X89456265Y-52781102D02*
X89503884Y-52590626D01*
X89503884Y-52590626D02*
X89551503Y-52495388D01*
X89551503Y-52495388D02*
X89646741Y-52400150D01*
X89646741Y-52400150D02*
X89789598Y-52352531D01*
X89789598Y-52352531D02*
X89884836Y-52352531D01*
X89884836Y-52352531D02*
X90027693Y-52400150D01*
X90027693Y-52400150D02*
X90075312Y-52447769D01*
X90646741Y-53352531D02*
X90551503Y-53304912D01*
X90551503Y-53304912D02*
X90503884Y-53209673D01*
X90503884Y-53209673D02*
X90503884Y-52352531D01*
X91170551Y-53352531D02*
X91075313Y-53304912D01*
X91075313Y-53304912D02*
X91027694Y-53257292D01*
X91027694Y-53257292D02*
X90980075Y-53162054D01*
X90980075Y-53162054D02*
X90980075Y-52876340D01*
X90980075Y-52876340D02*
X91027694Y-52781102D01*
X91027694Y-52781102D02*
X91075313Y-52733483D01*
X91075313Y-52733483D02*
X91170551Y-52685864D01*
X91170551Y-52685864D02*
X91313408Y-52685864D01*
X91313408Y-52685864D02*
X91408646Y-52733483D01*
X91408646Y-52733483D02*
X91456265Y-52781102D01*
X91456265Y-52781102D02*
X91503884Y-52876340D01*
X91503884Y-52876340D02*
X91503884Y-53162054D01*
X91503884Y-53162054D02*
X91456265Y-53257292D01*
X91456265Y-53257292D02*
X91408646Y-53304912D01*
X91408646Y-53304912D02*
X91313408Y-53352531D01*
X91313408Y-53352531D02*
X91170551Y-53352531D01*
X91884837Y-53304912D02*
X91980075Y-53352531D01*
X91980075Y-53352531D02*
X92170551Y-53352531D01*
X92170551Y-53352531D02*
X92265789Y-53304912D01*
X92265789Y-53304912D02*
X92313408Y-53209673D01*
X92313408Y-53209673D02*
X92313408Y-53162054D01*
X92313408Y-53162054D02*
X92265789Y-53066816D01*
X92265789Y-53066816D02*
X92170551Y-53019197D01*
X92170551Y-53019197D02*
X92027694Y-53019197D01*
X92027694Y-53019197D02*
X91932456Y-52971578D01*
X91932456Y-52971578D02*
X91884837Y-52876340D01*
X91884837Y-52876340D02*
X91884837Y-52828721D01*
X91884837Y-52828721D02*
X91932456Y-52733483D01*
X91932456Y-52733483D02*
X92027694Y-52685864D01*
X92027694Y-52685864D02*
X92170551Y-52685864D01*
X92170551Y-52685864D02*
X92265789Y-52733483D01*
X93122932Y-53304912D02*
X93027694Y-53352531D01*
X93027694Y-53352531D02*
X92837218Y-53352531D01*
X92837218Y-53352531D02*
X92741980Y-53304912D01*
X92741980Y-53304912D02*
X92694361Y-53209673D01*
X92694361Y-53209673D02*
X92694361Y-52828721D01*
X92694361Y-52828721D02*
X92741980Y-52733483D01*
X92741980Y-52733483D02*
X92837218Y-52685864D01*
X92837218Y-52685864D02*
X93027694Y-52685864D01*
X93027694Y-52685864D02*
X93122932Y-52733483D01*
X93122932Y-52733483D02*
X93170551Y-52828721D01*
X93170551Y-52828721D02*
X93170551Y-52923959D01*
X93170551Y-52923959D02*
X92694361Y-53019197D01*
X94361028Y-52685864D02*
X94361028Y-53543007D01*
X94361028Y-53543007D02*
X94313409Y-53638245D01*
X94313409Y-53638245D02*
X94218171Y-53685864D01*
X94218171Y-53685864D02*
X94170552Y-53685864D01*
X94361028Y-52352531D02*
X94313409Y-52400150D01*
X94313409Y-52400150D02*
X94361028Y-52447769D01*
X94361028Y-52447769D02*
X94408647Y-52400150D01*
X94408647Y-52400150D02*
X94361028Y-52352531D01*
X94361028Y-52352531D02*
X94361028Y-52447769D01*
X95265789Y-52685864D02*
X95265789Y-53352531D01*
X94837218Y-52685864D02*
X94837218Y-53209673D01*
X94837218Y-53209673D02*
X94884837Y-53304912D01*
X94884837Y-53304912D02*
X94980075Y-53352531D01*
X94980075Y-53352531D02*
X95122932Y-53352531D01*
X95122932Y-53352531D02*
X95218170Y-53304912D01*
X95218170Y-53304912D02*
X95265789Y-53257292D01*
X95741980Y-53352531D02*
X95741980Y-52685864D01*
X95741980Y-52781102D02*
X95789599Y-52733483D01*
X95789599Y-52733483D02*
X95884837Y-52685864D01*
X95884837Y-52685864D02*
X96027694Y-52685864D01*
X96027694Y-52685864D02*
X96122932Y-52733483D01*
X96122932Y-52733483D02*
X96170551Y-52828721D01*
X96170551Y-52828721D02*
X96170551Y-53352531D01*
X96170551Y-52828721D02*
X96218170Y-52733483D01*
X96218170Y-52733483D02*
X96313408Y-52685864D01*
X96313408Y-52685864D02*
X96456265Y-52685864D01*
X96456265Y-52685864D02*
X96551504Y-52733483D01*
X96551504Y-52733483D02*
X96599123Y-52828721D01*
X96599123Y-52828721D02*
X96599123Y-53352531D01*
X97075313Y-52685864D02*
X97075313Y-53685864D01*
X97075313Y-52733483D02*
X97170551Y-52685864D01*
X97170551Y-52685864D02*
X97361027Y-52685864D01*
X97361027Y-52685864D02*
X97456265Y-52733483D01*
X97456265Y-52733483D02*
X97503884Y-52781102D01*
X97503884Y-52781102D02*
X97551503Y-52876340D01*
X97551503Y-52876340D02*
X97551503Y-53162054D01*
X97551503Y-53162054D02*
X97503884Y-53257292D01*
X97503884Y-53257292D02*
X97456265Y-53304912D01*
X97456265Y-53304912D02*
X97361027Y-53352531D01*
X97361027Y-53352531D02*
X97170551Y-53352531D01*
X97170551Y-53352531D02*
X97075313Y-53304912D01*
X98361027Y-53304912D02*
X98265789Y-53352531D01*
X98265789Y-53352531D02*
X98075313Y-53352531D01*
X98075313Y-53352531D02*
X97980075Y-53304912D01*
X97980075Y-53304912D02*
X97932456Y-53209673D01*
X97932456Y-53209673D02*
X97932456Y-52828721D01*
X97932456Y-52828721D02*
X97980075Y-52733483D01*
X97980075Y-52733483D02*
X98075313Y-52685864D01*
X98075313Y-52685864D02*
X98265789Y-52685864D01*
X98265789Y-52685864D02*
X98361027Y-52733483D01*
X98361027Y-52733483D02*
X98408646Y-52828721D01*
X98408646Y-52828721D02*
X98408646Y-52923959D01*
X98408646Y-52923959D02*
X97932456Y-53019197D01*
X98837218Y-53352531D02*
X98837218Y-52685864D01*
X98837218Y-52876340D02*
X98884837Y-52781102D01*
X98884837Y-52781102D02*
X98932456Y-52733483D01*
X98932456Y-52733483D02*
X99027694Y-52685864D01*
X99027694Y-52685864D02*
X99122932Y-52685864D01*
X99408647Y-53304912D02*
X99503885Y-53352531D01*
X99503885Y-53352531D02*
X99694361Y-53352531D01*
X99694361Y-53352531D02*
X99789599Y-53304912D01*
X99789599Y-53304912D02*
X99837218Y-53209673D01*
X99837218Y-53209673D02*
X99837218Y-53162054D01*
X99837218Y-53162054D02*
X99789599Y-53066816D01*
X99789599Y-53066816D02*
X99694361Y-53019197D01*
X99694361Y-53019197D02*
X99551504Y-53019197D01*
X99551504Y-53019197D02*
X99456266Y-52971578D01*
X99456266Y-52971578D02*
X99408647Y-52876340D01*
X99408647Y-52876340D02*
X99408647Y-52828721D01*
X99408647Y-52828721D02*
X99456266Y-52733483D01*
X99456266Y-52733483D02*
X99551504Y-52685864D01*
X99551504Y-52685864D02*
X99694361Y-52685864D01*
X99694361Y-52685864D02*
X99789599Y-52733483D01*
X89503884Y-54962475D02*
X89503884Y-54295808D01*
X89503884Y-53962475D02*
X89456265Y-54010094D01*
X89456265Y-54010094D02*
X89503884Y-54057713D01*
X89503884Y-54057713D02*
X89551503Y-54010094D01*
X89551503Y-54010094D02*
X89503884Y-53962475D01*
X89503884Y-53962475D02*
X89503884Y-54057713D01*
X89837217Y-54295808D02*
X90218169Y-54295808D01*
X89980074Y-54962475D02*
X89980074Y-54105332D01*
X89980074Y-54105332D02*
X90027693Y-54010094D01*
X90027693Y-54010094D02*
X90122931Y-53962475D01*
X90122931Y-53962475D02*
X90218169Y-53962475D01*
X91884836Y-54962475D02*
X91551503Y-54486284D01*
X91313408Y-54962475D02*
X91313408Y-53962475D01*
X91313408Y-53962475D02*
X91694360Y-53962475D01*
X91694360Y-53962475D02*
X91789598Y-54010094D01*
X91789598Y-54010094D02*
X91837217Y-54057713D01*
X91837217Y-54057713D02*
X91884836Y-54152951D01*
X91884836Y-54152951D02*
X91884836Y-54295808D01*
X91884836Y-54295808D02*
X91837217Y-54391046D01*
X91837217Y-54391046D02*
X91789598Y-54438665D01*
X91789598Y-54438665D02*
X91694360Y-54486284D01*
X91694360Y-54486284D02*
X91313408Y-54486284D01*
X92170551Y-53962475D02*
X92503884Y-54962475D01*
X92503884Y-54962475D02*
X92837217Y-53962475D01*
X93694360Y-54962475D02*
X93122932Y-54962475D01*
X93408646Y-54962475D02*
X93408646Y-53962475D01*
X93408646Y-53962475D02*
X93313408Y-54105332D01*
X93313408Y-54105332D02*
X93218170Y-54200570D01*
X93218170Y-54200570D02*
X93122932Y-54248189D01*
X94837217Y-53914856D02*
X93980075Y-55200570D01*
X95122932Y-54057713D02*
X95170551Y-54010094D01*
X95170551Y-54010094D02*
X95265789Y-53962475D01*
X95265789Y-53962475D02*
X95503884Y-53962475D01*
X95503884Y-53962475D02*
X95599122Y-54010094D01*
X95599122Y-54010094D02*
X95646741Y-54057713D01*
X95646741Y-54057713D02*
X95694360Y-54152951D01*
X95694360Y-54152951D02*
X95694360Y-54248189D01*
X95694360Y-54248189D02*
X95646741Y-54391046D01*
X95646741Y-54391046D02*
X95075313Y-54962475D01*
X95075313Y-54962475D02*
X95694360Y-54962475D01*
X89503884Y-55905752D02*
X89503884Y-56572419D01*
X89503884Y-56000990D02*
X89551503Y-55953371D01*
X89551503Y-55953371D02*
X89646741Y-55905752D01*
X89646741Y-55905752D02*
X89789598Y-55905752D01*
X89789598Y-55905752D02*
X89884836Y-55953371D01*
X89884836Y-55953371D02*
X89932455Y-56048609D01*
X89932455Y-56048609D02*
X89932455Y-56572419D01*
X90551503Y-56572419D02*
X90456265Y-56524800D01*
X90456265Y-56524800D02*
X90408646Y-56477180D01*
X90408646Y-56477180D02*
X90361027Y-56381942D01*
X90361027Y-56381942D02*
X90361027Y-56096228D01*
X90361027Y-56096228D02*
X90408646Y-56000990D01*
X90408646Y-56000990D02*
X90456265Y-55953371D01*
X90456265Y-55953371D02*
X90551503Y-55905752D01*
X90551503Y-55905752D02*
X90694360Y-55905752D01*
X90694360Y-55905752D02*
X90789598Y-55953371D01*
X90789598Y-55953371D02*
X90837217Y-56000990D01*
X90837217Y-56000990D02*
X90884836Y-56096228D01*
X90884836Y-56096228D02*
X90884836Y-56381942D01*
X90884836Y-56381942D02*
X90837217Y-56477180D01*
X90837217Y-56477180D02*
X90789598Y-56524800D01*
X90789598Y-56524800D02*
X90694360Y-56572419D01*
X90694360Y-56572419D02*
X90551503Y-56572419D01*
X91170551Y-55905752D02*
X91551503Y-55905752D01*
X91313408Y-55572419D02*
X91313408Y-56429561D01*
X91313408Y-56429561D02*
X91361027Y-56524800D01*
X91361027Y-56524800D02*
X91456265Y-56572419D01*
X91456265Y-56572419D02*
X91551503Y-56572419D01*
X92503885Y-55905752D02*
X92884837Y-55905752D01*
X92646742Y-56572419D02*
X92646742Y-55715276D01*
X92646742Y-55715276D02*
X92694361Y-55620038D01*
X92694361Y-55620038D02*
X92789599Y-55572419D01*
X92789599Y-55572419D02*
X92884837Y-55572419D01*
X93218171Y-56572419D02*
X93218171Y-55905752D01*
X93218171Y-55572419D02*
X93170552Y-55620038D01*
X93170552Y-55620038D02*
X93218171Y-55667657D01*
X93218171Y-55667657D02*
X93265790Y-55620038D01*
X93265790Y-55620038D02*
X93218171Y-55572419D01*
X93218171Y-55572419D02*
X93218171Y-55667657D01*
X93551504Y-55905752D02*
X93932456Y-55905752D01*
X93694361Y-55572419D02*
X93694361Y-56429561D01*
X93694361Y-56429561D02*
X93741980Y-56524800D01*
X93741980Y-56524800D02*
X93837218Y-56572419D01*
X93837218Y-56572419D02*
X93932456Y-56572419D01*
X94122933Y-55905752D02*
X94503885Y-55905752D01*
X94265790Y-55572419D02*
X94265790Y-56429561D01*
X94265790Y-56429561D02*
X94313409Y-56524800D01*
X94313409Y-56524800D02*
X94408647Y-56572419D01*
X94408647Y-56572419D02*
X94503885Y-56572419D01*
X95218171Y-56524800D02*
X95122933Y-56572419D01*
X95122933Y-56572419D02*
X94932457Y-56572419D01*
X94932457Y-56572419D02*
X94837219Y-56524800D01*
X94837219Y-56524800D02*
X94789600Y-56429561D01*
X94789600Y-56429561D02*
X94789600Y-56048609D01*
X94789600Y-56048609D02*
X94837219Y-55953371D01*
X94837219Y-55953371D02*
X94932457Y-55905752D01*
X94932457Y-55905752D02*
X95122933Y-55905752D01*
X95122933Y-55905752D02*
X95218171Y-55953371D01*
X95218171Y-55953371D02*
X95265790Y-56048609D01*
X95265790Y-56048609D02*
X95265790Y-56143847D01*
X95265790Y-56143847D02*
X94789600Y-56239085D01*
X96122933Y-56572419D02*
X96122933Y-55572419D01*
X96122933Y-56524800D02*
X96027695Y-56572419D01*
X96027695Y-56572419D02*
X95837219Y-56572419D01*
X95837219Y-56572419D02*
X95741981Y-56524800D01*
X95741981Y-56524800D02*
X95694362Y-56477180D01*
X95694362Y-56477180D02*
X95646743Y-56381942D01*
X95646743Y-56381942D02*
X95646743Y-56096228D01*
X95646743Y-56096228D02*
X95694362Y-56000990D01*
X95694362Y-56000990D02*
X95741981Y-55953371D01*
X95741981Y-55953371D02*
X95837219Y-55905752D01*
X95837219Y-55905752D02*
X96027695Y-55905752D01*
X96027695Y-55905752D02*
X96122933Y-55953371D01*
D12*
X64238095Y-64404819D02*
X64238095Y-65214342D01*
X64238095Y-65214342D02*
X64285714Y-65309580D01*
X64285714Y-65309580D02*
X64333333Y-65357200D01*
X64333333Y-65357200D02*
X64428571Y-65404819D01*
X64428571Y-65404819D02*
X64619047Y-65404819D01*
X64619047Y-65404819D02*
X64714285Y-65357200D01*
X64714285Y-65357200D02*
X64761904Y-65309580D01*
X64761904Y-65309580D02*
X64809523Y-65214342D01*
X64809523Y-65214342D02*
X64809523Y-64404819D01*
X65809523Y-65404819D02*
X65238095Y-65404819D01*
X65523809Y-65404819D02*
X65523809Y-64404819D01*
X65523809Y-64404819D02*
X65428571Y-64547676D01*
X65428571Y-64547676D02*
X65333333Y-64642914D01*
X65333333Y-64642914D02*
X65238095Y-64690533D01*
X71501905Y-56164819D02*
X71501905Y-55164819D01*
X71501905Y-55164819D02*
X71740000Y-55164819D01*
X71740000Y-55164819D02*
X71882857Y-55212438D01*
X71882857Y-55212438D02*
X71978095Y-55307676D01*
X71978095Y-55307676D02*
X72025714Y-55402914D01*
X72025714Y-55402914D02*
X72073333Y-55593390D01*
X72073333Y-55593390D02*
X72073333Y-55736247D01*
X72073333Y-55736247D02*
X72025714Y-55926723D01*
X72025714Y-55926723D02*
X71978095Y-56021961D01*
X71978095Y-56021961D02*
X71882857Y-56117200D01*
X71882857Y-56117200D02*
X71740000Y-56164819D01*
X71740000Y-56164819D02*
X71501905Y-56164819D01*
X73025714Y-56164819D02*
X72454286Y-56164819D01*
X72740000Y-56164819D02*
X72740000Y-55164819D01*
X72740000Y-55164819D02*
X72644762Y-55307676D01*
X72644762Y-55307676D02*
X72549524Y-55402914D01*
X72549524Y-55402914D02*
X72454286Y-55450533D01*
X74310476Y-56164819D02*
X74310476Y-55164819D01*
X74310476Y-55164819D02*
X74643809Y-55879104D01*
X74643809Y-55879104D02*
X74977142Y-55164819D01*
X74977142Y-55164819D02*
X74977142Y-56164819D01*
X75881904Y-55498152D02*
X75881904Y-56164819D01*
X75643809Y-55117200D02*
X75405714Y-55831485D01*
X75405714Y-55831485D02*
X76024761Y-55831485D01*
X84283333Y-63854819D02*
X83950000Y-63378628D01*
X83711905Y-63854819D02*
X83711905Y-62854819D01*
X83711905Y-62854819D02*
X84092857Y-62854819D01*
X84092857Y-62854819D02*
X84188095Y-62902438D01*
X84188095Y-62902438D02*
X84235714Y-62950057D01*
X84235714Y-62950057D02*
X84283333Y-63045295D01*
X84283333Y-63045295D02*
X84283333Y-63188152D01*
X84283333Y-63188152D02*
X84235714Y-63283390D01*
X84235714Y-63283390D02*
X84188095Y-63331009D01*
X84188095Y-63331009D02*
X84092857Y-63378628D01*
X84092857Y-63378628D02*
X83711905Y-63378628D01*
X85188095Y-62854819D02*
X84711905Y-62854819D01*
X84711905Y-62854819D02*
X84664286Y-63331009D01*
X84664286Y-63331009D02*
X84711905Y-63283390D01*
X84711905Y-63283390D02*
X84807143Y-63235771D01*
X84807143Y-63235771D02*
X85045238Y-63235771D01*
X85045238Y-63235771D02*
X85140476Y-63283390D01*
X85140476Y-63283390D02*
X85188095Y-63331009D01*
X85188095Y-63331009D02*
X85235714Y-63426247D01*
X85235714Y-63426247D02*
X85235714Y-63664342D01*
X85235714Y-63664342D02*
X85188095Y-63759580D01*
X85188095Y-63759580D02*
X85140476Y-63807200D01*
X85140476Y-63807200D02*
X85045238Y-63854819D01*
X85045238Y-63854819D02*
X84807143Y-63854819D01*
X84807143Y-63854819D02*
X84711905Y-63807200D01*
X84711905Y-63807200D02*
X84664286Y-63759580D01*
X86524761Y-63854819D02*
X85953333Y-63854819D01*
X86239047Y-63854819D02*
X86239047Y-62854819D01*
X86239047Y-62854819D02*
X86143809Y-62997676D01*
X86143809Y-62997676D02*
X86048571Y-63092914D01*
X86048571Y-63092914D02*
X85953333Y-63140533D01*
X87143809Y-62854819D02*
X87239047Y-62854819D01*
X87239047Y-62854819D02*
X87334285Y-62902438D01*
X87334285Y-62902438D02*
X87381904Y-62950057D01*
X87381904Y-62950057D02*
X87429523Y-63045295D01*
X87429523Y-63045295D02*
X87477142Y-63235771D01*
X87477142Y-63235771D02*
X87477142Y-63473866D01*
X87477142Y-63473866D02*
X87429523Y-63664342D01*
X87429523Y-63664342D02*
X87381904Y-63759580D01*
X87381904Y-63759580D02*
X87334285Y-63807200D01*
X87334285Y-63807200D02*
X87239047Y-63854819D01*
X87239047Y-63854819D02*
X87143809Y-63854819D01*
X87143809Y-63854819D02*
X87048571Y-63807200D01*
X87048571Y-63807200D02*
X87000952Y-63759580D01*
X87000952Y-63759580D02*
X86953333Y-63664342D01*
X86953333Y-63664342D02*
X86905714Y-63473866D01*
X86905714Y-63473866D02*
X86905714Y-63235771D01*
X86905714Y-63235771D02*
X86953333Y-63045295D01*
X86953333Y-63045295D02*
X87000952Y-62950057D01*
X87000952Y-62950057D02*
X87048571Y-62902438D01*
X87048571Y-62902438D02*
X87143809Y-62854819D01*
X87905714Y-63854819D02*
X87905714Y-62854819D01*
X88000952Y-63473866D02*
X88286666Y-63854819D01*
X88286666Y-63188152D02*
X87905714Y-63569104D01*
X80404761Y-57754819D02*
X80071428Y-57278628D01*
X79833333Y-57754819D02*
X79833333Y-56754819D01*
X79833333Y-56754819D02*
X80214285Y-56754819D01*
X80214285Y-56754819D02*
X80309523Y-56802438D01*
X80309523Y-56802438D02*
X80357142Y-56850057D01*
X80357142Y-56850057D02*
X80404761Y-56945295D01*
X80404761Y-56945295D02*
X80404761Y-57088152D01*
X80404761Y-57088152D02*
X80357142Y-57183390D01*
X80357142Y-57183390D02*
X80309523Y-57231009D01*
X80309523Y-57231009D02*
X80214285Y-57278628D01*
X80214285Y-57278628D02*
X79833333Y-57278628D01*
X80690476Y-56754819D02*
X81023809Y-57754819D01*
X81023809Y-57754819D02*
X81357142Y-56754819D01*
X81642857Y-56850057D02*
X81690476Y-56802438D01*
X81690476Y-56802438D02*
X81785714Y-56754819D01*
X81785714Y-56754819D02*
X82023809Y-56754819D01*
X82023809Y-56754819D02*
X82119047Y-56802438D01*
X82119047Y-56802438D02*
X82166666Y-56850057D01*
X82166666Y-56850057D02*
X82214285Y-56945295D01*
X82214285Y-56945295D02*
X82214285Y-57040533D01*
X82214285Y-57040533D02*
X82166666Y-57183390D01*
X82166666Y-57183390D02*
X81595238Y-57754819D01*
X81595238Y-57754819D02*
X82214285Y-57754819D01*
X84928571Y-57754819D02*
X84357143Y-57754819D01*
X84642857Y-57754819D02*
X84642857Y-56754819D01*
X84642857Y-56754819D02*
X84547619Y-56897676D01*
X84547619Y-56897676D02*
X84452381Y-56992914D01*
X84452381Y-56992914D02*
X84357143Y-57040533D01*
X85547619Y-56754819D02*
X85642857Y-56754819D01*
X85642857Y-56754819D02*
X85738095Y-56802438D01*
X85738095Y-56802438D02*
X85785714Y-56850057D01*
X85785714Y-56850057D02*
X85833333Y-56945295D01*
X85833333Y-56945295D02*
X85880952Y-57135771D01*
X85880952Y-57135771D02*
X85880952Y-57373866D01*
X85880952Y-57373866D02*
X85833333Y-57564342D01*
X85833333Y-57564342D02*
X85785714Y-57659580D01*
X85785714Y-57659580D02*
X85738095Y-57707200D01*
X85738095Y-57707200D02*
X85642857Y-57754819D01*
X85642857Y-57754819D02*
X85547619Y-57754819D01*
X85547619Y-57754819D02*
X85452381Y-57707200D01*
X85452381Y-57707200D02*
X85404762Y-57659580D01*
X85404762Y-57659580D02*
X85357143Y-57564342D01*
X85357143Y-57564342D02*
X85309524Y-57373866D01*
X85309524Y-57373866D02*
X85309524Y-57135771D01*
X85309524Y-57135771D02*
X85357143Y-56945295D01*
X85357143Y-56945295D02*
X85404762Y-56850057D01*
X85404762Y-56850057D02*
X85452381Y-56802438D01*
X85452381Y-56802438D02*
X85547619Y-56754819D01*
X86500000Y-56754819D02*
X86595238Y-56754819D01*
X86595238Y-56754819D02*
X86690476Y-56802438D01*
X86690476Y-56802438D02*
X86738095Y-56850057D01*
X86738095Y-56850057D02*
X86785714Y-56945295D01*
X86785714Y-56945295D02*
X86833333Y-57135771D01*
X86833333Y-57135771D02*
X86833333Y-57373866D01*
X86833333Y-57373866D02*
X86785714Y-57564342D01*
X86785714Y-57564342D02*
X86738095Y-57659580D01*
X86738095Y-57659580D02*
X86690476Y-57707200D01*
X86690476Y-57707200D02*
X86595238Y-57754819D01*
X86595238Y-57754819D02*
X86500000Y-57754819D01*
X86500000Y-57754819D02*
X86404762Y-57707200D01*
X86404762Y-57707200D02*
X86357143Y-57659580D01*
X86357143Y-57659580D02*
X86309524Y-57564342D01*
X86309524Y-57564342D02*
X86261905Y-57373866D01*
X86261905Y-57373866D02*
X86261905Y-57135771D01*
X86261905Y-57135771D02*
X86309524Y-56945295D01*
X86309524Y-56945295D02*
X86357143Y-56850057D01*
X86357143Y-56850057D02*
X86404762Y-56802438D01*
X86404762Y-56802438D02*
X86500000Y-56754819D01*
X87261905Y-57754819D02*
X87261905Y-56754819D01*
X87357143Y-57373866D02*
X87642857Y-57754819D01*
X87642857Y-57088152D02*
X87261905Y-57469104D01*
X59873333Y-64049580D02*
X59825714Y-64097200D01*
X59825714Y-64097200D02*
X59682857Y-64144819D01*
X59682857Y-64144819D02*
X59587619Y-64144819D01*
X59587619Y-64144819D02*
X59444762Y-64097200D01*
X59444762Y-64097200D02*
X59349524Y-64001961D01*
X59349524Y-64001961D02*
X59301905Y-63906723D01*
X59301905Y-63906723D02*
X59254286Y-63716247D01*
X59254286Y-63716247D02*
X59254286Y-63573390D01*
X59254286Y-63573390D02*
X59301905Y-63382914D01*
X59301905Y-63382914D02*
X59349524Y-63287676D01*
X59349524Y-63287676D02*
X59444762Y-63192438D01*
X59444762Y-63192438D02*
X59587619Y-63144819D01*
X59587619Y-63144819D02*
X59682857Y-63144819D01*
X59682857Y-63144819D02*
X59825714Y-63192438D01*
X59825714Y-63192438D02*
X59873333Y-63240057D01*
X60825714Y-64144819D02*
X60254286Y-64144819D01*
X60540000Y-64144819D02*
X60540000Y-63144819D01*
X60540000Y-63144819D02*
X60444762Y-63287676D01*
X60444762Y-63287676D02*
X60349524Y-63382914D01*
X60349524Y-63382914D02*
X60254286Y-63430533D01*
X59557142Y-66144819D02*
X58985714Y-66144819D01*
X59271428Y-66144819D02*
X59271428Y-65144819D01*
X59271428Y-65144819D02*
X59176190Y-65287676D01*
X59176190Y-65287676D02*
X59080952Y-65382914D01*
X59080952Y-65382914D02*
X58985714Y-65430533D01*
X60176190Y-65144819D02*
X60271428Y-65144819D01*
X60271428Y-65144819D02*
X60366666Y-65192438D01*
X60366666Y-65192438D02*
X60414285Y-65240057D01*
X60414285Y-65240057D02*
X60461904Y-65335295D01*
X60461904Y-65335295D02*
X60509523Y-65525771D01*
X60509523Y-65525771D02*
X60509523Y-65763866D01*
X60509523Y-65763866D02*
X60461904Y-65954342D01*
X60461904Y-65954342D02*
X60414285Y-66049580D01*
X60414285Y-66049580D02*
X60366666Y-66097200D01*
X60366666Y-66097200D02*
X60271428Y-66144819D01*
X60271428Y-66144819D02*
X60176190Y-66144819D01*
X60176190Y-66144819D02*
X60080952Y-66097200D01*
X60080952Y-66097200D02*
X60033333Y-66049580D01*
X60033333Y-66049580D02*
X59985714Y-65954342D01*
X59985714Y-65954342D02*
X59938095Y-65763866D01*
X59938095Y-65763866D02*
X59938095Y-65525771D01*
X59938095Y-65525771D02*
X59985714Y-65335295D01*
X59985714Y-65335295D02*
X60033333Y-65240057D01*
X60033333Y-65240057D02*
X60080952Y-65192438D01*
X60080952Y-65192438D02*
X60176190Y-65144819D01*
X61366666Y-65478152D02*
X61366666Y-66144819D01*
X60938095Y-65478152D02*
X60938095Y-66001961D01*
X60938095Y-66001961D02*
X60985714Y-66097200D01*
X60985714Y-66097200D02*
X61080952Y-66144819D01*
X61080952Y-66144819D02*
X61223809Y-66144819D01*
X61223809Y-66144819D02*
X61319047Y-66097200D01*
X61319047Y-66097200D02*
X61366666Y-66049580D01*
X74433333Y-52554819D02*
X74100000Y-52078628D01*
X73861905Y-52554819D02*
X73861905Y-51554819D01*
X73861905Y-51554819D02*
X74242857Y-51554819D01*
X74242857Y-51554819D02*
X74338095Y-51602438D01*
X74338095Y-51602438D02*
X74385714Y-51650057D01*
X74385714Y-51650057D02*
X74433333Y-51745295D01*
X74433333Y-51745295D02*
X74433333Y-51888152D01*
X74433333Y-51888152D02*
X74385714Y-51983390D01*
X74385714Y-51983390D02*
X74338095Y-52031009D01*
X74338095Y-52031009D02*
X74242857Y-52078628D01*
X74242857Y-52078628D02*
X73861905Y-52078628D01*
X74814286Y-51650057D02*
X74861905Y-51602438D01*
X74861905Y-51602438D02*
X74957143Y-51554819D01*
X74957143Y-51554819D02*
X75195238Y-51554819D01*
X75195238Y-51554819D02*
X75290476Y-51602438D01*
X75290476Y-51602438D02*
X75338095Y-51650057D01*
X75338095Y-51650057D02*
X75385714Y-51745295D01*
X75385714Y-51745295D02*
X75385714Y-51840533D01*
X75385714Y-51840533D02*
X75338095Y-51983390D01*
X75338095Y-51983390D02*
X74766667Y-52554819D01*
X74766667Y-52554819D02*
X75385714Y-52554819D01*
X76555714Y-51554819D02*
X77174761Y-51554819D01*
X77174761Y-51554819D02*
X76841428Y-51935771D01*
X76841428Y-51935771D02*
X76984285Y-51935771D01*
X76984285Y-51935771D02*
X77079523Y-51983390D01*
X77079523Y-51983390D02*
X77127142Y-52031009D01*
X77127142Y-52031009D02*
X77174761Y-52126247D01*
X77174761Y-52126247D02*
X77174761Y-52364342D01*
X77174761Y-52364342D02*
X77127142Y-52459580D01*
X77127142Y-52459580D02*
X77079523Y-52507200D01*
X77079523Y-52507200D02*
X76984285Y-52554819D01*
X76984285Y-52554819D02*
X76698571Y-52554819D01*
X76698571Y-52554819D02*
X76603333Y-52507200D01*
X76603333Y-52507200D02*
X76555714Y-52459580D01*
X77746190Y-51983390D02*
X77650952Y-51935771D01*
X77650952Y-51935771D02*
X77603333Y-51888152D01*
X77603333Y-51888152D02*
X77555714Y-51792914D01*
X77555714Y-51792914D02*
X77555714Y-51745295D01*
X77555714Y-51745295D02*
X77603333Y-51650057D01*
X77603333Y-51650057D02*
X77650952Y-51602438D01*
X77650952Y-51602438D02*
X77746190Y-51554819D01*
X77746190Y-51554819D02*
X77936666Y-51554819D01*
X77936666Y-51554819D02*
X78031904Y-51602438D01*
X78031904Y-51602438D02*
X78079523Y-51650057D01*
X78079523Y-51650057D02*
X78127142Y-51745295D01*
X78127142Y-51745295D02*
X78127142Y-51792914D01*
X78127142Y-51792914D02*
X78079523Y-51888152D01*
X78079523Y-51888152D02*
X78031904Y-51935771D01*
X78031904Y-51935771D02*
X77936666Y-51983390D01*
X77936666Y-51983390D02*
X77746190Y-51983390D01*
X77746190Y-51983390D02*
X77650952Y-52031009D01*
X77650952Y-52031009D02*
X77603333Y-52078628D01*
X77603333Y-52078628D02*
X77555714Y-52173866D01*
X77555714Y-52173866D02*
X77555714Y-52364342D01*
X77555714Y-52364342D02*
X77603333Y-52459580D01*
X77603333Y-52459580D02*
X77650952Y-52507200D01*
X77650952Y-52507200D02*
X77746190Y-52554819D01*
X77746190Y-52554819D02*
X77936666Y-52554819D01*
X77936666Y-52554819D02*
X78031904Y-52507200D01*
X78031904Y-52507200D02*
X78079523Y-52459580D01*
X78079523Y-52459580D02*
X78127142Y-52364342D01*
X78127142Y-52364342D02*
X78127142Y-52173866D01*
X78127142Y-52173866D02*
X78079523Y-52078628D01*
X78079523Y-52078628D02*
X78031904Y-52031009D01*
X78031904Y-52031009D02*
X77936666Y-51983390D01*
X78555714Y-52554819D02*
X78555714Y-51554819D01*
X78650952Y-52173866D02*
X78936666Y-52554819D01*
X78936666Y-51888152D02*
X78555714Y-52269104D01*
X71501905Y-65014819D02*
X71501905Y-64014819D01*
X71501905Y-64014819D02*
X71740000Y-64014819D01*
X71740000Y-64014819D02*
X71882857Y-64062438D01*
X71882857Y-64062438D02*
X71978095Y-64157676D01*
X71978095Y-64157676D02*
X72025714Y-64252914D01*
X72025714Y-64252914D02*
X72073333Y-64443390D01*
X72073333Y-64443390D02*
X72073333Y-64586247D01*
X72073333Y-64586247D02*
X72025714Y-64776723D01*
X72025714Y-64776723D02*
X71978095Y-64871961D01*
X71978095Y-64871961D02*
X71882857Y-64967200D01*
X71882857Y-64967200D02*
X71740000Y-65014819D01*
X71740000Y-65014819D02*
X71501905Y-65014819D01*
X72454286Y-64110057D02*
X72501905Y-64062438D01*
X72501905Y-64062438D02*
X72597143Y-64014819D01*
X72597143Y-64014819D02*
X72835238Y-64014819D01*
X72835238Y-64014819D02*
X72930476Y-64062438D01*
X72930476Y-64062438D02*
X72978095Y-64110057D01*
X72978095Y-64110057D02*
X73025714Y-64205295D01*
X73025714Y-64205295D02*
X73025714Y-64300533D01*
X73025714Y-64300533D02*
X72978095Y-64443390D01*
X72978095Y-64443390D02*
X72406667Y-65014819D01*
X72406667Y-65014819D02*
X73025714Y-65014819D01*
X74310476Y-65034819D02*
X74310476Y-64034819D01*
X74310476Y-64034819D02*
X74643809Y-64749104D01*
X74643809Y-64749104D02*
X74977142Y-64034819D01*
X74977142Y-64034819D02*
X74977142Y-65034819D01*
X75881904Y-64368152D02*
X75881904Y-65034819D01*
X75643809Y-63987200D02*
X75405714Y-64701485D01*
X75405714Y-64701485D02*
X76024761Y-64701485D01*
X52693333Y-64354819D02*
X52360000Y-63878628D01*
X52121905Y-64354819D02*
X52121905Y-63354819D01*
X52121905Y-63354819D02*
X52502857Y-63354819D01*
X52502857Y-63354819D02*
X52598095Y-63402438D01*
X52598095Y-63402438D02*
X52645714Y-63450057D01*
X52645714Y-63450057D02*
X52693333Y-63545295D01*
X52693333Y-63545295D02*
X52693333Y-63688152D01*
X52693333Y-63688152D02*
X52645714Y-63783390D01*
X52645714Y-63783390D02*
X52598095Y-63831009D01*
X52598095Y-63831009D02*
X52502857Y-63878628D01*
X52502857Y-63878628D02*
X52121905Y-63878628D01*
X53026667Y-63354819D02*
X53693333Y-63354819D01*
X53693333Y-63354819D02*
X53264762Y-64354819D01*
X51814761Y-66434819D02*
X51243333Y-66434819D01*
X51529047Y-66434819D02*
X51529047Y-65434819D01*
X51529047Y-65434819D02*
X51433809Y-65577676D01*
X51433809Y-65577676D02*
X51338571Y-65672914D01*
X51338571Y-65672914D02*
X51243333Y-65720533D01*
X52433809Y-65434819D02*
X52529047Y-65434819D01*
X52529047Y-65434819D02*
X52624285Y-65482438D01*
X52624285Y-65482438D02*
X52671904Y-65530057D01*
X52671904Y-65530057D02*
X52719523Y-65625295D01*
X52719523Y-65625295D02*
X52767142Y-65815771D01*
X52767142Y-65815771D02*
X52767142Y-66053866D01*
X52767142Y-66053866D02*
X52719523Y-66244342D01*
X52719523Y-66244342D02*
X52671904Y-66339580D01*
X52671904Y-66339580D02*
X52624285Y-66387200D01*
X52624285Y-66387200D02*
X52529047Y-66434819D01*
X52529047Y-66434819D02*
X52433809Y-66434819D01*
X52433809Y-66434819D02*
X52338571Y-66387200D01*
X52338571Y-66387200D02*
X52290952Y-66339580D01*
X52290952Y-66339580D02*
X52243333Y-66244342D01*
X52243333Y-66244342D02*
X52195714Y-66053866D01*
X52195714Y-66053866D02*
X52195714Y-65815771D01*
X52195714Y-65815771D02*
X52243333Y-65625295D01*
X52243333Y-65625295D02*
X52290952Y-65530057D01*
X52290952Y-65530057D02*
X52338571Y-65482438D01*
X52338571Y-65482438D02*
X52433809Y-65434819D01*
X53195714Y-66434819D02*
X53195714Y-65434819D01*
X53290952Y-66053866D02*
X53576666Y-66434819D01*
X53576666Y-65768152D02*
X53195714Y-66149104D01*
X62193333Y-73374819D02*
X61717143Y-73374819D01*
X61717143Y-73374819D02*
X61717143Y-72374819D01*
X62479048Y-72470057D02*
X62526667Y-72422438D01*
X62526667Y-72422438D02*
X62621905Y-72374819D01*
X62621905Y-72374819D02*
X62860000Y-72374819D01*
X62860000Y-72374819D02*
X62955238Y-72422438D01*
X62955238Y-72422438D02*
X63002857Y-72470057D01*
X63002857Y-72470057D02*
X63050476Y-72565295D01*
X63050476Y-72565295D02*
X63050476Y-72660533D01*
X63050476Y-72660533D02*
X63002857Y-72803390D01*
X63002857Y-72803390D02*
X62431429Y-73374819D01*
X62431429Y-73374819D02*
X63050476Y-73374819D01*
X64463809Y-72768152D02*
X64463809Y-73434819D01*
X64225714Y-72387200D02*
X63987619Y-73101485D01*
X63987619Y-73101485D02*
X64606666Y-73101485D01*
X64987619Y-73339580D02*
X65035238Y-73387200D01*
X65035238Y-73387200D02*
X64987619Y-73434819D01*
X64987619Y-73434819D02*
X64940000Y-73387200D01*
X64940000Y-73387200D02*
X64987619Y-73339580D01*
X64987619Y-73339580D02*
X64987619Y-73434819D01*
X65368571Y-72434819D02*
X66035237Y-72434819D01*
X66035237Y-72434819D02*
X65606666Y-73434819D01*
X66844761Y-72768152D02*
X66844761Y-73434819D01*
X66416190Y-72768152D02*
X66416190Y-73291961D01*
X66416190Y-73291961D02*
X66463809Y-73387200D01*
X66463809Y-73387200D02*
X66559047Y-73434819D01*
X66559047Y-73434819D02*
X66701904Y-73434819D01*
X66701904Y-73434819D02*
X66797142Y-73387200D01*
X66797142Y-73387200D02*
X66844761Y-73339580D01*
X84283333Y-62054819D02*
X83950000Y-61578628D01*
X83711905Y-62054819D02*
X83711905Y-61054819D01*
X83711905Y-61054819D02*
X84092857Y-61054819D01*
X84092857Y-61054819D02*
X84188095Y-61102438D01*
X84188095Y-61102438D02*
X84235714Y-61150057D01*
X84235714Y-61150057D02*
X84283333Y-61245295D01*
X84283333Y-61245295D02*
X84283333Y-61388152D01*
X84283333Y-61388152D02*
X84235714Y-61483390D01*
X84235714Y-61483390D02*
X84188095Y-61531009D01*
X84188095Y-61531009D02*
X84092857Y-61578628D01*
X84092857Y-61578628D02*
X83711905Y-61578628D01*
X85235714Y-62054819D02*
X84664286Y-62054819D01*
X84950000Y-62054819D02*
X84950000Y-61054819D01*
X84950000Y-61054819D02*
X84854762Y-61197676D01*
X84854762Y-61197676D02*
X84759524Y-61292914D01*
X84759524Y-61292914D02*
X84664286Y-61340533D01*
X86574761Y-62054819D02*
X86003333Y-62054819D01*
X86289047Y-62054819D02*
X86289047Y-61054819D01*
X86289047Y-61054819D02*
X86193809Y-61197676D01*
X86193809Y-61197676D02*
X86098571Y-61292914D01*
X86098571Y-61292914D02*
X86003333Y-61340533D01*
X87193809Y-61054819D02*
X87289047Y-61054819D01*
X87289047Y-61054819D02*
X87384285Y-61102438D01*
X87384285Y-61102438D02*
X87431904Y-61150057D01*
X87431904Y-61150057D02*
X87479523Y-61245295D01*
X87479523Y-61245295D02*
X87527142Y-61435771D01*
X87527142Y-61435771D02*
X87527142Y-61673866D01*
X87527142Y-61673866D02*
X87479523Y-61864342D01*
X87479523Y-61864342D02*
X87431904Y-61959580D01*
X87431904Y-61959580D02*
X87384285Y-62007200D01*
X87384285Y-62007200D02*
X87289047Y-62054819D01*
X87289047Y-62054819D02*
X87193809Y-62054819D01*
X87193809Y-62054819D02*
X87098571Y-62007200D01*
X87098571Y-62007200D02*
X87050952Y-61959580D01*
X87050952Y-61959580D02*
X87003333Y-61864342D01*
X87003333Y-61864342D02*
X86955714Y-61673866D01*
X86955714Y-61673866D02*
X86955714Y-61435771D01*
X86955714Y-61435771D02*
X87003333Y-61245295D01*
X87003333Y-61245295D02*
X87050952Y-61150057D01*
X87050952Y-61150057D02*
X87098571Y-61102438D01*
X87098571Y-61102438D02*
X87193809Y-61054819D01*
X87955714Y-62054819D02*
X87955714Y-61054819D01*
X88050952Y-61673866D02*
X88336666Y-62054819D01*
X88336666Y-61388152D02*
X87955714Y-61769104D01*
X68643333Y-73174819D02*
X68310000Y-72698628D01*
X68071905Y-73174819D02*
X68071905Y-72174819D01*
X68071905Y-72174819D02*
X68452857Y-72174819D01*
X68452857Y-72174819D02*
X68548095Y-72222438D01*
X68548095Y-72222438D02*
X68595714Y-72270057D01*
X68595714Y-72270057D02*
X68643333Y-72365295D01*
X68643333Y-72365295D02*
X68643333Y-72508152D01*
X68643333Y-72508152D02*
X68595714Y-72603390D01*
X68595714Y-72603390D02*
X68548095Y-72651009D01*
X68548095Y-72651009D02*
X68452857Y-72698628D01*
X68452857Y-72698628D02*
X68071905Y-72698628D01*
X69500476Y-72508152D02*
X69500476Y-73174819D01*
X69262381Y-72127200D02*
X69024286Y-72841485D01*
X69024286Y-72841485D02*
X69643333Y-72841485D01*
X70904761Y-73194819D02*
X70333333Y-73194819D01*
X70619047Y-73194819D02*
X70619047Y-72194819D01*
X70619047Y-72194819D02*
X70523809Y-72337676D01*
X70523809Y-72337676D02*
X70428571Y-72432914D01*
X70428571Y-72432914D02*
X70333333Y-72480533D01*
X71523809Y-72194819D02*
X71619047Y-72194819D01*
X71619047Y-72194819D02*
X71714285Y-72242438D01*
X71714285Y-72242438D02*
X71761904Y-72290057D01*
X71761904Y-72290057D02*
X71809523Y-72385295D01*
X71809523Y-72385295D02*
X71857142Y-72575771D01*
X71857142Y-72575771D02*
X71857142Y-72813866D01*
X71857142Y-72813866D02*
X71809523Y-73004342D01*
X71809523Y-73004342D02*
X71761904Y-73099580D01*
X71761904Y-73099580D02*
X71714285Y-73147200D01*
X71714285Y-73147200D02*
X71619047Y-73194819D01*
X71619047Y-73194819D02*
X71523809Y-73194819D01*
X71523809Y-73194819D02*
X71428571Y-73147200D01*
X71428571Y-73147200D02*
X71380952Y-73099580D01*
X71380952Y-73099580D02*
X71333333Y-73004342D01*
X71333333Y-73004342D02*
X71285714Y-72813866D01*
X71285714Y-72813866D02*
X71285714Y-72575771D01*
X71285714Y-72575771D02*
X71333333Y-72385295D01*
X71333333Y-72385295D02*
X71380952Y-72290057D01*
X71380952Y-72290057D02*
X71428571Y-72242438D01*
X71428571Y-72242438D02*
X71523809Y-72194819D01*
X72285714Y-73194819D02*
X72285714Y-72194819D01*
X72380952Y-72813866D02*
X72666666Y-73194819D01*
X72666666Y-72528152D02*
X72285714Y-72909104D01*
X78923333Y-63854819D02*
X78590000Y-63378628D01*
X78351905Y-63854819D02*
X78351905Y-62854819D01*
X78351905Y-62854819D02*
X78732857Y-62854819D01*
X78732857Y-62854819D02*
X78828095Y-62902438D01*
X78828095Y-62902438D02*
X78875714Y-62950057D01*
X78875714Y-62950057D02*
X78923333Y-63045295D01*
X78923333Y-63045295D02*
X78923333Y-63188152D01*
X78923333Y-63188152D02*
X78875714Y-63283390D01*
X78875714Y-63283390D02*
X78828095Y-63331009D01*
X78828095Y-63331009D02*
X78732857Y-63378628D01*
X78732857Y-63378628D02*
X78351905Y-63378628D01*
X79780476Y-62854819D02*
X79590000Y-62854819D01*
X79590000Y-62854819D02*
X79494762Y-62902438D01*
X79494762Y-62902438D02*
X79447143Y-62950057D01*
X79447143Y-62950057D02*
X79351905Y-63092914D01*
X79351905Y-63092914D02*
X79304286Y-63283390D01*
X79304286Y-63283390D02*
X79304286Y-63664342D01*
X79304286Y-63664342D02*
X79351905Y-63759580D01*
X79351905Y-63759580D02*
X79399524Y-63807200D01*
X79399524Y-63807200D02*
X79494762Y-63854819D01*
X79494762Y-63854819D02*
X79685238Y-63854819D01*
X79685238Y-63854819D02*
X79780476Y-63807200D01*
X79780476Y-63807200D02*
X79828095Y-63759580D01*
X79828095Y-63759580D02*
X79875714Y-63664342D01*
X79875714Y-63664342D02*
X79875714Y-63426247D01*
X79875714Y-63426247D02*
X79828095Y-63331009D01*
X79828095Y-63331009D02*
X79780476Y-63283390D01*
X79780476Y-63283390D02*
X79685238Y-63235771D01*
X79685238Y-63235771D02*
X79494762Y-63235771D01*
X79494762Y-63235771D02*
X79399524Y-63283390D01*
X79399524Y-63283390D02*
X79351905Y-63331009D01*
X79351905Y-63331009D02*
X79304286Y-63426247D01*
X81820952Y-63854819D02*
X81249524Y-63854819D01*
X81535238Y-63854819D02*
X81535238Y-62854819D01*
X81535238Y-62854819D02*
X81440000Y-62997676D01*
X81440000Y-62997676D02*
X81344762Y-63092914D01*
X81344762Y-63092914D02*
X81249524Y-63140533D01*
X82249524Y-63854819D02*
X82249524Y-62854819D01*
X82344762Y-63473866D02*
X82630476Y-63854819D01*
X82630476Y-63188152D02*
X82249524Y-63569104D01*
X60883333Y-54634819D02*
X60407143Y-54634819D01*
X60407143Y-54634819D02*
X60407143Y-53634819D01*
X61740476Y-54634819D02*
X61169048Y-54634819D01*
X61454762Y-54634819D02*
X61454762Y-53634819D01*
X61454762Y-53634819D02*
X61359524Y-53777676D01*
X61359524Y-53777676D02*
X61264286Y-53872914D01*
X61264286Y-53872914D02*
X61169048Y-53920533D01*
X59483809Y-55738152D02*
X59483809Y-56404819D01*
X59245714Y-55357200D02*
X59007619Y-56071485D01*
X59007619Y-56071485D02*
X59626666Y-56071485D01*
X60007619Y-56309580D02*
X60055238Y-56357200D01*
X60055238Y-56357200D02*
X60007619Y-56404819D01*
X60007619Y-56404819D02*
X59960000Y-56357200D01*
X59960000Y-56357200D02*
X60007619Y-56309580D01*
X60007619Y-56309580D02*
X60007619Y-56404819D01*
X60388571Y-55404819D02*
X61055237Y-55404819D01*
X61055237Y-55404819D02*
X60626666Y-56404819D01*
X61864761Y-55738152D02*
X61864761Y-56404819D01*
X61436190Y-55738152D02*
X61436190Y-56261961D01*
X61436190Y-56261961D02*
X61483809Y-56357200D01*
X61483809Y-56357200D02*
X61579047Y-56404819D01*
X61579047Y-56404819D02*
X61721904Y-56404819D01*
X61721904Y-56404819D02*
X61817142Y-56357200D01*
X61817142Y-56357200D02*
X61864761Y-56309580D01*
X56043333Y-59319580D02*
X55995714Y-59367200D01*
X55995714Y-59367200D02*
X55852857Y-59414819D01*
X55852857Y-59414819D02*
X55757619Y-59414819D01*
X55757619Y-59414819D02*
X55614762Y-59367200D01*
X55614762Y-59367200D02*
X55519524Y-59271961D01*
X55519524Y-59271961D02*
X55471905Y-59176723D01*
X55471905Y-59176723D02*
X55424286Y-58986247D01*
X55424286Y-58986247D02*
X55424286Y-58843390D01*
X55424286Y-58843390D02*
X55471905Y-58652914D01*
X55471905Y-58652914D02*
X55519524Y-58557676D01*
X55519524Y-58557676D02*
X55614762Y-58462438D01*
X55614762Y-58462438D02*
X55757619Y-58414819D01*
X55757619Y-58414819D02*
X55852857Y-58414819D01*
X55852857Y-58414819D02*
X55995714Y-58462438D01*
X55995714Y-58462438D02*
X56043333Y-58510057D01*
X56900476Y-58748152D02*
X56900476Y-59414819D01*
X56662381Y-58367200D02*
X56424286Y-59081485D01*
X56424286Y-59081485D02*
X57043333Y-59081485D01*
X54010952Y-61074819D02*
X53439524Y-61074819D01*
X53725238Y-61074819D02*
X53725238Y-60074819D01*
X53725238Y-60074819D02*
X53630000Y-60217676D01*
X53630000Y-60217676D02*
X53534762Y-60312914D01*
X53534762Y-60312914D02*
X53439524Y-60360533D01*
X54630000Y-60074819D02*
X54725238Y-60074819D01*
X54725238Y-60074819D02*
X54820476Y-60122438D01*
X54820476Y-60122438D02*
X54868095Y-60170057D01*
X54868095Y-60170057D02*
X54915714Y-60265295D01*
X54915714Y-60265295D02*
X54963333Y-60455771D01*
X54963333Y-60455771D02*
X54963333Y-60693866D01*
X54963333Y-60693866D02*
X54915714Y-60884342D01*
X54915714Y-60884342D02*
X54868095Y-60979580D01*
X54868095Y-60979580D02*
X54820476Y-61027200D01*
X54820476Y-61027200D02*
X54725238Y-61074819D01*
X54725238Y-61074819D02*
X54630000Y-61074819D01*
X54630000Y-61074819D02*
X54534762Y-61027200D01*
X54534762Y-61027200D02*
X54487143Y-60979580D01*
X54487143Y-60979580D02*
X54439524Y-60884342D01*
X54439524Y-60884342D02*
X54391905Y-60693866D01*
X54391905Y-60693866D02*
X54391905Y-60455771D01*
X54391905Y-60455771D02*
X54439524Y-60265295D01*
X54439524Y-60265295D02*
X54487143Y-60170057D01*
X54487143Y-60170057D02*
X54534762Y-60122438D01*
X54534762Y-60122438D02*
X54630000Y-60074819D01*
X55582381Y-60074819D02*
X55677619Y-60074819D01*
X55677619Y-60074819D02*
X55772857Y-60122438D01*
X55772857Y-60122438D02*
X55820476Y-60170057D01*
X55820476Y-60170057D02*
X55868095Y-60265295D01*
X55868095Y-60265295D02*
X55915714Y-60455771D01*
X55915714Y-60455771D02*
X55915714Y-60693866D01*
X55915714Y-60693866D02*
X55868095Y-60884342D01*
X55868095Y-60884342D02*
X55820476Y-60979580D01*
X55820476Y-60979580D02*
X55772857Y-61027200D01*
X55772857Y-61027200D02*
X55677619Y-61074819D01*
X55677619Y-61074819D02*
X55582381Y-61074819D01*
X55582381Y-61074819D02*
X55487143Y-61027200D01*
X55487143Y-61027200D02*
X55439524Y-60979580D01*
X55439524Y-60979580D02*
X55391905Y-60884342D01*
X55391905Y-60884342D02*
X55344286Y-60693866D01*
X55344286Y-60693866D02*
X55344286Y-60455771D01*
X55344286Y-60455771D02*
X55391905Y-60265295D01*
X55391905Y-60265295D02*
X55439524Y-60170057D01*
X55439524Y-60170057D02*
X55487143Y-60122438D01*
X55487143Y-60122438D02*
X55582381Y-60074819D01*
X56344286Y-60408152D02*
X56344286Y-61074819D01*
X56344286Y-60503390D02*
X56391905Y-60455771D01*
X56391905Y-60455771D02*
X56487143Y-60408152D01*
X56487143Y-60408152D02*
X56630000Y-60408152D01*
X56630000Y-60408152D02*
X56725238Y-60455771D01*
X56725238Y-60455771D02*
X56772857Y-60551009D01*
X56772857Y-60551009D02*
X56772857Y-61074819D01*
X90913333Y-63659580D02*
X90865714Y-63707200D01*
X90865714Y-63707200D02*
X90722857Y-63754819D01*
X90722857Y-63754819D02*
X90627619Y-63754819D01*
X90627619Y-63754819D02*
X90484762Y-63707200D01*
X90484762Y-63707200D02*
X90389524Y-63611961D01*
X90389524Y-63611961D02*
X90341905Y-63516723D01*
X90341905Y-63516723D02*
X90294286Y-63326247D01*
X90294286Y-63326247D02*
X90294286Y-63183390D01*
X90294286Y-63183390D02*
X90341905Y-62992914D01*
X90341905Y-62992914D02*
X90389524Y-62897676D01*
X90389524Y-62897676D02*
X90484762Y-62802438D01*
X90484762Y-62802438D02*
X90627619Y-62754819D01*
X90627619Y-62754819D02*
X90722857Y-62754819D01*
X90722857Y-62754819D02*
X90865714Y-62802438D01*
X90865714Y-62802438D02*
X90913333Y-62850057D01*
X91246667Y-62754819D02*
X91865714Y-62754819D01*
X91865714Y-62754819D02*
X91532381Y-63135771D01*
X91532381Y-63135771D02*
X91675238Y-63135771D01*
X91675238Y-63135771D02*
X91770476Y-63183390D01*
X91770476Y-63183390D02*
X91818095Y-63231009D01*
X91818095Y-63231009D02*
X91865714Y-63326247D01*
X91865714Y-63326247D02*
X91865714Y-63564342D01*
X91865714Y-63564342D02*
X91818095Y-63659580D01*
X91818095Y-63659580D02*
X91770476Y-63707200D01*
X91770476Y-63707200D02*
X91675238Y-63754819D01*
X91675238Y-63754819D02*
X91389524Y-63754819D01*
X91389524Y-63754819D02*
X91294286Y-63707200D01*
X91294286Y-63707200D02*
X91246667Y-63659580D01*
X67893333Y-52459580D02*
X67845714Y-52507200D01*
X67845714Y-52507200D02*
X67702857Y-52554819D01*
X67702857Y-52554819D02*
X67607619Y-52554819D01*
X67607619Y-52554819D02*
X67464762Y-52507200D01*
X67464762Y-52507200D02*
X67369524Y-52411961D01*
X67369524Y-52411961D02*
X67321905Y-52316723D01*
X67321905Y-52316723D02*
X67274286Y-52126247D01*
X67274286Y-52126247D02*
X67274286Y-51983390D01*
X67274286Y-51983390D02*
X67321905Y-51792914D01*
X67321905Y-51792914D02*
X67369524Y-51697676D01*
X67369524Y-51697676D02*
X67464762Y-51602438D01*
X67464762Y-51602438D02*
X67607619Y-51554819D01*
X67607619Y-51554819D02*
X67702857Y-51554819D01*
X67702857Y-51554819D02*
X67845714Y-51602438D01*
X67845714Y-51602438D02*
X67893333Y-51650057D01*
X68798095Y-51554819D02*
X68321905Y-51554819D01*
X68321905Y-51554819D02*
X68274286Y-52031009D01*
X68274286Y-52031009D02*
X68321905Y-51983390D01*
X68321905Y-51983390D02*
X68417143Y-51935771D01*
X68417143Y-51935771D02*
X68655238Y-51935771D01*
X68655238Y-51935771D02*
X68750476Y-51983390D01*
X68750476Y-51983390D02*
X68798095Y-52031009D01*
X68798095Y-52031009D02*
X68845714Y-52126247D01*
X68845714Y-52126247D02*
X68845714Y-52364342D01*
X68845714Y-52364342D02*
X68798095Y-52459580D01*
X68798095Y-52459580D02*
X68750476Y-52507200D01*
X68750476Y-52507200D02*
X68655238Y-52554819D01*
X68655238Y-52554819D02*
X68417143Y-52554819D01*
X68417143Y-52554819D02*
X68321905Y-52507200D01*
X68321905Y-52507200D02*
X68274286Y-52459580D01*
X70420952Y-52554819D02*
X69849524Y-52554819D01*
X70135238Y-52554819D02*
X70135238Y-51554819D01*
X70135238Y-51554819D02*
X70040000Y-51697676D01*
X70040000Y-51697676D02*
X69944762Y-51792914D01*
X69944762Y-51792914D02*
X69849524Y-51840533D01*
X70801905Y-51650057D02*
X70849524Y-51602438D01*
X70849524Y-51602438D02*
X70944762Y-51554819D01*
X70944762Y-51554819D02*
X71182857Y-51554819D01*
X71182857Y-51554819D02*
X71278095Y-51602438D01*
X71278095Y-51602438D02*
X71325714Y-51650057D01*
X71325714Y-51650057D02*
X71373333Y-51745295D01*
X71373333Y-51745295D02*
X71373333Y-51840533D01*
X71373333Y-51840533D02*
X71325714Y-51983390D01*
X71325714Y-51983390D02*
X70754286Y-52554819D01*
X70754286Y-52554819D02*
X71373333Y-52554819D01*
X71992381Y-51554819D02*
X72087619Y-51554819D01*
X72087619Y-51554819D02*
X72182857Y-51602438D01*
X72182857Y-51602438D02*
X72230476Y-51650057D01*
X72230476Y-51650057D02*
X72278095Y-51745295D01*
X72278095Y-51745295D02*
X72325714Y-51935771D01*
X72325714Y-51935771D02*
X72325714Y-52173866D01*
X72325714Y-52173866D02*
X72278095Y-52364342D01*
X72278095Y-52364342D02*
X72230476Y-52459580D01*
X72230476Y-52459580D02*
X72182857Y-52507200D01*
X72182857Y-52507200D02*
X72087619Y-52554819D01*
X72087619Y-52554819D02*
X71992381Y-52554819D01*
X71992381Y-52554819D02*
X71897143Y-52507200D01*
X71897143Y-52507200D02*
X71849524Y-52459580D01*
X71849524Y-52459580D02*
X71801905Y-52364342D01*
X71801905Y-52364342D02*
X71754286Y-52173866D01*
X71754286Y-52173866D02*
X71754286Y-51935771D01*
X71754286Y-51935771D02*
X71801905Y-51745295D01*
X71801905Y-51745295D02*
X71849524Y-51650057D01*
X71849524Y-51650057D02*
X71897143Y-51602438D01*
X71897143Y-51602438D02*
X71992381Y-51554819D01*
X72754286Y-51888152D02*
X72754286Y-52888152D01*
X72754286Y-51935771D02*
X72849524Y-51888152D01*
X72849524Y-51888152D02*
X73040000Y-51888152D01*
X73040000Y-51888152D02*
X73135238Y-51935771D01*
X73135238Y-51935771D02*
X73182857Y-51983390D01*
X73182857Y-51983390D02*
X73230476Y-52078628D01*
X73230476Y-52078628D02*
X73230476Y-52364342D01*
X73230476Y-52364342D02*
X73182857Y-52459580D01*
X73182857Y-52459580D02*
X73135238Y-52507200D01*
X73135238Y-52507200D02*
X73040000Y-52554819D01*
X73040000Y-52554819D02*
X72849524Y-52554819D01*
X72849524Y-52554819D02*
X72754286Y-52507200D01*
X80404761Y-67254819D02*
X80071428Y-66778628D01*
X79833333Y-67254819D02*
X79833333Y-66254819D01*
X79833333Y-66254819D02*
X80214285Y-66254819D01*
X80214285Y-66254819D02*
X80309523Y-66302438D01*
X80309523Y-66302438D02*
X80357142Y-66350057D01*
X80357142Y-66350057D02*
X80404761Y-66445295D01*
X80404761Y-66445295D02*
X80404761Y-66588152D01*
X80404761Y-66588152D02*
X80357142Y-66683390D01*
X80357142Y-66683390D02*
X80309523Y-66731009D01*
X80309523Y-66731009D02*
X80214285Y-66778628D01*
X80214285Y-66778628D02*
X79833333Y-66778628D01*
X80690476Y-66254819D02*
X81023809Y-67254819D01*
X81023809Y-67254819D02*
X81357142Y-66254819D01*
X82166666Y-66254819D02*
X81690476Y-66254819D01*
X81690476Y-66254819D02*
X81642857Y-66731009D01*
X81642857Y-66731009D02*
X81690476Y-66683390D01*
X81690476Y-66683390D02*
X81785714Y-66635771D01*
X81785714Y-66635771D02*
X82023809Y-66635771D01*
X82023809Y-66635771D02*
X82119047Y-66683390D01*
X82119047Y-66683390D02*
X82166666Y-66731009D01*
X82166666Y-66731009D02*
X82214285Y-66826247D01*
X82214285Y-66826247D02*
X82214285Y-67064342D01*
X82214285Y-67064342D02*
X82166666Y-67159580D01*
X82166666Y-67159580D02*
X82119047Y-67207200D01*
X82119047Y-67207200D02*
X82023809Y-67254819D01*
X82023809Y-67254819D02*
X81785714Y-67254819D01*
X81785714Y-67254819D02*
X81690476Y-67207200D01*
X81690476Y-67207200D02*
X81642857Y-67159580D01*
X84928571Y-67154819D02*
X84357143Y-67154819D01*
X84642857Y-67154819D02*
X84642857Y-66154819D01*
X84642857Y-66154819D02*
X84547619Y-66297676D01*
X84547619Y-66297676D02*
X84452381Y-66392914D01*
X84452381Y-66392914D02*
X84357143Y-66440533D01*
X85547619Y-66154819D02*
X85642857Y-66154819D01*
X85642857Y-66154819D02*
X85738095Y-66202438D01*
X85738095Y-66202438D02*
X85785714Y-66250057D01*
X85785714Y-66250057D02*
X85833333Y-66345295D01*
X85833333Y-66345295D02*
X85880952Y-66535771D01*
X85880952Y-66535771D02*
X85880952Y-66773866D01*
X85880952Y-66773866D02*
X85833333Y-66964342D01*
X85833333Y-66964342D02*
X85785714Y-67059580D01*
X85785714Y-67059580D02*
X85738095Y-67107200D01*
X85738095Y-67107200D02*
X85642857Y-67154819D01*
X85642857Y-67154819D02*
X85547619Y-67154819D01*
X85547619Y-67154819D02*
X85452381Y-67107200D01*
X85452381Y-67107200D02*
X85404762Y-67059580D01*
X85404762Y-67059580D02*
X85357143Y-66964342D01*
X85357143Y-66964342D02*
X85309524Y-66773866D01*
X85309524Y-66773866D02*
X85309524Y-66535771D01*
X85309524Y-66535771D02*
X85357143Y-66345295D01*
X85357143Y-66345295D02*
X85404762Y-66250057D01*
X85404762Y-66250057D02*
X85452381Y-66202438D01*
X85452381Y-66202438D02*
X85547619Y-66154819D01*
X86500000Y-66154819D02*
X86595238Y-66154819D01*
X86595238Y-66154819D02*
X86690476Y-66202438D01*
X86690476Y-66202438D02*
X86738095Y-66250057D01*
X86738095Y-66250057D02*
X86785714Y-66345295D01*
X86785714Y-66345295D02*
X86833333Y-66535771D01*
X86833333Y-66535771D02*
X86833333Y-66773866D01*
X86833333Y-66773866D02*
X86785714Y-66964342D01*
X86785714Y-66964342D02*
X86738095Y-67059580D01*
X86738095Y-67059580D02*
X86690476Y-67107200D01*
X86690476Y-67107200D02*
X86595238Y-67154819D01*
X86595238Y-67154819D02*
X86500000Y-67154819D01*
X86500000Y-67154819D02*
X86404762Y-67107200D01*
X86404762Y-67107200D02*
X86357143Y-67059580D01*
X86357143Y-67059580D02*
X86309524Y-66964342D01*
X86309524Y-66964342D02*
X86261905Y-66773866D01*
X86261905Y-66773866D02*
X86261905Y-66535771D01*
X86261905Y-66535771D02*
X86309524Y-66345295D01*
X86309524Y-66345295D02*
X86357143Y-66250057D01*
X86357143Y-66250057D02*
X86404762Y-66202438D01*
X86404762Y-66202438D02*
X86500000Y-66154819D01*
X87261905Y-67154819D02*
X87261905Y-66154819D01*
X87357143Y-66773866D02*
X87642857Y-67154819D01*
X87642857Y-66488152D02*
X87261905Y-66869104D01*
X95843333Y-67159580D02*
X95795714Y-67207200D01*
X95795714Y-67207200D02*
X95652857Y-67254819D01*
X95652857Y-67254819D02*
X95557619Y-67254819D01*
X95557619Y-67254819D02*
X95414762Y-67207200D01*
X95414762Y-67207200D02*
X95319524Y-67111961D01*
X95319524Y-67111961D02*
X95271905Y-67016723D01*
X95271905Y-67016723D02*
X95224286Y-66826247D01*
X95224286Y-66826247D02*
X95224286Y-66683390D01*
X95224286Y-66683390D02*
X95271905Y-66492914D01*
X95271905Y-66492914D02*
X95319524Y-66397676D01*
X95319524Y-66397676D02*
X95414762Y-66302438D01*
X95414762Y-66302438D02*
X95557619Y-66254819D01*
X95557619Y-66254819D02*
X95652857Y-66254819D01*
X95652857Y-66254819D02*
X95795714Y-66302438D01*
X95795714Y-66302438D02*
X95843333Y-66350057D01*
X96176667Y-66254819D02*
X96843333Y-66254819D01*
X96843333Y-66254819D02*
X96414762Y-67254819D01*
X78993333Y-62054819D02*
X78660000Y-61578628D01*
X78421905Y-62054819D02*
X78421905Y-61054819D01*
X78421905Y-61054819D02*
X78802857Y-61054819D01*
X78802857Y-61054819D02*
X78898095Y-61102438D01*
X78898095Y-61102438D02*
X78945714Y-61150057D01*
X78945714Y-61150057D02*
X78993333Y-61245295D01*
X78993333Y-61245295D02*
X78993333Y-61388152D01*
X78993333Y-61388152D02*
X78945714Y-61483390D01*
X78945714Y-61483390D02*
X78898095Y-61531009D01*
X78898095Y-61531009D02*
X78802857Y-61578628D01*
X78802857Y-61578628D02*
X78421905Y-61578628D01*
X79326667Y-61054819D02*
X79945714Y-61054819D01*
X79945714Y-61054819D02*
X79612381Y-61435771D01*
X79612381Y-61435771D02*
X79755238Y-61435771D01*
X79755238Y-61435771D02*
X79850476Y-61483390D01*
X79850476Y-61483390D02*
X79898095Y-61531009D01*
X79898095Y-61531009D02*
X79945714Y-61626247D01*
X79945714Y-61626247D02*
X79945714Y-61864342D01*
X79945714Y-61864342D02*
X79898095Y-61959580D01*
X79898095Y-61959580D02*
X79850476Y-62007200D01*
X79850476Y-62007200D02*
X79755238Y-62054819D01*
X79755238Y-62054819D02*
X79469524Y-62054819D01*
X79469524Y-62054819D02*
X79374286Y-62007200D01*
X79374286Y-62007200D02*
X79326667Y-61959580D01*
X81740952Y-62054819D02*
X81169524Y-62054819D01*
X81455238Y-62054819D02*
X81455238Y-61054819D01*
X81455238Y-61054819D02*
X81360000Y-61197676D01*
X81360000Y-61197676D02*
X81264762Y-61292914D01*
X81264762Y-61292914D02*
X81169524Y-61340533D01*
X82169524Y-62054819D02*
X82169524Y-61054819D01*
X82264762Y-61673866D02*
X82550476Y-62054819D01*
X82550476Y-61388152D02*
X82169524Y-61769104D01*
X95803333Y-60729580D02*
X95755714Y-60777200D01*
X95755714Y-60777200D02*
X95612857Y-60824819D01*
X95612857Y-60824819D02*
X95517619Y-60824819D01*
X95517619Y-60824819D02*
X95374762Y-60777200D01*
X95374762Y-60777200D02*
X95279524Y-60681961D01*
X95279524Y-60681961D02*
X95231905Y-60586723D01*
X95231905Y-60586723D02*
X95184286Y-60396247D01*
X95184286Y-60396247D02*
X95184286Y-60253390D01*
X95184286Y-60253390D02*
X95231905Y-60062914D01*
X95231905Y-60062914D02*
X95279524Y-59967676D01*
X95279524Y-59967676D02*
X95374762Y-59872438D01*
X95374762Y-59872438D02*
X95517619Y-59824819D01*
X95517619Y-59824819D02*
X95612857Y-59824819D01*
X95612857Y-59824819D02*
X95755714Y-59872438D01*
X95755714Y-59872438D02*
X95803333Y-59920057D01*
X96184286Y-59920057D02*
X96231905Y-59872438D01*
X96231905Y-59872438D02*
X96327143Y-59824819D01*
X96327143Y-59824819D02*
X96565238Y-59824819D01*
X96565238Y-59824819D02*
X96660476Y-59872438D01*
X96660476Y-59872438D02*
X96708095Y-59920057D01*
X96708095Y-59920057D02*
X96755714Y-60015295D01*
X96755714Y-60015295D02*
X96755714Y-60110533D01*
X96755714Y-60110533D02*
X96708095Y-60253390D01*
X96708095Y-60253390D02*
X96136667Y-60824819D01*
X96136667Y-60824819D02*
X96755714Y-60824819D01*
X74173333Y-73109580D02*
X74125714Y-73157200D01*
X74125714Y-73157200D02*
X73982857Y-73204819D01*
X73982857Y-73204819D02*
X73887619Y-73204819D01*
X73887619Y-73204819D02*
X73744762Y-73157200D01*
X73744762Y-73157200D02*
X73649524Y-73061961D01*
X73649524Y-73061961D02*
X73601905Y-72966723D01*
X73601905Y-72966723D02*
X73554286Y-72776247D01*
X73554286Y-72776247D02*
X73554286Y-72633390D01*
X73554286Y-72633390D02*
X73601905Y-72442914D01*
X73601905Y-72442914D02*
X73649524Y-72347676D01*
X73649524Y-72347676D02*
X73744762Y-72252438D01*
X73744762Y-72252438D02*
X73887619Y-72204819D01*
X73887619Y-72204819D02*
X73982857Y-72204819D01*
X73982857Y-72204819D02*
X74125714Y-72252438D01*
X74125714Y-72252438D02*
X74173333Y-72300057D01*
X75030476Y-72204819D02*
X74840000Y-72204819D01*
X74840000Y-72204819D02*
X74744762Y-72252438D01*
X74744762Y-72252438D02*
X74697143Y-72300057D01*
X74697143Y-72300057D02*
X74601905Y-72442914D01*
X74601905Y-72442914D02*
X74554286Y-72633390D01*
X74554286Y-72633390D02*
X74554286Y-73014342D01*
X74554286Y-73014342D02*
X74601905Y-73109580D01*
X74601905Y-73109580D02*
X74649524Y-73157200D01*
X74649524Y-73157200D02*
X74744762Y-73204819D01*
X74744762Y-73204819D02*
X74935238Y-73204819D01*
X74935238Y-73204819D02*
X75030476Y-73157200D01*
X75030476Y-73157200D02*
X75078095Y-73109580D01*
X75078095Y-73109580D02*
X75125714Y-73014342D01*
X75125714Y-73014342D02*
X75125714Y-72776247D01*
X75125714Y-72776247D02*
X75078095Y-72681009D01*
X75078095Y-72681009D02*
X75030476Y-72633390D01*
X75030476Y-72633390D02*
X74935238Y-72585771D01*
X74935238Y-72585771D02*
X74744762Y-72585771D01*
X74744762Y-72585771D02*
X74649524Y-72633390D01*
X74649524Y-72633390D02*
X74601905Y-72681009D01*
X74601905Y-72681009D02*
X74554286Y-72776247D01*
X76640952Y-73204819D02*
X76069524Y-73204819D01*
X76355238Y-73204819D02*
X76355238Y-72204819D01*
X76355238Y-72204819D02*
X76260000Y-72347676D01*
X76260000Y-72347676D02*
X76164762Y-72442914D01*
X76164762Y-72442914D02*
X76069524Y-72490533D01*
X77021905Y-72300057D02*
X77069524Y-72252438D01*
X77069524Y-72252438D02*
X77164762Y-72204819D01*
X77164762Y-72204819D02*
X77402857Y-72204819D01*
X77402857Y-72204819D02*
X77498095Y-72252438D01*
X77498095Y-72252438D02*
X77545714Y-72300057D01*
X77545714Y-72300057D02*
X77593333Y-72395295D01*
X77593333Y-72395295D02*
X77593333Y-72490533D01*
X77593333Y-72490533D02*
X77545714Y-72633390D01*
X77545714Y-72633390D02*
X76974286Y-73204819D01*
X76974286Y-73204819D02*
X77593333Y-73204819D01*
X78212381Y-72204819D02*
X78307619Y-72204819D01*
X78307619Y-72204819D02*
X78402857Y-72252438D01*
X78402857Y-72252438D02*
X78450476Y-72300057D01*
X78450476Y-72300057D02*
X78498095Y-72395295D01*
X78498095Y-72395295D02*
X78545714Y-72585771D01*
X78545714Y-72585771D02*
X78545714Y-72823866D01*
X78545714Y-72823866D02*
X78498095Y-73014342D01*
X78498095Y-73014342D02*
X78450476Y-73109580D01*
X78450476Y-73109580D02*
X78402857Y-73157200D01*
X78402857Y-73157200D02*
X78307619Y-73204819D01*
X78307619Y-73204819D02*
X78212381Y-73204819D01*
X78212381Y-73204819D02*
X78117143Y-73157200D01*
X78117143Y-73157200D02*
X78069524Y-73109580D01*
X78069524Y-73109580D02*
X78021905Y-73014342D01*
X78021905Y-73014342D02*
X77974286Y-72823866D01*
X77974286Y-72823866D02*
X77974286Y-72585771D01*
X77974286Y-72585771D02*
X78021905Y-72395295D01*
X78021905Y-72395295D02*
X78069524Y-72300057D01*
X78069524Y-72300057D02*
X78117143Y-72252438D01*
X78117143Y-72252438D02*
X78212381Y-72204819D01*
X78974286Y-72538152D02*
X78974286Y-73538152D01*
X78974286Y-72585771D02*
X79069524Y-72538152D01*
X79069524Y-72538152D02*
X79260000Y-72538152D01*
X79260000Y-72538152D02*
X79355238Y-72585771D01*
X79355238Y-72585771D02*
X79402857Y-72633390D01*
X79402857Y-72633390D02*
X79450476Y-72728628D01*
X79450476Y-72728628D02*
X79450476Y-73014342D01*
X79450476Y-73014342D02*
X79402857Y-73109580D01*
X79402857Y-73109580D02*
X79355238Y-73157200D01*
X79355238Y-73157200D02*
X79260000Y-73204819D01*
X79260000Y-73204819D02*
X79069524Y-73204819D01*
X79069524Y-73204819D02*
X78974286Y-73157200D01*
D14*
%TO.C,U1*%
X66500000Y-64135000D02*
X63500000Y-64135000D01*
X66500000Y-60865000D02*
X63500000Y-60865000D01*
X67020000Y-64530000D02*
X67020000Y-64050000D01*
X67500000Y-64050000D01*
X67020000Y-64530000D01*
G36*
X67020000Y-64530000D02*
G01*
X67020000Y-64050000D01*
X67500000Y-64050000D01*
X67020000Y-64530000D01*
G37*
%TO.C,D1*%
X78010000Y-56350000D02*
X71000000Y-56350000D01*
X78010000Y-59650000D02*
X71000000Y-59650000D01*
X78010000Y-59650000D02*
X78010000Y-56350000D01*
%TO.C,R5*%
X85772936Y-64265000D02*
X86227064Y-64265000D01*
X85772936Y-65735000D02*
X86227064Y-65735000D01*
%TO.C,RV2*%
X79275000Y-51370000D02*
X79275000Y-56440000D01*
X79275000Y-51370000D02*
X89045000Y-51370000D01*
X79275000Y-56440000D02*
X89045000Y-56440000D01*
X89045000Y-51370000D02*
X89045000Y-56440000D01*
%TO.C,C1*%
X57265000Y-64738748D02*
X57265000Y-65261252D01*
X58735000Y-64738748D02*
X58735000Y-65261252D01*
%TO.C,R2*%
X76227064Y-53165000D02*
X75772936Y-53165000D01*
X76227064Y-54635000D02*
X75772936Y-54635000D01*
%TO.C,D2*%
X68990000Y-65350000D02*
X68990000Y-68650000D01*
X68990000Y-65350000D02*
X76000000Y-65350000D01*
X68990000Y-68650000D02*
X76000000Y-68650000D01*
%TO.C,R7*%
X54265000Y-65227064D02*
X54265000Y-64772936D01*
X55735000Y-65227064D02*
X55735000Y-64772936D01*
%TO.C,L2*%
X62300000Y-66150000D02*
X62300000Y-71850000D01*
X62300000Y-71850000D02*
X63800000Y-71850000D01*
X63800000Y-66150000D02*
X62300000Y-66150000D01*
X66200000Y-66150000D02*
X67700000Y-66150000D01*
X67700000Y-66150000D02*
X67700000Y-71850000D01*
X67700000Y-71850000D02*
X66200000Y-71850000D01*
%TO.C,R1*%
X85772936Y-59265000D02*
X86227064Y-59265000D01*
X85772936Y-60735000D02*
X86227064Y-60735000D01*
%TO.C,R4*%
X70772936Y-70205000D02*
X71227064Y-70205000D01*
X70772936Y-71675000D02*
X71227064Y-71675000D01*
%TO.C,R6*%
X80772936Y-64265000D02*
X81227064Y-64265000D01*
X80772936Y-65735000D02*
X81227064Y-65735000D01*
%TO.C,L1*%
X62300000Y-53150000D02*
X62300000Y-58850000D01*
X62300000Y-58850000D02*
X63800000Y-58850000D01*
X63800000Y-53150000D02*
X62300000Y-53150000D01*
X66200000Y-53150000D02*
X67700000Y-53150000D01*
X67700000Y-53150000D02*
X67700000Y-58850000D01*
X67700000Y-58850000D02*
X66200000Y-58850000D01*
%TO.C,C4*%
X57265000Y-59738748D02*
X57265000Y-60261252D01*
X58735000Y-59738748D02*
X58735000Y-60261252D01*
%TO.C,C3*%
X90738748Y-64265000D02*
X91261252Y-64265000D01*
X90738748Y-65735000D02*
X91261252Y-65735000D01*
%TO.C,C5*%
X70738748Y-53085000D02*
X71261252Y-53085000D01*
X70738748Y-54555000D02*
X71261252Y-54555000D01*
%TO.C,RV5*%
X79275000Y-67470000D02*
X79275000Y-72540000D01*
X79275000Y-67470000D02*
X89045000Y-67470000D01*
X79275000Y-72540000D02*
X89045000Y-72540000D01*
X89045000Y-67470000D02*
X89045000Y-72540000D01*
%TO.C,C7*%
X96261252Y-64265000D02*
X95738748Y-64265000D01*
X96261252Y-65735000D02*
X95738748Y-65735000D01*
%TO.C,R3*%
X80772936Y-59265000D02*
X81227064Y-59265000D01*
X80772936Y-60735000D02*
X81227064Y-60735000D01*
%TO.C,C2*%
X96261252Y-61265000D02*
X95738748Y-61265000D01*
X96261252Y-62735000D02*
X95738748Y-62735000D01*
%TO.C,C6*%
X75738748Y-70125000D02*
X76261252Y-70125000D01*
X75738748Y-71595000D02*
X76261252Y-71595000D01*
%TD*%
M02*
