%TF.GenerationSoftware,KiCad,Pcbnew,8.0.4*%
%TF.CreationDate,2025-01-20T11:41:47+00:00*%
%TF.ProjectId,r1283_power,72313238-335f-4706-9f77-65722e6b6963,rev?*%
%TF.SameCoordinates,Original*%
%TF.FileFunction,Copper,L2,Bot*%
%TF.FilePolarity,Positive*%
%FSLAX46Y46*%
G04 Gerber Fmt 4.6, Leading zero omitted, Abs format (unit mm)*
G04 Created by KiCad (PCBNEW 8.0.4) date 2025-01-20 11:41:47*
%MOMM*%
%LPD*%
G01*
G04 APERTURE LIST*
G04 Aperture macros list*
%AMRoundRect*
0 Rectangle with rounded corners*
0 $1 Rounding radius*
0 $2 $3 $4 $5 $6 $7 $8 $9 X,Y pos of 4 corners*
0 Add a 4 corners polygon primitive as box body*
4,1,4,$2,$3,$4,$5,$6,$7,$8,$9,$2,$3,0*
0 Add four circle primitives for the rounded corners*
1,1,$1+$1,$2,$3*
1,1,$1+$1,$4,$5*
1,1,$1+$1,$6,$7*
1,1,$1+$1,$8,$9*
0 Add four rect primitives between the rounded corners*
20,1,$1+$1,$2,$3,$4,$5,0*
20,1,$1+$1,$4,$5,$6,$7,0*
20,1,$1+$1,$6,$7,$8,$9,0*
20,1,$1+$1,$8,$9,$2,$3,0*%
G04 Aperture macros list end*
%TA.AperFunction,ComponentPad*%
%ADD10C,1.440000*%
%TD*%
%TA.AperFunction,ComponentPad*%
%ADD11RoundRect,0.250000X-0.500000X-1.750000X0.500000X-1.750000X0.500000X1.750000X-0.500000X1.750000X0*%
%TD*%
%TA.AperFunction,ComponentPad*%
%ADD12RoundRect,0.250000X0.500000X1.750000X-0.500000X1.750000X-0.500000X-1.750000X0.500000X-1.750000X0*%
%TD*%
%TA.AperFunction,ViaPad*%
%ADD13C,0.600000*%
%TD*%
%TA.AperFunction,Conductor*%
%ADD14C,0.750000*%
%TD*%
%TA.AperFunction,Conductor*%
%ADD15C,0.250000*%
%TD*%
%TA.AperFunction,Conductor*%
%ADD16C,0.200000*%
%TD*%
G04 APERTURE END LIST*
D10*
%TO.P,RV2,1,1*%
%TO.N,Net-(JP1-A)*%
X86700000Y-53900000D03*
%TO.P,RV2,2,2*%
X84160000Y-53900000D03*
%TO.P,RV2,3,3*%
%TO.N,Net-(JP1-B)*%
X81620000Y-53900000D03*
%TD*%
%TO.P,RV5,1,1*%
%TO.N,Net-(JP2-A)*%
X86700000Y-70000000D03*
%TO.P,RV5,2,2*%
X84160000Y-70000000D03*
%TO.P,RV5,3,3*%
%TO.N,Net-(JP2-B)*%
X81620000Y-70000000D03*
%TD*%
D11*
%TO.P,J1,1,Pin_1*%
%TO.N,+5V*%
X53360000Y-72000000D03*
%TO.P,J1,2,Pin_2*%
%TO.N,/ENABLE*%
X55900000Y-72000000D03*
%TO.P,J1,3,Pin_3*%
%TO.N,GND1*%
X58440000Y-72000000D03*
%TD*%
D12*
%TO.P,J2,1,Pin_1*%
%TO.N,/VOUT_POS*%
X96540000Y-72000000D03*
%TO.P,J2,2,Pin_2*%
%TO.N,GND1*%
X94000000Y-72000000D03*
%TO.P,J2,3,Pin_3*%
%TO.N,/VOUT_NEG*%
X91460000Y-72000000D03*
%TD*%
D13*
%TO.N,GND1*%
X64700000Y-51640000D03*
X70120000Y-55940000D03*
X61550000Y-57500000D03*
%TO.N,Net-(JP1-A)*%
X73490000Y-53380000D03*
%TO.N,GND1*%
X66140000Y-64890000D03*
X63620000Y-64910000D03*
X82840000Y-58370000D03*
%TO.N,Net-(C5-Pad1)*%
X78800000Y-58000000D03*
X68520000Y-53830000D03*
%TO.N,Net-(JP2-A)*%
X65900000Y-60359265D03*
X67270000Y-68150000D03*
%TO.N,Net-(JP1-A)*%
X62210000Y-61980000D03*
X63000000Y-59600000D03*
%TO.N,Net-(U1-Vref)*%
X61400000Y-60460000D03*
X62200000Y-68310000D03*
%TO.N,/Lx1*%
X67770000Y-58030000D03*
X67980000Y-63530000D03*
%TO.N,/ENABLE*%
X56030000Y-62360000D03*
X67720000Y-60880000D03*
%TO.N,GND1*%
X96840000Y-58370000D03*
X89540000Y-62700000D03*
X55850000Y-55460000D03*
X52490000Y-58160000D03*
X60057500Y-66037500D03*
X88900000Y-60000000D03*
X59600000Y-62320000D03*
X90800000Y-54800000D03*
%TD*%
D14*
%TO.N,GND1*%
X64700000Y-51640000D02*
X65250000Y-51640000D01*
X65250000Y-51640000D02*
X67595000Y-53985000D01*
X67595000Y-53985000D02*
X67595000Y-54213148D01*
X67595000Y-54213148D02*
X69321852Y-55940000D01*
X69321852Y-55940000D02*
X70120000Y-55940000D01*
X64700000Y-51640000D02*
X63090000Y-53250000D01*
X63090000Y-53250000D02*
X63090000Y-55960000D01*
X63090000Y-55960000D02*
X61550000Y-57500000D01*
X61550000Y-57500000D02*
X59510000Y-55460000D01*
X59510000Y-55460000D02*
X55850000Y-55460000D01*
X70140000Y-55960000D02*
X70120000Y-55940000D01*
X82840000Y-58370000D02*
X82285000Y-58925000D01*
X82285000Y-58925000D02*
X78416852Y-58925000D01*
X78416852Y-58925000D02*
X75451852Y-55960000D01*
X75451852Y-55960000D02*
X70140000Y-55960000D01*
X55850000Y-55460000D02*
X55190000Y-55460000D01*
X55190000Y-55460000D02*
X52490000Y-58160000D01*
X88900000Y-58250000D02*
X88900000Y-56700000D01*
X88900000Y-60000000D02*
X88900000Y-58250000D01*
X88900000Y-58250000D02*
X82960000Y-58250000D01*
X82960000Y-58250000D02*
X82840000Y-58370000D01*
X90800000Y-54800000D02*
X93270000Y-54800000D01*
X93270000Y-54800000D02*
X96840000Y-58370000D01*
X88900000Y-56700000D02*
X90800000Y-54800000D01*
X92800000Y-67900000D02*
X86510000Y-67900000D01*
D15*
%TO.N,Net-(JP1-A)*%
X73490000Y-53380000D02*
X74015000Y-52855000D01*
X74015000Y-52855000D02*
X83115000Y-52855000D01*
X83115000Y-52855000D02*
X84160000Y-53900000D01*
D14*
%TO.N,GND1*%
X73420000Y-69450000D02*
X78250000Y-69450000D01*
X73390000Y-69480000D02*
X73420000Y-69450000D01*
X73360000Y-69450000D02*
X73390000Y-69480000D01*
D15*
%TO.N,Net-(C5-Pad1)*%
X78800000Y-58000000D02*
X75220000Y-54420000D01*
X75220000Y-54420000D02*
X69110000Y-54420000D01*
X69110000Y-54420000D02*
X68520000Y-53830000D01*
%TO.N,Net-(JP2-A)*%
X66315381Y-60359265D02*
X67220000Y-61263884D01*
X67220000Y-61263884D02*
X67220000Y-68100000D01*
X65900000Y-60359265D02*
X66315381Y-60359265D01*
X67220000Y-68100000D02*
X67270000Y-68150000D01*
D16*
%TO.N,Net-(U1-Vref)*%
X62200000Y-65408529D02*
X61400000Y-64608529D01*
X62200000Y-68310000D02*
X62200000Y-65408529D01*
X61400000Y-64608529D02*
X61400000Y-60460000D01*
D14*
%TO.N,/Lx1*%
X68645000Y-62865000D02*
X67980000Y-63530000D01*
X67770000Y-58030000D02*
X68645000Y-58905000D01*
X68645000Y-58905000D02*
X68645000Y-62865000D01*
D16*
%TO.N,/ENABLE*%
X56030000Y-62360000D02*
X55900000Y-62490000D01*
X56030000Y-61350000D02*
X58380000Y-59000000D01*
X56030000Y-62360000D02*
X56030000Y-61350000D01*
X55900000Y-62490000D02*
X55900000Y-71900000D01*
X58380000Y-59000000D02*
X65840000Y-59000000D01*
X65840000Y-59000000D02*
X67720000Y-60880000D01*
D14*
%TO.N,GND1*%
X89540000Y-64870000D02*
X89540000Y-63260000D01*
X64000000Y-69700000D02*
X65000000Y-68700000D01*
X64250000Y-69450000D02*
X73360000Y-69450000D01*
X61400000Y-69700000D02*
X64000000Y-69700000D01*
X92800000Y-67900000D02*
X94000000Y-69100000D01*
X58440000Y-71900000D02*
X58440000Y-68760000D01*
X88900000Y-60000000D02*
X89540000Y-60640000D01*
X89540000Y-60640000D02*
X89540000Y-63220000D01*
X94000000Y-69100000D02*
X94000000Y-72000000D01*
X60057500Y-62777500D02*
X59600000Y-62320000D01*
X60057500Y-66037500D02*
X60057500Y-62777500D01*
X79800000Y-67900000D02*
X86510000Y-67900000D01*
X58900000Y-68300000D02*
X60000000Y-68300000D01*
X58440000Y-68760000D02*
X58900000Y-68300000D01*
X65000000Y-62500000D02*
X65000000Y-68700000D01*
X60000000Y-68300000D02*
X61400000Y-69700000D01*
X64000000Y-69700000D02*
X64250000Y-69450000D01*
X78250000Y-69450000D02*
X79800000Y-67900000D01*
X86510000Y-67900000D02*
X89540000Y-64870000D01*
D15*
%TO.N,Net-(JP1-A)*%
X62210000Y-61040000D02*
X62210000Y-61980000D01*
X63000000Y-59600000D02*
X63000000Y-60250000D01*
X63000000Y-60250000D02*
X62210000Y-61040000D01*
%TD*%
%TA.AperFunction,Conductor*%
%TO.N,GND1*%
G36*
X99442539Y-50520185D02*
G01*
X99488294Y-50572989D01*
X99499500Y-50624500D01*
X99499500Y-73375500D01*
X99479815Y-73442539D01*
X99427011Y-73488294D01*
X99375500Y-73499500D01*
X97914500Y-73499500D01*
X97847461Y-73479815D01*
X97801706Y-73427011D01*
X97790500Y-73375500D01*
X97790499Y-70199998D01*
X97790498Y-70199981D01*
X97779999Y-70097203D01*
X97779998Y-70097200D01*
X97747788Y-69999998D01*
X97724814Y-69930666D01*
X97632712Y-69781344D01*
X97508656Y-69657288D01*
X97393183Y-69586064D01*
X97359336Y-69565187D01*
X97359331Y-69565185D01*
X97357862Y-69564698D01*
X97192797Y-69510001D01*
X97192795Y-69510000D01*
X97090010Y-69499500D01*
X95989998Y-69499500D01*
X95989980Y-69499501D01*
X95887203Y-69510000D01*
X95887200Y-69510001D01*
X95720668Y-69565185D01*
X95720663Y-69565187D01*
X95571342Y-69657289D01*
X95447288Y-69781343D01*
X95447285Y-69781347D01*
X95375244Y-69898144D01*
X95323296Y-69944869D01*
X95254334Y-69956090D01*
X95190252Y-69928247D01*
X95164167Y-69898144D01*
X95092315Y-69781654D01*
X94968345Y-69657684D01*
X94819124Y-69565643D01*
X94819119Y-69565641D01*
X94652697Y-69510494D01*
X94652690Y-69510493D01*
X94549980Y-69500000D01*
X93450028Y-69500000D01*
X93450012Y-69500001D01*
X93347302Y-69510494D01*
X93180880Y-69565641D01*
X93180875Y-69565643D01*
X93031654Y-69657684D01*
X92907683Y-69781655D01*
X92907680Y-69781659D01*
X92835831Y-69898144D01*
X92783883Y-69944869D01*
X92714920Y-69956090D01*
X92650838Y-69928247D01*
X92624754Y-69898144D01*
X92624461Y-69897669D01*
X92552712Y-69781344D01*
X92428656Y-69657288D01*
X92313183Y-69586064D01*
X92279336Y-69565187D01*
X92279331Y-69565185D01*
X92277862Y-69564698D01*
X92112797Y-69510001D01*
X92112795Y-69510000D01*
X92010010Y-69499500D01*
X90909998Y-69499500D01*
X90909980Y-69499501D01*
X90807203Y-69510000D01*
X90807200Y-69510001D01*
X90640668Y-69565185D01*
X90640663Y-69565187D01*
X90491342Y-69657289D01*
X90367289Y-69781342D01*
X90275187Y-69930663D01*
X90275185Y-69930668D01*
X90266918Y-69955616D01*
X90220001Y-70097203D01*
X90220001Y-70097204D01*
X90220000Y-70097204D01*
X90209500Y-70199983D01*
X90209500Y-70199991D01*
X90209500Y-71845606D01*
X90209501Y-73375500D01*
X90189816Y-73442539D01*
X90137012Y-73488294D01*
X90085501Y-73499500D01*
X59637309Y-73499500D01*
X59570270Y-73479815D01*
X59549628Y-73463181D01*
X58486447Y-72400000D01*
X58492661Y-72400000D01*
X58594394Y-72372741D01*
X58685606Y-72320080D01*
X58760080Y-72245606D01*
X58812741Y-72154394D01*
X58840000Y-72052661D01*
X58840000Y-72046448D01*
X59689998Y-72896446D01*
X59689999Y-72896445D01*
X59689999Y-71103553D01*
X59689998Y-71103552D01*
X58840000Y-71953551D01*
X58840000Y-71947339D01*
X58812741Y-71845606D01*
X58760080Y-71754394D01*
X58685606Y-71679920D01*
X58594394Y-71627259D01*
X58492661Y-71600000D01*
X58486447Y-71600000D01*
X59689998Y-70396447D01*
X59689999Y-70396446D01*
X59689999Y-70200028D01*
X59689998Y-70200013D01*
X59679505Y-70097302D01*
X59647262Y-69999998D01*
X80394838Y-69999998D01*
X80394838Y-70000001D01*
X80413450Y-70212741D01*
X80413452Y-70212752D01*
X80468721Y-70419022D01*
X80468723Y-70419026D01*
X80468724Y-70419030D01*
X80511171Y-70510058D01*
X80558977Y-70612578D01*
X80681472Y-70787521D01*
X80832478Y-70938527D01*
X80832481Y-70938529D01*
X81007419Y-71061021D01*
X81007421Y-71061022D01*
X81007420Y-71061022D01*
X81071936Y-71091106D01*
X81200970Y-71151276D01*
X81407253Y-71206549D01*
X81559215Y-71219844D01*
X81619998Y-71225162D01*
X81620000Y-71225162D01*
X81620002Y-71225162D01*
X81673186Y-71220508D01*
X81832747Y-71206549D01*
X82039030Y-71151276D01*
X82232581Y-71061021D01*
X82407519Y-70938529D01*
X82558529Y-70787519D01*
X82681021Y-70612581D01*
X82771276Y-70419030D01*
X82771280Y-70419013D01*
X82773130Y-70413936D01*
X82775253Y-70414709D01*
X82806576Y-70363305D01*
X82869419Y-70332766D01*
X82938796Y-70341050D01*
X82992680Y-70385528D01*
X83005827Y-70414315D01*
X83006870Y-70413936D01*
X83008722Y-70419022D01*
X83008724Y-70419030D01*
X83051171Y-70510058D01*
X83098977Y-70612578D01*
X83221472Y-70787521D01*
X83372478Y-70938527D01*
X83372481Y-70938529D01*
X83547419Y-71061021D01*
X83547421Y-71061022D01*
X83547420Y-71061022D01*
X83611936Y-71091106D01*
X83740970Y-71151276D01*
X83947253Y-71206549D01*
X84099215Y-71219844D01*
X84159998Y-71225162D01*
X84160000Y-71225162D01*
X84160002Y-71225162D01*
X84213186Y-71220508D01*
X84372747Y-71206549D01*
X84579030Y-71151276D01*
X84772581Y-71061021D01*
X84947519Y-70938529D01*
X85098529Y-70787519D01*
X85221021Y-70612581D01*
X85311276Y-70419030D01*
X85311280Y-70419013D01*
X85313130Y-70413936D01*
X85315253Y-70414709D01*
X85346576Y-70363305D01*
X85409419Y-70332766D01*
X85478796Y-70341050D01*
X85532680Y-70385528D01*
X85545827Y-70414315D01*
X85546870Y-70413936D01*
X85548722Y-70419022D01*
X85548724Y-70419030D01*
X85591171Y-70510058D01*
X85638977Y-70612578D01*
X85761472Y-70787521D01*
X85912478Y-70938527D01*
X85912481Y-70938529D01*
X86087419Y-71061021D01*
X86087421Y-71061022D01*
X86087420Y-71061022D01*
X86151936Y-71091106D01*
X86280970Y-71151276D01*
X86487253Y-71206549D01*
X86639215Y-71219844D01*
X86699998Y-71225162D01*
X86700000Y-71225162D01*
X86700002Y-71225162D01*
X86753186Y-71220508D01*
X86912747Y-71206549D01*
X87119030Y-71151276D01*
X87312581Y-71061021D01*
X87487519Y-70938529D01*
X87638529Y-70787519D01*
X87761021Y-70612581D01*
X87851276Y-70419030D01*
X87906549Y-70212747D01*
X87925162Y-70000000D01*
X87906549Y-69787253D01*
X87851276Y-69580970D01*
X87761021Y-69387419D01*
X87638529Y-69212481D01*
X87638527Y-69212478D01*
X87487521Y-69061472D01*
X87312578Y-68938977D01*
X87312579Y-68938977D01*
X87177068Y-68875788D01*
X87119030Y-68848724D01*
X87119026Y-68848723D01*
X87119022Y-68848721D01*
X86912752Y-68793452D01*
X86912748Y-68793451D01*
X86912747Y-68793451D01*
X86912746Y-68793450D01*
X86912741Y-68793450D01*
X86700002Y-68774838D01*
X86699998Y-68774838D01*
X86487258Y-68793450D01*
X86487247Y-68793452D01*
X86280977Y-68848721D01*
X86280968Y-68848725D01*
X86087421Y-68938977D01*
X85912478Y-69061472D01*
X85761472Y-69212478D01*
X85638977Y-69387421D01*
X85548725Y-69580968D01*
X85546870Y-69586064D01*
X85544749Y-69585292D01*
X85513406Y-69636710D01*
X85450558Y-69667237D01*
X85381183Y-69658939D01*
X85327307Y-69614452D01*
X85314169Y-69585685D01*
X85313130Y-69586064D01*
X85311279Y-69580983D01*
X85311276Y-69580970D01*
X85221021Y-69387419D01*
X85098529Y-69212481D01*
X85098527Y-69212478D01*
X84947521Y-69061472D01*
X84772578Y-68938977D01*
X84772579Y-68938977D01*
X84637068Y-68875788D01*
X84579030Y-68848724D01*
X84579026Y-68848723D01*
X84579022Y-68848721D01*
X84372752Y-68793452D01*
X84372748Y-68793451D01*
X84372747Y-68793451D01*
X84372746Y-68793450D01*
X84372741Y-68793450D01*
X84160002Y-68774838D01*
X84159998Y-68774838D01*
X83947258Y-68793450D01*
X83947247Y-68793452D01*
X83740977Y-68848721D01*
X83740968Y-68848725D01*
X83547421Y-68938977D01*
X83372478Y-69061472D01*
X83221472Y-69212478D01*
X83098977Y-69387421D01*
X83008725Y-69580968D01*
X83006870Y-69586064D01*
X83004749Y-69585292D01*
X82973406Y-69636710D01*
X82910558Y-69667237D01*
X82841183Y-69658939D01*
X82787307Y-69614452D01*
X82774169Y-69585685D01*
X82773130Y-69586064D01*
X82771279Y-69580983D01*
X82771276Y-69580970D01*
X82681021Y-69387419D01*
X82558529Y-69212481D01*
X82558527Y-69212478D01*
X82407521Y-69061472D01*
X82232578Y-68938977D01*
X82232579Y-68938977D01*
X82097068Y-68875788D01*
X82039030Y-68848724D01*
X82039026Y-68848723D01*
X82039022Y-68848721D01*
X81832752Y-68793452D01*
X81832748Y-68793451D01*
X81832747Y-68793451D01*
X81832746Y-68793450D01*
X81832741Y-68793450D01*
X81620002Y-68774838D01*
X81619998Y-68774838D01*
X81407258Y-68793450D01*
X81407247Y-68793452D01*
X81200977Y-68848721D01*
X81200968Y-68848725D01*
X81007421Y-68938977D01*
X80832478Y-69061472D01*
X80681472Y-69212478D01*
X80558977Y-69387421D01*
X80468725Y-69580968D01*
X80468721Y-69580977D01*
X80413452Y-69787247D01*
X80413450Y-69787258D01*
X80394838Y-69999998D01*
X59647262Y-69999998D01*
X59624358Y-69930880D01*
X59624356Y-69930875D01*
X59532315Y-69781654D01*
X59408345Y-69657684D01*
X59259124Y-69565643D01*
X59259119Y-69565641D01*
X59092697Y-69510494D01*
X59092690Y-69510493D01*
X58989980Y-69500000D01*
X57890028Y-69500000D01*
X57890012Y-69500001D01*
X57787302Y-69510494D01*
X57620880Y-69565641D01*
X57620875Y-69565643D01*
X57471654Y-69657684D01*
X57347683Y-69781655D01*
X57347680Y-69781659D01*
X57275831Y-69898144D01*
X57223883Y-69944869D01*
X57154920Y-69956090D01*
X57090838Y-69928247D01*
X57064754Y-69898144D01*
X57064461Y-69897669D01*
X56992712Y-69781344D01*
X56868656Y-69657288D01*
X56753183Y-69586064D01*
X56719336Y-69565187D01*
X56719335Y-69565186D01*
X56719334Y-69565186D01*
X56585495Y-69520836D01*
X56528051Y-69481063D01*
X56501228Y-69416547D01*
X56500500Y-69403130D01*
X56500500Y-63072940D01*
X56520185Y-63005901D01*
X56536819Y-62985259D01*
X56570849Y-62951229D01*
X56659816Y-62862262D01*
X56755789Y-62709522D01*
X56815368Y-62539255D01*
X56835565Y-62360000D01*
X56832131Y-62329523D01*
X56815369Y-62180750D01*
X56815368Y-62180745D01*
X56755788Y-62010476D01*
X56659813Y-61857734D01*
X56657550Y-61854896D01*
X56656659Y-61852715D01*
X56656111Y-61851842D01*
X56656264Y-61851745D01*
X56631144Y-61790209D01*
X56630500Y-61777587D01*
X56630500Y-61650097D01*
X56650185Y-61583058D01*
X56666819Y-61562416D01*
X58592416Y-59636819D01*
X58653739Y-59603334D01*
X58680097Y-59600500D01*
X60832865Y-59600500D01*
X60899904Y-59620185D01*
X60945659Y-59672989D01*
X60955603Y-59742147D01*
X60926578Y-59805703D01*
X60903147Y-59825795D01*
X60903184Y-59825841D01*
X60901912Y-59826855D01*
X60898834Y-59829495D01*
X60897741Y-59830181D01*
X60897737Y-59830184D01*
X60770184Y-59957737D01*
X60674211Y-60110476D01*
X60614631Y-60280745D01*
X60614630Y-60280750D01*
X60594435Y-60459996D01*
X60594435Y-60460002D01*
X60614630Y-60639249D01*
X60614631Y-60639254D01*
X60674211Y-60809523D01*
X60770185Y-60962263D01*
X60772445Y-60965097D01*
X60773334Y-60967275D01*
X60773889Y-60968158D01*
X60773734Y-60968255D01*
X60798855Y-61029783D01*
X60799500Y-61042412D01*
X60799500Y-64521859D01*
X60799499Y-64521877D01*
X60799499Y-64687583D01*
X60799498Y-64687583D01*
X60840423Y-64840314D01*
X60869358Y-64890429D01*
X60869359Y-64890433D01*
X60869360Y-64890433D01*
X60919479Y-64977243D01*
X60919481Y-64977246D01*
X61038349Y-65096114D01*
X61038355Y-65096119D01*
X61563181Y-65620945D01*
X61596666Y-65682268D01*
X61599500Y-65708626D01*
X61599500Y-67727587D01*
X61579815Y-67794626D01*
X61572450Y-67804896D01*
X61570186Y-67807734D01*
X61474211Y-67960476D01*
X61414631Y-68130745D01*
X61414630Y-68130750D01*
X61394435Y-68309996D01*
X61394435Y-68310003D01*
X61414630Y-68489249D01*
X61414631Y-68489254D01*
X61474211Y-68659523D01*
X61546669Y-68774838D01*
X61570184Y-68812262D01*
X61697738Y-68939816D01*
X61850478Y-69035789D01*
X61923873Y-69061471D01*
X62020745Y-69095368D01*
X62020750Y-69095369D01*
X62199996Y-69115565D01*
X62200000Y-69115565D01*
X62200004Y-69115565D01*
X62379249Y-69095369D01*
X62379252Y-69095368D01*
X62379255Y-69095368D01*
X62549522Y-69035789D01*
X62702262Y-68939816D01*
X62829816Y-68812262D01*
X62925789Y-68659522D01*
X62985368Y-68489255D01*
X63003396Y-68329254D01*
X63005565Y-68310003D01*
X63005565Y-68309996D01*
X62985369Y-68130750D01*
X62985368Y-68130745D01*
X62929383Y-67970750D01*
X62925789Y-67960478D01*
X62829816Y-67807738D01*
X62829814Y-67807736D01*
X62829813Y-67807734D01*
X62827550Y-67804896D01*
X62826659Y-67802715D01*
X62826111Y-67801842D01*
X62826264Y-67801745D01*
X62801144Y-67740209D01*
X62800500Y-67727587D01*
X62800500Y-65497588D01*
X62800501Y-65497575D01*
X62800501Y-65329474D01*
X62800501Y-65329472D01*
X62759577Y-65176744D01*
X62708946Y-65089049D01*
X62680520Y-65039813D01*
X62568716Y-64928009D01*
X62568715Y-64928008D01*
X62564385Y-64923678D01*
X62564374Y-64923668D01*
X62036819Y-64396113D01*
X62003334Y-64334790D01*
X62000500Y-64308432D01*
X62000500Y-62900716D01*
X62020185Y-62833677D01*
X62072989Y-62787922D01*
X62138384Y-62777496D01*
X62209997Y-62785565D01*
X62210000Y-62785565D01*
X62210004Y-62785565D01*
X62389249Y-62765369D01*
X62389252Y-62765368D01*
X62389255Y-62765368D01*
X62559522Y-62705789D01*
X62712262Y-62609816D01*
X62839816Y-62482262D01*
X62935789Y-62329522D01*
X62995368Y-62159255D01*
X63012131Y-62010478D01*
X63015565Y-61980003D01*
X63015565Y-61979996D01*
X62995369Y-61800750D01*
X62995368Y-61800745D01*
X62935788Y-61630476D01*
X62854506Y-61501117D01*
X62835500Y-61435145D01*
X62835500Y-61350452D01*
X62855185Y-61283413D01*
X62871819Y-61262771D01*
X63166336Y-60968255D01*
X63485858Y-60648733D01*
X63554312Y-60546285D01*
X63590052Y-60460000D01*
X63601463Y-60432452D01*
X63625500Y-60311606D01*
X63625500Y-60144854D01*
X63644507Y-60078881D01*
X63671119Y-60036528D01*
X63725789Y-59949522D01*
X63785368Y-59779255D01*
X63790444Y-59734211D01*
X63793102Y-59710617D01*
X63820168Y-59646203D01*
X63877763Y-59606648D01*
X63916322Y-59600500D01*
X65227325Y-59600500D01*
X65294364Y-59620185D01*
X65340119Y-59672989D01*
X65350063Y-59742147D01*
X65321038Y-59805703D01*
X65315006Y-59812181D01*
X65270184Y-59857002D01*
X65174211Y-60009741D01*
X65114631Y-60180010D01*
X65114630Y-60180015D01*
X65094435Y-60359261D01*
X65094435Y-60359268D01*
X65114630Y-60538514D01*
X65114631Y-60538519D01*
X65174211Y-60708788D01*
X65270184Y-60861527D01*
X65397738Y-60989081D01*
X65550478Y-61085054D01*
X65645241Y-61118213D01*
X65720745Y-61144633D01*
X65720750Y-61144634D01*
X65899996Y-61164830D01*
X65900000Y-61164830D01*
X65900004Y-61164830D01*
X66079249Y-61144634D01*
X66079250Y-61144633D01*
X66079255Y-61144633D01*
X66107129Y-61134878D01*
X66176907Y-61131316D01*
X66235765Y-61164239D01*
X66558181Y-61486655D01*
X66591666Y-61547978D01*
X66594500Y-61574336D01*
X66594500Y-67684719D01*
X66575494Y-67750690D01*
X66544209Y-67800479D01*
X66484633Y-67970737D01*
X66484630Y-67970750D01*
X66464435Y-68149996D01*
X66464435Y-68150003D01*
X66484630Y-68329249D01*
X66484631Y-68329254D01*
X66544211Y-68499523D01*
X66640184Y-68652262D01*
X66767738Y-68779816D01*
X66858080Y-68836582D01*
X66877399Y-68848721D01*
X66920478Y-68875789D01*
X67090745Y-68935368D01*
X67090750Y-68935369D01*
X67269996Y-68955565D01*
X67270000Y-68955565D01*
X67270004Y-68955565D01*
X67449249Y-68935369D01*
X67449252Y-68935368D01*
X67449255Y-68935368D01*
X67619522Y-68875789D01*
X67772262Y-68779816D01*
X67899816Y-68652262D01*
X67995789Y-68499522D01*
X68055368Y-68329255D01*
X68057537Y-68310003D01*
X68075565Y-68150003D01*
X68075565Y-68149996D01*
X68055369Y-67970750D01*
X68055368Y-67970745D01*
X67997335Y-67804896D01*
X67995789Y-67800478D01*
X67899816Y-67647738D01*
X67881819Y-67629741D01*
X67848334Y-67568418D01*
X67845500Y-67542060D01*
X67845500Y-64529500D01*
X67865185Y-64462461D01*
X67917989Y-64416706D01*
X67969500Y-64405500D01*
X68066231Y-64405500D01*
X68066232Y-64405499D01*
X68235374Y-64371855D01*
X68394705Y-64305858D01*
X68538099Y-64210045D01*
X69325045Y-63423099D01*
X69420858Y-63279705D01*
X69486855Y-63120374D01*
X69520500Y-62951229D01*
X69520500Y-62778771D01*
X69520500Y-58818771D01*
X69520500Y-58818768D01*
X69520499Y-58818766D01*
X69502005Y-58725789D01*
X69486855Y-58649626D01*
X69486853Y-58649621D01*
X69420861Y-58490301D01*
X69420854Y-58490288D01*
X69325046Y-58346902D01*
X69325045Y-58346901D01*
X69203099Y-58224955D01*
X68798889Y-57820745D01*
X68328102Y-57349957D01*
X68328098Y-57349954D01*
X68184711Y-57254145D01*
X68184698Y-57254138D01*
X68025378Y-57188146D01*
X68025366Y-57188143D01*
X67856232Y-57154500D01*
X67856229Y-57154500D01*
X67683771Y-57154500D01*
X67683768Y-57154500D01*
X67514633Y-57188143D01*
X67514621Y-57188146D01*
X67355301Y-57254138D01*
X67355288Y-57254145D01*
X67211901Y-57349954D01*
X67211897Y-57349957D01*
X67089957Y-57471897D01*
X67089954Y-57471901D01*
X66994145Y-57615288D01*
X66994138Y-57615301D01*
X66928146Y-57774621D01*
X66928143Y-57774633D01*
X66894500Y-57943766D01*
X66894500Y-58116233D01*
X66928143Y-58285366D01*
X66928146Y-58285378D01*
X66994138Y-58444698D01*
X66994145Y-58444711D01*
X67089954Y-58588098D01*
X67089957Y-58588102D01*
X67733181Y-59231325D01*
X67766666Y-59292648D01*
X67769500Y-59319006D01*
X67769500Y-59780903D01*
X67749815Y-59847942D01*
X67697011Y-59893697D01*
X67627853Y-59903641D01*
X67564297Y-59874616D01*
X67557819Y-59868584D01*
X66327590Y-58638355D01*
X66327588Y-58638352D01*
X66208717Y-58519481D01*
X66208716Y-58519480D01*
X66113539Y-58464530D01*
X66071785Y-58440423D01*
X65919057Y-58399499D01*
X65760943Y-58399499D01*
X65753347Y-58399499D01*
X65753331Y-58399500D01*
X58466669Y-58399500D01*
X58466653Y-58399499D01*
X58459057Y-58399499D01*
X58300943Y-58399499D01*
X58186397Y-58430192D01*
X58148214Y-58440423D01*
X58106461Y-58464530D01*
X58106460Y-58464530D01*
X58011287Y-58519477D01*
X58011282Y-58519481D01*
X55549480Y-60981283D01*
X55543537Y-60991578D01*
X55533037Y-61009765D01*
X55470423Y-61118215D01*
X55429499Y-61270943D01*
X55429499Y-61270945D01*
X55429499Y-61439046D01*
X55429500Y-61439059D01*
X55429500Y-61777587D01*
X55409815Y-61844626D01*
X55402450Y-61854896D01*
X55400186Y-61857734D01*
X55304211Y-62010476D01*
X55244631Y-62180745D01*
X55244630Y-62180750D01*
X55224435Y-62359996D01*
X55224435Y-62360003D01*
X55244630Y-62539246D01*
X55244632Y-62539257D01*
X55292541Y-62676170D01*
X55299500Y-62717125D01*
X55299500Y-69403130D01*
X55279815Y-69470169D01*
X55227011Y-69515924D01*
X55214505Y-69520836D01*
X55080666Y-69565186D01*
X55080663Y-69565187D01*
X54931342Y-69657289D01*
X54807289Y-69781342D01*
X54735539Y-69897669D01*
X54683591Y-69944393D01*
X54614628Y-69955616D01*
X54550546Y-69927772D01*
X54524461Y-69897669D01*
X54452712Y-69781344D01*
X54328656Y-69657288D01*
X54213183Y-69586064D01*
X54179336Y-69565187D01*
X54179331Y-69565185D01*
X54177862Y-69564698D01*
X54012797Y-69510001D01*
X54012795Y-69510000D01*
X53910010Y-69499500D01*
X52809998Y-69499500D01*
X52809980Y-69499501D01*
X52707203Y-69510000D01*
X52707200Y-69510001D01*
X52540668Y-69565185D01*
X52540663Y-69565187D01*
X52391342Y-69657289D01*
X52267289Y-69781342D01*
X52175187Y-69930663D01*
X52175185Y-69930668D01*
X52166918Y-69955616D01*
X52120001Y-70097203D01*
X52120001Y-70097204D01*
X52120000Y-70097204D01*
X52109500Y-70199983D01*
X52109500Y-70199991D01*
X52109500Y-71845606D01*
X52109501Y-73375500D01*
X52089816Y-73442539D01*
X52037012Y-73488294D01*
X51985501Y-73499500D01*
X50624500Y-73499500D01*
X50557461Y-73479815D01*
X50511706Y-73427011D01*
X50500500Y-73375500D01*
X50500500Y-53829996D01*
X67714435Y-53829996D01*
X67714435Y-53830000D01*
X67734630Y-54009249D01*
X67734631Y-54009254D01*
X67794211Y-54179523D01*
X67846855Y-54263305D01*
X67890184Y-54332262D01*
X68017738Y-54459816D01*
X68170478Y-54555789D01*
X68340745Y-54615368D01*
X68387823Y-54620672D01*
X68452236Y-54647737D01*
X68461621Y-54656211D01*
X68621016Y-54815606D01*
X68621045Y-54815637D01*
X68711264Y-54905856D01*
X68711267Y-54905858D01*
X68762490Y-54940084D01*
X68813714Y-54974312D01*
X68894207Y-55007652D01*
X68927548Y-55021463D01*
X68987971Y-55033481D01*
X69048393Y-55045500D01*
X69048394Y-55045500D01*
X74909548Y-55045500D01*
X74976587Y-55065185D01*
X74997229Y-55081819D01*
X77973787Y-58058378D01*
X78007272Y-58119701D01*
X78009326Y-58132174D01*
X78014630Y-58179249D01*
X78074210Y-58349521D01*
X78134022Y-58444711D01*
X78170184Y-58502262D01*
X78297738Y-58629816D01*
X78450478Y-58725789D01*
X78620745Y-58785368D01*
X78620750Y-58785369D01*
X78799996Y-58805565D01*
X78800000Y-58805565D01*
X78800004Y-58805565D01*
X78979249Y-58785369D01*
X78979252Y-58785368D01*
X78979255Y-58785368D01*
X79149522Y-58725789D01*
X79302262Y-58629816D01*
X79429816Y-58502262D01*
X79525789Y-58349522D01*
X79585368Y-58179255D01*
X79592469Y-58116233D01*
X79605565Y-58000003D01*
X79605565Y-57999996D01*
X79585369Y-57820750D01*
X79585368Y-57820745D01*
X79569230Y-57774626D01*
X79525789Y-57650478D01*
X79429816Y-57497738D01*
X79302262Y-57370184D01*
X79270066Y-57349954D01*
X79149521Y-57274210D01*
X78979249Y-57214630D01*
X78932174Y-57209326D01*
X78867760Y-57182259D01*
X78858378Y-57173787D01*
X75712928Y-54028338D01*
X75712925Y-54028334D01*
X75712925Y-54028335D01*
X75705858Y-54021268D01*
X75705858Y-54021267D01*
X75618733Y-53934142D01*
X75555075Y-53891607D01*
X75555076Y-53891607D01*
X75555074Y-53891605D01*
X75516290Y-53865690D01*
X75516286Y-53865688D01*
X75430126Y-53830000D01*
X75430124Y-53829998D01*
X75402455Y-53818538D01*
X75402453Y-53818537D01*
X75402452Y-53818537D01*
X75342029Y-53806518D01*
X75281610Y-53794500D01*
X75281607Y-53794500D01*
X75281606Y-53794500D01*
X74367814Y-53794500D01*
X74300775Y-53774815D01*
X74255020Y-53722011D01*
X74245076Y-53652853D01*
X74250773Y-53629544D01*
X74273868Y-53563544D01*
X74314590Y-53506769D01*
X74379543Y-53481022D01*
X74390909Y-53480500D01*
X80307250Y-53480500D01*
X80374289Y-53500185D01*
X80420044Y-53552989D01*
X80429988Y-53622147D01*
X80427025Y-53636593D01*
X80413452Y-53687247D01*
X80413450Y-53687258D01*
X80394838Y-53899998D01*
X80394838Y-53900001D01*
X80413450Y-54112741D01*
X80413452Y-54112752D01*
X80468721Y-54319022D01*
X80468723Y-54319026D01*
X80468724Y-54319030D01*
X80511171Y-54410058D01*
X80558977Y-54512578D01*
X80681472Y-54687521D01*
X80832478Y-54838527D01*
X80832481Y-54838529D01*
X81007419Y-54961021D01*
X81007421Y-54961022D01*
X81007420Y-54961022D01*
X81071936Y-54991106D01*
X81200970Y-55051276D01*
X81407253Y-55106549D01*
X81559215Y-55119844D01*
X81619998Y-55125162D01*
X81620000Y-55125162D01*
X81620002Y-55125162D01*
X81673186Y-55120508D01*
X81832747Y-55106549D01*
X82039030Y-55051276D01*
X82232581Y-54961021D01*
X82407519Y-54838529D01*
X82558529Y-54687519D01*
X82681021Y-54512581D01*
X82771276Y-54319030D01*
X82771280Y-54319013D01*
X82773130Y-54313936D01*
X82775253Y-54314709D01*
X82806576Y-54263305D01*
X82869419Y-54232766D01*
X82938796Y-54241050D01*
X82992680Y-54285528D01*
X83005827Y-54314315D01*
X83006870Y-54313936D01*
X83008722Y-54319022D01*
X83008724Y-54319030D01*
X83051171Y-54410058D01*
X83098977Y-54512578D01*
X83221472Y-54687521D01*
X83372478Y-54838527D01*
X83372481Y-54838529D01*
X83547419Y-54961021D01*
X83547421Y-54961022D01*
X83547420Y-54961022D01*
X83611936Y-54991106D01*
X83740970Y-55051276D01*
X83947253Y-55106549D01*
X84099215Y-55119844D01*
X84159998Y-55125162D01*
X84160000Y-55125162D01*
X84160002Y-55125162D01*
X84213186Y-55120508D01*
X84372747Y-55106549D01*
X84579030Y-55051276D01*
X84772581Y-54961021D01*
X84947519Y-54838529D01*
X85098529Y-54687519D01*
X85221021Y-54512581D01*
X85311276Y-54319030D01*
X85311280Y-54319013D01*
X85313130Y-54313936D01*
X85315253Y-54314709D01*
X85346576Y-54263305D01*
X85409419Y-54232766D01*
X85478796Y-54241050D01*
X85532680Y-54285528D01*
X85545827Y-54314315D01*
X85546870Y-54313936D01*
X85548722Y-54319022D01*
X85548724Y-54319030D01*
X85591171Y-54410058D01*
X85638977Y-54512578D01*
X85761472Y-54687521D01*
X85912478Y-54838527D01*
X85912481Y-54838529D01*
X86087419Y-54961021D01*
X86087421Y-54961022D01*
X86087420Y-54961022D01*
X86151936Y-54991106D01*
X86280970Y-55051276D01*
X86487253Y-55106549D01*
X86639215Y-55119844D01*
X86699998Y-55125162D01*
X86700000Y-55125162D01*
X86700002Y-55125162D01*
X86753186Y-55120508D01*
X86912747Y-55106549D01*
X87119030Y-55051276D01*
X87312581Y-54961021D01*
X87487519Y-54838529D01*
X87638529Y-54687519D01*
X87761021Y-54512581D01*
X87851276Y-54319030D01*
X87906549Y-54112747D01*
X87925162Y-53900000D01*
X87906549Y-53687253D01*
X87851276Y-53480970D01*
X87761021Y-53287419D01*
X87638529Y-53112481D01*
X87638527Y-53112478D01*
X87487521Y-52961472D01*
X87312578Y-52838977D01*
X87312579Y-52838977D01*
X87183547Y-52778809D01*
X87119030Y-52748724D01*
X87119026Y-52748723D01*
X87119022Y-52748721D01*
X86912752Y-52693452D01*
X86912748Y-52693451D01*
X86912747Y-52693451D01*
X86912746Y-52693450D01*
X86912741Y-52693450D01*
X86700002Y-52674838D01*
X86699998Y-52674838D01*
X86487258Y-52693450D01*
X86487247Y-52693452D01*
X86280977Y-52748721D01*
X86280968Y-52748725D01*
X86087421Y-52838977D01*
X85912478Y-52961472D01*
X85761472Y-53112478D01*
X85638977Y-53287421D01*
X85548725Y-53480968D01*
X85546870Y-53486064D01*
X85544749Y-53485292D01*
X85513406Y-53536710D01*
X85450558Y-53567237D01*
X85381183Y-53558939D01*
X85327307Y-53514452D01*
X85314169Y-53485685D01*
X85313130Y-53486064D01*
X85311279Y-53480983D01*
X85311276Y-53480970D01*
X85221021Y-53287419D01*
X85098529Y-53112481D01*
X85098527Y-53112478D01*
X84947521Y-52961472D01*
X84772578Y-52838977D01*
X84772579Y-52838977D01*
X84643547Y-52778809D01*
X84579030Y-52748724D01*
X84579026Y-52748723D01*
X84579022Y-52748721D01*
X84372752Y-52693452D01*
X84372748Y-52693451D01*
X84372747Y-52693451D01*
X84372746Y-52693450D01*
X84372741Y-52693450D01*
X84160002Y-52674838D01*
X84159998Y-52674838D01*
X83947258Y-52693450D01*
X83947241Y-52693453D01*
X83930269Y-52698001D01*
X83860420Y-52696337D01*
X83810497Y-52665907D01*
X83605198Y-52460608D01*
X83605178Y-52460586D01*
X83513733Y-52369141D01*
X83462509Y-52334915D01*
X83411286Y-52300688D01*
X83411283Y-52300686D01*
X83411280Y-52300685D01*
X83330792Y-52267347D01*
X83297453Y-52253537D01*
X83287427Y-52251543D01*
X83237029Y-52241518D01*
X83176610Y-52229500D01*
X83176607Y-52229500D01*
X83176606Y-52229500D01*
X74076607Y-52229500D01*
X73953393Y-52229500D01*
X73953389Y-52229500D01*
X73892971Y-52241518D01*
X73855259Y-52249019D01*
X73832550Y-52253536D01*
X73832548Y-52253537D01*
X73799207Y-52267347D01*
X73718719Y-52300684D01*
X73718705Y-52300692D01*
X73616272Y-52369138D01*
X73616264Y-52369144D01*
X73529142Y-52456267D01*
X73529139Y-52456270D01*
X73431621Y-52553788D01*
X73370297Y-52587272D01*
X73357825Y-52589326D01*
X73310750Y-52594630D01*
X73140478Y-52654210D01*
X72987737Y-52750184D01*
X72860184Y-52877737D01*
X72764211Y-53030476D01*
X72704631Y-53200745D01*
X72704630Y-53200750D01*
X72684435Y-53379996D01*
X72684435Y-53380003D01*
X72704630Y-53559249D01*
X72704633Y-53559262D01*
X72729227Y-53629545D01*
X72732789Y-53699324D01*
X72698061Y-53759951D01*
X72636068Y-53792179D01*
X72612186Y-53794500D01*
X69432378Y-53794500D01*
X69365339Y-53774815D01*
X69319584Y-53722011D01*
X69309158Y-53684385D01*
X69305368Y-53650745D01*
X69245789Y-53480478D01*
X69149816Y-53327738D01*
X69022262Y-53200184D01*
X68869523Y-53104211D01*
X68699254Y-53044631D01*
X68699249Y-53044630D01*
X68520004Y-53024435D01*
X68519996Y-53024435D01*
X68340750Y-53044630D01*
X68340745Y-53044631D01*
X68170476Y-53104211D01*
X68017737Y-53200184D01*
X67890184Y-53327737D01*
X67794211Y-53480476D01*
X67734631Y-53650745D01*
X67734630Y-53650750D01*
X67714435Y-53829996D01*
X50500500Y-53829996D01*
X50500500Y-50624500D01*
X50520185Y-50557461D01*
X50572989Y-50511706D01*
X50624500Y-50500500D01*
X99375500Y-50500500D01*
X99442539Y-50520185D01*
G37*
%TD.AperFunction*%
%TD*%
M02*
