%TF.GenerationSoftware,KiCad,Pcbnew,8.0.4*%
%TF.CreationDate,2025-01-06T14:26:04+00:00*%
%TF.ProjectId,essop_10_breakout,6573736f-705f-4313-905f-627265616b6f,rev?*%
%TF.SameCoordinates,Original*%
%TF.FileFunction,Legend,Top*%
%TF.FilePolarity,Positive*%
%FSLAX46Y46*%
G04 Gerber Fmt 4.6, Leading zero omitted, Abs format (unit mm)*
G04 Created by KiCad (PCBNEW 8.0.4) date 2025-01-06 14:26:04*
%MOMM*%
%LPD*%
G01*
G04 APERTURE LIST*
%ADD10C,0.300000*%
%ADD11C,0.120000*%
%ADD12C,0.150000*%
G04 APERTURE END LIST*
D10*
X60852631Y-65242614D02*
X61352631Y-65242614D01*
X61566917Y-66028328D02*
X60852631Y-66028328D01*
X60852631Y-66028328D02*
X60852631Y-64528328D01*
X60852631Y-64528328D02*
X61566917Y-64528328D01*
X62209774Y-66028328D02*
X62209774Y-64528328D01*
X62209774Y-64528328D02*
X62781203Y-64528328D01*
X62781203Y-64528328D02*
X62924060Y-64599757D01*
X62924060Y-64599757D02*
X62995489Y-64671185D01*
X62995489Y-64671185D02*
X63066917Y-64814042D01*
X63066917Y-64814042D02*
X63066917Y-65028328D01*
X63066917Y-65028328D02*
X62995489Y-65171185D01*
X62995489Y-65171185D02*
X62924060Y-65242614D01*
X62924060Y-65242614D02*
X62781203Y-65314042D01*
X62781203Y-65314042D02*
X62209774Y-65314042D01*
X61638347Y-53328328D02*
X60781204Y-53328328D01*
X61209775Y-53328328D02*
X61209775Y-51828328D01*
X61209775Y-51828328D02*
X61066918Y-52042614D01*
X61066918Y-52042614D02*
X60924061Y-52185471D01*
X60924061Y-52185471D02*
X60781204Y-52256900D01*
X62566918Y-51828328D02*
X62709775Y-51828328D01*
X62709775Y-51828328D02*
X62852632Y-51899757D01*
X62852632Y-51899757D02*
X62924061Y-51971185D01*
X62924061Y-51971185D02*
X62995489Y-52114042D01*
X62995489Y-52114042D02*
X63066918Y-52399757D01*
X63066918Y-52399757D02*
X63066918Y-52756900D01*
X63066918Y-52756900D02*
X62995489Y-53042614D01*
X62995489Y-53042614D02*
X62924061Y-53185471D01*
X62924061Y-53185471D02*
X62852632Y-53256900D01*
X62852632Y-53256900D02*
X62709775Y-53328328D01*
X62709775Y-53328328D02*
X62566918Y-53328328D01*
X62566918Y-53328328D02*
X62424061Y-53256900D01*
X62424061Y-53256900D02*
X62352632Y-53185471D01*
X62352632Y-53185471D02*
X62281203Y-53042614D01*
X62281203Y-53042614D02*
X62209775Y-52756900D01*
X62209775Y-52756900D02*
X62209775Y-52399757D01*
X62209775Y-52399757D02*
X62281203Y-52114042D01*
X62281203Y-52114042D02*
X62352632Y-51971185D01*
X62352632Y-51971185D02*
X62424061Y-51899757D01*
X62424061Y-51899757D02*
X62566918Y-51828328D01*
X55698796Y-61988328D02*
X54984510Y-61988328D01*
X54984510Y-61988328D02*
X54913082Y-62702614D01*
X54913082Y-62702614D02*
X54984510Y-62631185D01*
X54984510Y-62631185D02*
X55127368Y-62559757D01*
X55127368Y-62559757D02*
X55484510Y-62559757D01*
X55484510Y-62559757D02*
X55627368Y-62631185D01*
X55627368Y-62631185D02*
X55698796Y-62702614D01*
X55698796Y-62702614D02*
X55770225Y-62845471D01*
X55770225Y-62845471D02*
X55770225Y-63202614D01*
X55770225Y-63202614D02*
X55698796Y-63345471D01*
X55698796Y-63345471D02*
X55627368Y-63416900D01*
X55627368Y-63416900D02*
X55484510Y-63488328D01*
X55484510Y-63488328D02*
X55127368Y-63488328D01*
X55127368Y-63488328D02*
X54984510Y-63416900D01*
X54984510Y-63416900D02*
X54913082Y-63345471D01*
X62924061Y-61988328D02*
X62638346Y-61988328D01*
X62638346Y-61988328D02*
X62495489Y-62059757D01*
X62495489Y-62059757D02*
X62424061Y-62131185D01*
X62424061Y-62131185D02*
X62281203Y-62345471D01*
X62281203Y-62345471D02*
X62209775Y-62631185D01*
X62209775Y-62631185D02*
X62209775Y-63202614D01*
X62209775Y-63202614D02*
X62281203Y-63345471D01*
X62281203Y-63345471D02*
X62352632Y-63416900D01*
X62352632Y-63416900D02*
X62495489Y-63488328D01*
X62495489Y-63488328D02*
X62781203Y-63488328D01*
X62781203Y-63488328D02*
X62924061Y-63416900D01*
X62924061Y-63416900D02*
X62995489Y-63345471D01*
X62995489Y-63345471D02*
X63066918Y-63202614D01*
X63066918Y-63202614D02*
X63066918Y-62845471D01*
X63066918Y-62845471D02*
X62995489Y-62702614D01*
X62995489Y-62702614D02*
X62924061Y-62631185D01*
X62924061Y-62631185D02*
X62781203Y-62559757D01*
X62781203Y-62559757D02*
X62495489Y-62559757D01*
X62495489Y-62559757D02*
X62352632Y-62631185D01*
X62352632Y-62631185D02*
X62281203Y-62702614D01*
X62281203Y-62702614D02*
X62209775Y-62845471D01*
X55024510Y-65252614D02*
X55524510Y-65252614D01*
X55738796Y-66038328D02*
X55024510Y-66038328D01*
X55024510Y-66038328D02*
X55024510Y-64538328D01*
X55024510Y-64538328D02*
X55738796Y-64538328D01*
X56381653Y-66038328D02*
X56381653Y-64538328D01*
X56381653Y-64538328D02*
X56953082Y-64538328D01*
X56953082Y-64538328D02*
X57095939Y-64609757D01*
X57095939Y-64609757D02*
X57167368Y-64681185D01*
X57167368Y-64681185D02*
X57238796Y-64824042D01*
X57238796Y-64824042D02*
X57238796Y-65038328D01*
X57238796Y-65038328D02*
X57167368Y-65181185D01*
X57167368Y-65181185D02*
X57095939Y-65252614D01*
X57095939Y-65252614D02*
X56953082Y-65324042D01*
X56953082Y-65324042D02*
X56381653Y-65324042D01*
X55790225Y-53328328D02*
X54933082Y-53328328D01*
X55361653Y-53328328D02*
X55361653Y-51828328D01*
X55361653Y-51828328D02*
X55218796Y-52042614D01*
X55218796Y-52042614D02*
X55075939Y-52185471D01*
X55075939Y-52185471D02*
X54933082Y-52256900D01*
D11*
%TO.C,J5*%
X51320000Y-51320000D02*
X52650000Y-51320000D01*
X51320000Y-52650000D02*
X51320000Y-51320000D01*
X51320000Y-53920000D02*
X51320000Y-66680000D01*
X51320000Y-53920000D02*
X53980000Y-53920000D01*
X51320000Y-66680000D02*
X53980000Y-66680000D01*
X53980000Y-53920000D02*
X53980000Y-66680000D01*
D12*
%TO.C,U3*%
X56930000Y-56430000D02*
X61070000Y-56430000D01*
X56930000Y-61570000D02*
X61070000Y-61570000D01*
D11*
X56600000Y-56473081D02*
X56360000Y-56143081D01*
X56840000Y-56143081D01*
X56600000Y-56473081D01*
G36*
X56600000Y-56473081D02*
G01*
X56360000Y-56143081D01*
X56840000Y-56143081D01*
X56600000Y-56473081D01*
G37*
%TO.C,J6*%
X64020000Y-64080000D02*
X64020000Y-51320000D01*
X66680000Y-51320000D02*
X64020000Y-51320000D01*
X66680000Y-64080000D02*
X64020000Y-64080000D01*
X66680000Y-64080000D02*
X66680000Y-51320000D01*
X66680000Y-65350000D02*
X66680000Y-66680000D01*
X66680000Y-66680000D02*
X65350000Y-66680000D01*
%TD*%
M02*
