%TF.GenerationSoftware,KiCad,Pcbnew,8.0.4*%
%TF.CreationDate,2025-01-06T14:26:04+00:00*%
%TF.ProjectId,essop_10_breakout,6573736f-705f-4313-905f-627265616b6f,rev?*%
%TF.SameCoordinates,Original*%
%TF.FileFunction,Copper,L2,Bot*%
%TF.FilePolarity,Positive*%
%FSLAX46Y46*%
G04 Gerber Fmt 4.6, Leading zero omitted, Abs format (unit mm)*
G04 Created by KiCad (PCBNEW 8.0.4) date 2025-01-06 14:26:04*
%MOMM*%
%LPD*%
G01*
G04 APERTURE LIST*
%TA.AperFunction,ComponentPad*%
%ADD10R,1.700000X1.700000*%
%TD*%
%TA.AperFunction,ComponentPad*%
%ADD11O,1.700000X1.700000*%
%TD*%
%TA.AperFunction,ViaPad*%
%ADD12C,0.600000*%
%TD*%
%TA.AperFunction,Conductor*%
%ADD13C,0.200000*%
%TD*%
%TA.AperFunction,Conductor*%
%ADD14C,0.500000*%
%TD*%
G04 APERTURE END LIST*
D10*
%TO.P,J5,1,Pin_1*%
%TO.N,Net-(J5-Pin_1)*%
X52650000Y-52650000D03*
D11*
%TO.P,J5,2,Pin_2*%
%TO.N,/PIN2*%
X52650000Y-55190000D03*
%TO.P,J5,3,Pin_3*%
%TO.N,/PIN3*%
X52650000Y-57730000D03*
%TO.P,J5,4,Pin_4*%
%TO.N,Net-(J5-Pin_4)*%
X52650000Y-60270000D03*
%TO.P,J5,5,Pin_5*%
%TO.N,Net-(J5-Pin_5)*%
X52650000Y-62810000D03*
%TO.P,J5,6,Pin_6*%
%TO.N,/GND*%
X52650000Y-65350000D03*
%TD*%
D10*
%TO.P,J6,1,Pin_1*%
%TO.N,/GND*%
X65350000Y-65350000D03*
D11*
%TO.P,J6,2,Pin_2*%
%TO.N,/PIN6*%
X65350000Y-62810000D03*
%TO.P,J6,3,Pin_3*%
%TO.N,/PIN7*%
X65350000Y-60270000D03*
%TO.P,J6,4,Pin_4*%
%TO.N,/PIN8*%
X65350000Y-57730000D03*
%TO.P,J6,5,Pin_5*%
%TO.N,Net-(J6-Pin_5)*%
X65350000Y-55190000D03*
%TO.P,J6,6,Pin_6*%
%TO.N,Net-(J6-Pin_6)*%
X65350000Y-52650000D03*
%TD*%
D12*
%TO.N,/GND*%
X59000000Y-54360000D03*
%TD*%
D13*
%TO.N,/GND*%
X59010000Y-54370000D02*
X59000000Y-54380000D01*
D14*
X59020000Y-60750000D02*
X63620000Y-65350000D01*
X59000000Y-54380000D02*
X59000000Y-59000000D01*
X54330000Y-65350000D02*
X52650000Y-65350000D01*
X63620000Y-65350000D02*
X65350000Y-65350000D01*
X59020000Y-60660000D02*
X54330000Y-65350000D01*
X59020000Y-59020000D02*
X59020000Y-60750000D01*
D13*
X59020000Y-59020000D02*
X59020000Y-60660000D01*
X59000000Y-59000000D02*
X59020000Y-59020000D01*
%TD*%
%TA.AperFunction,Conductor*%
%TO.N,/GND*%
G36*
X67442539Y-50520185D02*
G01*
X67488294Y-50572989D01*
X67499500Y-50624500D01*
X67499500Y-67375500D01*
X67479815Y-67442539D01*
X67427011Y-67488294D01*
X67375500Y-67499500D01*
X50624500Y-67499500D01*
X50557461Y-67479815D01*
X50511706Y-67427011D01*
X50500500Y-67375500D01*
X50500500Y-55189999D01*
X51294341Y-55189999D01*
X51294341Y-55190000D01*
X51314936Y-55425403D01*
X51314938Y-55425413D01*
X51376094Y-55653655D01*
X51376096Y-55653659D01*
X51376097Y-55653663D01*
X51475965Y-55867830D01*
X51475967Y-55867834D01*
X51611501Y-56061395D01*
X51611506Y-56061402D01*
X51778597Y-56228493D01*
X51778603Y-56228498D01*
X51964158Y-56358425D01*
X52007783Y-56413002D01*
X52014977Y-56482500D01*
X51983454Y-56544855D01*
X51964158Y-56561575D01*
X51778597Y-56691505D01*
X51611505Y-56858597D01*
X51475965Y-57052169D01*
X51475964Y-57052171D01*
X51376098Y-57266335D01*
X51376094Y-57266344D01*
X51314938Y-57494586D01*
X51314936Y-57494596D01*
X51294341Y-57729999D01*
X51294341Y-57730000D01*
X51314936Y-57965403D01*
X51314938Y-57965413D01*
X51376094Y-58193655D01*
X51376096Y-58193659D01*
X51376097Y-58193663D01*
X51475965Y-58407830D01*
X51475967Y-58407834D01*
X51611501Y-58601395D01*
X51611506Y-58601402D01*
X51778597Y-58768493D01*
X51778603Y-58768498D01*
X51964158Y-58898425D01*
X52007783Y-58953002D01*
X52014977Y-59022500D01*
X51983454Y-59084855D01*
X51964158Y-59101575D01*
X51778597Y-59231505D01*
X51611505Y-59398597D01*
X51475965Y-59592169D01*
X51475964Y-59592171D01*
X51376098Y-59806335D01*
X51376094Y-59806344D01*
X51314938Y-60034586D01*
X51314936Y-60034596D01*
X51294341Y-60269999D01*
X51294341Y-60270000D01*
X51314936Y-60505403D01*
X51314938Y-60505413D01*
X51376094Y-60733655D01*
X51376096Y-60733659D01*
X51376097Y-60733663D01*
X51475965Y-60947830D01*
X51475967Y-60947834D01*
X51611501Y-61141395D01*
X51611506Y-61141402D01*
X51778597Y-61308493D01*
X51778603Y-61308498D01*
X51964158Y-61438425D01*
X52007783Y-61493002D01*
X52014977Y-61562500D01*
X51983454Y-61624855D01*
X51964158Y-61641575D01*
X51778597Y-61771505D01*
X51611505Y-61938597D01*
X51475965Y-62132169D01*
X51475964Y-62132171D01*
X51376098Y-62346335D01*
X51376094Y-62346344D01*
X51314938Y-62574586D01*
X51314936Y-62574596D01*
X51294341Y-62809999D01*
X51294341Y-62810000D01*
X51314936Y-63045403D01*
X51314938Y-63045413D01*
X51376094Y-63273655D01*
X51376096Y-63273659D01*
X51376097Y-63273663D01*
X51475965Y-63487830D01*
X51475967Y-63487834D01*
X51584281Y-63642521D01*
X51611501Y-63681396D01*
X51611506Y-63681402D01*
X51778597Y-63848493D01*
X51778603Y-63848498D01*
X51964594Y-63978730D01*
X52008219Y-64033307D01*
X52015413Y-64102805D01*
X51983890Y-64165160D01*
X51964595Y-64181880D01*
X51778922Y-64311890D01*
X51778920Y-64311891D01*
X51611891Y-64478920D01*
X51611886Y-64478926D01*
X51476400Y-64672420D01*
X51476399Y-64672422D01*
X51376570Y-64886507D01*
X51376567Y-64886513D01*
X51319364Y-65099999D01*
X51319364Y-65100000D01*
X52216988Y-65100000D01*
X52184075Y-65157007D01*
X52150000Y-65284174D01*
X52150000Y-65415826D01*
X52184075Y-65542993D01*
X52216988Y-65600000D01*
X51319364Y-65600000D01*
X51376567Y-65813486D01*
X51376570Y-65813492D01*
X51476399Y-66027578D01*
X51611894Y-66221082D01*
X51778917Y-66388105D01*
X51972421Y-66523600D01*
X52186507Y-66623429D01*
X52186516Y-66623433D01*
X52400000Y-66680634D01*
X52400000Y-65783012D01*
X52457007Y-65815925D01*
X52584174Y-65850000D01*
X52715826Y-65850000D01*
X52842993Y-65815925D01*
X52900000Y-65783012D01*
X52900000Y-66680633D01*
X53113483Y-66623433D01*
X53113492Y-66623429D01*
X53327578Y-66523600D01*
X53521082Y-66388105D01*
X53688105Y-66221082D01*
X53823600Y-66027578D01*
X53923429Y-65813492D01*
X53923432Y-65813486D01*
X53980636Y-65600000D01*
X53083012Y-65600000D01*
X53115925Y-65542993D01*
X53150000Y-65415826D01*
X53150000Y-65284174D01*
X53115925Y-65157007D01*
X53083012Y-65100000D01*
X53980636Y-65100000D01*
X53980635Y-65099999D01*
X53923432Y-64886513D01*
X53923429Y-64886507D01*
X53823600Y-64672422D01*
X53823599Y-64672420D01*
X53688113Y-64478926D01*
X53688108Y-64478920D01*
X53521078Y-64311890D01*
X53335405Y-64181879D01*
X53291780Y-64127302D01*
X53284588Y-64057804D01*
X53316110Y-63995449D01*
X53335406Y-63978730D01*
X53447500Y-63900241D01*
X53521401Y-63848495D01*
X53688495Y-63681401D01*
X53824035Y-63487830D01*
X53923903Y-63273663D01*
X53985063Y-63045408D01*
X54005659Y-62810000D01*
X53985063Y-62574592D01*
X53923903Y-62346337D01*
X53824035Y-62132171D01*
X53688495Y-61938599D01*
X53688494Y-61938597D01*
X53521402Y-61771506D01*
X53521396Y-61771501D01*
X53335842Y-61641575D01*
X53292217Y-61586998D01*
X53285023Y-61517500D01*
X53316546Y-61455145D01*
X53335842Y-61438425D01*
X53358026Y-61422891D01*
X53521401Y-61308495D01*
X53688495Y-61141401D01*
X53824035Y-60947830D01*
X53923903Y-60733663D01*
X53985063Y-60505408D01*
X54005659Y-60270000D01*
X53985063Y-60034592D01*
X53923903Y-59806337D01*
X53824035Y-59592171D01*
X53688495Y-59398599D01*
X53688494Y-59398597D01*
X53521402Y-59231506D01*
X53521396Y-59231501D01*
X53335842Y-59101575D01*
X53292217Y-59046998D01*
X53285023Y-58977500D01*
X53316546Y-58915145D01*
X53335842Y-58898425D01*
X53358026Y-58882891D01*
X53521401Y-58768495D01*
X53688495Y-58601401D01*
X53824035Y-58407830D01*
X53923903Y-58193663D01*
X53985063Y-57965408D01*
X54005659Y-57730000D01*
X53985063Y-57494592D01*
X53923903Y-57266337D01*
X53824035Y-57052171D01*
X53688495Y-56858599D01*
X53688494Y-56858597D01*
X53521402Y-56691506D01*
X53521396Y-56691501D01*
X53335842Y-56561575D01*
X53292217Y-56506998D01*
X53285023Y-56437500D01*
X53316546Y-56375145D01*
X53335842Y-56358425D01*
X53358026Y-56342891D01*
X53521401Y-56228495D01*
X53688495Y-56061401D01*
X53824035Y-55867830D01*
X53923903Y-55653663D01*
X53985063Y-55425408D01*
X54005659Y-55190000D01*
X53985063Y-54954592D01*
X53923903Y-54726337D01*
X53824035Y-54512171D01*
X53688495Y-54318599D01*
X53566567Y-54196671D01*
X53533084Y-54135351D01*
X53538068Y-54065659D01*
X53579939Y-54009725D01*
X53610915Y-53992810D01*
X53742331Y-53943796D01*
X53857546Y-53857546D01*
X53943796Y-53742331D01*
X53994091Y-53607483D01*
X54000500Y-53547873D01*
X54000499Y-52649999D01*
X63994341Y-52649999D01*
X63994341Y-52650000D01*
X64014936Y-52885403D01*
X64014938Y-52885413D01*
X64076094Y-53113655D01*
X64076096Y-53113659D01*
X64076097Y-53113663D01*
X64175965Y-53327830D01*
X64175967Y-53327834D01*
X64311501Y-53521395D01*
X64311506Y-53521402D01*
X64478597Y-53688493D01*
X64478603Y-53688498D01*
X64664158Y-53818425D01*
X64707783Y-53873002D01*
X64714977Y-53942500D01*
X64683454Y-54004855D01*
X64664158Y-54021575D01*
X64478597Y-54151505D01*
X64311505Y-54318597D01*
X64175965Y-54512169D01*
X64175964Y-54512171D01*
X64076098Y-54726335D01*
X64076094Y-54726344D01*
X64014938Y-54954586D01*
X64014936Y-54954596D01*
X63994341Y-55189999D01*
X63994341Y-55190000D01*
X64014936Y-55425403D01*
X64014938Y-55425413D01*
X64076094Y-55653655D01*
X64076096Y-55653659D01*
X64076097Y-55653663D01*
X64175965Y-55867830D01*
X64175967Y-55867834D01*
X64311501Y-56061395D01*
X64311506Y-56061402D01*
X64478597Y-56228493D01*
X64478603Y-56228498D01*
X64664158Y-56358425D01*
X64707783Y-56413002D01*
X64714977Y-56482500D01*
X64683454Y-56544855D01*
X64664158Y-56561575D01*
X64478597Y-56691505D01*
X64311505Y-56858597D01*
X64175965Y-57052169D01*
X64175964Y-57052171D01*
X64076098Y-57266335D01*
X64076094Y-57266344D01*
X64014938Y-57494586D01*
X64014936Y-57494596D01*
X63994341Y-57729999D01*
X63994341Y-57730000D01*
X64014936Y-57965403D01*
X64014938Y-57965413D01*
X64076094Y-58193655D01*
X64076096Y-58193659D01*
X64076097Y-58193663D01*
X64175965Y-58407830D01*
X64175967Y-58407834D01*
X64311501Y-58601395D01*
X64311506Y-58601402D01*
X64478597Y-58768493D01*
X64478603Y-58768498D01*
X64664158Y-58898425D01*
X64707783Y-58953002D01*
X64714977Y-59022500D01*
X64683454Y-59084855D01*
X64664158Y-59101575D01*
X64478597Y-59231505D01*
X64311505Y-59398597D01*
X64175965Y-59592169D01*
X64175964Y-59592171D01*
X64076098Y-59806335D01*
X64076094Y-59806344D01*
X64014938Y-60034586D01*
X64014936Y-60034596D01*
X63994341Y-60269999D01*
X63994341Y-60270000D01*
X64014936Y-60505403D01*
X64014938Y-60505413D01*
X64076094Y-60733655D01*
X64076096Y-60733659D01*
X64076097Y-60733663D01*
X64175965Y-60947830D01*
X64175967Y-60947834D01*
X64311501Y-61141395D01*
X64311506Y-61141402D01*
X64478597Y-61308493D01*
X64478603Y-61308498D01*
X64664158Y-61438425D01*
X64707783Y-61493002D01*
X64714977Y-61562500D01*
X64683454Y-61624855D01*
X64664158Y-61641575D01*
X64478597Y-61771505D01*
X64311505Y-61938597D01*
X64175965Y-62132169D01*
X64175964Y-62132171D01*
X64076098Y-62346335D01*
X64076094Y-62346344D01*
X64014938Y-62574586D01*
X64014936Y-62574596D01*
X63994341Y-62809999D01*
X63994341Y-62810000D01*
X64014936Y-63045403D01*
X64014938Y-63045413D01*
X64076094Y-63273655D01*
X64076096Y-63273659D01*
X64076097Y-63273663D01*
X64175965Y-63487830D01*
X64175967Y-63487834D01*
X64284281Y-63642521D01*
X64311501Y-63681396D01*
X64311506Y-63681402D01*
X64433818Y-63803714D01*
X64467303Y-63865037D01*
X64462319Y-63934729D01*
X64420447Y-63990662D01*
X64389471Y-64007577D01*
X64257912Y-64056646D01*
X64257906Y-64056649D01*
X64142812Y-64142809D01*
X64142809Y-64142812D01*
X64056649Y-64257906D01*
X64056645Y-64257913D01*
X64006403Y-64392620D01*
X64006401Y-64392627D01*
X64000000Y-64452155D01*
X64000000Y-65100000D01*
X64916988Y-65100000D01*
X64884075Y-65157007D01*
X64850000Y-65284174D01*
X64850000Y-65415826D01*
X64884075Y-65542993D01*
X64916988Y-65600000D01*
X64000000Y-65600000D01*
X64000000Y-66247844D01*
X64006401Y-66307372D01*
X64006403Y-66307379D01*
X64056645Y-66442086D01*
X64056649Y-66442093D01*
X64142809Y-66557187D01*
X64142812Y-66557190D01*
X64257906Y-66643350D01*
X64257913Y-66643354D01*
X64392620Y-66693596D01*
X64392627Y-66693598D01*
X64452155Y-66699999D01*
X64452172Y-66700000D01*
X65100000Y-66700000D01*
X65100000Y-65783012D01*
X65157007Y-65815925D01*
X65284174Y-65850000D01*
X65415826Y-65850000D01*
X65542993Y-65815925D01*
X65600000Y-65783012D01*
X65600000Y-66700000D01*
X66247828Y-66700000D01*
X66247844Y-66699999D01*
X66307372Y-66693598D01*
X66307379Y-66693596D01*
X66442086Y-66643354D01*
X66442093Y-66643350D01*
X66557187Y-66557190D01*
X66557190Y-66557187D01*
X66643350Y-66442093D01*
X66643354Y-66442086D01*
X66693596Y-66307379D01*
X66693598Y-66307372D01*
X66699999Y-66247844D01*
X66700000Y-66247827D01*
X66700000Y-65600000D01*
X65783012Y-65600000D01*
X65815925Y-65542993D01*
X65850000Y-65415826D01*
X65850000Y-65284174D01*
X65815925Y-65157007D01*
X65783012Y-65100000D01*
X66700000Y-65100000D01*
X66700000Y-64452172D01*
X66699999Y-64452155D01*
X66693598Y-64392627D01*
X66693596Y-64392620D01*
X66643354Y-64257913D01*
X66643350Y-64257906D01*
X66557190Y-64142812D01*
X66557187Y-64142809D01*
X66442093Y-64056649D01*
X66442088Y-64056646D01*
X66310528Y-64007577D01*
X66254595Y-63965705D01*
X66230178Y-63900241D01*
X66245030Y-63831968D01*
X66266175Y-63803720D01*
X66388495Y-63681401D01*
X66524035Y-63487830D01*
X66623903Y-63273663D01*
X66685063Y-63045408D01*
X66705659Y-62810000D01*
X66685063Y-62574592D01*
X66623903Y-62346337D01*
X66524035Y-62132171D01*
X66388495Y-61938599D01*
X66388494Y-61938597D01*
X66221402Y-61771506D01*
X66221396Y-61771501D01*
X66035842Y-61641575D01*
X65992217Y-61586998D01*
X65985023Y-61517500D01*
X66016546Y-61455145D01*
X66035842Y-61438425D01*
X66058026Y-61422891D01*
X66221401Y-61308495D01*
X66388495Y-61141401D01*
X66524035Y-60947830D01*
X66623903Y-60733663D01*
X66685063Y-60505408D01*
X66705659Y-60270000D01*
X66685063Y-60034592D01*
X66623903Y-59806337D01*
X66524035Y-59592171D01*
X66388495Y-59398599D01*
X66388494Y-59398597D01*
X66221402Y-59231506D01*
X66221396Y-59231501D01*
X66035842Y-59101575D01*
X65992217Y-59046998D01*
X65985023Y-58977500D01*
X66016546Y-58915145D01*
X66035842Y-58898425D01*
X66058026Y-58882891D01*
X66221401Y-58768495D01*
X66388495Y-58601401D01*
X66524035Y-58407830D01*
X66623903Y-58193663D01*
X66685063Y-57965408D01*
X66705659Y-57730000D01*
X66685063Y-57494592D01*
X66623903Y-57266337D01*
X66524035Y-57052171D01*
X66388495Y-56858599D01*
X66388494Y-56858597D01*
X66221402Y-56691506D01*
X66221396Y-56691501D01*
X66035842Y-56561575D01*
X65992217Y-56506998D01*
X65985023Y-56437500D01*
X66016546Y-56375145D01*
X66035842Y-56358425D01*
X66058026Y-56342891D01*
X66221401Y-56228495D01*
X66388495Y-56061401D01*
X66524035Y-55867830D01*
X66623903Y-55653663D01*
X66685063Y-55425408D01*
X66705659Y-55190000D01*
X66685063Y-54954592D01*
X66623903Y-54726337D01*
X66524035Y-54512171D01*
X66388495Y-54318599D01*
X66388494Y-54318597D01*
X66221402Y-54151506D01*
X66221396Y-54151501D01*
X66035842Y-54021575D01*
X65992217Y-53966998D01*
X65985023Y-53897500D01*
X66016546Y-53835145D01*
X66035842Y-53818425D01*
X66058026Y-53802891D01*
X66221401Y-53688495D01*
X66388495Y-53521401D01*
X66524035Y-53327830D01*
X66623903Y-53113663D01*
X66685063Y-52885408D01*
X66705659Y-52650000D01*
X66685063Y-52414592D01*
X66623903Y-52186337D01*
X66524035Y-51972171D01*
X66388495Y-51778599D01*
X66388494Y-51778597D01*
X66221402Y-51611506D01*
X66221395Y-51611501D01*
X66027834Y-51475967D01*
X66027830Y-51475965D01*
X66027828Y-51475964D01*
X65813663Y-51376097D01*
X65813659Y-51376096D01*
X65813655Y-51376094D01*
X65585413Y-51314938D01*
X65585403Y-51314936D01*
X65350001Y-51294341D01*
X65349999Y-51294341D01*
X65114596Y-51314936D01*
X65114586Y-51314938D01*
X64886344Y-51376094D01*
X64886335Y-51376098D01*
X64672171Y-51475964D01*
X64672169Y-51475965D01*
X64478597Y-51611505D01*
X64311505Y-51778597D01*
X64175965Y-51972169D01*
X64175964Y-51972171D01*
X64076098Y-52186335D01*
X64076094Y-52186344D01*
X64014938Y-52414586D01*
X64014936Y-52414596D01*
X63994341Y-52649999D01*
X54000499Y-52649999D01*
X54000499Y-51752128D01*
X53994091Y-51692517D01*
X53943796Y-51557669D01*
X53943795Y-51557668D01*
X53943793Y-51557664D01*
X53857547Y-51442455D01*
X53857544Y-51442452D01*
X53742335Y-51356206D01*
X53742328Y-51356202D01*
X53607482Y-51305908D01*
X53607483Y-51305908D01*
X53547883Y-51299501D01*
X53547881Y-51299500D01*
X53547873Y-51299500D01*
X53547864Y-51299500D01*
X51752129Y-51299500D01*
X51752123Y-51299501D01*
X51692516Y-51305908D01*
X51557671Y-51356202D01*
X51557664Y-51356206D01*
X51442455Y-51442452D01*
X51442452Y-51442455D01*
X51356206Y-51557664D01*
X51356202Y-51557671D01*
X51305908Y-51692517D01*
X51299501Y-51752116D01*
X51299501Y-51752123D01*
X51299500Y-51752135D01*
X51299500Y-53547870D01*
X51299501Y-53547876D01*
X51305908Y-53607483D01*
X51356202Y-53742328D01*
X51356206Y-53742335D01*
X51442452Y-53857544D01*
X51442455Y-53857547D01*
X51557664Y-53943793D01*
X51557671Y-53943797D01*
X51689081Y-53992810D01*
X51745015Y-54034681D01*
X51769432Y-54100145D01*
X51754580Y-54168418D01*
X51733430Y-54196673D01*
X51611503Y-54318600D01*
X51475965Y-54512169D01*
X51475964Y-54512171D01*
X51376098Y-54726335D01*
X51376094Y-54726344D01*
X51314938Y-54954586D01*
X51314936Y-54954596D01*
X51294341Y-55189999D01*
X50500500Y-55189999D01*
X50500500Y-50624500D01*
X50520185Y-50557461D01*
X50572989Y-50511706D01*
X50624500Y-50500500D01*
X67375500Y-50500500D01*
X67442539Y-50520185D01*
G37*
%TD.AperFunction*%
%TD*%
M02*
