%TF.GenerationSoftware,KiCad,Pcbnew,8.0.4*%
%TF.CreationDate,2025-01-06T14:26:04+00:00*%
%TF.ProjectId,essop_10_breakout,6573736f-705f-4313-905f-627265616b6f,rev?*%
%TF.SameCoordinates,Original*%
%TF.FileFunction,Legend,Bot*%
%TF.FilePolarity,Positive*%
%FSLAX46Y46*%
G04 Gerber Fmt 4.6, Leading zero omitted, Abs format (unit mm)*
G04 Created by KiCad (PCBNEW 8.0.4) date 2025-01-06 14:26:04*
%MOMM*%
%LPD*%
G01*
G04 APERTURE LIST*
%ADD10C,0.400000*%
G04 APERTURE END LIST*
D10*
X58856819Y-51476190D02*
X58856819Y-52142857D01*
X59904438Y-52428571D02*
X59904438Y-51476190D01*
X59904438Y-51476190D02*
X57904438Y-51476190D01*
X57904438Y-51476190D02*
X57904438Y-52428571D01*
X59809200Y-53190476D02*
X59904438Y-53476190D01*
X59904438Y-53476190D02*
X59904438Y-53952381D01*
X59904438Y-53952381D02*
X59809200Y-54142857D01*
X59809200Y-54142857D02*
X59713961Y-54238095D01*
X59713961Y-54238095D02*
X59523485Y-54333333D01*
X59523485Y-54333333D02*
X59333009Y-54333333D01*
X59333009Y-54333333D02*
X59142533Y-54238095D01*
X59142533Y-54238095D02*
X59047295Y-54142857D01*
X59047295Y-54142857D02*
X58952057Y-53952381D01*
X58952057Y-53952381D02*
X58856819Y-53571428D01*
X58856819Y-53571428D02*
X58761580Y-53380952D01*
X58761580Y-53380952D02*
X58666342Y-53285714D01*
X58666342Y-53285714D02*
X58475866Y-53190476D01*
X58475866Y-53190476D02*
X58285390Y-53190476D01*
X58285390Y-53190476D02*
X58094914Y-53285714D01*
X58094914Y-53285714D02*
X57999676Y-53380952D01*
X57999676Y-53380952D02*
X57904438Y-53571428D01*
X57904438Y-53571428D02*
X57904438Y-54047619D01*
X57904438Y-54047619D02*
X57999676Y-54333333D01*
X59809200Y-55095238D02*
X59904438Y-55380952D01*
X59904438Y-55380952D02*
X59904438Y-55857143D01*
X59904438Y-55857143D02*
X59809200Y-56047619D01*
X59809200Y-56047619D02*
X59713961Y-56142857D01*
X59713961Y-56142857D02*
X59523485Y-56238095D01*
X59523485Y-56238095D02*
X59333009Y-56238095D01*
X59333009Y-56238095D02*
X59142533Y-56142857D01*
X59142533Y-56142857D02*
X59047295Y-56047619D01*
X59047295Y-56047619D02*
X58952057Y-55857143D01*
X58952057Y-55857143D02*
X58856819Y-55476190D01*
X58856819Y-55476190D02*
X58761580Y-55285714D01*
X58761580Y-55285714D02*
X58666342Y-55190476D01*
X58666342Y-55190476D02*
X58475866Y-55095238D01*
X58475866Y-55095238D02*
X58285390Y-55095238D01*
X58285390Y-55095238D02*
X58094914Y-55190476D01*
X58094914Y-55190476D02*
X57999676Y-55285714D01*
X57999676Y-55285714D02*
X57904438Y-55476190D01*
X57904438Y-55476190D02*
X57904438Y-55952381D01*
X57904438Y-55952381D02*
X57999676Y-56238095D01*
X57904438Y-57476190D02*
X57904438Y-57857143D01*
X57904438Y-57857143D02*
X57999676Y-58047619D01*
X57999676Y-58047619D02*
X58190152Y-58238095D01*
X58190152Y-58238095D02*
X58571104Y-58333333D01*
X58571104Y-58333333D02*
X59237771Y-58333333D01*
X59237771Y-58333333D02*
X59618723Y-58238095D01*
X59618723Y-58238095D02*
X59809200Y-58047619D01*
X59809200Y-58047619D02*
X59904438Y-57857143D01*
X59904438Y-57857143D02*
X59904438Y-57476190D01*
X59904438Y-57476190D02*
X59809200Y-57285714D01*
X59809200Y-57285714D02*
X59618723Y-57095238D01*
X59618723Y-57095238D02*
X59237771Y-57000000D01*
X59237771Y-57000000D02*
X58571104Y-57000000D01*
X58571104Y-57000000D02*
X58190152Y-57095238D01*
X58190152Y-57095238D02*
X57999676Y-57285714D01*
X57999676Y-57285714D02*
X57904438Y-57476190D01*
X59904438Y-59190476D02*
X57904438Y-59190476D01*
X57904438Y-59190476D02*
X57904438Y-59952381D01*
X57904438Y-59952381D02*
X57999676Y-60142857D01*
X57999676Y-60142857D02*
X58094914Y-60238095D01*
X58094914Y-60238095D02*
X58285390Y-60333333D01*
X58285390Y-60333333D02*
X58571104Y-60333333D01*
X58571104Y-60333333D02*
X58761580Y-60238095D01*
X58761580Y-60238095D02*
X58856819Y-60142857D01*
X58856819Y-60142857D02*
X58952057Y-59952381D01*
X58952057Y-59952381D02*
X58952057Y-59190476D01*
X59142533Y-61190476D02*
X59142533Y-62714286D01*
X59904438Y-64714285D02*
X59904438Y-63571428D01*
X59904438Y-64142856D02*
X57904438Y-64142856D01*
X57904438Y-64142856D02*
X58190152Y-63952380D01*
X58190152Y-63952380D02*
X58380628Y-63761904D01*
X58380628Y-63761904D02*
X58475866Y-63571428D01*
X57904438Y-65952380D02*
X57904438Y-66142857D01*
X57904438Y-66142857D02*
X57999676Y-66333333D01*
X57999676Y-66333333D02*
X58094914Y-66428571D01*
X58094914Y-66428571D02*
X58285390Y-66523809D01*
X58285390Y-66523809D02*
X58666342Y-66619047D01*
X58666342Y-66619047D02*
X59142533Y-66619047D01*
X59142533Y-66619047D02*
X59523485Y-66523809D01*
X59523485Y-66523809D02*
X59713961Y-66428571D01*
X59713961Y-66428571D02*
X59809200Y-66333333D01*
X59809200Y-66333333D02*
X59904438Y-66142857D01*
X59904438Y-66142857D02*
X59904438Y-65952380D01*
X59904438Y-65952380D02*
X59809200Y-65761904D01*
X59809200Y-65761904D02*
X59713961Y-65666666D01*
X59713961Y-65666666D02*
X59523485Y-65571428D01*
X59523485Y-65571428D02*
X59142533Y-65476190D01*
X59142533Y-65476190D02*
X58666342Y-65476190D01*
X58666342Y-65476190D02*
X58285390Y-65571428D01*
X58285390Y-65571428D02*
X58094914Y-65666666D01*
X58094914Y-65666666D02*
X57999676Y-65761904D01*
X57999676Y-65761904D02*
X57904438Y-65952380D01*
M02*
